G04 EAGLE Gerber RS-274X export*
G75*
%MOMM*%
%FSLAX34Y34*%
%LPD*%
%IN*%
%IPPOS*%
%AMOC8*
5,1,8,0,0,1.08239X$1,22.5*%
G01*
%ADD10C,0.254000*%


D10*
X96580Y102900D02*
X96694Y100285D01*
X97036Y97691D01*
X97602Y95135D01*
X98389Y92639D01*
X99391Y90221D01*
X100599Y87900D01*
X102005Y85693D01*
X103599Y83616D01*
X105367Y81687D01*
X107296Y79919D01*
X109373Y78325D01*
X111580Y76919D01*
X113901Y75711D01*
X116319Y74709D01*
X118815Y73922D01*
X121371Y73356D01*
X123965Y73014D01*
X126580Y72900D01*
X1026580Y72900D01*
X1029195Y73014D01*
X1031789Y73356D01*
X1034345Y73922D01*
X1036841Y74709D01*
X1039259Y75711D01*
X1041580Y76919D01*
X1043787Y78325D01*
X1045864Y79919D01*
X1047793Y81687D01*
X1049561Y83616D01*
X1051155Y85693D01*
X1052561Y87900D01*
X1053769Y90221D01*
X1054771Y92639D01*
X1055558Y95135D01*
X1056124Y97691D01*
X1056466Y100285D01*
X1056580Y102900D01*
X1056580Y582900D01*
X1056466Y585515D01*
X1056124Y588109D01*
X1055558Y590665D01*
X1054771Y593161D01*
X1053769Y595579D01*
X1052561Y597900D01*
X1051155Y600107D01*
X1049561Y602184D01*
X1047793Y604113D01*
X1045864Y605881D01*
X1043787Y607475D01*
X1041580Y608881D01*
X1039259Y610089D01*
X1036841Y611091D01*
X1034345Y611878D01*
X1031789Y612444D01*
X1029195Y612786D01*
X1026580Y612900D01*
X126580Y612900D01*
X123965Y612786D01*
X121371Y612444D01*
X118815Y611878D01*
X116319Y611091D01*
X113901Y610089D01*
X111580Y608881D01*
X109373Y607475D01*
X107296Y605881D01*
X105367Y604113D01*
X103599Y602184D01*
X102005Y600107D01*
X100599Y597900D01*
X99391Y595579D01*
X98389Y593161D01*
X97602Y590665D01*
X97036Y588109D01*
X96694Y585515D01*
X96580Y582900D01*
X96580Y102900D01*
X338900Y228600D02*
X698900Y228600D01*
X698900Y471600D01*
X338900Y471600D01*
X338900Y228600D01*
X1033580Y572343D02*
X1033580Y573457D01*
X1033507Y574567D01*
X1033362Y575671D01*
X1033145Y576762D01*
X1032857Y577837D01*
X1032499Y578891D01*
X1032073Y579920D01*
X1031581Y580918D01*
X1031024Y581882D01*
X1030406Y582807D01*
X1029728Y583690D01*
X1028994Y584527D01*
X1028207Y585314D01*
X1027370Y586048D01*
X1026487Y586726D01*
X1025562Y587344D01*
X1024598Y587901D01*
X1023600Y588393D01*
X1022571Y588819D01*
X1021517Y589177D01*
X1020442Y589465D01*
X1019351Y589682D01*
X1018247Y589827D01*
X1017137Y589900D01*
X1016023Y589900D01*
X1014913Y589827D01*
X1013809Y589682D01*
X1012718Y589465D01*
X1011643Y589177D01*
X1010589Y588819D01*
X1009560Y588393D01*
X1008562Y587901D01*
X1007598Y587344D01*
X1006673Y586726D01*
X1005790Y586048D01*
X1004953Y585314D01*
X1004166Y584527D01*
X1003432Y583690D01*
X1002754Y582807D01*
X1002136Y581882D01*
X1001579Y580918D01*
X1001087Y579920D01*
X1000661Y578891D01*
X1000303Y577837D01*
X1000015Y576762D01*
X999798Y575671D01*
X999653Y574567D01*
X999580Y573457D01*
X999580Y572343D01*
X999653Y571233D01*
X999798Y570129D01*
X1000015Y569038D01*
X1000303Y567963D01*
X1000661Y566909D01*
X1001087Y565880D01*
X1001579Y564882D01*
X1002136Y563918D01*
X1002754Y562993D01*
X1003432Y562110D01*
X1004166Y561273D01*
X1004953Y560486D01*
X1005790Y559752D01*
X1006673Y559074D01*
X1007598Y558456D01*
X1008562Y557899D01*
X1009560Y557407D01*
X1010589Y556981D01*
X1011643Y556623D01*
X1012718Y556335D01*
X1013809Y556118D01*
X1014913Y555973D01*
X1016023Y555900D01*
X1017137Y555900D01*
X1018247Y555973D01*
X1019351Y556118D01*
X1020442Y556335D01*
X1021517Y556623D01*
X1022571Y556981D01*
X1023600Y557407D01*
X1024598Y557899D01*
X1025562Y558456D01*
X1026487Y559074D01*
X1027370Y559752D01*
X1028207Y560486D01*
X1028994Y561273D01*
X1029728Y562110D01*
X1030406Y562993D01*
X1031024Y563918D01*
X1031581Y564882D01*
X1032073Y565880D01*
X1032499Y566909D01*
X1032857Y567963D01*
X1033145Y569038D01*
X1033362Y570129D01*
X1033507Y571233D01*
X1033580Y572343D01*
X153580Y112343D02*
X153580Y113457D01*
X153507Y114567D01*
X153362Y115671D01*
X153145Y116762D01*
X152857Y117837D01*
X152499Y118891D01*
X152073Y119920D01*
X151581Y120918D01*
X151024Y121882D01*
X150406Y122807D01*
X149728Y123690D01*
X148994Y124527D01*
X148207Y125314D01*
X147370Y126048D01*
X146487Y126726D01*
X145562Y127344D01*
X144598Y127901D01*
X143600Y128393D01*
X142571Y128819D01*
X141517Y129177D01*
X140442Y129465D01*
X139351Y129682D01*
X138247Y129827D01*
X137137Y129900D01*
X136023Y129900D01*
X134913Y129827D01*
X133809Y129682D01*
X132718Y129465D01*
X131643Y129177D01*
X130589Y128819D01*
X129560Y128393D01*
X128562Y127901D01*
X127598Y127344D01*
X126673Y126726D01*
X125790Y126048D01*
X124953Y125314D01*
X124166Y124527D01*
X123432Y123690D01*
X122754Y122807D01*
X122136Y121882D01*
X121579Y120918D01*
X121087Y119920D01*
X120661Y118891D01*
X120303Y117837D01*
X120015Y116762D01*
X119798Y115671D01*
X119653Y114567D01*
X119580Y113457D01*
X119580Y112343D01*
X119653Y111233D01*
X119798Y110129D01*
X120015Y109038D01*
X120303Y107963D01*
X120661Y106909D01*
X121087Y105880D01*
X121579Y104882D01*
X122136Y103918D01*
X122754Y102993D01*
X123432Y102110D01*
X124166Y101273D01*
X124953Y100486D01*
X125790Y99752D01*
X126673Y99074D01*
X127598Y98456D01*
X128562Y97899D01*
X129560Y97407D01*
X130589Y96981D01*
X131643Y96623D01*
X132718Y96335D01*
X133809Y96118D01*
X134913Y95973D01*
X136023Y95900D01*
X137137Y95900D01*
X138247Y95973D01*
X139351Y96118D01*
X140442Y96335D01*
X141517Y96623D01*
X142571Y96981D01*
X143600Y97407D01*
X144598Y97899D01*
X145562Y98456D01*
X146487Y99074D01*
X147370Y99752D01*
X148207Y100486D01*
X148994Y101273D01*
X149728Y102110D01*
X150406Y102993D01*
X151024Y103918D01*
X151581Y104882D01*
X152073Y105880D01*
X152499Y106909D01*
X152857Y107963D01*
X153145Y109038D01*
X153362Y110129D01*
X153507Y111233D01*
X153580Y112343D01*
X153580Y572343D02*
X153580Y573457D01*
X153507Y574567D01*
X153362Y575671D01*
X153145Y576762D01*
X152857Y577837D01*
X152499Y578891D01*
X152073Y579920D01*
X151581Y580918D01*
X151024Y581882D01*
X150406Y582807D01*
X149728Y583690D01*
X148994Y584527D01*
X148207Y585314D01*
X147370Y586048D01*
X146487Y586726D01*
X145562Y587344D01*
X144598Y587901D01*
X143600Y588393D01*
X142571Y588819D01*
X141517Y589177D01*
X140442Y589465D01*
X139351Y589682D01*
X138247Y589827D01*
X137137Y589900D01*
X136023Y589900D01*
X134913Y589827D01*
X133809Y589682D01*
X132718Y589465D01*
X131643Y589177D01*
X130589Y588819D01*
X129560Y588393D01*
X128562Y587901D01*
X127598Y587344D01*
X126673Y586726D01*
X125790Y586048D01*
X124953Y585314D01*
X124166Y584527D01*
X123432Y583690D01*
X122754Y582807D01*
X122136Y581882D01*
X121579Y580918D01*
X121087Y579920D01*
X120661Y578891D01*
X120303Y577837D01*
X120015Y576762D01*
X119798Y575671D01*
X119653Y574567D01*
X119580Y573457D01*
X119580Y572343D01*
X119653Y571233D01*
X119798Y570129D01*
X120015Y569038D01*
X120303Y567963D01*
X120661Y566909D01*
X121087Y565880D01*
X121579Y564882D01*
X122136Y563918D01*
X122754Y562993D01*
X123432Y562110D01*
X124166Y561273D01*
X124953Y560486D01*
X125790Y559752D01*
X126673Y559074D01*
X127598Y558456D01*
X128562Y557899D01*
X129560Y557407D01*
X130589Y556981D01*
X131643Y556623D01*
X132718Y556335D01*
X133809Y556118D01*
X134913Y555973D01*
X136023Y555900D01*
X137137Y555900D01*
X138247Y555973D01*
X139351Y556118D01*
X140442Y556335D01*
X141517Y556623D01*
X142571Y556981D01*
X143600Y557407D01*
X144598Y557899D01*
X145562Y558456D01*
X146487Y559074D01*
X147370Y559752D01*
X148207Y560486D01*
X148994Y561273D01*
X149728Y562110D01*
X150406Y562993D01*
X151024Y563918D01*
X151581Y564882D01*
X152073Y565880D01*
X152499Y566909D01*
X152857Y567963D01*
X153145Y569038D01*
X153362Y570129D01*
X153507Y571233D01*
X153580Y572343D01*
X1033580Y112343D02*
X1033580Y113457D01*
X1033507Y114567D01*
X1033362Y115671D01*
X1033145Y116762D01*
X1032857Y117837D01*
X1032499Y118891D01*
X1032073Y119920D01*
X1031581Y120918D01*
X1031024Y121882D01*
X1030406Y122807D01*
X1029728Y123690D01*
X1028994Y124527D01*
X1028207Y125314D01*
X1027370Y126048D01*
X1026487Y126726D01*
X1025562Y127344D01*
X1024598Y127901D01*
X1023600Y128393D01*
X1022571Y128819D01*
X1021517Y129177D01*
X1020442Y129465D01*
X1019351Y129682D01*
X1018247Y129827D01*
X1017137Y129900D01*
X1016023Y129900D01*
X1014913Y129827D01*
X1013809Y129682D01*
X1012718Y129465D01*
X1011643Y129177D01*
X1010589Y128819D01*
X1009560Y128393D01*
X1008562Y127901D01*
X1007598Y127344D01*
X1006673Y126726D01*
X1005790Y126048D01*
X1004953Y125314D01*
X1004166Y124527D01*
X1003432Y123690D01*
X1002754Y122807D01*
X1002136Y121882D01*
X1001579Y120918D01*
X1001087Y119920D01*
X1000661Y118891D01*
X1000303Y117837D01*
X1000015Y116762D01*
X999798Y115671D01*
X999653Y114567D01*
X999580Y113457D01*
X999580Y112343D01*
X999653Y111233D01*
X999798Y110129D01*
X1000015Y109038D01*
X1000303Y107963D01*
X1000661Y106909D01*
X1001087Y105880D01*
X1001579Y104882D01*
X1002136Y103918D01*
X1002754Y102993D01*
X1003432Y102110D01*
X1004166Y101273D01*
X1004953Y100486D01*
X1005790Y99752D01*
X1006673Y99074D01*
X1007598Y98456D01*
X1008562Y97899D01*
X1009560Y97407D01*
X1010589Y96981D01*
X1011643Y96623D01*
X1012718Y96335D01*
X1013809Y96118D01*
X1014913Y95973D01*
X1016023Y95900D01*
X1017137Y95900D01*
X1018247Y95973D01*
X1019351Y96118D01*
X1020442Y96335D01*
X1021517Y96623D01*
X1022571Y96981D01*
X1023600Y97407D01*
X1024598Y97899D01*
X1025562Y98456D01*
X1026487Y99074D01*
X1027370Y99752D01*
X1028207Y100486D01*
X1028994Y101273D01*
X1029728Y102110D01*
X1030406Y102993D01*
X1031024Y103918D01*
X1031581Y104882D01*
X1032073Y105880D01*
X1032499Y106909D01*
X1032857Y107963D01*
X1033145Y109038D01*
X1033362Y110129D01*
X1033507Y111233D01*
X1033580Y112343D01*
M02*
