M48
;GenerationSoftware,Autodesk,EAGLE,9.6.2*%
;CreationDate,2022-07-22T22:44:50Z*%
FMAT,2
ICI,OFF
METRIC,TZ,000.000
T7C0.381
T6C0.508
T5C1.016
T4C1.600
T3C1.905
T2C3.400
T1C4.572
%
G90
M71
T1
X78810Y24638
X71610Y24638
T2
X32258Y93218
X112268Y93218
X112268Y23241
X32258Y23241
T3
X99210Y95490
X90960Y95490
X91798Y21096
X100048Y21096
X53236Y95490
X44986Y95490
T4
X75438Y55372
X78842Y55372
X78842Y41910
X75438Y41910
T5
X91694Y84074
X92964Y43180
X109728Y59436
X109728Y56896
X109728Y54356
X48514Y30734
X67056Y72644
T6
X115316Y67818
X112268Y46482
X97028Y86614
T7
X102616Y38354
X105156Y38354
X58674Y94742
X60452Y96012
X62484Y96520
X99568Y90424
X101854Y90424
X99568Y88138
X86360Y29972
X89154Y64770
X89154Y62484
X89154Y60198
X89154Y57912
X108712Y68834
X106426Y68834
X104140Y68834
X70612Y53086
X88900Y29972
X100076Y38354
X105156Y40894
X102616Y40894
X100076Y40894
X75438Y82804
X88900Y82804
X71628Y32512
X73914Y32512
X73914Y34798
X71628Y34798
X51054Y20828
X51054Y23114
X51054Y25400
X23622Y85852
X21336Y85852
X23622Y88138
X105156Y43434
X102616Y43434
X100076Y43434
X21336Y88138
X50800Y75946
X50800Y78486
X50800Y81026
X91440Y29972
X101854Y88138
M30