M48
;GenerationSoftware,Autodesk,EAGLE,9.6.2*%
;CreationDate,2022-07-11T03:01:42Z*%
FMAT,2
ICI,OFF
METRIC,TZ,000.000
T6C0.381
T5C0.508
T4C1.016
T3C1.905
T2C3.400
T1C4.572
%
G90
M71
T1
X78810Y24638
X71610Y24638
T2
X32258Y93218
X112268Y93218
X112268Y23241
X32258Y23241
T3
X99210Y95490
X90960Y95490
X91798Y21096
X100048Y21096
X53236Y95490
X44986Y95490
T4
X91694Y84074
X92964Y43180
X109728Y59436
X109728Y56896
X109728Y54356
X48768Y28448
X67056Y72644
T5
X115316Y57912
X94742Y85852
T6
X105156Y43434
X100076Y40894
X102616Y40894
X105156Y40894
X100076Y38354
X102616Y38354
X105156Y38354
X58674Y94742
X60452Y96012
X62484Y96520
X99568Y90424
X71628Y34798
X99568Y88138
X101854Y88138
X89154Y64770
X89154Y62484
X89154Y60198
X89154Y57912
X108712Y68834
X106426Y68834
X104140Y68834
X112268Y67818
X102616Y43434
X100076Y43434
X91440Y29972
X88900Y29972
X75438Y82804
X88900Y82804
X51308Y20828
X51308Y23114
X51308Y25400
X23622Y85852
X21336Y85852
X23622Y88138
X21336Y88138
X50800Y75946
X50800Y78486
X50800Y81026
X86360Y29972
X71628Y32512
X73914Y32512
X73914Y34798
X101854Y90424
M30