G04 EAGLE Gerber RS-274X export*
G75*
%MOMM*%
%FSLAX34Y34*%
%LPD*%
%IN*%
%IPPOS*%
%AMOC8*
5,1,8,0,0,1.08239X$1,22.5*%
G01*
%ADD10C,0.254000*%


D10*
X172160Y181660D02*
X1147841Y181660D01*
X1153941Y181926D01*
X1159995Y182723D01*
X1165956Y184044D01*
X1171780Y185880D01*
X1177421Y188217D01*
X1182837Y191036D01*
X1187987Y194316D01*
X1192719Y197939D01*
X1224943Y227338D01*
X1254482Y259433D01*
X1281111Y293980D01*
X1304628Y330717D01*
X1324853Y369364D01*
X1341633Y409626D01*
X1354841Y451198D01*
X1364374Y493762D01*
X1370162Y536996D01*
X1372160Y580569D01*
X1370352Y624151D01*
X1364753Y667409D01*
X1355405Y710015D01*
X1342380Y751644D01*
X1325775Y791979D01*
X1305719Y830714D01*
X1282362Y867553D01*
X1255884Y902216D01*
X1226486Y934440D01*
X1194391Y963979D01*
X1192719Y965381D01*
X1187867Y969088D01*
X1182710Y972357D01*
X1177288Y975165D01*
X1171642Y977490D01*
X1165815Y979314D01*
X1159851Y980622D01*
X1153795Y981407D01*
X1147841Y981660D01*
X172160Y981660D01*
X172160Y831660D01*
X262160Y831660D01*
X262198Y832532D01*
X262312Y833396D01*
X262501Y834248D01*
X262763Y835080D01*
X263097Y835886D01*
X263500Y836660D01*
X263968Y837396D01*
X264500Y838088D01*
X265089Y838731D01*
X265732Y839320D01*
X266424Y839852D01*
X267160Y840320D01*
X267934Y840723D01*
X268740Y841057D01*
X269572Y841319D01*
X270424Y841508D01*
X271288Y841622D01*
X272160Y841660D01*
X273032Y841622D01*
X273896Y841508D01*
X274748Y841319D01*
X275580Y841057D01*
X276386Y840723D01*
X277160Y840320D01*
X277896Y839852D01*
X278588Y839320D01*
X279231Y838731D01*
X279820Y838088D01*
X280352Y837396D01*
X280820Y836660D01*
X281223Y835886D01*
X281557Y835080D01*
X281819Y834248D01*
X282008Y833396D01*
X282122Y832532D01*
X282160Y831660D01*
X282122Y830788D01*
X282008Y829924D01*
X281819Y829072D01*
X281557Y828240D01*
X281223Y827434D01*
X280820Y826660D01*
X280352Y825924D01*
X279820Y825232D01*
X279231Y824589D01*
X278588Y824000D01*
X277896Y823468D01*
X277160Y823000D01*
X276386Y822597D01*
X275580Y822263D01*
X274748Y822001D01*
X273896Y821812D01*
X273032Y821698D01*
X272160Y821660D01*
X272160Y631660D01*
X272236Y629917D01*
X272464Y628187D01*
X272841Y626484D01*
X273366Y624820D01*
X274034Y623208D01*
X274840Y621660D01*
X275777Y620188D01*
X276839Y618804D01*
X278018Y617518D01*
X279304Y616339D01*
X280688Y615277D01*
X282160Y614340D01*
X283708Y613534D01*
X285320Y612866D01*
X286984Y612341D01*
X288687Y611964D01*
X290417Y611736D01*
X292160Y611660D01*
X293903Y611736D01*
X295633Y611964D01*
X297336Y612341D01*
X299000Y612866D01*
X300612Y613534D01*
X302160Y614340D01*
X303632Y615277D01*
X305016Y616339D01*
X306302Y617518D01*
X307481Y618804D01*
X308543Y620188D01*
X309481Y621660D01*
X310286Y623208D01*
X310954Y624820D01*
X311479Y626484D01*
X311856Y628187D01*
X312084Y629917D01*
X312160Y631660D01*
X312160Y746660D01*
X312198Y747532D01*
X312312Y748396D01*
X312501Y749248D01*
X312763Y750080D01*
X313097Y750886D01*
X313500Y751660D01*
X313968Y752396D01*
X314500Y753088D01*
X315089Y753731D01*
X315732Y754320D01*
X316424Y754852D01*
X317160Y755320D01*
X317934Y755723D01*
X318740Y756057D01*
X319572Y756319D01*
X320424Y756508D01*
X321288Y756622D01*
X322160Y756660D01*
X342160Y756660D01*
X343032Y756622D01*
X343896Y756508D01*
X344748Y756319D01*
X345580Y756057D01*
X346386Y755723D01*
X347160Y755320D01*
X347896Y754852D01*
X348588Y754320D01*
X349231Y753731D01*
X349820Y753088D01*
X350352Y752396D01*
X350820Y751660D01*
X351223Y750886D01*
X351557Y750080D01*
X351819Y749248D01*
X352008Y748396D01*
X352122Y747532D01*
X352160Y746660D01*
X352160Y416660D01*
X352122Y415788D01*
X352008Y414924D01*
X351819Y414072D01*
X351557Y413240D01*
X351223Y412434D01*
X350820Y411660D01*
X350352Y410924D01*
X349820Y410232D01*
X349231Y409589D01*
X348588Y409000D01*
X347896Y408468D01*
X347160Y408000D01*
X346386Y407597D01*
X345580Y407263D01*
X344748Y407001D01*
X343896Y406812D01*
X343032Y406698D01*
X342160Y406660D01*
X322160Y406660D01*
X321288Y406698D01*
X320424Y406812D01*
X319572Y407001D01*
X318740Y407263D01*
X317934Y407597D01*
X317160Y408000D01*
X316424Y408468D01*
X315732Y409000D01*
X315089Y409589D01*
X314500Y410232D01*
X313968Y410924D01*
X313500Y411660D01*
X313097Y412434D01*
X312763Y413240D01*
X312501Y414072D01*
X312312Y414924D01*
X312198Y415788D01*
X312160Y416660D01*
X312160Y531660D01*
X312084Y533403D01*
X311856Y535133D01*
X311479Y536836D01*
X310954Y538500D01*
X310286Y540112D01*
X309481Y541660D01*
X308543Y543132D01*
X307481Y544516D01*
X306302Y545802D01*
X305016Y546981D01*
X303632Y548043D01*
X302160Y548981D01*
X300612Y549786D01*
X299000Y550454D01*
X297336Y550979D01*
X295633Y551356D01*
X293903Y551584D01*
X292160Y551660D01*
X290417Y551584D01*
X288687Y551356D01*
X286984Y550979D01*
X285320Y550454D01*
X283708Y549786D01*
X282160Y548981D01*
X280688Y548043D01*
X279304Y546981D01*
X278018Y545802D01*
X276839Y544516D01*
X275777Y543132D01*
X274840Y541660D01*
X274034Y540112D01*
X273366Y538500D01*
X272841Y536836D01*
X272464Y535133D01*
X272236Y533403D01*
X272160Y531660D01*
X272160Y341660D01*
X273032Y341622D01*
X273896Y341508D01*
X274748Y341319D01*
X275580Y341057D01*
X276386Y340723D01*
X277160Y340320D01*
X277896Y339852D01*
X278588Y339320D01*
X279231Y338731D01*
X279820Y338088D01*
X280352Y337396D01*
X280820Y336660D01*
X281223Y335886D01*
X281557Y335080D01*
X281819Y334248D01*
X282008Y333396D01*
X282122Y332532D01*
X282160Y331660D01*
X282122Y330788D01*
X282008Y329924D01*
X281819Y329072D01*
X281557Y328240D01*
X281223Y327434D01*
X280820Y326660D01*
X280352Y325924D01*
X279820Y325232D01*
X279231Y324589D01*
X278588Y324000D01*
X277896Y323468D01*
X277160Y323000D01*
X276386Y322597D01*
X275580Y322263D01*
X274748Y322001D01*
X273896Y321812D01*
X273032Y321698D01*
X272160Y321660D01*
X271288Y321698D01*
X270424Y321812D01*
X269572Y322001D01*
X268740Y322263D01*
X267934Y322597D01*
X267160Y323000D01*
X266424Y323468D01*
X265732Y324000D01*
X265089Y324589D01*
X264500Y325232D01*
X263968Y325924D01*
X263500Y326660D01*
X263097Y327434D01*
X262763Y328240D01*
X262501Y329072D01*
X262312Y329924D01*
X262198Y330788D01*
X262160Y331660D01*
X172160Y331660D01*
X172160Y181660D01*
X1172160Y309631D02*
X1172225Y308016D01*
X1172442Y306285D01*
X1172809Y304579D01*
X1173323Y302912D01*
X1173980Y301295D01*
X1174775Y299743D01*
X1175703Y298265D01*
X1176757Y296874D01*
X1177927Y295580D01*
X1179206Y294393D01*
X1180583Y293322D01*
X1182049Y292375D01*
X1183591Y291559D01*
X1185199Y290881D01*
X1186860Y290346D01*
X1188560Y289957D01*
X1190289Y289719D01*
X1192031Y289631D01*
X1193775Y289696D01*
X1195506Y289913D01*
X1197212Y290279D01*
X1198880Y290793D01*
X1200496Y291451D01*
X1202049Y292246D01*
X1203526Y293174D01*
X1204917Y294228D01*
X1206211Y295398D01*
X1207398Y296677D01*
X1211051Y301030D01*
X1234220Y331632D01*
X1254634Y364136D01*
X1272137Y398296D01*
X1286596Y433852D01*
X1297901Y470532D01*
X1305967Y508058D01*
X1310731Y546145D01*
X1312158Y584501D01*
X1310236Y622836D01*
X1304980Y660858D01*
X1296431Y698277D01*
X1284652Y734808D01*
X1269735Y770174D01*
X1251792Y804105D01*
X1230960Y836343D01*
X1207398Y866643D01*
X1206303Y867831D01*
X1205016Y869010D01*
X1203632Y870072D01*
X1202161Y871009D01*
X1200613Y871815D01*
X1199001Y872483D01*
X1197337Y873008D01*
X1195634Y873385D01*
X1193904Y873613D01*
X1192161Y873689D01*
X1190417Y873613D01*
X1188688Y873385D01*
X1186984Y873008D01*
X1185320Y872483D01*
X1183708Y871815D01*
X1182160Y871010D01*
X1180689Y870072D01*
X1179305Y869010D01*
X1178018Y867832D01*
X1176839Y866545D01*
X1175777Y865161D01*
X1174840Y863689D01*
X1174034Y862142D01*
X1173366Y860530D01*
X1172842Y858866D01*
X1172464Y857162D01*
X1172236Y855433D01*
X1172160Y853689D01*
X1172160Y309631D01*
X339160Y231103D02*
X339160Y232217D01*
X339087Y233327D01*
X338942Y234431D01*
X338725Y235522D01*
X338437Y236597D01*
X338079Y237651D01*
X337653Y238680D01*
X337161Y239678D01*
X336604Y240642D01*
X335986Y241567D01*
X335308Y242450D01*
X334574Y243287D01*
X333787Y244074D01*
X332950Y244808D01*
X332067Y245486D01*
X331142Y246104D01*
X330178Y246661D01*
X329180Y247153D01*
X328151Y247579D01*
X327097Y247937D01*
X326022Y248225D01*
X324931Y248442D01*
X323827Y248587D01*
X322717Y248660D01*
X321603Y248660D01*
X320493Y248587D01*
X319389Y248442D01*
X318298Y248225D01*
X317223Y247937D01*
X316169Y247579D01*
X315140Y247153D01*
X314142Y246661D01*
X313178Y246104D01*
X312253Y245486D01*
X311370Y244808D01*
X310533Y244074D01*
X309746Y243287D01*
X309012Y242450D01*
X308334Y241567D01*
X307716Y240642D01*
X307159Y239678D01*
X306667Y238680D01*
X306241Y237651D01*
X305883Y236597D01*
X305595Y235522D01*
X305378Y234431D01*
X305233Y233327D01*
X305160Y232217D01*
X305160Y231103D01*
X305233Y229993D01*
X305378Y228889D01*
X305595Y227798D01*
X305883Y226723D01*
X306241Y225669D01*
X306667Y224640D01*
X307159Y223642D01*
X307716Y222678D01*
X308334Y221753D01*
X309012Y220870D01*
X309746Y220033D01*
X310533Y219246D01*
X311370Y218512D01*
X312253Y217834D01*
X313178Y217216D01*
X314142Y216659D01*
X315140Y216167D01*
X316169Y215741D01*
X317223Y215383D01*
X318298Y215095D01*
X319389Y214878D01*
X320493Y214733D01*
X321603Y214660D01*
X322717Y214660D01*
X323827Y214733D01*
X324931Y214878D01*
X326022Y215095D01*
X327097Y215383D01*
X328151Y215741D01*
X329180Y216167D01*
X330178Y216659D01*
X331142Y217216D01*
X332067Y217834D01*
X332950Y218512D01*
X333787Y219246D01*
X334574Y220033D01*
X335308Y220870D01*
X335986Y221753D01*
X336604Y222678D01*
X337161Y223642D01*
X337653Y224640D01*
X338079Y225669D01*
X338437Y226723D01*
X338725Y227798D01*
X338942Y228889D01*
X339087Y229993D01*
X339160Y231103D01*
X339160Y931103D02*
X339160Y932217D01*
X339087Y933327D01*
X338942Y934431D01*
X338725Y935522D01*
X338437Y936597D01*
X338079Y937651D01*
X337653Y938680D01*
X337161Y939678D01*
X336604Y940642D01*
X335986Y941567D01*
X335308Y942450D01*
X334574Y943287D01*
X333787Y944074D01*
X332950Y944808D01*
X332067Y945486D01*
X331142Y946104D01*
X330178Y946661D01*
X329180Y947153D01*
X328151Y947579D01*
X327097Y947937D01*
X326022Y948225D01*
X324931Y948442D01*
X323827Y948587D01*
X322717Y948660D01*
X321603Y948660D01*
X320493Y948587D01*
X319389Y948442D01*
X318298Y948225D01*
X317223Y947937D01*
X316169Y947579D01*
X315140Y947153D01*
X314142Y946661D01*
X313178Y946104D01*
X312253Y945486D01*
X311370Y944808D01*
X310533Y944074D01*
X309746Y943287D01*
X309012Y942450D01*
X308334Y941567D01*
X307716Y940642D01*
X307159Y939678D01*
X306667Y938680D01*
X306241Y937651D01*
X305883Y936597D01*
X305595Y935522D01*
X305378Y934431D01*
X305233Y933327D01*
X305160Y932217D01*
X305160Y931103D01*
X305233Y929993D01*
X305378Y928889D01*
X305595Y927798D01*
X305883Y926723D01*
X306241Y925669D01*
X306667Y924640D01*
X307159Y923642D01*
X307716Y922678D01*
X308334Y921753D01*
X309012Y920870D01*
X309746Y920033D01*
X310533Y919246D01*
X311370Y918512D01*
X312253Y917834D01*
X313178Y917216D01*
X314142Y916659D01*
X315140Y916167D01*
X316169Y915741D01*
X317223Y915383D01*
X318298Y915095D01*
X319389Y914878D01*
X320493Y914733D01*
X321603Y914660D01*
X322717Y914660D01*
X323827Y914733D01*
X324931Y914878D01*
X326022Y915095D01*
X327097Y915383D01*
X328151Y915741D01*
X329180Y916167D01*
X330178Y916659D01*
X331142Y917216D01*
X332067Y917834D01*
X332950Y918512D01*
X333787Y919246D01*
X334574Y920033D01*
X335308Y920870D01*
X335986Y921753D01*
X336604Y922678D01*
X337161Y923642D01*
X337653Y924640D01*
X338079Y925669D01*
X338437Y926723D01*
X338725Y927798D01*
X338942Y928889D01*
X339087Y929993D01*
X339160Y931103D01*
X239160Y231103D02*
X239160Y232217D01*
X239087Y233327D01*
X238942Y234431D01*
X238725Y235522D01*
X238437Y236597D01*
X238079Y237651D01*
X237653Y238680D01*
X237161Y239678D01*
X236604Y240642D01*
X235986Y241567D01*
X235308Y242450D01*
X234574Y243287D01*
X233787Y244074D01*
X232950Y244808D01*
X232067Y245486D01*
X231142Y246104D01*
X230178Y246661D01*
X229180Y247153D01*
X228151Y247579D01*
X227097Y247937D01*
X226022Y248225D01*
X224931Y248442D01*
X223827Y248587D01*
X222717Y248660D01*
X221603Y248660D01*
X220493Y248587D01*
X219389Y248442D01*
X218298Y248225D01*
X217223Y247937D01*
X216169Y247579D01*
X215140Y247153D01*
X214142Y246661D01*
X213178Y246104D01*
X212253Y245486D01*
X211370Y244808D01*
X210533Y244074D01*
X209746Y243287D01*
X209012Y242450D01*
X208334Y241567D01*
X207716Y240642D01*
X207159Y239678D01*
X206667Y238680D01*
X206241Y237651D01*
X205883Y236597D01*
X205595Y235522D01*
X205378Y234431D01*
X205233Y233327D01*
X205160Y232217D01*
X205160Y231103D01*
X205233Y229993D01*
X205378Y228889D01*
X205595Y227798D01*
X205883Y226723D01*
X206241Y225669D01*
X206667Y224640D01*
X207159Y223642D01*
X207716Y222678D01*
X208334Y221753D01*
X209012Y220870D01*
X209746Y220033D01*
X210533Y219246D01*
X211370Y218512D01*
X212253Y217834D01*
X213178Y217216D01*
X214142Y216659D01*
X215140Y216167D01*
X216169Y215741D01*
X217223Y215383D01*
X218298Y215095D01*
X219389Y214878D01*
X220493Y214733D01*
X221603Y214660D01*
X222717Y214660D01*
X223827Y214733D01*
X224931Y214878D01*
X226022Y215095D01*
X227097Y215383D01*
X228151Y215741D01*
X229180Y216167D01*
X230178Y216659D01*
X231142Y217216D01*
X232067Y217834D01*
X232950Y218512D01*
X233787Y219246D01*
X234574Y220033D01*
X235308Y220870D01*
X235986Y221753D01*
X236604Y222678D01*
X237161Y223642D01*
X237653Y224640D01*
X238079Y225669D01*
X238437Y226723D01*
X238725Y227798D01*
X238942Y228889D01*
X239087Y229993D01*
X239160Y231103D01*
X239160Y931103D02*
X239160Y932217D01*
X239087Y933327D01*
X238942Y934431D01*
X238725Y935522D01*
X238437Y936597D01*
X238079Y937651D01*
X237653Y938680D01*
X237161Y939678D01*
X236604Y940642D01*
X235986Y941567D01*
X235308Y942450D01*
X234574Y943287D01*
X233787Y944074D01*
X232950Y944808D01*
X232067Y945486D01*
X231142Y946104D01*
X230178Y946661D01*
X229180Y947153D01*
X228151Y947579D01*
X227097Y947937D01*
X226022Y948225D01*
X224931Y948442D01*
X223827Y948587D01*
X222717Y948660D01*
X221603Y948660D01*
X220493Y948587D01*
X219389Y948442D01*
X218298Y948225D01*
X217223Y947937D01*
X216169Y947579D01*
X215140Y947153D01*
X214142Y946661D01*
X213178Y946104D01*
X212253Y945486D01*
X211370Y944808D01*
X210533Y944074D01*
X209746Y943287D01*
X209012Y942450D01*
X208334Y941567D01*
X207716Y940642D01*
X207159Y939678D01*
X206667Y938680D01*
X206241Y937651D01*
X205883Y936597D01*
X205595Y935522D01*
X205378Y934431D01*
X205233Y933327D01*
X205160Y932217D01*
X205160Y931103D01*
X205233Y929993D01*
X205378Y928889D01*
X205595Y927798D01*
X205883Y926723D01*
X206241Y925669D01*
X206667Y924640D01*
X207159Y923642D01*
X207716Y922678D01*
X208334Y921753D01*
X209012Y920870D01*
X209746Y920033D01*
X210533Y919246D01*
X211370Y918512D01*
X212253Y917834D01*
X213178Y917216D01*
X214142Y916659D01*
X215140Y916167D01*
X216169Y915741D01*
X217223Y915383D01*
X218298Y915095D01*
X219389Y914878D01*
X220493Y914733D01*
X221603Y914660D01*
X222717Y914660D01*
X223827Y914733D01*
X224931Y914878D01*
X226022Y915095D01*
X227097Y915383D01*
X228151Y915741D01*
X229180Y916167D01*
X230178Y916659D01*
X231142Y917216D01*
X232067Y917834D01*
X232950Y918512D01*
X233787Y919246D01*
X234574Y920033D01*
X235308Y920870D01*
X235986Y921753D01*
X236604Y922678D01*
X237161Y923642D01*
X237653Y924640D01*
X238079Y925669D01*
X238437Y926723D01*
X238725Y927798D01*
X238942Y928889D01*
X239087Y929993D01*
X239160Y931103D01*
X1139160Y931103D02*
X1139160Y932217D01*
X1139087Y933327D01*
X1138942Y934431D01*
X1138725Y935522D01*
X1138437Y936597D01*
X1138079Y937651D01*
X1137653Y938680D01*
X1137161Y939678D01*
X1136604Y940642D01*
X1135986Y941567D01*
X1135308Y942450D01*
X1134574Y943287D01*
X1133787Y944074D01*
X1132950Y944808D01*
X1132067Y945486D01*
X1131142Y946104D01*
X1130178Y946661D01*
X1129180Y947153D01*
X1128151Y947579D01*
X1127097Y947937D01*
X1126022Y948225D01*
X1124931Y948442D01*
X1123827Y948587D01*
X1122717Y948660D01*
X1121603Y948660D01*
X1120493Y948587D01*
X1119389Y948442D01*
X1118298Y948225D01*
X1117223Y947937D01*
X1116169Y947579D01*
X1115140Y947153D01*
X1114142Y946661D01*
X1113178Y946104D01*
X1112253Y945486D01*
X1111370Y944808D01*
X1110533Y944074D01*
X1109746Y943287D01*
X1109012Y942450D01*
X1108334Y941567D01*
X1107716Y940642D01*
X1107159Y939678D01*
X1106667Y938680D01*
X1106241Y937651D01*
X1105883Y936597D01*
X1105595Y935522D01*
X1105378Y934431D01*
X1105233Y933327D01*
X1105160Y932217D01*
X1105160Y931103D01*
X1105233Y929993D01*
X1105378Y928889D01*
X1105595Y927798D01*
X1105883Y926723D01*
X1106241Y925669D01*
X1106667Y924640D01*
X1107159Y923642D01*
X1107716Y922678D01*
X1108334Y921753D01*
X1109012Y920870D01*
X1109746Y920033D01*
X1110533Y919246D01*
X1111370Y918512D01*
X1112253Y917834D01*
X1113178Y917216D01*
X1114142Y916659D01*
X1115140Y916167D01*
X1116169Y915741D01*
X1117223Y915383D01*
X1118298Y915095D01*
X1119389Y914878D01*
X1120493Y914733D01*
X1121603Y914660D01*
X1122717Y914660D01*
X1123827Y914733D01*
X1124931Y914878D01*
X1126022Y915095D01*
X1127097Y915383D01*
X1128151Y915741D01*
X1129180Y916167D01*
X1130178Y916659D01*
X1131142Y917216D01*
X1132067Y917834D01*
X1132950Y918512D01*
X1133787Y919246D01*
X1134574Y920033D01*
X1135308Y920870D01*
X1135986Y921753D01*
X1136604Y922678D01*
X1137161Y923642D01*
X1137653Y924640D01*
X1138079Y925669D01*
X1138437Y926723D01*
X1138725Y927798D01*
X1138942Y928889D01*
X1139087Y929993D01*
X1139160Y931103D01*
X1139160Y231103D02*
X1139160Y232217D01*
X1139087Y233327D01*
X1138942Y234431D01*
X1138725Y235522D01*
X1138437Y236597D01*
X1138079Y237651D01*
X1137653Y238680D01*
X1137161Y239678D01*
X1136604Y240642D01*
X1135986Y241567D01*
X1135308Y242450D01*
X1134574Y243287D01*
X1133787Y244074D01*
X1132950Y244808D01*
X1132067Y245486D01*
X1131142Y246104D01*
X1130178Y246661D01*
X1129180Y247153D01*
X1128151Y247579D01*
X1127097Y247937D01*
X1126022Y248225D01*
X1124931Y248442D01*
X1123827Y248587D01*
X1122717Y248660D01*
X1121603Y248660D01*
X1120493Y248587D01*
X1119389Y248442D01*
X1118298Y248225D01*
X1117223Y247937D01*
X1116169Y247579D01*
X1115140Y247153D01*
X1114142Y246661D01*
X1113178Y246104D01*
X1112253Y245486D01*
X1111370Y244808D01*
X1110533Y244074D01*
X1109746Y243287D01*
X1109012Y242450D01*
X1108334Y241567D01*
X1107716Y240642D01*
X1107159Y239678D01*
X1106667Y238680D01*
X1106241Y237651D01*
X1105883Y236597D01*
X1105595Y235522D01*
X1105378Y234431D01*
X1105233Y233327D01*
X1105160Y232217D01*
X1105160Y231103D01*
X1105233Y229993D01*
X1105378Y228889D01*
X1105595Y227798D01*
X1105883Y226723D01*
X1106241Y225669D01*
X1106667Y224640D01*
X1107159Y223642D01*
X1107716Y222678D01*
X1108334Y221753D01*
X1109012Y220870D01*
X1109746Y220033D01*
X1110533Y219246D01*
X1111370Y218512D01*
X1112253Y217834D01*
X1113178Y217216D01*
X1114142Y216659D01*
X1115140Y216167D01*
X1116169Y215741D01*
X1117223Y215383D01*
X1118298Y215095D01*
X1119389Y214878D01*
X1120493Y214733D01*
X1121603Y214660D01*
X1122717Y214660D01*
X1123827Y214733D01*
X1124931Y214878D01*
X1126022Y215095D01*
X1127097Y215383D01*
X1128151Y215741D01*
X1129180Y216167D01*
X1130178Y216659D01*
X1131142Y217216D01*
X1132067Y217834D01*
X1132950Y218512D01*
X1133787Y219246D01*
X1134574Y220033D01*
X1135308Y220870D01*
X1135986Y221753D01*
X1136604Y222678D01*
X1137161Y223642D01*
X1137653Y224640D01*
X1138079Y225669D01*
X1138437Y226723D01*
X1138725Y227798D01*
X1138942Y228889D01*
X1139087Y229993D01*
X1139160Y231103D01*
M02*
