G04 EAGLE Gerber RS-274X export*
G75*
%MOMM*%
%FSLAX34Y34*%
%LPD*%
%INSilkscreen Bottom*%
%IPPOS*%
%AMOC8*
5,1,8,0,0,1.08239X$1,22.5*%
G01*
%ADD10C,0.152400*%


D10*
X290322Y633222D02*
X298958Y633222D01*
X296079Y633222D02*
X296079Y635621D01*
X296077Y635696D01*
X296071Y635771D01*
X296061Y635846D01*
X296048Y635920D01*
X296030Y635993D01*
X296009Y636066D01*
X295983Y636137D01*
X295955Y636206D01*
X295922Y636274D01*
X295886Y636341D01*
X295847Y636405D01*
X295804Y636467D01*
X295758Y636527D01*
X295709Y636584D01*
X295658Y636639D01*
X295603Y636690D01*
X295546Y636739D01*
X295486Y636785D01*
X295424Y636828D01*
X295360Y636867D01*
X295293Y636903D01*
X295225Y636936D01*
X295156Y636964D01*
X295085Y636990D01*
X295012Y637011D01*
X294939Y637029D01*
X294865Y637042D01*
X294790Y637052D01*
X294715Y637058D01*
X294640Y637060D01*
X290322Y637060D01*
X290322Y641237D02*
X296079Y641237D01*
X298478Y640997D02*
X298958Y640997D01*
X298958Y641477D01*
X298478Y641477D01*
X298478Y640997D01*
X296079Y645482D02*
X287443Y645482D01*
X296079Y645482D02*
X296079Y647881D01*
X296077Y647956D01*
X296071Y648031D01*
X296061Y648106D01*
X296048Y648180D01*
X296030Y648253D01*
X296009Y648326D01*
X295983Y648397D01*
X295955Y648466D01*
X295922Y648534D01*
X295886Y648601D01*
X295847Y648665D01*
X295804Y648727D01*
X295758Y648787D01*
X295709Y648844D01*
X295658Y648899D01*
X295603Y648950D01*
X295546Y648999D01*
X295486Y649045D01*
X295424Y649088D01*
X295360Y649127D01*
X295293Y649163D01*
X295225Y649196D01*
X295156Y649224D01*
X295085Y649250D01*
X295012Y649271D01*
X294939Y649289D01*
X294865Y649302D01*
X294790Y649312D01*
X294715Y649318D01*
X294640Y649320D01*
X291761Y649320D01*
X291686Y649318D01*
X291611Y649312D01*
X291536Y649302D01*
X291462Y649289D01*
X291389Y649271D01*
X291316Y649250D01*
X291245Y649224D01*
X291176Y649196D01*
X291108Y649163D01*
X291042Y649127D01*
X290977Y649088D01*
X290915Y649045D01*
X290855Y648999D01*
X290798Y648950D01*
X290743Y648899D01*
X290692Y648844D01*
X290643Y648787D01*
X290597Y648727D01*
X290554Y648665D01*
X290515Y648601D01*
X290479Y648534D01*
X290446Y648466D01*
X290418Y648397D01*
X290392Y648326D01*
X290371Y648253D01*
X290353Y648180D01*
X290340Y648106D01*
X290330Y648031D01*
X290324Y647956D01*
X290322Y647881D01*
X290322Y645482D01*
X287443Y653711D02*
X296079Y653711D01*
X296079Y656110D01*
X296077Y656185D01*
X296071Y656260D01*
X296061Y656335D01*
X296048Y656409D01*
X296030Y656482D01*
X296009Y656555D01*
X295983Y656626D01*
X295955Y656695D01*
X295922Y656763D01*
X295886Y656830D01*
X295847Y656894D01*
X295804Y656956D01*
X295758Y657016D01*
X295709Y657073D01*
X295658Y657128D01*
X295603Y657179D01*
X295546Y657228D01*
X295486Y657274D01*
X295424Y657317D01*
X295360Y657356D01*
X295293Y657392D01*
X295225Y657425D01*
X295156Y657453D01*
X295085Y657479D01*
X295012Y657500D01*
X294939Y657518D01*
X294865Y657531D01*
X294790Y657541D01*
X294715Y657547D01*
X294640Y657549D01*
X291761Y657549D01*
X291686Y657547D01*
X291611Y657541D01*
X291536Y657531D01*
X291462Y657518D01*
X291389Y657500D01*
X291316Y657479D01*
X291245Y657453D01*
X291176Y657425D01*
X291108Y657392D01*
X291042Y657356D01*
X290977Y657317D01*
X290915Y657274D01*
X290855Y657228D01*
X290798Y657179D01*
X290743Y657128D01*
X290692Y657073D01*
X290643Y657016D01*
X290597Y656956D01*
X290554Y656894D01*
X290515Y656830D01*
X290479Y656763D01*
X290446Y656695D01*
X290418Y656626D01*
X290392Y656555D01*
X290371Y656482D01*
X290353Y656409D01*
X290340Y656335D01*
X290330Y656260D01*
X290324Y656185D01*
X290322Y656110D01*
X290322Y653711D01*
X292241Y661568D02*
X294160Y661568D01*
X294246Y661570D01*
X294332Y661576D01*
X294418Y661585D01*
X294503Y661599D01*
X294587Y661616D01*
X294671Y661637D01*
X294753Y661662D01*
X294834Y661690D01*
X294914Y661722D01*
X294993Y661758D01*
X295069Y661797D01*
X295144Y661840D01*
X295217Y661885D01*
X295288Y661934D01*
X295356Y661987D01*
X295423Y662042D01*
X295486Y662100D01*
X295547Y662161D01*
X295605Y662224D01*
X295660Y662291D01*
X295713Y662359D01*
X295762Y662430D01*
X295807Y662503D01*
X295850Y662578D01*
X295889Y662654D01*
X295925Y662733D01*
X295957Y662813D01*
X295985Y662894D01*
X296010Y662976D01*
X296031Y663060D01*
X296048Y663144D01*
X296062Y663229D01*
X296071Y663315D01*
X296077Y663401D01*
X296079Y663487D01*
X296077Y663573D01*
X296071Y663659D01*
X296062Y663745D01*
X296048Y663830D01*
X296031Y663914D01*
X296010Y663998D01*
X295985Y664080D01*
X295957Y664161D01*
X295925Y664241D01*
X295889Y664320D01*
X295850Y664396D01*
X295807Y664471D01*
X295762Y664544D01*
X295713Y664615D01*
X295660Y664683D01*
X295605Y664750D01*
X295547Y664813D01*
X295486Y664874D01*
X295423Y664932D01*
X295356Y664987D01*
X295288Y665040D01*
X295217Y665089D01*
X295144Y665134D01*
X295069Y665177D01*
X294993Y665216D01*
X294914Y665252D01*
X294834Y665284D01*
X294753Y665312D01*
X294671Y665337D01*
X294587Y665358D01*
X294503Y665375D01*
X294418Y665389D01*
X294332Y665398D01*
X294246Y665404D01*
X294160Y665406D01*
X292241Y665406D01*
X292155Y665404D01*
X292069Y665398D01*
X291983Y665389D01*
X291898Y665375D01*
X291814Y665358D01*
X291730Y665337D01*
X291648Y665312D01*
X291567Y665284D01*
X291487Y665252D01*
X291408Y665216D01*
X291332Y665177D01*
X291257Y665134D01*
X291184Y665089D01*
X291113Y665040D01*
X291045Y664987D01*
X290978Y664932D01*
X290915Y664874D01*
X290854Y664813D01*
X290796Y664750D01*
X290741Y664683D01*
X290688Y664615D01*
X290639Y664544D01*
X290594Y664471D01*
X290551Y664396D01*
X290512Y664320D01*
X290476Y664241D01*
X290444Y664161D01*
X290416Y664080D01*
X290391Y663998D01*
X290370Y663914D01*
X290353Y663830D01*
X290339Y663745D01*
X290330Y663659D01*
X290324Y663573D01*
X290322Y663487D01*
X290324Y663401D01*
X290330Y663315D01*
X290339Y663229D01*
X290353Y663144D01*
X290370Y663060D01*
X290391Y662976D01*
X290416Y662894D01*
X290444Y662813D01*
X290476Y662733D01*
X290512Y662654D01*
X290551Y662578D01*
X290594Y662503D01*
X290639Y662430D01*
X290688Y662359D01*
X290741Y662291D01*
X290796Y662224D01*
X290854Y662161D01*
X290915Y662100D01*
X290978Y662042D01*
X291045Y661987D01*
X291113Y661934D01*
X291184Y661885D01*
X291257Y661840D01*
X291332Y661797D01*
X291408Y661758D01*
X291487Y661722D01*
X291567Y661690D01*
X291648Y661662D01*
X291730Y661637D01*
X291814Y661616D01*
X291898Y661599D01*
X291983Y661585D01*
X292069Y661576D01*
X292155Y661570D01*
X292241Y661568D01*
X293680Y669753D02*
X293680Y675510D01*
X296079Y680229D02*
X287443Y680229D01*
X296079Y680229D02*
X296079Y682628D01*
X296077Y682703D01*
X296071Y682778D01*
X296061Y682853D01*
X296048Y682927D01*
X296030Y683000D01*
X296009Y683073D01*
X295983Y683144D01*
X295955Y683213D01*
X295922Y683281D01*
X295886Y683348D01*
X295847Y683412D01*
X295804Y683474D01*
X295758Y683534D01*
X295709Y683591D01*
X295658Y683646D01*
X295603Y683697D01*
X295546Y683746D01*
X295486Y683792D01*
X295424Y683835D01*
X295360Y683874D01*
X295293Y683910D01*
X295225Y683943D01*
X295156Y683971D01*
X295085Y683997D01*
X295012Y684018D01*
X294939Y684036D01*
X294865Y684049D01*
X294790Y684059D01*
X294715Y684065D01*
X294640Y684067D01*
X291761Y684067D01*
X291686Y684065D01*
X291611Y684059D01*
X291536Y684049D01*
X291462Y684036D01*
X291389Y684018D01*
X291316Y683997D01*
X291245Y683971D01*
X291176Y683943D01*
X291108Y683910D01*
X291042Y683874D01*
X290977Y683835D01*
X290915Y683792D01*
X290855Y683746D01*
X290798Y683697D01*
X290743Y683646D01*
X290692Y683591D01*
X290643Y683534D01*
X290597Y683474D01*
X290554Y683412D01*
X290515Y683348D01*
X290479Y683281D01*
X290446Y683213D01*
X290418Y683144D01*
X290392Y683073D01*
X290371Y683000D01*
X290353Y682927D01*
X290340Y682853D01*
X290330Y682778D01*
X290324Y682703D01*
X290322Y682628D01*
X290322Y680229D01*
X293680Y688805D02*
X292721Y691204D01*
X293680Y688805D02*
X293707Y688742D01*
X293738Y688680D01*
X293773Y688620D01*
X293810Y688562D01*
X293851Y688506D01*
X293894Y688453D01*
X293941Y688402D01*
X293990Y688354D01*
X294042Y688308D01*
X294097Y688266D01*
X294154Y688226D01*
X294212Y688190D01*
X294273Y688157D01*
X294336Y688128D01*
X294399Y688102D01*
X294465Y688079D01*
X294531Y688061D01*
X294599Y688046D01*
X294667Y688034D01*
X294735Y688027D01*
X294804Y688023D01*
X294873Y688024D01*
X294942Y688028D01*
X295011Y688036D01*
X295079Y688047D01*
X295146Y688063D01*
X295213Y688082D01*
X295278Y688104D01*
X295342Y688131D01*
X295404Y688161D01*
X295464Y688194D01*
X295523Y688231D01*
X295579Y688270D01*
X295634Y688313D01*
X295685Y688359D01*
X295734Y688407D01*
X295781Y688459D01*
X295824Y688512D01*
X295864Y688568D01*
X295901Y688627D01*
X295935Y688687D01*
X295966Y688749D01*
X295993Y688812D01*
X296016Y688877D01*
X296036Y688943D01*
X296052Y689010D01*
X296065Y689078D01*
X296073Y689147D01*
X296078Y689216D01*
X296079Y689285D01*
X296076Y689424D01*
X296068Y689563D01*
X296057Y689702D01*
X296043Y689840D01*
X296025Y689978D01*
X296004Y690116D01*
X295979Y690253D01*
X295950Y690389D01*
X295918Y690525D01*
X295883Y690659D01*
X295844Y690793D01*
X295802Y690926D01*
X295756Y691057D01*
X295707Y691187D01*
X295655Y691316D01*
X295600Y691444D01*
X292721Y691204D02*
X292694Y691267D01*
X292663Y691329D01*
X292628Y691389D01*
X292591Y691447D01*
X292550Y691503D01*
X292507Y691556D01*
X292460Y691607D01*
X292411Y691655D01*
X292359Y691701D01*
X292304Y691743D01*
X292247Y691783D01*
X292189Y691819D01*
X292128Y691852D01*
X292066Y691881D01*
X292002Y691907D01*
X291936Y691930D01*
X291870Y691948D01*
X291802Y691963D01*
X291734Y691975D01*
X291666Y691982D01*
X291597Y691986D01*
X291528Y691985D01*
X291459Y691981D01*
X291390Y691973D01*
X291322Y691962D01*
X291255Y691946D01*
X291188Y691927D01*
X291123Y691905D01*
X291059Y691878D01*
X290997Y691848D01*
X290937Y691815D01*
X290878Y691778D01*
X290822Y691739D01*
X290767Y691696D01*
X290716Y691650D01*
X290667Y691602D01*
X290620Y691550D01*
X290577Y691497D01*
X290537Y691441D01*
X290500Y691382D01*
X290466Y691322D01*
X290435Y691260D01*
X290408Y691197D01*
X290385Y691132D01*
X290365Y691066D01*
X290349Y690999D01*
X290336Y690931D01*
X290328Y690862D01*
X290323Y690793D01*
X290322Y690724D01*
X290322Y690725D02*
X290327Y690532D01*
X290336Y690340D01*
X290351Y690148D01*
X290369Y689957D01*
X290392Y689766D01*
X290420Y689575D01*
X290452Y689385D01*
X290489Y689196D01*
X290530Y689008D01*
X290576Y688821D01*
X290626Y688636D01*
X290680Y688451D01*
X290739Y688268D01*
X290802Y688086D01*
X290322Y702342D02*
X290322Y704261D01*
X290322Y702342D02*
X290324Y702267D01*
X290330Y702192D01*
X290340Y702117D01*
X290353Y702043D01*
X290371Y701970D01*
X290392Y701897D01*
X290418Y701826D01*
X290446Y701757D01*
X290479Y701689D01*
X290515Y701623D01*
X290554Y701558D01*
X290597Y701496D01*
X290643Y701436D01*
X290692Y701379D01*
X290743Y701324D01*
X290798Y701273D01*
X290855Y701224D01*
X290915Y701178D01*
X290977Y701135D01*
X291042Y701096D01*
X291108Y701060D01*
X291176Y701027D01*
X291245Y700999D01*
X291316Y700973D01*
X291389Y700952D01*
X291462Y700934D01*
X291536Y700921D01*
X291611Y700911D01*
X291686Y700905D01*
X291761Y700903D01*
X294640Y700903D01*
X294715Y700905D01*
X294790Y700911D01*
X294865Y700921D01*
X294939Y700934D01*
X295012Y700952D01*
X295085Y700973D01*
X295156Y700999D01*
X295225Y701027D01*
X295293Y701060D01*
X295360Y701096D01*
X295424Y701135D01*
X295486Y701178D01*
X295546Y701224D01*
X295603Y701273D01*
X295658Y701324D01*
X295709Y701379D01*
X295758Y701436D01*
X295804Y701496D01*
X295847Y701558D01*
X295886Y701623D01*
X295922Y701689D01*
X295955Y701757D01*
X295983Y701826D01*
X296009Y701897D01*
X296030Y701970D01*
X296048Y702043D01*
X296061Y702117D01*
X296071Y702192D01*
X296077Y702267D01*
X296079Y702342D01*
X296079Y704261D01*
X294160Y707898D02*
X292241Y707898D01*
X294160Y707898D02*
X294246Y707900D01*
X294332Y707906D01*
X294418Y707915D01*
X294503Y707929D01*
X294587Y707946D01*
X294671Y707967D01*
X294753Y707992D01*
X294834Y708020D01*
X294914Y708052D01*
X294993Y708088D01*
X295069Y708127D01*
X295144Y708170D01*
X295217Y708215D01*
X295288Y708264D01*
X295356Y708317D01*
X295423Y708372D01*
X295486Y708430D01*
X295547Y708491D01*
X295605Y708554D01*
X295660Y708621D01*
X295713Y708689D01*
X295762Y708760D01*
X295807Y708833D01*
X295850Y708908D01*
X295889Y708984D01*
X295925Y709063D01*
X295957Y709143D01*
X295985Y709224D01*
X296010Y709306D01*
X296031Y709390D01*
X296048Y709474D01*
X296062Y709559D01*
X296071Y709645D01*
X296077Y709731D01*
X296079Y709817D01*
X296077Y709903D01*
X296071Y709989D01*
X296062Y710075D01*
X296048Y710160D01*
X296031Y710244D01*
X296010Y710328D01*
X295985Y710410D01*
X295957Y710491D01*
X295925Y710571D01*
X295889Y710650D01*
X295850Y710726D01*
X295807Y710801D01*
X295762Y710874D01*
X295713Y710945D01*
X295660Y711013D01*
X295605Y711080D01*
X295547Y711143D01*
X295486Y711204D01*
X295423Y711262D01*
X295356Y711317D01*
X295288Y711370D01*
X295217Y711419D01*
X295144Y711464D01*
X295069Y711507D01*
X294993Y711546D01*
X294914Y711582D01*
X294834Y711614D01*
X294753Y711642D01*
X294671Y711667D01*
X294587Y711688D01*
X294503Y711705D01*
X294418Y711719D01*
X294332Y711728D01*
X294246Y711734D01*
X294160Y711736D01*
X292241Y711736D01*
X292155Y711734D01*
X292069Y711728D01*
X291983Y711719D01*
X291898Y711705D01*
X291814Y711688D01*
X291730Y711667D01*
X291648Y711642D01*
X291567Y711614D01*
X291487Y711582D01*
X291408Y711546D01*
X291332Y711507D01*
X291257Y711464D01*
X291184Y711419D01*
X291113Y711370D01*
X291045Y711317D01*
X290978Y711262D01*
X290915Y711204D01*
X290854Y711143D01*
X290796Y711080D01*
X290741Y711013D01*
X290688Y710945D01*
X290639Y710874D01*
X290594Y710801D01*
X290551Y710726D01*
X290512Y710650D01*
X290476Y710571D01*
X290444Y710491D01*
X290416Y710410D01*
X290391Y710328D01*
X290370Y710244D01*
X290353Y710160D01*
X290339Y710075D01*
X290330Y709989D01*
X290324Y709903D01*
X290322Y709817D01*
X290324Y709731D01*
X290330Y709645D01*
X290339Y709559D01*
X290353Y709474D01*
X290370Y709390D01*
X290391Y709306D01*
X290416Y709224D01*
X290444Y709143D01*
X290476Y709063D01*
X290512Y708984D01*
X290551Y708908D01*
X290594Y708833D01*
X290639Y708760D01*
X290688Y708689D01*
X290741Y708621D01*
X290796Y708554D01*
X290854Y708491D01*
X290915Y708430D01*
X290978Y708372D01*
X291045Y708317D01*
X291113Y708264D01*
X291184Y708215D01*
X291257Y708170D01*
X291332Y708127D01*
X291408Y708088D01*
X291487Y708052D01*
X291567Y708020D01*
X291648Y707992D01*
X291730Y707967D01*
X291814Y707946D01*
X291898Y707929D01*
X291983Y707915D01*
X292069Y707906D01*
X292155Y707900D01*
X292241Y707898D01*
X296079Y715518D02*
X290322Y717437D01*
X296079Y719356D01*
X290322Y724577D02*
X290322Y726976D01*
X290322Y724577D02*
X290324Y724502D01*
X290330Y724427D01*
X290340Y724352D01*
X290353Y724278D01*
X290371Y724205D01*
X290392Y724132D01*
X290418Y724061D01*
X290446Y723992D01*
X290479Y723924D01*
X290515Y723858D01*
X290554Y723793D01*
X290597Y723731D01*
X290643Y723671D01*
X290692Y723614D01*
X290743Y723559D01*
X290798Y723508D01*
X290855Y723459D01*
X290915Y723413D01*
X290977Y723370D01*
X291042Y723331D01*
X291108Y723295D01*
X291176Y723262D01*
X291245Y723234D01*
X291316Y723208D01*
X291389Y723187D01*
X291462Y723169D01*
X291536Y723156D01*
X291611Y723146D01*
X291686Y723140D01*
X291761Y723138D01*
X294160Y723138D01*
X294246Y723140D01*
X294332Y723146D01*
X294418Y723155D01*
X294503Y723169D01*
X294587Y723186D01*
X294671Y723207D01*
X294753Y723232D01*
X294834Y723260D01*
X294914Y723292D01*
X294993Y723328D01*
X295069Y723367D01*
X295144Y723410D01*
X295217Y723455D01*
X295288Y723504D01*
X295356Y723557D01*
X295423Y723612D01*
X295486Y723670D01*
X295547Y723731D01*
X295605Y723794D01*
X295660Y723861D01*
X295713Y723929D01*
X295762Y724000D01*
X295807Y724073D01*
X295850Y724148D01*
X295889Y724224D01*
X295925Y724303D01*
X295957Y724383D01*
X295985Y724464D01*
X296010Y724546D01*
X296031Y724630D01*
X296048Y724714D01*
X296062Y724799D01*
X296071Y724885D01*
X296077Y724971D01*
X296079Y725057D01*
X296077Y725143D01*
X296071Y725229D01*
X296062Y725315D01*
X296048Y725400D01*
X296031Y725484D01*
X296010Y725568D01*
X295985Y725650D01*
X295957Y725731D01*
X295925Y725811D01*
X295889Y725890D01*
X295850Y725966D01*
X295807Y726041D01*
X295762Y726114D01*
X295713Y726185D01*
X295660Y726253D01*
X295605Y726320D01*
X295547Y726383D01*
X295486Y726444D01*
X295423Y726502D01*
X295356Y726557D01*
X295288Y726610D01*
X295217Y726659D01*
X295144Y726704D01*
X295069Y726747D01*
X294993Y726786D01*
X294914Y726822D01*
X294834Y726854D01*
X294753Y726882D01*
X294671Y726907D01*
X294587Y726928D01*
X294503Y726945D01*
X294418Y726959D01*
X294332Y726968D01*
X294246Y726974D01*
X294160Y726976D01*
X293201Y726976D01*
X293201Y723138D01*
X290322Y731443D02*
X296079Y731443D01*
X296079Y734322D01*
X295120Y734322D01*
X296079Y742035D02*
X290322Y743954D01*
X296079Y745873D01*
X297039Y749785D02*
X298958Y752184D01*
X290322Y752184D01*
X290322Y749785D02*
X290322Y754583D01*
X287782Y370360D02*
X287782Y367961D01*
X287784Y367886D01*
X287790Y367811D01*
X287800Y367736D01*
X287813Y367662D01*
X287831Y367589D01*
X287852Y367516D01*
X287878Y367445D01*
X287906Y367376D01*
X287939Y367308D01*
X287975Y367242D01*
X288014Y367177D01*
X288057Y367115D01*
X288103Y367055D01*
X288152Y366998D01*
X288203Y366943D01*
X288258Y366892D01*
X288315Y366843D01*
X288375Y366797D01*
X288437Y366754D01*
X288502Y366715D01*
X288568Y366679D01*
X288636Y366646D01*
X288705Y366618D01*
X288776Y366592D01*
X288849Y366571D01*
X288922Y366553D01*
X288996Y366540D01*
X289071Y366530D01*
X289146Y366524D01*
X289221Y366522D01*
X291620Y366522D01*
X291706Y366524D01*
X291792Y366530D01*
X291878Y366539D01*
X291963Y366553D01*
X292047Y366570D01*
X292131Y366591D01*
X292213Y366616D01*
X292294Y366644D01*
X292374Y366676D01*
X292453Y366712D01*
X292529Y366751D01*
X292604Y366794D01*
X292677Y366839D01*
X292748Y366888D01*
X292816Y366941D01*
X292883Y366996D01*
X292946Y367054D01*
X293007Y367115D01*
X293065Y367178D01*
X293120Y367245D01*
X293173Y367313D01*
X293222Y367384D01*
X293267Y367457D01*
X293310Y367532D01*
X293349Y367608D01*
X293385Y367687D01*
X293417Y367767D01*
X293445Y367848D01*
X293470Y367930D01*
X293491Y368014D01*
X293508Y368098D01*
X293522Y368183D01*
X293531Y368269D01*
X293537Y368355D01*
X293539Y368441D01*
X293537Y368527D01*
X293531Y368613D01*
X293522Y368699D01*
X293508Y368784D01*
X293491Y368868D01*
X293470Y368952D01*
X293445Y369034D01*
X293417Y369115D01*
X293385Y369195D01*
X293349Y369274D01*
X293310Y369350D01*
X293267Y369425D01*
X293222Y369498D01*
X293173Y369569D01*
X293120Y369637D01*
X293065Y369704D01*
X293007Y369767D01*
X292946Y369828D01*
X292883Y369886D01*
X292816Y369941D01*
X292748Y369994D01*
X292677Y370043D01*
X292604Y370088D01*
X292529Y370131D01*
X292453Y370170D01*
X292374Y370206D01*
X292294Y370238D01*
X292213Y370266D01*
X292131Y370291D01*
X292047Y370312D01*
X291963Y370329D01*
X291878Y370343D01*
X291792Y370352D01*
X291706Y370358D01*
X291620Y370360D01*
X290661Y370360D01*
X290661Y366522D01*
X287782Y374907D02*
X296418Y374907D01*
X293539Y378746D02*
X290661Y374907D01*
X291860Y376587D02*
X287782Y378746D01*
X287782Y387629D02*
X293539Y387629D01*
X293539Y390508D01*
X292580Y390508D01*
X291620Y393649D02*
X289701Y393649D01*
X291620Y393649D02*
X291706Y393651D01*
X291792Y393657D01*
X291878Y393666D01*
X291963Y393680D01*
X292047Y393697D01*
X292131Y393718D01*
X292213Y393743D01*
X292294Y393771D01*
X292374Y393803D01*
X292453Y393839D01*
X292529Y393878D01*
X292604Y393921D01*
X292677Y393966D01*
X292748Y394015D01*
X292816Y394068D01*
X292883Y394123D01*
X292946Y394181D01*
X293007Y394242D01*
X293065Y394305D01*
X293120Y394372D01*
X293173Y394440D01*
X293222Y394511D01*
X293267Y394584D01*
X293310Y394659D01*
X293349Y394735D01*
X293385Y394814D01*
X293417Y394894D01*
X293445Y394975D01*
X293470Y395057D01*
X293491Y395141D01*
X293508Y395225D01*
X293522Y395310D01*
X293531Y395396D01*
X293537Y395482D01*
X293539Y395568D01*
X293537Y395654D01*
X293531Y395740D01*
X293522Y395826D01*
X293508Y395911D01*
X293491Y395995D01*
X293470Y396079D01*
X293445Y396161D01*
X293417Y396242D01*
X293385Y396322D01*
X293349Y396401D01*
X293310Y396477D01*
X293267Y396552D01*
X293222Y396625D01*
X293173Y396696D01*
X293120Y396764D01*
X293065Y396831D01*
X293007Y396894D01*
X292946Y396955D01*
X292883Y397013D01*
X292816Y397068D01*
X292748Y397121D01*
X292677Y397170D01*
X292604Y397215D01*
X292529Y397258D01*
X292453Y397297D01*
X292374Y397333D01*
X292294Y397365D01*
X292213Y397393D01*
X292131Y397418D01*
X292047Y397439D01*
X291963Y397456D01*
X291878Y397470D01*
X291792Y397479D01*
X291706Y397485D01*
X291620Y397487D01*
X289701Y397487D01*
X289615Y397485D01*
X289529Y397479D01*
X289443Y397470D01*
X289358Y397456D01*
X289274Y397439D01*
X289190Y397418D01*
X289108Y397393D01*
X289027Y397365D01*
X288947Y397333D01*
X288868Y397297D01*
X288792Y397258D01*
X288717Y397215D01*
X288644Y397170D01*
X288573Y397121D01*
X288505Y397068D01*
X288438Y397013D01*
X288375Y396955D01*
X288314Y396894D01*
X288256Y396831D01*
X288201Y396764D01*
X288148Y396696D01*
X288099Y396625D01*
X288054Y396552D01*
X288011Y396477D01*
X287972Y396401D01*
X287936Y396322D01*
X287904Y396242D01*
X287876Y396161D01*
X287851Y396079D01*
X287830Y395995D01*
X287813Y395911D01*
X287799Y395826D01*
X287790Y395740D01*
X287784Y395654D01*
X287782Y395568D01*
X287784Y395482D01*
X287790Y395396D01*
X287799Y395310D01*
X287813Y395225D01*
X287830Y395141D01*
X287851Y395057D01*
X287876Y394975D01*
X287904Y394894D01*
X287936Y394814D01*
X287972Y394735D01*
X288011Y394659D01*
X288054Y394584D01*
X288099Y394511D01*
X288148Y394440D01*
X288201Y394372D01*
X288256Y394305D01*
X288314Y394242D01*
X288375Y394181D01*
X288438Y394123D01*
X288505Y394068D01*
X288573Y394015D01*
X288644Y393966D01*
X288717Y393921D01*
X288792Y393878D01*
X288868Y393839D01*
X288947Y393803D01*
X289027Y393771D01*
X289108Y393743D01*
X289190Y393718D01*
X289274Y393697D01*
X289358Y393680D01*
X289443Y393666D01*
X289529Y393657D01*
X289615Y393651D01*
X289701Y393649D01*
X287782Y401946D02*
X296418Y401946D01*
X287782Y401946D02*
X287782Y404345D01*
X287784Y404420D01*
X287790Y404495D01*
X287800Y404570D01*
X287813Y404644D01*
X287831Y404717D01*
X287852Y404790D01*
X287878Y404861D01*
X287906Y404930D01*
X287939Y404998D01*
X287975Y405064D01*
X288014Y405129D01*
X288057Y405191D01*
X288103Y405251D01*
X288152Y405308D01*
X288203Y405363D01*
X288258Y405414D01*
X288315Y405463D01*
X288375Y405509D01*
X288437Y405552D01*
X288501Y405591D01*
X288568Y405627D01*
X288636Y405660D01*
X288705Y405688D01*
X288776Y405714D01*
X288849Y405735D01*
X288922Y405753D01*
X288996Y405766D01*
X289071Y405776D01*
X289146Y405782D01*
X289221Y405784D01*
X289221Y405785D02*
X292100Y405785D01*
X292100Y405784D02*
X292175Y405782D01*
X292250Y405776D01*
X292325Y405766D01*
X292399Y405753D01*
X292472Y405735D01*
X292545Y405714D01*
X292616Y405688D01*
X292685Y405660D01*
X292753Y405627D01*
X292820Y405591D01*
X292884Y405552D01*
X292946Y405509D01*
X293006Y405463D01*
X293063Y405414D01*
X293118Y405363D01*
X293169Y405308D01*
X293218Y405251D01*
X293264Y405191D01*
X293307Y405129D01*
X293346Y405065D01*
X293382Y404998D01*
X293415Y404930D01*
X293443Y404861D01*
X293469Y404790D01*
X293490Y404717D01*
X293508Y404644D01*
X293521Y404570D01*
X293531Y404495D01*
X293537Y404420D01*
X293539Y404345D01*
X293539Y401946D01*
X291620Y409803D02*
X289701Y409803D01*
X291620Y409803D02*
X291706Y409805D01*
X291792Y409811D01*
X291878Y409820D01*
X291963Y409834D01*
X292047Y409851D01*
X292131Y409872D01*
X292213Y409897D01*
X292294Y409925D01*
X292374Y409957D01*
X292453Y409993D01*
X292529Y410032D01*
X292604Y410075D01*
X292677Y410120D01*
X292748Y410169D01*
X292816Y410222D01*
X292883Y410277D01*
X292946Y410335D01*
X293007Y410396D01*
X293065Y410459D01*
X293120Y410526D01*
X293173Y410594D01*
X293222Y410665D01*
X293267Y410738D01*
X293310Y410813D01*
X293349Y410889D01*
X293385Y410968D01*
X293417Y411048D01*
X293445Y411129D01*
X293470Y411211D01*
X293491Y411295D01*
X293508Y411379D01*
X293522Y411464D01*
X293531Y411550D01*
X293537Y411636D01*
X293539Y411722D01*
X293537Y411808D01*
X293531Y411894D01*
X293522Y411980D01*
X293508Y412065D01*
X293491Y412149D01*
X293470Y412233D01*
X293445Y412315D01*
X293417Y412396D01*
X293385Y412476D01*
X293349Y412555D01*
X293310Y412631D01*
X293267Y412706D01*
X293222Y412779D01*
X293173Y412850D01*
X293120Y412918D01*
X293065Y412985D01*
X293007Y413048D01*
X292946Y413109D01*
X292883Y413167D01*
X292816Y413222D01*
X292748Y413275D01*
X292677Y413324D01*
X292604Y413369D01*
X292529Y413412D01*
X292453Y413451D01*
X292374Y413487D01*
X292294Y413519D01*
X292213Y413547D01*
X292131Y413572D01*
X292047Y413593D01*
X291963Y413610D01*
X291878Y413624D01*
X291792Y413633D01*
X291706Y413639D01*
X291620Y413641D01*
X291620Y413642D02*
X289701Y413642D01*
X289701Y413641D02*
X289615Y413639D01*
X289529Y413633D01*
X289443Y413624D01*
X289358Y413610D01*
X289274Y413593D01*
X289190Y413572D01*
X289108Y413547D01*
X289027Y413519D01*
X288947Y413487D01*
X288868Y413451D01*
X288792Y413412D01*
X288717Y413369D01*
X288644Y413324D01*
X288573Y413275D01*
X288505Y413222D01*
X288438Y413167D01*
X288375Y413109D01*
X288314Y413048D01*
X288256Y412985D01*
X288201Y412918D01*
X288148Y412850D01*
X288099Y412779D01*
X288054Y412706D01*
X288011Y412631D01*
X287972Y412555D01*
X287936Y412476D01*
X287904Y412396D01*
X287876Y412315D01*
X287851Y412233D01*
X287830Y412149D01*
X287813Y412065D01*
X287799Y411980D01*
X287790Y411894D01*
X287784Y411808D01*
X287782Y411722D01*
X287784Y411636D01*
X287790Y411550D01*
X287799Y411464D01*
X287813Y411379D01*
X287830Y411295D01*
X287851Y411211D01*
X287876Y411129D01*
X287904Y411048D01*
X287936Y410968D01*
X287972Y410889D01*
X288011Y410813D01*
X288054Y410738D01*
X288099Y410665D01*
X288148Y410594D01*
X288201Y410526D01*
X288256Y410459D01*
X288314Y410396D01*
X288375Y410335D01*
X288438Y410277D01*
X288505Y410222D01*
X288573Y410169D01*
X288644Y410120D01*
X288717Y410075D01*
X288792Y410032D01*
X288868Y409993D01*
X288947Y409957D01*
X289027Y409925D01*
X289108Y409897D01*
X289190Y409872D01*
X289274Y409851D01*
X289358Y409834D01*
X289443Y409820D01*
X289529Y409811D01*
X289615Y409805D01*
X289701Y409803D01*
X293539Y416883D02*
X293539Y419761D01*
X296418Y417842D02*
X289221Y417842D01*
X289148Y417844D01*
X289075Y417849D01*
X289003Y417859D01*
X288931Y417871D01*
X288860Y417888D01*
X288790Y417908D01*
X288721Y417932D01*
X288654Y417959D01*
X288587Y417989D01*
X288523Y418023D01*
X288460Y418060D01*
X288399Y418100D01*
X288340Y418143D01*
X288284Y418189D01*
X288230Y418238D01*
X288178Y418290D01*
X288129Y418344D01*
X288083Y418400D01*
X288040Y418459D01*
X288000Y418520D01*
X287963Y418583D01*
X287929Y418647D01*
X287899Y418714D01*
X287872Y418781D01*
X287848Y418850D01*
X287828Y418920D01*
X287811Y418991D01*
X287799Y419063D01*
X287789Y419135D01*
X287784Y419208D01*
X287782Y419281D01*
X287782Y419761D01*
X287782Y424891D02*
X287782Y427290D01*
X287782Y424891D02*
X287784Y424816D01*
X287790Y424741D01*
X287800Y424666D01*
X287813Y424592D01*
X287831Y424519D01*
X287852Y424446D01*
X287878Y424375D01*
X287906Y424306D01*
X287939Y424238D01*
X287975Y424172D01*
X288014Y424107D01*
X288057Y424045D01*
X288103Y423985D01*
X288152Y423928D01*
X288203Y423873D01*
X288258Y423822D01*
X288315Y423773D01*
X288375Y423727D01*
X288437Y423684D01*
X288502Y423645D01*
X288568Y423609D01*
X288636Y423576D01*
X288705Y423548D01*
X288776Y423522D01*
X288849Y423501D01*
X288922Y423483D01*
X288996Y423470D01*
X289071Y423460D01*
X289146Y423454D01*
X289221Y423452D01*
X292100Y423452D01*
X292175Y423454D01*
X292250Y423460D01*
X292325Y423470D01*
X292399Y423483D01*
X292472Y423501D01*
X292545Y423522D01*
X292616Y423548D01*
X292685Y423576D01*
X292753Y423609D01*
X292820Y423645D01*
X292884Y423684D01*
X292946Y423727D01*
X293006Y423773D01*
X293063Y423822D01*
X293118Y423873D01*
X293169Y423928D01*
X293218Y423985D01*
X293264Y424045D01*
X293307Y424107D01*
X293346Y424172D01*
X293382Y424238D01*
X293415Y424306D01*
X293443Y424375D01*
X293469Y424446D01*
X293490Y424519D01*
X293508Y424592D01*
X293521Y424666D01*
X293531Y424741D01*
X293537Y424816D01*
X293539Y424891D01*
X293539Y427290D01*
X286343Y427290D01*
X286343Y427289D02*
X286268Y427287D01*
X286193Y427281D01*
X286118Y427271D01*
X286044Y427258D01*
X285971Y427240D01*
X285898Y427219D01*
X285827Y427193D01*
X285758Y427165D01*
X285690Y427132D01*
X285624Y427096D01*
X285559Y427057D01*
X285497Y427014D01*
X285437Y426968D01*
X285380Y426919D01*
X285325Y426868D01*
X285274Y426813D01*
X285225Y426756D01*
X285179Y426696D01*
X285136Y426634D01*
X285097Y426570D01*
X285061Y426503D01*
X285028Y426435D01*
X285000Y426366D01*
X284974Y426295D01*
X284953Y426222D01*
X284935Y426149D01*
X284922Y426075D01*
X284912Y426000D01*
X284906Y425925D01*
X284904Y425850D01*
X284903Y425850D02*
X284903Y423931D01*
X287782Y432130D02*
X293539Y432130D01*
X293539Y435009D01*
X292580Y435009D01*
X293539Y438531D02*
X287782Y438531D01*
X293539Y438531D02*
X293539Y441409D01*
X292580Y441409D01*
X289221Y444589D02*
X296418Y444589D01*
X289221Y444589D02*
X289146Y444591D01*
X289071Y444597D01*
X288996Y444607D01*
X288922Y444620D01*
X288849Y444638D01*
X288776Y444659D01*
X288705Y444685D01*
X288636Y444713D01*
X288568Y444746D01*
X288502Y444782D01*
X288437Y444821D01*
X288375Y444864D01*
X288315Y444910D01*
X288258Y444959D01*
X288203Y445010D01*
X288152Y445065D01*
X288103Y445122D01*
X288057Y445182D01*
X288014Y445244D01*
X287975Y445309D01*
X287939Y445375D01*
X287906Y445443D01*
X287878Y445512D01*
X287852Y445583D01*
X287831Y445656D01*
X287813Y445729D01*
X287800Y445803D01*
X287790Y445878D01*
X287784Y445953D01*
X287782Y446028D01*
X286343Y453862D02*
X293539Y453862D01*
X286343Y453862D02*
X286268Y453860D01*
X286193Y453854D01*
X286118Y453844D01*
X286044Y453831D01*
X285971Y453813D01*
X285898Y453792D01*
X285827Y453766D01*
X285758Y453738D01*
X285690Y453705D01*
X285624Y453669D01*
X285559Y453630D01*
X285497Y453587D01*
X285437Y453541D01*
X285380Y453492D01*
X285325Y453441D01*
X285274Y453386D01*
X285225Y453329D01*
X285179Y453269D01*
X285136Y453207D01*
X285097Y453143D01*
X285061Y453076D01*
X285028Y453008D01*
X285000Y452939D01*
X284974Y452868D01*
X284953Y452795D01*
X284935Y452722D01*
X284922Y452648D01*
X284912Y452573D01*
X284906Y452498D01*
X284904Y452423D01*
X284903Y452423D02*
X284903Y451943D01*
X295938Y453622D02*
X296418Y453622D01*
X296418Y454102D01*
X295938Y454102D01*
X295938Y453622D01*
X293539Y458266D02*
X289221Y458266D01*
X289221Y458267D02*
X289146Y458269D01*
X289071Y458275D01*
X288996Y458285D01*
X288922Y458298D01*
X288849Y458316D01*
X288776Y458337D01*
X288705Y458363D01*
X288636Y458391D01*
X288568Y458424D01*
X288502Y458460D01*
X288437Y458499D01*
X288375Y458542D01*
X288315Y458588D01*
X288258Y458637D01*
X288203Y458688D01*
X288152Y458743D01*
X288103Y458800D01*
X288057Y458860D01*
X288014Y458922D01*
X287975Y458987D01*
X287939Y459053D01*
X287906Y459121D01*
X287878Y459190D01*
X287852Y459261D01*
X287831Y459334D01*
X287813Y459407D01*
X287800Y459481D01*
X287790Y459556D01*
X287784Y459631D01*
X287782Y459706D01*
X287782Y462104D01*
X293539Y462104D01*
X296418Y466534D02*
X289221Y466534D01*
X289221Y466535D02*
X289146Y466537D01*
X289071Y466543D01*
X288996Y466553D01*
X288922Y466566D01*
X288849Y466584D01*
X288776Y466605D01*
X288705Y466631D01*
X288636Y466659D01*
X288568Y466692D01*
X288502Y466728D01*
X288437Y466767D01*
X288375Y466810D01*
X288315Y466856D01*
X288258Y466905D01*
X288203Y466956D01*
X288152Y467011D01*
X288103Y467068D01*
X288057Y467128D01*
X288014Y467190D01*
X287975Y467255D01*
X287939Y467321D01*
X287906Y467389D01*
X287878Y467458D01*
X287852Y467529D01*
X287831Y467602D01*
X287813Y467675D01*
X287800Y467749D01*
X287790Y467824D01*
X287784Y467899D01*
X287782Y467974D01*
X294499Y476379D02*
X296418Y478778D01*
X287782Y478778D01*
X287782Y476379D02*
X287782Y481177D01*
X296418Y488162D02*
X296416Y488254D01*
X296410Y488345D01*
X296401Y488436D01*
X296387Y488527D01*
X296370Y488617D01*
X296348Y488706D01*
X296323Y488794D01*
X296295Y488881D01*
X296262Y488967D01*
X296226Y489051D01*
X296187Y489134D01*
X296144Y489215D01*
X296097Y489294D01*
X296048Y489371D01*
X295995Y489446D01*
X295939Y489518D01*
X295880Y489588D01*
X295818Y489656D01*
X295753Y489721D01*
X295685Y489783D01*
X295615Y489842D01*
X295543Y489898D01*
X295468Y489951D01*
X295391Y490000D01*
X295312Y490047D01*
X295231Y490090D01*
X295148Y490129D01*
X295064Y490165D01*
X294978Y490198D01*
X294891Y490226D01*
X294803Y490251D01*
X294714Y490273D01*
X294624Y490290D01*
X294533Y490304D01*
X294442Y490313D01*
X294351Y490319D01*
X294259Y490321D01*
X296418Y488162D02*
X296416Y488059D01*
X296410Y487957D01*
X296401Y487855D01*
X296388Y487753D01*
X296371Y487652D01*
X296350Y487551D01*
X296326Y487452D01*
X296297Y487353D01*
X296266Y487256D01*
X296230Y487159D01*
X296192Y487064D01*
X296149Y486971D01*
X296103Y486879D01*
X296054Y486789D01*
X296002Y486701D01*
X295946Y486614D01*
X295887Y486530D01*
X295826Y486449D01*
X295761Y486369D01*
X295693Y486292D01*
X295622Y486217D01*
X295549Y486146D01*
X295473Y486077D01*
X295395Y486010D01*
X295314Y485947D01*
X295231Y485887D01*
X295146Y485830D01*
X295059Y485776D01*
X294969Y485725D01*
X294878Y485678D01*
X294786Y485634D01*
X294691Y485593D01*
X294596Y485556D01*
X294499Y485523D01*
X292580Y489601D02*
X292646Y489668D01*
X292715Y489732D01*
X292786Y489793D01*
X292860Y489851D01*
X292936Y489906D01*
X293014Y489958D01*
X293094Y490007D01*
X293176Y490053D01*
X293260Y490095D01*
X293346Y490134D01*
X293433Y490169D01*
X293521Y490200D01*
X293611Y490228D01*
X293701Y490253D01*
X293793Y490274D01*
X293885Y490291D01*
X293978Y490304D01*
X294071Y490313D01*
X294165Y490319D01*
X294259Y490321D01*
X292580Y489601D02*
X287782Y485523D01*
X287782Y490321D01*
X287782Y494033D02*
X287782Y494513D01*
X287782Y494033D02*
X288262Y494033D01*
X288262Y494513D01*
X287782Y494513D01*
X285863Y493793D01*
X297857Y502507D02*
X296418Y504426D01*
X296418Y510717D02*
X296416Y510809D01*
X296410Y510900D01*
X296401Y510991D01*
X296387Y511082D01*
X296370Y511172D01*
X296348Y511261D01*
X296323Y511349D01*
X296295Y511436D01*
X296262Y511522D01*
X296226Y511606D01*
X296187Y511689D01*
X296144Y511770D01*
X296097Y511849D01*
X296048Y511926D01*
X295995Y512001D01*
X295939Y512073D01*
X295880Y512143D01*
X295818Y512211D01*
X295753Y512276D01*
X295685Y512338D01*
X295615Y512397D01*
X295543Y512453D01*
X295468Y512506D01*
X295391Y512555D01*
X295312Y512602D01*
X295231Y512645D01*
X295148Y512684D01*
X295064Y512720D01*
X294978Y512753D01*
X294891Y512781D01*
X294803Y512806D01*
X294714Y512828D01*
X294624Y512845D01*
X294533Y512859D01*
X294442Y512868D01*
X294351Y512874D01*
X294259Y512876D01*
X296418Y510717D02*
X296416Y510614D01*
X296410Y510512D01*
X296401Y510410D01*
X296388Y510308D01*
X296371Y510207D01*
X296350Y510106D01*
X296326Y510007D01*
X296297Y509908D01*
X296266Y509811D01*
X296230Y509714D01*
X296192Y509619D01*
X296149Y509526D01*
X296103Y509434D01*
X296054Y509344D01*
X296002Y509256D01*
X295946Y509169D01*
X295887Y509085D01*
X295826Y509004D01*
X295761Y508924D01*
X295693Y508847D01*
X295622Y508772D01*
X295549Y508701D01*
X295473Y508632D01*
X295395Y508565D01*
X295314Y508502D01*
X295231Y508442D01*
X295146Y508385D01*
X295059Y508331D01*
X294969Y508280D01*
X294878Y508233D01*
X294786Y508189D01*
X294691Y508148D01*
X294596Y508111D01*
X294499Y508078D01*
X292580Y512156D02*
X292646Y512223D01*
X292715Y512287D01*
X292786Y512348D01*
X292860Y512406D01*
X292936Y512461D01*
X293014Y512513D01*
X293094Y512562D01*
X293176Y512608D01*
X293260Y512650D01*
X293346Y512689D01*
X293433Y512724D01*
X293521Y512755D01*
X293611Y512783D01*
X293701Y512808D01*
X293793Y512829D01*
X293885Y512846D01*
X293978Y512859D01*
X294071Y512868D01*
X294165Y512874D01*
X294259Y512876D01*
X292580Y512156D02*
X287782Y508078D01*
X287782Y512876D01*
X296418Y519861D02*
X296416Y519953D01*
X296410Y520044D01*
X296401Y520135D01*
X296387Y520226D01*
X296370Y520316D01*
X296348Y520405D01*
X296323Y520493D01*
X296295Y520580D01*
X296262Y520666D01*
X296226Y520750D01*
X296187Y520833D01*
X296144Y520914D01*
X296097Y520993D01*
X296048Y521070D01*
X295995Y521145D01*
X295939Y521217D01*
X295880Y521287D01*
X295818Y521355D01*
X295753Y521420D01*
X295685Y521482D01*
X295615Y521541D01*
X295543Y521597D01*
X295468Y521650D01*
X295391Y521699D01*
X295312Y521746D01*
X295231Y521789D01*
X295148Y521828D01*
X295064Y521864D01*
X294978Y521897D01*
X294891Y521925D01*
X294803Y521950D01*
X294714Y521972D01*
X294624Y521989D01*
X294533Y522003D01*
X294442Y522012D01*
X294351Y522018D01*
X294259Y522020D01*
X296418Y519861D02*
X296416Y519758D01*
X296410Y519656D01*
X296401Y519554D01*
X296388Y519452D01*
X296371Y519351D01*
X296350Y519250D01*
X296326Y519151D01*
X296297Y519052D01*
X296266Y518955D01*
X296230Y518858D01*
X296192Y518763D01*
X296149Y518670D01*
X296103Y518578D01*
X296054Y518488D01*
X296002Y518400D01*
X295946Y518313D01*
X295887Y518229D01*
X295826Y518148D01*
X295761Y518068D01*
X295693Y517991D01*
X295622Y517916D01*
X295549Y517845D01*
X295473Y517776D01*
X295395Y517709D01*
X295314Y517646D01*
X295231Y517586D01*
X295146Y517529D01*
X295059Y517475D01*
X294969Y517424D01*
X294878Y517377D01*
X294786Y517333D01*
X294691Y517292D01*
X294596Y517255D01*
X294499Y517222D01*
X292580Y521300D02*
X292646Y521367D01*
X292715Y521431D01*
X292786Y521492D01*
X292860Y521550D01*
X292936Y521605D01*
X293014Y521657D01*
X293094Y521706D01*
X293176Y521752D01*
X293260Y521794D01*
X293346Y521833D01*
X293433Y521868D01*
X293521Y521899D01*
X293611Y521927D01*
X293701Y521952D01*
X293793Y521973D01*
X293885Y521990D01*
X293978Y522003D01*
X294071Y522012D01*
X294165Y522018D01*
X294259Y522020D01*
X292580Y521300D02*
X287782Y517222D01*
X287782Y522020D01*
M02*
