G04 EAGLE Gerber RS-274X export*
G75*
%MOMM*%
%FSLAX34Y34*%
%LPD*%
%INBottom Copper*%
%IPPOS*%
%AMOC8*
5,1,8,0,0,1.08239X$1,22.5*%
G01*
%ADD10C,3.048000*%
%ADD11P,10.823900X8X22.500000*%
%ADD12R,6.350000X6.350000*%
%ADD13C,6.350000*%
%ADD14C,1.879600*%
%ADD15R,2.400300X2.400300*%
%ADD16C,2.400300*%
%ADD17C,2.540000*%
%ADD18C,2.540000*%
%ADD19C,0.787400*%
%ADD20C,0.304800*%
%ADD21C,1.524000*%
%ADD22C,1.524000*%

G36*
X264786Y192255D02*
X264786Y192255D01*
X264917Y192253D01*
X265175Y192275D01*
X265434Y192289D01*
X265564Y192309D01*
X265695Y192320D01*
X265949Y192368D01*
X266206Y192408D01*
X266332Y192441D01*
X266461Y192466D01*
X266710Y192540D01*
X266961Y192606D01*
X267083Y192652D01*
X267209Y192690D01*
X267449Y192789D01*
X267691Y192880D01*
X267809Y192938D01*
X267930Y192989D01*
X268158Y193112D01*
X268390Y193227D01*
X268501Y193297D01*
X268617Y193360D01*
X268831Y193506D01*
X269050Y193644D01*
X269153Y193725D01*
X269262Y193799D01*
X269460Y193966D01*
X269664Y194127D01*
X269758Y194218D01*
X269858Y194302D01*
X270038Y194489D01*
X270225Y194669D01*
X270309Y194770D01*
X270400Y194864D01*
X270560Y195068D01*
X270727Y195266D01*
X270801Y195375D01*
X270882Y195478D01*
X271020Y195697D01*
X271166Y195911D01*
X271229Y196027D01*
X271299Y196138D01*
X271414Y196370D01*
X271537Y196598D01*
X271587Y196720D01*
X271645Y196837D01*
X271736Y197080D01*
X271835Y197320D01*
X271873Y197446D01*
X271919Y197568D01*
X271984Y197819D01*
X272058Y198067D01*
X272083Y198197D01*
X272116Y198323D01*
X272155Y198580D01*
X272204Y198834D01*
X272215Y198965D01*
X272235Y199095D01*
X272248Y199354D01*
X272270Y199612D01*
X272267Y199743D01*
X272274Y199874D01*
X272261Y200133D01*
X272256Y200392D01*
X272240Y200523D01*
X272233Y200654D01*
X272194Y200910D01*
X272162Y201167D01*
X272134Y201295D01*
X272113Y201425D01*
X272047Y201675D01*
X271990Y201928D01*
X271948Y202053D01*
X271915Y202180D01*
X271824Y202422D01*
X271741Y202668D01*
X271687Y202787D01*
X271640Y202910D01*
X271525Y203142D01*
X271417Y203378D01*
X271351Y203492D01*
X271292Y203609D01*
X271154Y203828D01*
X271023Y204052D01*
X270945Y204157D01*
X270875Y204268D01*
X270714Y204472D01*
X270561Y204681D01*
X270473Y204779D01*
X270392Y204882D01*
X270042Y205256D01*
X266229Y209069D01*
X266229Y255751D01*
X299239Y288761D01*
X345921Y288761D01*
X378931Y255751D01*
X378931Y209069D01*
X375118Y205256D01*
X375030Y205158D01*
X374935Y205067D01*
X374768Y204868D01*
X374595Y204676D01*
X374517Y204570D01*
X374433Y204470D01*
X374287Y204255D01*
X374134Y204046D01*
X374068Y203933D01*
X373994Y203824D01*
X373870Y203596D01*
X373740Y203373D01*
X373686Y203253D01*
X373623Y203138D01*
X373524Y202898D01*
X373417Y202662D01*
X373375Y202538D01*
X373325Y202416D01*
X373251Y202167D01*
X373168Y201922D01*
X373139Y201795D01*
X373102Y201668D01*
X373053Y201414D01*
X372996Y201161D01*
X372981Y201031D01*
X372956Y200902D01*
X372934Y200644D01*
X372904Y200386D01*
X372901Y200255D01*
X372890Y200124D01*
X372895Y199865D01*
X372890Y199606D01*
X372902Y199475D01*
X372904Y199344D01*
X372935Y199086D01*
X372957Y198828D01*
X372982Y198699D01*
X372998Y198569D01*
X373055Y198316D01*
X373103Y198061D01*
X373141Y197936D01*
X373170Y197808D01*
X373253Y197562D01*
X373327Y197314D01*
X373377Y197192D01*
X373419Y197068D01*
X373527Y196832D01*
X373626Y196593D01*
X373688Y196477D01*
X373743Y196358D01*
X373874Y196134D01*
X373997Y195906D01*
X374071Y195798D01*
X374137Y195684D01*
X374290Y195475D01*
X374436Y195261D01*
X374521Y195161D01*
X374599Y195055D01*
X374772Y194863D01*
X374940Y194664D01*
X375034Y194573D01*
X375122Y194476D01*
X375315Y194302D01*
X375501Y194122D01*
X375604Y194041D01*
X375702Y193953D01*
X375911Y193801D01*
X376115Y193641D01*
X376226Y193571D01*
X376332Y193493D01*
X376556Y193362D01*
X376775Y193224D01*
X376893Y193166D01*
X377006Y193100D01*
X377242Y192993D01*
X377474Y192877D01*
X377597Y192832D01*
X377717Y192777D01*
X377963Y192695D01*
X378205Y192604D01*
X378333Y192571D01*
X378457Y192529D01*
X378710Y192472D01*
X378961Y192407D01*
X379090Y192387D01*
X379218Y192358D01*
X379476Y192328D01*
X379732Y192288D01*
X379863Y192281D01*
X379993Y192266D01*
X380505Y192249D01*
X879890Y192249D01*
X879910Y192250D01*
X879930Y192249D01*
X880301Y192270D01*
X880669Y192289D01*
X880689Y192292D01*
X880709Y192293D01*
X881074Y192351D01*
X881440Y192408D01*
X881460Y192413D01*
X881480Y192417D01*
X881835Y192512D01*
X882195Y192606D01*
X882214Y192613D01*
X882234Y192618D01*
X882578Y192749D01*
X882926Y192880D01*
X882944Y192889D01*
X882963Y192896D01*
X883294Y193062D01*
X883625Y193227D01*
X883642Y193238D01*
X883660Y193247D01*
X883972Y193447D01*
X884285Y193644D01*
X884301Y193657D01*
X884318Y193668D01*
X884607Y193897D01*
X884899Y194127D01*
X884913Y194141D01*
X884929Y194153D01*
X885193Y194411D01*
X885460Y194669D01*
X885473Y194685D01*
X885487Y194699D01*
X885724Y194983D01*
X885962Y195266D01*
X885974Y195283D01*
X885987Y195298D01*
X886193Y195605D01*
X886401Y195911D01*
X886411Y195929D01*
X886422Y195946D01*
X886596Y196272D01*
X886772Y196598D01*
X886780Y196617D01*
X886789Y196635D01*
X886928Y196976D01*
X887070Y197320D01*
X887076Y197339D01*
X887084Y197358D01*
X887186Y197708D01*
X887293Y198067D01*
X887297Y198087D01*
X887303Y198107D01*
X887370Y198470D01*
X887439Y198834D01*
X887440Y198854D01*
X887444Y198874D01*
X887473Y199243D01*
X887505Y199612D01*
X887504Y199632D01*
X887506Y199652D01*
X887497Y200023D01*
X887491Y200392D01*
X887489Y200412D01*
X887488Y200432D01*
X887442Y200799D01*
X887397Y201167D01*
X887393Y201187D01*
X887390Y201207D01*
X887307Y201566D01*
X887225Y201928D01*
X887219Y201948D01*
X887214Y201967D01*
X887094Y202317D01*
X886976Y202668D01*
X886968Y202686D01*
X886961Y202705D01*
X886754Y203174D01*
X886674Y203341D01*
X917980Y203341D01*
X918242Y203354D01*
X918504Y203359D01*
X918631Y203374D01*
X918759Y203381D01*
X919019Y203421D01*
X919279Y203452D01*
X919404Y203480D01*
X919530Y203500D01*
X919784Y203567D01*
X920040Y203624D01*
X920161Y203665D01*
X920285Y203698D01*
X920531Y203790D01*
X920780Y203874D01*
X920896Y203927D01*
X921016Y203972D01*
X921251Y204088D01*
X921490Y204197D01*
X921601Y204262D01*
X921715Y204319D01*
X921937Y204459D01*
X922163Y204592D01*
X922267Y204668D01*
X922375Y204736D01*
X922581Y204898D01*
X922793Y205053D01*
X922888Y205139D01*
X922989Y205218D01*
X923177Y205400D01*
X923372Y205577D01*
X923458Y205672D01*
X923550Y205761D01*
X923719Y205962D01*
X923895Y206157D01*
X923970Y206260D01*
X924053Y206358D01*
X924200Y206576D01*
X924355Y206787D01*
X924419Y206898D01*
X924492Y207004D01*
X924616Y207235D01*
X924748Y207461D01*
X924801Y207578D01*
X924862Y207691D01*
X924962Y207933D01*
X925071Y208172D01*
X925112Y208294D01*
X925161Y208412D01*
X925236Y208664D01*
X925319Y208912D01*
X925347Y209037D01*
X925384Y209160D01*
X925433Y209418D01*
X925490Y209674D01*
X925505Y209801D01*
X925529Y209927D01*
X925551Y210188D01*
X925582Y210449D01*
X925588Y210621D01*
X925595Y210704D01*
X925594Y210788D01*
X925599Y210960D01*
X925599Y228741D01*
X934219Y228741D01*
X936203Y228517D01*
X938150Y228073D01*
X940035Y227413D01*
X941835Y226547D01*
X943525Y225484D01*
X945087Y224239D01*
X946499Y222827D01*
X947744Y221265D01*
X948807Y219575D01*
X949673Y217775D01*
X950033Y216747D01*
X950057Y216689D01*
X950075Y216629D01*
X950204Y216329D01*
X950328Y216025D01*
X950358Y215969D01*
X950382Y215911D01*
X950541Y215625D01*
X950695Y215336D01*
X950731Y215284D01*
X950761Y215229D01*
X950949Y214960D01*
X951131Y214689D01*
X951172Y214640D01*
X951208Y214589D01*
X951421Y214341D01*
X951631Y214090D01*
X951677Y214046D01*
X951718Y213998D01*
X951956Y213773D01*
X952190Y213544D01*
X952239Y213505D01*
X952285Y213462D01*
X952545Y213263D01*
X952802Y213059D01*
X952855Y213025D01*
X952905Y212987D01*
X953183Y212816D01*
X953459Y212640D01*
X953516Y212611D01*
X953569Y212578D01*
X953865Y212436D01*
X954157Y212289D01*
X954216Y212267D01*
X954272Y212239D01*
X954580Y212128D01*
X954886Y212012D01*
X954947Y211996D01*
X955006Y211974D01*
X955324Y211895D01*
X955641Y211811D01*
X955703Y211801D01*
X955764Y211786D01*
X956088Y211739D01*
X956411Y211688D01*
X956474Y211684D01*
X956536Y211675D01*
X956863Y211663D01*
X957191Y211644D01*
X957254Y211647D01*
X957316Y211645D01*
X957642Y211665D01*
X957970Y211681D01*
X958032Y211690D01*
X958095Y211694D01*
X958418Y211748D01*
X958742Y211797D01*
X958803Y211813D01*
X958865Y211823D01*
X959181Y211910D01*
X959498Y211991D01*
X959557Y212013D01*
X959618Y212030D01*
X959923Y212148D01*
X960230Y212262D01*
X960286Y212290D01*
X960345Y212313D01*
X960636Y212462D01*
X960930Y212606D01*
X960984Y212640D01*
X961040Y212668D01*
X961314Y212846D01*
X961592Y213020D01*
X961642Y213059D01*
X961694Y213093D01*
X961949Y213298D01*
X962208Y213500D01*
X962253Y213543D01*
X962302Y213583D01*
X962534Y213813D01*
X962771Y214040D01*
X962812Y214088D01*
X962857Y214132D01*
X963064Y214384D01*
X963276Y214635D01*
X963312Y214687D01*
X963352Y214735D01*
X963533Y215008D01*
X963718Y215278D01*
X963748Y215333D01*
X963783Y215386D01*
X963935Y215676D01*
X964092Y215963D01*
X964116Y216021D01*
X964145Y216077D01*
X964267Y216381D01*
X964394Y216683D01*
X964412Y216743D01*
X964435Y216802D01*
X964584Y217292D01*
X965121Y219294D01*
X967963Y224217D01*
X971983Y228237D01*
X976906Y231079D01*
X982398Y232551D01*
X1018562Y232551D01*
X1024054Y231079D01*
X1028977Y228237D01*
X1032997Y224217D01*
X1035839Y219294D01*
X1037311Y213802D01*
X1037311Y208118D01*
X1035629Y201840D01*
X1035610Y201754D01*
X1035585Y201668D01*
X1035529Y201372D01*
X1035466Y201077D01*
X1035456Y200989D01*
X1035439Y200902D01*
X1035414Y200601D01*
X1035381Y200301D01*
X1035381Y200212D01*
X1035373Y200124D01*
X1035379Y199822D01*
X1035377Y199520D01*
X1035386Y199432D01*
X1035387Y199344D01*
X1035423Y199044D01*
X1035452Y198744D01*
X1035470Y198656D01*
X1035481Y198569D01*
X1035547Y198275D01*
X1035607Y197979D01*
X1035633Y197894D01*
X1035653Y197808D01*
X1035749Y197522D01*
X1035839Y197233D01*
X1035874Y197152D01*
X1035902Y197068D01*
X1036027Y196793D01*
X1036146Y196516D01*
X1036189Y196439D01*
X1036226Y196358D01*
X1036379Y196097D01*
X1036525Y195833D01*
X1036576Y195761D01*
X1036620Y195684D01*
X1036798Y195441D01*
X1036971Y195193D01*
X1037030Y195126D01*
X1037082Y195055D01*
X1037284Y194831D01*
X1037481Y194602D01*
X1037546Y194542D01*
X1037605Y194476D01*
X1037829Y194274D01*
X1038049Y194067D01*
X1038119Y194013D01*
X1038185Y193953D01*
X1038428Y193776D01*
X1038668Y193592D01*
X1038744Y193545D01*
X1038815Y193493D01*
X1039076Y193341D01*
X1039333Y193183D01*
X1039413Y193144D01*
X1039489Y193100D01*
X1039765Y192975D01*
X1040036Y192844D01*
X1040119Y192814D01*
X1040200Y192777D01*
X1040486Y192681D01*
X1040770Y192579D01*
X1040856Y192557D01*
X1040940Y192529D01*
X1041234Y192463D01*
X1041527Y192390D01*
X1041615Y192378D01*
X1041702Y192358D01*
X1042001Y192323D01*
X1042300Y192280D01*
X1042389Y192276D01*
X1042477Y192266D01*
X1042988Y192249D01*
X1070143Y192249D01*
X1070274Y192255D01*
X1070405Y192253D01*
X1070663Y192275D01*
X1070922Y192289D01*
X1071052Y192309D01*
X1071183Y192320D01*
X1071437Y192368D01*
X1071694Y192408D01*
X1071821Y192441D01*
X1071950Y192466D01*
X1072198Y192540D01*
X1072449Y192606D01*
X1072571Y192652D01*
X1072697Y192690D01*
X1072937Y192789D01*
X1073180Y192880D01*
X1073297Y192938D01*
X1073418Y192989D01*
X1073646Y193112D01*
X1073878Y193227D01*
X1073989Y193297D01*
X1074105Y193360D01*
X1074319Y193506D01*
X1074538Y193644D01*
X1074641Y193725D01*
X1074750Y193799D01*
X1074948Y193966D01*
X1075152Y194127D01*
X1075246Y194218D01*
X1075347Y194302D01*
X1075526Y194489D01*
X1075713Y194669D01*
X1075798Y194770D01*
X1075889Y194864D01*
X1076048Y195068D01*
X1076216Y195266D01*
X1076289Y195375D01*
X1076370Y195478D01*
X1076509Y195697D01*
X1076654Y195911D01*
X1076717Y196027D01*
X1076787Y196138D01*
X1076902Y196370D01*
X1077025Y196598D01*
X1077075Y196720D01*
X1077134Y196837D01*
X1077224Y197080D01*
X1077323Y197320D01*
X1077361Y197445D01*
X1077407Y197568D01*
X1077472Y197819D01*
X1077546Y198067D01*
X1077571Y198197D01*
X1077604Y198323D01*
X1077644Y198580D01*
X1077692Y198834D01*
X1077703Y198965D01*
X1077723Y199095D01*
X1077736Y199354D01*
X1077758Y199612D01*
X1077756Y199743D01*
X1077762Y199874D01*
X1077749Y200133D01*
X1077744Y200392D01*
X1077728Y200523D01*
X1077722Y200654D01*
X1077682Y200910D01*
X1077651Y201167D01*
X1077622Y201295D01*
X1077601Y201425D01*
X1077536Y201675D01*
X1077478Y201928D01*
X1077436Y202053D01*
X1077403Y202180D01*
X1077312Y202422D01*
X1077229Y202668D01*
X1077175Y202787D01*
X1077128Y202910D01*
X1077013Y203142D01*
X1076905Y203378D01*
X1076839Y203492D01*
X1076781Y203609D01*
X1076642Y203828D01*
X1076511Y204052D01*
X1076433Y204157D01*
X1076363Y204268D01*
X1076203Y204472D01*
X1076049Y204681D01*
X1075961Y204779D01*
X1075880Y204882D01*
X1075531Y205256D01*
X1070139Y210647D01*
X1070139Y223911D01*
X1087789Y223911D01*
X1087943Y223919D01*
X1088097Y223917D01*
X1088332Y223939D01*
X1088568Y223951D01*
X1088721Y223974D01*
X1088874Y223988D01*
X1089106Y224034D01*
X1089339Y224070D01*
X1089489Y224109D01*
X1089640Y224139D01*
X1089866Y224208D01*
X1090094Y224268D01*
X1090239Y224322D01*
X1090386Y224367D01*
X1090604Y224459D01*
X1090825Y224542D01*
X1090963Y224611D01*
X1091105Y224670D01*
X1091313Y224784D01*
X1091524Y224889D01*
X1091654Y224972D01*
X1091790Y225046D01*
X1091984Y225180D01*
X1092184Y225306D01*
X1092305Y225401D01*
X1092432Y225489D01*
X1092612Y225642D01*
X1092798Y225788D01*
X1092908Y225896D01*
X1093026Y225996D01*
X1093189Y226167D01*
X1093359Y226331D01*
X1093458Y226449D01*
X1093564Y226560D01*
X1093709Y226747D01*
X1093861Y226928D01*
X1093948Y227056D01*
X1094042Y227177D01*
X1094167Y227378D01*
X1094300Y227573D01*
X1094373Y227709D01*
X1094455Y227840D01*
X1094559Y228052D01*
X1094671Y228260D01*
X1094730Y228403D01*
X1094797Y228541D01*
X1094879Y228763D01*
X1094969Y228982D01*
X1095013Y229129D01*
X1095066Y229274D01*
X1095125Y229503D01*
X1095192Y229729D01*
X1095221Y229881D01*
X1095259Y230030D01*
X1095328Y230444D01*
X1095338Y230496D01*
X1095339Y230512D01*
X1095343Y230535D01*
X1095416Y231088D01*
X1095443Y231437D01*
X1095475Y231788D01*
X1095475Y231827D01*
X1095478Y231866D01*
X1095470Y232214D01*
X1095465Y232568D01*
X1095461Y232617D01*
X1095460Y232647D01*
X1095450Y232726D01*
X1095416Y233078D01*
X1095268Y234203D01*
X1095247Y234412D01*
X1095229Y234500D01*
X1095219Y234589D01*
X1095152Y234882D01*
X1095093Y235177D01*
X1095066Y235263D01*
X1095046Y235350D01*
X1094950Y235635D01*
X1094861Y235923D01*
X1094826Y236005D01*
X1094797Y236090D01*
X1094673Y236363D01*
X1094554Y236640D01*
X1094511Y236719D01*
X1094474Y236800D01*
X1094321Y237060D01*
X1094176Y237323D01*
X1094124Y237396D01*
X1094079Y237474D01*
X1093901Y237716D01*
X1093729Y237963D01*
X1093670Y238031D01*
X1093618Y238103D01*
X1093416Y238326D01*
X1093220Y238554D01*
X1093154Y238616D01*
X1093094Y238682D01*
X1092871Y238883D01*
X1092652Y239090D01*
X1092581Y239145D01*
X1092514Y239205D01*
X1092272Y239382D01*
X1092033Y239565D01*
X1091956Y239612D01*
X1091884Y239665D01*
X1091625Y239816D01*
X1091368Y239974D01*
X1091287Y240013D01*
X1091210Y240058D01*
X1090937Y240182D01*
X1090665Y240313D01*
X1090581Y240344D01*
X1090499Y240381D01*
X1090214Y240476D01*
X1089931Y240579D01*
X1089844Y240600D01*
X1089759Y240629D01*
X1089466Y240695D01*
X1089174Y240767D01*
X1089085Y240780D01*
X1088998Y240800D01*
X1088699Y240835D01*
X1088401Y240878D01*
X1088312Y240881D01*
X1088223Y240892D01*
X1087711Y240909D01*
X1070139Y240909D01*
X1070139Y254173D01*
X1100917Y284951D01*
X1114181Y284951D01*
X1114181Y267153D01*
X1114189Y266999D01*
X1114187Y266845D01*
X1114209Y266609D01*
X1114221Y266374D01*
X1114244Y266221D01*
X1114258Y266068D01*
X1114304Y265836D01*
X1114340Y265602D01*
X1114379Y265453D01*
X1114409Y265302D01*
X1114478Y265076D01*
X1114538Y264847D01*
X1114592Y264703D01*
X1114637Y264556D01*
X1114729Y264338D01*
X1114812Y264117D01*
X1114881Y263978D01*
X1114940Y263836D01*
X1115054Y263629D01*
X1115159Y263418D01*
X1115242Y263287D01*
X1115316Y263152D01*
X1115450Y262958D01*
X1115576Y262758D01*
X1115672Y262637D01*
X1115759Y262510D01*
X1115912Y262330D01*
X1116058Y262144D01*
X1116166Y262033D01*
X1116266Y261916D01*
X1116436Y261753D01*
X1116601Y261583D01*
X1116719Y261484D01*
X1116831Y261377D01*
X1117017Y261233D01*
X1117198Y261081D01*
X1117326Y260994D01*
X1117447Y260899D01*
X1117648Y260775D01*
X1117843Y260642D01*
X1117979Y260568D01*
X1118110Y260487D01*
X1118322Y260383D01*
X1118530Y260271D01*
X1118673Y260212D01*
X1118811Y260144D01*
X1119033Y260063D01*
X1119252Y259973D01*
X1119399Y259929D01*
X1119544Y259875D01*
X1119773Y259817D01*
X1119999Y259750D01*
X1120151Y259721D01*
X1120300Y259683D01*
X1120713Y259614D01*
X1120766Y259604D01*
X1120782Y259603D01*
X1120805Y259599D01*
X1121805Y259467D01*
X1122155Y259439D01*
X1122505Y259408D01*
X1122544Y259408D01*
X1122583Y259405D01*
X1122934Y259413D01*
X1123285Y259418D01*
X1123334Y259422D01*
X1123364Y259423D01*
X1123443Y259433D01*
X1123795Y259467D01*
X1124555Y259567D01*
X1124706Y259595D01*
X1124859Y259614D01*
X1125090Y259666D01*
X1125322Y259709D01*
X1125470Y259752D01*
X1125620Y259786D01*
X1125844Y259862D01*
X1126071Y259928D01*
X1126214Y259986D01*
X1126360Y260035D01*
X1126575Y260133D01*
X1126794Y260223D01*
X1126930Y260295D01*
X1127070Y260359D01*
X1127274Y260479D01*
X1127483Y260590D01*
X1127610Y260676D01*
X1127744Y260754D01*
X1127934Y260893D01*
X1128130Y261025D01*
X1128249Y261124D01*
X1128373Y261215D01*
X1128549Y261374D01*
X1128730Y261525D01*
X1128838Y261635D01*
X1128952Y261738D01*
X1129110Y261914D01*
X1129275Y262083D01*
X1129371Y262204D01*
X1129475Y262318D01*
X1129614Y262509D01*
X1129761Y262694D01*
X1129844Y262824D01*
X1129935Y262948D01*
X1130054Y263152D01*
X1130181Y263352D01*
X1130251Y263489D01*
X1130328Y263622D01*
X1130426Y263838D01*
X1130532Y264049D01*
X1130587Y264193D01*
X1130651Y264333D01*
X1130726Y264558D01*
X1130810Y264778D01*
X1130850Y264927D01*
X1130899Y265073D01*
X1130951Y265304D01*
X1131012Y265532D01*
X1131036Y265684D01*
X1131070Y265835D01*
X1131098Y266070D01*
X1131135Y266303D01*
X1131144Y266457D01*
X1131162Y266610D01*
X1131176Y267028D01*
X1131179Y267082D01*
X1131178Y267097D01*
X1131179Y267121D01*
X1131179Y284951D01*
X1144443Y284951D01*
X1149626Y279768D01*
X1149723Y279680D01*
X1149814Y279586D01*
X1150012Y279419D01*
X1150205Y279245D01*
X1150311Y279168D01*
X1150411Y279083D01*
X1150626Y278938D01*
X1150835Y278784D01*
X1150948Y278718D01*
X1151057Y278644D01*
X1151285Y278521D01*
X1151509Y278390D01*
X1151628Y278336D01*
X1151744Y278274D01*
X1151983Y278175D01*
X1152219Y278067D01*
X1152344Y278025D01*
X1152465Y277975D01*
X1152713Y277901D01*
X1152959Y277819D01*
X1153087Y277790D01*
X1153213Y277752D01*
X1153467Y277704D01*
X1153720Y277647D01*
X1153851Y277631D01*
X1153980Y277607D01*
X1154238Y277585D01*
X1154495Y277554D01*
X1154627Y277552D01*
X1154757Y277541D01*
X1155016Y277545D01*
X1155276Y277541D01*
X1155406Y277552D01*
X1155538Y277555D01*
X1155795Y277586D01*
X1156053Y277608D01*
X1156182Y277632D01*
X1156312Y277648D01*
X1156565Y277705D01*
X1156820Y277754D01*
X1156946Y277792D01*
X1157074Y277820D01*
X1157319Y277903D01*
X1157568Y277978D01*
X1157689Y278028D01*
X1157813Y278070D01*
X1158049Y278177D01*
X1158289Y278276D01*
X1158404Y278339D01*
X1158523Y278393D01*
X1158747Y278524D01*
X1158975Y278648D01*
X1159084Y278722D01*
X1159197Y278788D01*
X1159406Y278941D01*
X1159620Y279087D01*
X1159720Y279172D01*
X1159826Y279249D01*
X1160019Y279423D01*
X1160217Y279590D01*
X1160308Y279685D01*
X1160405Y279773D01*
X1160579Y279965D01*
X1160759Y280152D01*
X1160840Y280255D01*
X1160928Y280353D01*
X1161081Y280562D01*
X1161241Y280766D01*
X1161311Y280877D01*
X1161388Y280983D01*
X1161519Y281207D01*
X1161657Y281426D01*
X1161715Y281543D01*
X1161782Y281657D01*
X1161889Y281893D01*
X1162004Y282125D01*
X1162050Y282248D01*
X1162104Y282368D01*
X1162186Y282614D01*
X1162277Y282856D01*
X1162310Y282983D01*
X1162352Y283108D01*
X1162409Y283361D01*
X1162474Y283611D01*
X1162494Y283741D01*
X1162523Y283869D01*
X1162554Y284127D01*
X1162593Y284383D01*
X1162600Y284514D01*
X1162615Y284644D01*
X1162632Y285156D01*
X1162633Y461541D01*
X1162626Y461672D01*
X1162628Y461803D01*
X1162606Y462061D01*
X1162593Y462320D01*
X1162573Y462450D01*
X1162562Y462581D01*
X1162513Y462835D01*
X1162473Y463092D01*
X1162440Y463218D01*
X1162416Y463347D01*
X1162341Y463596D01*
X1162276Y463847D01*
X1162230Y463969D01*
X1162192Y464095D01*
X1162093Y464335D01*
X1162002Y464577D01*
X1161943Y464695D01*
X1161893Y464816D01*
X1161770Y465044D01*
X1161654Y465276D01*
X1161584Y465387D01*
X1161522Y465503D01*
X1161376Y465717D01*
X1161237Y465936D01*
X1161156Y466039D01*
X1161082Y466148D01*
X1160915Y466346D01*
X1160755Y466550D01*
X1160664Y466644D01*
X1160579Y466744D01*
X1160393Y466925D01*
X1160213Y467111D01*
X1160112Y467195D01*
X1160018Y467286D01*
X1159813Y467447D01*
X1159616Y467613D01*
X1159507Y467687D01*
X1159404Y467768D01*
X1159184Y467907D01*
X1158970Y468052D01*
X1158855Y468115D01*
X1158744Y468185D01*
X1158512Y468300D01*
X1158283Y468423D01*
X1158162Y468473D01*
X1158044Y468531D01*
X1157802Y468622D01*
X1157562Y468721D01*
X1157436Y468759D01*
X1157313Y468805D01*
X1157063Y468870D01*
X1156814Y468944D01*
X1156685Y468969D01*
X1156558Y469002D01*
X1156302Y469041D01*
X1156047Y469090D01*
X1155916Y469101D01*
X1155787Y469121D01*
X1155528Y469134D01*
X1155270Y469156D01*
X1155139Y469153D01*
X1155007Y469160D01*
X1154748Y469147D01*
X1154489Y469142D01*
X1154359Y469126D01*
X1154228Y469119D01*
X1153972Y469080D01*
X1153715Y469048D01*
X1153586Y469019D01*
X1153457Y468999D01*
X1153206Y468933D01*
X1152953Y468876D01*
X1152829Y468834D01*
X1152702Y468801D01*
X1152459Y468710D01*
X1152214Y468627D01*
X1152094Y468572D01*
X1151971Y468526D01*
X1151739Y468411D01*
X1151503Y468303D01*
X1151390Y468237D01*
X1151273Y468178D01*
X1151053Y468040D01*
X1150830Y467909D01*
X1150724Y467831D01*
X1150613Y467761D01*
X1150410Y467600D01*
X1150201Y467447D01*
X1150103Y467359D01*
X1150000Y467278D01*
X1149626Y466928D01*
X1135674Y452976D01*
X1130539Y450849D01*
X1119901Y450849D01*
X1114766Y452976D01*
X1110836Y456906D01*
X1108709Y462041D01*
X1108709Y467599D01*
X1110836Y472734D01*
X1114766Y476664D01*
X1120237Y478930D01*
X1120368Y478950D01*
X1120371Y478951D01*
X1120374Y478952D01*
X1120741Y479048D01*
X1121123Y479148D01*
X1121126Y479149D01*
X1121129Y479150D01*
X1121495Y479288D01*
X1121854Y479422D01*
X1121857Y479423D01*
X1121859Y479424D01*
X1122215Y479601D01*
X1122553Y479769D01*
X1122555Y479771D01*
X1122558Y479772D01*
X1122890Y479982D01*
X1123212Y480186D01*
X1123215Y480188D01*
X1123217Y480190D01*
X1123523Y480431D01*
X1123826Y480669D01*
X1123828Y480671D01*
X1123831Y480673D01*
X1124205Y481022D01*
X1136958Y493775D01*
X1136960Y493778D01*
X1136962Y493780D01*
X1137218Y494063D01*
X1137481Y494355D01*
X1137482Y494357D01*
X1137485Y494360D01*
X1137702Y494657D01*
X1137941Y494985D01*
X1137943Y494987D01*
X1137945Y494990D01*
X1138134Y495314D01*
X1138335Y495658D01*
X1138337Y495661D01*
X1138338Y495664D01*
X1138497Y496014D01*
X1138658Y496369D01*
X1138659Y496372D01*
X1138661Y496375D01*
X1138781Y496733D01*
X1138907Y497109D01*
X1138908Y497112D01*
X1138909Y497115D01*
X1138990Y497476D01*
X1139079Y497870D01*
X1139079Y497873D01*
X1139080Y497876D01*
X1139123Y498242D01*
X1139172Y498645D01*
X1139172Y498648D01*
X1139172Y498651D01*
X1139189Y499163D01*
X1139189Y791157D01*
X1139189Y791160D01*
X1139189Y791163D01*
X1139169Y791549D01*
X1139149Y791937D01*
X1139149Y791940D01*
X1139149Y791943D01*
X1139091Y792310D01*
X1139030Y792708D01*
X1139029Y792711D01*
X1139028Y792714D01*
X1138932Y793081D01*
X1138832Y793463D01*
X1138831Y793466D01*
X1138830Y793469D01*
X1138692Y793835D01*
X1138558Y794194D01*
X1138557Y794197D01*
X1138556Y794199D01*
X1138379Y794555D01*
X1138211Y794893D01*
X1138209Y794895D01*
X1138208Y794898D01*
X1137998Y795230D01*
X1137794Y795552D01*
X1137792Y795555D01*
X1137790Y795557D01*
X1137549Y795863D01*
X1137311Y796166D01*
X1137309Y796168D01*
X1137307Y796171D01*
X1136958Y796545D01*
X1098805Y834698D01*
X1098802Y834700D01*
X1098800Y834702D01*
X1098523Y834952D01*
X1098225Y835221D01*
X1098223Y835222D01*
X1098220Y835225D01*
X1097918Y835445D01*
X1097595Y835681D01*
X1097593Y835683D01*
X1097590Y835685D01*
X1097263Y835876D01*
X1096922Y836075D01*
X1096919Y836077D01*
X1096916Y836078D01*
X1096566Y836237D01*
X1096211Y836398D01*
X1096208Y836399D01*
X1096205Y836401D01*
X1095847Y836521D01*
X1095471Y836647D01*
X1095468Y836648D01*
X1095465Y836649D01*
X1095104Y836730D01*
X1094710Y836819D01*
X1094707Y836819D01*
X1094704Y836820D01*
X1094338Y836863D01*
X1093935Y836912D01*
X1093932Y836912D01*
X1093929Y836912D01*
X1093417Y836929D01*
X982741Y836929D01*
X977606Y839056D01*
X958436Y858226D01*
X956309Y863361D01*
X956309Y868919D01*
X958436Y874054D01*
X962366Y877984D01*
X967501Y880111D01*
X973059Y880111D01*
X978194Y877984D01*
X989075Y867102D01*
X989078Y867100D01*
X989080Y867098D01*
X989371Y866835D01*
X989655Y866579D01*
X989657Y866578D01*
X989660Y866575D01*
X989963Y866354D01*
X990285Y866119D01*
X990287Y866117D01*
X990290Y866115D01*
X990617Y865924D01*
X990958Y865725D01*
X990961Y865723D01*
X990964Y865722D01*
X991314Y865563D01*
X991669Y865402D01*
X991672Y865401D01*
X991675Y865399D01*
X992037Y865278D01*
X992409Y865153D01*
X992412Y865152D01*
X992415Y865151D01*
X992776Y865070D01*
X993170Y864981D01*
X993173Y864981D01*
X993176Y864980D01*
X993542Y864937D01*
X993945Y864888D01*
X993948Y864888D01*
X993951Y864888D01*
X994463Y864871D01*
X1091903Y864871D01*
X1092034Y864877D01*
X1092165Y864875D01*
X1092423Y864897D01*
X1092682Y864911D01*
X1092812Y864931D01*
X1092943Y864942D01*
X1093197Y864990D01*
X1093454Y865030D01*
X1093580Y865063D01*
X1093709Y865088D01*
X1093958Y865162D01*
X1094209Y865228D01*
X1094331Y865274D01*
X1094457Y865312D01*
X1094697Y865411D01*
X1094939Y865502D01*
X1095057Y865560D01*
X1095178Y865611D01*
X1095406Y865734D01*
X1095638Y865849D01*
X1095749Y865919D01*
X1095865Y865982D01*
X1096079Y866128D01*
X1096298Y866266D01*
X1096401Y866347D01*
X1096510Y866421D01*
X1096708Y866588D01*
X1096912Y866749D01*
X1097006Y866840D01*
X1097106Y866924D01*
X1097286Y867111D01*
X1097473Y867291D01*
X1097557Y867392D01*
X1097648Y867486D01*
X1097808Y867690D01*
X1097975Y867888D01*
X1098049Y867997D01*
X1098130Y868100D01*
X1098268Y868319D01*
X1098414Y868533D01*
X1098477Y868649D01*
X1098547Y868760D01*
X1098662Y868992D01*
X1098785Y869220D01*
X1098835Y869342D01*
X1098893Y869459D01*
X1098984Y869702D01*
X1099083Y869942D01*
X1099121Y870068D01*
X1099167Y870190D01*
X1099232Y870441D01*
X1099306Y870689D01*
X1099331Y870819D01*
X1099364Y870945D01*
X1099403Y871201D01*
X1099452Y871456D01*
X1099463Y871587D01*
X1099483Y871717D01*
X1099496Y871976D01*
X1099518Y872234D01*
X1099515Y872365D01*
X1099522Y872496D01*
X1099509Y872755D01*
X1099504Y873014D01*
X1099488Y873145D01*
X1099481Y873276D01*
X1099442Y873532D01*
X1099410Y873789D01*
X1099381Y873917D01*
X1099361Y874047D01*
X1099295Y874297D01*
X1099238Y874550D01*
X1099196Y874675D01*
X1099163Y874802D01*
X1099072Y875045D01*
X1098989Y875290D01*
X1098935Y875409D01*
X1098888Y875532D01*
X1098773Y875764D01*
X1098665Y876000D01*
X1098599Y876114D01*
X1098540Y876231D01*
X1098402Y876450D01*
X1098271Y876674D01*
X1098193Y876779D01*
X1098123Y876890D01*
X1097962Y877094D01*
X1097809Y877303D01*
X1097721Y877401D01*
X1097640Y877504D01*
X1097290Y877878D01*
X1066329Y908839D01*
X1066329Y955521D01*
X1069718Y958910D01*
X1069806Y959008D01*
X1069901Y959099D01*
X1070068Y959298D01*
X1070241Y959490D01*
X1070319Y959596D01*
X1070403Y959696D01*
X1070549Y959911D01*
X1070702Y960120D01*
X1070768Y960233D01*
X1070842Y960342D01*
X1070966Y960570D01*
X1071096Y960793D01*
X1071150Y960913D01*
X1071213Y961028D01*
X1071312Y961268D01*
X1071419Y961504D01*
X1071461Y961628D01*
X1071511Y961750D01*
X1071585Y961999D01*
X1071668Y962244D01*
X1071697Y962371D01*
X1071734Y962498D01*
X1071783Y962752D01*
X1071840Y963005D01*
X1071855Y963135D01*
X1071880Y963264D01*
X1071902Y963522D01*
X1071932Y963780D01*
X1071935Y963911D01*
X1071946Y964042D01*
X1071941Y964301D01*
X1071946Y964560D01*
X1071934Y964691D01*
X1071932Y964822D01*
X1071901Y965080D01*
X1071879Y965338D01*
X1071854Y965467D01*
X1071838Y965597D01*
X1071781Y965850D01*
X1071733Y966105D01*
X1071695Y966230D01*
X1071666Y966358D01*
X1071583Y966604D01*
X1071509Y966852D01*
X1071459Y966974D01*
X1071417Y967098D01*
X1071309Y967334D01*
X1071210Y967573D01*
X1071148Y967689D01*
X1071093Y967808D01*
X1070962Y968032D01*
X1070839Y968260D01*
X1070765Y968368D01*
X1070699Y968482D01*
X1070546Y968691D01*
X1070400Y968905D01*
X1070315Y969005D01*
X1070237Y969111D01*
X1070064Y969303D01*
X1069896Y969502D01*
X1069802Y969593D01*
X1069714Y969690D01*
X1069521Y969864D01*
X1069335Y970044D01*
X1069232Y970125D01*
X1069134Y970213D01*
X1068925Y970365D01*
X1068721Y970525D01*
X1068610Y970595D01*
X1068504Y970673D01*
X1068280Y970804D01*
X1068061Y970942D01*
X1067943Y971000D01*
X1067830Y971066D01*
X1067594Y971173D01*
X1067362Y971289D01*
X1067239Y971334D01*
X1067119Y971389D01*
X1066873Y971471D01*
X1066631Y971562D01*
X1066503Y971595D01*
X1066379Y971637D01*
X1066126Y971694D01*
X1065875Y971759D01*
X1065746Y971779D01*
X1065618Y971808D01*
X1065360Y971838D01*
X1065104Y971878D01*
X1064973Y971885D01*
X1064843Y971900D01*
X1064331Y971917D01*
X1030962Y971917D01*
X1030588Y971898D01*
X1030216Y971881D01*
X1030199Y971878D01*
X1030182Y971877D01*
X1029811Y971820D01*
X1029444Y971765D01*
X1029428Y971760D01*
X1029411Y971758D01*
X1029049Y971663D01*
X1028688Y971570D01*
X1028672Y971564D01*
X1028656Y971560D01*
X1028308Y971430D01*
X1027956Y971299D01*
X1027941Y971292D01*
X1027925Y971286D01*
X1027593Y971121D01*
X1027256Y970955D01*
X1027241Y970946D01*
X1027226Y970939D01*
X1026911Y970740D01*
X1026594Y970541D01*
X1026581Y970531D01*
X1026566Y970522D01*
X1026273Y970291D01*
X1025978Y970062D01*
X1025966Y970050D01*
X1025953Y970039D01*
X1025685Y969780D01*
X1025415Y969522D01*
X1025404Y969509D01*
X1025392Y969497D01*
X1025151Y969211D01*
X1024910Y968927D01*
X1024900Y968913D01*
X1024889Y968900D01*
X1024679Y968591D01*
X1024468Y968283D01*
X1024460Y968269D01*
X1024450Y968255D01*
X1024272Y967925D01*
X1024094Y967598D01*
X1024088Y967583D01*
X1024080Y967568D01*
X1023936Y967222D01*
X1023793Y966878D01*
X1023788Y966862D01*
X1023781Y966846D01*
X1023674Y966486D01*
X1023566Y966131D01*
X1023563Y966115D01*
X1023558Y966099D01*
X1023488Y965728D01*
X1023417Y965365D01*
X1023416Y965348D01*
X1023413Y965332D01*
X1023381Y964961D01*
X1023348Y964588D01*
X1023348Y964571D01*
X1023347Y964554D01*
X1023353Y964183D01*
X1023358Y963807D01*
X1023360Y963791D01*
X1023360Y963774D01*
X1023405Y963405D01*
X1023448Y963032D01*
X1023452Y963015D01*
X1023454Y962999D01*
X1023536Y962638D01*
X1023562Y962519D01*
X992100Y962519D01*
X991838Y962506D01*
X991576Y962501D01*
X991449Y962486D01*
X991321Y962479D01*
X991061Y962439D01*
X990801Y962408D01*
X990676Y962380D01*
X990550Y962360D01*
X990296Y962293D01*
X990040Y962236D01*
X989919Y962195D01*
X989795Y962162D01*
X989549Y962070D01*
X989300Y961986D01*
X989184Y961933D01*
X989064Y961888D01*
X988829Y961772D01*
X988590Y961663D01*
X988479Y961598D01*
X988365Y961541D01*
X988143Y961401D01*
X987917Y961268D01*
X987813Y961192D01*
X987705Y961124D01*
X987499Y960962D01*
X987287Y960807D01*
X987192Y960721D01*
X987091Y960642D01*
X987046Y960598D01*
X986903Y960459D01*
X986708Y960283D01*
X986622Y960188D01*
X986530Y960099D01*
X986361Y959898D01*
X986185Y959703D01*
X986110Y959600D01*
X986027Y959502D01*
X985879Y959284D01*
X985725Y959073D01*
X985661Y958962D01*
X985588Y958856D01*
X985464Y958625D01*
X985332Y958399D01*
X985279Y958282D01*
X985218Y958169D01*
X985117Y957927D01*
X985009Y957688D01*
X984968Y957566D01*
X984919Y957448D01*
X984844Y957196D01*
X984761Y956948D01*
X984733Y956823D01*
X984696Y956700D01*
X984647Y956442D01*
X984590Y956186D01*
X984575Y956059D01*
X984551Y955933D01*
X984529Y955671D01*
X984498Y955411D01*
X984492Y955239D01*
X984485Y955156D01*
X984486Y955072D01*
X984481Y954900D01*
X984481Y937119D01*
X975861Y937119D01*
X973877Y937343D01*
X971930Y937787D01*
X970045Y938447D01*
X968245Y939313D01*
X966555Y940376D01*
X964993Y941621D01*
X963581Y943033D01*
X962336Y944595D01*
X961273Y946285D01*
X960407Y948085D01*
X960047Y949113D01*
X960023Y949171D01*
X960005Y949231D01*
X959972Y949307D01*
X959956Y949355D01*
X959885Y949511D01*
X959876Y949531D01*
X959752Y949835D01*
X959722Y949891D01*
X959698Y949949D01*
X959539Y950235D01*
X959385Y950524D01*
X959349Y950576D01*
X959319Y950631D01*
X959131Y950900D01*
X958949Y951171D01*
X958908Y951220D01*
X958872Y951271D01*
X958659Y951519D01*
X958449Y951770D01*
X958403Y951814D01*
X958362Y951862D01*
X958124Y952087D01*
X957890Y952316D01*
X957841Y952355D01*
X957795Y952398D01*
X957535Y952597D01*
X957278Y952801D01*
X957225Y952835D01*
X957175Y952873D01*
X956897Y953044D01*
X956621Y953220D01*
X956564Y953249D01*
X956511Y953282D01*
X956215Y953424D01*
X955923Y953571D01*
X955864Y953593D01*
X955808Y953621D01*
X955500Y953732D01*
X955194Y953848D01*
X955133Y953864D01*
X955074Y953886D01*
X954756Y953965D01*
X954439Y954049D01*
X954377Y954059D01*
X954316Y954074D01*
X953992Y954121D01*
X953669Y954172D01*
X953606Y954176D01*
X953544Y954185D01*
X953217Y954197D01*
X952889Y954216D01*
X952826Y954213D01*
X952764Y954215D01*
X952438Y954195D01*
X952110Y954179D01*
X952048Y954170D01*
X951985Y954166D01*
X951662Y954112D01*
X951338Y954063D01*
X951277Y954047D01*
X951215Y954037D01*
X950899Y953950D01*
X950582Y953869D01*
X950523Y953847D01*
X950462Y953830D01*
X950157Y953712D01*
X949850Y953598D01*
X949794Y953570D01*
X949735Y953547D01*
X949444Y953398D01*
X949150Y953254D01*
X949096Y953220D01*
X949040Y953192D01*
X948766Y953014D01*
X948488Y952840D01*
X948438Y952801D01*
X948386Y952767D01*
X948131Y952562D01*
X947872Y952360D01*
X947827Y952317D01*
X947778Y952277D01*
X947546Y952047D01*
X947309Y951820D01*
X947268Y951772D01*
X947223Y951728D01*
X947016Y951476D01*
X946804Y951225D01*
X946768Y951173D01*
X946728Y951125D01*
X946547Y950852D01*
X946362Y950582D01*
X946332Y950527D01*
X946297Y950474D01*
X946145Y950184D01*
X945988Y949897D01*
X945964Y949839D01*
X945935Y949783D01*
X945812Y949478D01*
X945686Y949177D01*
X945668Y949117D01*
X945645Y949058D01*
X945496Y948568D01*
X944959Y946566D01*
X942117Y941643D01*
X938097Y937623D01*
X933174Y934781D01*
X927682Y933309D01*
X891518Y933309D01*
X886026Y934781D01*
X881103Y937623D01*
X877083Y941643D01*
X874241Y946566D01*
X872769Y952058D01*
X872769Y957742D01*
X873997Y962326D01*
X874016Y962413D01*
X874041Y962498D01*
X874098Y962794D01*
X874161Y963089D01*
X874170Y963177D01*
X874187Y963264D01*
X874212Y963565D01*
X874245Y963865D01*
X874245Y963954D01*
X874253Y964042D01*
X874247Y964344D01*
X874249Y964646D01*
X874241Y964734D01*
X874239Y964822D01*
X874203Y965122D01*
X874174Y965422D01*
X874156Y965510D01*
X874145Y965597D01*
X874079Y965891D01*
X874019Y966187D01*
X873993Y966272D01*
X873973Y966358D01*
X873877Y966644D01*
X873787Y966933D01*
X873752Y967014D01*
X873724Y967098D01*
X873599Y967373D01*
X873480Y967650D01*
X873437Y967728D01*
X873400Y967808D01*
X873247Y968069D01*
X873101Y968333D01*
X873051Y968405D01*
X873006Y968482D01*
X872827Y968725D01*
X872655Y968973D01*
X872597Y969040D01*
X872544Y969111D01*
X872342Y969335D01*
X872145Y969564D01*
X872080Y969624D01*
X872021Y969690D01*
X871797Y969892D01*
X871577Y970099D01*
X871507Y970153D01*
X871441Y970213D01*
X871198Y970390D01*
X870958Y970574D01*
X870882Y970621D01*
X870811Y970673D01*
X870550Y970825D01*
X870293Y970983D01*
X870213Y971022D01*
X870137Y971066D01*
X869862Y971191D01*
X869590Y971322D01*
X869507Y971352D01*
X869426Y971389D01*
X869139Y971485D01*
X868856Y971587D01*
X868770Y971609D01*
X868686Y971637D01*
X868391Y971703D01*
X868099Y971776D01*
X868011Y971788D01*
X867925Y971808D01*
X867625Y971843D01*
X867326Y971886D01*
X867237Y971890D01*
X867150Y971900D01*
X866638Y971917D01*
X571222Y971917D01*
X570848Y971898D01*
X570476Y971881D01*
X570459Y971878D01*
X570442Y971877D01*
X570071Y971820D01*
X569704Y971765D01*
X569688Y971760D01*
X569671Y971758D01*
X569309Y971663D01*
X568948Y971570D01*
X568932Y971564D01*
X568916Y971560D01*
X568568Y971430D01*
X568216Y971299D01*
X568201Y971292D01*
X568185Y971286D01*
X567853Y971121D01*
X567516Y970955D01*
X567501Y970946D01*
X567486Y970939D01*
X567171Y970740D01*
X566854Y970541D01*
X566841Y970531D01*
X566826Y970522D01*
X566533Y970291D01*
X566238Y970062D01*
X566226Y970050D01*
X566213Y970039D01*
X565945Y969780D01*
X565675Y969522D01*
X565664Y969509D01*
X565652Y969497D01*
X565411Y969211D01*
X565170Y968927D01*
X565160Y968913D01*
X565149Y968900D01*
X564939Y968591D01*
X564728Y968283D01*
X564720Y968269D01*
X564710Y968255D01*
X564532Y967925D01*
X564354Y967598D01*
X564348Y967583D01*
X564340Y967568D01*
X564196Y967222D01*
X564053Y966878D01*
X564048Y966862D01*
X564041Y966846D01*
X563934Y966486D01*
X563826Y966131D01*
X563823Y966115D01*
X563818Y966099D01*
X563748Y965728D01*
X563677Y965365D01*
X563676Y965348D01*
X563673Y965332D01*
X563641Y964961D01*
X563608Y964588D01*
X563608Y964571D01*
X563607Y964554D01*
X563613Y964183D01*
X563618Y963807D01*
X563620Y963791D01*
X563620Y963774D01*
X563665Y963405D01*
X563708Y963032D01*
X563712Y963015D01*
X563714Y962999D01*
X563796Y962638D01*
X563822Y962519D01*
X532360Y962519D01*
X532098Y962506D01*
X531836Y962501D01*
X531709Y962486D01*
X531581Y962479D01*
X531321Y962439D01*
X531061Y962408D01*
X530936Y962380D01*
X530810Y962360D01*
X530556Y962293D01*
X530300Y962236D01*
X530179Y962195D01*
X530055Y962162D01*
X529809Y962070D01*
X529560Y961986D01*
X529444Y961933D01*
X529324Y961888D01*
X529089Y961772D01*
X528850Y961663D01*
X528739Y961598D01*
X528625Y961541D01*
X528403Y961401D01*
X528177Y961268D01*
X528073Y961192D01*
X527965Y961124D01*
X527759Y960962D01*
X527547Y960807D01*
X527452Y960721D01*
X527351Y960642D01*
X527306Y960598D01*
X527163Y960459D01*
X526968Y960283D01*
X526882Y960188D01*
X526790Y960099D01*
X526621Y959898D01*
X526445Y959703D01*
X526370Y959600D01*
X526287Y959502D01*
X526139Y959284D01*
X525985Y959073D01*
X525921Y958962D01*
X525848Y958856D01*
X525724Y958625D01*
X525592Y958399D01*
X525539Y958282D01*
X525478Y958169D01*
X525377Y957927D01*
X525269Y957688D01*
X525228Y957566D01*
X525179Y957448D01*
X525104Y957196D01*
X525021Y956948D01*
X524993Y956823D01*
X524956Y956700D01*
X524907Y956442D01*
X524850Y956186D01*
X524835Y956059D01*
X524811Y955933D01*
X524789Y955671D01*
X524758Y955411D01*
X524752Y955239D01*
X524745Y955156D01*
X524746Y955072D01*
X524741Y954900D01*
X524741Y937119D01*
X516121Y937119D01*
X514137Y937343D01*
X512190Y937787D01*
X510305Y938447D01*
X508505Y939313D01*
X506815Y940376D01*
X505253Y941621D01*
X503841Y943033D01*
X502596Y944595D01*
X501533Y946285D01*
X500667Y948085D01*
X500307Y949113D01*
X500283Y949171D01*
X500265Y949231D01*
X500232Y949307D01*
X500216Y949355D01*
X500145Y949510D01*
X500135Y949533D01*
X500012Y949835D01*
X499982Y949891D01*
X499958Y949949D01*
X499799Y950235D01*
X499645Y950524D01*
X499609Y950576D01*
X499579Y950631D01*
X499392Y950899D01*
X499208Y951171D01*
X499168Y951220D01*
X499132Y951271D01*
X498919Y951518D01*
X498709Y951770D01*
X498663Y951814D01*
X498622Y951862D01*
X498385Y952086D01*
X498150Y952316D01*
X498100Y952355D01*
X498055Y952398D01*
X497796Y952596D01*
X497538Y952801D01*
X497485Y952834D01*
X497435Y952873D01*
X497157Y953044D01*
X496881Y953220D01*
X496824Y953249D01*
X496771Y953282D01*
X496476Y953424D01*
X496183Y953571D01*
X496124Y953593D01*
X496068Y953621D01*
X495760Y953732D01*
X495454Y953848D01*
X495393Y953864D01*
X495334Y953886D01*
X495016Y953965D01*
X494699Y954049D01*
X494637Y954059D01*
X494576Y954074D01*
X494252Y954121D01*
X493929Y954172D01*
X493866Y954176D01*
X493804Y954185D01*
X493478Y954197D01*
X493149Y954216D01*
X493086Y954213D01*
X493024Y954215D01*
X492698Y954195D01*
X492370Y954179D01*
X492307Y954170D01*
X492245Y954166D01*
X491923Y954112D01*
X491598Y954063D01*
X491537Y954047D01*
X491475Y954037D01*
X491160Y953951D01*
X490842Y953869D01*
X490783Y953847D01*
X490723Y953830D01*
X490418Y953712D01*
X490110Y953598D01*
X490054Y953570D01*
X489995Y953547D01*
X489703Y953398D01*
X489410Y953254D01*
X489356Y953220D01*
X489300Y953192D01*
X489025Y953013D01*
X488748Y952840D01*
X488699Y952801D01*
X488646Y952767D01*
X488390Y952561D01*
X488132Y952360D01*
X488087Y952317D01*
X488038Y952277D01*
X487805Y952047D01*
X487569Y951820D01*
X487528Y951772D01*
X487483Y951728D01*
X487276Y951475D01*
X487063Y951225D01*
X487028Y951173D01*
X486988Y951125D01*
X486806Y950851D01*
X486622Y950582D01*
X486592Y950527D01*
X486557Y950474D01*
X486405Y950184D01*
X486248Y949897D01*
X486224Y949839D01*
X486195Y949783D01*
X486073Y949480D01*
X485946Y949177D01*
X485928Y949116D01*
X485905Y949058D01*
X485756Y948568D01*
X485219Y946566D01*
X482377Y941643D01*
X478357Y937623D01*
X473434Y934781D01*
X467942Y933309D01*
X431778Y933309D01*
X426286Y934781D01*
X421363Y937623D01*
X417343Y941643D01*
X414501Y946566D01*
X413029Y952058D01*
X413029Y957742D01*
X414257Y962326D01*
X414276Y962412D01*
X414301Y962498D01*
X414358Y962794D01*
X414421Y963089D01*
X414430Y963177D01*
X414447Y963264D01*
X414472Y963565D01*
X414505Y963865D01*
X414505Y963954D01*
X414513Y964042D01*
X414507Y964344D01*
X414509Y964646D01*
X414501Y964734D01*
X414499Y964822D01*
X414463Y965122D01*
X414434Y965422D01*
X414416Y965509D01*
X414405Y965597D01*
X414339Y965892D01*
X414279Y966187D01*
X414253Y966272D01*
X414233Y966358D01*
X414137Y966644D01*
X414047Y966933D01*
X414012Y967014D01*
X413984Y967098D01*
X413859Y967373D01*
X413740Y967650D01*
X413697Y967727D01*
X413660Y967808D01*
X413508Y968069D01*
X413361Y968333D01*
X413310Y968405D01*
X413266Y968482D01*
X413088Y968725D01*
X412915Y968973D01*
X412857Y969040D01*
X412804Y969111D01*
X412602Y969335D01*
X412405Y969564D01*
X412340Y969624D01*
X412281Y969690D01*
X412057Y969892D01*
X411837Y970099D01*
X411767Y970153D01*
X411701Y970213D01*
X411458Y970390D01*
X411218Y970574D01*
X411142Y970621D01*
X411071Y970673D01*
X410811Y970825D01*
X410553Y970983D01*
X410473Y971022D01*
X410397Y971066D01*
X410122Y971191D01*
X409850Y971322D01*
X409767Y971352D01*
X409686Y971389D01*
X409400Y971485D01*
X409116Y971587D01*
X409030Y971609D01*
X408946Y971637D01*
X408652Y971703D01*
X408359Y971776D01*
X408271Y971788D01*
X408185Y971808D01*
X407885Y971843D01*
X407586Y971886D01*
X407497Y971890D01*
X407410Y971900D01*
X406898Y971917D01*
X375541Y971917D01*
X375410Y971911D01*
X375279Y971913D01*
X375021Y971891D01*
X374762Y971877D01*
X374632Y971857D01*
X374501Y971846D01*
X374247Y971798D01*
X373990Y971758D01*
X373863Y971725D01*
X373734Y971700D01*
X373486Y971626D01*
X373235Y971560D01*
X373113Y971514D01*
X372987Y971476D01*
X372747Y971377D01*
X372504Y971286D01*
X372387Y971228D01*
X372266Y971177D01*
X372038Y971054D01*
X371806Y970939D01*
X371695Y970869D01*
X371579Y970806D01*
X371365Y970660D01*
X371146Y970522D01*
X371043Y970441D01*
X370934Y970367D01*
X370736Y970200D01*
X370532Y970039D01*
X370438Y969948D01*
X370337Y969864D01*
X370158Y969677D01*
X369971Y969497D01*
X369886Y969396D01*
X369795Y969302D01*
X369636Y969098D01*
X369468Y968900D01*
X369395Y968791D01*
X369314Y968688D01*
X369175Y968469D01*
X369030Y968255D01*
X368967Y968139D01*
X368897Y968028D01*
X368782Y967796D01*
X368659Y967568D01*
X368609Y967446D01*
X368550Y967329D01*
X368460Y967086D01*
X368361Y966846D01*
X368323Y966720D01*
X368277Y966598D01*
X368212Y966347D01*
X368138Y966099D01*
X368113Y965969D01*
X368080Y965843D01*
X368040Y965586D01*
X367992Y965332D01*
X367981Y965201D01*
X367961Y965071D01*
X367948Y964812D01*
X367926Y964554D01*
X367928Y964423D01*
X367922Y964292D01*
X367935Y964033D01*
X367940Y963774D01*
X367956Y963643D01*
X367962Y963512D01*
X368002Y963256D01*
X368033Y962999D01*
X368062Y962871D01*
X368083Y962741D01*
X368148Y962491D01*
X368206Y962238D01*
X368248Y962113D01*
X368281Y961986D01*
X368372Y961744D01*
X368455Y961498D01*
X368509Y961379D01*
X368556Y961256D01*
X368671Y961024D01*
X368779Y960788D01*
X368845Y960674D01*
X368903Y960557D01*
X369042Y960338D01*
X369173Y960114D01*
X369251Y960009D01*
X369321Y959898D01*
X369481Y959694D01*
X369635Y959485D01*
X369723Y959387D01*
X369804Y959284D01*
X370153Y958910D01*
X375121Y953943D01*
X375121Y940679D01*
X357865Y940679D01*
X357711Y940671D01*
X357557Y940673D01*
X357321Y940651D01*
X357086Y940639D01*
X356933Y940616D01*
X356780Y940602D01*
X356548Y940556D01*
X356314Y940520D01*
X356165Y940481D01*
X356014Y940451D01*
X355788Y940382D01*
X355559Y940322D01*
X355415Y940268D01*
X355268Y940223D01*
X355050Y940131D01*
X354829Y940048D01*
X354691Y939979D01*
X354548Y939920D01*
X354341Y939806D01*
X354130Y939701D01*
X353999Y939618D01*
X353864Y939544D01*
X353669Y939410D01*
X353470Y939284D01*
X353349Y939189D01*
X353222Y939101D01*
X353042Y938947D01*
X352856Y938801D01*
X352745Y938694D01*
X352628Y938594D01*
X352465Y938423D01*
X352295Y938259D01*
X352196Y938141D01*
X352089Y938029D01*
X351945Y937843D01*
X351792Y937662D01*
X351706Y937534D01*
X351611Y937413D01*
X351487Y937212D01*
X351354Y937017D01*
X351280Y936881D01*
X351199Y936750D01*
X351095Y936538D01*
X350983Y936330D01*
X350924Y936187D01*
X350856Y936049D01*
X350775Y935827D01*
X350685Y935608D01*
X350640Y935460D01*
X350587Y935316D01*
X350529Y935087D01*
X350462Y934861D01*
X350433Y934709D01*
X350395Y934560D01*
X350326Y934147D01*
X350316Y934094D01*
X350315Y934078D01*
X350311Y934055D01*
X350182Y933078D01*
X350154Y932728D01*
X350123Y932379D01*
X350123Y932339D01*
X350120Y932300D01*
X350128Y931947D01*
X350133Y931598D01*
X350137Y931549D01*
X350138Y931519D01*
X350148Y931440D01*
X350182Y931089D01*
X350285Y930305D01*
X350313Y930156D01*
X350330Y930017D01*
X350330Y930015D01*
X350332Y930001D01*
X350384Y929770D01*
X350427Y929538D01*
X350470Y929390D01*
X350504Y929240D01*
X350580Y929016D01*
X350646Y928789D01*
X350704Y928646D01*
X350753Y928500D01*
X350851Y928285D01*
X350941Y928066D01*
X351013Y927930D01*
X351077Y927790D01*
X351197Y927586D01*
X351308Y927377D01*
X351394Y927249D01*
X351472Y927116D01*
X351611Y926926D01*
X351743Y926730D01*
X351842Y926611D01*
X351933Y926487D01*
X352092Y926311D01*
X352243Y926130D01*
X352353Y926022D01*
X352456Y925908D01*
X352632Y925750D01*
X352801Y925585D01*
X352922Y925489D01*
X353036Y925385D01*
X353227Y925246D01*
X353412Y925099D01*
X353542Y925016D01*
X353666Y924925D01*
X353871Y924806D01*
X354070Y924679D01*
X354207Y924609D01*
X354341Y924532D01*
X354556Y924434D01*
X354767Y924328D01*
X354911Y924273D01*
X355051Y924209D01*
X355275Y924134D01*
X355496Y924050D01*
X355645Y924010D01*
X355791Y923961D01*
X356022Y923909D01*
X356250Y923848D01*
X356402Y923824D01*
X356553Y923790D01*
X356787Y923762D01*
X357021Y923725D01*
X357175Y923716D01*
X357328Y923698D01*
X357746Y923684D01*
X357800Y923681D01*
X357815Y923682D01*
X357840Y923681D01*
X375121Y923681D01*
X375121Y910417D01*
X344343Y879639D01*
X331079Y879639D01*
X331079Y897057D01*
X331071Y897212D01*
X331073Y897366D01*
X331051Y897601D01*
X331039Y897837D01*
X331016Y897990D01*
X331002Y898143D01*
X330956Y898374D01*
X330920Y898608D01*
X330881Y898757D01*
X330851Y898909D01*
X330782Y899134D01*
X330722Y899363D01*
X330668Y899508D01*
X330623Y899655D01*
X330531Y899873D01*
X330448Y900094D01*
X330379Y900232D01*
X330319Y900374D01*
X330206Y900581D01*
X330101Y900793D01*
X330018Y900923D01*
X329944Y901058D01*
X329810Y901253D01*
X329684Y901453D01*
X329589Y901574D01*
X329501Y901701D01*
X329347Y901881D01*
X329201Y902066D01*
X329094Y902177D01*
X328994Y902294D01*
X328823Y902457D01*
X328659Y902627D01*
X328541Y902727D01*
X328429Y902833D01*
X328243Y902978D01*
X328062Y903130D01*
X327934Y903217D01*
X327812Y903311D01*
X327612Y903436D01*
X327417Y903569D01*
X327281Y903642D01*
X327150Y903724D01*
X326938Y903827D01*
X326730Y903939D01*
X326587Y903998D01*
X326449Y904066D01*
X326227Y904148D01*
X326008Y904238D01*
X325860Y904282D01*
X325716Y904335D01*
X325487Y904393D01*
X325261Y904461D01*
X325109Y904490D01*
X324960Y904528D01*
X324547Y904596D01*
X324494Y904606D01*
X324478Y904608D01*
X324454Y904611D01*
X323792Y904699D01*
X323443Y904727D01*
X323093Y904758D01*
X323054Y904758D01*
X323014Y904761D01*
X322664Y904753D01*
X322313Y904748D01*
X322264Y904744D01*
X322234Y904743D01*
X322154Y904733D01*
X321803Y904699D01*
X320705Y904554D01*
X320554Y904526D01*
X320401Y904508D01*
X320171Y904456D01*
X319938Y904413D01*
X319790Y904369D01*
X319640Y904335D01*
X319416Y904260D01*
X319189Y904194D01*
X319046Y904135D01*
X318900Y904086D01*
X318685Y903988D01*
X318466Y903899D01*
X318330Y903826D01*
X318190Y903763D01*
X317986Y903643D01*
X317777Y903532D01*
X317649Y903446D01*
X317516Y903368D01*
X317326Y903228D01*
X317130Y903096D01*
X317011Y902998D01*
X316887Y902907D01*
X316712Y902748D01*
X316530Y902597D01*
X316422Y902486D01*
X316308Y902383D01*
X316150Y902207D01*
X315985Y902039D01*
X315889Y901918D01*
X315785Y901803D01*
X315646Y901612D01*
X315499Y901427D01*
X315416Y901297D01*
X315325Y901173D01*
X315206Y900969D01*
X315079Y900770D01*
X315009Y900632D01*
X314932Y900499D01*
X314834Y900284D01*
X314728Y900073D01*
X314673Y899929D01*
X314609Y899788D01*
X314534Y899564D01*
X314450Y899343D01*
X314410Y899194D01*
X314361Y899048D01*
X314309Y898818D01*
X314248Y898589D01*
X314224Y898437D01*
X314190Y898287D01*
X314162Y898052D01*
X314125Y897819D01*
X314116Y897665D01*
X314098Y897512D01*
X314084Y897093D01*
X314081Y897039D01*
X314082Y897024D01*
X314081Y897000D01*
X314081Y879639D01*
X300817Y879639D01*
X270039Y910417D01*
X270039Y923681D01*
X287756Y923681D01*
X287910Y923689D01*
X288065Y923687D01*
X288300Y923709D01*
X288536Y923721D01*
X288688Y923744D01*
X288842Y923758D01*
X289074Y923804D01*
X289307Y923840D01*
X289456Y923879D01*
X289608Y923909D01*
X289833Y923978D01*
X290062Y924038D01*
X290207Y924092D01*
X290354Y924137D01*
X290571Y924229D01*
X290793Y924312D01*
X290931Y924381D01*
X291073Y924440D01*
X291280Y924554D01*
X291492Y924659D01*
X291622Y924742D01*
X291757Y924816D01*
X291952Y924950D01*
X292152Y925076D01*
X292273Y925171D01*
X292400Y925259D01*
X292579Y925412D01*
X292765Y925558D01*
X292876Y925666D01*
X292993Y925766D01*
X293156Y925936D01*
X293326Y926101D01*
X293426Y926219D01*
X293532Y926330D01*
X293677Y926517D01*
X293829Y926698D01*
X293916Y926826D01*
X294010Y926947D01*
X294135Y927148D01*
X294268Y927343D01*
X294341Y927479D01*
X294423Y927610D01*
X294526Y927822D01*
X294639Y928030D01*
X294698Y928173D01*
X294765Y928311D01*
X294846Y928533D01*
X294937Y928752D01*
X294981Y928899D01*
X295034Y929044D01*
X295092Y929273D01*
X295160Y929499D01*
X295189Y929651D01*
X295227Y929800D01*
X295295Y930214D01*
X295305Y930266D01*
X295306Y930275D01*
X295307Y930282D01*
X295308Y930291D01*
X295311Y930305D01*
X295414Y931088D01*
X295441Y931437D01*
X295473Y931787D01*
X295473Y931827D01*
X295476Y931866D01*
X295468Y932214D01*
X295463Y932568D01*
X295459Y932617D01*
X295458Y932647D01*
X295448Y932726D01*
X295414Y933077D01*
X295285Y934054D01*
X295257Y934206D01*
X295239Y934359D01*
X295186Y934590D01*
X295144Y934822D01*
X295100Y934970D01*
X295066Y935120D01*
X294991Y935344D01*
X294925Y935571D01*
X294866Y935714D01*
X294817Y935860D01*
X294719Y936075D01*
X294630Y936294D01*
X294557Y936430D01*
X294493Y936570D01*
X294374Y936774D01*
X294263Y936983D01*
X294177Y937111D01*
X294099Y937244D01*
X293959Y937434D01*
X293827Y937630D01*
X293729Y937749D01*
X293637Y937873D01*
X293479Y938049D01*
X293328Y938230D01*
X293218Y938338D01*
X293114Y938452D01*
X292939Y938610D01*
X292770Y938775D01*
X292649Y938871D01*
X292534Y938975D01*
X292344Y939114D01*
X292158Y939261D01*
X292028Y939344D01*
X291904Y939435D01*
X291700Y939554D01*
X291501Y939681D01*
X291363Y939751D01*
X291230Y939828D01*
X291015Y939926D01*
X290804Y940032D01*
X290660Y940087D01*
X290519Y940151D01*
X290295Y940226D01*
X290074Y940310D01*
X289925Y940350D01*
X289779Y940399D01*
X289549Y940451D01*
X289320Y940512D01*
X289168Y940536D01*
X289018Y940570D01*
X288783Y940598D01*
X288550Y940635D01*
X288396Y940644D01*
X288243Y940662D01*
X287825Y940676D01*
X287770Y940679D01*
X287755Y940678D01*
X287731Y940679D01*
X270039Y940679D01*
X270039Y953943D01*
X275007Y958910D01*
X275094Y959008D01*
X275189Y959099D01*
X275356Y959298D01*
X275529Y959490D01*
X275607Y959596D01*
X275692Y959696D01*
X275837Y959911D01*
X275990Y960120D01*
X276057Y960233D01*
X276130Y960342D01*
X276254Y960570D01*
X276384Y960793D01*
X276439Y960913D01*
X276501Y961028D01*
X276600Y961268D01*
X276707Y961504D01*
X276749Y961628D01*
X276799Y961750D01*
X276874Y961999D01*
X276956Y962244D01*
X276985Y962371D01*
X277022Y962498D01*
X277071Y962752D01*
X277128Y963005D01*
X277143Y963135D01*
X277168Y963264D01*
X277190Y963522D01*
X277221Y963780D01*
X277223Y963911D01*
X277234Y964042D01*
X277229Y964301D01*
X277234Y964560D01*
X277222Y964691D01*
X277220Y964822D01*
X277189Y965080D01*
X277167Y965338D01*
X277142Y965467D01*
X277127Y965597D01*
X277069Y965850D01*
X277021Y966105D01*
X276983Y966230D01*
X276954Y966358D01*
X276872Y966604D01*
X276797Y966852D01*
X276747Y966974D01*
X276705Y967098D01*
X276598Y967334D01*
X276498Y967573D01*
X276436Y967689D01*
X276381Y967808D01*
X276250Y968032D01*
X276127Y968260D01*
X276053Y968368D01*
X275987Y968482D01*
X275834Y968691D01*
X275688Y968905D01*
X275603Y969005D01*
X275525Y969111D01*
X275352Y969303D01*
X275185Y969502D01*
X275090Y969593D01*
X275002Y969690D01*
X274810Y969863D01*
X274623Y970044D01*
X274520Y970125D01*
X274422Y970213D01*
X274213Y970365D01*
X274009Y970525D01*
X273898Y970595D01*
X273792Y970673D01*
X273568Y970804D01*
X273349Y970942D01*
X273231Y971000D01*
X273118Y971066D01*
X272882Y971173D01*
X272650Y971289D01*
X272527Y971334D01*
X272407Y971389D01*
X272161Y971471D01*
X271919Y971562D01*
X271792Y971595D01*
X271667Y971637D01*
X271414Y971694D01*
X271164Y971759D01*
X271034Y971779D01*
X270906Y971808D01*
X270648Y971838D01*
X270392Y971878D01*
X270261Y971885D01*
X270131Y971900D01*
X269619Y971917D01*
X235541Y971917D01*
X235476Y971914D01*
X235410Y971916D01*
X235087Y971894D01*
X234762Y971877D01*
X234697Y971867D01*
X234632Y971863D01*
X234312Y971808D01*
X233991Y971758D01*
X233927Y971741D01*
X233863Y971730D01*
X233550Y971642D01*
X233236Y971560D01*
X233174Y971537D01*
X233111Y971519D01*
X232809Y971400D01*
X232505Y971286D01*
X232446Y971257D01*
X232385Y971233D01*
X232096Y971083D01*
X231806Y970939D01*
X231751Y970904D01*
X231692Y970873D01*
X231420Y970695D01*
X231146Y970522D01*
X231095Y970481D01*
X231040Y970445D01*
X230788Y970240D01*
X230533Y970039D01*
X230485Y969994D01*
X230434Y969952D01*
X230205Y969723D01*
X229972Y969497D01*
X229929Y969447D01*
X229883Y969400D01*
X229678Y969149D01*
X229469Y968900D01*
X229432Y968846D01*
X229391Y968795D01*
X229213Y968524D01*
X229030Y968255D01*
X228999Y968197D01*
X228963Y968142D01*
X228814Y967854D01*
X228659Y967568D01*
X228634Y967507D01*
X228604Y967449D01*
X228485Y967147D01*
X228361Y966846D01*
X228342Y966784D01*
X228318Y966722D01*
X228231Y966410D01*
X228138Y966099D01*
X228126Y966034D01*
X228108Y965971D01*
X228053Y965650D01*
X227993Y965332D01*
X227987Y965266D01*
X227976Y965202D01*
X227954Y964877D01*
X227927Y964554D01*
X227928Y964488D01*
X227923Y964423D01*
X227935Y964097D01*
X227940Y963774D01*
X227948Y963708D01*
X227950Y963643D01*
X227995Y963321D01*
X228034Y962999D01*
X228048Y962935D01*
X228057Y962870D01*
X228134Y962554D01*
X228206Y962238D01*
X228227Y962175D01*
X228243Y962112D01*
X228352Y961806D01*
X228455Y961498D01*
X228483Y961438D01*
X228505Y961376D01*
X228644Y961083D01*
X228779Y960788D01*
X228812Y960731D01*
X228840Y960672D01*
X229009Y960395D01*
X229174Y960114D01*
X229212Y960061D01*
X229247Y960005D01*
X229443Y959747D01*
X229635Y959485D01*
X229679Y959436D01*
X229719Y959384D01*
X229940Y959147D01*
X230158Y958906D01*
X230207Y958862D01*
X230252Y958814D01*
X230496Y958601D01*
X230738Y958384D01*
X230791Y958345D01*
X230841Y958302D01*
X231106Y958115D01*
X231368Y957923D01*
X231425Y957890D01*
X231479Y957852D01*
X231761Y957694D01*
X232042Y957530D01*
X232102Y957502D01*
X232160Y957470D01*
X232626Y957259D01*
X234111Y956643D01*
X234340Y956562D01*
X234565Y956472D01*
X234761Y956413D01*
X234847Y956382D01*
X234919Y956364D01*
X235055Y956323D01*
X235929Y956089D01*
X236205Y955895D01*
X236239Y955875D01*
X236271Y955853D01*
X236579Y955685D01*
X236885Y955513D01*
X236930Y955493D01*
X236956Y955478D01*
X237030Y955447D01*
X237035Y955445D01*
X237662Y954818D01*
X237842Y954655D01*
X238016Y954486D01*
X238174Y954356D01*
X238241Y954295D01*
X238301Y954251D01*
X238411Y954161D01*
X239129Y953610D01*
X239309Y953325D01*
X239334Y953294D01*
X239355Y953261D01*
X239575Y952988D01*
X239792Y952712D01*
X239826Y952676D01*
X239844Y952653D01*
X239900Y952596D01*
X240142Y952338D01*
X243053Y949427D01*
X243313Y949192D01*
X243571Y948954D01*
X243603Y948930D01*
X243632Y948904D01*
X243916Y948697D01*
X244196Y948487D01*
X244238Y948461D01*
X244262Y948443D01*
X244332Y948402D01*
X244336Y948400D01*
X244876Y947696D01*
X245033Y947512D01*
X245183Y947321D01*
X245323Y947172D01*
X245382Y947102D01*
X245436Y947051D01*
X245533Y946947D01*
X246173Y946307D01*
X246314Y946001D01*
X246334Y945967D01*
X246351Y945932D01*
X246534Y945632D01*
X246713Y945330D01*
X246741Y945291D01*
X246757Y945265D01*
X246805Y945201D01*
X246808Y945197D01*
X247038Y944340D01*
X247113Y944109D01*
X247178Y943876D01*
X247250Y943685D01*
X247278Y943598D01*
X247309Y943529D01*
X247358Y943396D01*
X247705Y942560D01*
X247718Y942224D01*
X247724Y942184D01*
X247726Y942145D01*
X247780Y941799D01*
X247830Y941451D01*
X247841Y941404D01*
X247846Y941374D01*
X247866Y941296D01*
X247946Y940952D01*
X249011Y936976D01*
X249040Y936887D01*
X249043Y936875D01*
X249072Y936787D01*
X249119Y936642D01*
X249224Y936307D01*
X249239Y936271D01*
X249252Y936233D01*
X249283Y936162D01*
X249292Y936135D01*
X249381Y935941D01*
X249393Y935912D01*
X249532Y935590D01*
X249554Y935547D01*
X249567Y935519D01*
X249597Y935466D01*
X249610Y935438D01*
X249725Y934566D01*
X249769Y934327D01*
X249803Y934087D01*
X249849Y933888D01*
X249866Y933798D01*
X249887Y933726D01*
X249919Y933588D01*
X250153Y932714D01*
X250123Y932379D01*
X250123Y932339D01*
X250120Y932300D01*
X250128Y931951D01*
X250133Y931598D01*
X250137Y931549D01*
X250138Y931519D01*
X250148Y931440D01*
X250149Y931435D01*
X249919Y930578D01*
X249868Y930340D01*
X249808Y930105D01*
X249775Y929904D01*
X249756Y929815D01*
X249748Y929740D01*
X249725Y929600D01*
X249607Y928703D01*
X249450Y928405D01*
X249435Y928368D01*
X249417Y928333D01*
X249291Y928007D01*
X249160Y927680D01*
X249146Y927633D01*
X249135Y927605D01*
X249114Y927528D01*
X249011Y927190D01*
X247946Y923214D01*
X247872Y922871D01*
X247796Y922528D01*
X247791Y922489D01*
X247783Y922450D01*
X247745Y922101D01*
X247703Y921753D01*
X247702Y921705D01*
X247698Y921674D01*
X247698Y921594D01*
X247698Y921589D01*
X247358Y920770D01*
X247277Y920541D01*
X247187Y920316D01*
X247127Y920120D01*
X247097Y920034D01*
X247079Y919962D01*
X247038Y919826D01*
X246804Y918952D01*
X246610Y918676D01*
X246590Y918642D01*
X246568Y918609D01*
X246400Y918303D01*
X246228Y917996D01*
X246208Y917951D01*
X246193Y917925D01*
X246163Y917852D01*
X246160Y917846D01*
X245533Y917219D01*
X245370Y917039D01*
X245201Y916865D01*
X245071Y916707D01*
X245010Y916640D01*
X244966Y916579D01*
X244876Y916470D01*
X244325Y915752D01*
X244040Y915572D01*
X244009Y915547D01*
X243976Y915526D01*
X243704Y915307D01*
X243427Y915089D01*
X243391Y915055D01*
X243368Y915036D01*
X243311Y914980D01*
X243053Y914739D01*
X240142Y911828D01*
X239906Y911567D01*
X239669Y911310D01*
X239646Y911278D01*
X239619Y911249D01*
X239412Y910965D01*
X239202Y910685D01*
X239176Y910643D01*
X239158Y910619D01*
X239118Y910549D01*
X239115Y910545D01*
X238411Y910005D01*
X238227Y909848D01*
X238036Y909698D01*
X237886Y909558D01*
X237817Y909499D01*
X237766Y909445D01*
X237662Y909348D01*
X237022Y908708D01*
X236716Y908567D01*
X236682Y908546D01*
X236647Y908529D01*
X236347Y908347D01*
X236045Y908168D01*
X236006Y908140D01*
X235980Y908124D01*
X235916Y908075D01*
X235912Y908073D01*
X235055Y907843D01*
X234824Y907768D01*
X234591Y907703D01*
X234400Y907631D01*
X234313Y907603D01*
X234244Y907573D01*
X234111Y907523D01*
X233275Y907176D01*
X232939Y907163D01*
X232900Y907157D01*
X232860Y907155D01*
X232513Y907101D01*
X232166Y907051D01*
X232118Y907040D01*
X232089Y907035D01*
X232011Y907015D01*
X231667Y906935D01*
X227691Y905870D01*
X227358Y905762D01*
X227022Y905657D01*
X226986Y905641D01*
X226948Y905629D01*
X226628Y905488D01*
X226305Y905349D01*
X226261Y905326D01*
X226234Y905314D01*
X226165Y905275D01*
X226160Y905272D01*
X225281Y905156D01*
X225042Y905112D01*
X224802Y905078D01*
X224603Y905032D01*
X224513Y905015D01*
X224442Y904994D01*
X224303Y904962D01*
X223429Y904728D01*
X223093Y904758D01*
X223054Y904758D01*
X223014Y904761D01*
X222662Y904753D01*
X222313Y904748D01*
X222265Y904744D01*
X222234Y904743D01*
X222154Y904733D01*
X222150Y904732D01*
X221293Y904962D01*
X221056Y905013D01*
X220821Y905073D01*
X220619Y905106D01*
X220530Y905125D01*
X220455Y905133D01*
X220315Y905156D01*
X219418Y905274D01*
X219120Y905431D01*
X219083Y905446D01*
X219048Y905464D01*
X218721Y905590D01*
X218395Y905721D01*
X218348Y905735D01*
X218320Y905746D01*
X218242Y905767D01*
X217905Y905870D01*
X213929Y906935D01*
X213586Y907009D01*
X213243Y907085D01*
X213204Y907090D01*
X213165Y907098D01*
X212816Y907136D01*
X212468Y907178D01*
X212420Y907179D01*
X212389Y907183D01*
X212309Y907183D01*
X212304Y907183D01*
X211485Y907523D01*
X211256Y907604D01*
X211031Y907694D01*
X210835Y907753D01*
X210749Y907784D01*
X210677Y907802D01*
X210541Y907843D01*
X209667Y908077D01*
X209391Y908271D01*
X209357Y908291D01*
X209325Y908313D01*
X209017Y908481D01*
X208711Y908653D01*
X208666Y908673D01*
X208640Y908688D01*
X208566Y908719D01*
X208561Y908721D01*
X207934Y909348D01*
X207754Y909511D01*
X207580Y909680D01*
X207422Y909810D01*
X207355Y909871D01*
X207295Y909915D01*
X207185Y910005D01*
X206467Y910556D01*
X206287Y910841D01*
X206262Y910872D01*
X206241Y910905D01*
X206022Y911177D01*
X205804Y911454D01*
X205770Y911490D01*
X205752Y911513D01*
X205696Y911570D01*
X205454Y911828D01*
X202543Y914739D01*
X202283Y914974D01*
X202024Y915212D01*
X201993Y915236D01*
X201964Y915262D01*
X201681Y915469D01*
X201399Y915679D01*
X201358Y915705D01*
X201334Y915723D01*
X201264Y915763D01*
X201260Y915766D01*
X200720Y916470D01*
X200563Y916654D01*
X200413Y916845D01*
X200273Y916994D01*
X200214Y917064D01*
X200160Y917115D01*
X200063Y917219D01*
X199423Y917859D01*
X199282Y918165D01*
X199262Y918199D01*
X199245Y918234D01*
X199062Y918534D01*
X198883Y918836D01*
X198855Y918875D01*
X198839Y918901D01*
X198791Y918965D01*
X198788Y918969D01*
X198558Y919826D01*
X198483Y920057D01*
X198418Y920290D01*
X198346Y920481D01*
X198318Y920568D01*
X198288Y920636D01*
X198238Y920770D01*
X197622Y922255D01*
X197594Y922315D01*
X197571Y922376D01*
X197427Y922666D01*
X197287Y922960D01*
X197253Y923016D01*
X197224Y923075D01*
X197050Y923349D01*
X196881Y923627D01*
X196842Y923679D01*
X196807Y923735D01*
X196606Y923990D01*
X196410Y924249D01*
X196365Y924297D01*
X196324Y924348D01*
X196098Y924582D01*
X195877Y924819D01*
X195828Y924862D01*
X195782Y924909D01*
X195533Y925119D01*
X195289Y925332D01*
X195235Y925370D01*
X195185Y925412D01*
X194916Y925595D01*
X194651Y925782D01*
X194594Y925814D01*
X194539Y925851D01*
X194253Y926005D01*
X193971Y926164D01*
X193910Y926190D01*
X193853Y926222D01*
X193553Y926346D01*
X193255Y926475D01*
X193192Y926495D01*
X193131Y926520D01*
X192820Y926613D01*
X192511Y926711D01*
X192446Y926724D01*
X192383Y926743D01*
X192065Y926803D01*
X191746Y926869D01*
X191681Y926876D01*
X191617Y926888D01*
X191293Y926916D01*
X190970Y926949D01*
X190904Y926949D01*
X190839Y926954D01*
X190515Y926949D01*
X190190Y926949D01*
X190124Y926942D01*
X190059Y926941D01*
X189736Y926902D01*
X189413Y926868D01*
X189349Y926855D01*
X189284Y926847D01*
X188967Y926775D01*
X188649Y926709D01*
X188587Y926689D01*
X188523Y926675D01*
X188214Y926571D01*
X187905Y926473D01*
X187845Y926447D01*
X187783Y926426D01*
X187486Y926291D01*
X187190Y926161D01*
X187133Y926129D01*
X187073Y926102D01*
X186792Y925938D01*
X186510Y925779D01*
X186456Y925741D01*
X186399Y925707D01*
X186138Y925516D01*
X185872Y925328D01*
X185823Y925285D01*
X185770Y925246D01*
X185529Y925029D01*
X185284Y924815D01*
X185240Y924767D01*
X185191Y924723D01*
X184974Y924482D01*
X184752Y924244D01*
X184712Y924191D01*
X184668Y924143D01*
X184478Y923881D01*
X184281Y923622D01*
X184247Y923565D01*
X184208Y923513D01*
X184045Y923232D01*
X183876Y922955D01*
X183848Y922895D01*
X183815Y922839D01*
X183680Y922542D01*
X183541Y922249D01*
X183519Y922188D01*
X183492Y922128D01*
X183389Y921820D01*
X183281Y921514D01*
X183265Y921450D01*
X183244Y921388D01*
X183173Y921072D01*
X183096Y920755D01*
X183088Y920690D01*
X183073Y920626D01*
X183035Y920305D01*
X182991Y919982D01*
X182989Y919916D01*
X182981Y919851D01*
X182964Y919340D01*
X182964Y849868D01*
X182977Y849606D01*
X182982Y849344D01*
X182997Y849217D01*
X183004Y849089D01*
X183044Y848829D01*
X183075Y848569D01*
X183104Y848444D01*
X183123Y848317D01*
X183190Y848063D01*
X183248Y847808D01*
X183289Y847686D01*
X183321Y847562D01*
X183413Y847316D01*
X183497Y847068D01*
X183550Y846951D01*
X183595Y846831D01*
X183712Y846597D01*
X183820Y846358D01*
X183885Y846247D01*
X183942Y846133D01*
X184082Y845911D01*
X184215Y845684D01*
X184291Y845581D01*
X184359Y845473D01*
X184521Y845266D01*
X184676Y845055D01*
X184762Y844960D01*
X184842Y844859D01*
X185024Y844670D01*
X185200Y844476D01*
X185295Y844390D01*
X185384Y844298D01*
X185585Y844129D01*
X185780Y843953D01*
X185883Y843878D01*
X185981Y843795D01*
X186198Y843648D01*
X186410Y843493D01*
X186520Y843429D01*
X186626Y843357D01*
X186858Y843232D01*
X187084Y843100D01*
X187201Y843047D01*
X187313Y842986D01*
X187556Y842886D01*
X187795Y842777D01*
X187916Y842737D01*
X188035Y842688D01*
X188286Y842612D01*
X188535Y842529D01*
X188660Y842501D01*
X188782Y842465D01*
X189041Y842416D01*
X189296Y842358D01*
X189423Y842343D01*
X189549Y842319D01*
X189811Y842297D01*
X190071Y842266D01*
X190243Y842260D01*
X190327Y842253D01*
X190411Y842255D01*
X190583Y842249D01*
X251491Y842249D01*
X251868Y842268D01*
X252243Y842286D01*
X252257Y842288D01*
X252270Y842289D01*
X252641Y842346D01*
X253015Y842403D01*
X253028Y842406D01*
X253042Y842408D01*
X253403Y842503D01*
X253770Y842598D01*
X253783Y842602D01*
X253797Y842606D01*
X254151Y842739D01*
X254502Y842869D01*
X254514Y842875D01*
X254527Y842880D01*
X254868Y843049D01*
X255202Y843214D01*
X255214Y843221D01*
X255226Y843227D01*
X255544Y843428D01*
X255863Y843628D01*
X255874Y843637D01*
X255886Y843644D01*
X256184Y843878D01*
X256479Y844108D01*
X256489Y844118D01*
X256500Y844127D01*
X256771Y844389D01*
X257042Y844649D01*
X257051Y844659D01*
X257061Y844669D01*
X257300Y844953D01*
X257547Y845244D01*
X257556Y845258D01*
X257563Y845266D01*
X257587Y845300D01*
X257844Y845661D01*
X258392Y846489D01*
X260054Y847590D01*
X260073Y847604D01*
X260107Y847625D01*
X260300Y847755D01*
X260356Y847798D01*
X260416Y847835D01*
X260450Y847862D01*
X263229Y849730D01*
X263232Y849732D01*
X263237Y849735D01*
X264905Y850860D01*
X266883Y851259D01*
X266886Y851260D01*
X266892Y851261D01*
X267381Y851361D01*
X267423Y851371D01*
X267465Y851378D01*
X267721Y851447D01*
X270071Y851907D01*
X270091Y851912D01*
X270123Y851918D01*
X270264Y851947D01*
X270300Y851952D01*
X270796Y852049D01*
X270812Y852054D01*
X270838Y852058D01*
X272798Y852454D01*
X274761Y852057D01*
X274778Y852055D01*
X274804Y852049D01*
X275297Y851952D01*
X275323Y851948D01*
X275350Y851943D01*
X275369Y851939D01*
X275379Y851937D01*
X275489Y851915D01*
X275510Y851912D01*
X275542Y851904D01*
X277750Y851472D01*
X278214Y851361D01*
X278710Y851260D01*
X278714Y851259D01*
X278720Y851258D01*
X280691Y850860D01*
X282360Y849735D01*
X282364Y849733D01*
X282369Y849729D01*
X285189Y847833D01*
X285296Y847755D01*
X285491Y847624D01*
X285513Y847611D01*
X285545Y847588D01*
X287204Y846489D01*
X288306Y844826D01*
X288320Y844806D01*
X288341Y844773D01*
X288471Y844581D01*
X288509Y844529D01*
X288544Y844474D01*
X288574Y844436D01*
X290442Y841657D01*
X290444Y841654D01*
X290447Y841649D01*
X291575Y839976D01*
X291973Y838005D01*
X291974Y838001D01*
X291975Y837995D01*
X292076Y837499D01*
X292087Y837457D01*
X292094Y837414D01*
X292162Y837160D01*
X292619Y834827D01*
X292625Y834806D01*
X292630Y834773D01*
X292661Y834620D01*
X292667Y834581D01*
X292764Y834087D01*
X292768Y834070D01*
X292773Y834044D01*
X293169Y832083D01*
X292773Y830120D01*
X292770Y830103D01*
X292764Y830077D01*
X292667Y829584D01*
X292664Y829558D01*
X292653Y829503D01*
X292650Y829494D01*
X292650Y829490D01*
X292632Y829403D01*
X292629Y829382D01*
X292622Y829350D01*
X292187Y827132D01*
X292076Y826666D01*
X291974Y826163D01*
X291973Y826159D01*
X291972Y826154D01*
X291575Y824190D01*
X290446Y822515D01*
X290444Y822511D01*
X290440Y822506D01*
X288546Y819689D01*
X288470Y819584D01*
X288340Y819391D01*
X288327Y819370D01*
X288305Y819338D01*
X287204Y817676D01*
X286376Y817128D01*
X286074Y816905D01*
X285770Y816682D01*
X285760Y816673D01*
X285749Y816665D01*
X285472Y816413D01*
X285191Y816159D01*
X285182Y816148D01*
X285171Y816139D01*
X284921Y815859D01*
X284668Y815579D01*
X284660Y815568D01*
X284651Y815557D01*
X284430Y815252D01*
X284208Y814949D01*
X284201Y814937D01*
X284193Y814926D01*
X284004Y814600D01*
X283815Y814275D01*
X283809Y814262D01*
X283802Y814250D01*
X283648Y813907D01*
X283492Y813564D01*
X283488Y813551D01*
X283482Y813538D01*
X283364Y813182D01*
X283244Y812824D01*
X283241Y812810D01*
X283237Y812797D01*
X283156Y812431D01*
X283073Y812062D01*
X283072Y812049D01*
X283069Y812035D01*
X283025Y811660D01*
X282981Y811287D01*
X282980Y811271D01*
X282979Y811260D01*
X282979Y811218D01*
X282964Y810776D01*
X282964Y634424D01*
X282982Y634075D01*
X282996Y633724D01*
X283002Y633684D01*
X283004Y633645D01*
X283057Y633299D01*
X283108Y632951D01*
X283119Y632904D01*
X283123Y632874D01*
X283144Y632796D01*
X283223Y632453D01*
X284063Y629317D01*
X284118Y629149D01*
X284163Y628977D01*
X284238Y628778D01*
X284304Y628575D01*
X284375Y628412D01*
X284438Y628247D01*
X284533Y628056D01*
X284619Y627861D01*
X284706Y627707D01*
X284786Y627548D01*
X284900Y627368D01*
X285005Y627183D01*
X285108Y627038D01*
X285203Y626889D01*
X285335Y626721D01*
X285459Y626548D01*
X285576Y626415D01*
X285686Y626275D01*
X285920Y626025D01*
X285975Y625962D01*
X285999Y625940D01*
X286036Y625901D01*
X286617Y625320D01*
X286748Y625202D01*
X286872Y625076D01*
X287038Y624940D01*
X287196Y624797D01*
X287339Y624693D01*
X287476Y624581D01*
X287653Y624463D01*
X287826Y624337D01*
X287979Y624247D01*
X288126Y624150D01*
X288315Y624050D01*
X288500Y623943D01*
X288661Y623869D01*
X288817Y623787D01*
X289016Y623708D01*
X289210Y623620D01*
X289378Y623563D01*
X289542Y623498D01*
X289872Y623397D01*
X289950Y623371D01*
X289982Y623364D01*
X290032Y623349D01*
X290826Y623136D01*
X290999Y623099D01*
X291170Y623052D01*
X291380Y623017D01*
X291589Y622973D01*
X291765Y622954D01*
X291940Y622925D01*
X292153Y622911D01*
X292365Y622888D01*
X292542Y622887D01*
X292719Y622877D01*
X292932Y622885D01*
X293145Y622884D01*
X293322Y622901D01*
X293499Y622908D01*
X293710Y622939D01*
X293922Y622960D01*
X294096Y622995D01*
X294271Y623020D01*
X294606Y623098D01*
X294687Y623114D01*
X294718Y623124D01*
X294770Y623136D01*
X295564Y623348D01*
X295732Y623403D01*
X295904Y623448D01*
X296104Y623523D01*
X296306Y623589D01*
X296468Y623660D01*
X296634Y623723D01*
X296826Y623818D01*
X297021Y623904D01*
X297174Y623991D01*
X297333Y624070D01*
X297513Y624185D01*
X297699Y624290D01*
X297843Y624393D01*
X297992Y624488D01*
X298160Y624620D01*
X298334Y624744D01*
X298466Y624861D01*
X298605Y624971D01*
X298857Y625206D01*
X298919Y625261D01*
X298941Y625284D01*
X298979Y625320D01*
X299561Y625902D01*
X299679Y626033D01*
X299805Y626158D01*
X299940Y626323D01*
X300083Y626481D01*
X300188Y626624D01*
X300300Y626761D01*
X300418Y626939D01*
X300544Y627111D01*
X300634Y627264D01*
X300732Y627411D01*
X300831Y627600D01*
X300938Y627785D01*
X301012Y627946D01*
X301094Y628103D01*
X301173Y628300D01*
X301261Y628495D01*
X301318Y628663D01*
X301383Y628827D01*
X301483Y629156D01*
X301510Y629235D01*
X301517Y629267D01*
X301533Y629317D01*
X302373Y632452D01*
X302446Y632796D01*
X302523Y633138D01*
X302528Y633177D01*
X302536Y633216D01*
X302574Y633565D01*
X302615Y633913D01*
X302617Y633961D01*
X302620Y633992D01*
X302620Y634072D01*
X302632Y634424D01*
X302632Y745357D01*
X302628Y745448D01*
X302630Y745538D01*
X302608Y745837D01*
X302592Y746137D01*
X302578Y746226D01*
X302572Y746317D01*
X302490Y746822D01*
X302433Y747113D01*
X302482Y747353D01*
X302498Y747464D01*
X302523Y747574D01*
X302556Y747849D01*
X302597Y748124D01*
X302602Y748237D01*
X302615Y748349D01*
X302632Y748860D01*
X302632Y749105D01*
X302740Y749365D01*
X302768Y749445D01*
X302804Y749524D01*
X302899Y749813D01*
X303001Y750100D01*
X303021Y750183D01*
X303048Y750265D01*
X303167Y750763D01*
X303621Y752995D01*
X303621Y752999D01*
X303623Y753005D01*
X304021Y754976D01*
X305146Y756644D01*
X305148Y756648D01*
X305151Y756653D01*
X307049Y759475D01*
X307126Y759581D01*
X307256Y759774D01*
X307269Y759796D01*
X307292Y759828D01*
X308392Y761489D01*
X310053Y762589D01*
X310073Y762604D01*
X310106Y762625D01*
X310299Y762755D01*
X310358Y762799D01*
X310420Y762838D01*
X310454Y762864D01*
X313222Y764726D01*
X313226Y764728D01*
X313231Y764731D01*
X314905Y765860D01*
X316874Y766258D01*
X316878Y766259D01*
X316884Y766260D01*
X319119Y766714D01*
X319201Y766735D01*
X319286Y766750D01*
X319580Y766833D01*
X319874Y766908D01*
X319955Y766938D01*
X320037Y766961D01*
X320517Y767141D01*
X320776Y767249D01*
X321021Y767249D01*
X321133Y767254D01*
X321246Y767252D01*
X321523Y767274D01*
X321800Y767289D01*
X321911Y767306D01*
X322024Y767315D01*
X322529Y767399D01*
X322768Y767448D01*
X323059Y767391D01*
X323149Y767378D01*
X323237Y767358D01*
X323534Y767323D01*
X323831Y767280D01*
X323922Y767277D01*
X324012Y767266D01*
X324524Y767249D01*
X341072Y767249D01*
X341163Y767253D01*
X341253Y767251D01*
X341552Y767273D01*
X341851Y767289D01*
X341941Y767302D01*
X342032Y767309D01*
X342537Y767391D01*
X342828Y767448D01*
X343067Y767399D01*
X343179Y767383D01*
X343289Y767358D01*
X343565Y767325D01*
X343839Y767284D01*
X343952Y767279D01*
X344064Y767266D01*
X344575Y767249D01*
X344820Y767249D01*
X345079Y767141D01*
X345160Y767113D01*
X345238Y767078D01*
X345528Y766982D01*
X345815Y766880D01*
X345898Y766860D01*
X345979Y766833D01*
X346477Y766714D01*
X348712Y766260D01*
X348716Y766259D01*
X348722Y766258D01*
X350691Y765860D01*
X352366Y764731D01*
X352369Y764729D01*
X352374Y764725D01*
X355188Y762833D01*
X355297Y762755D01*
X355490Y762624D01*
X355511Y762612D01*
X355543Y762589D01*
X357204Y761489D01*
X358304Y759828D01*
X358319Y759808D01*
X358340Y759774D01*
X358471Y759581D01*
X358508Y759531D01*
X358541Y759479D01*
X358571Y759440D01*
X360445Y756652D01*
X360448Y756649D01*
X360451Y756644D01*
X361575Y754976D01*
X361973Y753004D01*
X361974Y753001D01*
X361975Y752995D01*
X362429Y750763D01*
X362450Y750680D01*
X362465Y750595D01*
X362547Y750302D01*
X362623Y750007D01*
X362653Y749927D01*
X362676Y749844D01*
X362856Y749365D01*
X362964Y749105D01*
X362964Y748860D01*
X362969Y748748D01*
X362967Y748635D01*
X362989Y748358D01*
X363004Y748081D01*
X363021Y747970D01*
X363030Y747858D01*
X363114Y747353D01*
X363163Y747113D01*
X363106Y746822D01*
X363093Y746732D01*
X363073Y746644D01*
X363038Y746346D01*
X362995Y746049D01*
X362992Y745959D01*
X362981Y745869D01*
X362964Y745357D01*
X362964Y699103D01*
X362967Y699037D01*
X362965Y698971D01*
X362987Y698648D01*
X363004Y698323D01*
X363014Y698258D01*
X363018Y698193D01*
X363073Y697873D01*
X363123Y697552D01*
X363140Y697488D01*
X363151Y697424D01*
X363239Y697111D01*
X363321Y696797D01*
X363344Y696735D01*
X363362Y696672D01*
X363481Y696371D01*
X363595Y696066D01*
X363624Y696007D01*
X363648Y695946D01*
X363797Y695659D01*
X363942Y695367D01*
X363977Y695312D01*
X364008Y695253D01*
X364185Y694982D01*
X364359Y694707D01*
X364400Y694656D01*
X364436Y694601D01*
X364641Y694349D01*
X364842Y694094D01*
X364887Y694047D01*
X364929Y693996D01*
X365158Y693766D01*
X365384Y693533D01*
X365434Y693490D01*
X365481Y693444D01*
X365733Y693239D01*
X365981Y693030D01*
X366035Y692993D01*
X366086Y692952D01*
X366358Y692774D01*
X366626Y692591D01*
X366684Y692560D01*
X366739Y692524D01*
X367028Y692375D01*
X367313Y692221D01*
X367374Y692196D01*
X367432Y692165D01*
X367735Y692046D01*
X368035Y691922D01*
X368097Y691903D01*
X368159Y691879D01*
X368471Y691792D01*
X368782Y691699D01*
X368847Y691687D01*
X368910Y691669D01*
X369231Y691614D01*
X369549Y691554D01*
X369615Y691548D01*
X369679Y691537D01*
X370004Y691515D01*
X370327Y691488D01*
X370393Y691489D01*
X370458Y691484D01*
X370783Y691496D01*
X371107Y691501D01*
X371173Y691509D01*
X371238Y691512D01*
X371560Y691556D01*
X371882Y691595D01*
X371946Y691609D01*
X372011Y691618D01*
X372327Y691696D01*
X372643Y691767D01*
X372706Y691788D01*
X372769Y691804D01*
X373076Y691913D01*
X373383Y692017D01*
X373443Y692044D01*
X373505Y692066D01*
X373797Y692205D01*
X374093Y692340D01*
X374150Y692374D01*
X374209Y692402D01*
X374486Y692570D01*
X374767Y692735D01*
X374819Y692774D01*
X374876Y692808D01*
X375134Y693004D01*
X375396Y693196D01*
X375445Y693240D01*
X375497Y693280D01*
X375734Y693501D01*
X375975Y693720D01*
X376019Y693768D01*
X376067Y693813D01*
X376281Y694059D01*
X376497Y694299D01*
X376536Y694352D01*
X376579Y694402D01*
X376767Y694668D01*
X376958Y694930D01*
X376991Y694986D01*
X377029Y695040D01*
X377188Y695323D01*
X377351Y695604D01*
X377378Y695663D01*
X377411Y695721D01*
X377622Y696187D01*
X379582Y700919D01*
X382581Y703918D01*
X386499Y705541D01*
X633741Y705541D01*
X637659Y703918D01*
X638502Y703074D01*
X638600Y702986D01*
X638691Y702892D01*
X638890Y702725D01*
X639082Y702551D01*
X639188Y702474D01*
X639288Y702389D01*
X639503Y702243D01*
X639712Y702090D01*
X639825Y702024D01*
X639934Y701950D01*
X640162Y701827D01*
X640385Y701696D01*
X640505Y701642D01*
X640620Y701580D01*
X640860Y701481D01*
X641096Y701373D01*
X641220Y701332D01*
X641342Y701281D01*
X641590Y701207D01*
X641836Y701125D01*
X641964Y701096D01*
X642090Y701058D01*
X642345Y701010D01*
X642597Y700953D01*
X642727Y700937D01*
X642856Y700913D01*
X643114Y700891D01*
X643372Y700860D01*
X643503Y700858D01*
X643634Y700847D01*
X643893Y700851D01*
X644152Y700847D01*
X644283Y700858D01*
X644414Y700861D01*
X644671Y700892D01*
X644930Y700914D01*
X645059Y700938D01*
X645189Y700954D01*
X645442Y701011D01*
X645697Y701060D01*
X645822Y701097D01*
X645950Y701126D01*
X646196Y701209D01*
X646444Y701283D01*
X646565Y701334D01*
X646690Y701376D01*
X646926Y701483D01*
X647165Y701582D01*
X647281Y701645D01*
X647400Y701699D01*
X647624Y701830D01*
X647852Y701954D01*
X647960Y702028D01*
X648074Y702094D01*
X648282Y702247D01*
X648497Y702393D01*
X648597Y702478D01*
X648703Y702555D01*
X648895Y702729D01*
X649094Y702896D01*
X649185Y702991D01*
X649282Y703079D01*
X649455Y703271D01*
X649636Y703458D01*
X649717Y703561D01*
X649805Y703658D01*
X649957Y703868D01*
X650117Y704072D01*
X650187Y704183D01*
X650265Y704289D01*
X650396Y704513D01*
X650534Y704732D01*
X650592Y704849D01*
X650658Y704963D01*
X650765Y705199D01*
X650881Y705431D01*
X650927Y705554D01*
X650981Y705674D01*
X651063Y705919D01*
X651154Y706162D01*
X651187Y706289D01*
X651229Y706414D01*
X651285Y706666D01*
X651351Y706917D01*
X651371Y707047D01*
X651400Y707175D01*
X651430Y707432D01*
X651470Y707689D01*
X651477Y707820D01*
X651492Y707950D01*
X651509Y708462D01*
X651509Y728948D01*
X652808Y733793D01*
X655316Y738137D01*
X658863Y741684D01*
X663207Y744192D01*
X668052Y745491D01*
X673068Y745491D01*
X677913Y744192D01*
X682257Y741684D01*
X685804Y738137D01*
X688312Y733793D01*
X689611Y728948D01*
X689611Y546560D01*
X689621Y546363D01*
X689621Y546167D01*
X689641Y545974D01*
X689651Y545781D01*
X689681Y545586D01*
X689701Y545390D01*
X689741Y545201D01*
X689770Y545009D01*
X689820Y544819D01*
X689860Y544626D01*
X689919Y544442D01*
X689968Y544254D01*
X690037Y544070D01*
X690097Y543882D01*
X690174Y543705D01*
X690242Y543523D01*
X690330Y543347D01*
X690408Y543167D01*
X690503Y542998D01*
X690589Y542825D01*
X690694Y542658D01*
X690791Y542487D01*
X690903Y542328D01*
X691006Y542165D01*
X691128Y542010D01*
X691241Y541849D01*
X691369Y541703D01*
X691489Y541551D01*
X691625Y541410D01*
X691755Y541261D01*
X691896Y541129D01*
X692031Y540990D01*
X692182Y540863D01*
X692326Y540729D01*
X692480Y540612D01*
X692628Y540487D01*
X692791Y540377D01*
X692948Y540258D01*
X693113Y540157D01*
X693273Y540049D01*
X693447Y539955D01*
X693615Y539853D01*
X693790Y539770D01*
X693960Y539678D01*
X694142Y539603D01*
X694320Y539518D01*
X694503Y539454D01*
X694682Y539380D01*
X694870Y539323D01*
X695056Y539258D01*
X695244Y539212D01*
X695429Y539157D01*
X695623Y539120D01*
X695814Y539073D01*
X696006Y539047D01*
X696196Y539011D01*
X696392Y538995D01*
X696587Y538968D01*
X696781Y538961D01*
X696974Y538945D01*
X697171Y538949D01*
X697368Y538942D01*
X697561Y538955D01*
X697754Y538959D01*
X697950Y538982D01*
X698146Y538996D01*
X698337Y539029D01*
X698529Y539052D01*
X698721Y539096D01*
X698915Y539129D01*
X699101Y539182D01*
X699290Y539225D01*
X699477Y539288D01*
X699666Y539341D01*
X699942Y539444D01*
X700030Y539474D01*
X700072Y539493D01*
X700146Y539521D01*
X704074Y541148D01*
X708166Y541148D01*
X712592Y539315D01*
X712656Y539292D01*
X712719Y539263D01*
X713024Y539161D01*
X713327Y539053D01*
X713394Y539037D01*
X713459Y539015D01*
X713772Y538945D01*
X714085Y538869D01*
X714154Y538859D01*
X714221Y538844D01*
X714539Y538806D01*
X714858Y538762D01*
X714927Y538760D01*
X714996Y538752D01*
X715507Y538735D01*
X729466Y538735D01*
X729555Y538739D01*
X729643Y538737D01*
X729944Y538759D01*
X730246Y538775D01*
X730333Y538788D01*
X730421Y538795D01*
X730719Y538848D01*
X731017Y538894D01*
X731103Y538917D01*
X731190Y538932D01*
X731480Y539015D01*
X731772Y539092D01*
X731855Y539123D01*
X731940Y539148D01*
X732220Y539260D01*
X732503Y539366D01*
X732582Y539405D01*
X732664Y539438D01*
X732931Y539579D01*
X733202Y539713D01*
X733276Y539761D01*
X733355Y539802D01*
X733606Y539969D01*
X733861Y540130D01*
X733931Y540185D01*
X734005Y540234D01*
X734238Y540426D01*
X734475Y540613D01*
X734539Y540674D01*
X734607Y540730D01*
X734819Y540945D01*
X735036Y541155D01*
X735093Y541223D01*
X735155Y541286D01*
X735344Y541521D01*
X735539Y541752D01*
X735588Y541825D01*
X735644Y541894D01*
X735808Y542148D01*
X735978Y542397D01*
X736020Y542476D01*
X736068Y542550D01*
X736205Y542819D01*
X736348Y543084D01*
X736382Y543166D01*
X736422Y543245D01*
X736531Y543527D01*
X736647Y543806D01*
X736672Y543890D01*
X736704Y543973D01*
X736783Y544264D01*
X736870Y544553D01*
X736886Y544641D01*
X736909Y544726D01*
X736959Y545024D01*
X737015Y545320D01*
X737022Y545409D01*
X737037Y545496D01*
X737055Y545797D01*
X737081Y546098D01*
X737079Y546186D01*
X737085Y546275D01*
X737073Y546577D01*
X737067Y546878D01*
X737057Y546966D01*
X737053Y547055D01*
X737010Y547353D01*
X736974Y547653D01*
X736954Y547740D01*
X736942Y547827D01*
X736826Y548326D01*
X736028Y551304D01*
X736028Y556136D01*
X737278Y560804D01*
X739695Y564988D01*
X743112Y568405D01*
X747296Y570822D01*
X751964Y572072D01*
X756796Y572072D01*
X761464Y570822D01*
X765648Y568405D01*
X766010Y568044D01*
X766205Y567868D01*
X766394Y567686D01*
X766495Y567606D01*
X766590Y567521D01*
X766801Y567366D01*
X767008Y567204D01*
X767116Y567135D01*
X767220Y567060D01*
X767446Y566927D01*
X767668Y566787D01*
X767783Y566731D01*
X767893Y566666D01*
X768132Y566557D01*
X768367Y566441D01*
X768487Y566396D01*
X768604Y566343D01*
X768853Y566259D01*
X769098Y566167D01*
X769222Y566135D01*
X769344Y566094D01*
X769600Y566036D01*
X769854Y565970D01*
X769980Y565951D01*
X770105Y565922D01*
X770366Y565891D01*
X770625Y565851D01*
X770753Y565845D01*
X770880Y565830D01*
X771142Y565825D01*
X771404Y565812D01*
X771533Y565819D01*
X771660Y565816D01*
X771921Y565839D01*
X772184Y565853D01*
X772311Y565872D01*
X772438Y565883D01*
X772695Y565932D01*
X772955Y565973D01*
X773079Y566005D01*
X773205Y566029D01*
X773457Y566105D01*
X773710Y566171D01*
X773829Y566216D01*
X773952Y566253D01*
X774195Y566353D01*
X774440Y566446D01*
X774555Y566503D01*
X774673Y566552D01*
X774904Y566677D01*
X775139Y566794D01*
X775247Y566862D01*
X775360Y566923D01*
X775577Y567071D01*
X775798Y567211D01*
X775899Y567290D01*
X776005Y567362D01*
X776206Y567532D01*
X776412Y567694D01*
X776537Y567811D01*
X776602Y567866D01*
X776660Y567926D01*
X776786Y568044D01*
X777147Y568405D01*
X781332Y570822D01*
X786000Y572072D01*
X790832Y572072D01*
X795500Y570822D01*
X799684Y568405D01*
X803101Y564988D01*
X805518Y560804D01*
X806768Y556136D01*
X806768Y551304D01*
X805518Y546636D01*
X803101Y542452D01*
X799685Y539035D01*
X797543Y537798D01*
X797468Y537750D01*
X797390Y537708D01*
X797141Y537538D01*
X796888Y537374D01*
X796818Y537318D01*
X796745Y537268D01*
X796515Y537074D01*
X796279Y536884D01*
X796216Y536822D01*
X796149Y536765D01*
X795940Y536548D01*
X795724Y536336D01*
X795668Y536267D01*
X795607Y536204D01*
X795420Y535966D01*
X795229Y535733D01*
X795180Y535659D01*
X795125Y535590D01*
X794964Y535334D01*
X794797Y535083D01*
X794756Y535004D01*
X794708Y534929D01*
X794575Y534660D01*
X794434Y534392D01*
X794401Y534309D01*
X794362Y534230D01*
X794256Y533948D01*
X794144Y533667D01*
X794119Y533582D01*
X794088Y533499D01*
X794012Y533207D01*
X793929Y532917D01*
X793914Y532830D01*
X793891Y532744D01*
X793845Y532445D01*
X793792Y532149D01*
X793786Y532060D01*
X793772Y531973D01*
X793757Y531672D01*
X793735Y531370D01*
X793738Y531282D01*
X793733Y531193D01*
X793749Y530892D01*
X793757Y530590D01*
X793769Y530502D01*
X793774Y530414D01*
X793820Y530116D01*
X793860Y529816D01*
X793880Y529730D01*
X793894Y529643D01*
X793971Y529350D01*
X794040Y529057D01*
X794070Y528974D01*
X794092Y528888D01*
X794199Y528604D01*
X794298Y528320D01*
X794336Y528240D01*
X794367Y528157D01*
X794502Y527886D01*
X794630Y527614D01*
X794675Y527538D01*
X794715Y527458D01*
X794877Y527203D01*
X795032Y526945D01*
X795085Y526874D01*
X795132Y526799D01*
X795319Y526562D01*
X795500Y526321D01*
X795560Y526255D01*
X795615Y526186D01*
X795965Y525812D01*
X824556Y497221D01*
X825755Y494326D01*
X825755Y445838D01*
X825755Y445835D01*
X825755Y445831D01*
X825776Y445421D01*
X825795Y445058D01*
X825795Y445055D01*
X825795Y445052D01*
X825857Y444658D01*
X825914Y444287D01*
X825915Y444284D01*
X825916Y444281D01*
X826014Y443908D01*
X826112Y443532D01*
X826113Y443529D01*
X826114Y443526D01*
X826258Y443144D01*
X826386Y442801D01*
X826387Y442798D01*
X826388Y442795D01*
X826572Y442427D01*
X826733Y442102D01*
X826735Y442100D01*
X826736Y442097D01*
X826946Y441765D01*
X827150Y441443D01*
X827152Y441440D01*
X827154Y441437D01*
X827397Y441129D01*
X827633Y440829D01*
X827635Y440827D01*
X827637Y440824D01*
X827986Y440450D01*
X854470Y413966D01*
X854473Y413964D01*
X854475Y413962D01*
X854758Y413706D01*
X855050Y413443D01*
X855052Y413442D01*
X855055Y413439D01*
X855361Y413215D01*
X855679Y412983D01*
X855682Y412981D01*
X855685Y412979D01*
X856012Y412788D01*
X856353Y412589D01*
X856356Y412587D01*
X856359Y412586D01*
X856709Y412427D01*
X857064Y412266D01*
X857067Y412265D01*
X857070Y412263D01*
X857428Y412143D01*
X857804Y412017D01*
X857807Y412016D01*
X857810Y412015D01*
X858171Y411934D01*
X858565Y411845D01*
X858568Y411845D01*
X858571Y411844D01*
X858937Y411801D01*
X859340Y411752D01*
X859343Y411752D01*
X859346Y411752D01*
X859858Y411735D01*
X943542Y411735D01*
X943545Y411735D01*
X943549Y411735D01*
X943934Y411755D01*
X944322Y411775D01*
X944325Y411775D01*
X944328Y411775D01*
X944695Y411833D01*
X945093Y411894D01*
X945096Y411895D01*
X945099Y411896D01*
X945466Y411992D01*
X945848Y412092D01*
X945851Y412093D01*
X945854Y412094D01*
X946221Y412232D01*
X946579Y412366D01*
X946582Y412367D01*
X946585Y412368D01*
X946940Y412545D01*
X947278Y412713D01*
X947280Y412715D01*
X947283Y412716D01*
X947615Y412926D01*
X947937Y413130D01*
X947940Y413132D01*
X947943Y413134D01*
X948238Y413366D01*
X948551Y413613D01*
X948553Y413615D01*
X948556Y413617D01*
X948930Y413966D01*
X955094Y420130D01*
X955096Y420133D01*
X955098Y420135D01*
X955354Y420418D01*
X955617Y420710D01*
X955618Y420712D01*
X955621Y420715D01*
X955842Y421018D01*
X956077Y421339D01*
X956079Y421342D01*
X956081Y421345D01*
X956268Y421666D01*
X956471Y422013D01*
X956473Y422016D01*
X956474Y422019D01*
X956632Y422366D01*
X956794Y422724D01*
X956795Y422727D01*
X956797Y422730D01*
X956917Y423088D01*
X957043Y423464D01*
X957044Y423467D01*
X957045Y423470D01*
X957126Y423831D01*
X957215Y424225D01*
X957215Y424228D01*
X957216Y424231D01*
X957259Y424597D01*
X957308Y425000D01*
X957308Y425003D01*
X957308Y425006D01*
X957325Y425518D01*
X957325Y448606D01*
X958524Y451501D01*
X973439Y466416D01*
X976334Y467615D01*
X1047682Y467615D01*
X1047685Y467615D01*
X1047689Y467615D01*
X1048074Y467635D01*
X1048462Y467655D01*
X1048465Y467655D01*
X1048468Y467655D01*
X1048835Y467713D01*
X1049233Y467774D01*
X1049236Y467775D01*
X1049239Y467776D01*
X1049606Y467872D01*
X1049988Y467972D01*
X1049991Y467973D01*
X1049994Y467974D01*
X1050361Y468112D01*
X1050719Y468246D01*
X1050722Y468247D01*
X1050725Y468248D01*
X1051080Y468425D01*
X1051418Y468593D01*
X1051420Y468595D01*
X1051423Y468596D01*
X1051748Y468802D01*
X1052077Y469010D01*
X1052080Y469012D01*
X1052083Y469014D01*
X1052388Y469255D01*
X1052691Y469493D01*
X1052693Y469495D01*
X1052696Y469497D01*
X1053070Y469846D01*
X1087174Y503950D01*
X1087176Y503953D01*
X1087178Y503955D01*
X1087434Y504238D01*
X1087697Y504530D01*
X1087698Y504532D01*
X1087701Y504535D01*
X1087922Y504838D01*
X1088157Y505159D01*
X1088159Y505162D01*
X1088161Y505165D01*
X1088350Y505489D01*
X1088551Y505833D01*
X1088553Y505836D01*
X1088554Y505839D01*
X1088711Y506185D01*
X1088874Y506544D01*
X1088875Y506547D01*
X1088877Y506550D01*
X1088997Y506908D01*
X1089123Y507284D01*
X1089124Y507287D01*
X1089125Y507290D01*
X1089206Y507651D01*
X1089295Y508045D01*
X1089295Y508048D01*
X1089296Y508051D01*
X1089339Y508417D01*
X1089388Y508820D01*
X1089388Y508823D01*
X1089388Y508826D01*
X1089405Y509338D01*
X1089405Y520792D01*
X1089388Y521119D01*
X1089377Y521447D01*
X1089368Y521509D01*
X1089365Y521571D01*
X1089315Y521895D01*
X1089270Y522220D01*
X1089255Y522281D01*
X1089246Y522342D01*
X1089163Y522660D01*
X1089085Y522978D01*
X1089064Y523037D01*
X1089048Y523097D01*
X1088933Y523405D01*
X1088823Y523713D01*
X1088796Y523770D01*
X1088774Y523828D01*
X1088628Y524122D01*
X1088487Y524418D01*
X1088455Y524471D01*
X1088427Y524527D01*
X1088252Y524804D01*
X1088081Y525084D01*
X1088043Y525134D01*
X1088010Y525187D01*
X1087807Y525444D01*
X1087609Y525706D01*
X1087566Y525751D01*
X1087527Y525801D01*
X1087299Y526037D01*
X1087076Y526276D01*
X1087029Y526316D01*
X1086985Y526362D01*
X1086733Y526574D01*
X1086487Y526788D01*
X1086436Y526824D01*
X1086388Y526864D01*
X1086116Y527049D01*
X1085849Y527237D01*
X1085794Y527268D01*
X1085743Y527303D01*
X1085454Y527459D01*
X1085168Y527619D01*
X1085096Y527652D01*
X1085056Y527674D01*
X1084970Y527709D01*
X1084702Y527831D01*
X1078961Y530209D01*
X1074531Y534639D01*
X1072133Y540427D01*
X1072133Y546693D01*
X1074531Y552481D01*
X1076153Y554103D01*
X1076184Y554137D01*
X1076218Y554169D01*
X1076445Y554427D01*
X1076676Y554683D01*
X1076703Y554720D01*
X1076734Y554754D01*
X1076934Y555035D01*
X1077137Y555312D01*
X1077160Y555352D01*
X1077187Y555390D01*
X1077357Y555689D01*
X1077531Y555986D01*
X1077550Y556028D01*
X1077573Y556068D01*
X1077711Y556383D01*
X1077854Y556697D01*
X1077869Y556740D01*
X1077887Y556782D01*
X1077993Y557109D01*
X1078103Y557436D01*
X1078113Y557481D01*
X1078127Y557525D01*
X1078198Y557860D01*
X1078274Y558198D01*
X1078280Y558244D01*
X1078289Y558288D01*
X1078326Y558629D01*
X1078367Y558973D01*
X1078368Y559019D01*
X1078373Y559064D01*
X1078374Y559409D01*
X1078380Y559753D01*
X1078376Y559799D01*
X1078376Y559845D01*
X1078343Y560188D01*
X1078313Y560531D01*
X1078305Y560576D01*
X1078300Y560622D01*
X1078232Y560959D01*
X1078167Y561297D01*
X1078154Y561341D01*
X1116412Y561341D01*
X1116353Y561125D01*
X1116345Y561080D01*
X1116333Y561035D01*
X1116281Y560695D01*
X1116225Y560355D01*
X1116222Y560310D01*
X1116215Y560264D01*
X1116197Y559919D01*
X1116176Y559576D01*
X1116178Y559530D01*
X1116175Y559484D01*
X1116193Y559141D01*
X1116207Y558796D01*
X1116214Y558751D01*
X1116216Y558705D01*
X1116269Y558366D01*
X1116318Y558024D01*
X1116329Y557979D01*
X1116336Y557934D01*
X1116423Y557602D01*
X1116507Y557267D01*
X1116523Y557223D01*
X1116534Y557179D01*
X1116655Y556858D01*
X1116773Y556533D01*
X1116793Y556491D01*
X1116809Y556448D01*
X1116962Y556141D01*
X1117112Y555830D01*
X1117136Y555791D01*
X1117157Y555750D01*
X1117341Y555460D01*
X1117522Y555166D01*
X1117550Y555129D01*
X1117574Y555090D01*
X1117788Y554820D01*
X1117997Y554547D01*
X1118029Y554513D01*
X1118057Y554477D01*
X1118407Y554103D01*
X1120029Y552481D01*
X1122427Y546693D01*
X1122427Y540427D01*
X1120029Y534639D01*
X1115599Y530209D01*
X1109858Y527831D01*
X1109562Y527690D01*
X1109264Y527554D01*
X1109210Y527523D01*
X1109153Y527496D01*
X1108873Y527325D01*
X1108590Y527160D01*
X1108540Y527123D01*
X1108487Y527090D01*
X1108225Y526892D01*
X1107961Y526698D01*
X1107914Y526656D01*
X1107865Y526619D01*
X1107625Y526395D01*
X1107382Y526175D01*
X1107340Y526128D01*
X1107294Y526086D01*
X1107079Y525838D01*
X1106859Y525595D01*
X1106823Y525545D01*
X1106782Y525497D01*
X1106592Y525229D01*
X1106399Y524965D01*
X1106368Y524911D01*
X1106332Y524860D01*
X1106171Y524574D01*
X1106006Y524291D01*
X1105980Y524234D01*
X1105949Y524179D01*
X1105819Y523878D01*
X1105683Y523580D01*
X1105663Y523521D01*
X1105638Y523463D01*
X1105539Y523150D01*
X1105435Y522840D01*
X1105422Y522779D01*
X1105403Y522719D01*
X1105336Y522397D01*
X1105264Y522078D01*
X1105257Y522017D01*
X1105244Y521955D01*
X1105211Y521628D01*
X1105172Y521303D01*
X1105169Y521225D01*
X1105165Y521179D01*
X1105165Y521085D01*
X1105155Y520792D01*
X1105155Y501354D01*
X1103956Y498459D01*
X1058561Y453064D01*
X1055666Y451865D01*
X984318Y451865D01*
X984315Y451865D01*
X984311Y451865D01*
X983926Y451845D01*
X983538Y451825D01*
X983535Y451825D01*
X983532Y451825D01*
X983165Y451767D01*
X982767Y451706D01*
X982764Y451705D01*
X982761Y451704D01*
X982394Y451608D01*
X982012Y451508D01*
X982009Y451507D01*
X982006Y451506D01*
X981639Y451368D01*
X981281Y451234D01*
X981278Y451233D01*
X981275Y451232D01*
X980920Y451055D01*
X980582Y450887D01*
X980580Y450885D01*
X980577Y450884D01*
X980245Y450674D01*
X979923Y450470D01*
X979920Y450468D01*
X979917Y450466D01*
X979608Y450222D01*
X979309Y449987D01*
X979307Y449985D01*
X979304Y449983D01*
X978930Y449634D01*
X975306Y446010D01*
X975304Y446007D01*
X975302Y446005D01*
X975041Y445716D01*
X974783Y445430D01*
X974782Y445428D01*
X974779Y445425D01*
X974558Y445122D01*
X974323Y444801D01*
X974321Y444798D01*
X974319Y444795D01*
X974128Y444468D01*
X973929Y444127D01*
X973927Y444124D01*
X973926Y444121D01*
X973767Y443771D01*
X973606Y443416D01*
X973605Y443413D01*
X973603Y443410D01*
X973482Y443050D01*
X973357Y442676D01*
X973356Y442673D01*
X973355Y442670D01*
X973269Y442288D01*
X973185Y441915D01*
X973185Y441912D01*
X973184Y441909D01*
X973141Y441543D01*
X973092Y441140D01*
X973092Y441137D01*
X973092Y441134D01*
X973075Y440622D01*
X973075Y417534D01*
X971876Y414639D01*
X957708Y400471D01*
X957707Y400471D01*
X957703Y400467D01*
X957703Y400466D01*
X954421Y397184D01*
X951526Y395985D01*
X851874Y395985D01*
X848979Y397184D01*
X845693Y400471D01*
X845692Y400471D01*
X819775Y426388D01*
X819678Y426476D01*
X819586Y426571D01*
X819388Y426738D01*
X819196Y426911D01*
X819090Y426989D01*
X818989Y427073D01*
X818775Y427219D01*
X818566Y427372D01*
X818453Y427438D01*
X818344Y427512D01*
X818116Y427635D01*
X817892Y427766D01*
X817773Y427820D01*
X817657Y427883D01*
X817418Y427982D01*
X817182Y428089D01*
X817057Y428131D01*
X816936Y428181D01*
X816688Y428255D01*
X816442Y428338D01*
X816314Y428367D01*
X816188Y428404D01*
X815933Y428452D01*
X815680Y428509D01*
X815550Y428525D01*
X815421Y428550D01*
X815163Y428571D01*
X814906Y428602D01*
X814774Y428605D01*
X814643Y428616D01*
X814384Y428611D01*
X814125Y428615D01*
X813995Y428604D01*
X813863Y428602D01*
X813606Y428571D01*
X813348Y428549D01*
X813219Y428524D01*
X813088Y428508D01*
X812836Y428451D01*
X812581Y428403D01*
X812455Y428365D01*
X812327Y428336D01*
X812082Y428253D01*
X811833Y428179D01*
X811712Y428129D01*
X811587Y428087D01*
X811352Y427979D01*
X811112Y427880D01*
X810997Y427818D01*
X810877Y427763D01*
X810654Y427632D01*
X810426Y427509D01*
X810317Y427435D01*
X810204Y427369D01*
X809995Y427216D01*
X809781Y427069D01*
X809680Y426985D01*
X809574Y426907D01*
X809382Y426733D01*
X809184Y426566D01*
X809093Y426472D01*
X808995Y426384D01*
X808822Y426191D01*
X808642Y426005D01*
X808561Y425901D01*
X808473Y425804D01*
X808321Y425595D01*
X808160Y425391D01*
X808090Y425279D01*
X808013Y425174D01*
X807882Y424950D01*
X807744Y424731D01*
X807685Y424613D01*
X807619Y424500D01*
X807512Y424263D01*
X807397Y424031D01*
X807351Y423909D01*
X807297Y423789D01*
X807214Y423543D01*
X807124Y423300D01*
X807090Y423173D01*
X807049Y423049D01*
X806992Y422796D01*
X806926Y422545D01*
X806906Y422415D01*
X806878Y422287D01*
X806847Y422030D01*
X806808Y421774D01*
X806801Y421643D01*
X806785Y421512D01*
X806768Y421001D01*
X806768Y416684D01*
X805518Y412016D01*
X803101Y407832D01*
X799684Y404415D01*
X795500Y401998D01*
X790832Y400748D01*
X786000Y400748D01*
X781332Y401998D01*
X779378Y403127D01*
X779337Y403148D01*
X779298Y403172D01*
X778989Y403326D01*
X778683Y403482D01*
X778640Y403499D01*
X778599Y403519D01*
X778276Y403640D01*
X777955Y403764D01*
X777911Y403776D01*
X777868Y403792D01*
X777533Y403880D01*
X777202Y403970D01*
X777157Y403978D01*
X777112Y403990D01*
X776771Y404042D01*
X776432Y404099D01*
X776387Y404101D01*
X776341Y404108D01*
X775997Y404126D01*
X775653Y404147D01*
X775607Y404145D01*
X775562Y404148D01*
X775217Y404130D01*
X774874Y404116D01*
X774828Y404110D01*
X774782Y404107D01*
X774441Y404054D01*
X774101Y404005D01*
X774056Y403994D01*
X774011Y403987D01*
X773678Y403899D01*
X773344Y403816D01*
X773301Y403800D01*
X773256Y403789D01*
X772934Y403667D01*
X772610Y403550D01*
X772569Y403530D01*
X772526Y403514D01*
X772218Y403361D01*
X771907Y403211D01*
X771868Y403187D01*
X771827Y403166D01*
X771536Y402982D01*
X771243Y402801D01*
X771206Y402773D01*
X771168Y402749D01*
X770895Y402534D01*
X770624Y402326D01*
X770591Y402294D01*
X770554Y402266D01*
X770180Y401916D01*
X769979Y401715D01*
X767645Y400748D01*
X741115Y400748D01*
X738781Y401715D01*
X736995Y403501D01*
X736028Y405835D01*
X736028Y432365D01*
X736995Y434699D01*
X738781Y436485D01*
X741115Y437452D01*
X767645Y437452D01*
X769979Y436485D01*
X770180Y436284D01*
X770214Y436253D01*
X770246Y436219D01*
X770504Y435992D01*
X770760Y435761D01*
X770797Y435734D01*
X770831Y435704D01*
X771112Y435503D01*
X771390Y435300D01*
X771429Y435277D01*
X771467Y435250D01*
X771768Y435079D01*
X772063Y434906D01*
X772105Y434887D01*
X772145Y434864D01*
X772461Y434725D01*
X772774Y434583D01*
X772817Y434568D01*
X772859Y434550D01*
X773186Y434444D01*
X773514Y434334D01*
X773559Y434324D01*
X773602Y434310D01*
X773939Y434238D01*
X774275Y434163D01*
X774320Y434157D01*
X774366Y434148D01*
X774708Y434111D01*
X775050Y434070D01*
X775096Y434069D01*
X775142Y434064D01*
X775485Y434063D01*
X775830Y434057D01*
X775876Y434061D01*
X775922Y434060D01*
X776264Y434094D01*
X776608Y434124D01*
X776653Y434132D01*
X776699Y434137D01*
X777036Y434205D01*
X777375Y434270D01*
X777419Y434283D01*
X777464Y434292D01*
X777792Y434394D01*
X778122Y434493D01*
X778165Y434511D01*
X778209Y434524D01*
X778525Y434660D01*
X778843Y434792D01*
X778884Y434814D01*
X778926Y434832D01*
X779378Y435073D01*
X781332Y436202D01*
X786000Y437452D01*
X790832Y437452D01*
X795500Y436202D01*
X798576Y434425D01*
X798848Y434287D01*
X799116Y434142D01*
X799196Y434109D01*
X799271Y434070D01*
X799555Y433960D01*
X799838Y433843D01*
X799920Y433819D01*
X799999Y433788D01*
X800293Y433708D01*
X800586Y433620D01*
X800669Y433604D01*
X800752Y433582D01*
X801053Y433532D01*
X801352Y433475D01*
X801437Y433468D01*
X801522Y433454D01*
X801826Y433435D01*
X802130Y433409D01*
X802215Y433410D01*
X802301Y433405D01*
X802606Y433417D01*
X802910Y433422D01*
X802995Y433433D01*
X803080Y433436D01*
X803382Y433479D01*
X803685Y433516D01*
X803768Y433535D01*
X803853Y433547D01*
X804149Y433621D01*
X804446Y433688D01*
X804528Y433716D01*
X804610Y433736D01*
X804897Y433840D01*
X805186Y433938D01*
X805264Y433973D01*
X805344Y434002D01*
X805618Y434135D01*
X805896Y434261D01*
X805970Y434304D01*
X806047Y434341D01*
X806306Y434501D01*
X806570Y434656D01*
X806638Y434706D01*
X806711Y434751D01*
X806953Y434937D01*
X807199Y435117D01*
X807262Y435174D01*
X807330Y435226D01*
X807552Y435436D01*
X807778Y435641D01*
X807835Y435704D01*
X807897Y435763D01*
X808096Y435993D01*
X808301Y436220D01*
X808351Y436289D01*
X808407Y436354D01*
X808581Y436605D01*
X808761Y436851D01*
X808804Y436924D01*
X808853Y436994D01*
X809001Y437262D01*
X809154Y437525D01*
X809190Y437602D01*
X809231Y437677D01*
X809351Y437958D01*
X809477Y438235D01*
X809504Y438316D01*
X809537Y438395D01*
X809628Y438686D01*
X809725Y438975D01*
X809743Y439058D01*
X809769Y439140D01*
X809829Y439440D01*
X809896Y439737D01*
X809906Y439822D01*
X809923Y439905D01*
X809952Y440209D01*
X809988Y440512D01*
X809992Y440621D01*
X809998Y440682D01*
X809997Y440778D01*
X810005Y441024D01*
X810005Y486342D01*
X810005Y486345D01*
X810005Y486349D01*
X809985Y486734D01*
X809965Y487122D01*
X809965Y487125D01*
X809965Y487128D01*
X809907Y487495D01*
X809846Y487893D01*
X809845Y487896D01*
X809844Y487899D01*
X809748Y488266D01*
X809648Y488648D01*
X809647Y488651D01*
X809646Y488654D01*
X809510Y489017D01*
X809374Y489379D01*
X809373Y489382D01*
X809372Y489385D01*
X809195Y489740D01*
X809027Y490078D01*
X809025Y490080D01*
X809024Y490083D01*
X808814Y490415D01*
X808610Y490737D01*
X808608Y490740D01*
X808606Y490743D01*
X808365Y491048D01*
X808127Y491351D01*
X808125Y491353D01*
X808123Y491356D01*
X807774Y491730D01*
X778750Y520754D01*
X778747Y520756D01*
X778745Y520758D01*
X778462Y521014D01*
X778170Y521277D01*
X778168Y521278D01*
X778165Y521281D01*
X777862Y521502D01*
X777541Y521737D01*
X777538Y521739D01*
X777535Y521741D01*
X777208Y521932D01*
X776867Y522131D01*
X776864Y522133D01*
X776861Y522134D01*
X776511Y522293D01*
X776156Y522454D01*
X776153Y522455D01*
X776150Y522457D01*
X775792Y522577D01*
X775416Y522703D01*
X775413Y522704D01*
X775410Y522705D01*
X775049Y522786D01*
X774655Y522875D01*
X774652Y522875D01*
X774649Y522876D01*
X774283Y522919D01*
X773880Y522968D01*
X773877Y522968D01*
X773874Y522968D01*
X773362Y522985D01*
X715507Y522985D01*
X715439Y522982D01*
X715370Y522984D01*
X715050Y522962D01*
X714728Y522945D01*
X714660Y522935D01*
X714591Y522930D01*
X714275Y522875D01*
X713957Y522826D01*
X713890Y522808D01*
X713822Y522797D01*
X713513Y522710D01*
X713202Y522628D01*
X713137Y522604D01*
X713071Y522585D01*
X712592Y522405D01*
X708166Y520572D01*
X704074Y520572D01*
X700146Y522199D01*
X699960Y522265D01*
X699778Y522340D01*
X699593Y522396D01*
X699410Y522461D01*
X699219Y522507D01*
X699030Y522563D01*
X698840Y522600D01*
X698652Y522645D01*
X698457Y522672D01*
X698264Y522709D01*
X698071Y522725D01*
X697879Y522752D01*
X697682Y522758D01*
X697486Y522775D01*
X697293Y522772D01*
X697099Y522778D01*
X696902Y522765D01*
X696706Y522761D01*
X696514Y522738D01*
X696320Y522725D01*
X696126Y522691D01*
X695931Y522668D01*
X695742Y522625D01*
X695551Y522592D01*
X695362Y522539D01*
X695170Y522495D01*
X694986Y522434D01*
X694800Y522381D01*
X694616Y522309D01*
X694430Y522246D01*
X694254Y522166D01*
X694074Y522095D01*
X693899Y522004D01*
X693720Y521923D01*
X693552Y521824D01*
X693381Y521735D01*
X693216Y521628D01*
X693046Y521528D01*
X692890Y521413D01*
X692728Y521307D01*
X692576Y521183D01*
X692417Y521067D01*
X692273Y520937D01*
X692123Y520814D01*
X691984Y520675D01*
X691838Y520543D01*
X691708Y520399D01*
X691571Y520262D01*
X691447Y520109D01*
X691315Y519963D01*
X691201Y519807D01*
X691079Y519657D01*
X690971Y519492D01*
X690855Y519333D01*
X690758Y519166D01*
X690651Y519004D01*
X690561Y518829D01*
X690462Y518659D01*
X690382Y518482D01*
X690293Y518311D01*
X690221Y518128D01*
X690139Y517948D01*
X690078Y517764D01*
X690007Y517584D01*
X689954Y517395D01*
X689891Y517208D01*
X689849Y517019D01*
X689797Y516833D01*
X689763Y516639D01*
X689720Y516447D01*
X689697Y516254D01*
X689665Y516064D01*
X689651Y515867D01*
X689628Y515672D01*
X689618Y515378D01*
X689612Y515285D01*
X689613Y515239D01*
X689611Y515160D01*
X689611Y333196D01*
X688312Y328351D01*
X685804Y324007D01*
X657250Y295452D01*
X657249Y295452D01*
X652993Y291196D01*
X648649Y288688D01*
X643804Y287389D01*
X483532Y287389D01*
X478687Y288688D01*
X474343Y291196D01*
X470087Y295452D01*
X470086Y295452D01*
X469896Y295643D01*
X467388Y299987D01*
X466089Y304832D01*
X466089Y309848D01*
X467370Y314628D01*
X467389Y314714D01*
X467414Y314800D01*
X467470Y315096D01*
X467533Y315391D01*
X467543Y315479D01*
X467559Y315566D01*
X467585Y315867D01*
X467617Y316167D01*
X467618Y316256D01*
X467625Y316344D01*
X467620Y316646D01*
X467622Y316948D01*
X467613Y317036D01*
X467612Y317124D01*
X467575Y317424D01*
X467546Y317724D01*
X467529Y317811D01*
X467518Y317899D01*
X467451Y318194D01*
X467392Y318489D01*
X467365Y318574D01*
X467346Y318660D01*
X467249Y318946D01*
X467160Y319235D01*
X467125Y319316D01*
X467097Y319400D01*
X466971Y319675D01*
X466853Y319952D01*
X466810Y320029D01*
X466773Y320110D01*
X466620Y320371D01*
X466474Y320635D01*
X466423Y320707D01*
X466378Y320784D01*
X466200Y321027D01*
X466027Y321275D01*
X465969Y321342D01*
X465917Y321413D01*
X465715Y321637D01*
X465517Y321866D01*
X465453Y321926D01*
X465394Y321992D01*
X465169Y322194D01*
X464950Y322401D01*
X464879Y322455D01*
X464814Y322515D01*
X464571Y322692D01*
X464330Y322876D01*
X464255Y322923D01*
X464183Y322975D01*
X463923Y323127D01*
X463666Y323285D01*
X463586Y323324D01*
X463509Y323368D01*
X463234Y323493D01*
X462963Y323624D01*
X462879Y323654D01*
X462799Y323691D01*
X462513Y323787D01*
X462229Y323889D01*
X462143Y323911D01*
X462059Y323939D01*
X461765Y324005D01*
X461471Y324078D01*
X461383Y324090D01*
X461297Y324110D01*
X460998Y324145D01*
X460699Y324188D01*
X460610Y324192D01*
X460522Y324202D01*
X460010Y324219D01*
X386499Y324219D01*
X382581Y325842D01*
X379582Y328841D01*
X377959Y332759D01*
X377959Y412959D01*
X377956Y413024D01*
X377958Y413090D01*
X377936Y413414D01*
X377919Y413738D01*
X377909Y413803D01*
X377905Y413869D01*
X377850Y414188D01*
X377800Y414510D01*
X377783Y414573D01*
X377772Y414638D01*
X377684Y414950D01*
X377602Y415265D01*
X377579Y415326D01*
X377561Y415389D01*
X377442Y415691D01*
X377328Y415995D01*
X377299Y416054D01*
X377275Y416115D01*
X377125Y416404D01*
X376981Y416694D01*
X376946Y416750D01*
X376915Y416808D01*
X376737Y417080D01*
X376564Y417354D01*
X376523Y417406D01*
X376487Y417461D01*
X376282Y417713D01*
X376081Y417968D01*
X376036Y418015D01*
X375994Y418066D01*
X375765Y418295D01*
X375539Y418529D01*
X375489Y418571D01*
X375442Y418617D01*
X375190Y418822D01*
X374942Y419031D01*
X374887Y419068D01*
X374837Y419110D01*
X374565Y419287D01*
X374297Y419470D01*
X374239Y419501D01*
X374184Y419537D01*
X373895Y419687D01*
X373610Y419841D01*
X373549Y419866D01*
X373491Y419896D01*
X373188Y420015D01*
X372888Y420139D01*
X372825Y420158D01*
X372764Y420182D01*
X372452Y420269D01*
X372141Y420362D01*
X372076Y420375D01*
X372013Y420392D01*
X371693Y420447D01*
X371374Y420508D01*
X371308Y420513D01*
X371243Y420524D01*
X370919Y420546D01*
X370596Y420574D01*
X370530Y420573D01*
X370465Y420577D01*
X370140Y420566D01*
X369816Y420560D01*
X369751Y420552D01*
X369685Y420550D01*
X369363Y420505D01*
X369041Y420466D01*
X368977Y420452D01*
X368912Y420443D01*
X368596Y420366D01*
X368280Y420294D01*
X368217Y420273D01*
X368154Y420258D01*
X367847Y420148D01*
X367540Y420045D01*
X367480Y420018D01*
X367418Y419996D01*
X367125Y419856D01*
X366830Y419721D01*
X366773Y419688D01*
X366714Y419660D01*
X366437Y419491D01*
X366156Y419327D01*
X366103Y419288D01*
X366047Y419254D01*
X365789Y419057D01*
X365527Y418865D01*
X365478Y418821D01*
X365426Y418781D01*
X365189Y418560D01*
X364948Y418342D01*
X364904Y418293D01*
X364856Y418248D01*
X364642Y418003D01*
X364426Y417762D01*
X364387Y417709D01*
X364344Y417659D01*
X364156Y417393D01*
X363965Y417132D01*
X363932Y417075D01*
X363894Y417021D01*
X363735Y416738D01*
X363572Y416458D01*
X363545Y416398D01*
X363512Y416341D01*
X363301Y415874D01*
X362856Y414801D01*
X362828Y414721D01*
X362792Y414642D01*
X362697Y414352D01*
X362595Y414066D01*
X362575Y413983D01*
X362548Y413901D01*
X362429Y413403D01*
X361975Y411171D01*
X361975Y411167D01*
X361973Y411161D01*
X361575Y409190D01*
X360450Y407522D01*
X360448Y407518D01*
X360445Y407513D01*
X358547Y404691D01*
X358469Y404584D01*
X358339Y404390D01*
X358327Y404370D01*
X358304Y404338D01*
X357204Y402677D01*
X355543Y401577D01*
X355523Y401562D01*
X355490Y401541D01*
X355297Y401411D01*
X355238Y401367D01*
X355176Y401328D01*
X355143Y401302D01*
X352374Y399440D01*
X352370Y399438D01*
X352365Y399435D01*
X350691Y398306D01*
X348722Y397908D01*
X348718Y397907D01*
X348712Y397906D01*
X346477Y397452D01*
X346394Y397431D01*
X346310Y397416D01*
X346017Y397334D01*
X345722Y397258D01*
X345641Y397228D01*
X345558Y397205D01*
X345079Y397025D01*
X344820Y396917D01*
X344575Y396917D01*
X344463Y396912D01*
X344350Y396914D01*
X344073Y396892D01*
X343796Y396877D01*
X343685Y396860D01*
X343572Y396851D01*
X343067Y396767D01*
X342828Y396718D01*
X342537Y396775D01*
X342447Y396788D01*
X342359Y396808D01*
X342062Y396843D01*
X341765Y396886D01*
X341674Y396889D01*
X341584Y396900D01*
X341072Y396917D01*
X324524Y396917D01*
X324433Y396913D01*
X324343Y396915D01*
X324044Y396893D01*
X323745Y396877D01*
X323655Y396864D01*
X323564Y396857D01*
X323059Y396775D01*
X322768Y396718D01*
X322529Y396767D01*
X322417Y396783D01*
X322307Y396808D01*
X322031Y396841D01*
X321757Y396882D01*
X321644Y396887D01*
X321532Y396900D01*
X321021Y396917D01*
X320776Y396917D01*
X320517Y397025D01*
X320436Y397053D01*
X320358Y397089D01*
X320069Y397184D01*
X319781Y397286D01*
X319698Y397306D01*
X319617Y397333D01*
X319119Y397452D01*
X316883Y397906D01*
X316880Y397907D01*
X316874Y397908D01*
X314905Y398306D01*
X313230Y399435D01*
X313227Y399437D01*
X313222Y399441D01*
X310408Y401333D01*
X310299Y401411D01*
X310106Y401542D01*
X310085Y401554D01*
X310053Y401577D01*
X308392Y402677D01*
X307292Y404338D01*
X307277Y404358D01*
X307256Y404391D01*
X307126Y404584D01*
X307085Y404639D01*
X307049Y404696D01*
X307021Y404732D01*
X305151Y407514D01*
X305148Y407517D01*
X305145Y407522D01*
X304021Y409190D01*
X303623Y411162D01*
X303622Y411165D01*
X303621Y411171D01*
X303167Y413403D01*
X303146Y413486D01*
X303131Y413571D01*
X303049Y413864D01*
X302973Y414159D01*
X302943Y414240D01*
X302920Y414322D01*
X302740Y414801D01*
X302632Y415061D01*
X302632Y415306D01*
X302627Y415418D01*
X302629Y415531D01*
X302607Y415808D01*
X302592Y416085D01*
X302575Y416196D01*
X302566Y416308D01*
X302482Y416813D01*
X302433Y417053D01*
X302490Y417344D01*
X302503Y417434D01*
X302523Y417522D01*
X302558Y417820D01*
X302601Y418117D01*
X302604Y418207D01*
X302615Y418297D01*
X302632Y418809D01*
X302632Y529742D01*
X302614Y530091D01*
X302600Y530442D01*
X302594Y530482D01*
X302592Y530521D01*
X302539Y530867D01*
X302488Y531215D01*
X302477Y531262D01*
X302473Y531292D01*
X302452Y531370D01*
X302373Y531713D01*
X301533Y534849D01*
X301478Y535017D01*
X301433Y535189D01*
X301358Y535388D01*
X301292Y535591D01*
X301221Y535753D01*
X301158Y535919D01*
X301063Y536110D01*
X300977Y536305D01*
X300890Y536459D01*
X300811Y536618D01*
X300696Y536798D01*
X300591Y536983D01*
X300488Y537128D01*
X300393Y537277D01*
X300261Y537445D01*
X300137Y537618D01*
X300020Y537751D01*
X299910Y537890D01*
X299676Y538141D01*
X299621Y538204D01*
X299597Y538226D01*
X299561Y538264D01*
X298979Y538846D01*
X298848Y538964D01*
X298723Y539090D01*
X298558Y539226D01*
X298400Y539368D01*
X298257Y539473D01*
X298120Y539585D01*
X297943Y539703D01*
X297770Y539829D01*
X297617Y539919D01*
X297470Y540017D01*
X297281Y540116D01*
X297096Y540223D01*
X296935Y540297D01*
X296778Y540379D01*
X296580Y540458D01*
X296386Y540546D01*
X296218Y540603D01*
X296054Y540669D01*
X295725Y540769D01*
X295646Y540795D01*
X295614Y540802D01*
X295564Y540818D01*
X294770Y541030D01*
X294597Y541067D01*
X294426Y541114D01*
X294216Y541149D01*
X294007Y541193D01*
X293831Y541212D01*
X293656Y541241D01*
X293443Y541255D01*
X293231Y541278D01*
X293054Y541279D01*
X292877Y541289D01*
X292664Y541281D01*
X292450Y541282D01*
X292274Y541265D01*
X292097Y541258D01*
X291886Y541227D01*
X291674Y541206D01*
X291500Y541171D01*
X291325Y541146D01*
X290990Y541068D01*
X290909Y541052D01*
X290877Y541042D01*
X290826Y541030D01*
X290032Y540818D01*
X289864Y540763D01*
X289692Y540718D01*
X289492Y540643D01*
X289290Y540577D01*
X289128Y540506D01*
X288962Y540443D01*
X288771Y540348D01*
X288576Y540262D01*
X288422Y540175D01*
X288263Y540096D01*
X288083Y539981D01*
X287898Y539876D01*
X287754Y539773D01*
X287604Y539678D01*
X287436Y539546D01*
X287263Y539422D01*
X287130Y539305D01*
X286991Y539195D01*
X286739Y538960D01*
X286677Y538906D01*
X286655Y538882D01*
X286617Y538846D01*
X286035Y538264D01*
X285917Y538133D01*
X285791Y538008D01*
X285655Y537843D01*
X285513Y537685D01*
X285408Y537542D01*
X285296Y537405D01*
X285178Y537227D01*
X285052Y537055D01*
X284962Y536902D01*
X284864Y536755D01*
X284765Y536566D01*
X284658Y536381D01*
X284584Y536220D01*
X284502Y536063D01*
X284423Y535866D01*
X284335Y535671D01*
X284278Y535503D01*
X284212Y535339D01*
X284112Y535010D01*
X284086Y534931D01*
X284079Y534899D01*
X284063Y534849D01*
X283223Y531713D01*
X283149Y531368D01*
X283073Y531028D01*
X283068Y530989D01*
X283060Y530950D01*
X283022Y530602D01*
X282981Y530253D01*
X282979Y530204D01*
X282976Y530174D01*
X282976Y530094D01*
X282964Y529742D01*
X282964Y353531D01*
X282965Y353511D01*
X282964Y353492D01*
X282985Y353122D01*
X283004Y352751D01*
X283007Y352732D01*
X283008Y352712D01*
X283066Y352348D01*
X283123Y351980D01*
X283128Y351961D01*
X283131Y351942D01*
X283227Y351585D01*
X283321Y351225D01*
X283328Y351207D01*
X283333Y351188D01*
X283465Y350841D01*
X283595Y350494D01*
X283604Y350477D01*
X283611Y350458D01*
X283778Y350127D01*
X283942Y349795D01*
X283953Y349779D01*
X283962Y349761D01*
X284160Y349450D01*
X284359Y349136D01*
X284371Y349120D01*
X284382Y349104D01*
X284693Y348697D01*
X285101Y348201D01*
X285169Y348126D01*
X285232Y348046D01*
X285432Y347837D01*
X285626Y347624D01*
X285702Y347556D01*
X285772Y347483D01*
X286157Y347145D01*
X286366Y346973D01*
X286493Y346735D01*
X286546Y346648D01*
X286592Y346557D01*
X286747Y346313D01*
X286896Y346066D01*
X286957Y345985D01*
X287012Y345899D01*
X287323Y345493D01*
X288784Y343713D01*
X288852Y343638D01*
X288915Y343558D01*
X289115Y343349D01*
X289309Y343136D01*
X289385Y343068D01*
X289455Y342995D01*
X289840Y342657D01*
X290049Y342485D01*
X290176Y342247D01*
X290229Y342160D01*
X290275Y342069D01*
X290430Y341825D01*
X290579Y341578D01*
X290640Y341497D01*
X290695Y341411D01*
X291006Y341005D01*
X291178Y340796D01*
X291256Y340537D01*
X291291Y340441D01*
X291318Y340343D01*
X291423Y340074D01*
X291521Y339803D01*
X291565Y339711D01*
X291602Y339616D01*
X291828Y339157D01*
X291955Y338918D01*
X291982Y338649D01*
X291997Y338549D01*
X292005Y338448D01*
X292055Y338163D01*
X292098Y337878D01*
X292123Y337779D01*
X292141Y337679D01*
X292273Y337184D01*
X292352Y336926D01*
X292325Y336657D01*
X292321Y336555D01*
X292308Y336454D01*
X292302Y336166D01*
X292289Y335877D01*
X292294Y335775D01*
X292292Y335674D01*
X292325Y335163D01*
X292551Y332872D01*
X292566Y332771D01*
X292574Y332670D01*
X292624Y332385D01*
X292667Y332100D01*
X292692Y332002D01*
X292710Y331901D01*
X292842Y331407D01*
X292921Y331148D01*
X292894Y330879D01*
X292889Y330777D01*
X292877Y330676D01*
X292871Y330388D01*
X292858Y330099D01*
X292863Y329998D01*
X292861Y329896D01*
X292894Y329385D01*
X292921Y329116D01*
X292842Y328857D01*
X292818Y328759D01*
X292786Y328662D01*
X292724Y328380D01*
X292654Y328100D01*
X292640Y327999D01*
X292618Y327900D01*
X292551Y327392D01*
X292524Y327123D01*
X292397Y326885D01*
X292354Y326793D01*
X292304Y326704D01*
X292188Y326440D01*
X292065Y326179D01*
X292031Y326083D01*
X291990Y325990D01*
X291825Y325505D01*
X291747Y325246D01*
X291575Y325037D01*
X291515Y324955D01*
X291448Y324878D01*
X291283Y324641D01*
X291112Y324409D01*
X291060Y324322D01*
X291002Y324238D01*
X290745Y323795D01*
X289660Y321765D01*
X289617Y321673D01*
X289567Y321584D01*
X289451Y321320D01*
X289328Y321058D01*
X289294Y320962D01*
X289253Y320869D01*
X289088Y320385D01*
X289010Y320126D01*
X288838Y319917D01*
X288778Y319835D01*
X288712Y319758D01*
X288547Y319522D01*
X288375Y319289D01*
X288323Y319201D01*
X288265Y319118D01*
X288009Y318675D01*
X287881Y318436D01*
X287672Y318265D01*
X287597Y318197D01*
X287517Y318134D01*
X287308Y317934D01*
X287095Y317740D01*
X287027Y317664D01*
X286954Y317593D01*
X286616Y317209D01*
X286445Y317000D01*
X286206Y316872D01*
X286119Y316820D01*
X286028Y316774D01*
X285785Y316619D01*
X285537Y316470D01*
X285456Y316408D01*
X285371Y316354D01*
X284964Y316042D01*
X284755Y315871D01*
X284496Y315792D01*
X284401Y315758D01*
X284303Y315731D01*
X284034Y315626D01*
X283762Y315528D01*
X283670Y315484D01*
X283576Y315447D01*
X283116Y315221D01*
X281086Y314135D01*
X280999Y314083D01*
X280908Y314037D01*
X280665Y313882D01*
X280417Y313733D01*
X280336Y313672D01*
X280250Y313617D01*
X279844Y313306D01*
X279635Y313134D01*
X279376Y313056D01*
X279281Y313021D01*
X279182Y312994D01*
X278913Y312889D01*
X278642Y312791D01*
X278550Y312747D01*
X278456Y312710D01*
X277996Y312484D01*
X277758Y312357D01*
X277489Y312330D01*
X277388Y312315D01*
X277287Y312307D01*
X277002Y312257D01*
X276717Y312214D01*
X276619Y312189D01*
X276518Y312171D01*
X276024Y312039D01*
X275765Y311960D01*
X275496Y311987D01*
X275394Y311991D01*
X275293Y312004D01*
X275005Y312010D01*
X274716Y312023D01*
X274615Y312018D01*
X274513Y312020D01*
X274002Y311987D01*
X273733Y311960D01*
X273474Y312039D01*
X273376Y312063D01*
X273279Y312095D01*
X272997Y312157D01*
X272717Y312227D01*
X272616Y312241D01*
X272517Y312263D01*
X272009Y312330D01*
X269718Y312556D01*
X269616Y312561D01*
X269515Y312573D01*
X269227Y312579D01*
X268938Y312592D01*
X268836Y312587D01*
X268735Y312589D01*
X268224Y312556D01*
X267955Y312529D01*
X267696Y312608D01*
X267598Y312632D01*
X267501Y312664D01*
X267219Y312726D01*
X266939Y312796D01*
X266838Y312810D01*
X266739Y312832D01*
X266231Y312899D01*
X265962Y312926D01*
X265724Y313053D01*
X265632Y313096D01*
X265543Y313147D01*
X265279Y313262D01*
X265017Y313385D01*
X264922Y313419D01*
X264828Y313460D01*
X264344Y313625D01*
X264085Y313703D01*
X263876Y313875D01*
X263794Y313935D01*
X263717Y314002D01*
X263481Y314167D01*
X263248Y314338D01*
X263161Y314390D01*
X263077Y314448D01*
X262634Y314705D01*
X262396Y314832D01*
X262224Y315041D01*
X262156Y315116D01*
X262093Y315196D01*
X261893Y315404D01*
X261699Y315618D01*
X261623Y315686D01*
X261553Y315759D01*
X261168Y316097D01*
X259388Y317558D01*
X259306Y317618D01*
X259229Y317685D01*
X258993Y317850D01*
X258761Y318021D01*
X258673Y318073D01*
X258589Y318132D01*
X258146Y318388D01*
X257908Y318515D01*
X257736Y318725D01*
X257668Y318800D01*
X257605Y318880D01*
X257405Y319088D01*
X257211Y319302D01*
X257135Y319369D01*
X257065Y319443D01*
X256680Y319781D01*
X256184Y320188D01*
X256168Y320200D01*
X256154Y320213D01*
X255856Y320430D01*
X255556Y320651D01*
X255539Y320661D01*
X255523Y320673D01*
X255203Y320860D01*
X254884Y321048D01*
X254866Y321056D01*
X254849Y321066D01*
X254511Y321220D01*
X254175Y321374D01*
X254156Y321381D01*
X254138Y321389D01*
X253787Y321507D01*
X253436Y321626D01*
X253417Y321631D01*
X253398Y321637D01*
X253037Y321718D01*
X252676Y321801D01*
X252656Y321804D01*
X252637Y321808D01*
X252272Y321851D01*
X251901Y321897D01*
X251881Y321898D01*
X251862Y321900D01*
X251350Y321917D01*
X190583Y321917D01*
X190321Y321904D01*
X190059Y321899D01*
X189932Y321884D01*
X189804Y321877D01*
X189544Y321837D01*
X189284Y321806D01*
X189159Y321778D01*
X189032Y321758D01*
X188778Y321691D01*
X188523Y321633D01*
X188401Y321593D01*
X188277Y321560D01*
X188031Y321468D01*
X187783Y321384D01*
X187666Y321331D01*
X187546Y321286D01*
X187312Y321169D01*
X187073Y321061D01*
X186962Y320996D01*
X186848Y320939D01*
X186626Y320799D01*
X186399Y320666D01*
X186296Y320590D01*
X186188Y320522D01*
X185981Y320360D01*
X185770Y320205D01*
X185675Y320119D01*
X185574Y320040D01*
X185385Y319857D01*
X185191Y319681D01*
X185105Y319586D01*
X185013Y319497D01*
X184844Y319296D01*
X184668Y319101D01*
X184593Y318998D01*
X184510Y318900D01*
X184363Y318683D01*
X184208Y318471D01*
X184144Y318361D01*
X184072Y318255D01*
X183947Y318024D01*
X183815Y317797D01*
X183762Y317680D01*
X183701Y317568D01*
X183601Y317325D01*
X183492Y317086D01*
X183452Y316965D01*
X183403Y316847D01*
X183327Y316595D01*
X183244Y316346D01*
X183216Y316222D01*
X183180Y316099D01*
X183131Y315840D01*
X183073Y315585D01*
X183058Y315458D01*
X183034Y315332D01*
X183012Y315070D01*
X182981Y314810D01*
X182975Y314638D01*
X182968Y314554D01*
X182970Y314470D01*
X182964Y314298D01*
X182964Y244826D01*
X182967Y244761D01*
X182965Y244695D01*
X182987Y244372D01*
X183004Y244047D01*
X183014Y243982D01*
X183018Y243917D01*
X183073Y243597D01*
X183123Y243276D01*
X183140Y243212D01*
X183151Y243148D01*
X183239Y242834D01*
X183321Y242521D01*
X183344Y242459D01*
X183362Y242396D01*
X183481Y242094D01*
X183595Y241790D01*
X183624Y241731D01*
X183648Y241670D01*
X183798Y241382D01*
X183942Y241091D01*
X183977Y241036D01*
X184008Y240977D01*
X184186Y240705D01*
X184359Y240431D01*
X184400Y240380D01*
X184436Y240325D01*
X184641Y240073D01*
X184842Y239818D01*
X184887Y239770D01*
X184929Y239720D01*
X185158Y239490D01*
X185384Y239257D01*
X185434Y239214D01*
X185481Y239168D01*
X185732Y238963D01*
X185981Y238754D01*
X186035Y238717D01*
X186086Y238676D01*
X186357Y238498D01*
X186626Y238315D01*
X186684Y238284D01*
X186739Y238248D01*
X187027Y238099D01*
X187313Y237944D01*
X187374Y237919D01*
X187432Y237889D01*
X187734Y237770D01*
X188035Y237646D01*
X188097Y237627D01*
X188159Y237603D01*
X188471Y237516D01*
X188782Y237423D01*
X188847Y237411D01*
X188910Y237393D01*
X189231Y237338D01*
X189549Y237278D01*
X189615Y237272D01*
X189679Y237261D01*
X190004Y237239D01*
X190327Y237212D01*
X190393Y237213D01*
X190458Y237208D01*
X190783Y237220D01*
X191107Y237225D01*
X191173Y237233D01*
X191238Y237235D01*
X191560Y237280D01*
X191882Y237319D01*
X191946Y237333D01*
X192011Y237342D01*
X192327Y237419D01*
X192643Y237491D01*
X192706Y237512D01*
X192769Y237528D01*
X193075Y237637D01*
X193383Y237740D01*
X193443Y237768D01*
X193505Y237790D01*
X193797Y237929D01*
X194093Y238064D01*
X194150Y238097D01*
X194209Y238125D01*
X194486Y238294D01*
X194767Y238459D01*
X194820Y238497D01*
X194876Y238532D01*
X195134Y238728D01*
X195396Y238920D01*
X195445Y238964D01*
X195497Y239004D01*
X195734Y239225D01*
X195975Y239443D01*
X196019Y239492D01*
X196067Y239537D01*
X196280Y239782D01*
X196497Y240023D01*
X196536Y240076D01*
X196579Y240126D01*
X196766Y240391D01*
X196958Y240653D01*
X196991Y240710D01*
X197029Y240764D01*
X197187Y241046D01*
X197351Y241327D01*
X197379Y241388D01*
X197411Y241445D01*
X197622Y241911D01*
X198238Y243396D01*
X198319Y243625D01*
X198409Y243850D01*
X198469Y244046D01*
X198499Y244132D01*
X198517Y244204D01*
X198558Y244340D01*
X198792Y245214D01*
X198986Y245490D01*
X199006Y245524D01*
X199028Y245557D01*
X199196Y245863D01*
X199368Y246170D01*
X199388Y246215D01*
X199403Y246241D01*
X199433Y246314D01*
X199436Y246320D01*
X200063Y246947D01*
X200226Y247127D01*
X200395Y247301D01*
X200525Y247459D01*
X200586Y247526D01*
X200630Y247587D01*
X200720Y247696D01*
X201271Y248414D01*
X201556Y248594D01*
X201587Y248619D01*
X201620Y248640D01*
X201892Y248859D01*
X202169Y249077D01*
X202205Y249111D01*
X202228Y249130D01*
X202285Y249186D01*
X202543Y249427D01*
X205454Y252338D01*
X205690Y252599D01*
X205927Y252856D01*
X205950Y252888D01*
X205977Y252917D01*
X206184Y253201D01*
X206394Y253481D01*
X206420Y253523D01*
X206438Y253547D01*
X206478Y253617D01*
X206481Y253621D01*
X207185Y254161D01*
X207369Y254318D01*
X207560Y254468D01*
X207710Y254608D01*
X207779Y254667D01*
X207830Y254721D01*
X207934Y254818D01*
X208574Y255458D01*
X208880Y255599D01*
X208914Y255620D01*
X208949Y255637D01*
X209249Y255819D01*
X209551Y255998D01*
X209590Y256026D01*
X209616Y256042D01*
X209680Y256091D01*
X209684Y256093D01*
X210541Y256323D01*
X210772Y256398D01*
X211005Y256463D01*
X211196Y256535D01*
X211283Y256563D01*
X211352Y256593D01*
X211485Y256643D01*
X212321Y256990D01*
X212657Y257003D01*
X212696Y257009D01*
X212736Y257011D01*
X213084Y257065D01*
X213430Y257115D01*
X213477Y257126D01*
X213507Y257131D01*
X213585Y257151D01*
X213929Y257231D01*
X217905Y258296D01*
X218240Y258405D01*
X218574Y258509D01*
X218610Y258524D01*
X218648Y258537D01*
X218970Y258679D01*
X219291Y258817D01*
X219334Y258839D01*
X219362Y258852D01*
X219432Y258892D01*
X219436Y258894D01*
X220315Y259010D01*
X220554Y259054D01*
X220794Y259088D01*
X220993Y259134D01*
X221083Y259151D01*
X221154Y259172D01*
X221293Y259204D01*
X222167Y259438D01*
X222503Y259408D01*
X222542Y259408D01*
X222581Y259405D01*
X222930Y259413D01*
X223283Y259418D01*
X223332Y259422D01*
X223362Y259423D01*
X223441Y259433D01*
X223447Y259434D01*
X224303Y259204D01*
X224540Y259153D01*
X224776Y259093D01*
X224977Y259060D01*
X225066Y259041D01*
X225140Y259033D01*
X225281Y259010D01*
X226178Y258892D01*
X226476Y258735D01*
X226513Y258720D01*
X226548Y258702D01*
X226876Y258575D01*
X227201Y258445D01*
X227248Y258431D01*
X227276Y258420D01*
X227353Y258399D01*
X227691Y258296D01*
X231667Y257231D01*
X232011Y257157D01*
X232353Y257081D01*
X232392Y257076D01*
X232431Y257068D01*
X232780Y257030D01*
X233128Y256988D01*
X233176Y256987D01*
X233207Y256983D01*
X233287Y256983D01*
X233292Y256983D01*
X234111Y256643D01*
X234340Y256562D01*
X234565Y256472D01*
X234761Y256412D01*
X234847Y256382D01*
X234919Y256364D01*
X235055Y256323D01*
X235929Y256089D01*
X236205Y255895D01*
X236239Y255875D01*
X236272Y255853D01*
X236578Y255685D01*
X236885Y255513D01*
X236930Y255493D01*
X236956Y255478D01*
X237029Y255448D01*
X237035Y255445D01*
X237662Y254818D01*
X237842Y254655D01*
X238016Y254486D01*
X238174Y254356D01*
X238241Y254295D01*
X238302Y254251D01*
X238411Y254161D01*
X239129Y253610D01*
X239309Y253325D01*
X239334Y253294D01*
X239355Y253261D01*
X239574Y252989D01*
X239792Y252712D01*
X239826Y252676D01*
X239845Y252653D01*
X239901Y252596D01*
X240142Y252338D01*
X243053Y249427D01*
X243314Y249191D01*
X243571Y248954D01*
X243603Y248931D01*
X243632Y248904D01*
X243916Y248697D01*
X244196Y248487D01*
X244238Y248461D01*
X244262Y248443D01*
X244332Y248403D01*
X244336Y248400D01*
X244876Y247696D01*
X245033Y247512D01*
X245183Y247321D01*
X245323Y247171D01*
X245382Y247102D01*
X245436Y247051D01*
X245533Y246947D01*
X246173Y246307D01*
X246314Y246001D01*
X246335Y245967D01*
X246352Y245932D01*
X246534Y245632D01*
X246713Y245330D01*
X246741Y245291D01*
X246757Y245265D01*
X246806Y245201D01*
X246808Y245197D01*
X247038Y244340D01*
X247113Y244109D01*
X247178Y243876D01*
X247250Y243684D01*
X247278Y243598D01*
X247308Y243529D01*
X247358Y243396D01*
X247705Y242560D01*
X247718Y242224D01*
X247724Y242185D01*
X247726Y242145D01*
X247780Y241796D01*
X247830Y241451D01*
X247841Y241404D01*
X247846Y241374D01*
X247866Y241296D01*
X247946Y240952D01*
X249011Y236976D01*
X249119Y236642D01*
X249224Y236307D01*
X249239Y236271D01*
X249252Y236233D01*
X249393Y235912D01*
X249532Y235590D01*
X249555Y235547D01*
X249567Y235519D01*
X249606Y235450D01*
X249609Y235445D01*
X249725Y234566D01*
X249769Y234327D01*
X249803Y234087D01*
X249850Y233887D01*
X249866Y233798D01*
X249887Y233727D01*
X249919Y233588D01*
X250153Y232714D01*
X250123Y232378D01*
X250123Y232339D01*
X250120Y232300D01*
X250128Y231951D01*
X250133Y231598D01*
X250137Y231549D01*
X250138Y231519D01*
X250148Y231440D01*
X250149Y231435D01*
X249919Y230578D01*
X249868Y230340D01*
X249808Y230105D01*
X249775Y229904D01*
X249756Y229815D01*
X249748Y229741D01*
X249725Y229600D01*
X249607Y228703D01*
X249450Y228405D01*
X249435Y228368D01*
X249417Y228333D01*
X249291Y228006D01*
X249160Y227680D01*
X249146Y227633D01*
X249135Y227605D01*
X249114Y227528D01*
X249011Y227190D01*
X247946Y223214D01*
X247872Y222870D01*
X247796Y222528D01*
X247791Y222489D01*
X247783Y222450D01*
X247745Y222101D01*
X247703Y221753D01*
X247702Y221705D01*
X247698Y221674D01*
X247698Y221594D01*
X247698Y221589D01*
X247358Y220770D01*
X247277Y220541D01*
X247187Y220316D01*
X247127Y220120D01*
X247097Y220034D01*
X247079Y219962D01*
X247038Y219826D01*
X246804Y218952D01*
X246610Y218676D01*
X246590Y218642D01*
X246568Y218610D01*
X246400Y218302D01*
X246228Y217996D01*
X246208Y217951D01*
X246193Y217925D01*
X246162Y217851D01*
X246160Y217846D01*
X245533Y217219D01*
X245370Y217039D01*
X245201Y216865D01*
X245071Y216707D01*
X245010Y216640D01*
X244966Y216580D01*
X244876Y216470D01*
X244325Y215752D01*
X244040Y215572D01*
X244009Y215547D01*
X243976Y215526D01*
X243704Y215307D01*
X243427Y215089D01*
X243391Y215055D01*
X243368Y215036D01*
X243311Y214980D01*
X243053Y214739D01*
X240142Y211828D01*
X239906Y211567D01*
X239669Y211310D01*
X239646Y211278D01*
X239619Y211249D01*
X239412Y210965D01*
X239202Y210685D01*
X239176Y210643D01*
X239158Y210619D01*
X239118Y210549D01*
X239115Y210545D01*
X238411Y210005D01*
X238227Y209848D01*
X238036Y209698D01*
X237886Y209558D01*
X237817Y209499D01*
X237766Y209445D01*
X237662Y209348D01*
X237022Y208708D01*
X236716Y208567D01*
X236682Y208547D01*
X236647Y208530D01*
X236347Y208347D01*
X236045Y208168D01*
X236006Y208140D01*
X235980Y208124D01*
X235916Y208076D01*
X235912Y208073D01*
X235055Y207843D01*
X234824Y207768D01*
X234591Y207703D01*
X234400Y207631D01*
X234313Y207603D01*
X234244Y207573D01*
X234111Y207523D01*
X232626Y206907D01*
X232566Y206879D01*
X232505Y206856D01*
X232214Y206711D01*
X231921Y206572D01*
X231865Y206538D01*
X231806Y206509D01*
X231532Y206335D01*
X231254Y206166D01*
X231202Y206127D01*
X231146Y206092D01*
X230891Y205891D01*
X230632Y205695D01*
X230584Y205650D01*
X230533Y205609D01*
X230299Y205384D01*
X230062Y205162D01*
X230019Y205113D01*
X229972Y205067D01*
X229763Y204819D01*
X229549Y204574D01*
X229511Y204520D01*
X229469Y204470D01*
X229286Y204201D01*
X229099Y203936D01*
X229067Y203879D01*
X229030Y203824D01*
X228875Y203538D01*
X228717Y203256D01*
X228691Y203195D01*
X228659Y203138D01*
X228535Y202837D01*
X228406Y202540D01*
X228386Y202477D01*
X228361Y202416D01*
X228268Y202103D01*
X228170Y201796D01*
X228157Y201732D01*
X228138Y201668D01*
X228077Y201349D01*
X228012Y201031D01*
X228005Y200966D01*
X227993Y200902D01*
X227965Y200578D01*
X227932Y200255D01*
X227932Y200189D01*
X227927Y200124D01*
X227932Y199799D01*
X227932Y199475D01*
X227939Y199409D01*
X227940Y199344D01*
X227979Y199021D01*
X228013Y198698D01*
X228026Y198634D01*
X228034Y198569D01*
X228105Y198253D01*
X228172Y197934D01*
X228192Y197871D01*
X228206Y197808D01*
X228310Y197500D01*
X228408Y197190D01*
X228434Y197130D01*
X228455Y197068D01*
X228590Y196773D01*
X228720Y196475D01*
X228752Y196417D01*
X228779Y196358D01*
X228943Y196077D01*
X229103Y195795D01*
X229140Y195741D01*
X229174Y195684D01*
X229366Y195422D01*
X229553Y195157D01*
X229596Y195108D01*
X229635Y195055D01*
X229853Y194814D01*
X230066Y194569D01*
X230114Y194525D01*
X230158Y194476D01*
X230399Y194259D01*
X230637Y194037D01*
X230690Y193997D01*
X230738Y193953D01*
X231000Y193762D01*
X231259Y193566D01*
X231316Y193532D01*
X231368Y193493D01*
X231648Y193330D01*
X231927Y193161D01*
X231986Y193133D01*
X232042Y193100D01*
X232338Y192965D01*
X232632Y192826D01*
X232693Y192804D01*
X232753Y192777D01*
X233062Y192674D01*
X233367Y192566D01*
X233431Y192550D01*
X233493Y192529D01*
X233810Y192458D01*
X234126Y192381D01*
X234191Y192373D01*
X234255Y192358D01*
X234576Y192320D01*
X234899Y192276D01*
X234965Y192274D01*
X235030Y192266D01*
X235541Y192249D01*
X264655Y192249D01*
X264786Y192255D01*
G37*
%LPC*%
G36*
X783084Y208279D02*
X783084Y208279D01*
X773394Y210876D01*
X764706Y215892D01*
X763096Y217501D01*
X762974Y217612D01*
X762859Y217728D01*
X762685Y217872D01*
X762517Y218024D01*
X762384Y218121D01*
X762258Y218226D01*
X762070Y218351D01*
X761887Y218485D01*
X761745Y218568D01*
X761608Y218659D01*
X761409Y218765D01*
X761213Y218879D01*
X761063Y218947D01*
X760918Y219024D01*
X760709Y219108D01*
X760503Y219202D01*
X760347Y219254D01*
X760195Y219316D01*
X759977Y219379D01*
X759763Y219451D01*
X759602Y219487D01*
X759445Y219532D01*
X759222Y219573D01*
X759001Y219622D01*
X758838Y219642D01*
X758677Y219671D01*
X758452Y219688D01*
X758227Y219715D01*
X758062Y219718D01*
X757898Y219731D01*
X757672Y219725D01*
X757446Y219728D01*
X757282Y219714D01*
X757118Y219710D01*
X756894Y219681D01*
X756669Y219662D01*
X756507Y219631D01*
X756344Y219610D01*
X756124Y219558D01*
X755902Y219516D01*
X755744Y219469D01*
X755585Y219431D01*
X755371Y219357D01*
X755154Y219292D01*
X755002Y219229D01*
X754847Y219175D01*
X754642Y219080D01*
X754433Y218993D01*
X754288Y218915D01*
X754140Y218845D01*
X753946Y218730D01*
X753747Y218622D01*
X753611Y218529D01*
X753470Y218445D01*
X753289Y218310D01*
X753102Y218182D01*
X752976Y218077D01*
X752844Y217978D01*
X752678Y217825D01*
X752505Y217679D01*
X752391Y217561D01*
X752270Y217450D01*
X752120Y217281D01*
X751963Y217118D01*
X751861Y216988D01*
X751753Y216866D01*
X751621Y216682D01*
X751481Y216504D01*
X751393Y216365D01*
X751298Y216231D01*
X751185Y216035D01*
X751065Y215844D01*
X750992Y215697D01*
X750910Y215554D01*
X750818Y215347D01*
X750718Y215144D01*
X750661Y214991D01*
X750594Y214840D01*
X750524Y214625D01*
X750445Y214413D01*
X750403Y214254D01*
X750352Y214098D01*
X750316Y213945D01*
X750102Y213427D01*
X749824Y213010D01*
X749470Y212656D01*
X749053Y212378D01*
X748591Y212187D01*
X748100Y212089D01*
X727529Y212089D01*
X727529Y242570D01*
X727516Y242832D01*
X727511Y243094D01*
X727496Y243221D01*
X727489Y243349D01*
X727449Y243609D01*
X727418Y243869D01*
X727389Y243994D01*
X727370Y244121D01*
X727303Y244375D01*
X727245Y244630D01*
X727204Y244752D01*
X727172Y244876D01*
X727080Y245121D01*
X726996Y245370D01*
X726943Y245486D01*
X726898Y245606D01*
X726781Y245841D01*
X726673Y246080D01*
X726608Y246191D01*
X726551Y246305D01*
X726502Y246383D01*
X726546Y246465D01*
X726678Y246691D01*
X726731Y246808D01*
X726792Y246921D01*
X726892Y247163D01*
X727001Y247402D01*
X727041Y247523D01*
X727090Y247642D01*
X727166Y247893D01*
X727249Y248142D01*
X727277Y248267D01*
X727313Y248390D01*
X727362Y248648D01*
X727420Y248903D01*
X727435Y249031D01*
X727459Y249157D01*
X727481Y249418D01*
X727512Y249678D01*
X727518Y249850D01*
X727525Y249934D01*
X727523Y250018D01*
X727529Y250190D01*
X727529Y280671D01*
X748100Y280671D01*
X748591Y280573D01*
X749053Y280382D01*
X749470Y280104D01*
X749824Y279750D01*
X750102Y279333D01*
X750308Y278836D01*
X750371Y278623D01*
X750427Y278403D01*
X750483Y278249D01*
X750530Y278092D01*
X750617Y277883D01*
X750695Y277670D01*
X750766Y277522D01*
X750829Y277371D01*
X750937Y277172D01*
X751036Y276968D01*
X751122Y276829D01*
X751200Y276684D01*
X751328Y276497D01*
X751447Y276305D01*
X751548Y276175D01*
X751640Y276039D01*
X751786Y275866D01*
X751924Y275687D01*
X752037Y275568D01*
X752143Y275443D01*
X752306Y275286D01*
X752462Y275121D01*
X752587Y275014D01*
X752704Y274901D01*
X752883Y274761D01*
X753055Y274614D01*
X753189Y274520D01*
X753319Y274419D01*
X753510Y274298D01*
X753696Y274169D01*
X753840Y274090D01*
X753979Y274002D01*
X754181Y273902D01*
X754380Y273793D01*
X754531Y273729D01*
X754678Y273656D01*
X754890Y273576D01*
X755098Y273488D01*
X755255Y273440D01*
X755409Y273382D01*
X755628Y273325D01*
X755844Y273259D01*
X756006Y273227D01*
X756164Y273185D01*
X756387Y273151D01*
X756610Y273107D01*
X756773Y273091D01*
X756935Y273066D01*
X757162Y273055D01*
X757387Y273034D01*
X757551Y273035D01*
X757715Y273027D01*
X757941Y273039D01*
X758167Y273041D01*
X758330Y273059D01*
X758494Y273068D01*
X758718Y273103D01*
X758943Y273128D01*
X759103Y273163D01*
X759265Y273188D01*
X759484Y273245D01*
X759706Y273294D01*
X759862Y273345D01*
X760020Y273386D01*
X760232Y273466D01*
X760448Y273536D01*
X760597Y273603D01*
X760751Y273661D01*
X760954Y273762D01*
X761160Y273854D01*
X761303Y273936D01*
X761450Y274009D01*
X761641Y274130D01*
X761837Y274243D01*
X761970Y274339D01*
X762109Y274426D01*
X762287Y274566D01*
X762471Y274699D01*
X762594Y274808D01*
X762722Y274909D01*
X763002Y275171D01*
X763054Y275217D01*
X763070Y275234D01*
X763096Y275259D01*
X764706Y276868D01*
X773394Y281884D01*
X783084Y284481D01*
X793116Y284481D01*
X802806Y281884D01*
X811494Y276868D01*
X818588Y269774D01*
X823604Y261086D01*
X826201Y251396D01*
X826201Y241364D01*
X823604Y231674D01*
X818588Y222986D01*
X811494Y215892D01*
X802806Y210876D01*
X793116Y208279D01*
X783084Y208279D01*
G37*
%LPD*%
%LPC*%
G36*
X752334Y817752D02*
X752334Y817752D01*
X748553Y819318D01*
X745658Y822213D01*
X744092Y825994D01*
X744092Y830086D01*
X745658Y833867D01*
X748553Y836762D01*
X752334Y838328D01*
X756426Y838328D01*
X760852Y836495D01*
X760916Y836472D01*
X760979Y836443D01*
X761284Y836341D01*
X761587Y836233D01*
X761654Y836217D01*
X761719Y836195D01*
X762032Y836125D01*
X762345Y836049D01*
X762414Y836039D01*
X762481Y836024D01*
X762799Y835986D01*
X763118Y835942D01*
X763187Y835940D01*
X763256Y835932D01*
X763767Y835915D01*
X879613Y835915D01*
X879681Y835918D01*
X879750Y835916D01*
X880070Y835938D01*
X880392Y835955D01*
X880460Y835965D01*
X880529Y835970D01*
X880845Y836025D01*
X881163Y836074D01*
X881230Y836092D01*
X881298Y836103D01*
X881607Y836190D01*
X881918Y836272D01*
X881983Y836296D01*
X882049Y836315D01*
X882528Y836495D01*
X886954Y838328D01*
X891046Y838328D01*
X894827Y836762D01*
X897722Y833867D01*
X899288Y830086D01*
X899288Y825994D01*
X897722Y822213D01*
X894827Y819318D01*
X891046Y817752D01*
X886954Y817752D01*
X882528Y819585D01*
X882464Y819608D01*
X882401Y819637D01*
X882096Y819739D01*
X881793Y819847D01*
X881726Y819863D01*
X881661Y819885D01*
X881348Y819955D01*
X881035Y820031D01*
X880966Y820041D01*
X880899Y820056D01*
X880581Y820094D01*
X880262Y820138D01*
X880193Y820140D01*
X880124Y820148D01*
X879613Y820165D01*
X763767Y820165D01*
X763699Y820162D01*
X763630Y820164D01*
X763310Y820142D01*
X762988Y820125D01*
X762920Y820115D01*
X762851Y820110D01*
X762535Y820055D01*
X762217Y820006D01*
X762150Y819988D01*
X762082Y819977D01*
X761773Y819890D01*
X761462Y819808D01*
X761397Y819784D01*
X761331Y819765D01*
X760852Y819585D01*
X756426Y817752D01*
X752334Y817752D01*
G37*
%LPD*%
%LPC*%
G36*
X1078148Y576579D02*
X1078148Y576579D01*
X1078207Y576795D01*
X1078215Y576840D01*
X1078227Y576885D01*
X1078279Y577225D01*
X1078335Y577565D01*
X1078338Y577610D01*
X1078345Y577656D01*
X1078363Y578001D01*
X1078384Y578344D01*
X1078382Y578390D01*
X1078385Y578436D01*
X1078367Y578779D01*
X1078353Y579124D01*
X1078346Y579169D01*
X1078344Y579215D01*
X1078291Y579554D01*
X1078242Y579896D01*
X1078231Y579941D01*
X1078224Y579986D01*
X1078137Y580318D01*
X1078053Y580653D01*
X1078037Y580697D01*
X1078026Y580741D01*
X1077905Y581062D01*
X1077787Y581387D01*
X1077767Y581429D01*
X1077751Y581472D01*
X1077598Y581779D01*
X1077448Y582090D01*
X1077424Y582129D01*
X1077403Y582170D01*
X1077219Y582460D01*
X1077038Y582754D01*
X1077010Y582791D01*
X1076986Y582830D01*
X1076772Y583100D01*
X1076563Y583373D01*
X1076531Y583407D01*
X1076503Y583443D01*
X1076153Y583817D01*
X1074531Y585439D01*
X1072133Y591227D01*
X1072133Y597493D01*
X1074531Y603281D01*
X1078961Y607711D01*
X1084749Y610109D01*
X1109811Y610109D01*
X1115599Y607711D01*
X1120029Y603281D01*
X1122427Y597493D01*
X1122427Y591227D01*
X1120029Y585439D01*
X1118407Y583817D01*
X1118376Y583783D01*
X1118342Y583751D01*
X1118115Y583493D01*
X1117884Y583237D01*
X1117857Y583200D01*
X1117826Y583166D01*
X1117626Y582885D01*
X1117423Y582608D01*
X1117400Y582568D01*
X1117373Y582530D01*
X1117203Y582231D01*
X1117029Y581934D01*
X1117010Y581892D01*
X1116987Y581852D01*
X1116849Y581537D01*
X1116706Y581223D01*
X1116691Y581180D01*
X1116673Y581138D01*
X1116567Y580811D01*
X1116457Y580484D01*
X1116447Y580439D01*
X1116433Y580395D01*
X1116362Y580058D01*
X1116286Y579722D01*
X1116280Y579676D01*
X1116271Y579632D01*
X1116234Y579291D01*
X1116193Y578947D01*
X1116192Y578901D01*
X1116187Y578856D01*
X1116186Y578511D01*
X1116180Y578167D01*
X1116184Y578121D01*
X1116184Y578075D01*
X1116217Y577732D01*
X1116247Y577389D01*
X1116255Y577344D01*
X1116260Y577298D01*
X1116328Y576961D01*
X1116393Y576623D01*
X1116406Y576579D01*
X1078148Y576579D01*
G37*
%LPD*%
%LPC*%
G36*
X681809Y257809D02*
X681809Y257809D01*
X681809Y278380D01*
X681907Y278871D01*
X682098Y279333D01*
X682376Y279750D01*
X682730Y280104D01*
X683147Y280382D01*
X683609Y280573D01*
X684100Y280671D01*
X704671Y280671D01*
X704671Y257809D01*
X681809Y257809D01*
G37*
%LPD*%
%LPC*%
G36*
X684100Y212089D02*
X684100Y212089D01*
X683609Y212187D01*
X683147Y212378D01*
X682730Y212656D01*
X682376Y213010D01*
X682098Y213427D01*
X681907Y213889D01*
X681809Y214380D01*
X681809Y234951D01*
X704671Y234951D01*
X704671Y212089D01*
X684100Y212089D01*
G37*
%LPD*%
%LPC*%
G36*
X886674Y218579D02*
X886674Y218579D01*
X887153Y219575D01*
X888216Y221265D01*
X889461Y222827D01*
X890873Y224239D01*
X892435Y225484D01*
X894125Y226547D01*
X895925Y227413D01*
X897810Y228073D01*
X899757Y228517D01*
X901741Y228741D01*
X910361Y228741D01*
X910361Y218579D01*
X886674Y218579D01*
G37*
%LPD*%
%LPC*%
G36*
X539979Y937119D02*
X539979Y937119D01*
X539979Y947281D01*
X563666Y947281D01*
X563187Y946285D01*
X562124Y944595D01*
X560879Y943033D01*
X559467Y941621D01*
X557905Y940376D01*
X556215Y939313D01*
X554415Y938447D01*
X552530Y937787D01*
X550583Y937343D01*
X548599Y937119D01*
X539979Y937119D01*
G37*
%LPD*%
%LPC*%
G36*
X999719Y937119D02*
X999719Y937119D01*
X999719Y947281D01*
X1023406Y947281D01*
X1022927Y946285D01*
X1021864Y944595D01*
X1020619Y943033D01*
X1019207Y941621D01*
X1017645Y940376D01*
X1015955Y939313D01*
X1014155Y938447D01*
X1012270Y937787D01*
X1010323Y937343D01*
X1008339Y937119D01*
X999719Y937119D01*
G37*
%LPD*%
D10*
X465100Y954900D02*
X434620Y954900D01*
X517120Y954900D02*
X547600Y954900D01*
X985240Y210960D02*
X1015720Y210960D01*
X933220Y210960D02*
X902740Y210960D01*
D11*
X322580Y232410D03*
X1122680Y232410D03*
X1122680Y932180D03*
X322580Y932180D03*
D12*
X716100Y246380D03*
D13*
X788100Y246380D03*
D14*
X1087882Y543560D02*
X1106678Y543560D01*
X1106678Y568960D02*
X1087882Y568960D01*
X1087882Y594360D02*
X1106678Y594360D01*
D10*
X924840Y954900D02*
X894360Y954900D01*
X976860Y954900D02*
X1007340Y954900D01*
D15*
X754380Y419100D03*
D16*
X788416Y419100D03*
X788416Y553720D03*
X754380Y553720D03*
D17*
X532360Y915440D02*
X532360Y954900D01*
X532360Y915440D02*
X533400Y914400D01*
X505460Y886460D01*
X368300Y886460D02*
X322580Y932180D01*
X368300Y886460D02*
X505460Y886460D01*
X992100Y948920D02*
X992100Y954900D01*
X992100Y948920D02*
X916940Y873760D01*
X916940Y840740D01*
D18*
X916940Y840740D03*
D17*
X916940Y444500D01*
X929640Y431800D01*
D18*
X929640Y431800D03*
D19*
X508000Y810260D03*
X508000Y784860D03*
X508000Y759460D03*
X213360Y881380D03*
X236220Y881380D03*
X213360Y858520D03*
X236220Y858520D03*
X510540Y254000D03*
X510540Y231140D03*
X510540Y208280D03*
X716280Y347980D03*
X739140Y347980D03*
X739140Y325120D03*
X716280Y325120D03*
X863600Y299720D03*
X889000Y299720D03*
X914400Y299720D03*
X1000760Y434340D03*
X1026160Y434340D03*
X1051560Y434340D03*
X1000760Y408940D03*
X1026160Y408940D03*
X1051560Y408940D03*
X1000760Y383540D03*
X1026160Y383540D03*
X1051560Y383540D03*
X586740Y947420D03*
X604520Y960120D03*
X624840Y965200D03*
X995680Y904240D03*
X1018540Y904240D03*
X995680Y881380D03*
X1018540Y881380D03*
X891540Y647700D03*
X891540Y624840D03*
X891540Y601980D03*
X891540Y579120D03*
X1087120Y688340D03*
X1064260Y688340D03*
X1041400Y688340D03*
D20*
X1097280Y543560D02*
X1097280Y502920D01*
X1054100Y459740D02*
X977900Y459740D01*
X965200Y447040D01*
X965200Y419100D01*
X949960Y403860D01*
X853440Y403860D02*
X817880Y439420D01*
X817880Y492760D01*
X779780Y530860D01*
X706120Y530860D01*
D19*
X706120Y530860D03*
D20*
X1054100Y459740D02*
X1097280Y502920D01*
X949960Y403860D02*
X853440Y403860D01*
D21*
X1153160Y678180D03*
D22*
X985520Y850900D02*
X970280Y866140D01*
D21*
X970280Y866140D03*
D22*
X1153160Y800100D02*
X1153160Y678180D01*
X1153160Y800100D02*
X1102360Y850900D01*
X985520Y850900D01*
X1153160Y678180D02*
X1153160Y490220D01*
X1127760Y464820D02*
X1122680Y464820D01*
D21*
X1122680Y464820D03*
D22*
X1127760Y464820D02*
X1153160Y490220D01*
D18*
X670560Y726440D03*
D17*
X641296Y306440D02*
X486040Y306440D01*
X670560Y335704D02*
X670560Y726440D01*
X670560Y335704D02*
X641296Y306440D01*
D18*
X485140Y307340D03*
D17*
X486040Y306440D01*
D19*
X754380Y828040D03*
D20*
X889000Y828040D01*
D19*
X889000Y828040D03*
M02*
