G04 EAGLE Gerber RS-274X export*
G75*
%MOMM*%
%FSLAX34Y34*%
%LPD*%
%INSilkscreen Bottom*%
%IPPOS*%
%AMOC8*
5,1,8,0,0,1.08239X$1,22.5*%
G01*
%ADD10C,2.000000*%
%ADD11C,0.203200*%
%ADD12C,0.254000*%


D10*
X252580Y232410D02*
X252601Y234128D01*
X252664Y235845D01*
X252770Y237560D01*
X252917Y239271D01*
X253106Y240979D01*
X253338Y242681D01*
X253611Y244377D01*
X253925Y246066D01*
X254281Y247747D01*
X254678Y249419D01*
X255116Y251080D01*
X255594Y252730D01*
X256113Y254368D01*
X256672Y255992D01*
X257271Y257603D01*
X257908Y259198D01*
X258585Y260777D01*
X259301Y262339D01*
X260054Y263883D01*
X260846Y265408D01*
X261674Y266913D01*
X262539Y268397D01*
X263440Y269860D01*
X264377Y271300D01*
X265349Y272717D01*
X266355Y274109D01*
X267396Y275476D01*
X268469Y276818D01*
X269575Y278132D01*
X270713Y279419D01*
X271883Y280678D01*
X273083Y281907D01*
X274312Y283107D01*
X275571Y284277D01*
X276858Y285415D01*
X278172Y286521D01*
X279514Y287594D01*
X280881Y288635D01*
X282273Y289641D01*
X283690Y290613D01*
X285130Y291550D01*
X286593Y292451D01*
X288077Y293316D01*
X289582Y294144D01*
X291107Y294936D01*
X292651Y295689D01*
X294213Y296405D01*
X295792Y297082D01*
X297387Y297719D01*
X298998Y298318D01*
X300622Y298877D01*
X302260Y299396D01*
X303910Y299874D01*
X305571Y300312D01*
X307243Y300709D01*
X308924Y301065D01*
X310613Y301379D01*
X312309Y301652D01*
X314011Y301884D01*
X315719Y302073D01*
X317430Y302220D01*
X319145Y302326D01*
X320862Y302389D01*
X322580Y302410D01*
X324298Y302389D01*
X326015Y302326D01*
X327730Y302220D01*
X329441Y302073D01*
X331149Y301884D01*
X332851Y301652D01*
X334547Y301379D01*
X336236Y301065D01*
X337917Y300709D01*
X339589Y300312D01*
X341250Y299874D01*
X342900Y299396D01*
X344538Y298877D01*
X346162Y298318D01*
X347773Y297719D01*
X349368Y297082D01*
X350947Y296405D01*
X352509Y295689D01*
X354053Y294936D01*
X355578Y294144D01*
X357083Y293316D01*
X358567Y292451D01*
X360030Y291550D01*
X361470Y290613D01*
X362887Y289641D01*
X364279Y288635D01*
X365646Y287594D01*
X366988Y286521D01*
X368302Y285415D01*
X369589Y284277D01*
X370848Y283107D01*
X372077Y281907D01*
X373277Y280678D01*
X374447Y279419D01*
X375585Y278132D01*
X376691Y276818D01*
X377764Y275476D01*
X378805Y274109D01*
X379811Y272717D01*
X380783Y271300D01*
X381720Y269860D01*
X382621Y268397D01*
X383486Y266913D01*
X384314Y265408D01*
X385106Y263883D01*
X385859Y262339D01*
X386575Y260777D01*
X387252Y259198D01*
X387889Y257603D01*
X388488Y255992D01*
X389047Y254368D01*
X389566Y252730D01*
X390044Y251080D01*
X390482Y249419D01*
X390879Y247747D01*
X391235Y246066D01*
X391549Y244377D01*
X391822Y242681D01*
X392054Y240979D01*
X392243Y239271D01*
X392390Y237560D01*
X392496Y235845D01*
X392559Y234128D01*
X392580Y232410D01*
X392559Y230692D01*
X392496Y228975D01*
X392390Y227260D01*
X392243Y225549D01*
X392054Y223841D01*
X391822Y222139D01*
X391549Y220443D01*
X391235Y218754D01*
X390879Y217073D01*
X390482Y215401D01*
X390044Y213740D01*
X389566Y212090D01*
X389047Y210452D01*
X388488Y208828D01*
X387889Y207217D01*
X387252Y205622D01*
X386575Y204043D01*
X385859Y202481D01*
X385106Y200937D01*
X384314Y199412D01*
X383486Y197907D01*
X382621Y196423D01*
X381720Y194960D01*
X380783Y193520D01*
X379811Y192103D01*
X378805Y190711D01*
X377764Y189344D01*
X376691Y188002D01*
X375585Y186688D01*
X374447Y185401D01*
X373277Y184142D01*
X372077Y182913D01*
X370848Y181713D01*
X369589Y180543D01*
X368302Y179405D01*
X366988Y178299D01*
X365646Y177226D01*
X364279Y176185D01*
X362887Y175179D01*
X361470Y174207D01*
X360030Y173270D01*
X358567Y172369D01*
X357083Y171504D01*
X355578Y170676D01*
X354053Y169884D01*
X352509Y169131D01*
X350947Y168415D01*
X349368Y167738D01*
X347773Y167101D01*
X346162Y166502D01*
X344538Y165943D01*
X342900Y165424D01*
X341250Y164946D01*
X339589Y164508D01*
X337917Y164111D01*
X336236Y163755D01*
X334547Y163441D01*
X332851Y163168D01*
X331149Y162936D01*
X329441Y162747D01*
X327730Y162600D01*
X326015Y162494D01*
X324298Y162431D01*
X322580Y162410D01*
X320862Y162431D01*
X319145Y162494D01*
X317430Y162600D01*
X315719Y162747D01*
X314011Y162936D01*
X312309Y163168D01*
X310613Y163441D01*
X308924Y163755D01*
X307243Y164111D01*
X305571Y164508D01*
X303910Y164946D01*
X302260Y165424D01*
X300622Y165943D01*
X298998Y166502D01*
X297387Y167101D01*
X295792Y167738D01*
X294213Y168415D01*
X292651Y169131D01*
X291107Y169884D01*
X289582Y170676D01*
X288077Y171504D01*
X286593Y172369D01*
X285130Y173270D01*
X283690Y174207D01*
X282273Y175179D01*
X280881Y176185D01*
X279514Y177226D01*
X278172Y178299D01*
X276858Y179405D01*
X275571Y180543D01*
X274312Y181713D01*
X273083Y182913D01*
X271883Y184142D01*
X270713Y185401D01*
X269575Y186688D01*
X268469Y188002D01*
X267396Y189344D01*
X266355Y190711D01*
X265349Y192103D01*
X264377Y193520D01*
X263440Y194960D01*
X262539Y196423D01*
X261674Y197907D01*
X260846Y199412D01*
X260054Y200937D01*
X259301Y202481D01*
X258585Y204043D01*
X257908Y205622D01*
X257271Y207217D01*
X256672Y208828D01*
X256113Y210452D01*
X255594Y212090D01*
X255116Y213740D01*
X254678Y215401D01*
X254281Y217073D01*
X253925Y218754D01*
X253611Y220443D01*
X253338Y222139D01*
X253106Y223841D01*
X252917Y225549D01*
X252770Y227260D01*
X252664Y228975D01*
X252601Y230692D01*
X252580Y232410D01*
X1052680Y232410D02*
X1052701Y234128D01*
X1052764Y235845D01*
X1052870Y237560D01*
X1053017Y239271D01*
X1053206Y240979D01*
X1053438Y242681D01*
X1053711Y244377D01*
X1054025Y246066D01*
X1054381Y247747D01*
X1054778Y249419D01*
X1055216Y251080D01*
X1055694Y252730D01*
X1056213Y254368D01*
X1056772Y255992D01*
X1057371Y257603D01*
X1058008Y259198D01*
X1058685Y260777D01*
X1059401Y262339D01*
X1060154Y263883D01*
X1060946Y265408D01*
X1061774Y266913D01*
X1062639Y268397D01*
X1063540Y269860D01*
X1064477Y271300D01*
X1065449Y272717D01*
X1066455Y274109D01*
X1067496Y275476D01*
X1068569Y276818D01*
X1069675Y278132D01*
X1070813Y279419D01*
X1071983Y280678D01*
X1073183Y281907D01*
X1074412Y283107D01*
X1075671Y284277D01*
X1076958Y285415D01*
X1078272Y286521D01*
X1079614Y287594D01*
X1080981Y288635D01*
X1082373Y289641D01*
X1083790Y290613D01*
X1085230Y291550D01*
X1086693Y292451D01*
X1088177Y293316D01*
X1089682Y294144D01*
X1091207Y294936D01*
X1092751Y295689D01*
X1094313Y296405D01*
X1095892Y297082D01*
X1097487Y297719D01*
X1099098Y298318D01*
X1100722Y298877D01*
X1102360Y299396D01*
X1104010Y299874D01*
X1105671Y300312D01*
X1107343Y300709D01*
X1109024Y301065D01*
X1110713Y301379D01*
X1112409Y301652D01*
X1114111Y301884D01*
X1115819Y302073D01*
X1117530Y302220D01*
X1119245Y302326D01*
X1120962Y302389D01*
X1122680Y302410D01*
X1124398Y302389D01*
X1126115Y302326D01*
X1127830Y302220D01*
X1129541Y302073D01*
X1131249Y301884D01*
X1132951Y301652D01*
X1134647Y301379D01*
X1136336Y301065D01*
X1138017Y300709D01*
X1139689Y300312D01*
X1141350Y299874D01*
X1143000Y299396D01*
X1144638Y298877D01*
X1146262Y298318D01*
X1147873Y297719D01*
X1149468Y297082D01*
X1151047Y296405D01*
X1152609Y295689D01*
X1154153Y294936D01*
X1155678Y294144D01*
X1157183Y293316D01*
X1158667Y292451D01*
X1160130Y291550D01*
X1161570Y290613D01*
X1162987Y289641D01*
X1164379Y288635D01*
X1165746Y287594D01*
X1167088Y286521D01*
X1168402Y285415D01*
X1169689Y284277D01*
X1170948Y283107D01*
X1172177Y281907D01*
X1173377Y280678D01*
X1174547Y279419D01*
X1175685Y278132D01*
X1176791Y276818D01*
X1177864Y275476D01*
X1178905Y274109D01*
X1179911Y272717D01*
X1180883Y271300D01*
X1181820Y269860D01*
X1182721Y268397D01*
X1183586Y266913D01*
X1184414Y265408D01*
X1185206Y263883D01*
X1185959Y262339D01*
X1186675Y260777D01*
X1187352Y259198D01*
X1187989Y257603D01*
X1188588Y255992D01*
X1189147Y254368D01*
X1189666Y252730D01*
X1190144Y251080D01*
X1190582Y249419D01*
X1190979Y247747D01*
X1191335Y246066D01*
X1191649Y244377D01*
X1191922Y242681D01*
X1192154Y240979D01*
X1192343Y239271D01*
X1192490Y237560D01*
X1192596Y235845D01*
X1192659Y234128D01*
X1192680Y232410D01*
X1192659Y230692D01*
X1192596Y228975D01*
X1192490Y227260D01*
X1192343Y225549D01*
X1192154Y223841D01*
X1191922Y222139D01*
X1191649Y220443D01*
X1191335Y218754D01*
X1190979Y217073D01*
X1190582Y215401D01*
X1190144Y213740D01*
X1189666Y212090D01*
X1189147Y210452D01*
X1188588Y208828D01*
X1187989Y207217D01*
X1187352Y205622D01*
X1186675Y204043D01*
X1185959Y202481D01*
X1185206Y200937D01*
X1184414Y199412D01*
X1183586Y197907D01*
X1182721Y196423D01*
X1181820Y194960D01*
X1180883Y193520D01*
X1179911Y192103D01*
X1178905Y190711D01*
X1177864Y189344D01*
X1176791Y188002D01*
X1175685Y186688D01*
X1174547Y185401D01*
X1173377Y184142D01*
X1172177Y182913D01*
X1170948Y181713D01*
X1169689Y180543D01*
X1168402Y179405D01*
X1167088Y178299D01*
X1165746Y177226D01*
X1164379Y176185D01*
X1162987Y175179D01*
X1161570Y174207D01*
X1160130Y173270D01*
X1158667Y172369D01*
X1157183Y171504D01*
X1155678Y170676D01*
X1154153Y169884D01*
X1152609Y169131D01*
X1151047Y168415D01*
X1149468Y167738D01*
X1147873Y167101D01*
X1146262Y166502D01*
X1144638Y165943D01*
X1143000Y165424D01*
X1141350Y164946D01*
X1139689Y164508D01*
X1138017Y164111D01*
X1136336Y163755D01*
X1134647Y163441D01*
X1132951Y163168D01*
X1131249Y162936D01*
X1129541Y162747D01*
X1127830Y162600D01*
X1126115Y162494D01*
X1124398Y162431D01*
X1122680Y162410D01*
X1120962Y162431D01*
X1119245Y162494D01*
X1117530Y162600D01*
X1115819Y162747D01*
X1114111Y162936D01*
X1112409Y163168D01*
X1110713Y163441D01*
X1109024Y163755D01*
X1107343Y164111D01*
X1105671Y164508D01*
X1104010Y164946D01*
X1102360Y165424D01*
X1100722Y165943D01*
X1099098Y166502D01*
X1097487Y167101D01*
X1095892Y167738D01*
X1094313Y168415D01*
X1092751Y169131D01*
X1091207Y169884D01*
X1089682Y170676D01*
X1088177Y171504D01*
X1086693Y172369D01*
X1085230Y173270D01*
X1083790Y174207D01*
X1082373Y175179D01*
X1080981Y176185D01*
X1079614Y177226D01*
X1078272Y178299D01*
X1076958Y179405D01*
X1075671Y180543D01*
X1074412Y181713D01*
X1073183Y182913D01*
X1071983Y184142D01*
X1070813Y185401D01*
X1069675Y186688D01*
X1068569Y188002D01*
X1067496Y189344D01*
X1066455Y190711D01*
X1065449Y192103D01*
X1064477Y193520D01*
X1063540Y194960D01*
X1062639Y196423D01*
X1061774Y197907D01*
X1060946Y199412D01*
X1060154Y200937D01*
X1059401Y202481D01*
X1058685Y204043D01*
X1058008Y205622D01*
X1057371Y207217D01*
X1056772Y208828D01*
X1056213Y210452D01*
X1055694Y212090D01*
X1055216Y213740D01*
X1054778Y215401D01*
X1054381Y217073D01*
X1054025Y218754D01*
X1053711Y220443D01*
X1053438Y222139D01*
X1053206Y223841D01*
X1053017Y225549D01*
X1052870Y227260D01*
X1052764Y228975D01*
X1052701Y230692D01*
X1052680Y232410D01*
X1052680Y932180D02*
X1052701Y933898D01*
X1052764Y935615D01*
X1052870Y937330D01*
X1053017Y939041D01*
X1053206Y940749D01*
X1053438Y942451D01*
X1053711Y944147D01*
X1054025Y945836D01*
X1054381Y947517D01*
X1054778Y949189D01*
X1055216Y950850D01*
X1055694Y952500D01*
X1056213Y954138D01*
X1056772Y955762D01*
X1057371Y957373D01*
X1058008Y958968D01*
X1058685Y960547D01*
X1059401Y962109D01*
X1060154Y963653D01*
X1060946Y965178D01*
X1061774Y966683D01*
X1062639Y968167D01*
X1063540Y969630D01*
X1064477Y971070D01*
X1065449Y972487D01*
X1066455Y973879D01*
X1067496Y975246D01*
X1068569Y976588D01*
X1069675Y977902D01*
X1070813Y979189D01*
X1071983Y980448D01*
X1073183Y981677D01*
X1074412Y982877D01*
X1075671Y984047D01*
X1076958Y985185D01*
X1078272Y986291D01*
X1079614Y987364D01*
X1080981Y988405D01*
X1082373Y989411D01*
X1083790Y990383D01*
X1085230Y991320D01*
X1086693Y992221D01*
X1088177Y993086D01*
X1089682Y993914D01*
X1091207Y994706D01*
X1092751Y995459D01*
X1094313Y996175D01*
X1095892Y996852D01*
X1097487Y997489D01*
X1099098Y998088D01*
X1100722Y998647D01*
X1102360Y999166D01*
X1104010Y999644D01*
X1105671Y1000082D01*
X1107343Y1000479D01*
X1109024Y1000835D01*
X1110713Y1001149D01*
X1112409Y1001422D01*
X1114111Y1001654D01*
X1115819Y1001843D01*
X1117530Y1001990D01*
X1119245Y1002096D01*
X1120962Y1002159D01*
X1122680Y1002180D01*
X1124398Y1002159D01*
X1126115Y1002096D01*
X1127830Y1001990D01*
X1129541Y1001843D01*
X1131249Y1001654D01*
X1132951Y1001422D01*
X1134647Y1001149D01*
X1136336Y1000835D01*
X1138017Y1000479D01*
X1139689Y1000082D01*
X1141350Y999644D01*
X1143000Y999166D01*
X1144638Y998647D01*
X1146262Y998088D01*
X1147873Y997489D01*
X1149468Y996852D01*
X1151047Y996175D01*
X1152609Y995459D01*
X1154153Y994706D01*
X1155678Y993914D01*
X1157183Y993086D01*
X1158667Y992221D01*
X1160130Y991320D01*
X1161570Y990383D01*
X1162987Y989411D01*
X1164379Y988405D01*
X1165746Y987364D01*
X1167088Y986291D01*
X1168402Y985185D01*
X1169689Y984047D01*
X1170948Y982877D01*
X1172177Y981677D01*
X1173377Y980448D01*
X1174547Y979189D01*
X1175685Y977902D01*
X1176791Y976588D01*
X1177864Y975246D01*
X1178905Y973879D01*
X1179911Y972487D01*
X1180883Y971070D01*
X1181820Y969630D01*
X1182721Y968167D01*
X1183586Y966683D01*
X1184414Y965178D01*
X1185206Y963653D01*
X1185959Y962109D01*
X1186675Y960547D01*
X1187352Y958968D01*
X1187989Y957373D01*
X1188588Y955762D01*
X1189147Y954138D01*
X1189666Y952500D01*
X1190144Y950850D01*
X1190582Y949189D01*
X1190979Y947517D01*
X1191335Y945836D01*
X1191649Y944147D01*
X1191922Y942451D01*
X1192154Y940749D01*
X1192343Y939041D01*
X1192490Y937330D01*
X1192596Y935615D01*
X1192659Y933898D01*
X1192680Y932180D01*
X1192659Y930462D01*
X1192596Y928745D01*
X1192490Y927030D01*
X1192343Y925319D01*
X1192154Y923611D01*
X1191922Y921909D01*
X1191649Y920213D01*
X1191335Y918524D01*
X1190979Y916843D01*
X1190582Y915171D01*
X1190144Y913510D01*
X1189666Y911860D01*
X1189147Y910222D01*
X1188588Y908598D01*
X1187989Y906987D01*
X1187352Y905392D01*
X1186675Y903813D01*
X1185959Y902251D01*
X1185206Y900707D01*
X1184414Y899182D01*
X1183586Y897677D01*
X1182721Y896193D01*
X1181820Y894730D01*
X1180883Y893290D01*
X1179911Y891873D01*
X1178905Y890481D01*
X1177864Y889114D01*
X1176791Y887772D01*
X1175685Y886458D01*
X1174547Y885171D01*
X1173377Y883912D01*
X1172177Y882683D01*
X1170948Y881483D01*
X1169689Y880313D01*
X1168402Y879175D01*
X1167088Y878069D01*
X1165746Y876996D01*
X1164379Y875955D01*
X1162987Y874949D01*
X1161570Y873977D01*
X1160130Y873040D01*
X1158667Y872139D01*
X1157183Y871274D01*
X1155678Y870446D01*
X1154153Y869654D01*
X1152609Y868901D01*
X1151047Y868185D01*
X1149468Y867508D01*
X1147873Y866871D01*
X1146262Y866272D01*
X1144638Y865713D01*
X1143000Y865194D01*
X1141350Y864716D01*
X1139689Y864278D01*
X1138017Y863881D01*
X1136336Y863525D01*
X1134647Y863211D01*
X1132951Y862938D01*
X1131249Y862706D01*
X1129541Y862517D01*
X1127830Y862370D01*
X1126115Y862264D01*
X1124398Y862201D01*
X1122680Y862180D01*
X1120962Y862201D01*
X1119245Y862264D01*
X1117530Y862370D01*
X1115819Y862517D01*
X1114111Y862706D01*
X1112409Y862938D01*
X1110713Y863211D01*
X1109024Y863525D01*
X1107343Y863881D01*
X1105671Y864278D01*
X1104010Y864716D01*
X1102360Y865194D01*
X1100722Y865713D01*
X1099098Y866272D01*
X1097487Y866871D01*
X1095892Y867508D01*
X1094313Y868185D01*
X1092751Y868901D01*
X1091207Y869654D01*
X1089682Y870446D01*
X1088177Y871274D01*
X1086693Y872139D01*
X1085230Y873040D01*
X1083790Y873977D01*
X1082373Y874949D01*
X1080981Y875955D01*
X1079614Y876996D01*
X1078272Y878069D01*
X1076958Y879175D01*
X1075671Y880313D01*
X1074412Y881483D01*
X1073183Y882683D01*
X1071983Y883912D01*
X1070813Y885171D01*
X1069675Y886458D01*
X1068569Y887772D01*
X1067496Y889114D01*
X1066455Y890481D01*
X1065449Y891873D01*
X1064477Y893290D01*
X1063540Y894730D01*
X1062639Y896193D01*
X1061774Y897677D01*
X1060946Y899182D01*
X1060154Y900707D01*
X1059401Y902251D01*
X1058685Y903813D01*
X1058008Y905392D01*
X1057371Y906987D01*
X1056772Y908598D01*
X1056213Y910222D01*
X1055694Y911860D01*
X1055216Y913510D01*
X1054778Y915171D01*
X1054381Y916843D01*
X1054025Y918524D01*
X1053711Y920213D01*
X1053438Y921909D01*
X1053206Y923611D01*
X1053017Y925319D01*
X1052870Y927030D01*
X1052764Y928745D01*
X1052701Y930462D01*
X1052680Y932180D01*
X252580Y932180D02*
X252601Y933898D01*
X252664Y935615D01*
X252770Y937330D01*
X252917Y939041D01*
X253106Y940749D01*
X253338Y942451D01*
X253611Y944147D01*
X253925Y945836D01*
X254281Y947517D01*
X254678Y949189D01*
X255116Y950850D01*
X255594Y952500D01*
X256113Y954138D01*
X256672Y955762D01*
X257271Y957373D01*
X257908Y958968D01*
X258585Y960547D01*
X259301Y962109D01*
X260054Y963653D01*
X260846Y965178D01*
X261674Y966683D01*
X262539Y968167D01*
X263440Y969630D01*
X264377Y971070D01*
X265349Y972487D01*
X266355Y973879D01*
X267396Y975246D01*
X268469Y976588D01*
X269575Y977902D01*
X270713Y979189D01*
X271883Y980448D01*
X273083Y981677D01*
X274312Y982877D01*
X275571Y984047D01*
X276858Y985185D01*
X278172Y986291D01*
X279514Y987364D01*
X280881Y988405D01*
X282273Y989411D01*
X283690Y990383D01*
X285130Y991320D01*
X286593Y992221D01*
X288077Y993086D01*
X289582Y993914D01*
X291107Y994706D01*
X292651Y995459D01*
X294213Y996175D01*
X295792Y996852D01*
X297387Y997489D01*
X298998Y998088D01*
X300622Y998647D01*
X302260Y999166D01*
X303910Y999644D01*
X305571Y1000082D01*
X307243Y1000479D01*
X308924Y1000835D01*
X310613Y1001149D01*
X312309Y1001422D01*
X314011Y1001654D01*
X315719Y1001843D01*
X317430Y1001990D01*
X319145Y1002096D01*
X320862Y1002159D01*
X322580Y1002180D01*
X324298Y1002159D01*
X326015Y1002096D01*
X327730Y1001990D01*
X329441Y1001843D01*
X331149Y1001654D01*
X332851Y1001422D01*
X334547Y1001149D01*
X336236Y1000835D01*
X337917Y1000479D01*
X339589Y1000082D01*
X341250Y999644D01*
X342900Y999166D01*
X344538Y998647D01*
X346162Y998088D01*
X347773Y997489D01*
X349368Y996852D01*
X350947Y996175D01*
X352509Y995459D01*
X354053Y994706D01*
X355578Y993914D01*
X357083Y993086D01*
X358567Y992221D01*
X360030Y991320D01*
X361470Y990383D01*
X362887Y989411D01*
X364279Y988405D01*
X365646Y987364D01*
X366988Y986291D01*
X368302Y985185D01*
X369589Y984047D01*
X370848Y982877D01*
X372077Y981677D01*
X373277Y980448D01*
X374447Y979189D01*
X375585Y977902D01*
X376691Y976588D01*
X377764Y975246D01*
X378805Y973879D01*
X379811Y972487D01*
X380783Y971070D01*
X381720Y969630D01*
X382621Y968167D01*
X383486Y966683D01*
X384314Y965178D01*
X385106Y963653D01*
X385859Y962109D01*
X386575Y960547D01*
X387252Y958968D01*
X387889Y957373D01*
X388488Y955762D01*
X389047Y954138D01*
X389566Y952500D01*
X390044Y950850D01*
X390482Y949189D01*
X390879Y947517D01*
X391235Y945836D01*
X391549Y944147D01*
X391822Y942451D01*
X392054Y940749D01*
X392243Y939041D01*
X392390Y937330D01*
X392496Y935615D01*
X392559Y933898D01*
X392580Y932180D01*
X392559Y930462D01*
X392496Y928745D01*
X392390Y927030D01*
X392243Y925319D01*
X392054Y923611D01*
X391822Y921909D01*
X391549Y920213D01*
X391235Y918524D01*
X390879Y916843D01*
X390482Y915171D01*
X390044Y913510D01*
X389566Y911860D01*
X389047Y910222D01*
X388488Y908598D01*
X387889Y906987D01*
X387252Y905392D01*
X386575Y903813D01*
X385859Y902251D01*
X385106Y900707D01*
X384314Y899182D01*
X383486Y897677D01*
X382621Y896193D01*
X381720Y894730D01*
X380783Y893290D01*
X379811Y891873D01*
X378805Y890481D01*
X377764Y889114D01*
X376691Y887772D01*
X375585Y886458D01*
X374447Y885171D01*
X373277Y883912D01*
X372077Y882683D01*
X370848Y881483D01*
X369589Y880313D01*
X368302Y879175D01*
X366988Y878069D01*
X365646Y876996D01*
X364279Y875955D01*
X362887Y874949D01*
X361470Y873977D01*
X360030Y873040D01*
X358567Y872139D01*
X357083Y871274D01*
X355578Y870446D01*
X354053Y869654D01*
X352509Y868901D01*
X350947Y868185D01*
X349368Y867508D01*
X347773Y866871D01*
X346162Y866272D01*
X344538Y865713D01*
X342900Y865194D01*
X341250Y864716D01*
X339589Y864278D01*
X337917Y863881D01*
X336236Y863525D01*
X334547Y863211D01*
X332851Y862938D01*
X331149Y862706D01*
X329441Y862517D01*
X327730Y862370D01*
X326015Y862264D01*
X324298Y862201D01*
X322580Y862180D01*
X320862Y862201D01*
X319145Y862264D01*
X317430Y862370D01*
X315719Y862517D01*
X314011Y862706D01*
X312309Y862938D01*
X310613Y863211D01*
X308924Y863525D01*
X307243Y863881D01*
X305571Y864278D01*
X303910Y864716D01*
X302260Y865194D01*
X300622Y865713D01*
X298998Y866272D01*
X297387Y866871D01*
X295792Y867508D01*
X294213Y868185D01*
X292651Y868901D01*
X291107Y869654D01*
X289582Y870446D01*
X288077Y871274D01*
X286593Y872139D01*
X285130Y873040D01*
X283690Y873977D01*
X282273Y874949D01*
X280881Y875955D01*
X279514Y876996D01*
X278172Y878069D01*
X276858Y879175D01*
X275571Y880313D01*
X274312Y881483D01*
X273083Y882683D01*
X271883Y883912D01*
X270713Y885171D01*
X269575Y886458D01*
X268469Y887772D01*
X267396Y889114D01*
X266355Y890481D01*
X265349Y891873D01*
X264377Y893290D01*
X263440Y894730D01*
X262539Y896193D01*
X261674Y897677D01*
X260846Y899182D01*
X260054Y900707D01*
X259301Y902251D01*
X258585Y903813D01*
X257908Y905392D01*
X257271Y906987D01*
X256672Y908598D01*
X256113Y910222D01*
X255594Y911860D01*
X255116Y913510D01*
X254678Y915171D01*
X254281Y916843D01*
X253925Y918524D01*
X253611Y920213D01*
X253338Y921909D01*
X253106Y923611D01*
X252917Y925319D01*
X252770Y927030D01*
X252664Y928745D01*
X252601Y930462D01*
X252580Y932180D01*
D11*
X1078230Y619760D02*
X1078230Y518160D01*
X1116330Y518160D01*
X1122680Y518160D01*
X1122680Y619760D01*
X1116330Y619760D01*
X1078230Y619760D01*
X1116330Y619760D02*
X1116330Y518160D01*
D12*
X1153583Y468630D02*
X1164590Y468630D01*
X1153583Y468630D02*
X1153454Y468632D01*
X1153325Y468638D01*
X1153196Y468648D01*
X1153068Y468661D01*
X1152940Y468679D01*
X1152813Y468701D01*
X1152686Y468726D01*
X1152560Y468755D01*
X1152436Y468788D01*
X1152312Y468825D01*
X1152189Y468866D01*
X1152068Y468910D01*
X1151948Y468958D01*
X1151830Y469010D01*
X1151713Y469065D01*
X1151598Y469124D01*
X1151485Y469186D01*
X1151374Y469252D01*
X1151265Y469321D01*
X1151158Y469393D01*
X1151053Y469469D01*
X1150951Y469548D01*
X1150851Y469630D01*
X1150754Y469714D01*
X1150659Y469802D01*
X1150567Y469893D01*
X1150478Y469986D01*
X1150392Y470082D01*
X1150308Y470181D01*
X1150228Y470282D01*
X1150151Y470385D01*
X1150077Y470491D01*
X1150006Y470599D01*
X1149939Y470709D01*
X1149875Y470821D01*
X1149814Y470936D01*
X1149757Y471051D01*
X1149704Y471169D01*
X1149654Y471288D01*
X1149608Y471408D01*
X1149565Y471530D01*
X1149526Y471654D01*
X1149491Y471778D01*
X1149460Y471903D01*
X1149433Y472029D01*
X1149409Y472156D01*
X1149390Y472284D01*
X1149374Y472412D01*
X1149362Y472541D01*
X1149354Y472669D01*
X1149350Y472798D01*
X1149350Y472928D01*
X1149354Y473057D01*
X1149362Y473185D01*
X1149374Y473314D01*
X1149390Y473442D01*
X1149409Y473570D01*
X1149433Y473697D01*
X1149460Y473823D01*
X1149491Y473948D01*
X1149526Y474072D01*
X1149565Y474196D01*
X1149608Y474318D01*
X1149654Y474438D01*
X1149704Y474557D01*
X1149757Y474675D01*
X1149814Y474790D01*
X1149875Y474905D01*
X1149939Y475017D01*
X1150006Y475127D01*
X1150077Y475235D01*
X1150151Y475341D01*
X1150228Y475444D01*
X1150308Y475545D01*
X1150392Y475644D01*
X1150478Y475740D01*
X1150567Y475833D01*
X1150659Y475924D01*
X1150754Y476012D01*
X1150851Y476096D01*
X1150951Y476178D01*
X1151053Y476257D01*
X1151158Y476333D01*
X1151265Y476405D01*
X1151374Y476474D01*
X1151485Y476540D01*
X1151598Y476602D01*
X1151713Y476661D01*
X1151830Y476716D01*
X1151948Y476768D01*
X1152068Y476816D01*
X1152189Y476860D01*
X1152312Y476901D01*
X1152436Y476938D01*
X1152560Y476971D01*
X1152686Y477000D01*
X1152813Y477025D01*
X1152940Y477047D01*
X1153068Y477065D01*
X1153196Y477078D01*
X1153325Y477088D01*
X1153454Y477094D01*
X1153583Y477096D01*
X1153583Y477097D02*
X1164590Y477097D01*
X1149350Y484782D02*
X1149350Y489016D01*
X1149352Y489145D01*
X1149358Y489274D01*
X1149368Y489403D01*
X1149381Y489531D01*
X1149399Y489659D01*
X1149421Y489786D01*
X1149446Y489913D01*
X1149475Y490039D01*
X1149508Y490163D01*
X1149545Y490287D01*
X1149586Y490410D01*
X1149630Y490531D01*
X1149678Y490651D01*
X1149730Y490769D01*
X1149785Y490886D01*
X1149844Y491001D01*
X1149906Y491114D01*
X1149972Y491225D01*
X1150041Y491334D01*
X1150113Y491441D01*
X1150189Y491546D01*
X1150268Y491648D01*
X1150350Y491748D01*
X1150434Y491845D01*
X1150522Y491940D01*
X1150613Y492032D01*
X1150706Y492121D01*
X1150802Y492207D01*
X1150901Y492291D01*
X1151002Y492371D01*
X1151105Y492448D01*
X1151211Y492522D01*
X1151319Y492593D01*
X1151429Y492660D01*
X1151541Y492724D01*
X1151656Y492785D01*
X1151771Y492842D01*
X1151889Y492895D01*
X1152008Y492945D01*
X1152128Y492991D01*
X1152250Y493034D01*
X1152374Y493073D01*
X1152498Y493108D01*
X1152623Y493139D01*
X1152749Y493166D01*
X1152876Y493190D01*
X1153004Y493209D01*
X1153132Y493225D01*
X1153261Y493237D01*
X1153389Y493245D01*
X1153518Y493249D01*
X1153648Y493249D01*
X1153777Y493245D01*
X1153905Y493237D01*
X1154034Y493225D01*
X1154162Y493209D01*
X1154290Y493190D01*
X1154417Y493166D01*
X1154543Y493139D01*
X1154668Y493108D01*
X1154792Y493073D01*
X1154916Y493034D01*
X1155038Y492991D01*
X1155158Y492945D01*
X1155277Y492895D01*
X1155395Y492842D01*
X1155510Y492785D01*
X1155625Y492724D01*
X1155737Y492660D01*
X1155847Y492593D01*
X1155955Y492522D01*
X1156061Y492448D01*
X1156164Y492371D01*
X1156265Y492291D01*
X1156364Y492207D01*
X1156460Y492121D01*
X1156553Y492032D01*
X1156644Y491940D01*
X1156732Y491845D01*
X1156816Y491748D01*
X1156898Y491648D01*
X1156977Y491546D01*
X1157053Y491441D01*
X1157125Y491334D01*
X1157194Y491225D01*
X1157260Y491114D01*
X1157322Y491001D01*
X1157381Y490886D01*
X1157436Y490769D01*
X1157488Y490651D01*
X1157536Y490531D01*
X1157580Y490410D01*
X1157621Y490287D01*
X1157658Y490163D01*
X1157691Y490039D01*
X1157720Y489913D01*
X1157745Y489786D01*
X1157767Y489659D01*
X1157785Y489531D01*
X1157798Y489403D01*
X1157808Y489274D01*
X1157814Y489145D01*
X1157816Y489016D01*
X1164590Y489862D02*
X1164590Y484782D01*
X1164590Y489862D02*
X1164588Y489978D01*
X1164582Y490093D01*
X1164572Y490208D01*
X1164558Y490323D01*
X1164541Y490437D01*
X1164519Y490551D01*
X1164494Y490664D01*
X1164464Y490776D01*
X1164431Y490887D01*
X1164394Y490996D01*
X1164354Y491105D01*
X1164310Y491211D01*
X1164262Y491317D01*
X1164210Y491420D01*
X1164155Y491522D01*
X1164097Y491622D01*
X1164035Y491720D01*
X1163970Y491815D01*
X1163902Y491909D01*
X1163830Y491999D01*
X1163756Y492088D01*
X1163678Y492174D01*
X1163598Y492257D01*
X1163515Y492337D01*
X1163429Y492415D01*
X1163340Y492489D01*
X1163250Y492561D01*
X1163156Y492629D01*
X1163061Y492694D01*
X1162963Y492756D01*
X1162863Y492814D01*
X1162761Y492869D01*
X1162658Y492921D01*
X1162552Y492969D01*
X1162446Y493013D01*
X1162337Y493053D01*
X1162228Y493090D01*
X1162117Y493123D01*
X1162005Y493153D01*
X1161892Y493178D01*
X1161778Y493200D01*
X1161664Y493217D01*
X1161549Y493231D01*
X1161434Y493241D01*
X1161319Y493247D01*
X1161203Y493249D01*
X1161087Y493247D01*
X1160972Y493241D01*
X1160857Y493231D01*
X1160742Y493217D01*
X1160628Y493200D01*
X1160514Y493178D01*
X1160401Y493153D01*
X1160289Y493123D01*
X1160178Y493090D01*
X1160069Y493053D01*
X1159960Y493013D01*
X1159854Y492969D01*
X1159748Y492921D01*
X1159645Y492869D01*
X1159543Y492814D01*
X1159443Y492756D01*
X1159345Y492694D01*
X1159250Y492629D01*
X1159156Y492561D01*
X1159066Y492489D01*
X1158977Y492415D01*
X1158891Y492337D01*
X1158808Y492257D01*
X1158728Y492174D01*
X1158650Y492088D01*
X1158576Y491999D01*
X1158504Y491909D01*
X1158436Y491815D01*
X1158371Y491720D01*
X1158309Y491622D01*
X1158251Y491522D01*
X1158196Y491420D01*
X1158144Y491317D01*
X1158096Y491211D01*
X1158052Y491105D01*
X1158012Y490996D01*
X1157975Y490887D01*
X1157942Y490776D01*
X1157912Y490664D01*
X1157887Y490551D01*
X1157865Y490437D01*
X1157848Y490323D01*
X1157834Y490208D01*
X1157824Y490093D01*
X1157818Y489978D01*
X1157816Y489862D01*
X1157817Y489862D02*
X1157817Y486476D01*
X674793Y825077D02*
X672253Y825077D01*
X672253Y816610D01*
X677333Y816610D01*
X677449Y816612D01*
X677564Y816618D01*
X677679Y816628D01*
X677794Y816642D01*
X677908Y816659D01*
X678022Y816681D01*
X678135Y816706D01*
X678247Y816736D01*
X678358Y816769D01*
X678467Y816806D01*
X678576Y816846D01*
X678682Y816890D01*
X678788Y816938D01*
X678891Y816990D01*
X678993Y817045D01*
X679093Y817103D01*
X679191Y817165D01*
X679286Y817230D01*
X679380Y817298D01*
X679471Y817370D01*
X679559Y817444D01*
X679645Y817522D01*
X679728Y817602D01*
X679808Y817685D01*
X679886Y817771D01*
X679960Y817860D01*
X680032Y817950D01*
X680100Y818044D01*
X680165Y818139D01*
X680227Y818237D01*
X680285Y818337D01*
X680340Y818439D01*
X680392Y818542D01*
X680440Y818648D01*
X680484Y818754D01*
X680524Y818863D01*
X680561Y818972D01*
X680594Y819083D01*
X680624Y819195D01*
X680649Y819308D01*
X680671Y819422D01*
X680688Y819536D01*
X680702Y819651D01*
X680712Y819766D01*
X680718Y819881D01*
X680720Y819997D01*
X680720Y828463D01*
X680718Y828579D01*
X680712Y828694D01*
X680702Y828809D01*
X680688Y828924D01*
X680671Y829038D01*
X680649Y829152D01*
X680624Y829265D01*
X680594Y829377D01*
X680561Y829488D01*
X680524Y829597D01*
X680484Y829706D01*
X680440Y829812D01*
X680392Y829918D01*
X680340Y830021D01*
X680285Y830123D01*
X680227Y830223D01*
X680165Y830321D01*
X680100Y830416D01*
X680032Y830510D01*
X679960Y830600D01*
X679886Y830689D01*
X679808Y830775D01*
X679728Y830858D01*
X679645Y830938D01*
X679559Y831016D01*
X679471Y831090D01*
X679380Y831162D01*
X679286Y831230D01*
X679191Y831295D01*
X679093Y831357D01*
X678993Y831415D01*
X678891Y831470D01*
X678788Y831522D01*
X678682Y831570D01*
X678576Y831614D01*
X678467Y831654D01*
X678358Y831691D01*
X678247Y831724D01*
X678135Y831754D01*
X678022Y831779D01*
X677909Y831801D01*
X677794Y831818D01*
X677679Y831832D01*
X677564Y831842D01*
X677449Y831848D01*
X677333Y831850D01*
X672253Y831850D01*
X664047Y831850D02*
X664047Y816610D01*
X655580Y816610D02*
X664047Y831850D01*
X655580Y831850D02*
X655580Y816610D01*
X647373Y816610D02*
X647373Y831850D01*
X643140Y831850D01*
X643012Y831848D01*
X642884Y831842D01*
X642757Y831833D01*
X642630Y831819D01*
X642503Y831802D01*
X642377Y831781D01*
X642252Y831756D01*
X642127Y831727D01*
X642003Y831695D01*
X641881Y831658D01*
X641759Y831618D01*
X641639Y831575D01*
X641520Y831528D01*
X641403Y831477D01*
X641287Y831423D01*
X641173Y831365D01*
X641061Y831304D01*
X640950Y831240D01*
X640842Y831172D01*
X640735Y831101D01*
X640631Y831026D01*
X640529Y830949D01*
X640430Y830869D01*
X640333Y830785D01*
X640239Y830699D01*
X640147Y830610D01*
X640058Y830518D01*
X639972Y830424D01*
X639888Y830327D01*
X639808Y830228D01*
X639731Y830126D01*
X639656Y830022D01*
X639585Y829915D01*
X639517Y829807D01*
X639453Y829696D01*
X639392Y829584D01*
X639334Y829470D01*
X639280Y829354D01*
X639229Y829237D01*
X639182Y829118D01*
X639139Y828998D01*
X639099Y828876D01*
X639062Y828754D01*
X639030Y828630D01*
X639001Y828505D01*
X638976Y828380D01*
X638955Y828254D01*
X638938Y828127D01*
X638924Y828000D01*
X638915Y827873D01*
X638909Y827745D01*
X638907Y827617D01*
X638907Y820843D01*
X638909Y820715D01*
X638915Y820587D01*
X638924Y820460D01*
X638938Y820333D01*
X638955Y820206D01*
X638976Y820080D01*
X639001Y819955D01*
X639030Y819830D01*
X639062Y819706D01*
X639099Y819584D01*
X639139Y819462D01*
X639182Y819342D01*
X639229Y819223D01*
X639280Y819106D01*
X639334Y818990D01*
X639392Y818876D01*
X639453Y818764D01*
X639517Y818653D01*
X639585Y818545D01*
X639656Y818438D01*
X639731Y818334D01*
X639808Y818232D01*
X639888Y818133D01*
X639972Y818036D01*
X640058Y817942D01*
X640147Y817850D01*
X640239Y817761D01*
X640333Y817675D01*
X640430Y817591D01*
X640529Y817511D01*
X640631Y817434D01*
X640735Y817359D01*
X640842Y817288D01*
X640950Y817220D01*
X641061Y817156D01*
X641173Y817095D01*
X641287Y817037D01*
X641403Y816983D01*
X641520Y816932D01*
X641639Y816885D01*
X641759Y816842D01*
X641881Y816802D01*
X642003Y816765D01*
X642127Y816733D01*
X642252Y816704D01*
X642377Y816679D01*
X642503Y816658D01*
X642630Y816641D01*
X642757Y816627D01*
X642884Y816618D01*
X643012Y816612D01*
X643140Y816610D01*
X647373Y816610D01*
X793750Y816610D02*
X798830Y831850D01*
X788670Y831850D02*
X793750Y816610D01*
X782157Y822537D02*
X771997Y822537D01*
X777077Y817457D02*
X777077Y827617D01*
X732790Y816610D02*
X732674Y816612D01*
X732559Y816618D01*
X732444Y816628D01*
X732329Y816642D01*
X732215Y816659D01*
X732101Y816681D01*
X731988Y816706D01*
X731876Y816736D01*
X731765Y816769D01*
X731656Y816806D01*
X731547Y816846D01*
X731441Y816890D01*
X731335Y816938D01*
X731232Y816990D01*
X731130Y817045D01*
X731030Y817103D01*
X730932Y817165D01*
X730837Y817230D01*
X730743Y817298D01*
X730653Y817370D01*
X730564Y817444D01*
X730478Y817522D01*
X730395Y817602D01*
X730315Y817685D01*
X730237Y817771D01*
X730163Y817860D01*
X730091Y817950D01*
X730023Y818044D01*
X729958Y818139D01*
X729896Y818237D01*
X729838Y818337D01*
X729783Y818439D01*
X729731Y818542D01*
X729683Y818648D01*
X729639Y818754D01*
X729599Y818863D01*
X729562Y818972D01*
X729529Y819083D01*
X729499Y819195D01*
X729474Y819308D01*
X729452Y819422D01*
X729435Y819536D01*
X729421Y819651D01*
X729411Y819766D01*
X729405Y819881D01*
X729403Y819997D01*
X732790Y816610D02*
X732961Y816612D01*
X733132Y816618D01*
X733303Y816628D01*
X733474Y816643D01*
X733644Y816661D01*
X733814Y816684D01*
X733983Y816710D01*
X734151Y816741D01*
X734319Y816775D01*
X734485Y816814D01*
X734651Y816856D01*
X734816Y816903D01*
X734980Y816953D01*
X735142Y817008D01*
X735303Y817066D01*
X735462Y817128D01*
X735620Y817194D01*
X735777Y817263D01*
X735931Y817337D01*
X736084Y817414D01*
X736235Y817494D01*
X736384Y817578D01*
X736531Y817666D01*
X736676Y817757D01*
X736819Y817852D01*
X736959Y817950D01*
X737097Y818052D01*
X737232Y818156D01*
X737365Y818264D01*
X737495Y818375D01*
X737623Y818489D01*
X737748Y818606D01*
X737870Y818727D01*
X737447Y828463D02*
X737445Y828579D01*
X737439Y828694D01*
X737429Y828809D01*
X737415Y828924D01*
X737398Y829038D01*
X737376Y829152D01*
X737351Y829265D01*
X737321Y829377D01*
X737288Y829488D01*
X737251Y829597D01*
X737211Y829706D01*
X737167Y829812D01*
X737119Y829918D01*
X737067Y830021D01*
X737012Y830123D01*
X736954Y830223D01*
X736892Y830321D01*
X736827Y830416D01*
X736759Y830510D01*
X736687Y830600D01*
X736613Y830689D01*
X736535Y830775D01*
X736455Y830858D01*
X736372Y830938D01*
X736286Y831016D01*
X736197Y831090D01*
X736107Y831162D01*
X736013Y831230D01*
X735918Y831295D01*
X735820Y831357D01*
X735720Y831415D01*
X735618Y831470D01*
X735515Y831522D01*
X735409Y831570D01*
X735303Y831614D01*
X735194Y831654D01*
X735085Y831691D01*
X734974Y831724D01*
X734862Y831754D01*
X734749Y831779D01*
X734635Y831801D01*
X734521Y831818D01*
X734406Y831832D01*
X734291Y831842D01*
X734176Y831848D01*
X734060Y831850D01*
X733903Y831848D01*
X733746Y831842D01*
X733589Y831833D01*
X733432Y831819D01*
X733276Y831801D01*
X733120Y831780D01*
X732965Y831755D01*
X732811Y831726D01*
X732657Y831693D01*
X732504Y831657D01*
X732352Y831616D01*
X732202Y831572D01*
X732052Y831524D01*
X731903Y831473D01*
X731756Y831417D01*
X731611Y831359D01*
X731466Y831296D01*
X731324Y831230D01*
X731183Y831161D01*
X731044Y831088D01*
X730906Y831011D01*
X730771Y830932D01*
X730637Y830849D01*
X730506Y830762D01*
X730377Y830673D01*
X730250Y830580D01*
X735753Y825499D02*
X735852Y825559D01*
X735948Y825623D01*
X736042Y825689D01*
X736134Y825759D01*
X736223Y825832D01*
X736310Y825908D01*
X736394Y825986D01*
X736476Y826067D01*
X736555Y826151D01*
X736631Y826238D01*
X736704Y826327D01*
X736774Y826419D01*
X736841Y826512D01*
X736904Y826608D01*
X736965Y826706D01*
X737022Y826807D01*
X737076Y826908D01*
X737126Y827012D01*
X737173Y827117D01*
X737216Y827224D01*
X737256Y827332D01*
X737292Y827442D01*
X737324Y827552D01*
X737353Y827664D01*
X737378Y827776D01*
X737399Y827890D01*
X737416Y828004D01*
X737430Y828118D01*
X737439Y828233D01*
X737445Y828348D01*
X737447Y828463D01*
X731097Y822961D02*
X730998Y822901D01*
X730902Y822837D01*
X730808Y822771D01*
X730716Y822701D01*
X730627Y822628D01*
X730540Y822552D01*
X730456Y822474D01*
X730374Y822393D01*
X730295Y822309D01*
X730219Y822222D01*
X730146Y822133D01*
X730076Y822041D01*
X730009Y821948D01*
X729946Y821852D01*
X729885Y821754D01*
X729828Y821653D01*
X729774Y821552D01*
X729724Y821448D01*
X729677Y821343D01*
X729634Y821236D01*
X729594Y821128D01*
X729558Y821018D01*
X729526Y820908D01*
X729497Y820796D01*
X729472Y820684D01*
X729451Y820570D01*
X729434Y820456D01*
X729420Y820342D01*
X729411Y820227D01*
X729405Y820112D01*
X729403Y819997D01*
X731097Y822960D02*
X735753Y825500D01*
X723216Y831850D02*
X719829Y816610D01*
X716442Y826770D01*
X713056Y816610D01*
X709669Y831850D01*
X615950Y892810D02*
X615834Y892812D01*
X615719Y892818D01*
X615604Y892828D01*
X615489Y892842D01*
X615375Y892859D01*
X615261Y892881D01*
X615148Y892906D01*
X615036Y892936D01*
X614925Y892969D01*
X614816Y893006D01*
X614707Y893046D01*
X614601Y893090D01*
X614495Y893138D01*
X614392Y893190D01*
X614290Y893245D01*
X614190Y893303D01*
X614092Y893365D01*
X613997Y893430D01*
X613903Y893498D01*
X613813Y893570D01*
X613724Y893644D01*
X613638Y893722D01*
X613555Y893802D01*
X613475Y893885D01*
X613397Y893971D01*
X613323Y894060D01*
X613251Y894150D01*
X613183Y894244D01*
X613118Y894339D01*
X613056Y894437D01*
X612998Y894537D01*
X612943Y894639D01*
X612891Y894742D01*
X612843Y894848D01*
X612799Y894954D01*
X612759Y895063D01*
X612722Y895172D01*
X612689Y895283D01*
X612659Y895395D01*
X612634Y895508D01*
X612612Y895622D01*
X612595Y895736D01*
X612581Y895851D01*
X612571Y895966D01*
X612565Y896081D01*
X612563Y896197D01*
X615950Y892810D02*
X616121Y892812D01*
X616292Y892818D01*
X616463Y892828D01*
X616634Y892843D01*
X616804Y892861D01*
X616974Y892884D01*
X617143Y892910D01*
X617311Y892941D01*
X617479Y892975D01*
X617645Y893014D01*
X617811Y893056D01*
X617976Y893103D01*
X618140Y893153D01*
X618302Y893208D01*
X618463Y893266D01*
X618622Y893328D01*
X618780Y893394D01*
X618937Y893463D01*
X619091Y893537D01*
X619244Y893614D01*
X619395Y893694D01*
X619544Y893778D01*
X619691Y893866D01*
X619836Y893957D01*
X619979Y894052D01*
X620119Y894150D01*
X620257Y894252D01*
X620392Y894356D01*
X620525Y894464D01*
X620655Y894575D01*
X620783Y894689D01*
X620908Y894806D01*
X621030Y894927D01*
X620607Y904663D02*
X620605Y904779D01*
X620599Y904894D01*
X620589Y905009D01*
X620575Y905124D01*
X620558Y905238D01*
X620536Y905352D01*
X620511Y905465D01*
X620481Y905577D01*
X620448Y905688D01*
X620411Y905797D01*
X620371Y905906D01*
X620327Y906012D01*
X620279Y906118D01*
X620227Y906221D01*
X620172Y906323D01*
X620114Y906423D01*
X620052Y906521D01*
X619987Y906616D01*
X619919Y906710D01*
X619847Y906800D01*
X619773Y906889D01*
X619695Y906975D01*
X619615Y907058D01*
X619532Y907138D01*
X619446Y907216D01*
X619357Y907290D01*
X619267Y907362D01*
X619173Y907430D01*
X619078Y907495D01*
X618980Y907557D01*
X618880Y907615D01*
X618778Y907670D01*
X618675Y907722D01*
X618569Y907770D01*
X618463Y907814D01*
X618354Y907854D01*
X618245Y907891D01*
X618134Y907924D01*
X618022Y907954D01*
X617909Y907979D01*
X617795Y908001D01*
X617681Y908018D01*
X617566Y908032D01*
X617451Y908042D01*
X617336Y908048D01*
X617220Y908050D01*
X617063Y908048D01*
X616906Y908042D01*
X616749Y908033D01*
X616592Y908019D01*
X616436Y908001D01*
X616280Y907980D01*
X616125Y907955D01*
X615971Y907926D01*
X615817Y907893D01*
X615664Y907857D01*
X615512Y907816D01*
X615362Y907772D01*
X615212Y907724D01*
X615063Y907673D01*
X614916Y907617D01*
X614771Y907559D01*
X614626Y907496D01*
X614484Y907430D01*
X614343Y907361D01*
X614204Y907288D01*
X614066Y907211D01*
X613931Y907132D01*
X613797Y907049D01*
X613666Y906962D01*
X613537Y906873D01*
X613410Y906780D01*
X618913Y901699D02*
X619012Y901759D01*
X619108Y901823D01*
X619202Y901889D01*
X619294Y901959D01*
X619383Y902032D01*
X619470Y902108D01*
X619554Y902186D01*
X619636Y902267D01*
X619715Y902351D01*
X619791Y902438D01*
X619864Y902527D01*
X619934Y902619D01*
X620001Y902712D01*
X620064Y902808D01*
X620125Y902906D01*
X620182Y903007D01*
X620236Y903108D01*
X620286Y903212D01*
X620333Y903317D01*
X620376Y903424D01*
X620416Y903532D01*
X620452Y903642D01*
X620484Y903752D01*
X620513Y903864D01*
X620538Y903976D01*
X620559Y904090D01*
X620576Y904204D01*
X620590Y904318D01*
X620599Y904433D01*
X620605Y904548D01*
X620607Y904663D01*
X614257Y899161D02*
X614158Y899101D01*
X614062Y899037D01*
X613968Y898971D01*
X613876Y898901D01*
X613787Y898828D01*
X613700Y898752D01*
X613616Y898674D01*
X613534Y898593D01*
X613455Y898509D01*
X613379Y898422D01*
X613306Y898333D01*
X613236Y898241D01*
X613169Y898148D01*
X613106Y898052D01*
X613045Y897954D01*
X612988Y897853D01*
X612934Y897752D01*
X612884Y897648D01*
X612837Y897543D01*
X612794Y897436D01*
X612754Y897328D01*
X612718Y897218D01*
X612686Y897108D01*
X612657Y896996D01*
X612632Y896884D01*
X612611Y896770D01*
X612594Y896656D01*
X612580Y896542D01*
X612571Y896427D01*
X612565Y896312D01*
X612563Y896197D01*
X614257Y899160D02*
X618913Y901700D01*
X606376Y908050D02*
X602989Y892810D01*
X599602Y902970D01*
X596216Y892810D01*
X592829Y908050D01*
X586120Y904663D02*
X581887Y908050D01*
X581887Y892810D01*
X586120Y892810D02*
X577654Y892810D01*
X612563Y858097D02*
X612565Y857981D01*
X612571Y857866D01*
X612581Y857751D01*
X612595Y857636D01*
X612612Y857522D01*
X612634Y857408D01*
X612659Y857295D01*
X612689Y857183D01*
X612722Y857072D01*
X612759Y856963D01*
X612799Y856854D01*
X612843Y856748D01*
X612891Y856642D01*
X612943Y856539D01*
X612998Y856437D01*
X613056Y856337D01*
X613118Y856239D01*
X613183Y856144D01*
X613251Y856050D01*
X613323Y855960D01*
X613397Y855871D01*
X613475Y855785D01*
X613555Y855702D01*
X613638Y855622D01*
X613724Y855544D01*
X613813Y855470D01*
X613903Y855398D01*
X613997Y855330D01*
X614092Y855265D01*
X614190Y855203D01*
X614290Y855145D01*
X614392Y855090D01*
X614495Y855038D01*
X614601Y854990D01*
X614707Y854946D01*
X614816Y854906D01*
X614925Y854869D01*
X615036Y854836D01*
X615148Y854806D01*
X615261Y854781D01*
X615375Y854759D01*
X615489Y854742D01*
X615604Y854728D01*
X615719Y854718D01*
X615834Y854712D01*
X615950Y854710D01*
X616121Y854712D01*
X616292Y854718D01*
X616463Y854728D01*
X616634Y854743D01*
X616804Y854761D01*
X616974Y854784D01*
X617143Y854810D01*
X617311Y854841D01*
X617479Y854875D01*
X617645Y854914D01*
X617811Y854956D01*
X617976Y855003D01*
X618140Y855053D01*
X618302Y855108D01*
X618463Y855166D01*
X618622Y855228D01*
X618780Y855294D01*
X618937Y855363D01*
X619091Y855437D01*
X619244Y855514D01*
X619395Y855594D01*
X619544Y855678D01*
X619691Y855766D01*
X619836Y855857D01*
X619979Y855952D01*
X620119Y856050D01*
X620257Y856152D01*
X620392Y856256D01*
X620525Y856364D01*
X620655Y856475D01*
X620783Y856589D01*
X620908Y856706D01*
X621030Y856827D01*
X620607Y866563D02*
X620605Y866679D01*
X620599Y866794D01*
X620589Y866909D01*
X620575Y867024D01*
X620558Y867138D01*
X620536Y867252D01*
X620511Y867365D01*
X620481Y867477D01*
X620448Y867588D01*
X620411Y867697D01*
X620371Y867806D01*
X620327Y867912D01*
X620279Y868018D01*
X620227Y868121D01*
X620172Y868223D01*
X620114Y868323D01*
X620052Y868421D01*
X619987Y868516D01*
X619919Y868610D01*
X619847Y868700D01*
X619773Y868789D01*
X619695Y868875D01*
X619615Y868958D01*
X619532Y869038D01*
X619446Y869116D01*
X619357Y869190D01*
X619267Y869262D01*
X619173Y869330D01*
X619078Y869395D01*
X618980Y869457D01*
X618880Y869515D01*
X618778Y869570D01*
X618675Y869622D01*
X618569Y869670D01*
X618463Y869714D01*
X618354Y869754D01*
X618245Y869791D01*
X618134Y869824D01*
X618022Y869854D01*
X617909Y869879D01*
X617795Y869901D01*
X617681Y869918D01*
X617566Y869932D01*
X617451Y869942D01*
X617336Y869948D01*
X617220Y869950D01*
X617063Y869948D01*
X616906Y869942D01*
X616749Y869933D01*
X616592Y869919D01*
X616436Y869901D01*
X616280Y869880D01*
X616125Y869855D01*
X615971Y869826D01*
X615817Y869793D01*
X615664Y869757D01*
X615512Y869716D01*
X615362Y869672D01*
X615212Y869624D01*
X615063Y869573D01*
X614916Y869517D01*
X614771Y869459D01*
X614626Y869396D01*
X614484Y869330D01*
X614343Y869261D01*
X614204Y869188D01*
X614066Y869111D01*
X613931Y869032D01*
X613797Y868949D01*
X613666Y868862D01*
X613537Y868773D01*
X613410Y868680D01*
X618913Y863599D02*
X619012Y863659D01*
X619108Y863723D01*
X619202Y863789D01*
X619294Y863859D01*
X619383Y863932D01*
X619470Y864008D01*
X619554Y864086D01*
X619636Y864167D01*
X619715Y864251D01*
X619791Y864338D01*
X619864Y864427D01*
X619934Y864519D01*
X620001Y864612D01*
X620064Y864708D01*
X620125Y864806D01*
X620182Y864907D01*
X620236Y865008D01*
X620286Y865112D01*
X620333Y865217D01*
X620376Y865324D01*
X620416Y865432D01*
X620452Y865542D01*
X620484Y865652D01*
X620513Y865764D01*
X620538Y865876D01*
X620559Y865990D01*
X620576Y866104D01*
X620590Y866218D01*
X620599Y866333D01*
X620605Y866448D01*
X620607Y866563D01*
X614257Y861061D02*
X614158Y861001D01*
X614062Y860937D01*
X613968Y860871D01*
X613876Y860801D01*
X613787Y860728D01*
X613700Y860652D01*
X613616Y860574D01*
X613534Y860493D01*
X613455Y860409D01*
X613379Y860322D01*
X613306Y860233D01*
X613236Y860141D01*
X613169Y860048D01*
X613106Y859952D01*
X613045Y859854D01*
X612988Y859753D01*
X612934Y859652D01*
X612884Y859548D01*
X612837Y859443D01*
X612794Y859336D01*
X612754Y859228D01*
X612718Y859118D01*
X612686Y859008D01*
X612657Y858896D01*
X612632Y858784D01*
X612611Y858670D01*
X612594Y858556D01*
X612580Y858442D01*
X612571Y858327D01*
X612565Y858212D01*
X612563Y858097D01*
X614257Y861060D02*
X618913Y863600D01*
X606376Y869950D02*
X602989Y854710D01*
X599602Y864870D01*
X596216Y854710D01*
X592829Y869950D01*
X585013Y869950D02*
X585013Y854710D01*
X586706Y854710D02*
X583320Y854710D01*
X583320Y869950D02*
X586706Y869950D01*
X573550Y869950D02*
X573550Y854710D01*
X569317Y869950D02*
X577784Y869950D01*
X559863Y854710D02*
X556477Y854710D01*
X559863Y854710D02*
X559979Y854712D01*
X560094Y854718D01*
X560209Y854728D01*
X560324Y854742D01*
X560438Y854759D01*
X560552Y854781D01*
X560665Y854806D01*
X560777Y854836D01*
X560888Y854869D01*
X560997Y854906D01*
X561106Y854946D01*
X561212Y854990D01*
X561318Y855038D01*
X561421Y855090D01*
X561523Y855145D01*
X561623Y855203D01*
X561721Y855265D01*
X561816Y855330D01*
X561910Y855398D01*
X562001Y855470D01*
X562089Y855544D01*
X562175Y855622D01*
X562258Y855702D01*
X562338Y855785D01*
X562416Y855871D01*
X562490Y855960D01*
X562562Y856050D01*
X562630Y856144D01*
X562695Y856239D01*
X562757Y856337D01*
X562815Y856437D01*
X562870Y856539D01*
X562922Y856642D01*
X562970Y856748D01*
X563014Y856854D01*
X563054Y856963D01*
X563091Y857072D01*
X563124Y857183D01*
X563154Y857295D01*
X563179Y857408D01*
X563201Y857522D01*
X563218Y857636D01*
X563232Y857751D01*
X563242Y857866D01*
X563248Y857981D01*
X563250Y858097D01*
X563250Y866563D01*
X563248Y866679D01*
X563242Y866794D01*
X563232Y866909D01*
X563218Y867024D01*
X563201Y867138D01*
X563179Y867252D01*
X563154Y867365D01*
X563124Y867477D01*
X563091Y867588D01*
X563054Y867697D01*
X563014Y867806D01*
X562970Y867912D01*
X562922Y868018D01*
X562870Y868121D01*
X562815Y868223D01*
X562757Y868323D01*
X562695Y868421D01*
X562630Y868516D01*
X562562Y868610D01*
X562490Y868700D01*
X562416Y868789D01*
X562338Y868875D01*
X562258Y868958D01*
X562175Y869038D01*
X562089Y869116D01*
X562001Y869190D01*
X561910Y869262D01*
X561816Y869330D01*
X561721Y869395D01*
X561623Y869457D01*
X561523Y869515D01*
X561421Y869570D01*
X561318Y869622D01*
X561212Y869670D01*
X561106Y869714D01*
X560997Y869754D01*
X560888Y869791D01*
X560777Y869824D01*
X560665Y869854D01*
X560552Y869879D01*
X560439Y869901D01*
X560324Y869918D01*
X560209Y869932D01*
X560094Y869942D01*
X559979Y869948D01*
X559863Y869950D01*
X556477Y869950D01*
X549647Y869950D02*
X549647Y854710D01*
X549647Y863177D02*
X541181Y863177D01*
X541181Y869950D02*
X541181Y854710D01*
X534212Y853017D02*
X527438Y853017D01*
X517799Y854710D02*
X517799Y869950D01*
X522032Y869950D02*
X513566Y869950D01*
X503210Y869950D02*
X508290Y854710D01*
X498130Y854710D02*
X503210Y869950D01*
X499400Y858520D02*
X507020Y858520D01*
X490994Y863177D02*
X486761Y863177D01*
X486761Y863176D02*
X486632Y863174D01*
X486503Y863168D01*
X486374Y863158D01*
X486246Y863145D01*
X486118Y863127D01*
X485991Y863105D01*
X485864Y863080D01*
X485738Y863051D01*
X485614Y863018D01*
X485490Y862981D01*
X485367Y862940D01*
X485246Y862896D01*
X485126Y862848D01*
X485008Y862796D01*
X484891Y862741D01*
X484776Y862682D01*
X484663Y862620D01*
X484552Y862554D01*
X484443Y862485D01*
X484336Y862413D01*
X484231Y862337D01*
X484129Y862258D01*
X484029Y862176D01*
X483932Y862092D01*
X483837Y862004D01*
X483745Y861913D01*
X483656Y861820D01*
X483570Y861724D01*
X483486Y861625D01*
X483406Y861524D01*
X483329Y861421D01*
X483255Y861315D01*
X483184Y861207D01*
X483117Y861097D01*
X483053Y860985D01*
X482992Y860870D01*
X482935Y860755D01*
X482882Y860637D01*
X482832Y860518D01*
X482786Y860398D01*
X482743Y860276D01*
X482704Y860152D01*
X482669Y860028D01*
X482638Y859903D01*
X482611Y859777D01*
X482587Y859650D01*
X482568Y859522D01*
X482552Y859394D01*
X482540Y859265D01*
X482532Y859137D01*
X482528Y859008D01*
X482528Y858878D01*
X482532Y858749D01*
X482540Y858621D01*
X482552Y858492D01*
X482568Y858364D01*
X482587Y858236D01*
X482611Y858109D01*
X482638Y857983D01*
X482669Y857858D01*
X482704Y857734D01*
X482743Y857610D01*
X482786Y857488D01*
X482832Y857368D01*
X482882Y857249D01*
X482935Y857131D01*
X482992Y857016D01*
X483053Y856901D01*
X483117Y856789D01*
X483184Y856679D01*
X483255Y856571D01*
X483329Y856465D01*
X483406Y856362D01*
X483486Y856261D01*
X483570Y856162D01*
X483656Y856066D01*
X483745Y855973D01*
X483837Y855882D01*
X483932Y855794D01*
X484029Y855710D01*
X484129Y855628D01*
X484231Y855549D01*
X484336Y855473D01*
X484443Y855401D01*
X484552Y855332D01*
X484663Y855266D01*
X484776Y855204D01*
X484891Y855145D01*
X485008Y855090D01*
X485126Y855038D01*
X485246Y854990D01*
X485367Y854946D01*
X485490Y854905D01*
X485614Y854868D01*
X485738Y854835D01*
X485864Y854806D01*
X485991Y854781D01*
X486118Y854759D01*
X486246Y854741D01*
X486374Y854728D01*
X486503Y854718D01*
X486632Y854712D01*
X486761Y854710D01*
X490994Y854710D01*
X490994Y869950D01*
X486761Y869950D01*
X486645Y869948D01*
X486530Y869942D01*
X486415Y869932D01*
X486300Y869918D01*
X486186Y869901D01*
X486072Y869879D01*
X485959Y869854D01*
X485847Y869824D01*
X485736Y869791D01*
X485627Y869754D01*
X485518Y869714D01*
X485412Y869670D01*
X485306Y869622D01*
X485203Y869570D01*
X485101Y869515D01*
X485001Y869457D01*
X484903Y869395D01*
X484808Y869330D01*
X484714Y869262D01*
X484624Y869190D01*
X484535Y869116D01*
X484449Y869038D01*
X484366Y868958D01*
X484286Y868875D01*
X484208Y868789D01*
X484134Y868700D01*
X484062Y868610D01*
X483994Y868516D01*
X483929Y868421D01*
X483867Y868323D01*
X483809Y868223D01*
X483754Y868121D01*
X483702Y868018D01*
X483654Y867912D01*
X483610Y867806D01*
X483570Y867697D01*
X483533Y867588D01*
X483500Y867477D01*
X483470Y867365D01*
X483445Y867252D01*
X483423Y867138D01*
X483406Y867024D01*
X483392Y866909D01*
X483382Y866794D01*
X483376Y866679D01*
X483374Y866563D01*
X483376Y866447D01*
X483382Y866332D01*
X483392Y866217D01*
X483406Y866102D01*
X483423Y865988D01*
X483445Y865874D01*
X483470Y865761D01*
X483500Y865649D01*
X483533Y865538D01*
X483570Y865429D01*
X483610Y865320D01*
X483654Y865214D01*
X483702Y865108D01*
X483754Y865005D01*
X483809Y864903D01*
X483867Y864803D01*
X483929Y864705D01*
X483994Y864610D01*
X484062Y864516D01*
X484134Y864426D01*
X484208Y864337D01*
X484286Y864251D01*
X484366Y864168D01*
X484449Y864088D01*
X484535Y864010D01*
X484624Y863936D01*
X484714Y863864D01*
X484808Y863796D01*
X484903Y863731D01*
X485001Y863669D01*
X485101Y863611D01*
X485203Y863556D01*
X485306Y863504D01*
X485412Y863456D01*
X485518Y863412D01*
X485627Y863372D01*
X485736Y863335D01*
X485847Y863302D01*
X485959Y863272D01*
X486072Y863247D01*
X486186Y863225D01*
X486300Y863208D01*
X486415Y863194D01*
X486530Y863184D01*
X486645Y863178D01*
X486761Y863176D01*
X471622Y854710D02*
X471506Y854712D01*
X471391Y854718D01*
X471276Y854728D01*
X471161Y854742D01*
X471047Y854759D01*
X470933Y854781D01*
X470820Y854806D01*
X470708Y854836D01*
X470597Y854869D01*
X470488Y854906D01*
X470379Y854946D01*
X470273Y854990D01*
X470167Y855038D01*
X470064Y855090D01*
X469962Y855145D01*
X469862Y855203D01*
X469764Y855265D01*
X469669Y855330D01*
X469575Y855398D01*
X469485Y855470D01*
X469396Y855544D01*
X469310Y855622D01*
X469227Y855702D01*
X469147Y855785D01*
X469069Y855871D01*
X468995Y855960D01*
X468923Y856050D01*
X468855Y856144D01*
X468790Y856239D01*
X468728Y856337D01*
X468670Y856437D01*
X468615Y856539D01*
X468563Y856642D01*
X468515Y856748D01*
X468471Y856854D01*
X468431Y856963D01*
X468394Y857072D01*
X468361Y857183D01*
X468331Y857295D01*
X468306Y857408D01*
X468284Y857522D01*
X468267Y857636D01*
X468253Y857751D01*
X468243Y857866D01*
X468237Y857981D01*
X468235Y858097D01*
X471622Y854710D02*
X471793Y854712D01*
X471964Y854718D01*
X472135Y854728D01*
X472306Y854743D01*
X472476Y854761D01*
X472646Y854784D01*
X472815Y854810D01*
X472983Y854841D01*
X473151Y854875D01*
X473317Y854914D01*
X473483Y854956D01*
X473648Y855003D01*
X473812Y855053D01*
X473974Y855108D01*
X474135Y855166D01*
X474294Y855228D01*
X474452Y855294D01*
X474609Y855363D01*
X474763Y855437D01*
X474916Y855514D01*
X475067Y855594D01*
X475216Y855678D01*
X475363Y855766D01*
X475508Y855857D01*
X475651Y855952D01*
X475791Y856050D01*
X475929Y856152D01*
X476064Y856256D01*
X476197Y856364D01*
X476327Y856475D01*
X476455Y856589D01*
X476580Y856706D01*
X476702Y856827D01*
X476279Y866563D02*
X476277Y866679D01*
X476271Y866794D01*
X476261Y866909D01*
X476247Y867024D01*
X476230Y867138D01*
X476208Y867252D01*
X476183Y867365D01*
X476153Y867477D01*
X476120Y867588D01*
X476083Y867697D01*
X476043Y867806D01*
X475999Y867912D01*
X475951Y868018D01*
X475899Y868121D01*
X475844Y868223D01*
X475786Y868323D01*
X475724Y868421D01*
X475659Y868516D01*
X475591Y868610D01*
X475519Y868700D01*
X475445Y868789D01*
X475367Y868875D01*
X475287Y868958D01*
X475204Y869038D01*
X475118Y869116D01*
X475029Y869190D01*
X474939Y869262D01*
X474845Y869330D01*
X474750Y869395D01*
X474652Y869457D01*
X474552Y869515D01*
X474450Y869570D01*
X474347Y869622D01*
X474241Y869670D01*
X474135Y869714D01*
X474026Y869754D01*
X473917Y869791D01*
X473806Y869824D01*
X473694Y869854D01*
X473581Y869879D01*
X473467Y869901D01*
X473353Y869918D01*
X473238Y869932D01*
X473123Y869942D01*
X473008Y869948D01*
X472892Y869950D01*
X472735Y869948D01*
X472578Y869942D01*
X472421Y869933D01*
X472264Y869919D01*
X472108Y869901D01*
X471952Y869880D01*
X471797Y869855D01*
X471643Y869826D01*
X471489Y869793D01*
X471336Y869757D01*
X471184Y869716D01*
X471034Y869672D01*
X470884Y869624D01*
X470735Y869573D01*
X470588Y869517D01*
X470443Y869459D01*
X470298Y869396D01*
X470156Y869330D01*
X470015Y869261D01*
X469876Y869188D01*
X469738Y869111D01*
X469603Y869032D01*
X469469Y868949D01*
X469338Y868862D01*
X469209Y868773D01*
X469082Y868680D01*
X474585Y863599D02*
X474684Y863659D01*
X474780Y863723D01*
X474874Y863789D01*
X474966Y863859D01*
X475055Y863932D01*
X475142Y864008D01*
X475226Y864086D01*
X475308Y864167D01*
X475387Y864251D01*
X475463Y864338D01*
X475536Y864427D01*
X475606Y864519D01*
X475673Y864612D01*
X475736Y864708D01*
X475797Y864806D01*
X475854Y864907D01*
X475908Y865008D01*
X475958Y865112D01*
X476005Y865217D01*
X476048Y865324D01*
X476088Y865432D01*
X476124Y865542D01*
X476156Y865652D01*
X476185Y865764D01*
X476210Y865876D01*
X476231Y865990D01*
X476248Y866104D01*
X476262Y866218D01*
X476271Y866333D01*
X476277Y866448D01*
X476279Y866563D01*
X469928Y861061D02*
X469829Y861001D01*
X469733Y860937D01*
X469639Y860871D01*
X469547Y860801D01*
X469458Y860728D01*
X469371Y860652D01*
X469287Y860574D01*
X469205Y860493D01*
X469126Y860409D01*
X469050Y860322D01*
X468977Y860233D01*
X468907Y860141D01*
X468840Y860048D01*
X468777Y859952D01*
X468716Y859854D01*
X468659Y859753D01*
X468605Y859652D01*
X468555Y859548D01*
X468508Y859443D01*
X468465Y859336D01*
X468425Y859228D01*
X468389Y859118D01*
X468357Y859008D01*
X468328Y858896D01*
X468303Y858784D01*
X468282Y858670D01*
X468265Y858556D01*
X468251Y858442D01*
X468242Y858327D01*
X468236Y858212D01*
X468234Y858097D01*
X469928Y861060D02*
X474585Y863600D01*
X457032Y854710D02*
X456916Y854712D01*
X456801Y854718D01*
X456686Y854728D01*
X456571Y854742D01*
X456457Y854759D01*
X456343Y854781D01*
X456230Y854806D01*
X456118Y854836D01*
X456007Y854869D01*
X455898Y854906D01*
X455789Y854946D01*
X455683Y854990D01*
X455577Y855038D01*
X455474Y855090D01*
X455372Y855145D01*
X455272Y855203D01*
X455174Y855265D01*
X455079Y855330D01*
X454985Y855398D01*
X454895Y855470D01*
X454806Y855544D01*
X454720Y855622D01*
X454637Y855702D01*
X454557Y855785D01*
X454479Y855871D01*
X454405Y855960D01*
X454333Y856050D01*
X454265Y856144D01*
X454200Y856239D01*
X454138Y856337D01*
X454080Y856437D01*
X454025Y856539D01*
X453973Y856642D01*
X453925Y856748D01*
X453881Y856854D01*
X453841Y856963D01*
X453804Y857072D01*
X453771Y857183D01*
X453741Y857295D01*
X453716Y857408D01*
X453694Y857522D01*
X453677Y857636D01*
X453663Y857751D01*
X453653Y857866D01*
X453647Y857981D01*
X453645Y858097D01*
X457032Y854710D02*
X457203Y854712D01*
X457374Y854718D01*
X457545Y854728D01*
X457716Y854743D01*
X457886Y854761D01*
X458056Y854784D01*
X458225Y854810D01*
X458393Y854841D01*
X458561Y854875D01*
X458727Y854914D01*
X458893Y854956D01*
X459058Y855003D01*
X459222Y855053D01*
X459384Y855108D01*
X459545Y855166D01*
X459704Y855228D01*
X459862Y855294D01*
X460019Y855363D01*
X460173Y855437D01*
X460326Y855514D01*
X460477Y855594D01*
X460626Y855678D01*
X460773Y855766D01*
X460918Y855857D01*
X461061Y855952D01*
X461201Y856050D01*
X461339Y856152D01*
X461474Y856256D01*
X461607Y856364D01*
X461737Y856475D01*
X461865Y856589D01*
X461990Y856706D01*
X462112Y856827D01*
X461689Y866563D02*
X461687Y866679D01*
X461681Y866794D01*
X461671Y866909D01*
X461657Y867024D01*
X461640Y867138D01*
X461618Y867252D01*
X461593Y867365D01*
X461563Y867477D01*
X461530Y867588D01*
X461493Y867697D01*
X461453Y867806D01*
X461409Y867912D01*
X461361Y868018D01*
X461309Y868121D01*
X461254Y868223D01*
X461196Y868323D01*
X461134Y868421D01*
X461069Y868516D01*
X461001Y868610D01*
X460929Y868700D01*
X460855Y868789D01*
X460777Y868875D01*
X460697Y868958D01*
X460614Y869038D01*
X460528Y869116D01*
X460439Y869190D01*
X460349Y869262D01*
X460255Y869330D01*
X460160Y869395D01*
X460062Y869457D01*
X459962Y869515D01*
X459860Y869570D01*
X459757Y869622D01*
X459651Y869670D01*
X459545Y869714D01*
X459436Y869754D01*
X459327Y869791D01*
X459216Y869824D01*
X459104Y869854D01*
X458991Y869879D01*
X458877Y869901D01*
X458763Y869918D01*
X458648Y869932D01*
X458533Y869942D01*
X458418Y869948D01*
X458302Y869950D01*
X458145Y869948D01*
X457988Y869942D01*
X457831Y869933D01*
X457674Y869919D01*
X457518Y869901D01*
X457362Y869880D01*
X457207Y869855D01*
X457053Y869826D01*
X456899Y869793D01*
X456746Y869757D01*
X456594Y869716D01*
X456444Y869672D01*
X456294Y869624D01*
X456145Y869573D01*
X455998Y869517D01*
X455853Y869459D01*
X455708Y869396D01*
X455566Y869330D01*
X455425Y869261D01*
X455286Y869188D01*
X455148Y869111D01*
X455013Y869032D01*
X454879Y868949D01*
X454748Y868862D01*
X454619Y868773D01*
X454492Y868680D01*
X459996Y863599D02*
X460095Y863659D01*
X460191Y863723D01*
X460285Y863789D01*
X460377Y863859D01*
X460466Y863932D01*
X460553Y864008D01*
X460637Y864086D01*
X460719Y864167D01*
X460798Y864251D01*
X460874Y864338D01*
X460947Y864427D01*
X461017Y864519D01*
X461084Y864612D01*
X461147Y864708D01*
X461208Y864806D01*
X461265Y864907D01*
X461319Y865008D01*
X461369Y865112D01*
X461416Y865217D01*
X461459Y865324D01*
X461499Y865432D01*
X461535Y865542D01*
X461567Y865652D01*
X461596Y865764D01*
X461621Y865876D01*
X461642Y865990D01*
X461659Y866104D01*
X461673Y866218D01*
X461682Y866333D01*
X461688Y866448D01*
X461690Y866563D01*
X455339Y861061D02*
X455240Y861001D01*
X455144Y860937D01*
X455050Y860871D01*
X454958Y860801D01*
X454869Y860728D01*
X454782Y860652D01*
X454698Y860574D01*
X454616Y860493D01*
X454537Y860409D01*
X454461Y860322D01*
X454388Y860233D01*
X454318Y860141D01*
X454251Y860048D01*
X454188Y859952D01*
X454127Y859854D01*
X454070Y859753D01*
X454016Y859652D01*
X453966Y859548D01*
X453919Y859443D01*
X453876Y859336D01*
X453836Y859228D01*
X453800Y859118D01*
X453768Y859008D01*
X453739Y858896D01*
X453714Y858784D01*
X453693Y858670D01*
X453676Y858556D01*
X453662Y858442D01*
X453653Y858327D01*
X453647Y858212D01*
X453645Y858097D01*
X455339Y861060D02*
X459996Y863600D01*
X447458Y869950D02*
X444071Y854710D01*
X440685Y864870D01*
X437298Y854710D01*
X433911Y869950D01*
X426096Y869950D02*
X426096Y854710D01*
X427789Y854710D02*
X424402Y854710D01*
X424402Y869950D02*
X427789Y869950D01*
X414633Y869950D02*
X414633Y854710D01*
X418866Y869950D02*
X410399Y869950D01*
X400946Y854710D02*
X397559Y854710D01*
X400946Y854710D02*
X401062Y854712D01*
X401177Y854718D01*
X401292Y854728D01*
X401407Y854742D01*
X401521Y854759D01*
X401635Y854781D01*
X401748Y854806D01*
X401860Y854836D01*
X401971Y854869D01*
X402080Y854906D01*
X402189Y854946D01*
X402295Y854990D01*
X402401Y855038D01*
X402504Y855090D01*
X402606Y855145D01*
X402706Y855203D01*
X402804Y855265D01*
X402899Y855330D01*
X402993Y855398D01*
X403084Y855470D01*
X403172Y855544D01*
X403258Y855622D01*
X403341Y855702D01*
X403421Y855785D01*
X403499Y855871D01*
X403573Y855960D01*
X403645Y856050D01*
X403713Y856144D01*
X403778Y856239D01*
X403840Y856337D01*
X403898Y856437D01*
X403953Y856539D01*
X404005Y856642D01*
X404053Y856748D01*
X404097Y856854D01*
X404137Y856963D01*
X404174Y857072D01*
X404207Y857183D01*
X404237Y857295D01*
X404262Y857408D01*
X404284Y857522D01*
X404301Y857636D01*
X404315Y857751D01*
X404325Y857866D01*
X404331Y857981D01*
X404333Y858097D01*
X404332Y858097D02*
X404332Y866563D01*
X404333Y866563D02*
X404331Y866679D01*
X404325Y866794D01*
X404315Y866909D01*
X404301Y867024D01*
X404284Y867138D01*
X404262Y867252D01*
X404237Y867365D01*
X404207Y867477D01*
X404174Y867588D01*
X404137Y867697D01*
X404097Y867806D01*
X404053Y867912D01*
X404005Y868018D01*
X403953Y868121D01*
X403898Y868223D01*
X403840Y868323D01*
X403778Y868421D01*
X403713Y868516D01*
X403645Y868610D01*
X403573Y868700D01*
X403499Y868789D01*
X403421Y868875D01*
X403341Y868958D01*
X403258Y869038D01*
X403172Y869116D01*
X403084Y869190D01*
X402993Y869262D01*
X402899Y869330D01*
X402804Y869395D01*
X402706Y869457D01*
X402606Y869515D01*
X402504Y869570D01*
X402401Y869622D01*
X402295Y869670D01*
X402189Y869714D01*
X402080Y869754D01*
X401971Y869791D01*
X401860Y869824D01*
X401748Y869854D01*
X401635Y869879D01*
X401522Y869901D01*
X401407Y869918D01*
X401292Y869932D01*
X401177Y869942D01*
X401062Y869948D01*
X400946Y869950D01*
X397559Y869950D01*
X390730Y869950D02*
X390730Y854710D01*
X390730Y863177D02*
X382263Y863177D01*
X382263Y869950D02*
X382263Y854710D01*
X375294Y853017D02*
X368521Y853017D01*
X358881Y854710D02*
X358881Y869950D01*
X354648Y869950D02*
X363115Y869950D01*
X344292Y869950D02*
X349372Y854710D01*
X339212Y854710D02*
X344292Y869950D01*
X340482Y858520D02*
X348102Y858520D01*
X332076Y863177D02*
X327843Y863177D01*
X327843Y863176D02*
X327714Y863174D01*
X327585Y863168D01*
X327456Y863158D01*
X327328Y863145D01*
X327200Y863127D01*
X327073Y863105D01*
X326946Y863080D01*
X326820Y863051D01*
X326696Y863018D01*
X326572Y862981D01*
X326449Y862940D01*
X326328Y862896D01*
X326208Y862848D01*
X326090Y862796D01*
X325973Y862741D01*
X325858Y862682D01*
X325745Y862620D01*
X325634Y862554D01*
X325525Y862485D01*
X325418Y862413D01*
X325313Y862337D01*
X325211Y862258D01*
X325111Y862176D01*
X325014Y862092D01*
X324919Y862004D01*
X324827Y861913D01*
X324738Y861820D01*
X324652Y861724D01*
X324568Y861625D01*
X324488Y861524D01*
X324411Y861421D01*
X324337Y861315D01*
X324266Y861207D01*
X324199Y861097D01*
X324135Y860985D01*
X324074Y860870D01*
X324017Y860755D01*
X323964Y860637D01*
X323914Y860518D01*
X323868Y860398D01*
X323825Y860276D01*
X323786Y860152D01*
X323751Y860028D01*
X323720Y859903D01*
X323693Y859777D01*
X323669Y859650D01*
X323650Y859522D01*
X323634Y859394D01*
X323622Y859265D01*
X323614Y859137D01*
X323610Y859008D01*
X323610Y858878D01*
X323614Y858749D01*
X323622Y858621D01*
X323634Y858492D01*
X323650Y858364D01*
X323669Y858236D01*
X323693Y858109D01*
X323720Y857983D01*
X323751Y857858D01*
X323786Y857734D01*
X323825Y857610D01*
X323868Y857488D01*
X323914Y857368D01*
X323964Y857249D01*
X324017Y857131D01*
X324074Y857016D01*
X324135Y856901D01*
X324199Y856789D01*
X324266Y856679D01*
X324337Y856571D01*
X324411Y856465D01*
X324488Y856362D01*
X324568Y856261D01*
X324652Y856162D01*
X324738Y856066D01*
X324827Y855973D01*
X324919Y855882D01*
X325014Y855794D01*
X325111Y855710D01*
X325211Y855628D01*
X325313Y855549D01*
X325418Y855473D01*
X325525Y855401D01*
X325634Y855332D01*
X325745Y855266D01*
X325858Y855204D01*
X325973Y855145D01*
X326090Y855090D01*
X326208Y855038D01*
X326328Y854990D01*
X326449Y854946D01*
X326572Y854905D01*
X326696Y854868D01*
X326820Y854835D01*
X326946Y854806D01*
X327073Y854781D01*
X327200Y854759D01*
X327328Y854741D01*
X327456Y854728D01*
X327585Y854718D01*
X327714Y854712D01*
X327843Y854710D01*
X332076Y854710D01*
X332076Y869950D01*
X327843Y869950D01*
X327727Y869948D01*
X327612Y869942D01*
X327497Y869932D01*
X327382Y869918D01*
X327268Y869901D01*
X327154Y869879D01*
X327041Y869854D01*
X326929Y869824D01*
X326818Y869791D01*
X326709Y869754D01*
X326600Y869714D01*
X326494Y869670D01*
X326388Y869622D01*
X326285Y869570D01*
X326183Y869515D01*
X326083Y869457D01*
X325985Y869395D01*
X325890Y869330D01*
X325796Y869262D01*
X325706Y869190D01*
X325617Y869116D01*
X325531Y869038D01*
X325448Y868958D01*
X325368Y868875D01*
X325290Y868789D01*
X325216Y868700D01*
X325144Y868610D01*
X325076Y868516D01*
X325011Y868421D01*
X324949Y868323D01*
X324891Y868223D01*
X324836Y868121D01*
X324784Y868018D01*
X324736Y867912D01*
X324692Y867806D01*
X324652Y867697D01*
X324615Y867588D01*
X324582Y867477D01*
X324552Y867365D01*
X324527Y867252D01*
X324505Y867138D01*
X324488Y867024D01*
X324474Y866909D01*
X324464Y866794D01*
X324458Y866679D01*
X324456Y866563D01*
X324458Y866447D01*
X324464Y866332D01*
X324474Y866217D01*
X324488Y866102D01*
X324505Y865988D01*
X324527Y865874D01*
X324552Y865761D01*
X324582Y865649D01*
X324615Y865538D01*
X324652Y865429D01*
X324692Y865320D01*
X324736Y865214D01*
X324784Y865108D01*
X324836Y865005D01*
X324891Y864903D01*
X324949Y864803D01*
X325011Y864705D01*
X325076Y864610D01*
X325144Y864516D01*
X325216Y864426D01*
X325290Y864337D01*
X325368Y864251D01*
X325448Y864168D01*
X325531Y864088D01*
X325617Y864010D01*
X325706Y863936D01*
X325796Y863864D01*
X325890Y863796D01*
X325985Y863731D01*
X326083Y863669D01*
X326183Y863611D01*
X326285Y863556D01*
X326388Y863504D01*
X326494Y863456D01*
X326600Y863412D01*
X326709Y863372D01*
X326818Y863335D01*
X326929Y863302D01*
X327041Y863272D01*
X327154Y863247D01*
X327268Y863225D01*
X327382Y863208D01*
X327497Y863194D01*
X327612Y863184D01*
X327727Y863178D01*
X327843Y863176D01*
X312704Y854710D02*
X312588Y854712D01*
X312473Y854718D01*
X312358Y854728D01*
X312243Y854742D01*
X312129Y854759D01*
X312015Y854781D01*
X311902Y854806D01*
X311790Y854836D01*
X311679Y854869D01*
X311570Y854906D01*
X311461Y854946D01*
X311355Y854990D01*
X311249Y855038D01*
X311146Y855090D01*
X311044Y855145D01*
X310944Y855203D01*
X310846Y855265D01*
X310751Y855330D01*
X310657Y855398D01*
X310567Y855470D01*
X310478Y855544D01*
X310392Y855622D01*
X310309Y855702D01*
X310229Y855785D01*
X310151Y855871D01*
X310077Y855960D01*
X310005Y856050D01*
X309937Y856144D01*
X309872Y856239D01*
X309810Y856337D01*
X309752Y856437D01*
X309697Y856539D01*
X309645Y856642D01*
X309597Y856748D01*
X309553Y856854D01*
X309513Y856963D01*
X309476Y857072D01*
X309443Y857183D01*
X309413Y857295D01*
X309388Y857408D01*
X309366Y857522D01*
X309349Y857636D01*
X309335Y857751D01*
X309325Y857866D01*
X309319Y857981D01*
X309317Y858097D01*
X312704Y854710D02*
X312875Y854712D01*
X313046Y854718D01*
X313217Y854728D01*
X313388Y854743D01*
X313558Y854761D01*
X313728Y854784D01*
X313897Y854810D01*
X314065Y854841D01*
X314233Y854875D01*
X314399Y854914D01*
X314565Y854956D01*
X314730Y855003D01*
X314894Y855053D01*
X315056Y855108D01*
X315217Y855166D01*
X315376Y855228D01*
X315534Y855294D01*
X315691Y855363D01*
X315845Y855437D01*
X315998Y855514D01*
X316149Y855594D01*
X316298Y855678D01*
X316445Y855766D01*
X316590Y855857D01*
X316733Y855952D01*
X316873Y856050D01*
X317011Y856152D01*
X317146Y856256D01*
X317279Y856364D01*
X317409Y856475D01*
X317537Y856589D01*
X317662Y856706D01*
X317784Y856827D01*
X317361Y866563D02*
X317359Y866679D01*
X317353Y866794D01*
X317343Y866909D01*
X317329Y867024D01*
X317312Y867138D01*
X317290Y867252D01*
X317265Y867365D01*
X317235Y867477D01*
X317202Y867588D01*
X317165Y867697D01*
X317125Y867806D01*
X317081Y867912D01*
X317033Y868018D01*
X316981Y868121D01*
X316926Y868223D01*
X316868Y868323D01*
X316806Y868421D01*
X316741Y868516D01*
X316673Y868610D01*
X316601Y868700D01*
X316527Y868789D01*
X316449Y868875D01*
X316369Y868958D01*
X316286Y869038D01*
X316200Y869116D01*
X316111Y869190D01*
X316021Y869262D01*
X315927Y869330D01*
X315832Y869395D01*
X315734Y869457D01*
X315634Y869515D01*
X315532Y869570D01*
X315429Y869622D01*
X315323Y869670D01*
X315217Y869714D01*
X315108Y869754D01*
X314999Y869791D01*
X314888Y869824D01*
X314776Y869854D01*
X314663Y869879D01*
X314549Y869901D01*
X314435Y869918D01*
X314320Y869932D01*
X314205Y869942D01*
X314090Y869948D01*
X313974Y869950D01*
X313817Y869948D01*
X313660Y869942D01*
X313503Y869933D01*
X313346Y869919D01*
X313190Y869901D01*
X313034Y869880D01*
X312879Y869855D01*
X312725Y869826D01*
X312571Y869793D01*
X312418Y869757D01*
X312266Y869716D01*
X312116Y869672D01*
X311966Y869624D01*
X311817Y869573D01*
X311670Y869517D01*
X311525Y869459D01*
X311380Y869396D01*
X311238Y869330D01*
X311097Y869261D01*
X310958Y869188D01*
X310820Y869111D01*
X310685Y869032D01*
X310551Y868949D01*
X310420Y868862D01*
X310291Y868773D01*
X310164Y868680D01*
X315667Y863599D02*
X315766Y863659D01*
X315862Y863723D01*
X315956Y863789D01*
X316048Y863859D01*
X316137Y863932D01*
X316224Y864008D01*
X316308Y864086D01*
X316390Y864167D01*
X316469Y864251D01*
X316545Y864338D01*
X316618Y864427D01*
X316688Y864519D01*
X316755Y864612D01*
X316818Y864708D01*
X316879Y864806D01*
X316936Y864907D01*
X316990Y865008D01*
X317040Y865112D01*
X317087Y865217D01*
X317130Y865324D01*
X317170Y865432D01*
X317206Y865542D01*
X317238Y865652D01*
X317267Y865764D01*
X317292Y865876D01*
X317313Y865990D01*
X317330Y866104D01*
X317344Y866218D01*
X317353Y866333D01*
X317359Y866448D01*
X317361Y866563D01*
X311011Y861061D02*
X310912Y861001D01*
X310816Y860937D01*
X310722Y860871D01*
X310630Y860801D01*
X310541Y860728D01*
X310454Y860652D01*
X310370Y860574D01*
X310288Y860493D01*
X310209Y860409D01*
X310133Y860322D01*
X310060Y860233D01*
X309990Y860141D01*
X309923Y860048D01*
X309860Y859952D01*
X309799Y859854D01*
X309742Y859753D01*
X309688Y859652D01*
X309638Y859548D01*
X309591Y859443D01*
X309548Y859336D01*
X309508Y859228D01*
X309472Y859118D01*
X309440Y859008D01*
X309411Y858896D01*
X309386Y858784D01*
X309365Y858670D01*
X309348Y858556D01*
X309334Y858442D01*
X309325Y858327D01*
X309319Y858212D01*
X309317Y858097D01*
X311011Y861060D02*
X315667Y863600D01*
X302674Y854710D02*
X298440Y854710D01*
X298311Y854712D01*
X298182Y854718D01*
X298053Y854728D01*
X297925Y854741D01*
X297797Y854759D01*
X297670Y854781D01*
X297543Y854806D01*
X297417Y854835D01*
X297293Y854868D01*
X297169Y854905D01*
X297046Y854946D01*
X296925Y854990D01*
X296805Y855038D01*
X296687Y855090D01*
X296570Y855145D01*
X296455Y855204D01*
X296342Y855266D01*
X296231Y855332D01*
X296122Y855401D01*
X296015Y855473D01*
X295910Y855549D01*
X295808Y855628D01*
X295708Y855710D01*
X295611Y855794D01*
X295516Y855882D01*
X295424Y855973D01*
X295335Y856066D01*
X295249Y856162D01*
X295165Y856261D01*
X295085Y856362D01*
X295008Y856465D01*
X294934Y856571D01*
X294863Y856679D01*
X294796Y856789D01*
X294732Y856901D01*
X294671Y857016D01*
X294614Y857131D01*
X294561Y857249D01*
X294511Y857368D01*
X294465Y857488D01*
X294422Y857610D01*
X294383Y857734D01*
X294348Y857858D01*
X294317Y857983D01*
X294290Y858109D01*
X294266Y858236D01*
X294247Y858364D01*
X294231Y858492D01*
X294219Y858621D01*
X294211Y858749D01*
X294207Y858878D01*
X294207Y859008D01*
X294211Y859137D01*
X294219Y859265D01*
X294231Y859394D01*
X294247Y859522D01*
X294266Y859650D01*
X294290Y859777D01*
X294317Y859903D01*
X294348Y860028D01*
X294383Y860152D01*
X294422Y860276D01*
X294465Y860398D01*
X294511Y860518D01*
X294561Y860637D01*
X294614Y860755D01*
X294671Y860870D01*
X294732Y860985D01*
X294796Y861097D01*
X294863Y861207D01*
X294934Y861315D01*
X295008Y861421D01*
X295085Y861524D01*
X295165Y861625D01*
X295249Y861724D01*
X295335Y861820D01*
X295424Y861913D01*
X295516Y862004D01*
X295611Y862092D01*
X295708Y862176D01*
X295808Y862258D01*
X295910Y862337D01*
X296015Y862413D01*
X296122Y862485D01*
X296231Y862554D01*
X296342Y862620D01*
X296455Y862682D01*
X296570Y862741D01*
X296687Y862796D01*
X296805Y862848D01*
X296925Y862896D01*
X297046Y862940D01*
X297169Y862981D01*
X297293Y863018D01*
X297417Y863051D01*
X297543Y863080D01*
X297670Y863105D01*
X297797Y863127D01*
X297925Y863145D01*
X298053Y863158D01*
X298182Y863168D01*
X298311Y863174D01*
X298440Y863176D01*
X297594Y869950D02*
X302674Y869950D01*
X297594Y869950D02*
X297478Y869948D01*
X297363Y869942D01*
X297248Y869932D01*
X297133Y869918D01*
X297019Y869901D01*
X296905Y869879D01*
X296792Y869854D01*
X296680Y869824D01*
X296569Y869791D01*
X296460Y869754D01*
X296351Y869714D01*
X296245Y869670D01*
X296139Y869622D01*
X296036Y869570D01*
X295934Y869515D01*
X295834Y869457D01*
X295736Y869395D01*
X295641Y869330D01*
X295547Y869262D01*
X295457Y869190D01*
X295368Y869116D01*
X295282Y869038D01*
X295199Y868958D01*
X295119Y868875D01*
X295041Y868789D01*
X294967Y868700D01*
X294895Y868610D01*
X294827Y868516D01*
X294762Y868421D01*
X294700Y868323D01*
X294642Y868223D01*
X294587Y868121D01*
X294535Y868018D01*
X294487Y867912D01*
X294443Y867806D01*
X294403Y867697D01*
X294366Y867588D01*
X294333Y867477D01*
X294303Y867365D01*
X294278Y867252D01*
X294256Y867138D01*
X294239Y867024D01*
X294225Y866909D01*
X294215Y866794D01*
X294209Y866679D01*
X294207Y866563D01*
X294209Y866447D01*
X294215Y866332D01*
X294225Y866217D01*
X294239Y866102D01*
X294256Y865988D01*
X294278Y865874D01*
X294303Y865761D01*
X294333Y865649D01*
X294366Y865538D01*
X294403Y865429D01*
X294443Y865320D01*
X294487Y865214D01*
X294535Y865108D01*
X294587Y865005D01*
X294642Y864903D01*
X294700Y864803D01*
X294762Y864705D01*
X294827Y864610D01*
X294895Y864516D01*
X294967Y864426D01*
X295041Y864337D01*
X295119Y864251D01*
X295199Y864168D01*
X295282Y864088D01*
X295368Y864010D01*
X295457Y863936D01*
X295547Y863864D01*
X295641Y863796D01*
X295736Y863731D01*
X295834Y863669D01*
X295934Y863611D01*
X296036Y863556D01*
X296139Y863504D01*
X296245Y863456D01*
X296351Y863412D01*
X296460Y863372D01*
X296569Y863335D01*
X296680Y863302D01*
X296792Y863272D01*
X296905Y863247D01*
X297019Y863225D01*
X297133Y863208D01*
X297248Y863194D01*
X297363Y863184D01*
X297478Y863178D01*
X297594Y863176D01*
X297594Y863177D02*
X300980Y863177D01*
M02*
