G04 EAGLE Gerber RS-274X export*
G75*
%MOMM*%
%FSLAX34Y34*%
%LPD*%
%INSolderpaste Top*%
%IPPOS*%
%AMOC8*
5,1,8,0,0,1.08239X$1,22.5*%
G01*
%ADD10R,8.000000X10.000000*%
%ADD11R,3.810000X5.080000*%
%ADD12R,5.080000X3.810000*%
%ADD13R,1.340000X1.160000*%
%ADD14R,1.508000X3.808000*%
%ADD15R,3.810000X7.620000*%
%ADD16R,3.754000X2.108000*%
%ADD17R,1.300000X1.800000*%
%ADD18R,1.600000X1.400000*%
%ADD19R,1.800000X1.300000*%
%ADD20R,1.147000X2.408000*%


D10*
X428620Y771880D03*
X591620Y771880D03*
X428620Y259880D03*
X591620Y259880D03*
D11*
X347980Y363220D03*
X685800Y368300D03*
X353060Y802640D03*
X668020Y655320D03*
D12*
X1122680Y429260D03*
X1122680Y365760D03*
D13*
X729460Y702000D03*
X729460Y720400D03*
X729460Y738800D03*
X729460Y757200D03*
X729460Y775600D03*
X750760Y702000D03*
X750760Y720400D03*
X750760Y738800D03*
X750760Y757200D03*
X750760Y775600D03*
X772060Y702000D03*
X772060Y720400D03*
X772060Y738800D03*
X772060Y757200D03*
X772060Y775600D03*
X793360Y702000D03*
X793360Y720400D03*
X793360Y738800D03*
X793360Y757200D03*
X793360Y775600D03*
X814660Y702000D03*
X814660Y720400D03*
X814660Y738800D03*
X814660Y757200D03*
X814660Y775600D03*
D14*
X746760Y632800D03*
X797560Y632800D03*
D15*
X787400Y885190D03*
X723900Y885190D03*
X660400Y885190D03*
D16*
X988120Y566420D03*
X932120Y566420D03*
D17*
X890820Y792480D03*
X927820Y792480D03*
X927820Y759460D03*
X890820Y759460D03*
X890820Y726440D03*
X927820Y726440D03*
X1020360Y528320D03*
X1057360Y528320D03*
X1020360Y609600D03*
X1057360Y609600D03*
D18*
X533400Y203440D03*
X533400Y233440D03*
D19*
X685800Y460460D03*
X685800Y423460D03*
D18*
X487680Y233440D03*
X487680Y203440D03*
D19*
X685800Y531580D03*
X685800Y494580D03*
D17*
X973540Y660400D03*
X936540Y660400D03*
X973540Y624840D03*
X936540Y624840D03*
D20*
X990600Y730960D03*
X990600Y793040D03*
X1016000Y730960D03*
X1016000Y793040D03*
X1041400Y730960D03*
X1041400Y793040D03*
D19*
X1153160Y619040D03*
X1153160Y656040D03*
M02*
