G04 EAGLE Gerber RS-274X export*
G75*
%MOMM*%
%FSLAX34Y34*%
%LPD*%
%INSoldermask Bottom*%
%IPPOS*%
%AMOC8*
5,1,8,0,0,1.08239X$1,22.5*%
G01*
%ADD10C,3.251200*%
%ADD11P,11.043842X8X22.500000*%
%ADD12R,6.553200X6.553200*%
%ADD13C,6.553200*%
%ADD14C,2.082800*%
%ADD15R,2.603500X2.603500*%
%ADD16C,2.603500*%
%ADD17C,2.743200*%
%ADD18C,0.990600*%
%ADD19C,1.727200*%


D10*
X465100Y954900D02*
X434620Y954900D01*
X517120Y954900D02*
X547600Y954900D01*
X985240Y210960D02*
X1015720Y210960D01*
X933220Y210960D02*
X902740Y210960D01*
D11*
X322580Y232410D03*
X1122680Y232410D03*
X1122680Y932180D03*
X322580Y932180D03*
D12*
X716100Y246380D03*
D13*
X788100Y246380D03*
D14*
X1087882Y543560D02*
X1106678Y543560D01*
X1106678Y568960D02*
X1087882Y568960D01*
X1087882Y594360D02*
X1106678Y594360D01*
D10*
X924840Y954900D02*
X894360Y954900D01*
X976860Y954900D02*
X1007340Y954900D01*
D15*
X754380Y419100D03*
D16*
X788416Y419100D03*
X788416Y553720D03*
X754380Y553720D03*
D17*
X916940Y840740D03*
X929640Y431800D03*
D18*
X508000Y810260D03*
X508000Y784860D03*
X508000Y759460D03*
X213360Y881380D03*
X236220Y881380D03*
X213360Y858520D03*
X236220Y858520D03*
X510540Y254000D03*
X510540Y231140D03*
X510540Y208280D03*
X716280Y347980D03*
X739140Y347980D03*
X739140Y325120D03*
X716280Y325120D03*
X863600Y299720D03*
X889000Y299720D03*
X914400Y299720D03*
X1000760Y434340D03*
X1026160Y434340D03*
X1051560Y434340D03*
X1000760Y408940D03*
X1026160Y408940D03*
X1051560Y408940D03*
X1000760Y383540D03*
X1026160Y383540D03*
X1051560Y383540D03*
X586740Y947420D03*
X604520Y960120D03*
X624840Y965200D03*
X995680Y904240D03*
X1018540Y904240D03*
X995680Y881380D03*
X1018540Y881380D03*
X891540Y647700D03*
X891540Y624840D03*
X891540Y601980D03*
X891540Y579120D03*
X1087120Y688340D03*
X1064260Y688340D03*
X1041400Y688340D03*
X706120Y530860D03*
D19*
X1153160Y678180D03*
X970280Y866140D03*
X1122680Y464820D03*
D17*
X670560Y726440D03*
X485140Y307340D03*
D18*
X754380Y828040D03*
X889000Y828040D03*
M02*
