M48
;GenerationSoftware,Autodesk,EAGLE,9.6.2*%
;CreationDate,2022-07-22T23:01:51Z*%
FMAT,2
ICI,OFF
METRIC,TZ,000.000
T5C0.381
T4C0.635
T3C1.016
T2C1.905
T1C3.400
%
G90
M71
T1
X32258Y93218
X112268Y93218
X112268Y23241
X32258Y23241
T2
X53236Y95490
X44986Y95490
X99586Y95490
X91331Y95490
X83076Y95490
X74826Y95490
X66576Y95490
T3
X109158Y57850
X85598Y75692
X47371Y75311
X65532Y87884
X104648Y64262
X104648Y37592
T4
X52603Y79781
X107442Y83058
X42545Y84328
X70104Y78232
T5
X37846Y72644
X40386Y77973
X49276Y77724
X62992Y77216
X75438Y28539
X41910Y67310
X74168Y78740
X38481Y71247
X82042Y74676
X107950Y33020
X78704Y88356
X39154Y38608
X85852Y73152
X93218Y79883
X102870Y76962
X39497Y70358
X108458Y37338
X102108Y75438
X84836Y20193
X113284Y33274
X108204Y30226
X82169Y82804
X90551Y78651
X98552Y78613
X39878Y20320
X46101Y20320
X71628Y23114
X111125Y51308
X52705Y20320
X59055Y20320
X65405Y20193
X106959Y39116
M30