M48
;GenerationSoftware,Autodesk,EAGLE,9.6.2*%
;CreationDate,2022-07-22T23:33:55Z*%
FMAT,2
ICI,OFF
METRIC,TZ,000.000
T6C0.350
T5C0.508
T4C1.016
T3C1.300
T2C1.905
T1C3.400
%
G90
M71
T1
X32258Y93218
X112268Y93218
X112268Y23241
X32258Y23241
T2
X99586Y95109
X91331Y95109
X83081Y95109
X74831Y95109
T3
X59655Y92327
X54575Y92327
X49475Y92327
X44375Y92327
T4
X79121Y78105
X38989Y80518
X102108Y43053
X101981Y68199
X94361Y76327
X48779Y79601
T5
X109474Y70866
X109982Y77597
X100457Y78994
X104775Y60579
X99949Y51689
X114554Y54102
X35052Y32258
X57404Y29718
X96774Y36830
X97155Y39878
T6
X95123Y27178
X110236Y62484
X111125Y37211
X96266Y26289
M30