M48
;GenerationSoftware,Autodesk,EAGLE,9.6.2*%
;CreationDate,2022-07-22T23:42:50Z*%
FMAT,2
ICI,OFF
METRIC,TZ,000.000
T6C0.350
T5C0.508
T4C1.016
T3C1.300
T2C1.905
T1C3.400
%
G90
M71
T1
X32258Y23241
X112268Y23241
X112268Y93218
X32258Y93218
T2
X98524Y87390
X90274Y87390
X82024Y87390
T3
X72719Y94363
X67619Y94363
X62519Y94363
T4
X104648Y37592
X56261Y94234
X56261Y91694
X56261Y89154
X36322Y78994
X36322Y81534
X36322Y84074
T5
X105156Y75891
X61976Y72390
T6
X112776Y37084
X108331Y36322
X37338Y65405
X53848Y78994
X95631Y84963
X67945Y84963
M30