M48
;GenerationSoftware,Autodesk,EAGLE,9.6.2*%
;CreationDate,2022-07-14T03:53:43Z*%
FMAT,2
ICI,OFF
METRIC,TZ,000.000
T5C0.350
T4C0.508
T3C1.016
T2C1.905
T1C3.400
%
G90
M71
T1
X32258Y23241
X112268Y23241
X112268Y93218
X32258Y93218
T2
X98524Y87390
X90274Y87390
X82024Y87390
T3
X104648Y37592
X57404Y94107
X57404Y91567
X57404Y89027
X36322Y78994
X36322Y81534
X36322Y84074
T4
X105156Y75891
X61976Y72390
T5
X112776Y37084
X108331Y36322
X37338Y65405
X51308Y79375
X102616Y81407
X99695Y78359
M30