G04 EAGLE Gerber RS-274X export*
G75*
%MOMM*%
%FSLAX34Y34*%
%LPD*%
%INSilkscreen Top*%
%IPPOS*%
%AMOC8*
5,1,8,0,0,1.08239X$1,22.5*%
G01*
%ADD10C,0.228600*%
%ADD11C,0.406400*%
%ADD12C,2.000000*%
%ADD13C,0.177800*%
%ADD14C,0.508000*%
%ADD15C,0.762000*%
%ADD16C,0.254000*%
%ADD17C,0.203200*%
%ADD18C,0.127000*%


D10*
X1588643Y522859D02*
X1590802Y514223D01*
X1592961Y519980D01*
X1595120Y514223D01*
X1597279Y522859D01*
X1603315Y519980D02*
X1603315Y517102D01*
X1603314Y519980D02*
X1603316Y520086D01*
X1603322Y520193D01*
X1603332Y520299D01*
X1603345Y520404D01*
X1603363Y520509D01*
X1603385Y520613D01*
X1603410Y520717D01*
X1603439Y520819D01*
X1603472Y520920D01*
X1603508Y521020D01*
X1603549Y521119D01*
X1603593Y521215D01*
X1603640Y521311D01*
X1603691Y521404D01*
X1603745Y521496D01*
X1603803Y521585D01*
X1603864Y521672D01*
X1603928Y521757D01*
X1603995Y521840D01*
X1604065Y521920D01*
X1604139Y521997D01*
X1604214Y522071D01*
X1604293Y522143D01*
X1604374Y522212D01*
X1604458Y522277D01*
X1604544Y522340D01*
X1604632Y522399D01*
X1604723Y522455D01*
X1604815Y522508D01*
X1604910Y522557D01*
X1605006Y522603D01*
X1605104Y522645D01*
X1605203Y522683D01*
X1605303Y522718D01*
X1605405Y522749D01*
X1605508Y522776D01*
X1605612Y522800D01*
X1605716Y522819D01*
X1605822Y522835D01*
X1605927Y522847D01*
X1606033Y522855D01*
X1606140Y522859D01*
X1606246Y522859D01*
X1606353Y522855D01*
X1606459Y522847D01*
X1606564Y522835D01*
X1606670Y522819D01*
X1606774Y522800D01*
X1606878Y522776D01*
X1606981Y522749D01*
X1607083Y522718D01*
X1607183Y522683D01*
X1607282Y522645D01*
X1607380Y522603D01*
X1607476Y522557D01*
X1607571Y522508D01*
X1607663Y522455D01*
X1607754Y522399D01*
X1607842Y522340D01*
X1607928Y522277D01*
X1608012Y522212D01*
X1608093Y522143D01*
X1608172Y522071D01*
X1608247Y521997D01*
X1608321Y521920D01*
X1608391Y521840D01*
X1608458Y521757D01*
X1608522Y521672D01*
X1608583Y521585D01*
X1608641Y521496D01*
X1608695Y521404D01*
X1608746Y521311D01*
X1608793Y521215D01*
X1608837Y521119D01*
X1608878Y521020D01*
X1608914Y520920D01*
X1608947Y520819D01*
X1608976Y520717D01*
X1609001Y520613D01*
X1609023Y520509D01*
X1609041Y520404D01*
X1609054Y520299D01*
X1609064Y520193D01*
X1609070Y520086D01*
X1609072Y519980D01*
X1609072Y517102D01*
X1609070Y516996D01*
X1609064Y516889D01*
X1609054Y516783D01*
X1609041Y516678D01*
X1609023Y516573D01*
X1609001Y516469D01*
X1608976Y516365D01*
X1608947Y516263D01*
X1608914Y516162D01*
X1608878Y516062D01*
X1608837Y515963D01*
X1608793Y515867D01*
X1608746Y515771D01*
X1608695Y515678D01*
X1608641Y515586D01*
X1608583Y515497D01*
X1608522Y515410D01*
X1608458Y515325D01*
X1608391Y515242D01*
X1608321Y515162D01*
X1608247Y515085D01*
X1608172Y515011D01*
X1608093Y514939D01*
X1608012Y514870D01*
X1607928Y514805D01*
X1607842Y514742D01*
X1607754Y514683D01*
X1607663Y514627D01*
X1607571Y514574D01*
X1607476Y514525D01*
X1607380Y514479D01*
X1607282Y514437D01*
X1607183Y514399D01*
X1607083Y514364D01*
X1606981Y514333D01*
X1606878Y514306D01*
X1606774Y514282D01*
X1606670Y514263D01*
X1606564Y514247D01*
X1606459Y514235D01*
X1606353Y514227D01*
X1606246Y514223D01*
X1606140Y514223D01*
X1606033Y514227D01*
X1605927Y514235D01*
X1605822Y514247D01*
X1605716Y514263D01*
X1605612Y514282D01*
X1605508Y514306D01*
X1605405Y514333D01*
X1605303Y514364D01*
X1605203Y514399D01*
X1605104Y514437D01*
X1605006Y514479D01*
X1604910Y514525D01*
X1604815Y514574D01*
X1604723Y514627D01*
X1604632Y514683D01*
X1604544Y514742D01*
X1604458Y514805D01*
X1604374Y514870D01*
X1604293Y514939D01*
X1604214Y515011D01*
X1604139Y515085D01*
X1604065Y515162D01*
X1603995Y515242D01*
X1603928Y515325D01*
X1603864Y515410D01*
X1603803Y515497D01*
X1603745Y515586D01*
X1603691Y515678D01*
X1603640Y515771D01*
X1603593Y515867D01*
X1603549Y515963D01*
X1603508Y516062D01*
X1603472Y516162D01*
X1603439Y516263D01*
X1603410Y516365D01*
X1603385Y516469D01*
X1603363Y516573D01*
X1603345Y516678D01*
X1603332Y516783D01*
X1603322Y516889D01*
X1603316Y516996D01*
X1603314Y517102D01*
X1615748Y514223D02*
X1615748Y522859D01*
X1620066Y522859D01*
X1620066Y521420D01*
X1630417Y527177D02*
X1630417Y514223D01*
X1626818Y514223D01*
X1626726Y514225D01*
X1626635Y514231D01*
X1626544Y514240D01*
X1626453Y514254D01*
X1626363Y514271D01*
X1626274Y514293D01*
X1626186Y514318D01*
X1626099Y514346D01*
X1626013Y514379D01*
X1625929Y514415D01*
X1625846Y514454D01*
X1625765Y514497D01*
X1625686Y514544D01*
X1625609Y514593D01*
X1625534Y514646D01*
X1625462Y514702D01*
X1625392Y514761D01*
X1625324Y514823D01*
X1625259Y514888D01*
X1625197Y514956D01*
X1625138Y515026D01*
X1625082Y515098D01*
X1625029Y515173D01*
X1624980Y515250D01*
X1624933Y515329D01*
X1624890Y515410D01*
X1624851Y515493D01*
X1624815Y515577D01*
X1624782Y515663D01*
X1624754Y515750D01*
X1624729Y515838D01*
X1624707Y515927D01*
X1624690Y516017D01*
X1624676Y516108D01*
X1624667Y516199D01*
X1624661Y516290D01*
X1624659Y516382D01*
X1624659Y520700D01*
X1624661Y520792D01*
X1624667Y520883D01*
X1624676Y520974D01*
X1624690Y521065D01*
X1624707Y521155D01*
X1624729Y521244D01*
X1624754Y521332D01*
X1624782Y521419D01*
X1624815Y521505D01*
X1624851Y521589D01*
X1624890Y521672D01*
X1624933Y521753D01*
X1624980Y521832D01*
X1625029Y521909D01*
X1625082Y521984D01*
X1625138Y522056D01*
X1625197Y522126D01*
X1625259Y522194D01*
X1625324Y522259D01*
X1625392Y522321D01*
X1625462Y522380D01*
X1625534Y522436D01*
X1625609Y522489D01*
X1625686Y522538D01*
X1625765Y522585D01*
X1625846Y522628D01*
X1625929Y522667D01*
X1626013Y522703D01*
X1626099Y522736D01*
X1626186Y522764D01*
X1626274Y522789D01*
X1626363Y522811D01*
X1626453Y522828D01*
X1626544Y522842D01*
X1626635Y522851D01*
X1626726Y522857D01*
X1626818Y522859D01*
X1630417Y522859D01*
D11*
X311178Y340868D02*
X311178Y324612D01*
X309372Y324612D02*
X312984Y324612D01*
X312984Y340868D02*
X309372Y340868D01*
X321227Y340868D02*
X321227Y324612D01*
X330258Y324612D02*
X321227Y340868D01*
X330258Y340868D02*
X330258Y324612D01*
X339549Y330934D02*
X350386Y330934D01*
X344967Y336352D02*
X344967Y325515D01*
X1095474Y333643D02*
X1098183Y333643D01*
X1098183Y324612D01*
X1092764Y324612D01*
X1092646Y324614D01*
X1092528Y324620D01*
X1092410Y324629D01*
X1092293Y324643D01*
X1092176Y324660D01*
X1092059Y324681D01*
X1091944Y324706D01*
X1091829Y324735D01*
X1091715Y324768D01*
X1091603Y324804D01*
X1091492Y324844D01*
X1091382Y324887D01*
X1091273Y324934D01*
X1091166Y324984D01*
X1091061Y325039D01*
X1090958Y325096D01*
X1090857Y325157D01*
X1090757Y325221D01*
X1090660Y325288D01*
X1090565Y325358D01*
X1090473Y325432D01*
X1090382Y325508D01*
X1090295Y325588D01*
X1090210Y325670D01*
X1090128Y325755D01*
X1090048Y325842D01*
X1089972Y325933D01*
X1089898Y326025D01*
X1089828Y326120D01*
X1089761Y326217D01*
X1089697Y326317D01*
X1089636Y326418D01*
X1089579Y326521D01*
X1089524Y326626D01*
X1089474Y326733D01*
X1089427Y326842D01*
X1089384Y326952D01*
X1089344Y327063D01*
X1089308Y327175D01*
X1089275Y327289D01*
X1089246Y327404D01*
X1089221Y327519D01*
X1089200Y327636D01*
X1089183Y327753D01*
X1089169Y327870D01*
X1089160Y327988D01*
X1089154Y328106D01*
X1089152Y328224D01*
X1089152Y337256D01*
X1089154Y337374D01*
X1089160Y337492D01*
X1089169Y337610D01*
X1089183Y337727D01*
X1089200Y337844D01*
X1089221Y337961D01*
X1089246Y338076D01*
X1089275Y338191D01*
X1089308Y338305D01*
X1089344Y338417D01*
X1089384Y338528D01*
X1089427Y338638D01*
X1089474Y338747D01*
X1089524Y338854D01*
X1089578Y338959D01*
X1089636Y339062D01*
X1089697Y339163D01*
X1089761Y339263D01*
X1089828Y339360D01*
X1089898Y339455D01*
X1089972Y339547D01*
X1090048Y339638D01*
X1090128Y339725D01*
X1090210Y339810D01*
X1090295Y339892D01*
X1090382Y339972D01*
X1090473Y340048D01*
X1090565Y340122D01*
X1090660Y340192D01*
X1090757Y340259D01*
X1090857Y340323D01*
X1090958Y340384D01*
X1091061Y340441D01*
X1091166Y340495D01*
X1091273Y340546D01*
X1091382Y340593D01*
X1091492Y340636D01*
X1091603Y340676D01*
X1091715Y340712D01*
X1091829Y340745D01*
X1091944Y340774D01*
X1092059Y340799D01*
X1092176Y340820D01*
X1092293Y340837D01*
X1092410Y340851D01*
X1092528Y340860D01*
X1092646Y340866D01*
X1092764Y340868D01*
X1098183Y340868D01*
X1107794Y340868D02*
X1107794Y324612D01*
X1116825Y324612D02*
X1107794Y340868D01*
X1116825Y340868D02*
X1116825Y324612D01*
X1126437Y324612D02*
X1126437Y340868D01*
X1130952Y340868D01*
X1131083Y340866D01*
X1131215Y340860D01*
X1131346Y340851D01*
X1131476Y340837D01*
X1131607Y340820D01*
X1131736Y340799D01*
X1131865Y340775D01*
X1131993Y340746D01*
X1132121Y340714D01*
X1132247Y340678D01*
X1132372Y340639D01*
X1132497Y340596D01*
X1132619Y340549D01*
X1132741Y340499D01*
X1132861Y340445D01*
X1132979Y340388D01*
X1133095Y340327D01*
X1133210Y340263D01*
X1133323Y340196D01*
X1133434Y340125D01*
X1133542Y340051D01*
X1133649Y339974D01*
X1133753Y339894D01*
X1133855Y339811D01*
X1133954Y339726D01*
X1134051Y339637D01*
X1134145Y339545D01*
X1134237Y339451D01*
X1134326Y339354D01*
X1134411Y339255D01*
X1134494Y339153D01*
X1134574Y339049D01*
X1134651Y338942D01*
X1134725Y338834D01*
X1134796Y338723D01*
X1134863Y338610D01*
X1134927Y338495D01*
X1134988Y338379D01*
X1135045Y338261D01*
X1135099Y338141D01*
X1135149Y338019D01*
X1135196Y337897D01*
X1135239Y337772D01*
X1135278Y337647D01*
X1135314Y337521D01*
X1135346Y337393D01*
X1135375Y337265D01*
X1135399Y337136D01*
X1135420Y337007D01*
X1135437Y336876D01*
X1135451Y336746D01*
X1135460Y336615D01*
X1135466Y336483D01*
X1135468Y336352D01*
X1135468Y329128D01*
X1135466Y328997D01*
X1135460Y328865D01*
X1135451Y328734D01*
X1135437Y328604D01*
X1135420Y328473D01*
X1135399Y328344D01*
X1135375Y328215D01*
X1135346Y328087D01*
X1135314Y327959D01*
X1135278Y327833D01*
X1135239Y327708D01*
X1135196Y327583D01*
X1135149Y327461D01*
X1135099Y327339D01*
X1135045Y327219D01*
X1134988Y327101D01*
X1134927Y326985D01*
X1134863Y326870D01*
X1134796Y326757D01*
X1134725Y326646D01*
X1134651Y326538D01*
X1134574Y326431D01*
X1134494Y326327D01*
X1134411Y326225D01*
X1134326Y326126D01*
X1134237Y326029D01*
X1134145Y325935D01*
X1134051Y325843D01*
X1133954Y325754D01*
X1133855Y325669D01*
X1133753Y325586D01*
X1133649Y325506D01*
X1133542Y325429D01*
X1133434Y325355D01*
X1133323Y325284D01*
X1133210Y325217D01*
X1133095Y325153D01*
X1132979Y325092D01*
X1132861Y325035D01*
X1132741Y324981D01*
X1132619Y324931D01*
X1132497Y324884D01*
X1132372Y324841D01*
X1132247Y324802D01*
X1132121Y324766D01*
X1131993Y324734D01*
X1131865Y324705D01*
X1131736Y324681D01*
X1131606Y324660D01*
X1131476Y324643D01*
X1131346Y324629D01*
X1131215Y324620D01*
X1131083Y324614D01*
X1130952Y324612D01*
X1126437Y324612D01*
X1144759Y330934D02*
X1155596Y330934D01*
X310783Y834023D02*
X308074Y834023D01*
X310783Y834023D02*
X310783Y824992D01*
X305364Y824992D01*
X305246Y824994D01*
X305128Y825000D01*
X305010Y825009D01*
X304893Y825023D01*
X304776Y825040D01*
X304659Y825061D01*
X304544Y825086D01*
X304429Y825115D01*
X304315Y825148D01*
X304203Y825184D01*
X304092Y825224D01*
X303982Y825267D01*
X303873Y825314D01*
X303766Y825364D01*
X303661Y825419D01*
X303558Y825476D01*
X303457Y825537D01*
X303357Y825601D01*
X303260Y825668D01*
X303165Y825738D01*
X303073Y825812D01*
X302982Y825888D01*
X302895Y825968D01*
X302810Y826050D01*
X302728Y826135D01*
X302648Y826222D01*
X302572Y826313D01*
X302498Y826405D01*
X302428Y826500D01*
X302361Y826597D01*
X302297Y826697D01*
X302236Y826798D01*
X302179Y826901D01*
X302124Y827006D01*
X302074Y827113D01*
X302027Y827222D01*
X301984Y827332D01*
X301944Y827443D01*
X301908Y827555D01*
X301875Y827669D01*
X301846Y827784D01*
X301821Y827899D01*
X301800Y828016D01*
X301783Y828133D01*
X301769Y828250D01*
X301760Y828368D01*
X301754Y828486D01*
X301752Y828604D01*
X301752Y837636D01*
X301754Y837754D01*
X301760Y837872D01*
X301769Y837990D01*
X301783Y838107D01*
X301800Y838224D01*
X301821Y838341D01*
X301846Y838456D01*
X301875Y838571D01*
X301908Y838685D01*
X301944Y838797D01*
X301984Y838908D01*
X302027Y839018D01*
X302074Y839127D01*
X302124Y839234D01*
X302178Y839339D01*
X302236Y839442D01*
X302297Y839543D01*
X302361Y839643D01*
X302428Y839740D01*
X302498Y839835D01*
X302572Y839927D01*
X302648Y840018D01*
X302728Y840105D01*
X302810Y840190D01*
X302895Y840272D01*
X302982Y840352D01*
X303073Y840428D01*
X303165Y840502D01*
X303260Y840572D01*
X303357Y840639D01*
X303457Y840703D01*
X303558Y840764D01*
X303661Y840821D01*
X303766Y840875D01*
X303873Y840926D01*
X303982Y840973D01*
X304092Y841016D01*
X304203Y841056D01*
X304315Y841092D01*
X304429Y841125D01*
X304544Y841154D01*
X304659Y841179D01*
X304776Y841200D01*
X304893Y841217D01*
X305010Y841231D01*
X305128Y841240D01*
X305246Y841246D01*
X305364Y841248D01*
X310783Y841248D01*
X320394Y841248D02*
X320394Y824992D01*
X329425Y824992D02*
X320394Y841248D01*
X329425Y841248D02*
X329425Y824992D01*
X339037Y824992D02*
X339037Y841248D01*
X343552Y841248D01*
X343683Y841246D01*
X343815Y841240D01*
X343946Y841231D01*
X344076Y841217D01*
X344207Y841200D01*
X344336Y841179D01*
X344465Y841155D01*
X344593Y841126D01*
X344721Y841094D01*
X344847Y841058D01*
X344972Y841019D01*
X345097Y840976D01*
X345219Y840929D01*
X345341Y840879D01*
X345461Y840825D01*
X345579Y840768D01*
X345695Y840707D01*
X345810Y840643D01*
X345923Y840576D01*
X346034Y840505D01*
X346142Y840431D01*
X346249Y840354D01*
X346353Y840274D01*
X346455Y840191D01*
X346554Y840106D01*
X346651Y840017D01*
X346745Y839925D01*
X346837Y839831D01*
X346926Y839734D01*
X347011Y839635D01*
X347094Y839533D01*
X347174Y839429D01*
X347251Y839322D01*
X347325Y839214D01*
X347396Y839103D01*
X347463Y838990D01*
X347527Y838875D01*
X347588Y838759D01*
X347645Y838641D01*
X347699Y838521D01*
X347749Y838399D01*
X347796Y838277D01*
X347839Y838152D01*
X347878Y838027D01*
X347914Y837901D01*
X347946Y837773D01*
X347975Y837645D01*
X347999Y837516D01*
X348020Y837387D01*
X348037Y837256D01*
X348051Y837126D01*
X348060Y836995D01*
X348066Y836863D01*
X348068Y836732D01*
X348068Y829508D01*
X348066Y829377D01*
X348060Y829245D01*
X348051Y829114D01*
X348037Y828984D01*
X348020Y828853D01*
X347999Y828724D01*
X347975Y828595D01*
X347946Y828467D01*
X347914Y828339D01*
X347878Y828213D01*
X347839Y828088D01*
X347796Y827963D01*
X347749Y827841D01*
X347699Y827719D01*
X347645Y827599D01*
X347588Y827481D01*
X347527Y827365D01*
X347463Y827250D01*
X347396Y827137D01*
X347325Y827026D01*
X347251Y826918D01*
X347174Y826811D01*
X347094Y826707D01*
X347011Y826605D01*
X346926Y826506D01*
X346837Y826409D01*
X346745Y826315D01*
X346651Y826223D01*
X346554Y826134D01*
X346455Y826049D01*
X346353Y825966D01*
X346249Y825886D01*
X346142Y825809D01*
X346034Y825735D01*
X345923Y825664D01*
X345810Y825597D01*
X345695Y825533D01*
X345579Y825472D01*
X345461Y825415D01*
X345341Y825361D01*
X345219Y825311D01*
X345097Y825264D01*
X344972Y825221D01*
X344847Y825182D01*
X344721Y825146D01*
X344593Y825114D01*
X344465Y825085D01*
X344336Y825061D01*
X344206Y825040D01*
X344076Y825023D01*
X343946Y825009D01*
X343815Y825000D01*
X343683Y824994D01*
X343552Y824992D01*
X339037Y824992D01*
X357359Y831314D02*
X368196Y831314D01*
X1107468Y824992D02*
X1107468Y841248D01*
X1105662Y824992D02*
X1109274Y824992D01*
X1109274Y841248D02*
X1105662Y841248D01*
X1117517Y841248D02*
X1117517Y824992D01*
X1126548Y824992D02*
X1117517Y841248D01*
X1126548Y841248D02*
X1126548Y824992D01*
X1135839Y831314D02*
X1146676Y831314D01*
X1141257Y836732D02*
X1141257Y825895D01*
D12*
X252580Y232410D02*
X252601Y234128D01*
X252664Y235845D01*
X252770Y237560D01*
X252917Y239271D01*
X253106Y240979D01*
X253338Y242681D01*
X253611Y244377D01*
X253925Y246066D01*
X254281Y247747D01*
X254678Y249419D01*
X255116Y251080D01*
X255594Y252730D01*
X256113Y254368D01*
X256672Y255992D01*
X257271Y257603D01*
X257908Y259198D01*
X258585Y260777D01*
X259301Y262339D01*
X260054Y263883D01*
X260846Y265408D01*
X261674Y266913D01*
X262539Y268397D01*
X263440Y269860D01*
X264377Y271300D01*
X265349Y272717D01*
X266355Y274109D01*
X267396Y275476D01*
X268469Y276818D01*
X269575Y278132D01*
X270713Y279419D01*
X271883Y280678D01*
X273083Y281907D01*
X274312Y283107D01*
X275571Y284277D01*
X276858Y285415D01*
X278172Y286521D01*
X279514Y287594D01*
X280881Y288635D01*
X282273Y289641D01*
X283690Y290613D01*
X285130Y291550D01*
X286593Y292451D01*
X288077Y293316D01*
X289582Y294144D01*
X291107Y294936D01*
X292651Y295689D01*
X294213Y296405D01*
X295792Y297082D01*
X297387Y297719D01*
X298998Y298318D01*
X300622Y298877D01*
X302260Y299396D01*
X303910Y299874D01*
X305571Y300312D01*
X307243Y300709D01*
X308924Y301065D01*
X310613Y301379D01*
X312309Y301652D01*
X314011Y301884D01*
X315719Y302073D01*
X317430Y302220D01*
X319145Y302326D01*
X320862Y302389D01*
X322580Y302410D01*
X324298Y302389D01*
X326015Y302326D01*
X327730Y302220D01*
X329441Y302073D01*
X331149Y301884D01*
X332851Y301652D01*
X334547Y301379D01*
X336236Y301065D01*
X337917Y300709D01*
X339589Y300312D01*
X341250Y299874D01*
X342900Y299396D01*
X344538Y298877D01*
X346162Y298318D01*
X347773Y297719D01*
X349368Y297082D01*
X350947Y296405D01*
X352509Y295689D01*
X354053Y294936D01*
X355578Y294144D01*
X357083Y293316D01*
X358567Y292451D01*
X360030Y291550D01*
X361470Y290613D01*
X362887Y289641D01*
X364279Y288635D01*
X365646Y287594D01*
X366988Y286521D01*
X368302Y285415D01*
X369589Y284277D01*
X370848Y283107D01*
X372077Y281907D01*
X373277Y280678D01*
X374447Y279419D01*
X375585Y278132D01*
X376691Y276818D01*
X377764Y275476D01*
X378805Y274109D01*
X379811Y272717D01*
X380783Y271300D01*
X381720Y269860D01*
X382621Y268397D01*
X383486Y266913D01*
X384314Y265408D01*
X385106Y263883D01*
X385859Y262339D01*
X386575Y260777D01*
X387252Y259198D01*
X387889Y257603D01*
X388488Y255992D01*
X389047Y254368D01*
X389566Y252730D01*
X390044Y251080D01*
X390482Y249419D01*
X390879Y247747D01*
X391235Y246066D01*
X391549Y244377D01*
X391822Y242681D01*
X392054Y240979D01*
X392243Y239271D01*
X392390Y237560D01*
X392496Y235845D01*
X392559Y234128D01*
X392580Y232410D01*
X392559Y230692D01*
X392496Y228975D01*
X392390Y227260D01*
X392243Y225549D01*
X392054Y223841D01*
X391822Y222139D01*
X391549Y220443D01*
X391235Y218754D01*
X390879Y217073D01*
X390482Y215401D01*
X390044Y213740D01*
X389566Y212090D01*
X389047Y210452D01*
X388488Y208828D01*
X387889Y207217D01*
X387252Y205622D01*
X386575Y204043D01*
X385859Y202481D01*
X385106Y200937D01*
X384314Y199412D01*
X383486Y197907D01*
X382621Y196423D01*
X381720Y194960D01*
X380783Y193520D01*
X379811Y192103D01*
X378805Y190711D01*
X377764Y189344D01*
X376691Y188002D01*
X375585Y186688D01*
X374447Y185401D01*
X373277Y184142D01*
X372077Y182913D01*
X370848Y181713D01*
X369589Y180543D01*
X368302Y179405D01*
X366988Y178299D01*
X365646Y177226D01*
X364279Y176185D01*
X362887Y175179D01*
X361470Y174207D01*
X360030Y173270D01*
X358567Y172369D01*
X357083Y171504D01*
X355578Y170676D01*
X354053Y169884D01*
X352509Y169131D01*
X350947Y168415D01*
X349368Y167738D01*
X347773Y167101D01*
X346162Y166502D01*
X344538Y165943D01*
X342900Y165424D01*
X341250Y164946D01*
X339589Y164508D01*
X337917Y164111D01*
X336236Y163755D01*
X334547Y163441D01*
X332851Y163168D01*
X331149Y162936D01*
X329441Y162747D01*
X327730Y162600D01*
X326015Y162494D01*
X324298Y162431D01*
X322580Y162410D01*
X320862Y162431D01*
X319145Y162494D01*
X317430Y162600D01*
X315719Y162747D01*
X314011Y162936D01*
X312309Y163168D01*
X310613Y163441D01*
X308924Y163755D01*
X307243Y164111D01*
X305571Y164508D01*
X303910Y164946D01*
X302260Y165424D01*
X300622Y165943D01*
X298998Y166502D01*
X297387Y167101D01*
X295792Y167738D01*
X294213Y168415D01*
X292651Y169131D01*
X291107Y169884D01*
X289582Y170676D01*
X288077Y171504D01*
X286593Y172369D01*
X285130Y173270D01*
X283690Y174207D01*
X282273Y175179D01*
X280881Y176185D01*
X279514Y177226D01*
X278172Y178299D01*
X276858Y179405D01*
X275571Y180543D01*
X274312Y181713D01*
X273083Y182913D01*
X271883Y184142D01*
X270713Y185401D01*
X269575Y186688D01*
X268469Y188002D01*
X267396Y189344D01*
X266355Y190711D01*
X265349Y192103D01*
X264377Y193520D01*
X263440Y194960D01*
X262539Y196423D01*
X261674Y197907D01*
X260846Y199412D01*
X260054Y200937D01*
X259301Y202481D01*
X258585Y204043D01*
X257908Y205622D01*
X257271Y207217D01*
X256672Y208828D01*
X256113Y210452D01*
X255594Y212090D01*
X255116Y213740D01*
X254678Y215401D01*
X254281Y217073D01*
X253925Y218754D01*
X253611Y220443D01*
X253338Y222139D01*
X253106Y223841D01*
X252917Y225549D01*
X252770Y227260D01*
X252664Y228975D01*
X252601Y230692D01*
X252580Y232410D01*
D13*
X1461389Y524129D02*
X1461389Y535051D01*
X1461389Y530197D02*
X1467457Y530197D01*
X1467457Y535051D02*
X1467457Y524129D01*
X1473200Y532624D02*
X1476234Y535051D01*
X1476234Y524129D01*
X1473200Y524129D02*
X1479268Y524129D01*
X1458849Y548259D02*
X1458849Y559181D01*
X1462490Y553113D01*
X1466130Y559181D01*
X1466130Y548259D01*
X1472029Y548259D02*
X1475063Y548259D01*
X1475171Y548261D01*
X1475279Y548267D01*
X1475387Y548276D01*
X1475495Y548290D01*
X1475602Y548307D01*
X1475708Y548328D01*
X1475813Y548353D01*
X1475918Y548382D01*
X1476021Y548414D01*
X1476123Y548450D01*
X1476224Y548490D01*
X1476323Y548533D01*
X1476421Y548580D01*
X1476517Y548630D01*
X1476611Y548684D01*
X1476703Y548741D01*
X1476793Y548801D01*
X1476881Y548864D01*
X1476967Y548931D01*
X1477050Y549000D01*
X1477130Y549072D01*
X1477208Y549148D01*
X1477284Y549226D01*
X1477356Y549306D01*
X1477425Y549389D01*
X1477492Y549475D01*
X1477555Y549563D01*
X1477615Y549653D01*
X1477672Y549745D01*
X1477726Y549839D01*
X1477776Y549935D01*
X1477823Y550033D01*
X1477866Y550132D01*
X1477906Y550233D01*
X1477942Y550335D01*
X1477974Y550438D01*
X1478003Y550543D01*
X1478028Y550648D01*
X1478049Y550754D01*
X1478066Y550861D01*
X1478080Y550969D01*
X1478089Y551077D01*
X1478095Y551185D01*
X1478097Y551293D01*
X1478095Y551401D01*
X1478089Y551509D01*
X1478080Y551617D01*
X1478066Y551725D01*
X1478049Y551832D01*
X1478028Y551938D01*
X1478003Y552043D01*
X1477974Y552148D01*
X1477942Y552251D01*
X1477906Y552353D01*
X1477866Y552454D01*
X1477823Y552553D01*
X1477776Y552651D01*
X1477726Y552747D01*
X1477672Y552841D01*
X1477615Y552933D01*
X1477555Y553023D01*
X1477492Y553111D01*
X1477425Y553197D01*
X1477356Y553280D01*
X1477284Y553360D01*
X1477208Y553438D01*
X1477130Y553514D01*
X1477050Y553586D01*
X1476967Y553655D01*
X1476881Y553722D01*
X1476793Y553785D01*
X1476703Y553845D01*
X1476611Y553902D01*
X1476517Y553956D01*
X1476421Y554006D01*
X1476323Y554053D01*
X1476224Y554096D01*
X1476123Y554136D01*
X1476021Y554172D01*
X1475918Y554204D01*
X1475813Y554233D01*
X1475708Y554258D01*
X1475602Y554279D01*
X1475495Y554296D01*
X1475387Y554310D01*
X1475279Y554319D01*
X1475171Y554325D01*
X1475063Y554327D01*
X1475669Y559181D02*
X1472029Y559181D01*
X1475669Y559181D02*
X1475767Y559179D01*
X1475864Y559173D01*
X1475962Y559163D01*
X1476058Y559150D01*
X1476154Y559132D01*
X1476250Y559110D01*
X1476344Y559085D01*
X1476438Y559056D01*
X1476530Y559023D01*
X1476620Y558987D01*
X1476709Y558947D01*
X1476797Y558903D01*
X1476883Y558856D01*
X1476966Y558805D01*
X1477048Y558751D01*
X1477127Y558694D01*
X1477204Y558634D01*
X1477278Y558571D01*
X1477350Y558504D01*
X1477419Y558435D01*
X1477486Y558363D01*
X1477549Y558289D01*
X1477609Y558212D01*
X1477666Y558133D01*
X1477720Y558051D01*
X1477771Y557968D01*
X1477818Y557882D01*
X1477862Y557794D01*
X1477902Y557705D01*
X1477938Y557615D01*
X1477971Y557523D01*
X1478000Y557429D01*
X1478025Y557335D01*
X1478047Y557239D01*
X1478065Y557143D01*
X1478078Y557047D01*
X1478088Y556949D01*
X1478094Y556852D01*
X1478096Y556754D01*
X1478094Y556656D01*
X1478088Y556559D01*
X1478078Y556461D01*
X1478065Y556365D01*
X1478047Y556269D01*
X1478025Y556173D01*
X1478000Y556079D01*
X1477971Y555985D01*
X1477938Y555893D01*
X1477902Y555803D01*
X1477862Y555714D01*
X1477818Y555626D01*
X1477771Y555541D01*
X1477720Y555457D01*
X1477666Y555375D01*
X1477609Y555296D01*
X1477549Y555219D01*
X1477486Y555145D01*
X1477419Y555073D01*
X1477350Y555004D01*
X1477278Y554937D01*
X1477204Y554874D01*
X1477127Y554814D01*
X1477048Y554757D01*
X1476966Y554703D01*
X1476883Y554652D01*
X1476797Y554605D01*
X1476709Y554561D01*
X1476620Y554521D01*
X1476530Y554485D01*
X1476438Y554452D01*
X1476344Y554423D01*
X1476250Y554398D01*
X1476154Y554376D01*
X1476058Y554358D01*
X1475962Y554345D01*
X1475864Y554335D01*
X1475767Y554329D01*
X1475669Y554327D01*
X1473242Y554327D01*
X1482923Y547045D02*
X1487777Y547045D01*
X1493217Y554327D02*
X1496250Y554327D01*
X1496358Y554325D01*
X1496466Y554319D01*
X1496574Y554310D01*
X1496682Y554296D01*
X1496789Y554279D01*
X1496895Y554258D01*
X1497000Y554233D01*
X1497105Y554204D01*
X1497208Y554172D01*
X1497310Y554136D01*
X1497411Y554096D01*
X1497510Y554053D01*
X1497608Y554006D01*
X1497704Y553956D01*
X1497798Y553902D01*
X1497890Y553845D01*
X1497980Y553785D01*
X1498068Y553722D01*
X1498154Y553655D01*
X1498237Y553586D01*
X1498317Y553514D01*
X1498395Y553438D01*
X1498471Y553360D01*
X1498543Y553280D01*
X1498612Y553197D01*
X1498679Y553111D01*
X1498742Y553023D01*
X1498802Y552933D01*
X1498859Y552841D01*
X1498913Y552747D01*
X1498963Y552651D01*
X1499010Y552553D01*
X1499053Y552454D01*
X1499093Y552353D01*
X1499129Y552251D01*
X1499161Y552148D01*
X1499190Y552043D01*
X1499215Y551938D01*
X1499236Y551832D01*
X1499253Y551725D01*
X1499267Y551617D01*
X1499276Y551509D01*
X1499282Y551401D01*
X1499284Y551293D01*
X1499282Y551185D01*
X1499276Y551077D01*
X1499267Y550969D01*
X1499253Y550861D01*
X1499236Y550754D01*
X1499215Y550648D01*
X1499190Y550543D01*
X1499161Y550438D01*
X1499129Y550335D01*
X1499093Y550233D01*
X1499053Y550132D01*
X1499010Y550033D01*
X1498963Y549935D01*
X1498913Y549839D01*
X1498859Y549745D01*
X1498802Y549653D01*
X1498742Y549563D01*
X1498679Y549475D01*
X1498612Y549389D01*
X1498543Y549306D01*
X1498471Y549226D01*
X1498395Y549148D01*
X1498317Y549072D01*
X1498237Y549000D01*
X1498154Y548931D01*
X1498068Y548864D01*
X1497980Y548801D01*
X1497890Y548741D01*
X1497798Y548684D01*
X1497704Y548630D01*
X1497608Y548580D01*
X1497510Y548533D01*
X1497411Y548490D01*
X1497310Y548450D01*
X1497208Y548414D01*
X1497105Y548382D01*
X1497000Y548353D01*
X1496895Y548328D01*
X1496789Y548307D01*
X1496682Y548290D01*
X1496574Y548276D01*
X1496466Y548267D01*
X1496358Y548261D01*
X1496250Y548259D01*
X1493217Y548259D01*
X1493217Y559181D01*
X1496250Y559181D01*
X1496348Y559179D01*
X1496445Y559173D01*
X1496543Y559163D01*
X1496639Y559150D01*
X1496735Y559132D01*
X1496831Y559110D01*
X1496925Y559085D01*
X1497019Y559056D01*
X1497111Y559023D01*
X1497201Y558987D01*
X1497290Y558947D01*
X1497378Y558903D01*
X1497464Y558856D01*
X1497547Y558805D01*
X1497629Y558751D01*
X1497708Y558694D01*
X1497785Y558634D01*
X1497859Y558571D01*
X1497931Y558504D01*
X1498000Y558435D01*
X1498067Y558363D01*
X1498130Y558289D01*
X1498190Y558212D01*
X1498247Y558133D01*
X1498301Y558051D01*
X1498352Y557968D01*
X1498399Y557882D01*
X1498443Y557794D01*
X1498483Y557705D01*
X1498519Y557615D01*
X1498552Y557523D01*
X1498581Y557429D01*
X1498606Y557335D01*
X1498628Y557239D01*
X1498646Y557143D01*
X1498659Y557047D01*
X1498669Y556949D01*
X1498675Y556852D01*
X1498677Y556754D01*
X1498675Y556656D01*
X1498669Y556559D01*
X1498659Y556461D01*
X1498646Y556365D01*
X1498628Y556269D01*
X1498606Y556173D01*
X1498581Y556079D01*
X1498552Y555985D01*
X1498519Y555893D01*
X1498483Y555803D01*
X1498443Y555714D01*
X1498399Y555626D01*
X1498352Y555541D01*
X1498301Y555457D01*
X1498247Y555375D01*
X1498190Y555296D01*
X1498130Y555219D01*
X1498067Y555145D01*
X1498000Y555073D01*
X1497931Y555004D01*
X1497859Y554937D01*
X1497785Y554874D01*
X1497708Y554814D01*
X1497629Y554757D01*
X1497547Y554703D01*
X1497464Y554652D01*
X1497378Y554605D01*
X1497290Y554561D01*
X1497201Y554521D01*
X1497111Y554485D01*
X1497019Y554452D01*
X1496925Y554423D01*
X1496831Y554398D01*
X1496735Y554376D01*
X1496639Y554358D01*
X1496543Y554345D01*
X1496445Y554335D01*
X1496348Y554329D01*
X1496250Y554327D01*
X1504515Y559181D02*
X1504515Y548259D01*
X1504515Y559181D02*
X1507549Y559181D01*
X1507657Y559179D01*
X1507765Y559173D01*
X1507873Y559164D01*
X1507981Y559150D01*
X1508088Y559133D01*
X1508194Y559112D01*
X1508299Y559087D01*
X1508404Y559058D01*
X1508507Y559026D01*
X1508609Y558990D01*
X1508710Y558950D01*
X1508809Y558907D01*
X1508907Y558860D01*
X1509003Y558810D01*
X1509097Y558756D01*
X1509189Y558699D01*
X1509279Y558639D01*
X1509367Y558576D01*
X1509453Y558509D01*
X1509536Y558440D01*
X1509616Y558368D01*
X1509694Y558292D01*
X1509770Y558214D01*
X1509842Y558134D01*
X1509911Y558051D01*
X1509978Y557965D01*
X1510041Y557877D01*
X1510101Y557787D01*
X1510158Y557695D01*
X1510212Y557601D01*
X1510262Y557505D01*
X1510309Y557407D01*
X1510352Y557308D01*
X1510392Y557207D01*
X1510428Y557105D01*
X1510460Y557002D01*
X1510489Y556897D01*
X1510514Y556792D01*
X1510535Y556686D01*
X1510552Y556579D01*
X1510566Y556471D01*
X1510575Y556363D01*
X1510581Y556255D01*
X1510583Y556147D01*
X1510581Y556039D01*
X1510575Y555931D01*
X1510566Y555823D01*
X1510552Y555715D01*
X1510535Y555608D01*
X1510514Y555502D01*
X1510489Y555397D01*
X1510460Y555292D01*
X1510428Y555189D01*
X1510392Y555087D01*
X1510352Y554986D01*
X1510309Y554887D01*
X1510262Y554789D01*
X1510212Y554693D01*
X1510158Y554599D01*
X1510101Y554507D01*
X1510041Y554417D01*
X1509978Y554329D01*
X1509911Y554243D01*
X1509842Y554160D01*
X1509770Y554080D01*
X1509694Y554002D01*
X1509616Y553926D01*
X1509536Y553854D01*
X1509453Y553785D01*
X1509367Y553718D01*
X1509279Y553655D01*
X1509189Y553595D01*
X1509097Y553538D01*
X1509003Y553484D01*
X1508907Y553434D01*
X1508809Y553387D01*
X1508710Y553344D01*
X1508609Y553304D01*
X1508507Y553268D01*
X1508404Y553236D01*
X1508299Y553207D01*
X1508194Y553182D01*
X1508088Y553161D01*
X1507981Y553144D01*
X1507873Y553130D01*
X1507765Y553121D01*
X1507657Y553115D01*
X1507549Y553113D01*
X1504515Y553113D01*
X1508156Y553113D02*
X1510583Y548259D01*
X1515237Y548259D02*
X1518878Y559181D01*
X1522518Y548259D01*
X1521608Y550990D02*
X1516147Y550990D01*
X1530533Y548259D02*
X1530631Y548261D01*
X1530728Y548267D01*
X1530826Y548277D01*
X1530922Y548290D01*
X1531018Y548308D01*
X1531114Y548330D01*
X1531208Y548355D01*
X1531302Y548384D01*
X1531394Y548417D01*
X1531484Y548453D01*
X1531573Y548493D01*
X1531661Y548537D01*
X1531747Y548584D01*
X1531830Y548635D01*
X1531912Y548689D01*
X1531991Y548746D01*
X1532068Y548806D01*
X1532142Y548869D01*
X1532214Y548936D01*
X1532283Y549005D01*
X1532350Y549077D01*
X1532413Y549151D01*
X1532473Y549228D01*
X1532530Y549307D01*
X1532584Y549389D01*
X1532635Y549473D01*
X1532682Y549558D01*
X1532726Y549646D01*
X1532766Y549735D01*
X1532802Y549825D01*
X1532835Y549917D01*
X1532864Y550011D01*
X1532889Y550105D01*
X1532911Y550201D01*
X1532929Y550297D01*
X1532942Y550393D01*
X1532952Y550491D01*
X1532958Y550588D01*
X1532960Y550686D01*
X1530533Y548259D02*
X1530393Y548261D01*
X1530254Y548267D01*
X1530115Y548276D01*
X1529976Y548289D01*
X1529837Y548306D01*
X1529699Y548327D01*
X1529562Y548352D01*
X1529425Y548380D01*
X1529289Y548412D01*
X1529154Y548448D01*
X1529020Y548487D01*
X1528888Y548530D01*
X1528756Y548577D01*
X1528626Y548627D01*
X1528497Y548681D01*
X1528370Y548738D01*
X1528244Y548798D01*
X1528120Y548862D01*
X1527997Y548930D01*
X1527877Y549001D01*
X1527759Y549074D01*
X1527642Y549152D01*
X1527528Y549232D01*
X1527416Y549315D01*
X1527306Y549402D01*
X1527199Y549491D01*
X1527094Y549583D01*
X1526992Y549678D01*
X1526893Y549776D01*
X1527196Y556754D02*
X1527198Y556852D01*
X1527204Y556949D01*
X1527214Y557047D01*
X1527227Y557143D01*
X1527245Y557239D01*
X1527267Y557335D01*
X1527292Y557429D01*
X1527321Y557523D01*
X1527354Y557615D01*
X1527390Y557705D01*
X1527430Y557794D01*
X1527474Y557882D01*
X1527521Y557968D01*
X1527572Y558051D01*
X1527626Y558133D01*
X1527683Y558212D01*
X1527743Y558289D01*
X1527806Y558363D01*
X1527873Y558435D01*
X1527942Y558504D01*
X1528014Y558571D01*
X1528088Y558634D01*
X1528165Y558694D01*
X1528244Y558751D01*
X1528326Y558805D01*
X1528410Y558856D01*
X1528495Y558903D01*
X1528583Y558947D01*
X1528672Y558987D01*
X1528762Y559023D01*
X1528854Y559056D01*
X1528948Y559085D01*
X1529042Y559110D01*
X1529138Y559132D01*
X1529234Y559150D01*
X1529330Y559163D01*
X1529428Y559173D01*
X1529525Y559179D01*
X1529623Y559181D01*
X1529756Y559179D01*
X1529889Y559173D01*
X1530022Y559163D01*
X1530154Y559150D01*
X1530286Y559132D01*
X1530418Y559111D01*
X1530548Y559086D01*
X1530678Y559057D01*
X1530807Y559024D01*
X1530935Y558988D01*
X1531062Y558947D01*
X1531188Y558904D01*
X1531312Y558856D01*
X1531435Y558805D01*
X1531556Y558750D01*
X1531676Y558692D01*
X1531794Y558630D01*
X1531910Y558565D01*
X1532024Y558496D01*
X1532136Y558424D01*
X1532246Y558349D01*
X1532354Y558271D01*
X1528410Y554630D02*
X1528326Y554682D01*
X1528244Y554737D01*
X1528165Y554795D01*
X1528088Y554856D01*
X1528013Y554921D01*
X1527941Y554988D01*
X1527872Y555058D01*
X1527806Y555131D01*
X1527743Y555206D01*
X1527682Y555284D01*
X1527625Y555364D01*
X1527571Y555447D01*
X1527521Y555531D01*
X1527474Y555617D01*
X1527430Y555706D01*
X1527390Y555796D01*
X1527353Y555887D01*
X1527321Y555980D01*
X1527292Y556074D01*
X1527266Y556169D01*
X1527245Y556265D01*
X1527227Y556362D01*
X1527214Y556459D01*
X1527204Y556557D01*
X1527198Y556656D01*
X1527196Y556754D01*
X1531746Y552810D02*
X1531830Y552758D01*
X1531912Y552703D01*
X1531991Y552645D01*
X1532068Y552584D01*
X1532143Y552519D01*
X1532215Y552452D01*
X1532284Y552382D01*
X1532350Y552309D01*
X1532413Y552234D01*
X1532474Y552156D01*
X1532531Y552076D01*
X1532585Y551993D01*
X1532635Y551909D01*
X1532682Y551823D01*
X1532726Y551734D01*
X1532766Y551644D01*
X1532803Y551553D01*
X1532835Y551460D01*
X1532864Y551366D01*
X1532890Y551271D01*
X1532911Y551175D01*
X1532929Y551078D01*
X1532942Y550981D01*
X1532952Y550883D01*
X1532958Y550784D01*
X1532960Y550686D01*
X1531747Y552810D02*
X1528410Y554630D01*
X1541201Y548259D02*
X1541299Y548261D01*
X1541396Y548267D01*
X1541494Y548277D01*
X1541590Y548290D01*
X1541686Y548308D01*
X1541782Y548330D01*
X1541876Y548355D01*
X1541970Y548384D01*
X1542062Y548417D01*
X1542152Y548453D01*
X1542241Y548493D01*
X1542329Y548537D01*
X1542415Y548584D01*
X1542498Y548635D01*
X1542580Y548689D01*
X1542659Y548746D01*
X1542736Y548806D01*
X1542810Y548869D01*
X1542882Y548936D01*
X1542951Y549005D01*
X1543018Y549077D01*
X1543081Y549151D01*
X1543141Y549228D01*
X1543198Y549307D01*
X1543252Y549389D01*
X1543303Y549473D01*
X1543350Y549558D01*
X1543394Y549646D01*
X1543434Y549735D01*
X1543470Y549825D01*
X1543503Y549917D01*
X1543532Y550011D01*
X1543557Y550105D01*
X1543579Y550201D01*
X1543597Y550297D01*
X1543610Y550393D01*
X1543620Y550491D01*
X1543626Y550588D01*
X1543628Y550686D01*
X1541201Y548259D02*
X1541061Y548261D01*
X1540922Y548267D01*
X1540783Y548276D01*
X1540644Y548289D01*
X1540505Y548306D01*
X1540367Y548327D01*
X1540230Y548352D01*
X1540093Y548380D01*
X1539957Y548412D01*
X1539822Y548448D01*
X1539688Y548487D01*
X1539556Y548530D01*
X1539424Y548577D01*
X1539294Y548627D01*
X1539165Y548681D01*
X1539038Y548738D01*
X1538912Y548798D01*
X1538788Y548862D01*
X1538665Y548930D01*
X1538545Y549001D01*
X1538427Y549074D01*
X1538310Y549152D01*
X1538196Y549232D01*
X1538084Y549315D01*
X1537974Y549402D01*
X1537867Y549491D01*
X1537762Y549583D01*
X1537660Y549678D01*
X1537561Y549776D01*
X1537864Y556754D02*
X1537866Y556852D01*
X1537872Y556949D01*
X1537882Y557047D01*
X1537895Y557143D01*
X1537913Y557239D01*
X1537935Y557335D01*
X1537960Y557429D01*
X1537989Y557523D01*
X1538022Y557615D01*
X1538058Y557705D01*
X1538098Y557794D01*
X1538142Y557882D01*
X1538189Y557968D01*
X1538240Y558051D01*
X1538294Y558133D01*
X1538351Y558212D01*
X1538411Y558289D01*
X1538474Y558363D01*
X1538541Y558435D01*
X1538610Y558504D01*
X1538682Y558571D01*
X1538756Y558634D01*
X1538833Y558694D01*
X1538912Y558751D01*
X1538994Y558805D01*
X1539078Y558856D01*
X1539163Y558903D01*
X1539251Y558947D01*
X1539340Y558987D01*
X1539430Y559023D01*
X1539522Y559056D01*
X1539616Y559085D01*
X1539710Y559110D01*
X1539806Y559132D01*
X1539902Y559150D01*
X1539998Y559163D01*
X1540096Y559173D01*
X1540193Y559179D01*
X1540291Y559181D01*
X1540424Y559179D01*
X1540557Y559173D01*
X1540690Y559163D01*
X1540822Y559150D01*
X1540954Y559132D01*
X1541086Y559111D01*
X1541216Y559086D01*
X1541346Y559057D01*
X1541475Y559024D01*
X1541603Y558988D01*
X1541730Y558947D01*
X1541856Y558904D01*
X1541980Y558856D01*
X1542103Y558805D01*
X1542224Y558750D01*
X1542344Y558692D01*
X1542462Y558630D01*
X1542578Y558565D01*
X1542692Y558496D01*
X1542804Y558424D01*
X1542914Y558349D01*
X1543022Y558271D01*
X1539078Y554630D02*
X1538994Y554682D01*
X1538912Y554737D01*
X1538833Y554795D01*
X1538756Y554856D01*
X1538681Y554921D01*
X1538609Y554988D01*
X1538540Y555058D01*
X1538474Y555131D01*
X1538411Y555206D01*
X1538350Y555284D01*
X1538293Y555364D01*
X1538239Y555447D01*
X1538189Y555531D01*
X1538142Y555617D01*
X1538098Y555706D01*
X1538058Y555796D01*
X1538021Y555887D01*
X1537989Y555980D01*
X1537960Y556074D01*
X1537934Y556169D01*
X1537913Y556265D01*
X1537895Y556362D01*
X1537882Y556459D01*
X1537872Y556557D01*
X1537866Y556656D01*
X1537864Y556754D01*
X1542414Y552810D02*
X1542498Y552758D01*
X1542580Y552703D01*
X1542659Y552645D01*
X1542736Y552584D01*
X1542811Y552519D01*
X1542883Y552452D01*
X1542952Y552382D01*
X1543018Y552309D01*
X1543081Y552234D01*
X1543142Y552156D01*
X1543199Y552076D01*
X1543253Y551993D01*
X1543303Y551909D01*
X1543350Y551823D01*
X1543394Y551734D01*
X1543434Y551644D01*
X1543471Y551553D01*
X1543503Y551460D01*
X1543532Y551366D01*
X1543558Y551271D01*
X1543579Y551175D01*
X1543597Y551078D01*
X1543610Y550981D01*
X1543620Y550883D01*
X1543626Y550784D01*
X1543628Y550686D01*
X1542415Y552810D02*
X1539078Y554630D01*
D12*
X1052680Y232410D02*
X1052701Y234128D01*
X1052764Y235845D01*
X1052870Y237560D01*
X1053017Y239271D01*
X1053206Y240979D01*
X1053438Y242681D01*
X1053711Y244377D01*
X1054025Y246066D01*
X1054381Y247747D01*
X1054778Y249419D01*
X1055216Y251080D01*
X1055694Y252730D01*
X1056213Y254368D01*
X1056772Y255992D01*
X1057371Y257603D01*
X1058008Y259198D01*
X1058685Y260777D01*
X1059401Y262339D01*
X1060154Y263883D01*
X1060946Y265408D01*
X1061774Y266913D01*
X1062639Y268397D01*
X1063540Y269860D01*
X1064477Y271300D01*
X1065449Y272717D01*
X1066455Y274109D01*
X1067496Y275476D01*
X1068569Y276818D01*
X1069675Y278132D01*
X1070813Y279419D01*
X1071983Y280678D01*
X1073183Y281907D01*
X1074412Y283107D01*
X1075671Y284277D01*
X1076958Y285415D01*
X1078272Y286521D01*
X1079614Y287594D01*
X1080981Y288635D01*
X1082373Y289641D01*
X1083790Y290613D01*
X1085230Y291550D01*
X1086693Y292451D01*
X1088177Y293316D01*
X1089682Y294144D01*
X1091207Y294936D01*
X1092751Y295689D01*
X1094313Y296405D01*
X1095892Y297082D01*
X1097487Y297719D01*
X1099098Y298318D01*
X1100722Y298877D01*
X1102360Y299396D01*
X1104010Y299874D01*
X1105671Y300312D01*
X1107343Y300709D01*
X1109024Y301065D01*
X1110713Y301379D01*
X1112409Y301652D01*
X1114111Y301884D01*
X1115819Y302073D01*
X1117530Y302220D01*
X1119245Y302326D01*
X1120962Y302389D01*
X1122680Y302410D01*
X1124398Y302389D01*
X1126115Y302326D01*
X1127830Y302220D01*
X1129541Y302073D01*
X1131249Y301884D01*
X1132951Y301652D01*
X1134647Y301379D01*
X1136336Y301065D01*
X1138017Y300709D01*
X1139689Y300312D01*
X1141350Y299874D01*
X1143000Y299396D01*
X1144638Y298877D01*
X1146262Y298318D01*
X1147873Y297719D01*
X1149468Y297082D01*
X1151047Y296405D01*
X1152609Y295689D01*
X1154153Y294936D01*
X1155678Y294144D01*
X1157183Y293316D01*
X1158667Y292451D01*
X1160130Y291550D01*
X1161570Y290613D01*
X1162987Y289641D01*
X1164379Y288635D01*
X1165746Y287594D01*
X1167088Y286521D01*
X1168402Y285415D01*
X1169689Y284277D01*
X1170948Y283107D01*
X1172177Y281907D01*
X1173377Y280678D01*
X1174547Y279419D01*
X1175685Y278132D01*
X1176791Y276818D01*
X1177864Y275476D01*
X1178905Y274109D01*
X1179911Y272717D01*
X1180883Y271300D01*
X1181820Y269860D01*
X1182721Y268397D01*
X1183586Y266913D01*
X1184414Y265408D01*
X1185206Y263883D01*
X1185959Y262339D01*
X1186675Y260777D01*
X1187352Y259198D01*
X1187989Y257603D01*
X1188588Y255992D01*
X1189147Y254368D01*
X1189666Y252730D01*
X1190144Y251080D01*
X1190582Y249419D01*
X1190979Y247747D01*
X1191335Y246066D01*
X1191649Y244377D01*
X1191922Y242681D01*
X1192154Y240979D01*
X1192343Y239271D01*
X1192490Y237560D01*
X1192596Y235845D01*
X1192659Y234128D01*
X1192680Y232410D01*
X1192659Y230692D01*
X1192596Y228975D01*
X1192490Y227260D01*
X1192343Y225549D01*
X1192154Y223841D01*
X1191922Y222139D01*
X1191649Y220443D01*
X1191335Y218754D01*
X1190979Y217073D01*
X1190582Y215401D01*
X1190144Y213740D01*
X1189666Y212090D01*
X1189147Y210452D01*
X1188588Y208828D01*
X1187989Y207217D01*
X1187352Y205622D01*
X1186675Y204043D01*
X1185959Y202481D01*
X1185206Y200937D01*
X1184414Y199412D01*
X1183586Y197907D01*
X1182721Y196423D01*
X1181820Y194960D01*
X1180883Y193520D01*
X1179911Y192103D01*
X1178905Y190711D01*
X1177864Y189344D01*
X1176791Y188002D01*
X1175685Y186688D01*
X1174547Y185401D01*
X1173377Y184142D01*
X1172177Y182913D01*
X1170948Y181713D01*
X1169689Y180543D01*
X1168402Y179405D01*
X1167088Y178299D01*
X1165746Y177226D01*
X1164379Y176185D01*
X1162987Y175179D01*
X1161570Y174207D01*
X1160130Y173270D01*
X1158667Y172369D01*
X1157183Y171504D01*
X1155678Y170676D01*
X1154153Y169884D01*
X1152609Y169131D01*
X1151047Y168415D01*
X1149468Y167738D01*
X1147873Y167101D01*
X1146262Y166502D01*
X1144638Y165943D01*
X1143000Y165424D01*
X1141350Y164946D01*
X1139689Y164508D01*
X1138017Y164111D01*
X1136336Y163755D01*
X1134647Y163441D01*
X1132951Y163168D01*
X1131249Y162936D01*
X1129541Y162747D01*
X1127830Y162600D01*
X1126115Y162494D01*
X1124398Y162431D01*
X1122680Y162410D01*
X1120962Y162431D01*
X1119245Y162494D01*
X1117530Y162600D01*
X1115819Y162747D01*
X1114111Y162936D01*
X1112409Y163168D01*
X1110713Y163441D01*
X1109024Y163755D01*
X1107343Y164111D01*
X1105671Y164508D01*
X1104010Y164946D01*
X1102360Y165424D01*
X1100722Y165943D01*
X1099098Y166502D01*
X1097487Y167101D01*
X1095892Y167738D01*
X1094313Y168415D01*
X1092751Y169131D01*
X1091207Y169884D01*
X1089682Y170676D01*
X1088177Y171504D01*
X1086693Y172369D01*
X1085230Y173270D01*
X1083790Y174207D01*
X1082373Y175179D01*
X1080981Y176185D01*
X1079614Y177226D01*
X1078272Y178299D01*
X1076958Y179405D01*
X1075671Y180543D01*
X1074412Y181713D01*
X1073183Y182913D01*
X1071983Y184142D01*
X1070813Y185401D01*
X1069675Y186688D01*
X1068569Y188002D01*
X1067496Y189344D01*
X1066455Y190711D01*
X1065449Y192103D01*
X1064477Y193520D01*
X1063540Y194960D01*
X1062639Y196423D01*
X1061774Y197907D01*
X1060946Y199412D01*
X1060154Y200937D01*
X1059401Y202481D01*
X1058685Y204043D01*
X1058008Y205622D01*
X1057371Y207217D01*
X1056772Y208828D01*
X1056213Y210452D01*
X1055694Y212090D01*
X1055216Y213740D01*
X1054778Y215401D01*
X1054381Y217073D01*
X1054025Y218754D01*
X1053711Y220443D01*
X1053438Y222139D01*
X1053206Y223841D01*
X1053017Y225549D01*
X1052870Y227260D01*
X1052764Y228975D01*
X1052701Y230692D01*
X1052680Y232410D01*
D13*
X1631569Y437769D02*
X1631569Y448691D01*
X1631569Y443837D02*
X1637637Y443837D01*
X1637637Y448691D02*
X1637637Y437769D01*
X1646717Y448692D02*
X1646819Y448690D01*
X1646921Y448684D01*
X1647023Y448675D01*
X1647124Y448661D01*
X1647225Y448644D01*
X1647325Y448624D01*
X1647424Y448599D01*
X1647522Y448571D01*
X1647619Y448539D01*
X1647715Y448503D01*
X1647809Y448464D01*
X1647902Y448422D01*
X1647993Y448376D01*
X1648083Y448326D01*
X1648170Y448273D01*
X1648255Y448217D01*
X1648339Y448158D01*
X1648420Y448096D01*
X1648498Y448031D01*
X1648575Y447963D01*
X1648648Y447892D01*
X1648719Y447819D01*
X1648787Y447742D01*
X1648852Y447664D01*
X1648914Y447583D01*
X1648973Y447499D01*
X1649029Y447414D01*
X1649082Y447327D01*
X1649132Y447237D01*
X1649178Y447146D01*
X1649220Y447053D01*
X1649259Y446959D01*
X1649295Y446863D01*
X1649327Y446766D01*
X1649355Y446668D01*
X1649380Y446569D01*
X1649400Y446469D01*
X1649417Y446368D01*
X1649431Y446267D01*
X1649440Y446165D01*
X1649446Y446063D01*
X1649448Y445961D01*
X1646717Y448691D02*
X1646601Y448689D01*
X1646485Y448683D01*
X1646369Y448674D01*
X1646254Y448660D01*
X1646139Y448643D01*
X1646025Y448622D01*
X1645912Y448597D01*
X1645799Y448569D01*
X1645688Y448537D01*
X1645577Y448501D01*
X1645468Y448461D01*
X1645360Y448418D01*
X1645254Y448371D01*
X1645149Y448321D01*
X1645046Y448268D01*
X1644945Y448211D01*
X1644846Y448150D01*
X1644749Y448087D01*
X1644654Y448020D01*
X1644561Y447950D01*
X1644471Y447877D01*
X1644383Y447802D01*
X1644297Y447723D01*
X1644215Y447641D01*
X1644135Y447557D01*
X1644057Y447471D01*
X1643983Y447381D01*
X1643912Y447290D01*
X1643844Y447196D01*
X1643779Y447099D01*
X1643717Y447001D01*
X1643658Y446901D01*
X1643603Y446799D01*
X1643551Y446695D01*
X1643503Y446589D01*
X1643458Y446482D01*
X1643417Y446374D01*
X1643380Y446264D01*
X1648538Y443837D02*
X1648611Y443910D01*
X1648682Y443985D01*
X1648750Y444062D01*
X1648816Y444142D01*
X1648878Y444224D01*
X1648938Y444308D01*
X1648995Y444395D01*
X1649048Y444483D01*
X1649099Y444573D01*
X1649146Y444665D01*
X1649190Y444758D01*
X1649231Y444853D01*
X1649268Y444950D01*
X1649302Y445047D01*
X1649332Y445146D01*
X1649359Y445245D01*
X1649383Y445346D01*
X1649403Y445447D01*
X1649419Y445549D01*
X1649432Y445652D01*
X1649441Y445755D01*
X1649446Y445858D01*
X1649448Y445961D01*
X1648538Y443837D02*
X1643380Y437769D01*
X1649448Y437769D01*
X1472819Y405511D02*
X1472819Y394589D01*
X1476460Y399443D02*
X1472819Y405511D01*
X1476460Y399443D02*
X1480100Y405511D01*
X1480100Y394589D01*
X1485999Y394589D02*
X1489033Y394589D01*
X1489141Y394591D01*
X1489249Y394597D01*
X1489357Y394606D01*
X1489465Y394620D01*
X1489572Y394637D01*
X1489678Y394658D01*
X1489783Y394683D01*
X1489888Y394712D01*
X1489991Y394744D01*
X1490093Y394780D01*
X1490194Y394820D01*
X1490293Y394863D01*
X1490391Y394910D01*
X1490487Y394960D01*
X1490581Y395014D01*
X1490673Y395071D01*
X1490763Y395131D01*
X1490851Y395194D01*
X1490937Y395261D01*
X1491020Y395330D01*
X1491100Y395402D01*
X1491178Y395478D01*
X1491254Y395556D01*
X1491326Y395636D01*
X1491395Y395719D01*
X1491462Y395805D01*
X1491525Y395893D01*
X1491585Y395983D01*
X1491642Y396075D01*
X1491696Y396169D01*
X1491746Y396265D01*
X1491793Y396363D01*
X1491836Y396462D01*
X1491876Y396563D01*
X1491912Y396665D01*
X1491944Y396768D01*
X1491973Y396873D01*
X1491998Y396978D01*
X1492019Y397084D01*
X1492036Y397191D01*
X1492050Y397299D01*
X1492059Y397407D01*
X1492065Y397515D01*
X1492067Y397623D01*
X1492065Y397731D01*
X1492059Y397839D01*
X1492050Y397947D01*
X1492036Y398055D01*
X1492019Y398162D01*
X1491998Y398268D01*
X1491973Y398373D01*
X1491944Y398478D01*
X1491912Y398581D01*
X1491876Y398683D01*
X1491836Y398784D01*
X1491793Y398883D01*
X1491746Y398981D01*
X1491696Y399077D01*
X1491642Y399171D01*
X1491585Y399263D01*
X1491525Y399353D01*
X1491462Y399441D01*
X1491395Y399527D01*
X1491326Y399610D01*
X1491254Y399690D01*
X1491178Y399768D01*
X1491100Y399844D01*
X1491020Y399916D01*
X1490937Y399985D01*
X1490851Y400052D01*
X1490763Y400115D01*
X1490673Y400175D01*
X1490581Y400232D01*
X1490487Y400286D01*
X1490391Y400336D01*
X1490293Y400383D01*
X1490194Y400426D01*
X1490093Y400466D01*
X1489991Y400502D01*
X1489888Y400534D01*
X1489783Y400563D01*
X1489678Y400588D01*
X1489572Y400609D01*
X1489465Y400626D01*
X1489357Y400640D01*
X1489249Y400649D01*
X1489141Y400655D01*
X1489033Y400657D01*
X1489639Y405511D02*
X1485999Y405511D01*
X1489639Y405511D02*
X1489737Y405509D01*
X1489834Y405503D01*
X1489932Y405493D01*
X1490028Y405480D01*
X1490124Y405462D01*
X1490220Y405440D01*
X1490314Y405415D01*
X1490408Y405386D01*
X1490500Y405353D01*
X1490590Y405317D01*
X1490679Y405277D01*
X1490767Y405233D01*
X1490853Y405186D01*
X1490936Y405135D01*
X1491018Y405081D01*
X1491097Y405024D01*
X1491174Y404964D01*
X1491248Y404901D01*
X1491320Y404834D01*
X1491389Y404765D01*
X1491456Y404693D01*
X1491519Y404619D01*
X1491579Y404542D01*
X1491636Y404463D01*
X1491690Y404381D01*
X1491741Y404298D01*
X1491788Y404212D01*
X1491832Y404124D01*
X1491872Y404035D01*
X1491908Y403945D01*
X1491941Y403853D01*
X1491970Y403759D01*
X1491995Y403665D01*
X1492017Y403569D01*
X1492035Y403473D01*
X1492048Y403377D01*
X1492058Y403279D01*
X1492064Y403182D01*
X1492066Y403084D01*
X1492064Y402986D01*
X1492058Y402889D01*
X1492048Y402791D01*
X1492035Y402695D01*
X1492017Y402599D01*
X1491995Y402503D01*
X1491970Y402409D01*
X1491941Y402315D01*
X1491908Y402223D01*
X1491872Y402133D01*
X1491832Y402044D01*
X1491788Y401956D01*
X1491741Y401871D01*
X1491690Y401787D01*
X1491636Y401705D01*
X1491579Y401626D01*
X1491519Y401549D01*
X1491456Y401475D01*
X1491389Y401403D01*
X1491320Y401334D01*
X1491248Y401267D01*
X1491174Y401204D01*
X1491097Y401144D01*
X1491018Y401087D01*
X1490936Y401033D01*
X1490853Y400982D01*
X1490767Y400935D01*
X1490679Y400891D01*
X1490590Y400851D01*
X1490500Y400815D01*
X1490408Y400782D01*
X1490314Y400753D01*
X1490220Y400728D01*
X1490124Y400706D01*
X1490028Y400688D01*
X1489932Y400675D01*
X1489834Y400665D01*
X1489737Y400659D01*
X1489639Y400657D01*
X1487212Y400657D01*
X1496893Y393375D02*
X1501747Y393375D01*
X1507187Y400657D02*
X1510220Y400657D01*
X1510328Y400655D01*
X1510436Y400649D01*
X1510544Y400640D01*
X1510652Y400626D01*
X1510759Y400609D01*
X1510865Y400588D01*
X1510970Y400563D01*
X1511075Y400534D01*
X1511178Y400502D01*
X1511280Y400466D01*
X1511381Y400426D01*
X1511480Y400383D01*
X1511578Y400336D01*
X1511674Y400286D01*
X1511768Y400232D01*
X1511860Y400175D01*
X1511950Y400115D01*
X1512038Y400052D01*
X1512124Y399985D01*
X1512207Y399916D01*
X1512287Y399844D01*
X1512365Y399768D01*
X1512441Y399690D01*
X1512513Y399610D01*
X1512582Y399527D01*
X1512649Y399441D01*
X1512712Y399353D01*
X1512772Y399263D01*
X1512829Y399171D01*
X1512883Y399077D01*
X1512933Y398981D01*
X1512980Y398883D01*
X1513023Y398784D01*
X1513063Y398683D01*
X1513099Y398581D01*
X1513131Y398478D01*
X1513160Y398373D01*
X1513185Y398268D01*
X1513206Y398162D01*
X1513223Y398055D01*
X1513237Y397947D01*
X1513246Y397839D01*
X1513252Y397731D01*
X1513254Y397623D01*
X1513252Y397515D01*
X1513246Y397407D01*
X1513237Y397299D01*
X1513223Y397191D01*
X1513206Y397084D01*
X1513185Y396978D01*
X1513160Y396873D01*
X1513131Y396768D01*
X1513099Y396665D01*
X1513063Y396563D01*
X1513023Y396462D01*
X1512980Y396363D01*
X1512933Y396265D01*
X1512883Y396169D01*
X1512829Y396075D01*
X1512772Y395983D01*
X1512712Y395893D01*
X1512649Y395805D01*
X1512582Y395719D01*
X1512513Y395636D01*
X1512441Y395556D01*
X1512365Y395478D01*
X1512287Y395402D01*
X1512207Y395330D01*
X1512124Y395261D01*
X1512038Y395194D01*
X1511950Y395131D01*
X1511860Y395071D01*
X1511768Y395014D01*
X1511674Y394960D01*
X1511578Y394910D01*
X1511480Y394863D01*
X1511381Y394820D01*
X1511280Y394780D01*
X1511178Y394744D01*
X1511075Y394712D01*
X1510970Y394683D01*
X1510865Y394658D01*
X1510759Y394637D01*
X1510652Y394620D01*
X1510544Y394606D01*
X1510436Y394597D01*
X1510328Y394591D01*
X1510220Y394589D01*
X1507187Y394589D01*
X1507187Y405511D01*
X1510220Y405511D01*
X1510318Y405509D01*
X1510415Y405503D01*
X1510513Y405493D01*
X1510609Y405480D01*
X1510705Y405462D01*
X1510801Y405440D01*
X1510895Y405415D01*
X1510989Y405386D01*
X1511081Y405353D01*
X1511171Y405317D01*
X1511260Y405277D01*
X1511348Y405233D01*
X1511434Y405186D01*
X1511517Y405135D01*
X1511599Y405081D01*
X1511678Y405024D01*
X1511755Y404964D01*
X1511829Y404901D01*
X1511901Y404834D01*
X1511970Y404765D01*
X1512037Y404693D01*
X1512100Y404619D01*
X1512160Y404542D01*
X1512217Y404463D01*
X1512271Y404381D01*
X1512322Y404298D01*
X1512369Y404212D01*
X1512413Y404124D01*
X1512453Y404035D01*
X1512489Y403945D01*
X1512522Y403853D01*
X1512551Y403759D01*
X1512576Y403665D01*
X1512598Y403569D01*
X1512616Y403473D01*
X1512629Y403377D01*
X1512639Y403279D01*
X1512645Y403182D01*
X1512647Y403084D01*
X1512645Y402986D01*
X1512639Y402889D01*
X1512629Y402791D01*
X1512616Y402695D01*
X1512598Y402599D01*
X1512576Y402503D01*
X1512551Y402409D01*
X1512522Y402315D01*
X1512489Y402223D01*
X1512453Y402133D01*
X1512413Y402044D01*
X1512369Y401956D01*
X1512322Y401871D01*
X1512271Y401787D01*
X1512217Y401705D01*
X1512160Y401626D01*
X1512100Y401549D01*
X1512037Y401475D01*
X1511970Y401403D01*
X1511901Y401334D01*
X1511829Y401267D01*
X1511755Y401204D01*
X1511678Y401144D01*
X1511599Y401087D01*
X1511517Y401033D01*
X1511434Y400982D01*
X1511348Y400935D01*
X1511260Y400891D01*
X1511171Y400851D01*
X1511081Y400815D01*
X1510989Y400782D01*
X1510895Y400753D01*
X1510801Y400728D01*
X1510705Y400706D01*
X1510609Y400688D01*
X1510513Y400675D01*
X1510415Y400665D01*
X1510318Y400659D01*
X1510220Y400657D01*
X1518485Y405511D02*
X1518485Y394589D01*
X1518485Y405511D02*
X1521519Y405511D01*
X1521627Y405509D01*
X1521735Y405503D01*
X1521843Y405494D01*
X1521951Y405480D01*
X1522058Y405463D01*
X1522164Y405442D01*
X1522269Y405417D01*
X1522374Y405388D01*
X1522477Y405356D01*
X1522579Y405320D01*
X1522680Y405280D01*
X1522779Y405237D01*
X1522877Y405190D01*
X1522973Y405140D01*
X1523067Y405086D01*
X1523159Y405029D01*
X1523249Y404969D01*
X1523337Y404906D01*
X1523423Y404839D01*
X1523506Y404770D01*
X1523586Y404698D01*
X1523664Y404622D01*
X1523740Y404544D01*
X1523812Y404464D01*
X1523881Y404381D01*
X1523948Y404295D01*
X1524011Y404207D01*
X1524071Y404117D01*
X1524128Y404025D01*
X1524182Y403931D01*
X1524232Y403835D01*
X1524279Y403737D01*
X1524322Y403638D01*
X1524362Y403537D01*
X1524398Y403435D01*
X1524430Y403332D01*
X1524459Y403227D01*
X1524484Y403122D01*
X1524505Y403016D01*
X1524522Y402909D01*
X1524536Y402801D01*
X1524545Y402693D01*
X1524551Y402585D01*
X1524553Y402477D01*
X1524551Y402369D01*
X1524545Y402261D01*
X1524536Y402153D01*
X1524522Y402045D01*
X1524505Y401938D01*
X1524484Y401832D01*
X1524459Y401727D01*
X1524430Y401622D01*
X1524398Y401519D01*
X1524362Y401417D01*
X1524322Y401316D01*
X1524279Y401217D01*
X1524232Y401119D01*
X1524182Y401023D01*
X1524128Y400929D01*
X1524071Y400837D01*
X1524011Y400747D01*
X1523948Y400659D01*
X1523881Y400573D01*
X1523812Y400490D01*
X1523740Y400410D01*
X1523664Y400332D01*
X1523586Y400256D01*
X1523506Y400184D01*
X1523423Y400115D01*
X1523337Y400048D01*
X1523249Y399985D01*
X1523159Y399925D01*
X1523067Y399868D01*
X1522973Y399814D01*
X1522877Y399764D01*
X1522779Y399717D01*
X1522680Y399674D01*
X1522579Y399634D01*
X1522477Y399598D01*
X1522374Y399566D01*
X1522269Y399537D01*
X1522164Y399512D01*
X1522058Y399491D01*
X1521951Y399474D01*
X1521843Y399460D01*
X1521735Y399451D01*
X1521627Y399445D01*
X1521519Y399443D01*
X1518485Y399443D01*
X1522126Y399443D02*
X1524553Y394589D01*
X1529207Y394589D02*
X1532848Y405511D01*
X1536488Y394589D01*
X1535578Y397320D02*
X1530117Y397320D01*
X1544503Y394589D02*
X1544601Y394591D01*
X1544698Y394597D01*
X1544796Y394607D01*
X1544892Y394620D01*
X1544988Y394638D01*
X1545084Y394660D01*
X1545178Y394685D01*
X1545272Y394714D01*
X1545364Y394747D01*
X1545454Y394783D01*
X1545543Y394823D01*
X1545631Y394867D01*
X1545717Y394914D01*
X1545800Y394965D01*
X1545882Y395019D01*
X1545961Y395076D01*
X1546038Y395136D01*
X1546112Y395199D01*
X1546184Y395266D01*
X1546253Y395335D01*
X1546320Y395407D01*
X1546383Y395481D01*
X1546443Y395558D01*
X1546500Y395637D01*
X1546554Y395719D01*
X1546605Y395803D01*
X1546652Y395888D01*
X1546696Y395976D01*
X1546736Y396065D01*
X1546772Y396155D01*
X1546805Y396247D01*
X1546834Y396341D01*
X1546859Y396435D01*
X1546881Y396531D01*
X1546899Y396627D01*
X1546912Y396723D01*
X1546922Y396821D01*
X1546928Y396918D01*
X1546930Y397016D01*
X1544503Y394589D02*
X1544363Y394591D01*
X1544224Y394597D01*
X1544085Y394606D01*
X1543946Y394619D01*
X1543807Y394636D01*
X1543669Y394657D01*
X1543532Y394682D01*
X1543395Y394710D01*
X1543259Y394742D01*
X1543124Y394778D01*
X1542990Y394817D01*
X1542858Y394860D01*
X1542726Y394907D01*
X1542596Y394957D01*
X1542467Y395011D01*
X1542340Y395068D01*
X1542214Y395128D01*
X1542090Y395192D01*
X1541967Y395260D01*
X1541847Y395331D01*
X1541729Y395404D01*
X1541612Y395482D01*
X1541498Y395562D01*
X1541386Y395645D01*
X1541276Y395732D01*
X1541169Y395821D01*
X1541064Y395913D01*
X1540962Y396008D01*
X1540863Y396106D01*
X1541166Y403084D02*
X1541168Y403182D01*
X1541174Y403279D01*
X1541184Y403377D01*
X1541197Y403473D01*
X1541215Y403569D01*
X1541237Y403665D01*
X1541262Y403759D01*
X1541291Y403853D01*
X1541324Y403945D01*
X1541360Y404035D01*
X1541400Y404124D01*
X1541444Y404212D01*
X1541491Y404298D01*
X1541542Y404381D01*
X1541596Y404463D01*
X1541653Y404542D01*
X1541713Y404619D01*
X1541776Y404693D01*
X1541843Y404765D01*
X1541912Y404834D01*
X1541984Y404901D01*
X1542058Y404964D01*
X1542135Y405024D01*
X1542214Y405081D01*
X1542296Y405135D01*
X1542380Y405186D01*
X1542465Y405233D01*
X1542553Y405277D01*
X1542642Y405317D01*
X1542732Y405353D01*
X1542824Y405386D01*
X1542918Y405415D01*
X1543012Y405440D01*
X1543108Y405462D01*
X1543204Y405480D01*
X1543300Y405493D01*
X1543398Y405503D01*
X1543495Y405509D01*
X1543593Y405511D01*
X1543726Y405509D01*
X1543859Y405503D01*
X1543992Y405493D01*
X1544124Y405480D01*
X1544256Y405462D01*
X1544388Y405441D01*
X1544518Y405416D01*
X1544648Y405387D01*
X1544777Y405354D01*
X1544905Y405318D01*
X1545032Y405277D01*
X1545158Y405234D01*
X1545282Y405186D01*
X1545405Y405135D01*
X1545526Y405080D01*
X1545646Y405022D01*
X1545764Y404960D01*
X1545880Y404895D01*
X1545994Y404826D01*
X1546106Y404754D01*
X1546216Y404679D01*
X1546324Y404601D01*
X1542380Y400960D02*
X1542296Y401012D01*
X1542214Y401067D01*
X1542135Y401125D01*
X1542058Y401186D01*
X1541983Y401251D01*
X1541911Y401318D01*
X1541842Y401388D01*
X1541776Y401461D01*
X1541713Y401536D01*
X1541652Y401614D01*
X1541595Y401694D01*
X1541541Y401777D01*
X1541491Y401861D01*
X1541444Y401947D01*
X1541400Y402036D01*
X1541360Y402126D01*
X1541323Y402217D01*
X1541291Y402310D01*
X1541262Y402404D01*
X1541236Y402499D01*
X1541215Y402595D01*
X1541197Y402692D01*
X1541184Y402789D01*
X1541174Y402887D01*
X1541168Y402986D01*
X1541166Y403084D01*
X1545716Y399140D02*
X1545800Y399088D01*
X1545882Y399033D01*
X1545961Y398975D01*
X1546038Y398914D01*
X1546113Y398849D01*
X1546185Y398782D01*
X1546254Y398712D01*
X1546320Y398639D01*
X1546383Y398564D01*
X1546444Y398486D01*
X1546501Y398406D01*
X1546555Y398323D01*
X1546605Y398239D01*
X1546652Y398153D01*
X1546696Y398064D01*
X1546736Y397974D01*
X1546773Y397883D01*
X1546805Y397790D01*
X1546834Y397696D01*
X1546860Y397601D01*
X1546881Y397505D01*
X1546899Y397408D01*
X1546912Y397311D01*
X1546922Y397213D01*
X1546928Y397114D01*
X1546930Y397016D01*
X1545717Y399140D02*
X1542380Y400960D01*
X1555171Y394589D02*
X1555269Y394591D01*
X1555366Y394597D01*
X1555464Y394607D01*
X1555560Y394620D01*
X1555656Y394638D01*
X1555752Y394660D01*
X1555846Y394685D01*
X1555940Y394714D01*
X1556032Y394747D01*
X1556122Y394783D01*
X1556211Y394823D01*
X1556299Y394867D01*
X1556385Y394914D01*
X1556468Y394965D01*
X1556550Y395019D01*
X1556629Y395076D01*
X1556706Y395136D01*
X1556780Y395199D01*
X1556852Y395266D01*
X1556921Y395335D01*
X1556988Y395407D01*
X1557051Y395481D01*
X1557111Y395558D01*
X1557168Y395637D01*
X1557222Y395719D01*
X1557273Y395803D01*
X1557320Y395888D01*
X1557364Y395976D01*
X1557404Y396065D01*
X1557440Y396155D01*
X1557473Y396247D01*
X1557502Y396341D01*
X1557527Y396435D01*
X1557549Y396531D01*
X1557567Y396627D01*
X1557580Y396723D01*
X1557590Y396821D01*
X1557596Y396918D01*
X1557598Y397016D01*
X1555171Y394589D02*
X1555031Y394591D01*
X1554892Y394597D01*
X1554753Y394606D01*
X1554614Y394619D01*
X1554475Y394636D01*
X1554337Y394657D01*
X1554200Y394682D01*
X1554063Y394710D01*
X1553927Y394742D01*
X1553792Y394778D01*
X1553658Y394817D01*
X1553526Y394860D01*
X1553394Y394907D01*
X1553264Y394957D01*
X1553135Y395011D01*
X1553008Y395068D01*
X1552882Y395128D01*
X1552758Y395192D01*
X1552635Y395260D01*
X1552515Y395331D01*
X1552397Y395404D01*
X1552280Y395482D01*
X1552166Y395562D01*
X1552054Y395645D01*
X1551944Y395732D01*
X1551837Y395821D01*
X1551732Y395913D01*
X1551630Y396008D01*
X1551531Y396106D01*
X1551834Y403084D02*
X1551836Y403182D01*
X1551842Y403279D01*
X1551852Y403377D01*
X1551865Y403473D01*
X1551883Y403569D01*
X1551905Y403665D01*
X1551930Y403759D01*
X1551959Y403853D01*
X1551992Y403945D01*
X1552028Y404035D01*
X1552068Y404124D01*
X1552112Y404212D01*
X1552159Y404298D01*
X1552210Y404381D01*
X1552264Y404463D01*
X1552321Y404542D01*
X1552381Y404619D01*
X1552444Y404693D01*
X1552511Y404765D01*
X1552580Y404834D01*
X1552652Y404901D01*
X1552726Y404964D01*
X1552803Y405024D01*
X1552882Y405081D01*
X1552964Y405135D01*
X1553048Y405186D01*
X1553133Y405233D01*
X1553221Y405277D01*
X1553310Y405317D01*
X1553400Y405353D01*
X1553492Y405386D01*
X1553586Y405415D01*
X1553680Y405440D01*
X1553776Y405462D01*
X1553872Y405480D01*
X1553968Y405493D01*
X1554066Y405503D01*
X1554163Y405509D01*
X1554261Y405511D01*
X1554394Y405509D01*
X1554527Y405503D01*
X1554660Y405493D01*
X1554792Y405480D01*
X1554924Y405462D01*
X1555056Y405441D01*
X1555186Y405416D01*
X1555316Y405387D01*
X1555445Y405354D01*
X1555573Y405318D01*
X1555700Y405277D01*
X1555826Y405234D01*
X1555950Y405186D01*
X1556073Y405135D01*
X1556194Y405080D01*
X1556314Y405022D01*
X1556432Y404960D01*
X1556548Y404895D01*
X1556662Y404826D01*
X1556774Y404754D01*
X1556884Y404679D01*
X1556992Y404601D01*
X1553048Y400960D02*
X1552964Y401012D01*
X1552882Y401067D01*
X1552803Y401125D01*
X1552726Y401186D01*
X1552651Y401251D01*
X1552579Y401318D01*
X1552510Y401388D01*
X1552444Y401461D01*
X1552381Y401536D01*
X1552320Y401614D01*
X1552263Y401694D01*
X1552209Y401777D01*
X1552159Y401861D01*
X1552112Y401947D01*
X1552068Y402036D01*
X1552028Y402126D01*
X1551991Y402217D01*
X1551959Y402310D01*
X1551930Y402404D01*
X1551904Y402499D01*
X1551883Y402595D01*
X1551865Y402692D01*
X1551852Y402789D01*
X1551842Y402887D01*
X1551836Y402986D01*
X1551834Y403084D01*
X1556384Y399140D02*
X1556468Y399088D01*
X1556550Y399033D01*
X1556629Y398975D01*
X1556706Y398914D01*
X1556781Y398849D01*
X1556853Y398782D01*
X1556922Y398712D01*
X1556988Y398639D01*
X1557051Y398564D01*
X1557112Y398486D01*
X1557169Y398406D01*
X1557223Y398323D01*
X1557273Y398239D01*
X1557320Y398153D01*
X1557364Y398064D01*
X1557404Y397974D01*
X1557441Y397883D01*
X1557473Y397790D01*
X1557502Y397696D01*
X1557528Y397601D01*
X1557549Y397505D01*
X1557567Y397408D01*
X1557580Y397311D01*
X1557590Y397213D01*
X1557596Y397114D01*
X1557598Y397016D01*
X1556385Y399140D02*
X1553048Y400960D01*
D12*
X1052680Y932180D02*
X1052701Y933898D01*
X1052764Y935615D01*
X1052870Y937330D01*
X1053017Y939041D01*
X1053206Y940749D01*
X1053438Y942451D01*
X1053711Y944147D01*
X1054025Y945836D01*
X1054381Y947517D01*
X1054778Y949189D01*
X1055216Y950850D01*
X1055694Y952500D01*
X1056213Y954138D01*
X1056772Y955762D01*
X1057371Y957373D01*
X1058008Y958968D01*
X1058685Y960547D01*
X1059401Y962109D01*
X1060154Y963653D01*
X1060946Y965178D01*
X1061774Y966683D01*
X1062639Y968167D01*
X1063540Y969630D01*
X1064477Y971070D01*
X1065449Y972487D01*
X1066455Y973879D01*
X1067496Y975246D01*
X1068569Y976588D01*
X1069675Y977902D01*
X1070813Y979189D01*
X1071983Y980448D01*
X1073183Y981677D01*
X1074412Y982877D01*
X1075671Y984047D01*
X1076958Y985185D01*
X1078272Y986291D01*
X1079614Y987364D01*
X1080981Y988405D01*
X1082373Y989411D01*
X1083790Y990383D01*
X1085230Y991320D01*
X1086693Y992221D01*
X1088177Y993086D01*
X1089682Y993914D01*
X1091207Y994706D01*
X1092751Y995459D01*
X1094313Y996175D01*
X1095892Y996852D01*
X1097487Y997489D01*
X1099098Y998088D01*
X1100722Y998647D01*
X1102360Y999166D01*
X1104010Y999644D01*
X1105671Y1000082D01*
X1107343Y1000479D01*
X1109024Y1000835D01*
X1110713Y1001149D01*
X1112409Y1001422D01*
X1114111Y1001654D01*
X1115819Y1001843D01*
X1117530Y1001990D01*
X1119245Y1002096D01*
X1120962Y1002159D01*
X1122680Y1002180D01*
X1124398Y1002159D01*
X1126115Y1002096D01*
X1127830Y1001990D01*
X1129541Y1001843D01*
X1131249Y1001654D01*
X1132951Y1001422D01*
X1134647Y1001149D01*
X1136336Y1000835D01*
X1138017Y1000479D01*
X1139689Y1000082D01*
X1141350Y999644D01*
X1143000Y999166D01*
X1144638Y998647D01*
X1146262Y998088D01*
X1147873Y997489D01*
X1149468Y996852D01*
X1151047Y996175D01*
X1152609Y995459D01*
X1154153Y994706D01*
X1155678Y993914D01*
X1157183Y993086D01*
X1158667Y992221D01*
X1160130Y991320D01*
X1161570Y990383D01*
X1162987Y989411D01*
X1164379Y988405D01*
X1165746Y987364D01*
X1167088Y986291D01*
X1168402Y985185D01*
X1169689Y984047D01*
X1170948Y982877D01*
X1172177Y981677D01*
X1173377Y980448D01*
X1174547Y979189D01*
X1175685Y977902D01*
X1176791Y976588D01*
X1177864Y975246D01*
X1178905Y973879D01*
X1179911Y972487D01*
X1180883Y971070D01*
X1181820Y969630D01*
X1182721Y968167D01*
X1183586Y966683D01*
X1184414Y965178D01*
X1185206Y963653D01*
X1185959Y962109D01*
X1186675Y960547D01*
X1187352Y958968D01*
X1187989Y957373D01*
X1188588Y955762D01*
X1189147Y954138D01*
X1189666Y952500D01*
X1190144Y950850D01*
X1190582Y949189D01*
X1190979Y947517D01*
X1191335Y945836D01*
X1191649Y944147D01*
X1191922Y942451D01*
X1192154Y940749D01*
X1192343Y939041D01*
X1192490Y937330D01*
X1192596Y935615D01*
X1192659Y933898D01*
X1192680Y932180D01*
X1192659Y930462D01*
X1192596Y928745D01*
X1192490Y927030D01*
X1192343Y925319D01*
X1192154Y923611D01*
X1191922Y921909D01*
X1191649Y920213D01*
X1191335Y918524D01*
X1190979Y916843D01*
X1190582Y915171D01*
X1190144Y913510D01*
X1189666Y911860D01*
X1189147Y910222D01*
X1188588Y908598D01*
X1187989Y906987D01*
X1187352Y905392D01*
X1186675Y903813D01*
X1185959Y902251D01*
X1185206Y900707D01*
X1184414Y899182D01*
X1183586Y897677D01*
X1182721Y896193D01*
X1181820Y894730D01*
X1180883Y893290D01*
X1179911Y891873D01*
X1178905Y890481D01*
X1177864Y889114D01*
X1176791Y887772D01*
X1175685Y886458D01*
X1174547Y885171D01*
X1173377Y883912D01*
X1172177Y882683D01*
X1170948Y881483D01*
X1169689Y880313D01*
X1168402Y879175D01*
X1167088Y878069D01*
X1165746Y876996D01*
X1164379Y875955D01*
X1162987Y874949D01*
X1161570Y873977D01*
X1160130Y873040D01*
X1158667Y872139D01*
X1157183Y871274D01*
X1155678Y870446D01*
X1154153Y869654D01*
X1152609Y868901D01*
X1151047Y868185D01*
X1149468Y867508D01*
X1147873Y866871D01*
X1146262Y866272D01*
X1144638Y865713D01*
X1143000Y865194D01*
X1141350Y864716D01*
X1139689Y864278D01*
X1138017Y863881D01*
X1136336Y863525D01*
X1134647Y863211D01*
X1132951Y862938D01*
X1131249Y862706D01*
X1129541Y862517D01*
X1127830Y862370D01*
X1126115Y862264D01*
X1124398Y862201D01*
X1122680Y862180D01*
X1120962Y862201D01*
X1119245Y862264D01*
X1117530Y862370D01*
X1115819Y862517D01*
X1114111Y862706D01*
X1112409Y862938D01*
X1110713Y863211D01*
X1109024Y863525D01*
X1107343Y863881D01*
X1105671Y864278D01*
X1104010Y864716D01*
X1102360Y865194D01*
X1100722Y865713D01*
X1099098Y866272D01*
X1097487Y866871D01*
X1095892Y867508D01*
X1094313Y868185D01*
X1092751Y868901D01*
X1091207Y869654D01*
X1089682Y870446D01*
X1088177Y871274D01*
X1086693Y872139D01*
X1085230Y873040D01*
X1083790Y873977D01*
X1082373Y874949D01*
X1080981Y875955D01*
X1079614Y876996D01*
X1078272Y878069D01*
X1076958Y879175D01*
X1075671Y880313D01*
X1074412Y881483D01*
X1073183Y882683D01*
X1071983Y883912D01*
X1070813Y885171D01*
X1069675Y886458D01*
X1068569Y887772D01*
X1067496Y889114D01*
X1066455Y890481D01*
X1065449Y891873D01*
X1064477Y893290D01*
X1063540Y894730D01*
X1062639Y896193D01*
X1061774Y897677D01*
X1060946Y899182D01*
X1060154Y900707D01*
X1059401Y902251D01*
X1058685Y903813D01*
X1058008Y905392D01*
X1057371Y906987D01*
X1056772Y908598D01*
X1056213Y910222D01*
X1055694Y911860D01*
X1055216Y913510D01*
X1054778Y915171D01*
X1054381Y916843D01*
X1054025Y918524D01*
X1053711Y920213D01*
X1053438Y921909D01*
X1053206Y923611D01*
X1053017Y925319D01*
X1052870Y927030D01*
X1052764Y928745D01*
X1052701Y930462D01*
X1052680Y932180D01*
D13*
X1510919Y770001D02*
X1510919Y759079D01*
X1510919Y765147D02*
X1516987Y765147D01*
X1516987Y770001D02*
X1516987Y759079D01*
X1522730Y759079D02*
X1525764Y759079D01*
X1525872Y759081D01*
X1525980Y759087D01*
X1526088Y759096D01*
X1526196Y759110D01*
X1526303Y759127D01*
X1526409Y759148D01*
X1526514Y759173D01*
X1526619Y759202D01*
X1526722Y759234D01*
X1526824Y759270D01*
X1526925Y759310D01*
X1527024Y759353D01*
X1527122Y759400D01*
X1527218Y759450D01*
X1527312Y759504D01*
X1527404Y759561D01*
X1527494Y759621D01*
X1527582Y759684D01*
X1527668Y759751D01*
X1527751Y759820D01*
X1527831Y759892D01*
X1527909Y759968D01*
X1527985Y760046D01*
X1528057Y760126D01*
X1528126Y760209D01*
X1528193Y760295D01*
X1528256Y760383D01*
X1528316Y760473D01*
X1528373Y760565D01*
X1528427Y760659D01*
X1528477Y760755D01*
X1528524Y760853D01*
X1528567Y760952D01*
X1528607Y761053D01*
X1528643Y761155D01*
X1528675Y761258D01*
X1528704Y761363D01*
X1528729Y761468D01*
X1528750Y761574D01*
X1528767Y761681D01*
X1528781Y761789D01*
X1528790Y761897D01*
X1528796Y762005D01*
X1528798Y762113D01*
X1528796Y762221D01*
X1528790Y762329D01*
X1528781Y762437D01*
X1528767Y762545D01*
X1528750Y762652D01*
X1528729Y762758D01*
X1528704Y762863D01*
X1528675Y762968D01*
X1528643Y763071D01*
X1528607Y763173D01*
X1528567Y763274D01*
X1528524Y763373D01*
X1528477Y763471D01*
X1528427Y763567D01*
X1528373Y763661D01*
X1528316Y763753D01*
X1528256Y763843D01*
X1528193Y763931D01*
X1528126Y764017D01*
X1528057Y764100D01*
X1527985Y764180D01*
X1527909Y764258D01*
X1527831Y764334D01*
X1527751Y764406D01*
X1527668Y764475D01*
X1527582Y764542D01*
X1527494Y764605D01*
X1527404Y764665D01*
X1527312Y764722D01*
X1527218Y764776D01*
X1527122Y764826D01*
X1527024Y764873D01*
X1526925Y764916D01*
X1526824Y764956D01*
X1526722Y764992D01*
X1526619Y765024D01*
X1526514Y765053D01*
X1526409Y765078D01*
X1526303Y765099D01*
X1526196Y765116D01*
X1526088Y765130D01*
X1525980Y765139D01*
X1525872Y765145D01*
X1525764Y765147D01*
X1526371Y770001D02*
X1522730Y770001D01*
X1526371Y770001D02*
X1526469Y769999D01*
X1526566Y769993D01*
X1526664Y769983D01*
X1526760Y769970D01*
X1526856Y769952D01*
X1526952Y769930D01*
X1527046Y769905D01*
X1527140Y769876D01*
X1527232Y769843D01*
X1527322Y769807D01*
X1527411Y769767D01*
X1527499Y769723D01*
X1527585Y769676D01*
X1527668Y769625D01*
X1527750Y769571D01*
X1527829Y769514D01*
X1527906Y769454D01*
X1527980Y769391D01*
X1528052Y769324D01*
X1528121Y769255D01*
X1528188Y769183D01*
X1528251Y769109D01*
X1528311Y769032D01*
X1528368Y768953D01*
X1528422Y768871D01*
X1528473Y768788D01*
X1528520Y768702D01*
X1528564Y768614D01*
X1528604Y768525D01*
X1528640Y768435D01*
X1528673Y768343D01*
X1528702Y768249D01*
X1528727Y768155D01*
X1528749Y768059D01*
X1528767Y767963D01*
X1528780Y767867D01*
X1528790Y767769D01*
X1528796Y767672D01*
X1528798Y767574D01*
X1528796Y767476D01*
X1528790Y767379D01*
X1528780Y767281D01*
X1528767Y767185D01*
X1528749Y767089D01*
X1528727Y766993D01*
X1528702Y766899D01*
X1528673Y766805D01*
X1528640Y766713D01*
X1528604Y766623D01*
X1528564Y766534D01*
X1528520Y766446D01*
X1528473Y766361D01*
X1528422Y766277D01*
X1528368Y766195D01*
X1528311Y766116D01*
X1528251Y766039D01*
X1528188Y765965D01*
X1528121Y765893D01*
X1528052Y765824D01*
X1527980Y765757D01*
X1527906Y765694D01*
X1527829Y765634D01*
X1527750Y765577D01*
X1527668Y765523D01*
X1527585Y765472D01*
X1527499Y765425D01*
X1527411Y765381D01*
X1527322Y765341D01*
X1527232Y765305D01*
X1527140Y765272D01*
X1527046Y765243D01*
X1526952Y765218D01*
X1526856Y765196D01*
X1526760Y765178D01*
X1526664Y765165D01*
X1526566Y765155D01*
X1526469Y765149D01*
X1526371Y765147D01*
X1523944Y765147D01*
X1509649Y747141D02*
X1509649Y736219D01*
X1513290Y741073D02*
X1509649Y747141D01*
X1513290Y741073D02*
X1516930Y747141D01*
X1516930Y736219D01*
X1522829Y736219D02*
X1525863Y736219D01*
X1525971Y736221D01*
X1526079Y736227D01*
X1526187Y736236D01*
X1526295Y736250D01*
X1526402Y736267D01*
X1526508Y736288D01*
X1526613Y736313D01*
X1526718Y736342D01*
X1526821Y736374D01*
X1526923Y736410D01*
X1527024Y736450D01*
X1527123Y736493D01*
X1527221Y736540D01*
X1527317Y736590D01*
X1527411Y736644D01*
X1527503Y736701D01*
X1527593Y736761D01*
X1527681Y736824D01*
X1527767Y736891D01*
X1527850Y736960D01*
X1527930Y737032D01*
X1528008Y737108D01*
X1528084Y737186D01*
X1528156Y737266D01*
X1528225Y737349D01*
X1528292Y737435D01*
X1528355Y737523D01*
X1528415Y737613D01*
X1528472Y737705D01*
X1528526Y737799D01*
X1528576Y737895D01*
X1528623Y737993D01*
X1528666Y738092D01*
X1528706Y738193D01*
X1528742Y738295D01*
X1528774Y738398D01*
X1528803Y738503D01*
X1528828Y738608D01*
X1528849Y738714D01*
X1528866Y738821D01*
X1528880Y738929D01*
X1528889Y739037D01*
X1528895Y739145D01*
X1528897Y739253D01*
X1528895Y739361D01*
X1528889Y739469D01*
X1528880Y739577D01*
X1528866Y739685D01*
X1528849Y739792D01*
X1528828Y739898D01*
X1528803Y740003D01*
X1528774Y740108D01*
X1528742Y740211D01*
X1528706Y740313D01*
X1528666Y740414D01*
X1528623Y740513D01*
X1528576Y740611D01*
X1528526Y740707D01*
X1528472Y740801D01*
X1528415Y740893D01*
X1528355Y740983D01*
X1528292Y741071D01*
X1528225Y741157D01*
X1528156Y741240D01*
X1528084Y741320D01*
X1528008Y741398D01*
X1527930Y741474D01*
X1527850Y741546D01*
X1527767Y741615D01*
X1527681Y741682D01*
X1527593Y741745D01*
X1527503Y741805D01*
X1527411Y741862D01*
X1527317Y741916D01*
X1527221Y741966D01*
X1527123Y742013D01*
X1527024Y742056D01*
X1526923Y742096D01*
X1526821Y742132D01*
X1526718Y742164D01*
X1526613Y742193D01*
X1526508Y742218D01*
X1526402Y742239D01*
X1526295Y742256D01*
X1526187Y742270D01*
X1526079Y742279D01*
X1525971Y742285D01*
X1525863Y742287D01*
X1526469Y747141D02*
X1522829Y747141D01*
X1526469Y747141D02*
X1526567Y747139D01*
X1526664Y747133D01*
X1526762Y747123D01*
X1526858Y747110D01*
X1526954Y747092D01*
X1527050Y747070D01*
X1527144Y747045D01*
X1527238Y747016D01*
X1527330Y746983D01*
X1527420Y746947D01*
X1527509Y746907D01*
X1527597Y746863D01*
X1527683Y746816D01*
X1527766Y746765D01*
X1527848Y746711D01*
X1527927Y746654D01*
X1528004Y746594D01*
X1528078Y746531D01*
X1528150Y746464D01*
X1528219Y746395D01*
X1528286Y746323D01*
X1528349Y746249D01*
X1528409Y746172D01*
X1528466Y746093D01*
X1528520Y746011D01*
X1528571Y745928D01*
X1528618Y745842D01*
X1528662Y745754D01*
X1528702Y745665D01*
X1528738Y745575D01*
X1528771Y745483D01*
X1528800Y745389D01*
X1528825Y745295D01*
X1528847Y745199D01*
X1528865Y745103D01*
X1528878Y745007D01*
X1528888Y744909D01*
X1528894Y744812D01*
X1528896Y744714D01*
X1528894Y744616D01*
X1528888Y744519D01*
X1528878Y744421D01*
X1528865Y744325D01*
X1528847Y744229D01*
X1528825Y744133D01*
X1528800Y744039D01*
X1528771Y743945D01*
X1528738Y743853D01*
X1528702Y743763D01*
X1528662Y743674D01*
X1528618Y743586D01*
X1528571Y743501D01*
X1528520Y743417D01*
X1528466Y743335D01*
X1528409Y743256D01*
X1528349Y743179D01*
X1528286Y743105D01*
X1528219Y743033D01*
X1528150Y742964D01*
X1528078Y742897D01*
X1528004Y742834D01*
X1527927Y742774D01*
X1527848Y742717D01*
X1527766Y742663D01*
X1527683Y742612D01*
X1527597Y742565D01*
X1527509Y742521D01*
X1527420Y742481D01*
X1527330Y742445D01*
X1527238Y742412D01*
X1527144Y742383D01*
X1527050Y742358D01*
X1526954Y742336D01*
X1526858Y742318D01*
X1526762Y742305D01*
X1526664Y742295D01*
X1526567Y742289D01*
X1526469Y742287D01*
X1524042Y742287D01*
X1533723Y735005D02*
X1538577Y735005D01*
X1544017Y742287D02*
X1547050Y742287D01*
X1547158Y742285D01*
X1547266Y742279D01*
X1547374Y742270D01*
X1547482Y742256D01*
X1547589Y742239D01*
X1547695Y742218D01*
X1547800Y742193D01*
X1547905Y742164D01*
X1548008Y742132D01*
X1548110Y742096D01*
X1548211Y742056D01*
X1548310Y742013D01*
X1548408Y741966D01*
X1548504Y741916D01*
X1548598Y741862D01*
X1548690Y741805D01*
X1548780Y741745D01*
X1548868Y741682D01*
X1548954Y741615D01*
X1549037Y741546D01*
X1549117Y741474D01*
X1549195Y741398D01*
X1549271Y741320D01*
X1549343Y741240D01*
X1549412Y741157D01*
X1549479Y741071D01*
X1549542Y740983D01*
X1549602Y740893D01*
X1549659Y740801D01*
X1549713Y740707D01*
X1549763Y740611D01*
X1549810Y740513D01*
X1549853Y740414D01*
X1549893Y740313D01*
X1549929Y740211D01*
X1549961Y740108D01*
X1549990Y740003D01*
X1550015Y739898D01*
X1550036Y739792D01*
X1550053Y739685D01*
X1550067Y739577D01*
X1550076Y739469D01*
X1550082Y739361D01*
X1550084Y739253D01*
X1550082Y739145D01*
X1550076Y739037D01*
X1550067Y738929D01*
X1550053Y738821D01*
X1550036Y738714D01*
X1550015Y738608D01*
X1549990Y738503D01*
X1549961Y738398D01*
X1549929Y738295D01*
X1549893Y738193D01*
X1549853Y738092D01*
X1549810Y737993D01*
X1549763Y737895D01*
X1549713Y737799D01*
X1549659Y737705D01*
X1549602Y737613D01*
X1549542Y737523D01*
X1549479Y737435D01*
X1549412Y737349D01*
X1549343Y737266D01*
X1549271Y737186D01*
X1549195Y737108D01*
X1549117Y737032D01*
X1549037Y736960D01*
X1548954Y736891D01*
X1548868Y736824D01*
X1548780Y736761D01*
X1548690Y736701D01*
X1548598Y736644D01*
X1548504Y736590D01*
X1548408Y736540D01*
X1548310Y736493D01*
X1548211Y736450D01*
X1548110Y736410D01*
X1548008Y736374D01*
X1547905Y736342D01*
X1547800Y736313D01*
X1547695Y736288D01*
X1547589Y736267D01*
X1547482Y736250D01*
X1547374Y736236D01*
X1547266Y736227D01*
X1547158Y736221D01*
X1547050Y736219D01*
X1544017Y736219D01*
X1544017Y747141D01*
X1547050Y747141D01*
X1547148Y747139D01*
X1547245Y747133D01*
X1547343Y747123D01*
X1547439Y747110D01*
X1547535Y747092D01*
X1547631Y747070D01*
X1547725Y747045D01*
X1547819Y747016D01*
X1547911Y746983D01*
X1548001Y746947D01*
X1548090Y746907D01*
X1548178Y746863D01*
X1548264Y746816D01*
X1548347Y746765D01*
X1548429Y746711D01*
X1548508Y746654D01*
X1548585Y746594D01*
X1548659Y746531D01*
X1548731Y746464D01*
X1548800Y746395D01*
X1548867Y746323D01*
X1548930Y746249D01*
X1548990Y746172D01*
X1549047Y746093D01*
X1549101Y746011D01*
X1549152Y745928D01*
X1549199Y745842D01*
X1549243Y745754D01*
X1549283Y745665D01*
X1549319Y745575D01*
X1549352Y745483D01*
X1549381Y745389D01*
X1549406Y745295D01*
X1549428Y745199D01*
X1549446Y745103D01*
X1549459Y745007D01*
X1549469Y744909D01*
X1549475Y744812D01*
X1549477Y744714D01*
X1549475Y744616D01*
X1549469Y744519D01*
X1549459Y744421D01*
X1549446Y744325D01*
X1549428Y744229D01*
X1549406Y744133D01*
X1549381Y744039D01*
X1549352Y743945D01*
X1549319Y743853D01*
X1549283Y743763D01*
X1549243Y743674D01*
X1549199Y743586D01*
X1549152Y743501D01*
X1549101Y743417D01*
X1549047Y743335D01*
X1548990Y743256D01*
X1548930Y743179D01*
X1548867Y743105D01*
X1548800Y743033D01*
X1548731Y742964D01*
X1548659Y742897D01*
X1548585Y742834D01*
X1548508Y742774D01*
X1548429Y742717D01*
X1548347Y742663D01*
X1548264Y742612D01*
X1548178Y742565D01*
X1548090Y742521D01*
X1548001Y742481D01*
X1547911Y742445D01*
X1547819Y742412D01*
X1547725Y742383D01*
X1547631Y742358D01*
X1547535Y742336D01*
X1547439Y742318D01*
X1547343Y742305D01*
X1547245Y742295D01*
X1547148Y742289D01*
X1547050Y742287D01*
X1555315Y747141D02*
X1555315Y736219D01*
X1555315Y747141D02*
X1558349Y747141D01*
X1558457Y747139D01*
X1558565Y747133D01*
X1558673Y747124D01*
X1558781Y747110D01*
X1558888Y747093D01*
X1558994Y747072D01*
X1559099Y747047D01*
X1559204Y747018D01*
X1559307Y746986D01*
X1559409Y746950D01*
X1559510Y746910D01*
X1559609Y746867D01*
X1559707Y746820D01*
X1559803Y746770D01*
X1559897Y746716D01*
X1559989Y746659D01*
X1560079Y746599D01*
X1560167Y746536D01*
X1560253Y746469D01*
X1560336Y746400D01*
X1560416Y746328D01*
X1560494Y746252D01*
X1560570Y746174D01*
X1560642Y746094D01*
X1560711Y746011D01*
X1560778Y745925D01*
X1560841Y745837D01*
X1560901Y745747D01*
X1560958Y745655D01*
X1561012Y745561D01*
X1561062Y745465D01*
X1561109Y745367D01*
X1561152Y745268D01*
X1561192Y745167D01*
X1561228Y745065D01*
X1561260Y744962D01*
X1561289Y744857D01*
X1561314Y744752D01*
X1561335Y744646D01*
X1561352Y744539D01*
X1561366Y744431D01*
X1561375Y744323D01*
X1561381Y744215D01*
X1561383Y744107D01*
X1561381Y743999D01*
X1561375Y743891D01*
X1561366Y743783D01*
X1561352Y743675D01*
X1561335Y743568D01*
X1561314Y743462D01*
X1561289Y743357D01*
X1561260Y743252D01*
X1561228Y743149D01*
X1561192Y743047D01*
X1561152Y742946D01*
X1561109Y742847D01*
X1561062Y742749D01*
X1561012Y742653D01*
X1560958Y742559D01*
X1560901Y742467D01*
X1560841Y742377D01*
X1560778Y742289D01*
X1560711Y742203D01*
X1560642Y742120D01*
X1560570Y742040D01*
X1560494Y741962D01*
X1560416Y741886D01*
X1560336Y741814D01*
X1560253Y741745D01*
X1560167Y741678D01*
X1560079Y741615D01*
X1559989Y741555D01*
X1559897Y741498D01*
X1559803Y741444D01*
X1559707Y741394D01*
X1559609Y741347D01*
X1559510Y741304D01*
X1559409Y741264D01*
X1559307Y741228D01*
X1559204Y741196D01*
X1559099Y741167D01*
X1558994Y741142D01*
X1558888Y741121D01*
X1558781Y741104D01*
X1558673Y741090D01*
X1558565Y741081D01*
X1558457Y741075D01*
X1558349Y741073D01*
X1555315Y741073D01*
X1558956Y741073D02*
X1561383Y736219D01*
X1566037Y736219D02*
X1569678Y747141D01*
X1573318Y736219D01*
X1572408Y738950D02*
X1566947Y738950D01*
X1581333Y736219D02*
X1581431Y736221D01*
X1581528Y736227D01*
X1581626Y736237D01*
X1581722Y736250D01*
X1581818Y736268D01*
X1581914Y736290D01*
X1582008Y736315D01*
X1582102Y736344D01*
X1582194Y736377D01*
X1582284Y736413D01*
X1582373Y736453D01*
X1582461Y736497D01*
X1582547Y736544D01*
X1582630Y736595D01*
X1582712Y736649D01*
X1582791Y736706D01*
X1582868Y736766D01*
X1582942Y736829D01*
X1583014Y736896D01*
X1583083Y736965D01*
X1583150Y737037D01*
X1583213Y737111D01*
X1583273Y737188D01*
X1583330Y737267D01*
X1583384Y737349D01*
X1583435Y737433D01*
X1583482Y737518D01*
X1583526Y737606D01*
X1583566Y737695D01*
X1583602Y737785D01*
X1583635Y737877D01*
X1583664Y737971D01*
X1583689Y738065D01*
X1583711Y738161D01*
X1583729Y738257D01*
X1583742Y738353D01*
X1583752Y738451D01*
X1583758Y738548D01*
X1583760Y738646D01*
X1581333Y736219D02*
X1581193Y736221D01*
X1581054Y736227D01*
X1580915Y736236D01*
X1580776Y736249D01*
X1580637Y736266D01*
X1580499Y736287D01*
X1580362Y736312D01*
X1580225Y736340D01*
X1580089Y736372D01*
X1579954Y736408D01*
X1579820Y736447D01*
X1579688Y736490D01*
X1579556Y736537D01*
X1579426Y736587D01*
X1579297Y736641D01*
X1579170Y736698D01*
X1579044Y736758D01*
X1578920Y736822D01*
X1578797Y736890D01*
X1578677Y736961D01*
X1578559Y737034D01*
X1578442Y737112D01*
X1578328Y737192D01*
X1578216Y737275D01*
X1578106Y737362D01*
X1577999Y737451D01*
X1577894Y737543D01*
X1577792Y737638D01*
X1577693Y737736D01*
X1577996Y744714D02*
X1577998Y744812D01*
X1578004Y744909D01*
X1578014Y745007D01*
X1578027Y745103D01*
X1578045Y745199D01*
X1578067Y745295D01*
X1578092Y745389D01*
X1578121Y745483D01*
X1578154Y745575D01*
X1578190Y745665D01*
X1578230Y745754D01*
X1578274Y745842D01*
X1578321Y745928D01*
X1578372Y746011D01*
X1578426Y746093D01*
X1578483Y746172D01*
X1578543Y746249D01*
X1578606Y746323D01*
X1578673Y746395D01*
X1578742Y746464D01*
X1578814Y746531D01*
X1578888Y746594D01*
X1578965Y746654D01*
X1579044Y746711D01*
X1579126Y746765D01*
X1579210Y746816D01*
X1579295Y746863D01*
X1579383Y746907D01*
X1579472Y746947D01*
X1579562Y746983D01*
X1579654Y747016D01*
X1579748Y747045D01*
X1579842Y747070D01*
X1579938Y747092D01*
X1580034Y747110D01*
X1580130Y747123D01*
X1580228Y747133D01*
X1580325Y747139D01*
X1580423Y747141D01*
X1580556Y747139D01*
X1580689Y747133D01*
X1580822Y747123D01*
X1580954Y747110D01*
X1581086Y747092D01*
X1581218Y747071D01*
X1581348Y747046D01*
X1581478Y747017D01*
X1581607Y746984D01*
X1581735Y746948D01*
X1581862Y746907D01*
X1581988Y746864D01*
X1582112Y746816D01*
X1582235Y746765D01*
X1582356Y746710D01*
X1582476Y746652D01*
X1582594Y746590D01*
X1582710Y746525D01*
X1582824Y746456D01*
X1582936Y746384D01*
X1583046Y746309D01*
X1583154Y746231D01*
X1579210Y742590D02*
X1579126Y742642D01*
X1579044Y742697D01*
X1578965Y742755D01*
X1578888Y742816D01*
X1578813Y742881D01*
X1578741Y742948D01*
X1578672Y743018D01*
X1578606Y743091D01*
X1578543Y743166D01*
X1578482Y743244D01*
X1578425Y743324D01*
X1578371Y743407D01*
X1578321Y743491D01*
X1578274Y743577D01*
X1578230Y743666D01*
X1578190Y743756D01*
X1578153Y743847D01*
X1578121Y743940D01*
X1578092Y744034D01*
X1578066Y744129D01*
X1578045Y744225D01*
X1578027Y744322D01*
X1578014Y744419D01*
X1578004Y744517D01*
X1577998Y744616D01*
X1577996Y744714D01*
X1582546Y740770D02*
X1582630Y740718D01*
X1582712Y740663D01*
X1582791Y740605D01*
X1582868Y740544D01*
X1582943Y740479D01*
X1583015Y740412D01*
X1583084Y740342D01*
X1583150Y740269D01*
X1583213Y740194D01*
X1583274Y740116D01*
X1583331Y740036D01*
X1583385Y739953D01*
X1583435Y739869D01*
X1583482Y739783D01*
X1583526Y739694D01*
X1583566Y739604D01*
X1583603Y739513D01*
X1583635Y739420D01*
X1583664Y739326D01*
X1583690Y739231D01*
X1583711Y739135D01*
X1583729Y739038D01*
X1583742Y738941D01*
X1583752Y738843D01*
X1583758Y738744D01*
X1583760Y738646D01*
X1582547Y740770D02*
X1579210Y742590D01*
X1592001Y736219D02*
X1592099Y736221D01*
X1592196Y736227D01*
X1592294Y736237D01*
X1592390Y736250D01*
X1592486Y736268D01*
X1592582Y736290D01*
X1592676Y736315D01*
X1592770Y736344D01*
X1592862Y736377D01*
X1592952Y736413D01*
X1593041Y736453D01*
X1593129Y736497D01*
X1593215Y736544D01*
X1593298Y736595D01*
X1593380Y736649D01*
X1593459Y736706D01*
X1593536Y736766D01*
X1593610Y736829D01*
X1593682Y736896D01*
X1593751Y736965D01*
X1593818Y737037D01*
X1593881Y737111D01*
X1593941Y737188D01*
X1593998Y737267D01*
X1594052Y737349D01*
X1594103Y737433D01*
X1594150Y737518D01*
X1594194Y737606D01*
X1594234Y737695D01*
X1594270Y737785D01*
X1594303Y737877D01*
X1594332Y737971D01*
X1594357Y738065D01*
X1594379Y738161D01*
X1594397Y738257D01*
X1594410Y738353D01*
X1594420Y738451D01*
X1594426Y738548D01*
X1594428Y738646D01*
X1592001Y736219D02*
X1591861Y736221D01*
X1591722Y736227D01*
X1591583Y736236D01*
X1591444Y736249D01*
X1591305Y736266D01*
X1591167Y736287D01*
X1591030Y736312D01*
X1590893Y736340D01*
X1590757Y736372D01*
X1590622Y736408D01*
X1590488Y736447D01*
X1590356Y736490D01*
X1590224Y736537D01*
X1590094Y736587D01*
X1589965Y736641D01*
X1589838Y736698D01*
X1589712Y736758D01*
X1589588Y736822D01*
X1589465Y736890D01*
X1589345Y736961D01*
X1589227Y737034D01*
X1589110Y737112D01*
X1588996Y737192D01*
X1588884Y737275D01*
X1588774Y737362D01*
X1588667Y737451D01*
X1588562Y737543D01*
X1588460Y737638D01*
X1588361Y737736D01*
X1588664Y744714D02*
X1588666Y744812D01*
X1588672Y744909D01*
X1588682Y745007D01*
X1588695Y745103D01*
X1588713Y745199D01*
X1588735Y745295D01*
X1588760Y745389D01*
X1588789Y745483D01*
X1588822Y745575D01*
X1588858Y745665D01*
X1588898Y745754D01*
X1588942Y745842D01*
X1588989Y745928D01*
X1589040Y746011D01*
X1589094Y746093D01*
X1589151Y746172D01*
X1589211Y746249D01*
X1589274Y746323D01*
X1589341Y746395D01*
X1589410Y746464D01*
X1589482Y746531D01*
X1589556Y746594D01*
X1589633Y746654D01*
X1589712Y746711D01*
X1589794Y746765D01*
X1589878Y746816D01*
X1589963Y746863D01*
X1590051Y746907D01*
X1590140Y746947D01*
X1590230Y746983D01*
X1590322Y747016D01*
X1590416Y747045D01*
X1590510Y747070D01*
X1590606Y747092D01*
X1590702Y747110D01*
X1590798Y747123D01*
X1590896Y747133D01*
X1590993Y747139D01*
X1591091Y747141D01*
X1591224Y747139D01*
X1591357Y747133D01*
X1591490Y747123D01*
X1591622Y747110D01*
X1591754Y747092D01*
X1591886Y747071D01*
X1592016Y747046D01*
X1592146Y747017D01*
X1592275Y746984D01*
X1592403Y746948D01*
X1592530Y746907D01*
X1592656Y746864D01*
X1592780Y746816D01*
X1592903Y746765D01*
X1593024Y746710D01*
X1593144Y746652D01*
X1593262Y746590D01*
X1593378Y746525D01*
X1593492Y746456D01*
X1593604Y746384D01*
X1593714Y746309D01*
X1593822Y746231D01*
X1589878Y742590D02*
X1589794Y742642D01*
X1589712Y742697D01*
X1589633Y742755D01*
X1589556Y742816D01*
X1589481Y742881D01*
X1589409Y742948D01*
X1589340Y743018D01*
X1589274Y743091D01*
X1589211Y743166D01*
X1589150Y743244D01*
X1589093Y743324D01*
X1589039Y743407D01*
X1588989Y743491D01*
X1588942Y743577D01*
X1588898Y743666D01*
X1588858Y743756D01*
X1588821Y743847D01*
X1588789Y743940D01*
X1588760Y744034D01*
X1588734Y744129D01*
X1588713Y744225D01*
X1588695Y744322D01*
X1588682Y744419D01*
X1588672Y744517D01*
X1588666Y744616D01*
X1588664Y744714D01*
X1593214Y740770D02*
X1593298Y740718D01*
X1593380Y740663D01*
X1593459Y740605D01*
X1593536Y740544D01*
X1593611Y740479D01*
X1593683Y740412D01*
X1593752Y740342D01*
X1593818Y740269D01*
X1593881Y740194D01*
X1593942Y740116D01*
X1593999Y740036D01*
X1594053Y739953D01*
X1594103Y739869D01*
X1594150Y739783D01*
X1594194Y739694D01*
X1594234Y739604D01*
X1594271Y739513D01*
X1594303Y739420D01*
X1594332Y739326D01*
X1594358Y739231D01*
X1594379Y739135D01*
X1594397Y739038D01*
X1594410Y738941D01*
X1594420Y738843D01*
X1594426Y738744D01*
X1594428Y738646D01*
X1593215Y740770D02*
X1589878Y742590D01*
D12*
X252580Y932180D02*
X252601Y933898D01*
X252664Y935615D01*
X252770Y937330D01*
X252917Y939041D01*
X253106Y940749D01*
X253338Y942451D01*
X253611Y944147D01*
X253925Y945836D01*
X254281Y947517D01*
X254678Y949189D01*
X255116Y950850D01*
X255594Y952500D01*
X256113Y954138D01*
X256672Y955762D01*
X257271Y957373D01*
X257908Y958968D01*
X258585Y960547D01*
X259301Y962109D01*
X260054Y963653D01*
X260846Y965178D01*
X261674Y966683D01*
X262539Y968167D01*
X263440Y969630D01*
X264377Y971070D01*
X265349Y972487D01*
X266355Y973879D01*
X267396Y975246D01*
X268469Y976588D01*
X269575Y977902D01*
X270713Y979189D01*
X271883Y980448D01*
X273083Y981677D01*
X274312Y982877D01*
X275571Y984047D01*
X276858Y985185D01*
X278172Y986291D01*
X279514Y987364D01*
X280881Y988405D01*
X282273Y989411D01*
X283690Y990383D01*
X285130Y991320D01*
X286593Y992221D01*
X288077Y993086D01*
X289582Y993914D01*
X291107Y994706D01*
X292651Y995459D01*
X294213Y996175D01*
X295792Y996852D01*
X297387Y997489D01*
X298998Y998088D01*
X300622Y998647D01*
X302260Y999166D01*
X303910Y999644D01*
X305571Y1000082D01*
X307243Y1000479D01*
X308924Y1000835D01*
X310613Y1001149D01*
X312309Y1001422D01*
X314011Y1001654D01*
X315719Y1001843D01*
X317430Y1001990D01*
X319145Y1002096D01*
X320862Y1002159D01*
X322580Y1002180D01*
X324298Y1002159D01*
X326015Y1002096D01*
X327730Y1001990D01*
X329441Y1001843D01*
X331149Y1001654D01*
X332851Y1001422D01*
X334547Y1001149D01*
X336236Y1000835D01*
X337917Y1000479D01*
X339589Y1000082D01*
X341250Y999644D01*
X342900Y999166D01*
X344538Y998647D01*
X346162Y998088D01*
X347773Y997489D01*
X349368Y996852D01*
X350947Y996175D01*
X352509Y995459D01*
X354053Y994706D01*
X355578Y993914D01*
X357083Y993086D01*
X358567Y992221D01*
X360030Y991320D01*
X361470Y990383D01*
X362887Y989411D01*
X364279Y988405D01*
X365646Y987364D01*
X366988Y986291D01*
X368302Y985185D01*
X369589Y984047D01*
X370848Y982877D01*
X372077Y981677D01*
X373277Y980448D01*
X374447Y979189D01*
X375585Y977902D01*
X376691Y976588D01*
X377764Y975246D01*
X378805Y973879D01*
X379811Y972487D01*
X380783Y971070D01*
X381720Y969630D01*
X382621Y968167D01*
X383486Y966683D01*
X384314Y965178D01*
X385106Y963653D01*
X385859Y962109D01*
X386575Y960547D01*
X387252Y958968D01*
X387889Y957373D01*
X388488Y955762D01*
X389047Y954138D01*
X389566Y952500D01*
X390044Y950850D01*
X390482Y949189D01*
X390879Y947517D01*
X391235Y945836D01*
X391549Y944147D01*
X391822Y942451D01*
X392054Y940749D01*
X392243Y939041D01*
X392390Y937330D01*
X392496Y935615D01*
X392559Y933898D01*
X392580Y932180D01*
X392559Y930462D01*
X392496Y928745D01*
X392390Y927030D01*
X392243Y925319D01*
X392054Y923611D01*
X391822Y921909D01*
X391549Y920213D01*
X391235Y918524D01*
X390879Y916843D01*
X390482Y915171D01*
X390044Y913510D01*
X389566Y911860D01*
X389047Y910222D01*
X388488Y908598D01*
X387889Y906987D01*
X387252Y905392D01*
X386575Y903813D01*
X385859Y902251D01*
X385106Y900707D01*
X384314Y899182D01*
X383486Y897677D01*
X382621Y896193D01*
X381720Y894730D01*
X380783Y893290D01*
X379811Y891873D01*
X378805Y890481D01*
X377764Y889114D01*
X376691Y887772D01*
X375585Y886458D01*
X374447Y885171D01*
X373277Y883912D01*
X372077Y882683D01*
X370848Y881483D01*
X369589Y880313D01*
X368302Y879175D01*
X366988Y878069D01*
X365646Y876996D01*
X364279Y875955D01*
X362887Y874949D01*
X361470Y873977D01*
X360030Y873040D01*
X358567Y872139D01*
X357083Y871274D01*
X355578Y870446D01*
X354053Y869654D01*
X352509Y868901D01*
X350947Y868185D01*
X349368Y867508D01*
X347773Y866871D01*
X346162Y866272D01*
X344538Y865713D01*
X342900Y865194D01*
X341250Y864716D01*
X339589Y864278D01*
X337917Y863881D01*
X336236Y863525D01*
X334547Y863211D01*
X332851Y862938D01*
X331149Y862706D01*
X329441Y862517D01*
X327730Y862370D01*
X326015Y862264D01*
X324298Y862201D01*
X322580Y862180D01*
X320862Y862201D01*
X319145Y862264D01*
X317430Y862370D01*
X315719Y862517D01*
X314011Y862706D01*
X312309Y862938D01*
X310613Y863211D01*
X308924Y863525D01*
X307243Y863881D01*
X305571Y864278D01*
X303910Y864716D01*
X302260Y865194D01*
X300622Y865713D01*
X298998Y866272D01*
X297387Y866871D01*
X295792Y867508D01*
X294213Y868185D01*
X292651Y868901D01*
X291107Y869654D01*
X289582Y870446D01*
X288077Y871274D01*
X286593Y872139D01*
X285130Y873040D01*
X283690Y873977D01*
X282273Y874949D01*
X280881Y875955D01*
X279514Y876996D01*
X278172Y878069D01*
X276858Y879175D01*
X275571Y880313D01*
X274312Y881483D01*
X273083Y882683D01*
X271883Y883912D01*
X270713Y885171D01*
X269575Y886458D01*
X268469Y887772D01*
X267396Y889114D01*
X266355Y890481D01*
X265349Y891873D01*
X264377Y893290D01*
X263440Y894730D01*
X262539Y896193D01*
X261674Y897677D01*
X260846Y899182D01*
X260054Y900707D01*
X259301Y902251D01*
X258585Y903813D01*
X257908Y905392D01*
X257271Y906987D01*
X256672Y908598D01*
X256113Y910222D01*
X255594Y911860D01*
X255116Y913510D01*
X254678Y915171D01*
X254281Y916843D01*
X253925Y918524D01*
X253611Y920213D01*
X253338Y921909D01*
X253106Y923611D01*
X252917Y925319D01*
X252770Y927030D01*
X252664Y928745D01*
X252601Y930462D01*
X252580Y932180D01*
D13*
X1837309Y508381D02*
X1837309Y497459D01*
X1837309Y503527D02*
X1843377Y503527D01*
X1843377Y508381D02*
X1843377Y497459D01*
X1849120Y499886D02*
X1851547Y508381D01*
X1849120Y499886D02*
X1855188Y499886D01*
X1853367Y502313D02*
X1853367Y497459D01*
X1828419Y481711D02*
X1828419Y470789D01*
X1832060Y475643D02*
X1828419Y481711D01*
X1832060Y475643D02*
X1835700Y481711D01*
X1835700Y470789D01*
X1841599Y470789D02*
X1844633Y470789D01*
X1844741Y470791D01*
X1844849Y470797D01*
X1844957Y470806D01*
X1845065Y470820D01*
X1845172Y470837D01*
X1845278Y470858D01*
X1845383Y470883D01*
X1845488Y470912D01*
X1845591Y470944D01*
X1845693Y470980D01*
X1845794Y471020D01*
X1845893Y471063D01*
X1845991Y471110D01*
X1846087Y471160D01*
X1846181Y471214D01*
X1846273Y471271D01*
X1846363Y471331D01*
X1846451Y471394D01*
X1846537Y471461D01*
X1846620Y471530D01*
X1846700Y471602D01*
X1846778Y471678D01*
X1846854Y471756D01*
X1846926Y471836D01*
X1846995Y471919D01*
X1847062Y472005D01*
X1847125Y472093D01*
X1847185Y472183D01*
X1847242Y472275D01*
X1847296Y472369D01*
X1847346Y472465D01*
X1847393Y472563D01*
X1847436Y472662D01*
X1847476Y472763D01*
X1847512Y472865D01*
X1847544Y472968D01*
X1847573Y473073D01*
X1847598Y473178D01*
X1847619Y473284D01*
X1847636Y473391D01*
X1847650Y473499D01*
X1847659Y473607D01*
X1847665Y473715D01*
X1847667Y473823D01*
X1847665Y473931D01*
X1847659Y474039D01*
X1847650Y474147D01*
X1847636Y474255D01*
X1847619Y474362D01*
X1847598Y474468D01*
X1847573Y474573D01*
X1847544Y474678D01*
X1847512Y474781D01*
X1847476Y474883D01*
X1847436Y474984D01*
X1847393Y475083D01*
X1847346Y475181D01*
X1847296Y475277D01*
X1847242Y475371D01*
X1847185Y475463D01*
X1847125Y475553D01*
X1847062Y475641D01*
X1846995Y475727D01*
X1846926Y475810D01*
X1846854Y475890D01*
X1846778Y475968D01*
X1846700Y476044D01*
X1846620Y476116D01*
X1846537Y476185D01*
X1846451Y476252D01*
X1846363Y476315D01*
X1846273Y476375D01*
X1846181Y476432D01*
X1846087Y476486D01*
X1845991Y476536D01*
X1845893Y476583D01*
X1845794Y476626D01*
X1845693Y476666D01*
X1845591Y476702D01*
X1845488Y476734D01*
X1845383Y476763D01*
X1845278Y476788D01*
X1845172Y476809D01*
X1845065Y476826D01*
X1844957Y476840D01*
X1844849Y476849D01*
X1844741Y476855D01*
X1844633Y476857D01*
X1845239Y481711D02*
X1841599Y481711D01*
X1845239Y481711D02*
X1845337Y481709D01*
X1845434Y481703D01*
X1845532Y481693D01*
X1845628Y481680D01*
X1845724Y481662D01*
X1845820Y481640D01*
X1845914Y481615D01*
X1846008Y481586D01*
X1846100Y481553D01*
X1846190Y481517D01*
X1846279Y481477D01*
X1846367Y481433D01*
X1846453Y481386D01*
X1846536Y481335D01*
X1846618Y481281D01*
X1846697Y481224D01*
X1846774Y481164D01*
X1846848Y481101D01*
X1846920Y481034D01*
X1846989Y480965D01*
X1847056Y480893D01*
X1847119Y480819D01*
X1847179Y480742D01*
X1847236Y480663D01*
X1847290Y480581D01*
X1847341Y480498D01*
X1847388Y480412D01*
X1847432Y480324D01*
X1847472Y480235D01*
X1847508Y480145D01*
X1847541Y480053D01*
X1847570Y479959D01*
X1847595Y479865D01*
X1847617Y479769D01*
X1847635Y479673D01*
X1847648Y479577D01*
X1847658Y479479D01*
X1847664Y479382D01*
X1847666Y479284D01*
X1847664Y479186D01*
X1847658Y479089D01*
X1847648Y478991D01*
X1847635Y478895D01*
X1847617Y478799D01*
X1847595Y478703D01*
X1847570Y478609D01*
X1847541Y478515D01*
X1847508Y478423D01*
X1847472Y478333D01*
X1847432Y478244D01*
X1847388Y478156D01*
X1847341Y478071D01*
X1847290Y477987D01*
X1847236Y477905D01*
X1847179Y477826D01*
X1847119Y477749D01*
X1847056Y477675D01*
X1846989Y477603D01*
X1846920Y477534D01*
X1846848Y477467D01*
X1846774Y477404D01*
X1846697Y477344D01*
X1846618Y477287D01*
X1846536Y477233D01*
X1846453Y477182D01*
X1846367Y477135D01*
X1846279Y477091D01*
X1846190Y477051D01*
X1846100Y477015D01*
X1846008Y476982D01*
X1845914Y476953D01*
X1845820Y476928D01*
X1845724Y476906D01*
X1845628Y476888D01*
X1845532Y476875D01*
X1845434Y476865D01*
X1845337Y476859D01*
X1845239Y476857D01*
X1842812Y476857D01*
X1852493Y469575D02*
X1857347Y469575D01*
X1862787Y476857D02*
X1865820Y476857D01*
X1865928Y476855D01*
X1866036Y476849D01*
X1866144Y476840D01*
X1866252Y476826D01*
X1866359Y476809D01*
X1866465Y476788D01*
X1866570Y476763D01*
X1866675Y476734D01*
X1866778Y476702D01*
X1866880Y476666D01*
X1866981Y476626D01*
X1867080Y476583D01*
X1867178Y476536D01*
X1867274Y476486D01*
X1867368Y476432D01*
X1867460Y476375D01*
X1867550Y476315D01*
X1867638Y476252D01*
X1867724Y476185D01*
X1867807Y476116D01*
X1867887Y476044D01*
X1867965Y475968D01*
X1868041Y475890D01*
X1868113Y475810D01*
X1868182Y475727D01*
X1868249Y475641D01*
X1868312Y475553D01*
X1868372Y475463D01*
X1868429Y475371D01*
X1868483Y475277D01*
X1868533Y475181D01*
X1868580Y475083D01*
X1868623Y474984D01*
X1868663Y474883D01*
X1868699Y474781D01*
X1868731Y474678D01*
X1868760Y474573D01*
X1868785Y474468D01*
X1868806Y474362D01*
X1868823Y474255D01*
X1868837Y474147D01*
X1868846Y474039D01*
X1868852Y473931D01*
X1868854Y473823D01*
X1868852Y473715D01*
X1868846Y473607D01*
X1868837Y473499D01*
X1868823Y473391D01*
X1868806Y473284D01*
X1868785Y473178D01*
X1868760Y473073D01*
X1868731Y472968D01*
X1868699Y472865D01*
X1868663Y472763D01*
X1868623Y472662D01*
X1868580Y472563D01*
X1868533Y472465D01*
X1868483Y472369D01*
X1868429Y472275D01*
X1868372Y472183D01*
X1868312Y472093D01*
X1868249Y472005D01*
X1868182Y471919D01*
X1868113Y471836D01*
X1868041Y471756D01*
X1867965Y471678D01*
X1867887Y471602D01*
X1867807Y471530D01*
X1867724Y471461D01*
X1867638Y471394D01*
X1867550Y471331D01*
X1867460Y471271D01*
X1867368Y471214D01*
X1867274Y471160D01*
X1867178Y471110D01*
X1867080Y471063D01*
X1866981Y471020D01*
X1866880Y470980D01*
X1866778Y470944D01*
X1866675Y470912D01*
X1866570Y470883D01*
X1866465Y470858D01*
X1866359Y470837D01*
X1866252Y470820D01*
X1866144Y470806D01*
X1866036Y470797D01*
X1865928Y470791D01*
X1865820Y470789D01*
X1862787Y470789D01*
X1862787Y481711D01*
X1865820Y481711D01*
X1865918Y481709D01*
X1866015Y481703D01*
X1866113Y481693D01*
X1866209Y481680D01*
X1866305Y481662D01*
X1866401Y481640D01*
X1866495Y481615D01*
X1866589Y481586D01*
X1866681Y481553D01*
X1866771Y481517D01*
X1866860Y481477D01*
X1866948Y481433D01*
X1867034Y481386D01*
X1867117Y481335D01*
X1867199Y481281D01*
X1867278Y481224D01*
X1867355Y481164D01*
X1867429Y481101D01*
X1867501Y481034D01*
X1867570Y480965D01*
X1867637Y480893D01*
X1867700Y480819D01*
X1867760Y480742D01*
X1867817Y480663D01*
X1867871Y480581D01*
X1867922Y480498D01*
X1867969Y480412D01*
X1868013Y480324D01*
X1868053Y480235D01*
X1868089Y480145D01*
X1868122Y480053D01*
X1868151Y479959D01*
X1868176Y479865D01*
X1868198Y479769D01*
X1868216Y479673D01*
X1868229Y479577D01*
X1868239Y479479D01*
X1868245Y479382D01*
X1868247Y479284D01*
X1868245Y479186D01*
X1868239Y479089D01*
X1868229Y478991D01*
X1868216Y478895D01*
X1868198Y478799D01*
X1868176Y478703D01*
X1868151Y478609D01*
X1868122Y478515D01*
X1868089Y478423D01*
X1868053Y478333D01*
X1868013Y478244D01*
X1867969Y478156D01*
X1867922Y478071D01*
X1867871Y477987D01*
X1867817Y477905D01*
X1867760Y477826D01*
X1867700Y477749D01*
X1867637Y477675D01*
X1867570Y477603D01*
X1867501Y477534D01*
X1867429Y477467D01*
X1867355Y477404D01*
X1867278Y477344D01*
X1867199Y477287D01*
X1867117Y477233D01*
X1867034Y477182D01*
X1866948Y477135D01*
X1866860Y477091D01*
X1866771Y477051D01*
X1866681Y477015D01*
X1866589Y476982D01*
X1866495Y476953D01*
X1866401Y476928D01*
X1866305Y476906D01*
X1866209Y476888D01*
X1866113Y476875D01*
X1866015Y476865D01*
X1865918Y476859D01*
X1865820Y476857D01*
X1874085Y481711D02*
X1874085Y470789D01*
X1874085Y481711D02*
X1877119Y481711D01*
X1877227Y481709D01*
X1877335Y481703D01*
X1877443Y481694D01*
X1877551Y481680D01*
X1877658Y481663D01*
X1877764Y481642D01*
X1877869Y481617D01*
X1877974Y481588D01*
X1878077Y481556D01*
X1878179Y481520D01*
X1878280Y481480D01*
X1878379Y481437D01*
X1878477Y481390D01*
X1878573Y481340D01*
X1878667Y481286D01*
X1878759Y481229D01*
X1878849Y481169D01*
X1878937Y481106D01*
X1879023Y481039D01*
X1879106Y480970D01*
X1879186Y480898D01*
X1879264Y480822D01*
X1879340Y480744D01*
X1879412Y480664D01*
X1879481Y480581D01*
X1879548Y480495D01*
X1879611Y480407D01*
X1879671Y480317D01*
X1879728Y480225D01*
X1879782Y480131D01*
X1879832Y480035D01*
X1879879Y479937D01*
X1879922Y479838D01*
X1879962Y479737D01*
X1879998Y479635D01*
X1880030Y479532D01*
X1880059Y479427D01*
X1880084Y479322D01*
X1880105Y479216D01*
X1880122Y479109D01*
X1880136Y479001D01*
X1880145Y478893D01*
X1880151Y478785D01*
X1880153Y478677D01*
X1880151Y478569D01*
X1880145Y478461D01*
X1880136Y478353D01*
X1880122Y478245D01*
X1880105Y478138D01*
X1880084Y478032D01*
X1880059Y477927D01*
X1880030Y477822D01*
X1879998Y477719D01*
X1879962Y477617D01*
X1879922Y477516D01*
X1879879Y477417D01*
X1879832Y477319D01*
X1879782Y477223D01*
X1879728Y477129D01*
X1879671Y477037D01*
X1879611Y476947D01*
X1879548Y476859D01*
X1879481Y476773D01*
X1879412Y476690D01*
X1879340Y476610D01*
X1879264Y476532D01*
X1879186Y476456D01*
X1879106Y476384D01*
X1879023Y476315D01*
X1878937Y476248D01*
X1878849Y476185D01*
X1878759Y476125D01*
X1878667Y476068D01*
X1878573Y476014D01*
X1878477Y475964D01*
X1878379Y475917D01*
X1878280Y475874D01*
X1878179Y475834D01*
X1878077Y475798D01*
X1877974Y475766D01*
X1877869Y475737D01*
X1877764Y475712D01*
X1877658Y475691D01*
X1877551Y475674D01*
X1877443Y475660D01*
X1877335Y475651D01*
X1877227Y475645D01*
X1877119Y475643D01*
X1874085Y475643D01*
X1877726Y475643D02*
X1880153Y470789D01*
X1884807Y470789D02*
X1888448Y481711D01*
X1892088Y470789D01*
X1891178Y473520D02*
X1885717Y473520D01*
X1900103Y470789D02*
X1900201Y470791D01*
X1900298Y470797D01*
X1900396Y470807D01*
X1900492Y470820D01*
X1900588Y470838D01*
X1900684Y470860D01*
X1900778Y470885D01*
X1900872Y470914D01*
X1900964Y470947D01*
X1901054Y470983D01*
X1901143Y471023D01*
X1901231Y471067D01*
X1901317Y471114D01*
X1901400Y471165D01*
X1901482Y471219D01*
X1901561Y471276D01*
X1901638Y471336D01*
X1901712Y471399D01*
X1901784Y471466D01*
X1901853Y471535D01*
X1901920Y471607D01*
X1901983Y471681D01*
X1902043Y471758D01*
X1902100Y471837D01*
X1902154Y471919D01*
X1902205Y472003D01*
X1902252Y472088D01*
X1902296Y472176D01*
X1902336Y472265D01*
X1902372Y472355D01*
X1902405Y472447D01*
X1902434Y472541D01*
X1902459Y472635D01*
X1902481Y472731D01*
X1902499Y472827D01*
X1902512Y472923D01*
X1902522Y473021D01*
X1902528Y473118D01*
X1902530Y473216D01*
X1900103Y470789D02*
X1899963Y470791D01*
X1899824Y470797D01*
X1899685Y470806D01*
X1899546Y470819D01*
X1899407Y470836D01*
X1899269Y470857D01*
X1899132Y470882D01*
X1898995Y470910D01*
X1898859Y470942D01*
X1898724Y470978D01*
X1898590Y471017D01*
X1898458Y471060D01*
X1898326Y471107D01*
X1898196Y471157D01*
X1898067Y471211D01*
X1897940Y471268D01*
X1897814Y471328D01*
X1897690Y471392D01*
X1897567Y471460D01*
X1897447Y471531D01*
X1897329Y471604D01*
X1897212Y471682D01*
X1897098Y471762D01*
X1896986Y471845D01*
X1896876Y471932D01*
X1896769Y472021D01*
X1896664Y472113D01*
X1896562Y472208D01*
X1896463Y472306D01*
X1896766Y479284D02*
X1896768Y479382D01*
X1896774Y479479D01*
X1896784Y479577D01*
X1896797Y479673D01*
X1896815Y479769D01*
X1896837Y479865D01*
X1896862Y479959D01*
X1896891Y480053D01*
X1896924Y480145D01*
X1896960Y480235D01*
X1897000Y480324D01*
X1897044Y480412D01*
X1897091Y480498D01*
X1897142Y480581D01*
X1897196Y480663D01*
X1897253Y480742D01*
X1897313Y480819D01*
X1897376Y480893D01*
X1897443Y480965D01*
X1897512Y481034D01*
X1897584Y481101D01*
X1897658Y481164D01*
X1897735Y481224D01*
X1897814Y481281D01*
X1897896Y481335D01*
X1897980Y481386D01*
X1898065Y481433D01*
X1898153Y481477D01*
X1898242Y481517D01*
X1898332Y481553D01*
X1898424Y481586D01*
X1898518Y481615D01*
X1898612Y481640D01*
X1898708Y481662D01*
X1898804Y481680D01*
X1898900Y481693D01*
X1898998Y481703D01*
X1899095Y481709D01*
X1899193Y481711D01*
X1899326Y481709D01*
X1899459Y481703D01*
X1899592Y481693D01*
X1899724Y481680D01*
X1899856Y481662D01*
X1899988Y481641D01*
X1900118Y481616D01*
X1900248Y481587D01*
X1900377Y481554D01*
X1900505Y481518D01*
X1900632Y481477D01*
X1900758Y481434D01*
X1900882Y481386D01*
X1901005Y481335D01*
X1901126Y481280D01*
X1901246Y481222D01*
X1901364Y481160D01*
X1901480Y481095D01*
X1901594Y481026D01*
X1901706Y480954D01*
X1901816Y480879D01*
X1901924Y480801D01*
X1897980Y477160D02*
X1897896Y477212D01*
X1897814Y477267D01*
X1897735Y477325D01*
X1897658Y477386D01*
X1897583Y477451D01*
X1897511Y477518D01*
X1897442Y477588D01*
X1897376Y477661D01*
X1897313Y477736D01*
X1897252Y477814D01*
X1897195Y477894D01*
X1897141Y477977D01*
X1897091Y478061D01*
X1897044Y478147D01*
X1897000Y478236D01*
X1896960Y478326D01*
X1896923Y478417D01*
X1896891Y478510D01*
X1896862Y478604D01*
X1896836Y478699D01*
X1896815Y478795D01*
X1896797Y478892D01*
X1896784Y478989D01*
X1896774Y479087D01*
X1896768Y479186D01*
X1896766Y479284D01*
X1901316Y475340D02*
X1901400Y475288D01*
X1901482Y475233D01*
X1901561Y475175D01*
X1901638Y475114D01*
X1901713Y475049D01*
X1901785Y474982D01*
X1901854Y474912D01*
X1901920Y474839D01*
X1901983Y474764D01*
X1902044Y474686D01*
X1902101Y474606D01*
X1902155Y474523D01*
X1902205Y474439D01*
X1902252Y474353D01*
X1902296Y474264D01*
X1902336Y474174D01*
X1902373Y474083D01*
X1902405Y473990D01*
X1902434Y473896D01*
X1902460Y473801D01*
X1902481Y473705D01*
X1902499Y473608D01*
X1902512Y473511D01*
X1902522Y473413D01*
X1902528Y473314D01*
X1902530Y473216D01*
X1901317Y475340D02*
X1897980Y477160D01*
X1910771Y470789D02*
X1910869Y470791D01*
X1910966Y470797D01*
X1911064Y470807D01*
X1911160Y470820D01*
X1911256Y470838D01*
X1911352Y470860D01*
X1911446Y470885D01*
X1911540Y470914D01*
X1911632Y470947D01*
X1911722Y470983D01*
X1911811Y471023D01*
X1911899Y471067D01*
X1911985Y471114D01*
X1912068Y471165D01*
X1912150Y471219D01*
X1912229Y471276D01*
X1912306Y471336D01*
X1912380Y471399D01*
X1912452Y471466D01*
X1912521Y471535D01*
X1912588Y471607D01*
X1912651Y471681D01*
X1912711Y471758D01*
X1912768Y471837D01*
X1912822Y471919D01*
X1912873Y472003D01*
X1912920Y472088D01*
X1912964Y472176D01*
X1913004Y472265D01*
X1913040Y472355D01*
X1913073Y472447D01*
X1913102Y472541D01*
X1913127Y472635D01*
X1913149Y472731D01*
X1913167Y472827D01*
X1913180Y472923D01*
X1913190Y473021D01*
X1913196Y473118D01*
X1913198Y473216D01*
X1910771Y470789D02*
X1910631Y470791D01*
X1910492Y470797D01*
X1910353Y470806D01*
X1910214Y470819D01*
X1910075Y470836D01*
X1909937Y470857D01*
X1909800Y470882D01*
X1909663Y470910D01*
X1909527Y470942D01*
X1909392Y470978D01*
X1909258Y471017D01*
X1909126Y471060D01*
X1908994Y471107D01*
X1908864Y471157D01*
X1908735Y471211D01*
X1908608Y471268D01*
X1908482Y471328D01*
X1908358Y471392D01*
X1908235Y471460D01*
X1908115Y471531D01*
X1907997Y471604D01*
X1907880Y471682D01*
X1907766Y471762D01*
X1907654Y471845D01*
X1907544Y471932D01*
X1907437Y472021D01*
X1907332Y472113D01*
X1907230Y472208D01*
X1907131Y472306D01*
X1907434Y479284D02*
X1907436Y479382D01*
X1907442Y479479D01*
X1907452Y479577D01*
X1907465Y479673D01*
X1907483Y479769D01*
X1907505Y479865D01*
X1907530Y479959D01*
X1907559Y480053D01*
X1907592Y480145D01*
X1907628Y480235D01*
X1907668Y480324D01*
X1907712Y480412D01*
X1907759Y480498D01*
X1907810Y480581D01*
X1907864Y480663D01*
X1907921Y480742D01*
X1907981Y480819D01*
X1908044Y480893D01*
X1908111Y480965D01*
X1908180Y481034D01*
X1908252Y481101D01*
X1908326Y481164D01*
X1908403Y481224D01*
X1908482Y481281D01*
X1908564Y481335D01*
X1908648Y481386D01*
X1908733Y481433D01*
X1908821Y481477D01*
X1908910Y481517D01*
X1909000Y481553D01*
X1909092Y481586D01*
X1909186Y481615D01*
X1909280Y481640D01*
X1909376Y481662D01*
X1909472Y481680D01*
X1909568Y481693D01*
X1909666Y481703D01*
X1909763Y481709D01*
X1909861Y481711D01*
X1909994Y481709D01*
X1910127Y481703D01*
X1910260Y481693D01*
X1910392Y481680D01*
X1910524Y481662D01*
X1910656Y481641D01*
X1910786Y481616D01*
X1910916Y481587D01*
X1911045Y481554D01*
X1911173Y481518D01*
X1911300Y481477D01*
X1911426Y481434D01*
X1911550Y481386D01*
X1911673Y481335D01*
X1911794Y481280D01*
X1911914Y481222D01*
X1912032Y481160D01*
X1912148Y481095D01*
X1912262Y481026D01*
X1912374Y480954D01*
X1912484Y480879D01*
X1912592Y480801D01*
X1908648Y477160D02*
X1908564Y477212D01*
X1908482Y477267D01*
X1908403Y477325D01*
X1908326Y477386D01*
X1908251Y477451D01*
X1908179Y477518D01*
X1908110Y477588D01*
X1908044Y477661D01*
X1907981Y477736D01*
X1907920Y477814D01*
X1907863Y477894D01*
X1907809Y477977D01*
X1907759Y478061D01*
X1907712Y478147D01*
X1907668Y478236D01*
X1907628Y478326D01*
X1907591Y478417D01*
X1907559Y478510D01*
X1907530Y478604D01*
X1907504Y478699D01*
X1907483Y478795D01*
X1907465Y478892D01*
X1907452Y478989D01*
X1907442Y479087D01*
X1907436Y479186D01*
X1907434Y479284D01*
X1911984Y475340D02*
X1912068Y475288D01*
X1912150Y475233D01*
X1912229Y475175D01*
X1912306Y475114D01*
X1912381Y475049D01*
X1912453Y474982D01*
X1912522Y474912D01*
X1912588Y474839D01*
X1912651Y474764D01*
X1912712Y474686D01*
X1912769Y474606D01*
X1912823Y474523D01*
X1912873Y474439D01*
X1912920Y474353D01*
X1912964Y474264D01*
X1913004Y474174D01*
X1913041Y474083D01*
X1913073Y473990D01*
X1913102Y473896D01*
X1913128Y473801D01*
X1913149Y473705D01*
X1913167Y473608D01*
X1913180Y473511D01*
X1913190Y473413D01*
X1913196Y473314D01*
X1913198Y473216D01*
X1911985Y475340D02*
X1908648Y477160D01*
D14*
X355400Y349180D02*
X324920Y369500D01*
X324920Y349180D02*
X355400Y369500D01*
X355400Y378460D02*
X324920Y378460D01*
X355400Y378460D02*
X355400Y392007D01*
X348627Y400657D02*
X324920Y407431D01*
X348627Y400657D02*
X348627Y417591D01*
X355400Y412511D02*
X341853Y412511D01*
X340160Y427327D02*
X339560Y427334D01*
X338961Y427356D01*
X338363Y427391D01*
X337765Y427441D01*
X337169Y427506D01*
X336574Y427584D01*
X335982Y427677D01*
X335392Y427784D01*
X334805Y427905D01*
X334220Y428039D01*
X333639Y428188D01*
X333062Y428351D01*
X332489Y428527D01*
X331920Y428717D01*
X331356Y428920D01*
X330797Y429137D01*
X330243Y429367D01*
X329695Y429611D01*
X329153Y429867D01*
X329153Y429868D02*
X329007Y429920D01*
X328862Y429976D01*
X328718Y430035D01*
X328576Y430098D01*
X328435Y430165D01*
X328297Y430235D01*
X328160Y430308D01*
X328024Y430385D01*
X327891Y430465D01*
X327760Y430548D01*
X327631Y430635D01*
X327504Y430724D01*
X327379Y430817D01*
X327257Y430913D01*
X327137Y431012D01*
X327020Y431114D01*
X326905Y431219D01*
X326793Y431326D01*
X326683Y431437D01*
X326577Y431550D01*
X326473Y431665D01*
X326372Y431784D01*
X326274Y431904D01*
X326179Y432027D01*
X326087Y432153D01*
X325998Y432280D01*
X325913Y432410D01*
X325830Y432542D01*
X325751Y432676D01*
X325676Y432811D01*
X325603Y432949D01*
X325534Y433088D01*
X325469Y433229D01*
X325407Y433372D01*
X325349Y433516D01*
X325294Y433661D01*
X325243Y433808D01*
X325196Y433956D01*
X325152Y434105D01*
X325112Y434256D01*
X325076Y434407D01*
X325043Y434559D01*
X325014Y434711D01*
X324989Y434865D01*
X324968Y435019D01*
X324951Y435173D01*
X324937Y435328D01*
X324928Y435483D01*
X324922Y435639D01*
X324920Y435794D01*
X324922Y435949D01*
X324928Y436105D01*
X324937Y436260D01*
X324951Y436415D01*
X324968Y436569D01*
X324989Y436723D01*
X325014Y436877D01*
X325043Y437029D01*
X325076Y437181D01*
X325112Y437332D01*
X325152Y437483D01*
X325196Y437632D01*
X325243Y437780D01*
X325294Y437927D01*
X325349Y438072D01*
X325407Y438216D01*
X325469Y438359D01*
X325534Y438500D01*
X325603Y438639D01*
X325676Y438777D01*
X325751Y438912D01*
X325830Y439046D01*
X325913Y439178D01*
X325998Y439308D01*
X326087Y439435D01*
X326179Y439561D01*
X326274Y439684D01*
X326372Y439804D01*
X326473Y439923D01*
X326577Y440038D01*
X326683Y440151D01*
X326793Y440262D01*
X326905Y440369D01*
X327020Y440474D01*
X327137Y440576D01*
X327257Y440675D01*
X327379Y440771D01*
X327504Y440864D01*
X327631Y440953D01*
X327760Y441040D01*
X327891Y441123D01*
X328024Y441203D01*
X328160Y441280D01*
X328297Y441353D01*
X328435Y441423D01*
X328576Y441490D01*
X328718Y441553D01*
X328862Y441612D01*
X329007Y441668D01*
X329153Y441720D01*
X329153Y441721D02*
X329695Y441977D01*
X330243Y442221D01*
X330797Y442451D01*
X331356Y442668D01*
X331920Y442871D01*
X332489Y443061D01*
X333062Y443237D01*
X333639Y443400D01*
X334220Y443549D01*
X334805Y443683D01*
X335392Y443804D01*
X335982Y443911D01*
X336574Y444004D01*
X337169Y444082D01*
X337765Y444147D01*
X338363Y444197D01*
X338961Y444232D01*
X339560Y444254D01*
X340160Y444261D01*
X340160Y427327D02*
X340760Y427334D01*
X341359Y427356D01*
X341957Y427391D01*
X342555Y427441D01*
X343151Y427506D01*
X343746Y427584D01*
X344338Y427677D01*
X344928Y427784D01*
X345515Y427905D01*
X346100Y428039D01*
X346681Y428188D01*
X347258Y428351D01*
X347831Y428527D01*
X348400Y428717D01*
X348964Y428920D01*
X349523Y429137D01*
X350077Y429367D01*
X350625Y429611D01*
X351167Y429867D01*
X351167Y429868D02*
X351313Y429920D01*
X351458Y429976D01*
X351602Y430035D01*
X351744Y430098D01*
X351885Y430165D01*
X352023Y430235D01*
X352160Y430308D01*
X352296Y430385D01*
X352429Y430465D01*
X352560Y430548D01*
X352689Y430635D01*
X352816Y430724D01*
X352941Y430817D01*
X353063Y430913D01*
X353183Y431012D01*
X353300Y431114D01*
X353415Y431219D01*
X353527Y431326D01*
X353637Y431437D01*
X353743Y431550D01*
X353847Y431665D01*
X353948Y431784D01*
X354046Y431904D01*
X354141Y432027D01*
X354233Y432153D01*
X354322Y432280D01*
X354407Y432410D01*
X354490Y432542D01*
X354569Y432676D01*
X354644Y432811D01*
X354717Y432949D01*
X354786Y433088D01*
X354851Y433229D01*
X354913Y433372D01*
X354971Y433516D01*
X355026Y433661D01*
X355077Y433808D01*
X355124Y433956D01*
X355168Y434105D01*
X355208Y434256D01*
X355244Y434407D01*
X355277Y434559D01*
X355306Y434711D01*
X355331Y434865D01*
X355352Y435019D01*
X355369Y435173D01*
X355383Y435328D01*
X355392Y435483D01*
X355398Y435639D01*
X355400Y435794D01*
X351167Y441721D02*
X350625Y441977D01*
X350077Y442221D01*
X349523Y442451D01*
X348964Y442668D01*
X348400Y442871D01*
X347831Y443061D01*
X347258Y443237D01*
X346681Y443400D01*
X346100Y443549D01*
X345515Y443683D01*
X344928Y443804D01*
X344338Y443911D01*
X343746Y444004D01*
X343151Y444082D01*
X342555Y444147D01*
X341957Y444197D01*
X341359Y444232D01*
X340760Y444254D01*
X340160Y444261D01*
X351167Y441720D02*
X351313Y441668D01*
X351458Y441612D01*
X351602Y441553D01*
X351744Y441490D01*
X351885Y441423D01*
X352023Y441353D01*
X352160Y441280D01*
X352296Y441203D01*
X352429Y441123D01*
X352560Y441040D01*
X352689Y440953D01*
X352816Y440864D01*
X352941Y440771D01*
X353063Y440675D01*
X353183Y440576D01*
X353300Y440474D01*
X353415Y440369D01*
X353527Y440262D01*
X353637Y440151D01*
X353743Y440038D01*
X353847Y439923D01*
X353948Y439804D01*
X354046Y439684D01*
X354141Y439561D01*
X354233Y439435D01*
X354322Y439308D01*
X354407Y439178D01*
X354490Y439046D01*
X354569Y438912D01*
X354644Y438777D01*
X354717Y438639D01*
X354786Y438500D01*
X354851Y438359D01*
X354913Y438216D01*
X354971Y438072D01*
X355026Y437927D01*
X355077Y437780D01*
X355124Y437632D01*
X355168Y437483D01*
X355208Y437332D01*
X355244Y437181D01*
X355277Y437029D01*
X355306Y436877D01*
X355331Y436723D01*
X355352Y436569D01*
X355369Y436415D01*
X355383Y436260D01*
X355392Y436105D01*
X355398Y435949D01*
X355400Y435794D01*
X348627Y429021D02*
X331693Y442567D01*
X331693Y453997D02*
X324920Y462464D01*
X355400Y462464D01*
X355400Y453997D02*
X355400Y470931D01*
X338467Y480667D02*
X338467Y490827D01*
X338469Y490991D01*
X338475Y491154D01*
X338485Y491318D01*
X338499Y491481D01*
X338516Y491643D01*
X338538Y491806D01*
X338564Y491967D01*
X338593Y492128D01*
X338627Y492289D01*
X338664Y492448D01*
X338705Y492606D01*
X338750Y492764D01*
X338798Y492920D01*
X338851Y493075D01*
X338907Y493229D01*
X338967Y493381D01*
X339031Y493532D01*
X339098Y493681D01*
X339169Y493829D01*
X339243Y493975D01*
X339321Y494119D01*
X339402Y494261D01*
X339487Y494401D01*
X339575Y494539D01*
X339666Y494675D01*
X339761Y494808D01*
X339858Y494939D01*
X339959Y495068D01*
X340063Y495195D01*
X340170Y495318D01*
X340280Y495440D01*
X340393Y495558D01*
X340509Y495674D01*
X340627Y495787D01*
X340749Y495897D01*
X340872Y496004D01*
X340999Y496108D01*
X341128Y496209D01*
X341259Y496306D01*
X341392Y496401D01*
X341528Y496492D01*
X341666Y496580D01*
X341806Y496665D01*
X341948Y496746D01*
X342092Y496824D01*
X342238Y496898D01*
X342386Y496969D01*
X342535Y497036D01*
X342686Y497100D01*
X342838Y497160D01*
X342992Y497216D01*
X343147Y497269D01*
X343303Y497317D01*
X343461Y497362D01*
X343619Y497403D01*
X343778Y497440D01*
X343939Y497474D01*
X344100Y497503D01*
X344261Y497529D01*
X344424Y497551D01*
X344586Y497568D01*
X344749Y497582D01*
X344913Y497592D01*
X345076Y497598D01*
X345240Y497600D01*
X345240Y497601D02*
X346933Y497601D01*
X347139Y497598D01*
X347345Y497591D01*
X347551Y497578D01*
X347756Y497561D01*
X347961Y497538D01*
X348166Y497511D01*
X348369Y497478D01*
X348572Y497441D01*
X348774Y497398D01*
X348975Y497351D01*
X349174Y497299D01*
X349372Y497242D01*
X349569Y497180D01*
X349764Y497114D01*
X349958Y497042D01*
X350149Y496966D01*
X350339Y496886D01*
X350527Y496800D01*
X350712Y496711D01*
X350896Y496616D01*
X351077Y496518D01*
X351255Y496415D01*
X351431Y496307D01*
X351605Y496195D01*
X351775Y496080D01*
X351943Y495960D01*
X352108Y495836D01*
X352269Y495708D01*
X352428Y495576D01*
X352583Y495440D01*
X352735Y495301D01*
X352884Y495157D01*
X353028Y495011D01*
X353170Y494861D01*
X353307Y494707D01*
X353441Y494550D01*
X353571Y494390D01*
X353697Y494227D01*
X353819Y494061D01*
X353937Y493891D01*
X354051Y493719D01*
X354160Y493545D01*
X354266Y493368D01*
X354367Y493188D01*
X354463Y493005D01*
X354555Y492821D01*
X354643Y492634D01*
X354726Y492445D01*
X354804Y492255D01*
X354878Y492062D01*
X354947Y491868D01*
X355011Y491672D01*
X355070Y491474D01*
X355125Y491276D01*
X355174Y491075D01*
X355219Y490874D01*
X355259Y490672D01*
X355294Y490469D01*
X355324Y490265D01*
X355349Y490060D01*
X355369Y489855D01*
X355384Y489649D01*
X355394Y489443D01*
X355399Y489237D01*
X355399Y489031D01*
X355394Y488825D01*
X355384Y488619D01*
X355369Y488413D01*
X355349Y488208D01*
X355324Y488003D01*
X355294Y487799D01*
X355259Y487596D01*
X355219Y487394D01*
X355174Y487193D01*
X355125Y486992D01*
X355070Y486794D01*
X355011Y486596D01*
X354947Y486400D01*
X354878Y486206D01*
X354804Y486013D01*
X354726Y485823D01*
X354643Y485634D01*
X354555Y485447D01*
X354463Y485263D01*
X354367Y485080D01*
X354266Y484901D01*
X354160Y484723D01*
X354051Y484549D01*
X353937Y484377D01*
X353819Y484207D01*
X353697Y484041D01*
X353571Y483878D01*
X353441Y483718D01*
X353307Y483561D01*
X353170Y483407D01*
X353028Y483257D01*
X352884Y483111D01*
X352735Y482967D01*
X352583Y482828D01*
X352428Y482692D01*
X352269Y482560D01*
X352108Y482432D01*
X351943Y482308D01*
X351775Y482188D01*
X351605Y482073D01*
X351431Y481961D01*
X351255Y481853D01*
X351077Y481750D01*
X350896Y481652D01*
X350712Y481557D01*
X350527Y481468D01*
X350339Y481382D01*
X350149Y481302D01*
X349958Y481226D01*
X349764Y481154D01*
X349569Y481088D01*
X349372Y481026D01*
X349174Y480969D01*
X348975Y480917D01*
X348774Y480870D01*
X348572Y480827D01*
X348369Y480790D01*
X348166Y480757D01*
X347961Y480730D01*
X347756Y480707D01*
X347551Y480690D01*
X347345Y480677D01*
X347139Y480670D01*
X346933Y480667D01*
X338467Y480667D01*
X338135Y480671D01*
X337802Y480683D01*
X337470Y480704D01*
X337139Y480732D01*
X336809Y480769D01*
X336479Y480814D01*
X336151Y480866D01*
X335824Y480927D01*
X335499Y480996D01*
X335175Y481073D01*
X334854Y481158D01*
X334535Y481250D01*
X334218Y481351D01*
X333903Y481459D01*
X333592Y481575D01*
X333283Y481698D01*
X332977Y481829D01*
X332675Y481968D01*
X332376Y482113D01*
X332081Y482267D01*
X331790Y482427D01*
X331502Y482594D01*
X331219Y482769D01*
X330941Y482950D01*
X330667Y483138D01*
X330397Y483333D01*
X330132Y483534D01*
X329873Y483742D01*
X329618Y483956D01*
X329369Y484176D01*
X329126Y484403D01*
X328888Y484635D01*
X328656Y484873D01*
X328429Y485116D01*
X328209Y485365D01*
X327995Y485620D01*
X327787Y485879D01*
X327586Y486144D01*
X327391Y486414D01*
X327203Y486688D01*
X327022Y486966D01*
X326847Y487249D01*
X326680Y487537D01*
X326520Y487828D01*
X326367Y488123D01*
X326221Y488422D01*
X326082Y488724D01*
X325951Y489030D01*
X325828Y489338D01*
X325712Y489650D01*
X325604Y489965D01*
X325503Y490281D01*
X325411Y490601D01*
X325326Y490922D01*
X325249Y491246D01*
X325180Y491571D01*
X325119Y491898D01*
X325067Y492226D01*
X325022Y492556D01*
X324985Y492886D01*
X324957Y493217D01*
X324936Y493549D01*
X324924Y493882D01*
X324920Y494214D01*
X335080Y522535D02*
X355400Y522535D01*
X335080Y522535D02*
X335080Y537775D01*
X335082Y537915D01*
X335088Y538055D01*
X335097Y538195D01*
X335111Y538334D01*
X335128Y538473D01*
X335149Y538611D01*
X335174Y538749D01*
X335203Y538886D01*
X335235Y539022D01*
X335272Y539157D01*
X335312Y539291D01*
X335355Y539424D01*
X335403Y539556D01*
X335453Y539687D01*
X335508Y539816D01*
X335566Y539943D01*
X335627Y540069D01*
X335692Y540193D01*
X335761Y540315D01*
X335832Y540435D01*
X335907Y540553D01*
X335985Y540670D01*
X336067Y540784D01*
X336151Y540895D01*
X336239Y541004D01*
X336329Y541111D01*
X336423Y541216D01*
X336519Y541317D01*
X336618Y541416D01*
X336719Y541512D01*
X336824Y541606D01*
X336931Y541696D01*
X337040Y541784D01*
X337151Y541868D01*
X337265Y541950D01*
X337382Y542028D01*
X337500Y542103D01*
X337620Y542174D01*
X337742Y542243D01*
X337866Y542308D01*
X337992Y542369D01*
X338119Y542427D01*
X338248Y542482D01*
X338379Y542532D01*
X338511Y542580D01*
X338644Y542623D01*
X338778Y542663D01*
X338913Y542700D01*
X339049Y542732D01*
X339186Y542761D01*
X339324Y542786D01*
X339462Y542807D01*
X339601Y542824D01*
X339740Y542838D01*
X339880Y542847D01*
X340020Y542853D01*
X340160Y542855D01*
X355400Y542855D01*
X355400Y532695D02*
X335080Y532695D01*
X341853Y553480D02*
X348627Y553480D01*
X341853Y553481D02*
X341688Y553483D01*
X341523Y553489D01*
X341359Y553499D01*
X341194Y553513D01*
X341030Y553531D01*
X340867Y553553D01*
X340704Y553579D01*
X340542Y553609D01*
X340380Y553643D01*
X340220Y553681D01*
X340060Y553723D01*
X339902Y553768D01*
X339744Y553818D01*
X339588Y553871D01*
X339433Y553928D01*
X339280Y553989D01*
X339128Y554053D01*
X338978Y554121D01*
X338830Y554193D01*
X338683Y554269D01*
X338538Y554348D01*
X338395Y554430D01*
X338255Y554516D01*
X338116Y554605D01*
X337979Y554698D01*
X337845Y554794D01*
X337714Y554893D01*
X337584Y554996D01*
X337457Y555101D01*
X337333Y555210D01*
X337212Y555321D01*
X337093Y555436D01*
X336977Y555553D01*
X336864Y555673D01*
X336754Y555796D01*
X336647Y555921D01*
X336543Y556050D01*
X336442Y556180D01*
X336345Y556313D01*
X336250Y556448D01*
X336159Y556586D01*
X336072Y556726D01*
X335987Y556868D01*
X335907Y557011D01*
X335829Y557157D01*
X335756Y557305D01*
X335686Y557454D01*
X335619Y557605D01*
X335557Y557758D01*
X335498Y557912D01*
X335443Y558067D01*
X335391Y558224D01*
X335344Y558382D01*
X335300Y558541D01*
X335260Y558701D01*
X335225Y558862D01*
X335193Y559024D01*
X335165Y559186D01*
X335141Y559350D01*
X335121Y559513D01*
X335105Y559677D01*
X335093Y559842D01*
X335085Y560007D01*
X335081Y560172D01*
X335081Y560336D01*
X335085Y560501D01*
X335093Y560666D01*
X335105Y560831D01*
X335121Y560995D01*
X335141Y561158D01*
X335165Y561322D01*
X335193Y561484D01*
X335225Y561646D01*
X335260Y561807D01*
X335300Y561967D01*
X335344Y562126D01*
X335391Y562284D01*
X335443Y562441D01*
X335498Y562596D01*
X335557Y562750D01*
X335619Y562903D01*
X335686Y563054D01*
X335756Y563203D01*
X335829Y563351D01*
X335907Y563497D01*
X335987Y563641D01*
X336072Y563782D01*
X336159Y563922D01*
X336250Y564060D01*
X336345Y564195D01*
X336442Y564328D01*
X336543Y564458D01*
X336647Y564587D01*
X336754Y564712D01*
X336864Y564835D01*
X336977Y564955D01*
X337093Y565072D01*
X337212Y565187D01*
X337333Y565298D01*
X337457Y565407D01*
X337584Y565512D01*
X337714Y565615D01*
X337845Y565714D01*
X337979Y565810D01*
X338116Y565903D01*
X338255Y565992D01*
X338395Y566078D01*
X338538Y566160D01*
X338683Y566239D01*
X338830Y566315D01*
X338978Y566387D01*
X339128Y566455D01*
X339280Y566519D01*
X339433Y566580D01*
X339588Y566637D01*
X339744Y566690D01*
X339902Y566740D01*
X340060Y566785D01*
X340220Y566827D01*
X340380Y566865D01*
X340542Y566899D01*
X340704Y566929D01*
X340867Y566955D01*
X341030Y566977D01*
X341194Y566995D01*
X341359Y567009D01*
X341523Y567019D01*
X341688Y567025D01*
X341853Y567027D01*
X348627Y567027D01*
X348792Y567025D01*
X348957Y567019D01*
X349121Y567009D01*
X349286Y566995D01*
X349450Y566977D01*
X349613Y566955D01*
X349776Y566929D01*
X349938Y566899D01*
X350100Y566865D01*
X350260Y566827D01*
X350420Y566785D01*
X350578Y566740D01*
X350736Y566690D01*
X350892Y566637D01*
X351047Y566580D01*
X351200Y566519D01*
X351352Y566455D01*
X351502Y566387D01*
X351650Y566315D01*
X351797Y566239D01*
X351942Y566160D01*
X352085Y566078D01*
X352225Y565992D01*
X352364Y565903D01*
X352501Y565810D01*
X352635Y565714D01*
X352766Y565615D01*
X352896Y565512D01*
X353023Y565407D01*
X353147Y565298D01*
X353268Y565187D01*
X353387Y565072D01*
X353503Y564955D01*
X353616Y564835D01*
X353726Y564712D01*
X353833Y564587D01*
X353937Y564458D01*
X354038Y564328D01*
X354135Y564195D01*
X354230Y564060D01*
X354321Y563922D01*
X354408Y563782D01*
X354493Y563641D01*
X354573Y563497D01*
X354651Y563351D01*
X354724Y563203D01*
X354794Y563054D01*
X354861Y562903D01*
X354923Y562750D01*
X354982Y562596D01*
X355037Y562441D01*
X355089Y562284D01*
X355136Y562126D01*
X355180Y561967D01*
X355220Y561807D01*
X355255Y561646D01*
X355287Y561484D01*
X355315Y561322D01*
X355339Y561158D01*
X355359Y560995D01*
X355375Y560831D01*
X355387Y560666D01*
X355395Y560501D01*
X355399Y560336D01*
X355399Y560172D01*
X355395Y560007D01*
X355387Y559842D01*
X355375Y559677D01*
X355359Y559513D01*
X355339Y559350D01*
X355315Y559186D01*
X355287Y559024D01*
X355255Y558862D01*
X355220Y558701D01*
X355180Y558541D01*
X355136Y558382D01*
X355089Y558224D01*
X355037Y558067D01*
X354982Y557912D01*
X354923Y557758D01*
X354861Y557605D01*
X354794Y557454D01*
X354724Y557305D01*
X354651Y557157D01*
X354573Y557011D01*
X354493Y556868D01*
X354408Y556726D01*
X354321Y556586D01*
X354230Y556448D01*
X354135Y556313D01*
X354038Y556180D01*
X353937Y556050D01*
X353833Y555921D01*
X353726Y555796D01*
X353616Y555673D01*
X353503Y555553D01*
X353387Y555436D01*
X353268Y555321D01*
X353147Y555210D01*
X353023Y555101D01*
X352896Y554996D01*
X352766Y554893D01*
X352635Y554794D01*
X352501Y554698D01*
X352364Y554605D01*
X352225Y554516D01*
X352085Y554430D01*
X351942Y554348D01*
X351797Y554269D01*
X351650Y554193D01*
X351502Y554121D01*
X351352Y554053D01*
X351200Y553989D01*
X351047Y553928D01*
X350892Y553871D01*
X350736Y553818D01*
X350578Y553768D01*
X350420Y553723D01*
X350260Y553681D01*
X350100Y553643D01*
X349938Y553609D01*
X349776Y553579D01*
X349613Y553553D01*
X349450Y553531D01*
X349286Y553513D01*
X349121Y553499D01*
X348957Y553489D01*
X348792Y553483D01*
X348627Y553481D01*
X355400Y590093D02*
X324920Y590093D01*
X355400Y590093D02*
X355400Y581626D01*
X355398Y581486D01*
X355392Y581346D01*
X355383Y581206D01*
X355369Y581067D01*
X355352Y580928D01*
X355331Y580790D01*
X355306Y580652D01*
X355277Y580515D01*
X355245Y580379D01*
X355208Y580244D01*
X355168Y580110D01*
X355125Y579977D01*
X355077Y579845D01*
X355027Y579714D01*
X354972Y579585D01*
X354914Y579458D01*
X354853Y579332D01*
X354788Y579208D01*
X354719Y579086D01*
X354648Y578966D01*
X354573Y578848D01*
X354495Y578731D01*
X354413Y578617D01*
X354329Y578506D01*
X354241Y578397D01*
X354151Y578290D01*
X354057Y578185D01*
X353961Y578084D01*
X353862Y577985D01*
X353761Y577889D01*
X353656Y577795D01*
X353549Y577705D01*
X353440Y577617D01*
X353329Y577533D01*
X353215Y577451D01*
X353098Y577373D01*
X352980Y577298D01*
X352860Y577227D01*
X352738Y577158D01*
X352614Y577093D01*
X352488Y577032D01*
X352361Y576974D01*
X352232Y576919D01*
X352101Y576869D01*
X351969Y576821D01*
X351836Y576778D01*
X351702Y576738D01*
X351567Y576701D01*
X351431Y576669D01*
X351294Y576640D01*
X351156Y576615D01*
X351018Y576594D01*
X350879Y576577D01*
X350740Y576563D01*
X350600Y576554D01*
X350460Y576548D01*
X350320Y576546D01*
X340160Y576546D01*
X340020Y576548D01*
X339880Y576554D01*
X339740Y576563D01*
X339601Y576577D01*
X339462Y576594D01*
X339324Y576615D01*
X339186Y576640D01*
X339049Y576669D01*
X338913Y576701D01*
X338778Y576738D01*
X338644Y576778D01*
X338511Y576821D01*
X338379Y576869D01*
X338248Y576919D01*
X338119Y576974D01*
X337992Y577032D01*
X337866Y577093D01*
X337742Y577158D01*
X337620Y577227D01*
X337500Y577298D01*
X337382Y577373D01*
X337265Y577451D01*
X337151Y577533D01*
X337040Y577617D01*
X336931Y577705D01*
X336824Y577795D01*
X336719Y577889D01*
X336618Y577985D01*
X336519Y578084D01*
X336423Y578185D01*
X336329Y578290D01*
X336239Y578397D01*
X336151Y578506D01*
X336067Y578617D01*
X335985Y578731D01*
X335907Y578848D01*
X335832Y578966D01*
X335761Y579086D01*
X335692Y579208D01*
X335627Y579332D01*
X335566Y579458D01*
X335508Y579585D01*
X335453Y579714D01*
X335403Y579845D01*
X335355Y579977D01*
X335312Y580110D01*
X335272Y580244D01*
X335235Y580379D01*
X335203Y580515D01*
X335174Y580652D01*
X335149Y580790D01*
X335128Y580928D01*
X335111Y581067D01*
X335097Y581206D01*
X335088Y581346D01*
X335082Y581486D01*
X335080Y581626D01*
X335080Y590093D01*
X335080Y601486D02*
X350320Y601486D01*
X350460Y601488D01*
X350600Y601494D01*
X350740Y601503D01*
X350879Y601517D01*
X351018Y601534D01*
X351156Y601555D01*
X351294Y601580D01*
X351431Y601609D01*
X351567Y601641D01*
X351702Y601678D01*
X351836Y601718D01*
X351969Y601761D01*
X352101Y601809D01*
X352232Y601859D01*
X352361Y601914D01*
X352488Y601972D01*
X352614Y602033D01*
X352738Y602098D01*
X352860Y602167D01*
X352980Y602238D01*
X353098Y602313D01*
X353215Y602391D01*
X353329Y602473D01*
X353440Y602557D01*
X353549Y602645D01*
X353656Y602735D01*
X353761Y602829D01*
X353862Y602925D01*
X353961Y603024D01*
X354057Y603125D01*
X354151Y603230D01*
X354241Y603337D01*
X354329Y603446D01*
X354413Y603557D01*
X354495Y603671D01*
X354573Y603788D01*
X354648Y603906D01*
X354719Y604026D01*
X354788Y604148D01*
X354853Y604272D01*
X354914Y604398D01*
X354972Y604525D01*
X355027Y604654D01*
X355077Y604785D01*
X355125Y604917D01*
X355168Y605050D01*
X355208Y605184D01*
X355245Y605319D01*
X355277Y605455D01*
X355306Y605592D01*
X355331Y605730D01*
X355352Y605868D01*
X355369Y606007D01*
X355383Y606146D01*
X355392Y606286D01*
X355398Y606426D01*
X355400Y606566D01*
X355400Y615033D01*
X335080Y615033D01*
X324920Y626209D02*
X350320Y626209D01*
X350460Y626211D01*
X350600Y626217D01*
X350740Y626226D01*
X350879Y626240D01*
X351018Y626257D01*
X351156Y626278D01*
X351294Y626303D01*
X351431Y626332D01*
X351567Y626364D01*
X351702Y626401D01*
X351836Y626441D01*
X351969Y626484D01*
X352101Y626532D01*
X352232Y626582D01*
X352361Y626637D01*
X352488Y626695D01*
X352614Y626756D01*
X352738Y626821D01*
X352860Y626890D01*
X352980Y626961D01*
X353098Y627036D01*
X353215Y627114D01*
X353329Y627196D01*
X353440Y627280D01*
X353549Y627368D01*
X353656Y627458D01*
X353761Y627552D01*
X353862Y627648D01*
X353961Y627747D01*
X354057Y627848D01*
X354151Y627953D01*
X354241Y628060D01*
X354329Y628169D01*
X354413Y628280D01*
X354495Y628394D01*
X354573Y628511D01*
X354648Y628629D01*
X354719Y628749D01*
X354788Y628871D01*
X354853Y628995D01*
X354914Y629121D01*
X354972Y629248D01*
X355027Y629377D01*
X355077Y629508D01*
X355125Y629640D01*
X355168Y629773D01*
X355208Y629907D01*
X355245Y630042D01*
X355277Y630178D01*
X355306Y630315D01*
X355331Y630453D01*
X355352Y630591D01*
X355369Y630730D01*
X355383Y630869D01*
X355392Y631009D01*
X355398Y631149D01*
X355400Y631289D01*
X355400Y644793D02*
X355400Y653260D01*
X355400Y644793D02*
X355398Y644653D01*
X355392Y644513D01*
X355383Y644373D01*
X355369Y644234D01*
X355352Y644095D01*
X355331Y643957D01*
X355306Y643819D01*
X355277Y643682D01*
X355245Y643546D01*
X355208Y643411D01*
X355168Y643277D01*
X355125Y643144D01*
X355077Y643012D01*
X355027Y642881D01*
X354972Y642752D01*
X354914Y642625D01*
X354853Y642499D01*
X354788Y642375D01*
X354719Y642253D01*
X354648Y642133D01*
X354573Y642015D01*
X354495Y641898D01*
X354413Y641784D01*
X354329Y641673D01*
X354241Y641564D01*
X354151Y641457D01*
X354057Y641352D01*
X353961Y641251D01*
X353862Y641152D01*
X353761Y641056D01*
X353656Y640962D01*
X353549Y640872D01*
X353440Y640784D01*
X353329Y640700D01*
X353215Y640618D01*
X353098Y640540D01*
X352980Y640465D01*
X352860Y640394D01*
X352738Y640325D01*
X352614Y640260D01*
X352488Y640199D01*
X352361Y640141D01*
X352232Y640086D01*
X352101Y640036D01*
X351969Y639988D01*
X351836Y639945D01*
X351702Y639905D01*
X351567Y639868D01*
X351431Y639836D01*
X351294Y639807D01*
X351156Y639782D01*
X351018Y639761D01*
X350879Y639744D01*
X350740Y639730D01*
X350600Y639721D01*
X350460Y639715D01*
X350320Y639713D01*
X341853Y639713D01*
X341853Y639714D02*
X341688Y639716D01*
X341523Y639722D01*
X341359Y639732D01*
X341194Y639746D01*
X341030Y639764D01*
X340867Y639786D01*
X340704Y639812D01*
X340542Y639842D01*
X340380Y639876D01*
X340220Y639914D01*
X340060Y639956D01*
X339902Y640001D01*
X339744Y640051D01*
X339588Y640104D01*
X339433Y640161D01*
X339280Y640222D01*
X339128Y640286D01*
X338978Y640354D01*
X338830Y640426D01*
X338683Y640502D01*
X338538Y640581D01*
X338395Y640663D01*
X338255Y640749D01*
X338116Y640838D01*
X337979Y640931D01*
X337845Y641027D01*
X337714Y641126D01*
X337584Y641229D01*
X337457Y641334D01*
X337333Y641443D01*
X337212Y641554D01*
X337093Y641669D01*
X336977Y641786D01*
X336864Y641906D01*
X336754Y642029D01*
X336647Y642154D01*
X336543Y642283D01*
X336442Y642413D01*
X336345Y642546D01*
X336250Y642681D01*
X336159Y642819D01*
X336072Y642959D01*
X335987Y643101D01*
X335907Y643244D01*
X335829Y643390D01*
X335756Y643538D01*
X335686Y643687D01*
X335619Y643838D01*
X335557Y643991D01*
X335498Y644145D01*
X335443Y644300D01*
X335391Y644457D01*
X335344Y644615D01*
X335300Y644774D01*
X335260Y644934D01*
X335225Y645095D01*
X335193Y645257D01*
X335165Y645419D01*
X335141Y645583D01*
X335121Y645746D01*
X335105Y645910D01*
X335093Y646075D01*
X335085Y646240D01*
X335081Y646405D01*
X335081Y646569D01*
X335085Y646734D01*
X335093Y646899D01*
X335105Y647064D01*
X335121Y647228D01*
X335141Y647391D01*
X335165Y647555D01*
X335193Y647717D01*
X335225Y647879D01*
X335260Y648040D01*
X335300Y648200D01*
X335344Y648359D01*
X335391Y648517D01*
X335443Y648674D01*
X335498Y648829D01*
X335557Y648983D01*
X335619Y649136D01*
X335686Y649287D01*
X335756Y649436D01*
X335829Y649584D01*
X335907Y649730D01*
X335987Y649874D01*
X336072Y650015D01*
X336159Y650155D01*
X336250Y650293D01*
X336345Y650428D01*
X336442Y650561D01*
X336543Y650691D01*
X336647Y650820D01*
X336754Y650945D01*
X336864Y651068D01*
X336977Y651188D01*
X337093Y651305D01*
X337212Y651420D01*
X337333Y651531D01*
X337457Y651640D01*
X337584Y651745D01*
X337714Y651848D01*
X337845Y651947D01*
X337979Y652043D01*
X338116Y652136D01*
X338255Y652225D01*
X338395Y652311D01*
X338538Y652393D01*
X338683Y652472D01*
X338830Y652548D01*
X338978Y652620D01*
X339128Y652688D01*
X339280Y652752D01*
X339433Y652813D01*
X339588Y652870D01*
X339744Y652923D01*
X339902Y652973D01*
X340060Y653018D01*
X340220Y653060D01*
X340380Y653098D01*
X340542Y653132D01*
X340704Y653162D01*
X340867Y653188D01*
X341030Y653210D01*
X341194Y653228D01*
X341359Y653242D01*
X341523Y653252D01*
X341688Y653258D01*
X341853Y653260D01*
X345240Y653260D01*
X345240Y639713D01*
D15*
X398780Y292100D02*
X398780Y203200D01*
X1046480Y203200D01*
X1046480Y292100D01*
X398780Y711200D02*
X398780Y812800D01*
X1046480Y812800D01*
X1046480Y711200D01*
D14*
X1030193Y243008D02*
X1008180Y243008D01*
X1030193Y243007D02*
X1030399Y243010D01*
X1030605Y243017D01*
X1030811Y243030D01*
X1031016Y243047D01*
X1031221Y243070D01*
X1031426Y243097D01*
X1031629Y243130D01*
X1031832Y243167D01*
X1032034Y243210D01*
X1032235Y243257D01*
X1032434Y243309D01*
X1032632Y243366D01*
X1032829Y243428D01*
X1033024Y243494D01*
X1033218Y243566D01*
X1033409Y243642D01*
X1033599Y243722D01*
X1033787Y243808D01*
X1033972Y243897D01*
X1034156Y243992D01*
X1034337Y244090D01*
X1034515Y244193D01*
X1034691Y244301D01*
X1034865Y244413D01*
X1035035Y244528D01*
X1035203Y244648D01*
X1035368Y244772D01*
X1035529Y244900D01*
X1035688Y245032D01*
X1035843Y245168D01*
X1035995Y245307D01*
X1036144Y245451D01*
X1036288Y245597D01*
X1036430Y245747D01*
X1036567Y245901D01*
X1036701Y246058D01*
X1036831Y246218D01*
X1036957Y246381D01*
X1037079Y246547D01*
X1037197Y246717D01*
X1037311Y246889D01*
X1037420Y247063D01*
X1037526Y247241D01*
X1037627Y247420D01*
X1037723Y247603D01*
X1037815Y247787D01*
X1037903Y247974D01*
X1037986Y248163D01*
X1038064Y248353D01*
X1038138Y248546D01*
X1038207Y248740D01*
X1038271Y248936D01*
X1038330Y249134D01*
X1038385Y249332D01*
X1038434Y249533D01*
X1038479Y249734D01*
X1038519Y249936D01*
X1038554Y250139D01*
X1038584Y250343D01*
X1038609Y250548D01*
X1038629Y250753D01*
X1038644Y250959D01*
X1038654Y251165D01*
X1038659Y251371D01*
X1038659Y251577D01*
X1038654Y251783D01*
X1038644Y251989D01*
X1038629Y252195D01*
X1038609Y252400D01*
X1038584Y252605D01*
X1038554Y252809D01*
X1038519Y253012D01*
X1038479Y253214D01*
X1038434Y253415D01*
X1038385Y253616D01*
X1038330Y253814D01*
X1038271Y254012D01*
X1038207Y254208D01*
X1038138Y254402D01*
X1038064Y254595D01*
X1037986Y254785D01*
X1037903Y254974D01*
X1037815Y255161D01*
X1037723Y255345D01*
X1037627Y255528D01*
X1037526Y255708D01*
X1037420Y255885D01*
X1037311Y256059D01*
X1037197Y256231D01*
X1037079Y256401D01*
X1036957Y256567D01*
X1036831Y256730D01*
X1036701Y256890D01*
X1036567Y257047D01*
X1036430Y257201D01*
X1036288Y257351D01*
X1036144Y257497D01*
X1035995Y257641D01*
X1035843Y257780D01*
X1035688Y257916D01*
X1035529Y258048D01*
X1035368Y258176D01*
X1035203Y258300D01*
X1035035Y258420D01*
X1034865Y258535D01*
X1034691Y258647D01*
X1034515Y258755D01*
X1034337Y258858D01*
X1034156Y258956D01*
X1033972Y259051D01*
X1033787Y259140D01*
X1033599Y259226D01*
X1033409Y259306D01*
X1033218Y259382D01*
X1033024Y259454D01*
X1032829Y259520D01*
X1032632Y259582D01*
X1032434Y259639D01*
X1032235Y259691D01*
X1032034Y259738D01*
X1031832Y259781D01*
X1031629Y259818D01*
X1031426Y259851D01*
X1031221Y259878D01*
X1031016Y259901D01*
X1030811Y259918D01*
X1030605Y259931D01*
X1030399Y259938D01*
X1030193Y259941D01*
X1008180Y259941D01*
X1014953Y270567D02*
X1008180Y279033D01*
X1038660Y279033D01*
X1038660Y270567D02*
X1038660Y287500D01*
D16*
X1031240Y850900D02*
X1031240Y977900D01*
X1031240Y850900D02*
X948240Y850900D01*
X774240Y850900D01*
X774240Y977900D01*
X1031240Y977900D01*
X948240Y959900D02*
X948240Y850900D01*
X948240Y959900D02*
X948240Y976900D01*
X855240Y959900D02*
X855240Y851900D01*
X855240Y959900D02*
X855240Y977900D01*
X938240Y977900D02*
X938240Y851900D01*
X866240Y851900D02*
X866240Y959900D01*
X866240Y977900D01*
X1021240Y959900D02*
X1021240Y851900D01*
X1021240Y959900D02*
X1021240Y977900D01*
X783240Y959900D02*
X783240Y850900D01*
X953100Y914900D02*
X953110Y915689D01*
X953139Y916477D01*
X953187Y917264D01*
X953255Y918050D01*
X953342Y918834D01*
X953448Y919616D01*
X953573Y920395D01*
X953718Y921170D01*
X953881Y921942D01*
X954063Y922709D01*
X954264Y923472D01*
X954484Y924230D01*
X954722Y924982D01*
X954979Y925728D01*
X955254Y926467D01*
X955547Y927199D01*
X955857Y927924D01*
X956186Y928642D01*
X956532Y929351D01*
X956895Y930051D01*
X957275Y930742D01*
X957673Y931423D01*
X958086Y932095D01*
X958517Y932756D01*
X958963Y933406D01*
X959425Y934046D01*
X959903Y934674D01*
X960395Y935289D01*
X960903Y935893D01*
X961426Y936484D01*
X961963Y937062D01*
X962514Y937626D01*
X963078Y938177D01*
X963656Y938714D01*
X964247Y939237D01*
X964851Y939745D01*
X965466Y940237D01*
X966094Y940715D01*
X966734Y941177D01*
X967384Y941623D01*
X968045Y942054D01*
X968717Y942467D01*
X969398Y942865D01*
X970089Y943245D01*
X970789Y943608D01*
X971498Y943954D01*
X972216Y944283D01*
X972941Y944593D01*
X973673Y944886D01*
X974412Y945161D01*
X975158Y945418D01*
X975910Y945656D01*
X976668Y945876D01*
X977431Y946077D01*
X978198Y946259D01*
X978970Y946422D01*
X979745Y946567D01*
X980524Y946692D01*
X981306Y946798D01*
X982090Y946885D01*
X982876Y946953D01*
X983663Y947001D01*
X984451Y947030D01*
X985240Y947040D01*
X986029Y947030D01*
X986817Y947001D01*
X987604Y946953D01*
X988390Y946885D01*
X989174Y946798D01*
X989956Y946692D01*
X990735Y946567D01*
X991510Y946422D01*
X992282Y946259D01*
X993049Y946077D01*
X993812Y945876D01*
X994570Y945656D01*
X995322Y945418D01*
X996068Y945161D01*
X996807Y944886D01*
X997539Y944593D01*
X998264Y944283D01*
X998982Y943954D01*
X999691Y943608D01*
X1000391Y943245D01*
X1001082Y942865D01*
X1001763Y942467D01*
X1002435Y942054D01*
X1003096Y941623D01*
X1003746Y941177D01*
X1004386Y940715D01*
X1005014Y940237D01*
X1005629Y939745D01*
X1006233Y939237D01*
X1006824Y938714D01*
X1007402Y938177D01*
X1007966Y937626D01*
X1008517Y937062D01*
X1009054Y936484D01*
X1009577Y935893D01*
X1010085Y935289D01*
X1010577Y934674D01*
X1011055Y934046D01*
X1011517Y933406D01*
X1011963Y932756D01*
X1012394Y932095D01*
X1012807Y931423D01*
X1013205Y930742D01*
X1013585Y930051D01*
X1013948Y929351D01*
X1014294Y928642D01*
X1014623Y927924D01*
X1014933Y927199D01*
X1015226Y926467D01*
X1015501Y925728D01*
X1015758Y924982D01*
X1015996Y924230D01*
X1016216Y923472D01*
X1016417Y922709D01*
X1016599Y921942D01*
X1016762Y921170D01*
X1016907Y920395D01*
X1017032Y919616D01*
X1017138Y918834D01*
X1017225Y918050D01*
X1017293Y917264D01*
X1017341Y916477D01*
X1017370Y915689D01*
X1017380Y914900D01*
X1017370Y914111D01*
X1017341Y913323D01*
X1017293Y912536D01*
X1017225Y911750D01*
X1017138Y910966D01*
X1017032Y910184D01*
X1016907Y909405D01*
X1016762Y908630D01*
X1016599Y907858D01*
X1016417Y907091D01*
X1016216Y906328D01*
X1015996Y905570D01*
X1015758Y904818D01*
X1015501Y904072D01*
X1015226Y903333D01*
X1014933Y902601D01*
X1014623Y901876D01*
X1014294Y901158D01*
X1013948Y900449D01*
X1013585Y899749D01*
X1013205Y899058D01*
X1012807Y898377D01*
X1012394Y897705D01*
X1011963Y897044D01*
X1011517Y896394D01*
X1011055Y895754D01*
X1010577Y895126D01*
X1010085Y894511D01*
X1009577Y893907D01*
X1009054Y893316D01*
X1008517Y892738D01*
X1007966Y892174D01*
X1007402Y891623D01*
X1006824Y891086D01*
X1006233Y890563D01*
X1005629Y890055D01*
X1005014Y889563D01*
X1004386Y889085D01*
X1003746Y888623D01*
X1003096Y888177D01*
X1002435Y887746D01*
X1001763Y887333D01*
X1001082Y886935D01*
X1000391Y886555D01*
X999691Y886192D01*
X998982Y885846D01*
X998264Y885517D01*
X997539Y885207D01*
X996807Y884914D01*
X996068Y884639D01*
X995322Y884382D01*
X994570Y884144D01*
X993812Y883924D01*
X993049Y883723D01*
X992282Y883541D01*
X991510Y883378D01*
X990735Y883233D01*
X989956Y883108D01*
X989174Y883002D01*
X988390Y882915D01*
X987604Y882847D01*
X986817Y882799D01*
X986029Y882770D01*
X985240Y882760D01*
X984451Y882770D01*
X983663Y882799D01*
X982876Y882847D01*
X982090Y882915D01*
X981306Y883002D01*
X980524Y883108D01*
X979745Y883233D01*
X978970Y883378D01*
X978198Y883541D01*
X977431Y883723D01*
X976668Y883924D01*
X975910Y884144D01*
X975158Y884382D01*
X974412Y884639D01*
X973673Y884914D01*
X972941Y885207D01*
X972216Y885517D01*
X971498Y885846D01*
X970789Y886192D01*
X970089Y886555D01*
X969398Y886935D01*
X968717Y887333D01*
X968045Y887746D01*
X967384Y888177D01*
X966734Y888623D01*
X966094Y889085D01*
X965466Y889563D01*
X964851Y890055D01*
X964247Y890563D01*
X963656Y891086D01*
X963078Y891623D01*
X962514Y892174D01*
X961963Y892738D01*
X961426Y893316D01*
X960903Y893907D01*
X960395Y894511D01*
X959903Y895126D01*
X959425Y895754D01*
X958963Y896394D01*
X958517Y897044D01*
X958086Y897705D01*
X957673Y898377D01*
X957275Y899058D01*
X956895Y899749D01*
X956532Y900449D01*
X956186Y901158D01*
X955857Y901876D01*
X955547Y902601D01*
X955254Y903333D01*
X954979Y904072D01*
X954722Y904818D01*
X954484Y905570D01*
X954264Y906328D01*
X954063Y907091D01*
X953881Y907858D01*
X953718Y908630D01*
X953573Y909405D01*
X953448Y910184D01*
X953342Y910966D01*
X953255Y911750D01*
X953187Y912536D01*
X953139Y913323D01*
X953110Y914111D01*
X953100Y914900D01*
X963980Y913900D02*
X963986Y914422D01*
X964006Y914943D01*
X964038Y915464D01*
X964082Y915984D01*
X964140Y916502D01*
X964210Y917019D01*
X964293Y917535D01*
X964389Y918048D01*
X964497Y918558D01*
X964617Y919066D01*
X964750Y919570D01*
X964895Y920071D01*
X965053Y920569D01*
X965223Y921062D01*
X965405Y921551D01*
X965598Y922036D01*
X965804Y922515D01*
X966021Y922990D01*
X966250Y923459D01*
X966490Y923922D01*
X966742Y924379D01*
X967005Y924830D01*
X967278Y925274D01*
X967563Y925711D01*
X967858Y926142D01*
X968164Y926565D01*
X968480Y926980D01*
X968806Y927387D01*
X969142Y927786D01*
X969487Y928177D01*
X969843Y928560D01*
X970207Y928933D01*
X970580Y929297D01*
X970963Y929653D01*
X971354Y929998D01*
X971753Y930334D01*
X972160Y930660D01*
X972575Y930976D01*
X972998Y931282D01*
X973429Y931577D01*
X973866Y931862D01*
X974310Y932135D01*
X974761Y932398D01*
X975218Y932650D01*
X975681Y932890D01*
X976150Y933119D01*
X976625Y933336D01*
X977104Y933542D01*
X977589Y933735D01*
X978078Y933917D01*
X978571Y934087D01*
X979069Y934245D01*
X979570Y934390D01*
X980074Y934523D01*
X980582Y934643D01*
X981092Y934751D01*
X981605Y934847D01*
X982121Y934930D01*
X982638Y935000D01*
X983156Y935058D01*
X983676Y935102D01*
X984197Y935134D01*
X984718Y935154D01*
X985240Y935160D01*
X985762Y935154D01*
X986283Y935134D01*
X986804Y935102D01*
X987324Y935058D01*
X987842Y935000D01*
X988359Y934930D01*
X988875Y934847D01*
X989388Y934751D01*
X989898Y934643D01*
X990406Y934523D01*
X990910Y934390D01*
X991411Y934245D01*
X991909Y934087D01*
X992402Y933917D01*
X992891Y933735D01*
X993376Y933542D01*
X993855Y933336D01*
X994330Y933119D01*
X994799Y932890D01*
X995262Y932650D01*
X995719Y932398D01*
X996170Y932135D01*
X996614Y931862D01*
X997051Y931577D01*
X997482Y931282D01*
X997905Y930976D01*
X998320Y930660D01*
X998727Y930334D01*
X999126Y929998D01*
X999517Y929653D01*
X999900Y929297D01*
X1000273Y928933D01*
X1000637Y928560D01*
X1000993Y928177D01*
X1001338Y927786D01*
X1001674Y927387D01*
X1002000Y926980D01*
X1002316Y926565D01*
X1002622Y926142D01*
X1002917Y925711D01*
X1003202Y925274D01*
X1003475Y924830D01*
X1003738Y924379D01*
X1003990Y923922D01*
X1004230Y923459D01*
X1004459Y922990D01*
X1004676Y922515D01*
X1004882Y922036D01*
X1005075Y921551D01*
X1005257Y921062D01*
X1005427Y920569D01*
X1005585Y920071D01*
X1005730Y919570D01*
X1005863Y919066D01*
X1005983Y918558D01*
X1006091Y918048D01*
X1006187Y917535D01*
X1006270Y917019D01*
X1006340Y916502D01*
X1006398Y915984D01*
X1006442Y915464D01*
X1006474Y914943D01*
X1006494Y914422D01*
X1006500Y913900D01*
X1006494Y913378D01*
X1006474Y912857D01*
X1006442Y912336D01*
X1006398Y911816D01*
X1006340Y911298D01*
X1006270Y910781D01*
X1006187Y910265D01*
X1006091Y909752D01*
X1005983Y909242D01*
X1005863Y908734D01*
X1005730Y908230D01*
X1005585Y907729D01*
X1005427Y907231D01*
X1005257Y906738D01*
X1005075Y906249D01*
X1004882Y905764D01*
X1004676Y905285D01*
X1004459Y904810D01*
X1004230Y904341D01*
X1003990Y903878D01*
X1003738Y903421D01*
X1003475Y902970D01*
X1003202Y902526D01*
X1002917Y902089D01*
X1002622Y901658D01*
X1002316Y901235D01*
X1002000Y900820D01*
X1001674Y900413D01*
X1001338Y900014D01*
X1000993Y899623D01*
X1000637Y899240D01*
X1000273Y898867D01*
X999900Y898503D01*
X999517Y898147D01*
X999126Y897802D01*
X998727Y897466D01*
X998320Y897140D01*
X997905Y896824D01*
X997482Y896518D01*
X997051Y896223D01*
X996614Y895938D01*
X996170Y895665D01*
X995719Y895402D01*
X995262Y895150D01*
X994799Y894910D01*
X994330Y894681D01*
X993855Y894464D01*
X993376Y894258D01*
X992891Y894065D01*
X992402Y893883D01*
X991909Y893713D01*
X991411Y893555D01*
X990910Y893410D01*
X990406Y893277D01*
X989898Y893157D01*
X989388Y893049D01*
X988875Y892953D01*
X988359Y892870D01*
X987842Y892800D01*
X987324Y892742D01*
X986804Y892698D01*
X986283Y892666D01*
X985762Y892646D01*
X985240Y892640D01*
X984718Y892646D01*
X984197Y892666D01*
X983676Y892698D01*
X983156Y892742D01*
X982638Y892800D01*
X982121Y892870D01*
X981605Y892953D01*
X981092Y893049D01*
X980582Y893157D01*
X980074Y893277D01*
X979570Y893410D01*
X979069Y893555D01*
X978571Y893713D01*
X978078Y893883D01*
X977589Y894065D01*
X977104Y894258D01*
X976625Y894464D01*
X976150Y894681D01*
X975681Y894910D01*
X975218Y895150D01*
X974761Y895402D01*
X974310Y895665D01*
X973866Y895938D01*
X973429Y896223D01*
X972998Y896518D01*
X972575Y896824D01*
X972160Y897140D01*
X971753Y897466D01*
X971354Y897802D01*
X970963Y898147D01*
X970580Y898503D01*
X970207Y898867D01*
X969843Y899240D01*
X969487Y899623D01*
X969142Y900014D01*
X968806Y900413D01*
X968480Y900820D01*
X968164Y901235D01*
X967858Y901658D01*
X967563Y902089D01*
X967278Y902526D01*
X967005Y902970D01*
X966742Y903421D01*
X966490Y903878D01*
X966250Y904341D01*
X966021Y904810D01*
X965804Y905285D01*
X965598Y905764D01*
X965405Y906249D01*
X965223Y906738D01*
X965053Y907231D01*
X964895Y907729D01*
X964750Y908230D01*
X964617Y908734D01*
X964497Y909242D01*
X964389Y909752D01*
X964293Y910265D01*
X964210Y910781D01*
X964140Y911298D01*
X964082Y911816D01*
X964038Y912336D01*
X964006Y912857D01*
X963986Y913378D01*
X963980Y913900D01*
X783240Y959900D02*
X783240Y976900D01*
X990240Y909900D02*
X990240Y893900D01*
X990240Y909900D02*
X1005240Y909900D01*
X1005240Y917900D02*
X989240Y917900D01*
X989240Y932900D01*
X981240Y933900D02*
X981240Y917900D01*
X966240Y917900D01*
X965240Y909900D02*
X981240Y909900D01*
X981240Y894900D01*
X870100Y914900D02*
X870110Y915689D01*
X870139Y916477D01*
X870187Y917264D01*
X870255Y918050D01*
X870342Y918834D01*
X870448Y919616D01*
X870573Y920395D01*
X870718Y921170D01*
X870881Y921942D01*
X871063Y922709D01*
X871264Y923472D01*
X871484Y924230D01*
X871722Y924982D01*
X871979Y925728D01*
X872254Y926467D01*
X872547Y927199D01*
X872857Y927924D01*
X873186Y928642D01*
X873532Y929351D01*
X873895Y930051D01*
X874275Y930742D01*
X874673Y931423D01*
X875086Y932095D01*
X875517Y932756D01*
X875963Y933406D01*
X876425Y934046D01*
X876903Y934674D01*
X877395Y935289D01*
X877903Y935893D01*
X878426Y936484D01*
X878963Y937062D01*
X879514Y937626D01*
X880078Y938177D01*
X880656Y938714D01*
X881247Y939237D01*
X881851Y939745D01*
X882466Y940237D01*
X883094Y940715D01*
X883734Y941177D01*
X884384Y941623D01*
X885045Y942054D01*
X885717Y942467D01*
X886398Y942865D01*
X887089Y943245D01*
X887789Y943608D01*
X888498Y943954D01*
X889216Y944283D01*
X889941Y944593D01*
X890673Y944886D01*
X891412Y945161D01*
X892158Y945418D01*
X892910Y945656D01*
X893668Y945876D01*
X894431Y946077D01*
X895198Y946259D01*
X895970Y946422D01*
X896745Y946567D01*
X897524Y946692D01*
X898306Y946798D01*
X899090Y946885D01*
X899876Y946953D01*
X900663Y947001D01*
X901451Y947030D01*
X902240Y947040D01*
X903029Y947030D01*
X903817Y947001D01*
X904604Y946953D01*
X905390Y946885D01*
X906174Y946798D01*
X906956Y946692D01*
X907735Y946567D01*
X908510Y946422D01*
X909282Y946259D01*
X910049Y946077D01*
X910812Y945876D01*
X911570Y945656D01*
X912322Y945418D01*
X913068Y945161D01*
X913807Y944886D01*
X914539Y944593D01*
X915264Y944283D01*
X915982Y943954D01*
X916691Y943608D01*
X917391Y943245D01*
X918082Y942865D01*
X918763Y942467D01*
X919435Y942054D01*
X920096Y941623D01*
X920746Y941177D01*
X921386Y940715D01*
X922014Y940237D01*
X922629Y939745D01*
X923233Y939237D01*
X923824Y938714D01*
X924402Y938177D01*
X924966Y937626D01*
X925517Y937062D01*
X926054Y936484D01*
X926577Y935893D01*
X927085Y935289D01*
X927577Y934674D01*
X928055Y934046D01*
X928517Y933406D01*
X928963Y932756D01*
X929394Y932095D01*
X929807Y931423D01*
X930205Y930742D01*
X930585Y930051D01*
X930948Y929351D01*
X931294Y928642D01*
X931623Y927924D01*
X931933Y927199D01*
X932226Y926467D01*
X932501Y925728D01*
X932758Y924982D01*
X932996Y924230D01*
X933216Y923472D01*
X933417Y922709D01*
X933599Y921942D01*
X933762Y921170D01*
X933907Y920395D01*
X934032Y919616D01*
X934138Y918834D01*
X934225Y918050D01*
X934293Y917264D01*
X934341Y916477D01*
X934370Y915689D01*
X934380Y914900D01*
X934370Y914111D01*
X934341Y913323D01*
X934293Y912536D01*
X934225Y911750D01*
X934138Y910966D01*
X934032Y910184D01*
X933907Y909405D01*
X933762Y908630D01*
X933599Y907858D01*
X933417Y907091D01*
X933216Y906328D01*
X932996Y905570D01*
X932758Y904818D01*
X932501Y904072D01*
X932226Y903333D01*
X931933Y902601D01*
X931623Y901876D01*
X931294Y901158D01*
X930948Y900449D01*
X930585Y899749D01*
X930205Y899058D01*
X929807Y898377D01*
X929394Y897705D01*
X928963Y897044D01*
X928517Y896394D01*
X928055Y895754D01*
X927577Y895126D01*
X927085Y894511D01*
X926577Y893907D01*
X926054Y893316D01*
X925517Y892738D01*
X924966Y892174D01*
X924402Y891623D01*
X923824Y891086D01*
X923233Y890563D01*
X922629Y890055D01*
X922014Y889563D01*
X921386Y889085D01*
X920746Y888623D01*
X920096Y888177D01*
X919435Y887746D01*
X918763Y887333D01*
X918082Y886935D01*
X917391Y886555D01*
X916691Y886192D01*
X915982Y885846D01*
X915264Y885517D01*
X914539Y885207D01*
X913807Y884914D01*
X913068Y884639D01*
X912322Y884382D01*
X911570Y884144D01*
X910812Y883924D01*
X910049Y883723D01*
X909282Y883541D01*
X908510Y883378D01*
X907735Y883233D01*
X906956Y883108D01*
X906174Y883002D01*
X905390Y882915D01*
X904604Y882847D01*
X903817Y882799D01*
X903029Y882770D01*
X902240Y882760D01*
X901451Y882770D01*
X900663Y882799D01*
X899876Y882847D01*
X899090Y882915D01*
X898306Y883002D01*
X897524Y883108D01*
X896745Y883233D01*
X895970Y883378D01*
X895198Y883541D01*
X894431Y883723D01*
X893668Y883924D01*
X892910Y884144D01*
X892158Y884382D01*
X891412Y884639D01*
X890673Y884914D01*
X889941Y885207D01*
X889216Y885517D01*
X888498Y885846D01*
X887789Y886192D01*
X887089Y886555D01*
X886398Y886935D01*
X885717Y887333D01*
X885045Y887746D01*
X884384Y888177D01*
X883734Y888623D01*
X883094Y889085D01*
X882466Y889563D01*
X881851Y890055D01*
X881247Y890563D01*
X880656Y891086D01*
X880078Y891623D01*
X879514Y892174D01*
X878963Y892738D01*
X878426Y893316D01*
X877903Y893907D01*
X877395Y894511D01*
X876903Y895126D01*
X876425Y895754D01*
X875963Y896394D01*
X875517Y897044D01*
X875086Y897705D01*
X874673Y898377D01*
X874275Y899058D01*
X873895Y899749D01*
X873532Y900449D01*
X873186Y901158D01*
X872857Y901876D01*
X872547Y902601D01*
X872254Y903333D01*
X871979Y904072D01*
X871722Y904818D01*
X871484Y905570D01*
X871264Y906328D01*
X871063Y907091D01*
X870881Y907858D01*
X870718Y908630D01*
X870573Y909405D01*
X870448Y910184D01*
X870342Y910966D01*
X870255Y911750D01*
X870187Y912536D01*
X870139Y913323D01*
X870110Y914111D01*
X870100Y914900D01*
X880980Y913900D02*
X880986Y914422D01*
X881006Y914943D01*
X881038Y915464D01*
X881082Y915984D01*
X881140Y916502D01*
X881210Y917019D01*
X881293Y917535D01*
X881389Y918048D01*
X881497Y918558D01*
X881617Y919066D01*
X881750Y919570D01*
X881895Y920071D01*
X882053Y920569D01*
X882223Y921062D01*
X882405Y921551D01*
X882598Y922036D01*
X882804Y922515D01*
X883021Y922990D01*
X883250Y923459D01*
X883490Y923922D01*
X883742Y924379D01*
X884005Y924830D01*
X884278Y925274D01*
X884563Y925711D01*
X884858Y926142D01*
X885164Y926565D01*
X885480Y926980D01*
X885806Y927387D01*
X886142Y927786D01*
X886487Y928177D01*
X886843Y928560D01*
X887207Y928933D01*
X887580Y929297D01*
X887963Y929653D01*
X888354Y929998D01*
X888753Y930334D01*
X889160Y930660D01*
X889575Y930976D01*
X889998Y931282D01*
X890429Y931577D01*
X890866Y931862D01*
X891310Y932135D01*
X891761Y932398D01*
X892218Y932650D01*
X892681Y932890D01*
X893150Y933119D01*
X893625Y933336D01*
X894104Y933542D01*
X894589Y933735D01*
X895078Y933917D01*
X895571Y934087D01*
X896069Y934245D01*
X896570Y934390D01*
X897074Y934523D01*
X897582Y934643D01*
X898092Y934751D01*
X898605Y934847D01*
X899121Y934930D01*
X899638Y935000D01*
X900156Y935058D01*
X900676Y935102D01*
X901197Y935134D01*
X901718Y935154D01*
X902240Y935160D01*
X902762Y935154D01*
X903283Y935134D01*
X903804Y935102D01*
X904324Y935058D01*
X904842Y935000D01*
X905359Y934930D01*
X905875Y934847D01*
X906388Y934751D01*
X906898Y934643D01*
X907406Y934523D01*
X907910Y934390D01*
X908411Y934245D01*
X908909Y934087D01*
X909402Y933917D01*
X909891Y933735D01*
X910376Y933542D01*
X910855Y933336D01*
X911330Y933119D01*
X911799Y932890D01*
X912262Y932650D01*
X912719Y932398D01*
X913170Y932135D01*
X913614Y931862D01*
X914051Y931577D01*
X914482Y931282D01*
X914905Y930976D01*
X915320Y930660D01*
X915727Y930334D01*
X916126Y929998D01*
X916517Y929653D01*
X916900Y929297D01*
X917273Y928933D01*
X917637Y928560D01*
X917993Y928177D01*
X918338Y927786D01*
X918674Y927387D01*
X919000Y926980D01*
X919316Y926565D01*
X919622Y926142D01*
X919917Y925711D01*
X920202Y925274D01*
X920475Y924830D01*
X920738Y924379D01*
X920990Y923922D01*
X921230Y923459D01*
X921459Y922990D01*
X921676Y922515D01*
X921882Y922036D01*
X922075Y921551D01*
X922257Y921062D01*
X922427Y920569D01*
X922585Y920071D01*
X922730Y919570D01*
X922863Y919066D01*
X922983Y918558D01*
X923091Y918048D01*
X923187Y917535D01*
X923270Y917019D01*
X923340Y916502D01*
X923398Y915984D01*
X923442Y915464D01*
X923474Y914943D01*
X923494Y914422D01*
X923500Y913900D01*
X923494Y913378D01*
X923474Y912857D01*
X923442Y912336D01*
X923398Y911816D01*
X923340Y911298D01*
X923270Y910781D01*
X923187Y910265D01*
X923091Y909752D01*
X922983Y909242D01*
X922863Y908734D01*
X922730Y908230D01*
X922585Y907729D01*
X922427Y907231D01*
X922257Y906738D01*
X922075Y906249D01*
X921882Y905764D01*
X921676Y905285D01*
X921459Y904810D01*
X921230Y904341D01*
X920990Y903878D01*
X920738Y903421D01*
X920475Y902970D01*
X920202Y902526D01*
X919917Y902089D01*
X919622Y901658D01*
X919316Y901235D01*
X919000Y900820D01*
X918674Y900413D01*
X918338Y900014D01*
X917993Y899623D01*
X917637Y899240D01*
X917273Y898867D01*
X916900Y898503D01*
X916517Y898147D01*
X916126Y897802D01*
X915727Y897466D01*
X915320Y897140D01*
X914905Y896824D01*
X914482Y896518D01*
X914051Y896223D01*
X913614Y895938D01*
X913170Y895665D01*
X912719Y895402D01*
X912262Y895150D01*
X911799Y894910D01*
X911330Y894681D01*
X910855Y894464D01*
X910376Y894258D01*
X909891Y894065D01*
X909402Y893883D01*
X908909Y893713D01*
X908411Y893555D01*
X907910Y893410D01*
X907406Y893277D01*
X906898Y893157D01*
X906388Y893049D01*
X905875Y892953D01*
X905359Y892870D01*
X904842Y892800D01*
X904324Y892742D01*
X903804Y892698D01*
X903283Y892666D01*
X902762Y892646D01*
X902240Y892640D01*
X901718Y892646D01*
X901197Y892666D01*
X900676Y892698D01*
X900156Y892742D01*
X899638Y892800D01*
X899121Y892870D01*
X898605Y892953D01*
X898092Y893049D01*
X897582Y893157D01*
X897074Y893277D01*
X896570Y893410D01*
X896069Y893555D01*
X895571Y893713D01*
X895078Y893883D01*
X894589Y894065D01*
X894104Y894258D01*
X893625Y894464D01*
X893150Y894681D01*
X892681Y894910D01*
X892218Y895150D01*
X891761Y895402D01*
X891310Y895665D01*
X890866Y895938D01*
X890429Y896223D01*
X889998Y896518D01*
X889575Y896824D01*
X889160Y897140D01*
X888753Y897466D01*
X888354Y897802D01*
X887963Y898147D01*
X887580Y898503D01*
X887207Y898867D01*
X886843Y899240D01*
X886487Y899623D01*
X886142Y900014D01*
X885806Y900413D01*
X885480Y900820D01*
X885164Y901235D01*
X884858Y901658D01*
X884563Y902089D01*
X884278Y902526D01*
X884005Y902970D01*
X883742Y903421D01*
X883490Y903878D01*
X883250Y904341D01*
X883021Y904810D01*
X882804Y905285D01*
X882598Y905764D01*
X882405Y906249D01*
X882223Y906738D01*
X882053Y907231D01*
X881895Y907729D01*
X881750Y908230D01*
X881617Y908734D01*
X881497Y909242D01*
X881389Y909752D01*
X881293Y910265D01*
X881210Y910781D01*
X881140Y911298D01*
X881082Y911816D01*
X881038Y912336D01*
X881006Y912857D01*
X880986Y913378D01*
X880980Y913900D01*
X907240Y909900D02*
X907240Y893900D01*
X907240Y909900D02*
X922240Y909900D01*
X922240Y917900D02*
X906240Y917900D01*
X906240Y932900D01*
X898240Y933900D02*
X898240Y917900D01*
X883240Y917900D01*
X882240Y909900D02*
X898240Y909900D01*
X898240Y894900D01*
X787100Y913900D02*
X787110Y914689D01*
X787139Y915477D01*
X787187Y916264D01*
X787255Y917050D01*
X787342Y917834D01*
X787448Y918616D01*
X787573Y919395D01*
X787718Y920170D01*
X787881Y920942D01*
X788063Y921709D01*
X788264Y922472D01*
X788484Y923230D01*
X788722Y923982D01*
X788979Y924728D01*
X789254Y925467D01*
X789547Y926199D01*
X789857Y926924D01*
X790186Y927642D01*
X790532Y928351D01*
X790895Y929051D01*
X791275Y929742D01*
X791673Y930423D01*
X792086Y931095D01*
X792517Y931756D01*
X792963Y932406D01*
X793425Y933046D01*
X793903Y933674D01*
X794395Y934289D01*
X794903Y934893D01*
X795426Y935484D01*
X795963Y936062D01*
X796514Y936626D01*
X797078Y937177D01*
X797656Y937714D01*
X798247Y938237D01*
X798851Y938745D01*
X799466Y939237D01*
X800094Y939715D01*
X800734Y940177D01*
X801384Y940623D01*
X802045Y941054D01*
X802717Y941467D01*
X803398Y941865D01*
X804089Y942245D01*
X804789Y942608D01*
X805498Y942954D01*
X806216Y943283D01*
X806941Y943593D01*
X807673Y943886D01*
X808412Y944161D01*
X809158Y944418D01*
X809910Y944656D01*
X810668Y944876D01*
X811431Y945077D01*
X812198Y945259D01*
X812970Y945422D01*
X813745Y945567D01*
X814524Y945692D01*
X815306Y945798D01*
X816090Y945885D01*
X816876Y945953D01*
X817663Y946001D01*
X818451Y946030D01*
X819240Y946040D01*
X820029Y946030D01*
X820817Y946001D01*
X821604Y945953D01*
X822390Y945885D01*
X823174Y945798D01*
X823956Y945692D01*
X824735Y945567D01*
X825510Y945422D01*
X826282Y945259D01*
X827049Y945077D01*
X827812Y944876D01*
X828570Y944656D01*
X829322Y944418D01*
X830068Y944161D01*
X830807Y943886D01*
X831539Y943593D01*
X832264Y943283D01*
X832982Y942954D01*
X833691Y942608D01*
X834391Y942245D01*
X835082Y941865D01*
X835763Y941467D01*
X836435Y941054D01*
X837096Y940623D01*
X837746Y940177D01*
X838386Y939715D01*
X839014Y939237D01*
X839629Y938745D01*
X840233Y938237D01*
X840824Y937714D01*
X841402Y937177D01*
X841966Y936626D01*
X842517Y936062D01*
X843054Y935484D01*
X843577Y934893D01*
X844085Y934289D01*
X844577Y933674D01*
X845055Y933046D01*
X845517Y932406D01*
X845963Y931756D01*
X846394Y931095D01*
X846807Y930423D01*
X847205Y929742D01*
X847585Y929051D01*
X847948Y928351D01*
X848294Y927642D01*
X848623Y926924D01*
X848933Y926199D01*
X849226Y925467D01*
X849501Y924728D01*
X849758Y923982D01*
X849996Y923230D01*
X850216Y922472D01*
X850417Y921709D01*
X850599Y920942D01*
X850762Y920170D01*
X850907Y919395D01*
X851032Y918616D01*
X851138Y917834D01*
X851225Y917050D01*
X851293Y916264D01*
X851341Y915477D01*
X851370Y914689D01*
X851380Y913900D01*
X851370Y913111D01*
X851341Y912323D01*
X851293Y911536D01*
X851225Y910750D01*
X851138Y909966D01*
X851032Y909184D01*
X850907Y908405D01*
X850762Y907630D01*
X850599Y906858D01*
X850417Y906091D01*
X850216Y905328D01*
X849996Y904570D01*
X849758Y903818D01*
X849501Y903072D01*
X849226Y902333D01*
X848933Y901601D01*
X848623Y900876D01*
X848294Y900158D01*
X847948Y899449D01*
X847585Y898749D01*
X847205Y898058D01*
X846807Y897377D01*
X846394Y896705D01*
X845963Y896044D01*
X845517Y895394D01*
X845055Y894754D01*
X844577Y894126D01*
X844085Y893511D01*
X843577Y892907D01*
X843054Y892316D01*
X842517Y891738D01*
X841966Y891174D01*
X841402Y890623D01*
X840824Y890086D01*
X840233Y889563D01*
X839629Y889055D01*
X839014Y888563D01*
X838386Y888085D01*
X837746Y887623D01*
X837096Y887177D01*
X836435Y886746D01*
X835763Y886333D01*
X835082Y885935D01*
X834391Y885555D01*
X833691Y885192D01*
X832982Y884846D01*
X832264Y884517D01*
X831539Y884207D01*
X830807Y883914D01*
X830068Y883639D01*
X829322Y883382D01*
X828570Y883144D01*
X827812Y882924D01*
X827049Y882723D01*
X826282Y882541D01*
X825510Y882378D01*
X824735Y882233D01*
X823956Y882108D01*
X823174Y882002D01*
X822390Y881915D01*
X821604Y881847D01*
X820817Y881799D01*
X820029Y881770D01*
X819240Y881760D01*
X818451Y881770D01*
X817663Y881799D01*
X816876Y881847D01*
X816090Y881915D01*
X815306Y882002D01*
X814524Y882108D01*
X813745Y882233D01*
X812970Y882378D01*
X812198Y882541D01*
X811431Y882723D01*
X810668Y882924D01*
X809910Y883144D01*
X809158Y883382D01*
X808412Y883639D01*
X807673Y883914D01*
X806941Y884207D01*
X806216Y884517D01*
X805498Y884846D01*
X804789Y885192D01*
X804089Y885555D01*
X803398Y885935D01*
X802717Y886333D01*
X802045Y886746D01*
X801384Y887177D01*
X800734Y887623D01*
X800094Y888085D01*
X799466Y888563D01*
X798851Y889055D01*
X798247Y889563D01*
X797656Y890086D01*
X797078Y890623D01*
X796514Y891174D01*
X795963Y891738D01*
X795426Y892316D01*
X794903Y892907D01*
X794395Y893511D01*
X793903Y894126D01*
X793425Y894754D01*
X792963Y895394D01*
X792517Y896044D01*
X792086Y896705D01*
X791673Y897377D01*
X791275Y898058D01*
X790895Y898749D01*
X790532Y899449D01*
X790186Y900158D01*
X789857Y900876D01*
X789547Y901601D01*
X789254Y902333D01*
X788979Y903072D01*
X788722Y903818D01*
X788484Y904570D01*
X788264Y905328D01*
X788063Y906091D01*
X787881Y906858D01*
X787718Y907630D01*
X787573Y908405D01*
X787448Y909184D01*
X787342Y909966D01*
X787255Y910750D01*
X787187Y911536D01*
X787139Y912323D01*
X787110Y913111D01*
X787100Y913900D01*
X797980Y912900D02*
X797986Y913422D01*
X798006Y913943D01*
X798038Y914464D01*
X798082Y914984D01*
X798140Y915502D01*
X798210Y916019D01*
X798293Y916535D01*
X798389Y917048D01*
X798497Y917558D01*
X798617Y918066D01*
X798750Y918570D01*
X798895Y919071D01*
X799053Y919569D01*
X799223Y920062D01*
X799405Y920551D01*
X799598Y921036D01*
X799804Y921515D01*
X800021Y921990D01*
X800250Y922459D01*
X800490Y922922D01*
X800742Y923379D01*
X801005Y923830D01*
X801278Y924274D01*
X801563Y924711D01*
X801858Y925142D01*
X802164Y925565D01*
X802480Y925980D01*
X802806Y926387D01*
X803142Y926786D01*
X803487Y927177D01*
X803843Y927560D01*
X804207Y927933D01*
X804580Y928297D01*
X804963Y928653D01*
X805354Y928998D01*
X805753Y929334D01*
X806160Y929660D01*
X806575Y929976D01*
X806998Y930282D01*
X807429Y930577D01*
X807866Y930862D01*
X808310Y931135D01*
X808761Y931398D01*
X809218Y931650D01*
X809681Y931890D01*
X810150Y932119D01*
X810625Y932336D01*
X811104Y932542D01*
X811589Y932735D01*
X812078Y932917D01*
X812571Y933087D01*
X813069Y933245D01*
X813570Y933390D01*
X814074Y933523D01*
X814582Y933643D01*
X815092Y933751D01*
X815605Y933847D01*
X816121Y933930D01*
X816638Y934000D01*
X817156Y934058D01*
X817676Y934102D01*
X818197Y934134D01*
X818718Y934154D01*
X819240Y934160D01*
X819762Y934154D01*
X820283Y934134D01*
X820804Y934102D01*
X821324Y934058D01*
X821842Y934000D01*
X822359Y933930D01*
X822875Y933847D01*
X823388Y933751D01*
X823898Y933643D01*
X824406Y933523D01*
X824910Y933390D01*
X825411Y933245D01*
X825909Y933087D01*
X826402Y932917D01*
X826891Y932735D01*
X827376Y932542D01*
X827855Y932336D01*
X828330Y932119D01*
X828799Y931890D01*
X829262Y931650D01*
X829719Y931398D01*
X830170Y931135D01*
X830614Y930862D01*
X831051Y930577D01*
X831482Y930282D01*
X831905Y929976D01*
X832320Y929660D01*
X832727Y929334D01*
X833126Y928998D01*
X833517Y928653D01*
X833900Y928297D01*
X834273Y927933D01*
X834637Y927560D01*
X834993Y927177D01*
X835338Y926786D01*
X835674Y926387D01*
X836000Y925980D01*
X836316Y925565D01*
X836622Y925142D01*
X836917Y924711D01*
X837202Y924274D01*
X837475Y923830D01*
X837738Y923379D01*
X837990Y922922D01*
X838230Y922459D01*
X838459Y921990D01*
X838676Y921515D01*
X838882Y921036D01*
X839075Y920551D01*
X839257Y920062D01*
X839427Y919569D01*
X839585Y919071D01*
X839730Y918570D01*
X839863Y918066D01*
X839983Y917558D01*
X840091Y917048D01*
X840187Y916535D01*
X840270Y916019D01*
X840340Y915502D01*
X840398Y914984D01*
X840442Y914464D01*
X840474Y913943D01*
X840494Y913422D01*
X840500Y912900D01*
X840494Y912378D01*
X840474Y911857D01*
X840442Y911336D01*
X840398Y910816D01*
X840340Y910298D01*
X840270Y909781D01*
X840187Y909265D01*
X840091Y908752D01*
X839983Y908242D01*
X839863Y907734D01*
X839730Y907230D01*
X839585Y906729D01*
X839427Y906231D01*
X839257Y905738D01*
X839075Y905249D01*
X838882Y904764D01*
X838676Y904285D01*
X838459Y903810D01*
X838230Y903341D01*
X837990Y902878D01*
X837738Y902421D01*
X837475Y901970D01*
X837202Y901526D01*
X836917Y901089D01*
X836622Y900658D01*
X836316Y900235D01*
X836000Y899820D01*
X835674Y899413D01*
X835338Y899014D01*
X834993Y898623D01*
X834637Y898240D01*
X834273Y897867D01*
X833900Y897503D01*
X833517Y897147D01*
X833126Y896802D01*
X832727Y896466D01*
X832320Y896140D01*
X831905Y895824D01*
X831482Y895518D01*
X831051Y895223D01*
X830614Y894938D01*
X830170Y894665D01*
X829719Y894402D01*
X829262Y894150D01*
X828799Y893910D01*
X828330Y893681D01*
X827855Y893464D01*
X827376Y893258D01*
X826891Y893065D01*
X826402Y892883D01*
X825909Y892713D01*
X825411Y892555D01*
X824910Y892410D01*
X824406Y892277D01*
X823898Y892157D01*
X823388Y892049D01*
X822875Y891953D01*
X822359Y891870D01*
X821842Y891800D01*
X821324Y891742D01*
X820804Y891698D01*
X820283Y891666D01*
X819762Y891646D01*
X819240Y891640D01*
X818718Y891646D01*
X818197Y891666D01*
X817676Y891698D01*
X817156Y891742D01*
X816638Y891800D01*
X816121Y891870D01*
X815605Y891953D01*
X815092Y892049D01*
X814582Y892157D01*
X814074Y892277D01*
X813570Y892410D01*
X813069Y892555D01*
X812571Y892713D01*
X812078Y892883D01*
X811589Y893065D01*
X811104Y893258D01*
X810625Y893464D01*
X810150Y893681D01*
X809681Y893910D01*
X809218Y894150D01*
X808761Y894402D01*
X808310Y894665D01*
X807866Y894938D01*
X807429Y895223D01*
X806998Y895518D01*
X806575Y895824D01*
X806160Y896140D01*
X805753Y896466D01*
X805354Y896802D01*
X804963Y897147D01*
X804580Y897503D01*
X804207Y897867D01*
X803843Y898240D01*
X803487Y898623D01*
X803142Y899014D01*
X802806Y899413D01*
X802480Y899820D01*
X802164Y900235D01*
X801858Y900658D01*
X801563Y901089D01*
X801278Y901526D01*
X801005Y901970D01*
X800742Y902421D01*
X800490Y902878D01*
X800250Y903341D01*
X800021Y903810D01*
X799804Y904285D01*
X799598Y904764D01*
X799405Y905249D01*
X799223Y905738D01*
X799053Y906231D01*
X798895Y906729D01*
X798750Y907230D01*
X798617Y907734D01*
X798497Y908242D01*
X798389Y908752D01*
X798293Y909265D01*
X798210Y909781D01*
X798140Y910298D01*
X798082Y910816D01*
X798038Y911336D01*
X798006Y911857D01*
X797986Y912378D01*
X797980Y912900D01*
X824240Y908900D02*
X824240Y892900D01*
X824240Y908900D02*
X839240Y908900D01*
X839240Y916900D02*
X823240Y916900D01*
X823240Y931900D01*
X815240Y932900D02*
X815240Y916900D01*
X800240Y916900D01*
X799240Y908900D02*
X815240Y908900D01*
X815240Y893900D01*
X948240Y959900D02*
X1021240Y959900D01*
X937240Y959900D02*
X866240Y959900D01*
X855240Y959900D02*
X783240Y959900D01*
D13*
X753174Y868411D02*
X753174Y859916D01*
X753172Y859818D01*
X753166Y859721D01*
X753156Y859623D01*
X753143Y859527D01*
X753125Y859431D01*
X753103Y859335D01*
X753078Y859241D01*
X753049Y859147D01*
X753016Y859055D01*
X752980Y858965D01*
X752940Y858876D01*
X752896Y858788D01*
X752849Y858702D01*
X752798Y858619D01*
X752744Y858537D01*
X752687Y858458D01*
X752627Y858381D01*
X752564Y858307D01*
X752497Y858235D01*
X752428Y858166D01*
X752356Y858099D01*
X752282Y858036D01*
X752205Y857976D01*
X752126Y857919D01*
X752044Y857865D01*
X751960Y857814D01*
X751875Y857767D01*
X751787Y857723D01*
X751698Y857683D01*
X751608Y857647D01*
X751516Y857614D01*
X751422Y857585D01*
X751328Y857560D01*
X751232Y857538D01*
X751136Y857520D01*
X751040Y857507D01*
X750942Y857497D01*
X750845Y857491D01*
X750747Y857489D01*
X749533Y857489D01*
X758853Y859916D02*
X761280Y868411D01*
X758853Y859916D02*
X764921Y859916D01*
X763101Y862343D02*
X763101Y857489D01*
D17*
X586740Y896620D02*
X580390Y902970D01*
X586740Y896620D02*
X586740Y883920D01*
X580390Y877570D01*
X567690Y877570D02*
X561340Y883920D01*
X561340Y896620D01*
X567690Y902970D01*
X586740Y934720D02*
X586740Y947420D01*
X586740Y934720D02*
X580390Y928370D01*
X567690Y928370D02*
X561340Y934720D01*
X580390Y928370D02*
X586740Y922020D01*
X586740Y909320D01*
X580390Y902970D01*
X567690Y902970D02*
X561340Y909320D01*
X561340Y922020D01*
X567690Y928370D01*
X567690Y953770D02*
X580390Y953770D01*
X586740Y947420D01*
X567690Y953770D02*
X561340Y947420D01*
X561340Y934720D01*
X567690Y877570D02*
X580390Y877570D01*
D18*
X588645Y947506D02*
X592399Y947506D01*
X592464Y947504D01*
X592528Y947498D01*
X592592Y947488D01*
X592656Y947475D01*
X592718Y947457D01*
X592779Y947436D01*
X592839Y947412D01*
X592897Y947383D01*
X592954Y947351D01*
X593008Y947316D01*
X593060Y947278D01*
X593110Y947236D01*
X593157Y947192D01*
X593201Y947145D01*
X593243Y947095D01*
X593281Y947043D01*
X593316Y946989D01*
X593348Y946932D01*
X593377Y946874D01*
X593401Y946814D01*
X593422Y946753D01*
X593440Y946691D01*
X593453Y946627D01*
X593463Y946563D01*
X593469Y946499D01*
X593471Y946434D01*
X593471Y945897D01*
X589717Y950454D02*
X588645Y951794D01*
X593471Y951794D01*
X593471Y950454D02*
X593471Y953135D01*
D17*
X356870Y828040D02*
X350520Y834390D01*
X350520Y847090D01*
X356870Y853440D01*
X369570Y853440D02*
X375920Y847090D01*
X375920Y834390D01*
X369570Y828040D01*
X350520Y796290D02*
X350520Y783590D01*
X350520Y796290D02*
X356870Y802640D01*
X369570Y802640D02*
X375920Y796290D01*
X356870Y802640D02*
X350520Y808990D01*
X350520Y821690D01*
X356870Y828040D01*
X369570Y828040D02*
X375920Y821690D01*
X375920Y808990D01*
X369570Y802640D01*
X369570Y777240D02*
X356870Y777240D01*
X350520Y783590D01*
X369570Y777240D02*
X375920Y783590D01*
X375920Y796290D01*
X369570Y853440D02*
X356870Y853440D01*
D18*
X347543Y779484D02*
X343789Y779484D01*
X347543Y779483D02*
X347608Y779481D01*
X347672Y779475D01*
X347736Y779465D01*
X347800Y779452D01*
X347862Y779434D01*
X347923Y779413D01*
X347983Y779389D01*
X348041Y779360D01*
X348098Y779328D01*
X348152Y779293D01*
X348204Y779255D01*
X348254Y779213D01*
X348301Y779169D01*
X348345Y779122D01*
X348387Y779072D01*
X348425Y779020D01*
X348460Y778966D01*
X348492Y778909D01*
X348521Y778851D01*
X348545Y778791D01*
X348566Y778730D01*
X348584Y778668D01*
X348597Y778604D01*
X348607Y778540D01*
X348613Y778476D01*
X348615Y778411D01*
X348615Y777875D01*
X343789Y783906D02*
X343791Y783974D01*
X343797Y784041D01*
X343806Y784108D01*
X343819Y784175D01*
X343836Y784240D01*
X343857Y784305D01*
X343881Y784368D01*
X343909Y784430D01*
X343940Y784490D01*
X343974Y784548D01*
X344012Y784604D01*
X344052Y784659D01*
X344096Y784710D01*
X344143Y784759D01*
X344192Y784806D01*
X344243Y784850D01*
X344298Y784890D01*
X344354Y784928D01*
X344412Y784962D01*
X344472Y784993D01*
X344534Y785021D01*
X344597Y785045D01*
X344662Y785066D01*
X344727Y785083D01*
X344794Y785096D01*
X344861Y785105D01*
X344928Y785111D01*
X344996Y785113D01*
X343789Y783906D02*
X343791Y783828D01*
X343797Y783750D01*
X343807Y783673D01*
X343820Y783596D01*
X343838Y783520D01*
X343859Y783445D01*
X343884Y783371D01*
X343913Y783299D01*
X343945Y783228D01*
X343981Y783159D01*
X344020Y783091D01*
X344063Y783026D01*
X344109Y782963D01*
X344158Y782902D01*
X344210Y782844D01*
X344265Y782789D01*
X344322Y782736D01*
X344382Y782687D01*
X344445Y782640D01*
X344510Y782597D01*
X344576Y782557D01*
X344645Y782520D01*
X344716Y782487D01*
X344788Y782457D01*
X344862Y782431D01*
X345934Y784711D02*
X345885Y784760D01*
X345833Y784807D01*
X345778Y784850D01*
X345721Y784891D01*
X345662Y784929D01*
X345601Y784963D01*
X345538Y784994D01*
X345474Y785022D01*
X345408Y785046D01*
X345342Y785066D01*
X345274Y785083D01*
X345205Y785096D01*
X345136Y785105D01*
X345066Y785111D01*
X344996Y785113D01*
X345934Y784711D02*
X348615Y782432D01*
X348615Y785113D01*
M02*
