G04 EAGLE Gerber RS-274X export*
G75*
%MOMM*%
%FSLAX34Y34*%
%LPD*%
%INSoldermask Bottom*%
%IPPOS*%
%AMOC8*
5,1,8,0,0,1.08239X$1,22.5*%
G01*
%ADD10P,11.043842X8X22.500000*%
%ADD11R,1.350200X2.611200*%
%ADD12R,4.013200X5.283200*%
%ADD13R,5.283200X4.013200*%
%ADD14R,3.957200X2.311200*%
%ADD15R,1.900000X1.400000*%
%ADD16R,1.500000X1.700000*%
%ADD17R,1.400000X1.900000*%
%ADD18R,4.648200X4.203200*%
%ADD19C,0.506591*%
%ADD20C,0.758316*%
%ADD21C,3.251200*%
%ADD22C,2.082800*%
%ADD23R,2.503200X5.803200*%
%ADD24C,0.959600*%
%ADD25C,1.727200*%
%ADD26C,2.743200*%


D10*
X322580Y232410D03*
X1122680Y232410D03*
X1122680Y932180D03*
X322580Y932180D03*
D11*
X459740Y956870D03*
X459740Y894790D03*
X485140Y956870D03*
X485140Y894790D03*
X510540Y956870D03*
X510540Y894790D03*
D12*
X332740Y363220D03*
X1117600Y698500D03*
X1118870Y783590D03*
D13*
X626110Y902970D03*
D14*
X546160Y822960D03*
X490160Y822960D03*
D15*
X998220Y758910D03*
X998220Y721910D03*
X953770Y721910D03*
X953770Y758910D03*
X922020Y758910D03*
X922020Y721910D03*
D16*
X735570Y201930D03*
X765570Y201930D03*
D17*
X769070Y231140D03*
X732070Y231140D03*
D18*
X1043140Y426500D03*
X1043140Y477500D03*
X1043140Y528500D03*
X1043140Y578500D03*
D19*
X647123Y766393D02*
X638117Y766393D01*
X647123Y766393D02*
X647123Y738447D01*
X638117Y738447D01*
X638117Y766393D01*
X638117Y743260D02*
X647123Y743260D01*
X647123Y748073D02*
X638117Y748073D01*
X638117Y752886D02*
X647123Y752886D01*
X647123Y757699D02*
X638117Y757699D01*
X638117Y762512D02*
X647123Y762512D01*
D20*
X645135Y850385D02*
X594385Y850385D01*
X645135Y850385D02*
X645135Y791455D01*
X594385Y791455D01*
X594385Y850385D01*
X594385Y798659D02*
X645135Y798659D01*
X645135Y805863D02*
X594385Y805863D01*
X594385Y813067D02*
X645135Y813067D01*
X645135Y820271D02*
X594385Y820271D01*
X594385Y827475D02*
X645135Y827475D01*
X645135Y834679D02*
X594385Y834679D01*
X594385Y841883D02*
X645135Y841883D01*
X645135Y849087D02*
X594385Y849087D01*
D19*
X592397Y766393D02*
X601403Y766393D01*
X601403Y738447D01*
X592397Y738447D01*
X592397Y766393D01*
X592397Y743260D02*
X601403Y743260D01*
X601403Y748073D02*
X592397Y748073D01*
X592397Y752886D02*
X601403Y752886D01*
X601403Y757699D02*
X592397Y757699D01*
X592397Y762512D02*
X601403Y762512D01*
D15*
X775970Y785580D03*
X775970Y748580D03*
X808990Y748580D03*
X808990Y785580D03*
X712470Y748580D03*
X712470Y785580D03*
X744220Y785580D03*
X744220Y748580D03*
X560070Y783040D03*
X560070Y746040D03*
X680720Y760010D03*
X680720Y797010D03*
D13*
X708660Y902970D03*
D17*
X405680Y850900D03*
X442680Y850900D03*
X441410Y819150D03*
X404410Y819150D03*
X404410Y784860D03*
X441410Y784860D03*
D16*
X658100Y201930D03*
X688100Y201930D03*
D17*
X691600Y231140D03*
X654600Y231140D03*
D21*
X970000Y873900D02*
X1000480Y873900D01*
X917980Y873900D02*
X887500Y873900D01*
X835480Y873900D02*
X805000Y873900D01*
D22*
X574040Y941070D03*
X574040Y915670D03*
X574040Y890270D03*
X363220Y789940D03*
X363220Y815340D03*
X363220Y840740D03*
D23*
X868510Y808990D03*
X942510Y808990D03*
D24*
X1127760Y370840D03*
X1083310Y363220D03*
D25*
X1051560Y758910D03*
X619760Y723900D03*
D24*
X373380Y654050D03*
X513080Y793750D03*
D26*
X1046480Y375920D03*
D24*
X1026160Y814070D03*
X996950Y783590D03*
M02*
