G04 EAGLE Gerber RS-274X export*
G75*
%MOMM*%
%FSLAX34Y34*%
%LPD*%
%INSolderpaste Bottom*%
%IPPOS*%
%AMOC8*
5,1,8,0,0,1.08239X$1,22.5*%
G01*
%ADD10R,1.147000X2.408000*%
%ADD11R,3.810000X5.080000*%
%ADD12R,5.080000X3.810000*%
%ADD13R,3.754000X2.108000*%
%ADD14R,1.800000X1.300000*%
%ADD15R,1.400000X1.600000*%
%ADD16R,1.300000X1.800000*%
%ADD17R,4.445000X4.000000*%
%ADD18C,0.301000*%
%ADD19C,0.563000*%
%ADD20R,2.300000X5.600000*%


D10*
X444500Y953060D03*
X444500Y890980D03*
X469900Y953060D03*
X469900Y890980D03*
X495300Y953060D03*
X495300Y890980D03*
D11*
X332740Y363220D03*
X1117600Y698500D03*
X1118870Y783590D03*
D12*
X425450Y745490D03*
D13*
X543620Y822960D03*
X487620Y822960D03*
D14*
X998220Y758910D03*
X998220Y721910D03*
X953770Y721910D03*
X953770Y758910D03*
X922020Y758910D03*
X922020Y721910D03*
D15*
X735570Y201930D03*
X765570Y201930D03*
D16*
X769070Y231140D03*
X732070Y231140D03*
D17*
X1043140Y426500D03*
X1043140Y477500D03*
X1043140Y528500D03*
X1043140Y578500D03*
D18*
X647135Y766405D02*
X638105Y766405D01*
X647135Y766405D02*
X647135Y738435D01*
X638105Y738435D01*
X638105Y766405D01*
X638105Y741294D02*
X647135Y741294D01*
X647135Y744153D02*
X638105Y744153D01*
X638105Y747012D02*
X647135Y747012D01*
X647135Y749871D02*
X638105Y749871D01*
X638105Y752730D02*
X647135Y752730D01*
X647135Y755589D02*
X638105Y755589D01*
X638105Y758448D02*
X647135Y758448D01*
X647135Y761307D02*
X638105Y761307D01*
X638105Y764166D02*
X647135Y764166D01*
D19*
X645095Y850345D02*
X594425Y850345D01*
X645095Y850345D02*
X645095Y791495D01*
X594425Y791495D01*
X594425Y850345D01*
X594425Y796843D02*
X645095Y796843D01*
X645095Y802191D02*
X594425Y802191D01*
X594425Y807539D02*
X645095Y807539D01*
X645095Y812887D02*
X594425Y812887D01*
X594425Y818235D02*
X645095Y818235D01*
X645095Y823583D02*
X594425Y823583D01*
X594425Y828931D02*
X645095Y828931D01*
X645095Y834279D02*
X594425Y834279D01*
X594425Y839627D02*
X645095Y839627D01*
X645095Y844975D02*
X594425Y844975D01*
X594425Y850323D02*
X645095Y850323D01*
D18*
X601415Y766405D02*
X592385Y766405D01*
X601415Y766405D02*
X601415Y738435D01*
X592385Y738435D01*
X592385Y766405D01*
X592385Y741294D02*
X601415Y741294D01*
X601415Y744153D02*
X592385Y744153D01*
X592385Y747012D02*
X601415Y747012D01*
X601415Y749871D02*
X592385Y749871D01*
X592385Y752730D02*
X601415Y752730D01*
X601415Y755589D02*
X592385Y755589D01*
X592385Y758448D02*
X601415Y758448D01*
X601415Y761307D02*
X592385Y761307D01*
X592385Y764166D02*
X601415Y764166D01*
D14*
X775970Y785580D03*
X775970Y748580D03*
X808990Y748580D03*
X808990Y785580D03*
X712470Y748580D03*
X712470Y785580D03*
X744220Y785580D03*
X744220Y748580D03*
X560070Y783040D03*
X560070Y746040D03*
X680720Y760010D03*
X680720Y797010D03*
D16*
X405680Y850900D03*
X442680Y850900D03*
X441410Y819150D03*
X404410Y819150D03*
X404410Y784860D03*
X441410Y784860D03*
D15*
X658100Y201930D03*
X688100Y201930D03*
D16*
X691600Y231140D03*
X654600Y231140D03*
D20*
X868510Y808990D03*
X942510Y808990D03*
D12*
X632460Y892810D03*
M02*
