G04 EAGLE Gerber RS-274X export*
G75*
%MOMM*%
%FSLAX34Y34*%
%LPD*%
%INSoldermask Top*%
%IPPOS*%
%AMOC8*
5,1,8,0,0,1.08239X$1,22.5*%
G01*
%ADD10P,11.043842X8X22.500000*%
%ADD11C,3.251200*%
%ADD12C,2.743200*%
%ADD13C,0.990600*%
%ADD14C,1.727200*%


D10*
X322580Y232410D03*
X1122680Y232410D03*
X1122680Y932180D03*
X322580Y932180D03*
D11*
X650520Y954900D02*
X681000Y954900D01*
X733020Y954900D02*
X763500Y954900D01*
X815520Y954900D02*
X846000Y954900D01*
X898070Y954900D02*
X928550Y954900D01*
X980620Y954900D02*
X1011100Y954900D01*
X465100Y954900D02*
X434620Y954900D01*
X517120Y954900D02*
X547600Y954900D01*
D12*
X1091580Y578500D03*
X855980Y756920D03*
X473710Y753110D03*
X655320Y878840D03*
D13*
X1111250Y513080D03*
X716280Y231140D03*
D12*
X1046480Y642620D03*
D14*
X526030Y797810D03*
D13*
X985520Y786130D03*
X905510Y786511D03*
X821690Y828040D03*
D14*
X425450Y843280D03*
D13*
X654050Y201930D03*
X590550Y203200D03*
X527050Y203200D03*
X461010Y203200D03*
X398780Y203200D03*
X848360Y201930D03*
X394970Y703580D03*
X419100Y673100D03*
X754380Y285390D03*
X378460Y726440D03*
X403860Y779729D03*
X492760Y777240D03*
X629920Y772160D03*
D14*
X701040Y782320D03*
D13*
X1069594Y391160D03*
X741680Y787400D03*
X384810Y712470D03*
X820420Y746760D03*
X1079500Y330200D03*
X787040Y883560D03*
X391541Y386080D03*
X858520Y731520D03*
X932180Y798830D03*
X1028700Y769620D03*
D14*
X1074420Y830580D03*
D13*
X1084580Y373380D03*
X1021080Y754380D03*
D12*
X1046480Y375920D03*
D13*
X1132840Y332740D03*
X1082040Y302260D03*
M02*
