G04 EAGLE Gerber RS-274X export*
G75*
%MOMM*%
%FSLAX34Y34*%
%LPD*%
%INSoldermask Bottom*%
%IPPOS*%
%AMOC8*
5,1,8,0,0,1.08239X$1,22.5*%
G01*
%ADD10P,11.043842X8X22.500000*%
%ADD11R,1.350200X2.611200*%
%ADD12R,4.013200X5.283200*%
%ADD13R,5.283200X4.013200*%
%ADD14R,3.957200X2.311200*%
%ADD15R,1.900000X1.400000*%
%ADD16R,1.500000X1.700000*%
%ADD17R,1.400000X1.900000*%
%ADD18R,4.648200X4.203200*%
%ADD19C,3.251200*%
%ADD20C,0.506591*%
%ADD21C,0.758316*%
%ADD22R,2.311200X3.957200*%
%ADD23C,2.743200*%
%ADD24C,0.990600*%
%ADD25C,1.727200*%


D10*
X322580Y232410D03*
X1122680Y232410D03*
X1122680Y932180D03*
X322580Y932180D03*
D11*
X774700Y273610D03*
X774700Y211530D03*
X800100Y273610D03*
X800100Y211530D03*
X825500Y273610D03*
X825500Y211530D03*
D12*
X332740Y363220D03*
D13*
X1003300Y213360D03*
D12*
X1121410Y557530D03*
D13*
X932180Y213360D03*
D14*
X365820Y807720D03*
X309820Y807720D03*
D15*
X1134110Y488400D03*
X1134110Y451400D03*
X1153160Y417280D03*
X1153160Y380280D03*
X1153160Y353780D03*
X1153160Y316780D03*
D16*
X698260Y203200D03*
X668260Y203200D03*
D17*
X701760Y231140D03*
X664760Y231140D03*
D18*
X1043140Y426500D03*
X1043140Y477500D03*
X1043140Y528500D03*
X1043140Y578500D03*
D19*
X681000Y954900D02*
X650520Y954900D01*
X733020Y954900D02*
X763500Y954900D01*
X815520Y954900D02*
X846000Y954900D01*
X898070Y954900D02*
X928550Y954900D01*
X980620Y954900D02*
X1011100Y954900D01*
X465100Y954900D02*
X434620Y954900D01*
X517120Y954900D02*
X547600Y954900D01*
D20*
X512503Y768933D02*
X503497Y768933D01*
X512503Y768933D02*
X512503Y740987D01*
X503497Y740987D01*
X503497Y768933D01*
X503497Y745800D02*
X512503Y745800D01*
X512503Y750613D02*
X503497Y750613D01*
X503497Y755426D02*
X512503Y755426D01*
X512503Y760239D02*
X503497Y760239D01*
X503497Y765052D02*
X512503Y765052D01*
D21*
X510515Y852925D02*
X459765Y852925D01*
X510515Y852925D02*
X510515Y793995D01*
X459765Y793995D01*
X459765Y852925D01*
X459765Y801199D02*
X510515Y801199D01*
X510515Y808403D02*
X459765Y808403D01*
X459765Y815607D02*
X510515Y815607D01*
X510515Y822811D02*
X459765Y822811D01*
X459765Y830015D02*
X510515Y830015D01*
X510515Y837219D02*
X459765Y837219D01*
X459765Y844423D02*
X510515Y844423D01*
X510515Y851627D02*
X459765Y851627D01*
D20*
X457777Y768933D02*
X466783Y768933D01*
X466783Y740987D01*
X457777Y740987D01*
X457777Y768933D01*
X457777Y745800D02*
X466783Y745800D01*
X466783Y750613D02*
X457777Y750613D01*
X457777Y755426D02*
X466783Y755426D01*
X466783Y760239D02*
X457777Y760239D01*
X457777Y765052D02*
X466783Y765052D01*
D15*
X403860Y864320D03*
X403860Y827320D03*
X403860Y795740D03*
X403860Y758740D03*
X538480Y829860D03*
X538480Y866860D03*
D17*
X523960Y904240D03*
X486960Y904240D03*
D15*
X431800Y818600D03*
X431800Y781600D03*
X541020Y743500D03*
X541020Y780500D03*
D13*
X444500Y896620D03*
D15*
X403860Y687620D03*
X403860Y724620D03*
X403860Y621580D03*
X403860Y658580D03*
X436880Y691600D03*
X436880Y654600D03*
D16*
X444260Y203200D03*
X414260Y203200D03*
D17*
X413300Y233680D03*
X450300Y233680D03*
D22*
X789940Y734000D03*
X789940Y790000D03*
D20*
X629343Y866827D02*
X620337Y866827D01*
X620337Y894773D01*
X629343Y894773D01*
X629343Y866827D01*
X629343Y871640D02*
X620337Y871640D01*
X620337Y876453D02*
X629343Y876453D01*
X629343Y881266D02*
X620337Y881266D01*
X620337Y886079D02*
X629343Y886079D01*
X629343Y890892D02*
X620337Y890892D01*
D21*
X622325Y782835D02*
X673075Y782835D01*
X622325Y782835D02*
X622325Y841765D01*
X673075Y841765D01*
X673075Y782835D01*
X673075Y790039D02*
X622325Y790039D01*
X622325Y797243D02*
X673075Y797243D01*
X673075Y804447D02*
X622325Y804447D01*
X622325Y811651D02*
X673075Y811651D01*
X673075Y818855D02*
X622325Y818855D01*
X622325Y826059D02*
X673075Y826059D01*
X673075Y833263D02*
X622325Y833263D01*
X622325Y840467D02*
X673075Y840467D01*
D20*
X675063Y866827D02*
X666057Y866827D01*
X666057Y894773D01*
X675063Y894773D01*
X675063Y866827D01*
X675063Y871640D02*
X666057Y871640D01*
X666057Y876453D02*
X675063Y876453D01*
X675063Y881266D02*
X666057Y881266D01*
X666057Y886079D02*
X675063Y886079D01*
X675063Y890892D02*
X666057Y890892D01*
D15*
X629920Y757640D03*
X629920Y720640D03*
X596900Y720640D03*
X596900Y757640D03*
D17*
X587460Y904240D03*
X550460Y904240D03*
D15*
X576580Y877020D03*
X576580Y840020D03*
X701040Y865420D03*
X701040Y902420D03*
X701040Y838920D03*
X701040Y801920D03*
D13*
X680720Y736600D03*
D15*
X731520Y770340D03*
X731520Y733340D03*
X731520Y838920D03*
X731520Y801920D03*
X731520Y902420D03*
X731520Y865420D03*
D16*
X507760Y203200D03*
X477760Y203200D03*
D17*
X476800Y233680D03*
X513800Y233680D03*
D22*
X1033780Y889060D03*
X1033780Y833060D03*
D20*
X893503Y779093D02*
X884497Y779093D01*
X893503Y779093D02*
X893503Y751147D01*
X884497Y751147D01*
X884497Y779093D01*
X884497Y755960D02*
X893503Y755960D01*
X893503Y760773D02*
X884497Y760773D01*
X884497Y765586D02*
X893503Y765586D01*
X893503Y770399D02*
X884497Y770399D01*
X884497Y775212D02*
X893503Y775212D01*
D21*
X891515Y863085D02*
X840765Y863085D01*
X891515Y863085D02*
X891515Y804155D01*
X840765Y804155D01*
X840765Y863085D01*
X840765Y811359D02*
X891515Y811359D01*
X891515Y818563D02*
X840765Y818563D01*
X840765Y825767D02*
X891515Y825767D01*
X891515Y832971D02*
X840765Y832971D01*
X840765Y840175D02*
X891515Y840175D01*
X891515Y847379D02*
X840765Y847379D01*
X840765Y854583D02*
X891515Y854583D01*
X891515Y861787D02*
X840765Y861787D01*
D20*
X838777Y779093D02*
X847783Y779093D01*
X847783Y751147D01*
X838777Y751147D01*
X838777Y779093D01*
X838777Y755960D02*
X847783Y755960D01*
X847783Y760773D02*
X838777Y760773D01*
X838777Y765586D02*
X847783Y765586D01*
X847783Y770399D02*
X838777Y770399D01*
X838777Y775212D02*
X847783Y775212D01*
D17*
X911140Y899160D03*
X948140Y899160D03*
D15*
X982980Y889720D03*
X982980Y852720D03*
X944880Y871940D03*
X944880Y834940D03*
X947420Y808440D03*
X947420Y771440D03*
D17*
X877020Y726440D03*
X840020Y726440D03*
D15*
X916940Y771440D03*
X916940Y808440D03*
D13*
X863600Y896620D03*
D15*
X805180Y865420D03*
X805180Y902420D03*
X767080Y865420D03*
X767080Y902420D03*
D17*
X805900Y830580D03*
X768900Y830580D03*
D16*
X571260Y203200D03*
X541260Y203200D03*
D17*
X540300Y231140D03*
X577300Y231140D03*
D22*
X1127760Y792420D03*
X1127760Y848420D03*
D20*
X1086543Y659713D02*
X1077537Y659713D01*
X1086543Y659713D02*
X1086543Y631767D01*
X1077537Y631767D01*
X1077537Y659713D01*
X1077537Y636580D02*
X1086543Y636580D01*
X1086543Y641393D02*
X1077537Y641393D01*
X1077537Y646206D02*
X1086543Y646206D01*
X1086543Y651019D02*
X1077537Y651019D01*
X1077537Y655832D02*
X1086543Y655832D01*
D21*
X1084555Y743705D02*
X1033805Y743705D01*
X1084555Y743705D02*
X1084555Y684775D01*
X1033805Y684775D01*
X1033805Y743705D01*
X1033805Y691979D02*
X1084555Y691979D01*
X1084555Y699183D02*
X1033805Y699183D01*
X1033805Y706387D02*
X1084555Y706387D01*
X1084555Y713591D02*
X1033805Y713591D01*
X1033805Y720795D02*
X1084555Y720795D01*
X1084555Y727999D02*
X1033805Y727999D01*
X1033805Y735203D02*
X1084555Y735203D01*
X1084555Y742407D02*
X1033805Y742407D01*
D20*
X1031817Y659713D02*
X1040823Y659713D01*
X1040823Y631767D01*
X1031817Y631767D01*
X1031817Y659713D01*
X1031817Y636580D02*
X1040823Y636580D01*
X1040823Y641393D02*
X1031817Y641393D01*
X1031817Y646206D02*
X1040823Y646206D01*
X1040823Y651019D02*
X1031817Y651019D01*
X1031817Y655832D02*
X1040823Y655832D01*
D15*
X1112520Y757640D03*
X1112520Y720640D03*
X1148080Y757640D03*
X1148080Y720640D03*
X1148080Y694140D03*
X1148080Y657140D03*
D17*
X1148800Y627380D03*
X1111800Y627380D03*
D15*
X1014730Y678900D03*
X1014730Y641900D03*
X1112520Y657140D03*
X1112520Y694140D03*
D13*
X1061720Y787400D03*
D15*
X1005840Y768900D03*
X1005840Y805900D03*
X1005840Y705400D03*
X1005840Y742400D03*
D17*
X936540Y723900D03*
X973540Y723900D03*
D16*
X634760Y203200D03*
X604760Y203200D03*
D17*
X601260Y231140D03*
X638260Y231140D03*
D23*
X1091580Y578500D03*
X855980Y756920D03*
X473710Y753110D03*
X655320Y878840D03*
D24*
X1111250Y513080D03*
X716280Y231140D03*
D23*
X1046480Y642620D03*
D25*
X526030Y797810D03*
D24*
X985520Y786130D03*
X905510Y786511D03*
X821690Y828040D03*
D25*
X425450Y843280D03*
D24*
X654050Y201930D03*
X590550Y203200D03*
X527050Y203200D03*
X461010Y203200D03*
X398780Y203200D03*
X848360Y201930D03*
X394970Y703580D03*
X419100Y673100D03*
X754380Y285390D03*
X378460Y726440D03*
X403860Y779729D03*
X492760Y777240D03*
X629920Y772160D03*
D25*
X701040Y782320D03*
D24*
X1069594Y391160D03*
X741680Y787400D03*
X384810Y712470D03*
X820420Y746760D03*
X1079500Y330200D03*
X787040Y883560D03*
X391541Y386080D03*
X858520Y731520D03*
X932180Y798830D03*
X1028700Y769620D03*
D25*
X1074420Y830580D03*
D24*
X1084580Y373380D03*
X1021080Y754380D03*
D23*
X1046480Y375920D03*
D24*
X1132840Y332740D03*
X1082040Y302260D03*
M02*
