G04 EAGLE Gerber RS-274X export*
G75*
%MOMM*%
%FSLAX34Y34*%
%LPD*%
%INTop Copper*%
%IPPOS*%
%AMOC8*
5,1,8,0,0,1.08239X$1,22.5*%
G01*
%ADD10C,3.048000*%
%ADD11C,2.540000*%

G36*
X990341Y83081D02*
X990341Y83081D01*
X990630Y83088D01*
X990730Y83100D01*
X990832Y83106D01*
X991118Y83150D01*
X991404Y83186D01*
X991503Y83210D01*
X991603Y83225D01*
X991883Y83298D01*
X992164Y83364D01*
X992260Y83397D01*
X992358Y83423D01*
X992629Y83524D01*
X992902Y83618D01*
X992994Y83661D01*
X993089Y83697D01*
X993348Y83826D01*
X993610Y83947D01*
X993697Y83999D01*
X993788Y84044D01*
X994032Y84199D01*
X994280Y84346D01*
X994362Y84407D01*
X994448Y84461D01*
X994675Y84640D01*
X994907Y84812D01*
X994982Y84881D01*
X995062Y84944D01*
X995269Y85144D01*
X995482Y85339D01*
X995549Y85415D01*
X995623Y85486D01*
X995809Y85707D01*
X996000Y85923D01*
X996060Y86005D01*
X996125Y86083D01*
X996288Y86322D01*
X996456Y86556D01*
X996507Y86644D01*
X996564Y86728D01*
X996701Y86983D01*
X996845Y87233D01*
X996886Y87326D01*
X996935Y87415D01*
X997045Y87682D01*
X997163Y87946D01*
X997194Y88043D01*
X997233Y88137D01*
X997316Y88413D01*
X997406Y88688D01*
X997427Y88787D01*
X997456Y88884D01*
X997510Y89168D01*
X997571Y89450D01*
X997583Y89551D01*
X997602Y89651D01*
X997626Y89939D01*
X997658Y90226D01*
X997659Y90328D01*
X997668Y90429D01*
X997663Y90717D01*
X997665Y91006D01*
X997656Y91108D01*
X997654Y91209D01*
X997619Y91496D01*
X997592Y91783D01*
X997573Y91883D01*
X997560Y91984D01*
X997497Y92265D01*
X997440Y92549D01*
X997411Y92646D01*
X997388Y92745D01*
X997296Y93019D01*
X997211Y93295D01*
X997171Y93389D01*
X997139Y93485D01*
X997019Y93748D01*
X996906Y94014D01*
X996858Y94102D01*
X996815Y94195D01*
X996669Y94445D01*
X996530Y94697D01*
X996472Y94781D01*
X996421Y94869D01*
X996250Y95102D01*
X996086Y95339D01*
X996019Y95416D01*
X995959Y95498D01*
X995766Y95712D01*
X995578Y95932D01*
X995483Y96025D01*
X995436Y96077D01*
X995367Y96139D01*
X995226Y96277D01*
X990986Y104114D01*
X989520Y112900D01*
X990986Y121686D01*
X995226Y129521D01*
X1001779Y135554D01*
X1009937Y139132D01*
X1018815Y139868D01*
X1027450Y137681D01*
X1034628Y132992D01*
X1034735Y132929D01*
X1034839Y132859D01*
X1035073Y132732D01*
X1035302Y132599D01*
X1035415Y132548D01*
X1035525Y132488D01*
X1035771Y132387D01*
X1036013Y132277D01*
X1036131Y132238D01*
X1036247Y132190D01*
X1036502Y132114D01*
X1036753Y132030D01*
X1036875Y132003D01*
X1036995Y131967D01*
X1037256Y131917D01*
X1037515Y131859D01*
X1037639Y131845D01*
X1037761Y131822D01*
X1038026Y131799D01*
X1038290Y131768D01*
X1038415Y131766D01*
X1038539Y131755D01*
X1038804Y131760D01*
X1039070Y131756D01*
X1039195Y131767D01*
X1039319Y131769D01*
X1039583Y131801D01*
X1039848Y131824D01*
X1039971Y131848D01*
X1040094Y131863D01*
X1040353Y131921D01*
X1040614Y131971D01*
X1040734Y132007D01*
X1040855Y132035D01*
X1041107Y132120D01*
X1041362Y132196D01*
X1041477Y132244D01*
X1041595Y132284D01*
X1041837Y132394D01*
X1042082Y132497D01*
X1042192Y132556D01*
X1042305Y132608D01*
X1042535Y132742D01*
X1042768Y132869D01*
X1042871Y132939D01*
X1042979Y133002D01*
X1043193Y133160D01*
X1043412Y133310D01*
X1043508Y133390D01*
X1043608Y133464D01*
X1043805Y133642D01*
X1044008Y133814D01*
X1044095Y133904D01*
X1044187Y133987D01*
X1044365Y134185D01*
X1044549Y134376D01*
X1044626Y134474D01*
X1044710Y134567D01*
X1044866Y134781D01*
X1045030Y134991D01*
X1045096Y135097D01*
X1045170Y135197D01*
X1045304Y135427D01*
X1045445Y135652D01*
X1045500Y135764D01*
X1045563Y135871D01*
X1045673Y136114D01*
X1045791Y136352D01*
X1045834Y136468D01*
X1045886Y136582D01*
X1045970Y136834D01*
X1046063Y137083D01*
X1046094Y137204D01*
X1046134Y137322D01*
X1046192Y137581D01*
X1046259Y137839D01*
X1046278Y137962D01*
X1046305Y138084D01*
X1046336Y138347D01*
X1046376Y138610D01*
X1046382Y138735D01*
X1046397Y138859D01*
X1046414Y139370D01*
X1046414Y546430D01*
X1046408Y546554D01*
X1046410Y546679D01*
X1046388Y546944D01*
X1046374Y547209D01*
X1046355Y547332D01*
X1046345Y547457D01*
X1046296Y547718D01*
X1046255Y547980D01*
X1046223Y548101D01*
X1046200Y548224D01*
X1046124Y548478D01*
X1046057Y548735D01*
X1046013Y548852D01*
X1045978Y548972D01*
X1045876Y549217D01*
X1045783Y549466D01*
X1045728Y549578D01*
X1045680Y549693D01*
X1045554Y549927D01*
X1045436Y550165D01*
X1045369Y550271D01*
X1045310Y550380D01*
X1045161Y550600D01*
X1045019Y550825D01*
X1044942Y550923D01*
X1044872Y551026D01*
X1044701Y551229D01*
X1044536Y551439D01*
X1044450Y551528D01*
X1044370Y551624D01*
X1044179Y551808D01*
X1043994Y552000D01*
X1043898Y552080D01*
X1043809Y552167D01*
X1043600Y552331D01*
X1043397Y552502D01*
X1043294Y552572D01*
X1043196Y552650D01*
X1042971Y552792D01*
X1042752Y552941D01*
X1042642Y553000D01*
X1042536Y553067D01*
X1042299Y553186D01*
X1042065Y553312D01*
X1041949Y553359D01*
X1041838Y553415D01*
X1041589Y553508D01*
X1041343Y553610D01*
X1041224Y553646D01*
X1041107Y553690D01*
X1040850Y553757D01*
X1040596Y553833D01*
X1040473Y553856D01*
X1040352Y553888D01*
X1040090Y553929D01*
X1039829Y553978D01*
X1039705Y553989D01*
X1039581Y554008D01*
X1039315Y554022D01*
X1039051Y554045D01*
X1038927Y554042D01*
X1038802Y554049D01*
X1038536Y554036D01*
X1038271Y554031D01*
X1038147Y554016D01*
X1038022Y554010D01*
X1037759Y553969D01*
X1037496Y553937D01*
X1037374Y553910D01*
X1037251Y553891D01*
X1036994Y553824D01*
X1036735Y553765D01*
X1036616Y553725D01*
X1036496Y553694D01*
X1036247Y553601D01*
X1035995Y553516D01*
X1035881Y553464D01*
X1035765Y553420D01*
X1035527Y553303D01*
X1035285Y553192D01*
X1035177Y553129D01*
X1035065Y553074D01*
X1034628Y552808D01*
X1027450Y548119D01*
X1018815Y545932D01*
X1009937Y546668D01*
X1001779Y550246D01*
X995226Y556279D01*
X990986Y564114D01*
X989520Y572900D01*
X990986Y581686D01*
X995227Y589524D01*
X995415Y589715D01*
X995623Y589916D01*
X995688Y589994D01*
X995759Y590067D01*
X995939Y590292D01*
X996125Y590513D01*
X996183Y590597D01*
X996246Y590677D01*
X996401Y590919D01*
X996564Y591159D01*
X996613Y591248D01*
X996667Y591334D01*
X996797Y591591D01*
X996935Y591845D01*
X996974Y591940D01*
X997020Y592030D01*
X997123Y592299D01*
X997233Y592567D01*
X997262Y592664D01*
X997299Y592759D01*
X997374Y593038D01*
X997456Y593315D01*
X997475Y593415D01*
X997502Y593513D01*
X997548Y593798D01*
X997602Y594081D01*
X997610Y594183D01*
X997626Y594283D01*
X997643Y594572D01*
X997668Y594859D01*
X997666Y594961D01*
X997672Y595062D01*
X997659Y595351D01*
X997654Y595639D01*
X997642Y595740D01*
X997637Y595842D01*
X997595Y596128D01*
X997560Y596414D01*
X997538Y596513D01*
X997523Y596614D01*
X997452Y596894D01*
X997388Y597175D01*
X997356Y597272D01*
X997331Y597370D01*
X997231Y597642D01*
X997139Y597915D01*
X997097Y598008D01*
X997062Y598103D01*
X996935Y598362D01*
X996815Y598625D01*
X996764Y598713D01*
X996719Y598804D01*
X996567Y599050D01*
X996421Y599299D01*
X996361Y599381D01*
X996307Y599467D01*
X996130Y599695D01*
X995959Y599928D01*
X995891Y600004D01*
X995829Y600084D01*
X995629Y600293D01*
X995436Y600507D01*
X995360Y600575D01*
X995290Y600649D01*
X995070Y600837D01*
X994856Y601030D01*
X994774Y601089D01*
X994696Y601156D01*
X994458Y601320D01*
X994226Y601490D01*
X994138Y601541D01*
X994054Y601599D01*
X993801Y601738D01*
X993552Y601883D01*
X993459Y601925D01*
X993370Y601974D01*
X993104Y602086D01*
X992841Y602206D01*
X992744Y602238D01*
X992651Y602278D01*
X992374Y602362D01*
X992101Y602454D01*
X992002Y602476D01*
X991904Y602506D01*
X991621Y602562D01*
X991339Y602625D01*
X991238Y602637D01*
X991139Y602656D01*
X990851Y602683D01*
X990564Y602717D01*
X990432Y602721D01*
X990361Y602728D01*
X990268Y602727D01*
X990053Y602734D01*
X162768Y602734D01*
X162719Y602732D01*
X162669Y602734D01*
X162328Y602712D01*
X161988Y602694D01*
X161940Y602687D01*
X161891Y602684D01*
X161554Y602627D01*
X161217Y602575D01*
X161169Y602562D01*
X161121Y602554D01*
X160793Y602464D01*
X160462Y602377D01*
X160416Y602360D01*
X160368Y602347D01*
X160051Y602223D01*
X159731Y602103D01*
X159687Y602081D01*
X159641Y602063D01*
X159338Y601908D01*
X159032Y601756D01*
X158991Y601729D01*
X158947Y601707D01*
X158661Y601521D01*
X158373Y601339D01*
X158334Y601308D01*
X158293Y601282D01*
X158027Y601067D01*
X157759Y600856D01*
X157723Y600822D01*
X157685Y600791D01*
X157444Y600552D01*
X157198Y600314D01*
X157166Y600276D01*
X157131Y600242D01*
X156916Y599979D01*
X156695Y599717D01*
X156667Y599676D01*
X156636Y599638D01*
X156449Y599354D01*
X156256Y599072D01*
X156233Y599028D01*
X156206Y598987D01*
X156048Y598685D01*
X155886Y598385D01*
X155867Y598339D01*
X155844Y598296D01*
X155718Y597979D01*
X155587Y597663D01*
X155573Y597616D01*
X155555Y597571D01*
X155462Y597243D01*
X155364Y596916D01*
X155355Y596867D01*
X155342Y596820D01*
X155282Y596483D01*
X155219Y596149D01*
X155215Y596100D01*
X155206Y596051D01*
X155182Y595710D01*
X155153Y595371D01*
X155154Y595322D01*
X155150Y595273D01*
X155161Y594931D01*
X155167Y594591D01*
X155172Y594542D01*
X155174Y594493D01*
X155219Y594154D01*
X155260Y593816D01*
X155271Y593768D01*
X155277Y593719D01*
X155357Y593387D01*
X155432Y593055D01*
X155448Y593008D01*
X155460Y592960D01*
X155573Y592638D01*
X155682Y592315D01*
X155702Y592270D01*
X155718Y592224D01*
X155864Y591915D01*
X156005Y591605D01*
X156030Y591562D01*
X156051Y591518D01*
X156227Y591226D01*
X156400Y590931D01*
X156429Y590892D01*
X156454Y590850D01*
X156755Y590435D01*
X160379Y585779D01*
X163271Y577354D01*
X163271Y568446D01*
X160379Y560021D01*
X154907Y552991D01*
X147450Y548119D01*
X138815Y545932D01*
X129937Y546668D01*
X121779Y550246D01*
X119525Y552321D01*
X119247Y552552D01*
X118967Y552788D01*
X118945Y552803D01*
X118925Y552819D01*
X118624Y553021D01*
X118321Y553227D01*
X118298Y553239D01*
X118276Y553254D01*
X117955Y553425D01*
X117635Y553597D01*
X117610Y553607D01*
X117587Y553620D01*
X117250Y553757D01*
X116913Y553896D01*
X116888Y553903D01*
X116864Y553913D01*
X116517Y554014D01*
X116165Y554119D01*
X116139Y554124D01*
X116114Y554131D01*
X115758Y554196D01*
X115399Y554264D01*
X115372Y554266D01*
X115347Y554271D01*
X114983Y554299D01*
X114621Y554330D01*
X114595Y554330D01*
X114568Y554332D01*
X114203Y554323D01*
X113841Y554316D01*
X113815Y554313D01*
X113788Y554313D01*
X113426Y554266D01*
X113066Y554223D01*
X113040Y554217D01*
X113014Y554214D01*
X112659Y554131D01*
X112305Y554051D01*
X112280Y554042D01*
X112254Y554036D01*
X111910Y553918D01*
X111565Y553801D01*
X111541Y553790D01*
X111516Y553782D01*
X111188Y553630D01*
X110855Y553478D01*
X110832Y553464D01*
X110808Y553453D01*
X110497Y553268D01*
X110181Y553083D01*
X110160Y553068D01*
X110138Y553054D01*
X109846Y552838D01*
X109552Y552622D01*
X109532Y552604D01*
X109511Y552588D01*
X109244Y552343D01*
X108973Y552098D01*
X108955Y552079D01*
X108936Y552061D01*
X108695Y551790D01*
X108450Y551519D01*
X108435Y551497D01*
X108418Y551478D01*
X108204Y551181D01*
X107990Y550888D01*
X107977Y550866D01*
X107962Y550844D01*
X107780Y550528D01*
X107597Y550214D01*
X107586Y550190D01*
X107573Y550168D01*
X107424Y549834D01*
X107274Y549504D01*
X107266Y549479D01*
X107255Y549455D01*
X107142Y549108D01*
X107026Y548764D01*
X107020Y548738D01*
X107012Y548713D01*
X106935Y548358D01*
X106855Y548002D01*
X106852Y547976D01*
X106846Y547950D01*
X106806Y547587D01*
X106763Y547227D01*
X106762Y547195D01*
X106760Y547175D01*
X106759Y547109D01*
X106746Y546715D01*
X106746Y139085D01*
X106764Y138720D01*
X106781Y138358D01*
X106784Y138332D01*
X106786Y138305D01*
X106842Y137944D01*
X106895Y137585D01*
X106901Y137560D01*
X106905Y137534D01*
X106998Y137180D01*
X107087Y136829D01*
X107096Y136804D01*
X107103Y136779D01*
X107231Y136437D01*
X107356Y136096D01*
X107368Y136073D01*
X107377Y136048D01*
X107540Y135721D01*
X107699Y135395D01*
X107713Y135373D01*
X107724Y135349D01*
X107918Y135042D01*
X108111Y134732D01*
X108127Y134712D01*
X108141Y134689D01*
X108366Y134403D01*
X108589Y134116D01*
X108607Y134097D01*
X108624Y134076D01*
X108877Y133814D01*
X109128Y133551D01*
X109148Y133534D01*
X109166Y133515D01*
X109445Y133280D01*
X109721Y133044D01*
X109743Y133029D01*
X109763Y133012D01*
X110065Y132807D01*
X110364Y132601D01*
X110387Y132588D01*
X110408Y132573D01*
X110730Y132400D01*
X111048Y132225D01*
X111072Y132215D01*
X111095Y132203D01*
X111433Y132063D01*
X111767Y131922D01*
X111792Y131914D01*
X111817Y131904D01*
X112167Y131800D01*
X112514Y131694D01*
X112539Y131689D01*
X112564Y131681D01*
X112923Y131613D01*
X113279Y131543D01*
X113305Y131541D01*
X113331Y131536D01*
X113694Y131505D01*
X114056Y131472D01*
X114083Y131472D01*
X114109Y131470D01*
X114472Y131476D01*
X114837Y131480D01*
X114863Y131483D01*
X114889Y131484D01*
X115250Y131527D01*
X115612Y131568D01*
X115638Y131574D01*
X115664Y131577D01*
X116018Y131657D01*
X116375Y131735D01*
X116400Y131744D01*
X116425Y131749D01*
X116769Y131865D01*
X117116Y131979D01*
X117140Y131990D01*
X117165Y131999D01*
X117496Y132150D01*
X117829Y132298D01*
X117851Y132311D01*
X117875Y132322D01*
X118190Y132507D01*
X118505Y132688D01*
X118526Y132703D01*
X118549Y132717D01*
X118842Y132932D01*
X119137Y133145D01*
X119162Y133166D01*
X119178Y133178D01*
X119226Y133221D01*
X119525Y133479D01*
X121779Y135554D01*
X129937Y139132D01*
X138815Y139868D01*
X147450Y137681D01*
X154907Y132809D01*
X160379Y125779D01*
X163271Y117354D01*
X163271Y108446D01*
X160379Y100021D01*
X156755Y95365D01*
X156727Y95324D01*
X156695Y95287D01*
X156503Y95004D01*
X156308Y94725D01*
X156284Y94682D01*
X156256Y94641D01*
X156094Y94341D01*
X155928Y94043D01*
X155909Y93998D01*
X155886Y93955D01*
X155755Y93640D01*
X155621Y93326D01*
X155606Y93279D01*
X155587Y93233D01*
X155490Y92906D01*
X155388Y92581D01*
X155378Y92533D01*
X155364Y92485D01*
X155301Y92150D01*
X155233Y91816D01*
X155228Y91767D01*
X155219Y91719D01*
X155190Y91379D01*
X155157Y91039D01*
X155157Y90990D01*
X155153Y90941D01*
X155159Y90600D01*
X155160Y90259D01*
X155166Y90210D01*
X155167Y90161D01*
X155207Y89822D01*
X155244Y89483D01*
X155254Y89435D01*
X155260Y89386D01*
X155335Y89053D01*
X155406Y88719D01*
X155421Y88673D01*
X155432Y88625D01*
X155541Y88301D01*
X155646Y87977D01*
X155666Y87932D01*
X155682Y87885D01*
X155823Y87574D01*
X155961Y87262D01*
X155985Y87220D01*
X156005Y87175D01*
X156179Y86879D01*
X156346Y86584D01*
X156375Y86544D01*
X156400Y86501D01*
X156602Y86226D01*
X156800Y85949D01*
X156832Y85912D01*
X156861Y85872D01*
X157090Y85619D01*
X157315Y85363D01*
X157352Y85329D01*
X157385Y85293D01*
X157638Y85065D01*
X157888Y84833D01*
X157928Y84803D01*
X157964Y84770D01*
X158240Y84569D01*
X158513Y84365D01*
X158555Y84339D01*
X158595Y84310D01*
X158890Y84138D01*
X159182Y83962D01*
X159226Y83942D01*
X159269Y83917D01*
X159581Y83775D01*
X159888Y83631D01*
X159934Y83615D01*
X159979Y83594D01*
X160304Y83485D01*
X160625Y83373D01*
X160673Y83362D01*
X160720Y83346D01*
X161052Y83272D01*
X161384Y83192D01*
X161433Y83186D01*
X161481Y83175D01*
X161818Y83135D01*
X162158Y83090D01*
X162207Y83089D01*
X162256Y83083D01*
X162768Y83066D01*
X990053Y83066D01*
X990341Y83081D01*
G37*
%LPC*%
G36*
X259016Y133209D02*
X259016Y133209D01*
X255280Y134757D01*
X252420Y137617D01*
X250872Y141353D01*
X250872Y215590D01*
X250859Y215852D01*
X250854Y216114D01*
X250839Y216241D01*
X250832Y216369D01*
X250792Y216629D01*
X250761Y216889D01*
X250732Y217014D01*
X250713Y217141D01*
X250646Y217395D01*
X250588Y217650D01*
X250547Y217772D01*
X250515Y217896D01*
X250423Y218142D01*
X250339Y218390D01*
X250286Y218507D01*
X250241Y218627D01*
X250124Y218861D01*
X250016Y219100D01*
X249951Y219211D01*
X249894Y219325D01*
X249754Y219547D01*
X249621Y219774D01*
X249545Y219877D01*
X249477Y219985D01*
X249315Y220192D01*
X249160Y220403D01*
X249074Y220498D01*
X248994Y220599D01*
X248812Y220788D01*
X248636Y220982D01*
X248541Y221068D01*
X248452Y221160D01*
X248251Y221329D01*
X248056Y221505D01*
X247953Y221580D01*
X247855Y221663D01*
X247638Y221810D01*
X247426Y221965D01*
X247316Y222029D01*
X247210Y222101D01*
X246978Y222226D01*
X246752Y222358D01*
X246635Y222411D01*
X246523Y222472D01*
X246280Y222572D01*
X246041Y222681D01*
X245920Y222721D01*
X245801Y222770D01*
X245550Y222846D01*
X245301Y222929D01*
X245176Y222957D01*
X245054Y222993D01*
X244795Y223042D01*
X244540Y223100D01*
X244413Y223115D01*
X244287Y223139D01*
X244025Y223161D01*
X243765Y223192D01*
X243593Y223198D01*
X243509Y223205D01*
X243425Y223203D01*
X243253Y223209D01*
X216016Y223209D01*
X212280Y224757D01*
X209420Y227617D01*
X207872Y231353D01*
X207872Y453397D01*
X209420Y457133D01*
X212280Y459993D01*
X216016Y461541D01*
X243253Y461541D01*
X243515Y461554D01*
X243777Y461559D01*
X243904Y461574D01*
X244032Y461581D01*
X244292Y461621D01*
X244552Y461652D01*
X244677Y461681D01*
X244804Y461700D01*
X245058Y461767D01*
X245313Y461825D01*
X245435Y461866D01*
X245559Y461898D01*
X245805Y461990D01*
X246053Y462074D01*
X246170Y462127D01*
X246290Y462172D01*
X246524Y462289D01*
X246763Y462397D01*
X246874Y462462D01*
X246988Y462519D01*
X247210Y462659D01*
X247437Y462792D01*
X247540Y462868D01*
X247648Y462936D01*
X247855Y463098D01*
X248066Y463253D01*
X248161Y463339D01*
X248262Y463419D01*
X248451Y463601D01*
X248645Y463777D01*
X248731Y463872D01*
X248823Y463961D01*
X248992Y464162D01*
X249168Y464357D01*
X249243Y464460D01*
X249326Y464558D01*
X249473Y464775D01*
X249628Y464987D01*
X249692Y465097D01*
X249764Y465203D01*
X249889Y465435D01*
X250021Y465661D01*
X250074Y465778D01*
X250135Y465890D01*
X250235Y466133D01*
X250344Y466372D01*
X250384Y466493D01*
X250433Y466612D01*
X250509Y466863D01*
X250592Y467112D01*
X250620Y467237D01*
X250656Y467359D01*
X250705Y467618D01*
X250763Y467873D01*
X250778Y468000D01*
X250802Y468126D01*
X250824Y468388D01*
X250855Y468648D01*
X250861Y468820D01*
X250868Y468904D01*
X250866Y468988D01*
X250872Y469160D01*
X250872Y543397D01*
X252420Y547133D01*
X255280Y549993D01*
X259016Y551541D01*
X782060Y551541D01*
X785796Y549993D01*
X788656Y547133D01*
X790204Y543397D01*
X790204Y459160D01*
X790217Y458898D01*
X790222Y458636D01*
X790237Y458509D01*
X790244Y458381D01*
X790284Y458121D01*
X790315Y457861D01*
X790344Y457736D01*
X790363Y457609D01*
X790430Y457355D01*
X790488Y457100D01*
X790529Y456978D01*
X790561Y456854D01*
X790653Y456608D01*
X790737Y456360D01*
X790790Y456243D01*
X790835Y456123D01*
X790952Y455889D01*
X791060Y455650D01*
X791125Y455539D01*
X791182Y455425D01*
X791322Y455203D01*
X791455Y454976D01*
X791531Y454873D01*
X791599Y454765D01*
X791761Y454558D01*
X791916Y454347D01*
X792002Y454252D01*
X792082Y454151D01*
X792264Y453962D01*
X792440Y453768D01*
X792535Y453682D01*
X792624Y453590D01*
X792825Y453421D01*
X793020Y453245D01*
X793123Y453170D01*
X793221Y453087D01*
X793438Y452940D01*
X793650Y452785D01*
X793760Y452721D01*
X793866Y452649D01*
X794098Y452524D01*
X794324Y452392D01*
X794441Y452339D01*
X794553Y452278D01*
X794796Y452178D01*
X795035Y452069D01*
X795156Y452029D01*
X795275Y451980D01*
X795526Y451904D01*
X795775Y451821D01*
X795900Y451793D01*
X796022Y451757D01*
X796281Y451708D01*
X796536Y451650D01*
X796663Y451635D01*
X796789Y451611D01*
X797051Y451589D01*
X797311Y451558D01*
X797483Y451552D01*
X797567Y451545D01*
X797651Y451547D01*
X797823Y451541D01*
X847060Y451541D01*
X850796Y449993D01*
X853656Y447133D01*
X855204Y443397D01*
X855204Y241353D01*
X853656Y237617D01*
X850796Y234757D01*
X847060Y233209D01*
X797823Y233209D01*
X797561Y233196D01*
X797299Y233191D01*
X797172Y233176D01*
X797044Y233169D01*
X796784Y233129D01*
X796524Y233098D01*
X796399Y233069D01*
X796272Y233050D01*
X796018Y232983D01*
X795763Y232925D01*
X795641Y232884D01*
X795517Y232852D01*
X795272Y232760D01*
X795023Y232676D01*
X794907Y232623D01*
X794787Y232578D01*
X794552Y232461D01*
X794313Y232353D01*
X794202Y232288D01*
X794088Y232231D01*
X793866Y232091D01*
X793639Y231958D01*
X793536Y231882D01*
X793428Y231814D01*
X793221Y231652D01*
X793010Y231497D01*
X792915Y231411D01*
X792814Y231331D01*
X792626Y231149D01*
X792431Y230973D01*
X792345Y230878D01*
X792253Y230789D01*
X792084Y230588D01*
X791909Y230393D01*
X791833Y230290D01*
X791751Y230192D01*
X791603Y229975D01*
X791448Y229763D01*
X791384Y229653D01*
X791312Y229547D01*
X791187Y229315D01*
X791055Y229089D01*
X791002Y228972D01*
X790941Y228860D01*
X790841Y228617D01*
X790732Y228378D01*
X790692Y228257D01*
X790643Y228138D01*
X790568Y227887D01*
X790484Y227638D01*
X790456Y227513D01*
X790420Y227391D01*
X790371Y227132D01*
X790313Y226877D01*
X790298Y226750D01*
X790274Y226624D01*
X790252Y226362D01*
X790221Y226102D01*
X790215Y225930D01*
X790208Y225846D01*
X790210Y225762D01*
X790204Y225590D01*
X790204Y141353D01*
X788656Y137617D01*
X785797Y134757D01*
X782060Y133209D01*
X259016Y133209D01*
G37*
%LPD*%
%LPC*%
G36*
X933863Y353239D02*
X933863Y353239D01*
X927328Y355946D01*
X922326Y360948D01*
X919619Y367483D01*
X919619Y405037D01*
X922326Y411572D01*
X927328Y416574D01*
X933863Y419281D01*
X940937Y419281D01*
X947472Y416574D01*
X952474Y411572D01*
X955181Y405037D01*
X955181Y367483D01*
X952474Y360948D01*
X947472Y355946D01*
X940937Y353239D01*
X933863Y353239D01*
G37*
%LPD*%
%LPC*%
G36*
X933863Y188239D02*
X933863Y188239D01*
X927328Y190946D01*
X922326Y195948D01*
X919619Y202483D01*
X919619Y240037D01*
X922326Y246572D01*
X927328Y251574D01*
X933863Y254281D01*
X940937Y254281D01*
X947472Y251574D01*
X952474Y246572D01*
X955181Y240037D01*
X955181Y202483D01*
X952474Y195948D01*
X947472Y190946D01*
X940937Y188239D01*
X933863Y188239D01*
G37*
%LPD*%
%LPC*%
G36*
X945019Y311379D02*
X945019Y311379D01*
X945019Y335066D01*
X946015Y334587D01*
X947705Y333524D01*
X949267Y332279D01*
X950679Y330867D01*
X951924Y329305D01*
X952987Y327615D01*
X953853Y325815D01*
X954513Y323930D01*
X954957Y321983D01*
X955181Y319999D01*
X955181Y311379D01*
X945019Y311379D01*
G37*
%LPD*%
%LPC*%
G36*
X945019Y476429D02*
X945019Y476429D01*
X945019Y500116D01*
X946015Y499637D01*
X947705Y498574D01*
X949267Y497329D01*
X950679Y495917D01*
X951924Y494355D01*
X952987Y492665D01*
X953853Y490865D01*
X954513Y488980D01*
X954957Y487033D01*
X955181Y485049D01*
X955181Y476429D01*
X945019Y476429D01*
G37*
%LPD*%
%LPC*%
G36*
X945019Y296141D02*
X945019Y296141D01*
X955181Y296141D01*
X955181Y287521D01*
X954957Y285537D01*
X954513Y283590D01*
X953853Y281705D01*
X952987Y279905D01*
X951924Y278215D01*
X950679Y276653D01*
X949267Y275241D01*
X947705Y273996D01*
X946015Y272933D01*
X945019Y272454D01*
X945019Y296141D01*
G37*
%LPD*%
%LPC*%
G36*
X945019Y461191D02*
X945019Y461191D01*
X955181Y461191D01*
X955181Y452571D01*
X954957Y450587D01*
X954513Y448640D01*
X953853Y446755D01*
X952987Y444955D01*
X951924Y443265D01*
X950679Y441703D01*
X949267Y440291D01*
X947705Y439046D01*
X946015Y437983D01*
X945019Y437504D01*
X945019Y461191D01*
G37*
%LPD*%
%LPC*%
G36*
X919619Y476429D02*
X919619Y476429D01*
X919619Y485049D01*
X919843Y487033D01*
X920287Y488980D01*
X920947Y490865D01*
X921813Y492665D01*
X922876Y494355D01*
X924121Y495917D01*
X925533Y497329D01*
X927095Y498574D01*
X928785Y499637D01*
X929781Y500116D01*
X929781Y476429D01*
X919619Y476429D01*
G37*
%LPD*%
%LPC*%
G36*
X919619Y311379D02*
X919619Y311379D01*
X919619Y319999D01*
X919843Y321983D01*
X920287Y323930D01*
X920947Y325815D01*
X921813Y327615D01*
X922876Y329305D01*
X924121Y330867D01*
X925533Y332279D01*
X927095Y333524D01*
X928785Y334587D01*
X929781Y335066D01*
X929781Y311379D01*
X919619Y311379D01*
G37*
%LPD*%
%LPC*%
G36*
X928785Y272933D02*
X928785Y272933D01*
X927095Y273996D01*
X925533Y275241D01*
X924121Y276653D01*
X922876Y278215D01*
X921813Y279905D01*
X920947Y281705D01*
X920287Y283590D01*
X919843Y285537D01*
X919619Y287521D01*
X919619Y296141D01*
X929781Y296141D01*
X929781Y272454D01*
X928785Y272933D01*
G37*
%LPD*%
%LPC*%
G36*
X928785Y437983D02*
X928785Y437983D01*
X927095Y439046D01*
X925533Y440291D01*
X924121Y441703D01*
X922876Y443265D01*
X921813Y444955D01*
X920947Y446755D01*
X920287Y448640D01*
X919843Y450587D01*
X919619Y452571D01*
X919619Y461191D01*
X929781Y461191D01*
X929781Y437504D01*
X928785Y437983D01*
G37*
%LPD*%
D10*
X937400Y236500D02*
X937400Y206020D01*
X937400Y288520D02*
X937400Y319000D01*
X937400Y371020D02*
X937400Y401500D01*
X937400Y453570D02*
X937400Y484050D01*
D11*
X139700Y368300D03*
X139700Y317500D03*
M02*
