G04 EAGLE Gerber RS-274X export*
G75*
%MOMM*%
%FSLAX34Y34*%
%LPD*%
%INSilkscreen Bottom*%
%IPPOS*%
%AMOC8*
5,1,8,0,0,1.08239X$1,22.5*%
G01*
%ADD10C,0.304800*%
%ADD11C,0.508000*%


D10*
X1006292Y480427D02*
X1006292Y477972D01*
X1014476Y477972D01*
X1014476Y482882D01*
X1014474Y482994D01*
X1014468Y483105D01*
X1014459Y483217D01*
X1014446Y483328D01*
X1014428Y483438D01*
X1014408Y483548D01*
X1014383Y483657D01*
X1014355Y483765D01*
X1014323Y483872D01*
X1014287Y483978D01*
X1014248Y484083D01*
X1014205Y484186D01*
X1014159Y484288D01*
X1014109Y484388D01*
X1014056Y484487D01*
X1013999Y484583D01*
X1013940Y484678D01*
X1013877Y484770D01*
X1013811Y484860D01*
X1013742Y484948D01*
X1013670Y485034D01*
X1013595Y485117D01*
X1013517Y485197D01*
X1013437Y485275D01*
X1013354Y485350D01*
X1013268Y485422D01*
X1013180Y485491D01*
X1013090Y485557D01*
X1012998Y485620D01*
X1012903Y485679D01*
X1012807Y485736D01*
X1012708Y485789D01*
X1012608Y485839D01*
X1012506Y485885D01*
X1012403Y485928D01*
X1012298Y485967D01*
X1012192Y486003D01*
X1012085Y486035D01*
X1011977Y486063D01*
X1011868Y486088D01*
X1011758Y486108D01*
X1011648Y486126D01*
X1011537Y486139D01*
X1011425Y486148D01*
X1011314Y486154D01*
X1011202Y486156D01*
X1003018Y486156D01*
X1002904Y486154D01*
X1002790Y486148D01*
X1002676Y486138D01*
X1002562Y486124D01*
X1002449Y486106D01*
X1002337Y486084D01*
X1002226Y486059D01*
X1002116Y486029D01*
X1002006Y485996D01*
X1001898Y485959D01*
X1001792Y485918D01*
X1001686Y485873D01*
X1001583Y485825D01*
X1001481Y485773D01*
X1001381Y485717D01*
X1001283Y485659D01*
X1001187Y485596D01*
X1001094Y485531D01*
X1001002Y485462D01*
X1000914Y485390D01*
X1000827Y485315D01*
X1000744Y485237D01*
X1000663Y485156D01*
X1000585Y485073D01*
X1000510Y484987D01*
X1000438Y484898D01*
X1000369Y484806D01*
X1000304Y484713D01*
X1000242Y484617D01*
X1000183Y484519D01*
X1000127Y484419D01*
X1000075Y484317D01*
X1000027Y484214D01*
X999982Y484109D01*
X999941Y484002D01*
X999904Y483894D01*
X999871Y483784D01*
X999841Y483674D01*
X999816Y483563D01*
X999794Y483451D01*
X999776Y483338D01*
X999762Y483224D01*
X999752Y483110D01*
X999746Y482996D01*
X999744Y482882D01*
X999744Y477972D01*
X1004655Y469706D02*
X1014476Y469706D01*
X1004655Y469706D02*
X1004655Y465614D01*
X1004657Y465518D01*
X1004663Y465421D01*
X1004672Y465325D01*
X1004685Y465230D01*
X1004702Y465135D01*
X1004723Y465041D01*
X1004747Y464948D01*
X1004775Y464855D01*
X1004807Y464764D01*
X1004842Y464675D01*
X1004881Y464586D01*
X1004923Y464499D01*
X1004968Y464414D01*
X1005017Y464331D01*
X1005069Y464250D01*
X1005124Y464171D01*
X1005182Y464094D01*
X1005243Y464020D01*
X1005307Y463948D01*
X1005374Y463878D01*
X1005444Y463811D01*
X1005516Y463747D01*
X1005590Y463686D01*
X1005667Y463628D01*
X1005746Y463573D01*
X1005827Y463521D01*
X1005910Y463472D01*
X1005995Y463427D01*
X1006082Y463385D01*
X1006171Y463346D01*
X1006260Y463311D01*
X1006351Y463279D01*
X1006444Y463251D01*
X1006537Y463227D01*
X1006631Y463206D01*
X1006726Y463189D01*
X1006821Y463176D01*
X1006917Y463167D01*
X1007014Y463161D01*
X1007110Y463159D01*
X1014476Y463159D01*
X1014476Y449209D02*
X999744Y449209D01*
X1014476Y449209D02*
X1014476Y453301D01*
X1014474Y453397D01*
X1014468Y453494D01*
X1014459Y453590D01*
X1014446Y453685D01*
X1014429Y453780D01*
X1014408Y453874D01*
X1014384Y453967D01*
X1014356Y454060D01*
X1014324Y454151D01*
X1014289Y454240D01*
X1014250Y454329D01*
X1014208Y454416D01*
X1014163Y454501D01*
X1014114Y454584D01*
X1014062Y454665D01*
X1014007Y454744D01*
X1013949Y454821D01*
X1013888Y454895D01*
X1013824Y454967D01*
X1013757Y455037D01*
X1013687Y455104D01*
X1013615Y455168D01*
X1013541Y455229D01*
X1013464Y455287D01*
X1013385Y455342D01*
X1013304Y455394D01*
X1013221Y455443D01*
X1013136Y455488D01*
X1013049Y455530D01*
X1012960Y455569D01*
X1012871Y455604D01*
X1012780Y455636D01*
X1012687Y455664D01*
X1012594Y455688D01*
X1012500Y455709D01*
X1012405Y455726D01*
X1012310Y455739D01*
X1012214Y455748D01*
X1012117Y455754D01*
X1012021Y455756D01*
X1007110Y455756D01*
X1007014Y455754D01*
X1006917Y455748D01*
X1006821Y455739D01*
X1006726Y455726D01*
X1006631Y455709D01*
X1006537Y455688D01*
X1006444Y455664D01*
X1006351Y455636D01*
X1006260Y455604D01*
X1006171Y455569D01*
X1006082Y455530D01*
X1005995Y455488D01*
X1005910Y455443D01*
X1005827Y455394D01*
X1005746Y455342D01*
X1005667Y455287D01*
X1005590Y455229D01*
X1005516Y455168D01*
X1005444Y455104D01*
X1005374Y455037D01*
X1005307Y454967D01*
X1005243Y454895D01*
X1005182Y454821D01*
X1005124Y454744D01*
X1005069Y454665D01*
X1005017Y454584D01*
X1004968Y454501D01*
X1004923Y454416D01*
X1004881Y454329D01*
X1004842Y454240D01*
X1004807Y454151D01*
X1004775Y454060D01*
X1004747Y453967D01*
X1004723Y453874D01*
X1004702Y453780D01*
X1004685Y453685D01*
X1004672Y453590D01*
X1004663Y453494D01*
X1004657Y453397D01*
X1004655Y453301D01*
X1004655Y449209D01*
X1006292Y315327D02*
X1006292Y312872D01*
X1014476Y312872D01*
X1014476Y317782D01*
X1014474Y317894D01*
X1014468Y318005D01*
X1014459Y318117D01*
X1014446Y318228D01*
X1014428Y318338D01*
X1014408Y318448D01*
X1014383Y318557D01*
X1014355Y318665D01*
X1014323Y318772D01*
X1014287Y318878D01*
X1014248Y318983D01*
X1014205Y319086D01*
X1014159Y319188D01*
X1014109Y319288D01*
X1014056Y319387D01*
X1013999Y319483D01*
X1013940Y319578D01*
X1013877Y319670D01*
X1013811Y319760D01*
X1013742Y319848D01*
X1013670Y319934D01*
X1013595Y320017D01*
X1013517Y320097D01*
X1013437Y320175D01*
X1013354Y320250D01*
X1013268Y320322D01*
X1013180Y320391D01*
X1013090Y320457D01*
X1012998Y320520D01*
X1012903Y320579D01*
X1012807Y320636D01*
X1012708Y320689D01*
X1012608Y320739D01*
X1012506Y320785D01*
X1012403Y320828D01*
X1012298Y320867D01*
X1012192Y320903D01*
X1012085Y320935D01*
X1011977Y320963D01*
X1011868Y320988D01*
X1011758Y321008D01*
X1011648Y321026D01*
X1011537Y321039D01*
X1011425Y321048D01*
X1011314Y321054D01*
X1011202Y321056D01*
X1003018Y321056D01*
X1002904Y321054D01*
X1002790Y321048D01*
X1002676Y321038D01*
X1002562Y321024D01*
X1002449Y321006D01*
X1002337Y320984D01*
X1002226Y320959D01*
X1002116Y320929D01*
X1002006Y320896D01*
X1001898Y320859D01*
X1001792Y320818D01*
X1001686Y320773D01*
X1001583Y320725D01*
X1001481Y320673D01*
X1001381Y320617D01*
X1001283Y320559D01*
X1001187Y320496D01*
X1001094Y320431D01*
X1001002Y320362D01*
X1000914Y320290D01*
X1000827Y320215D01*
X1000744Y320137D01*
X1000663Y320056D01*
X1000585Y319973D01*
X1000510Y319887D01*
X1000438Y319798D01*
X1000369Y319706D01*
X1000304Y319613D01*
X1000242Y319517D01*
X1000183Y319419D01*
X1000127Y319319D01*
X1000075Y319217D01*
X1000027Y319114D01*
X999982Y319009D01*
X999941Y318902D01*
X999904Y318794D01*
X999871Y318684D01*
X999841Y318574D01*
X999816Y318463D01*
X999794Y318351D01*
X999776Y318238D01*
X999762Y318124D01*
X999752Y318010D01*
X999746Y317896D01*
X999744Y317782D01*
X999744Y312872D01*
X1004655Y304606D02*
X1014476Y304606D01*
X1004655Y304606D02*
X1004655Y300514D01*
X1004657Y300418D01*
X1004663Y300321D01*
X1004672Y300225D01*
X1004685Y300130D01*
X1004702Y300035D01*
X1004723Y299941D01*
X1004747Y299848D01*
X1004775Y299755D01*
X1004807Y299664D01*
X1004842Y299575D01*
X1004881Y299486D01*
X1004923Y299399D01*
X1004968Y299314D01*
X1005017Y299231D01*
X1005069Y299150D01*
X1005124Y299071D01*
X1005182Y298994D01*
X1005243Y298920D01*
X1005307Y298848D01*
X1005374Y298778D01*
X1005444Y298711D01*
X1005516Y298647D01*
X1005590Y298586D01*
X1005667Y298528D01*
X1005746Y298473D01*
X1005827Y298421D01*
X1005910Y298372D01*
X1005995Y298327D01*
X1006082Y298285D01*
X1006171Y298246D01*
X1006260Y298211D01*
X1006351Y298179D01*
X1006444Y298151D01*
X1006537Y298127D01*
X1006631Y298106D01*
X1006726Y298089D01*
X1006821Y298076D01*
X1006917Y298067D01*
X1007014Y298061D01*
X1007110Y298059D01*
X1014476Y298059D01*
X1014476Y284109D02*
X999744Y284109D01*
X1014476Y284109D02*
X1014476Y288201D01*
X1014474Y288297D01*
X1014468Y288394D01*
X1014459Y288490D01*
X1014446Y288585D01*
X1014429Y288680D01*
X1014408Y288774D01*
X1014384Y288867D01*
X1014356Y288960D01*
X1014324Y289051D01*
X1014289Y289140D01*
X1014250Y289229D01*
X1014208Y289316D01*
X1014163Y289401D01*
X1014114Y289484D01*
X1014062Y289565D01*
X1014007Y289644D01*
X1013949Y289721D01*
X1013888Y289795D01*
X1013824Y289867D01*
X1013757Y289937D01*
X1013687Y290004D01*
X1013615Y290068D01*
X1013541Y290129D01*
X1013464Y290187D01*
X1013385Y290242D01*
X1013304Y290294D01*
X1013221Y290343D01*
X1013136Y290388D01*
X1013049Y290430D01*
X1012960Y290469D01*
X1012871Y290504D01*
X1012780Y290536D01*
X1012687Y290564D01*
X1012594Y290588D01*
X1012500Y290609D01*
X1012405Y290626D01*
X1012310Y290639D01*
X1012214Y290648D01*
X1012117Y290654D01*
X1012021Y290656D01*
X1007110Y290656D01*
X1007014Y290654D01*
X1006917Y290648D01*
X1006821Y290639D01*
X1006726Y290626D01*
X1006631Y290609D01*
X1006537Y290588D01*
X1006444Y290564D01*
X1006351Y290536D01*
X1006260Y290504D01*
X1006171Y290469D01*
X1006082Y290430D01*
X1005995Y290388D01*
X1005910Y290343D01*
X1005827Y290294D01*
X1005746Y290242D01*
X1005667Y290187D01*
X1005590Y290129D01*
X1005516Y290068D01*
X1005444Y290004D01*
X1005374Y289937D01*
X1005307Y289867D01*
X1005243Y289795D01*
X1005182Y289721D01*
X1005124Y289644D01*
X1005069Y289565D01*
X1005017Y289484D01*
X1004968Y289401D01*
X1004923Y289316D01*
X1004881Y289229D01*
X1004842Y289140D01*
X1004807Y289051D01*
X1004775Y288960D01*
X1004747Y288867D01*
X1004723Y288774D01*
X1004702Y288680D01*
X1004685Y288585D01*
X1004672Y288490D01*
X1004663Y288394D01*
X1004657Y288297D01*
X1004655Y288201D01*
X1004655Y284109D01*
X999744Y230519D02*
X1014476Y230519D01*
X1014476Y232156D02*
X1014476Y228882D01*
X999744Y228882D02*
X999744Y232156D01*
X1004655Y221809D02*
X1014476Y221809D01*
X1004655Y221809D02*
X1004655Y217717D01*
X1004657Y217621D01*
X1004663Y217524D01*
X1004672Y217428D01*
X1004685Y217333D01*
X1004702Y217238D01*
X1004723Y217144D01*
X1004747Y217051D01*
X1004775Y216958D01*
X1004807Y216867D01*
X1004842Y216778D01*
X1004881Y216689D01*
X1004923Y216602D01*
X1004968Y216517D01*
X1005017Y216434D01*
X1005069Y216353D01*
X1005124Y216274D01*
X1005182Y216197D01*
X1005243Y216123D01*
X1005307Y216051D01*
X1005374Y215981D01*
X1005444Y215914D01*
X1005516Y215850D01*
X1005590Y215789D01*
X1005667Y215731D01*
X1005746Y215676D01*
X1005827Y215624D01*
X1005910Y215575D01*
X1005995Y215530D01*
X1006082Y215488D01*
X1006171Y215449D01*
X1006260Y215414D01*
X1006351Y215382D01*
X1006444Y215354D01*
X1006537Y215330D01*
X1006631Y215309D01*
X1006726Y215292D01*
X1006821Y215279D01*
X1006917Y215270D01*
X1007014Y215264D01*
X1007110Y215262D01*
X1007110Y215261D02*
X1014476Y215261D01*
X1008747Y207294D02*
X1008747Y197472D01*
X1013658Y202383D02*
X1003836Y202383D01*
X1003836Y409956D02*
X1010384Y409956D01*
X1003836Y409956D02*
X1003709Y409954D01*
X1003582Y409948D01*
X1003455Y409938D01*
X1003328Y409924D01*
X1003202Y409907D01*
X1003077Y409885D01*
X1002952Y409859D01*
X1002828Y409830D01*
X1002705Y409797D01*
X1002584Y409760D01*
X1002463Y409719D01*
X1002344Y409674D01*
X1002226Y409626D01*
X1002110Y409574D01*
X1001995Y409519D01*
X1001883Y409460D01*
X1001772Y409397D01*
X1001663Y409331D01*
X1001556Y409262D01*
X1001451Y409189D01*
X1001349Y409114D01*
X1001249Y409035D01*
X1001152Y408953D01*
X1001057Y408868D01*
X1000965Y408780D01*
X1000876Y408689D01*
X1000789Y408596D01*
X1000706Y408500D01*
X1000625Y408401D01*
X1000548Y408300D01*
X1000474Y408197D01*
X1000403Y408091D01*
X1000335Y407983D01*
X1000271Y407873D01*
X1000210Y407761D01*
X1000153Y407648D01*
X1000099Y407532D01*
X1000049Y407415D01*
X1000003Y407297D01*
X999960Y407177D01*
X999921Y407056D01*
X999886Y406933D01*
X999855Y406810D01*
X999827Y406686D01*
X999804Y406561D01*
X999784Y406435D01*
X999768Y406309D01*
X999756Y406182D01*
X999748Y406055D01*
X999744Y405928D01*
X999744Y405800D01*
X999748Y405673D01*
X999756Y405546D01*
X999768Y405419D01*
X999784Y405293D01*
X999804Y405167D01*
X999827Y405042D01*
X999855Y404918D01*
X999886Y404795D01*
X999921Y404672D01*
X999960Y404551D01*
X1000003Y404431D01*
X1000049Y404313D01*
X1000099Y404196D01*
X1000153Y404080D01*
X1000210Y403967D01*
X1000271Y403855D01*
X1000335Y403745D01*
X1000403Y403637D01*
X1000474Y403531D01*
X1000548Y403428D01*
X1000625Y403327D01*
X1000706Y403228D01*
X1000789Y403132D01*
X1000876Y403039D01*
X1000965Y402948D01*
X1001057Y402860D01*
X1001152Y402775D01*
X1001249Y402693D01*
X1001349Y402614D01*
X1001451Y402539D01*
X1001556Y402466D01*
X1001663Y402397D01*
X1001772Y402331D01*
X1001883Y402268D01*
X1001995Y402209D01*
X1002110Y402154D01*
X1002226Y402102D01*
X1002344Y402054D01*
X1002463Y402009D01*
X1002584Y401968D01*
X1002705Y401931D01*
X1002828Y401898D01*
X1002952Y401869D01*
X1003077Y401843D01*
X1003202Y401821D01*
X1003328Y401804D01*
X1003455Y401790D01*
X1003582Y401780D01*
X1003709Y401774D01*
X1003836Y401772D01*
X1010384Y401772D01*
X1010511Y401774D01*
X1010638Y401780D01*
X1010765Y401790D01*
X1010892Y401804D01*
X1011018Y401821D01*
X1011143Y401843D01*
X1011268Y401869D01*
X1011392Y401898D01*
X1011515Y401931D01*
X1011636Y401968D01*
X1011757Y402009D01*
X1011876Y402054D01*
X1011994Y402102D01*
X1012110Y402154D01*
X1012225Y402209D01*
X1012337Y402268D01*
X1012448Y402331D01*
X1012557Y402397D01*
X1012664Y402466D01*
X1012769Y402539D01*
X1012871Y402614D01*
X1012971Y402693D01*
X1013068Y402775D01*
X1013163Y402860D01*
X1013255Y402948D01*
X1013344Y403039D01*
X1013431Y403132D01*
X1013514Y403228D01*
X1013595Y403327D01*
X1013672Y403428D01*
X1013746Y403531D01*
X1013817Y403637D01*
X1013885Y403745D01*
X1013949Y403855D01*
X1014010Y403967D01*
X1014067Y404080D01*
X1014121Y404196D01*
X1014171Y404313D01*
X1014217Y404431D01*
X1014260Y404551D01*
X1014299Y404672D01*
X1014334Y404795D01*
X1014365Y404918D01*
X1014393Y405042D01*
X1014416Y405167D01*
X1014436Y405293D01*
X1014452Y405419D01*
X1014464Y405546D01*
X1014472Y405673D01*
X1014476Y405800D01*
X1014476Y405928D01*
X1014472Y406055D01*
X1014464Y406182D01*
X1014452Y406309D01*
X1014436Y406435D01*
X1014416Y406561D01*
X1014393Y406686D01*
X1014365Y406810D01*
X1014334Y406933D01*
X1014299Y407056D01*
X1014260Y407177D01*
X1014217Y407297D01*
X1014171Y407415D01*
X1014121Y407532D01*
X1014067Y407648D01*
X1014010Y407761D01*
X1013949Y407873D01*
X1013885Y407983D01*
X1013817Y408091D01*
X1013746Y408197D01*
X1013672Y408300D01*
X1013595Y408401D01*
X1013514Y408500D01*
X1013431Y408596D01*
X1013344Y408689D01*
X1013255Y408780D01*
X1013163Y408868D01*
X1013068Y408953D01*
X1012971Y409035D01*
X1012871Y409114D01*
X1012769Y409189D01*
X1012664Y409262D01*
X1012557Y409331D01*
X1012448Y409397D01*
X1012337Y409460D01*
X1012225Y409519D01*
X1012110Y409574D01*
X1011994Y409626D01*
X1011876Y409674D01*
X1011757Y409719D01*
X1011636Y409760D01*
X1011515Y409797D01*
X1011392Y409830D01*
X1011268Y409859D01*
X1011143Y409885D01*
X1011018Y409907D01*
X1010892Y409924D01*
X1010765Y409938D01*
X1010638Y409948D01*
X1010511Y409954D01*
X1010384Y409956D01*
X1012021Y394027D02*
X1004655Y394027D01*
X1012021Y394027D02*
X1012117Y394025D01*
X1012214Y394019D01*
X1012310Y394010D01*
X1012405Y393997D01*
X1012500Y393980D01*
X1012594Y393959D01*
X1012687Y393935D01*
X1012780Y393907D01*
X1012871Y393875D01*
X1012960Y393840D01*
X1013049Y393801D01*
X1013136Y393759D01*
X1013221Y393714D01*
X1013304Y393665D01*
X1013385Y393613D01*
X1013464Y393558D01*
X1013541Y393500D01*
X1013615Y393439D01*
X1013687Y393375D01*
X1013757Y393308D01*
X1013824Y393238D01*
X1013888Y393166D01*
X1013949Y393092D01*
X1014007Y393015D01*
X1014062Y392936D01*
X1014114Y392855D01*
X1014163Y392772D01*
X1014208Y392687D01*
X1014250Y392600D01*
X1014289Y392511D01*
X1014324Y392422D01*
X1014356Y392331D01*
X1014384Y392238D01*
X1014408Y392145D01*
X1014429Y392051D01*
X1014446Y391956D01*
X1014459Y391861D01*
X1014468Y391765D01*
X1014474Y391668D01*
X1014476Y391572D01*
X1014476Y387480D01*
X1004655Y387480D01*
X1004655Y381412D02*
X1004655Y376501D01*
X999744Y379775D02*
X1012021Y379775D01*
X1012117Y379773D01*
X1012214Y379767D01*
X1012310Y379758D01*
X1012405Y379745D01*
X1012500Y379728D01*
X1012594Y379707D01*
X1012687Y379683D01*
X1012780Y379655D01*
X1012871Y379623D01*
X1012960Y379588D01*
X1013049Y379549D01*
X1013136Y379507D01*
X1013221Y379462D01*
X1013304Y379413D01*
X1013385Y379361D01*
X1013464Y379306D01*
X1013541Y379248D01*
X1013615Y379187D01*
X1013687Y379123D01*
X1013757Y379056D01*
X1013824Y378986D01*
X1013888Y378914D01*
X1013949Y378840D01*
X1014007Y378763D01*
X1014062Y378684D01*
X1014114Y378603D01*
X1014163Y378520D01*
X1014208Y378435D01*
X1014250Y378348D01*
X1014289Y378259D01*
X1014324Y378170D01*
X1014356Y378079D01*
X1014384Y377986D01*
X1014408Y377893D01*
X1014429Y377799D01*
X1014446Y377704D01*
X1014459Y377609D01*
X1014468Y377513D01*
X1014474Y377416D01*
X1014476Y377320D01*
X1014476Y376501D01*
X1008747Y369612D02*
X1008747Y359791D01*
X1013658Y364702D02*
X1003836Y364702D01*
D11*
X149552Y402110D02*
X149552Y432590D01*
X152939Y402110D02*
X146165Y402110D01*
X146165Y432590D02*
X152939Y432590D01*
X135794Y432590D02*
X135794Y402110D01*
X118860Y402110D02*
X135794Y432590D01*
X118860Y432590D02*
X118860Y402110D01*
X108150Y413963D02*
X87830Y413963D01*
X97990Y403803D02*
X97990Y424123D01*
X150822Y376710D02*
X150822Y346230D01*
X154209Y346230D02*
X147435Y346230D01*
X147435Y376710D02*
X154209Y376710D01*
X137064Y376710D02*
X137064Y346230D01*
X120130Y346230D02*
X137064Y376710D01*
X120130Y376710D02*
X120130Y346230D01*
X109420Y358083D02*
X89100Y358083D01*
X154717Y317443D02*
X154717Y303897D01*
X154717Y317443D02*
X154714Y317649D01*
X154707Y317855D01*
X154694Y318061D01*
X154677Y318266D01*
X154654Y318471D01*
X154627Y318676D01*
X154594Y318879D01*
X154557Y319082D01*
X154514Y319284D01*
X154467Y319485D01*
X154415Y319684D01*
X154358Y319882D01*
X154296Y320079D01*
X154230Y320274D01*
X154158Y320468D01*
X154082Y320659D01*
X154002Y320849D01*
X153916Y321037D01*
X153827Y321222D01*
X153732Y321406D01*
X153634Y321587D01*
X153531Y321765D01*
X153423Y321941D01*
X153311Y322115D01*
X153196Y322285D01*
X153076Y322453D01*
X152952Y322618D01*
X152824Y322779D01*
X152692Y322938D01*
X152556Y323093D01*
X152417Y323245D01*
X152273Y323394D01*
X152127Y323538D01*
X151977Y323680D01*
X151823Y323817D01*
X151666Y323951D01*
X151506Y324081D01*
X151343Y324207D01*
X151177Y324329D01*
X151007Y324447D01*
X150835Y324561D01*
X150661Y324670D01*
X150484Y324776D01*
X150304Y324877D01*
X150121Y324973D01*
X149937Y325065D01*
X149750Y325153D01*
X149561Y325236D01*
X149371Y325314D01*
X149178Y325388D01*
X148984Y325457D01*
X148788Y325521D01*
X148590Y325580D01*
X148392Y325635D01*
X148191Y325684D01*
X147990Y325729D01*
X147788Y325769D01*
X147585Y325804D01*
X147381Y325834D01*
X147176Y325859D01*
X146971Y325879D01*
X146765Y325894D01*
X146559Y325904D01*
X146353Y325909D01*
X146147Y325909D01*
X145941Y325904D01*
X145735Y325894D01*
X145529Y325879D01*
X145324Y325859D01*
X145119Y325834D01*
X144915Y325804D01*
X144712Y325769D01*
X144510Y325729D01*
X144309Y325684D01*
X144108Y325635D01*
X143910Y325580D01*
X143712Y325521D01*
X143516Y325457D01*
X143322Y325388D01*
X143129Y325314D01*
X142939Y325236D01*
X142750Y325153D01*
X142563Y325065D01*
X142379Y324973D01*
X142196Y324877D01*
X142017Y324776D01*
X141839Y324670D01*
X141665Y324561D01*
X141493Y324447D01*
X141323Y324329D01*
X141157Y324207D01*
X140994Y324081D01*
X140834Y323951D01*
X140677Y323817D01*
X140523Y323680D01*
X140373Y323538D01*
X140227Y323394D01*
X140083Y323245D01*
X139944Y323093D01*
X139808Y322938D01*
X139676Y322779D01*
X139548Y322618D01*
X139424Y322453D01*
X139304Y322285D01*
X139189Y322115D01*
X139077Y321941D01*
X138969Y321765D01*
X138866Y321587D01*
X138768Y321406D01*
X138673Y321222D01*
X138584Y321037D01*
X138498Y320849D01*
X138418Y320659D01*
X138342Y320468D01*
X138270Y320274D01*
X138204Y320079D01*
X138142Y319882D01*
X138085Y319684D01*
X138033Y319485D01*
X137986Y319284D01*
X137943Y319082D01*
X137906Y318879D01*
X137873Y318676D01*
X137846Y318471D01*
X137823Y318266D01*
X137806Y318061D01*
X137793Y317855D01*
X137786Y317649D01*
X137783Y317443D01*
X137783Y303897D01*
X137786Y303691D01*
X137793Y303485D01*
X137806Y303279D01*
X137823Y303074D01*
X137846Y302869D01*
X137873Y302664D01*
X137906Y302461D01*
X137943Y302258D01*
X137986Y302056D01*
X138033Y301855D01*
X138085Y301656D01*
X138142Y301458D01*
X138204Y301261D01*
X138270Y301066D01*
X138342Y300872D01*
X138418Y300681D01*
X138498Y300491D01*
X138584Y300303D01*
X138673Y300118D01*
X138768Y299934D01*
X138866Y299753D01*
X138969Y299575D01*
X139077Y299399D01*
X139189Y299225D01*
X139304Y299055D01*
X139424Y298887D01*
X139548Y298722D01*
X139676Y298561D01*
X139808Y298402D01*
X139944Y298247D01*
X140083Y298095D01*
X140227Y297946D01*
X140373Y297802D01*
X140523Y297660D01*
X140677Y297523D01*
X140834Y297389D01*
X140994Y297259D01*
X141157Y297133D01*
X141323Y297011D01*
X141493Y296893D01*
X141665Y296779D01*
X141839Y296670D01*
X142017Y296564D01*
X142196Y296463D01*
X142379Y296367D01*
X142563Y296275D01*
X142750Y296187D01*
X142939Y296104D01*
X143129Y296026D01*
X143322Y295952D01*
X143516Y295883D01*
X143712Y295819D01*
X143910Y295760D01*
X144108Y295705D01*
X144309Y295656D01*
X144510Y295611D01*
X144712Y295571D01*
X144915Y295536D01*
X145119Y295506D01*
X145324Y295481D01*
X145529Y295461D01*
X145735Y295446D01*
X145941Y295436D01*
X146147Y295431D01*
X146353Y295431D01*
X146559Y295436D01*
X146765Y295446D01*
X146971Y295461D01*
X147176Y295481D01*
X147381Y295506D01*
X147585Y295536D01*
X147788Y295571D01*
X147990Y295611D01*
X148191Y295656D01*
X148392Y295705D01*
X148590Y295760D01*
X148788Y295819D01*
X148984Y295883D01*
X149178Y295952D01*
X149371Y296026D01*
X149561Y296104D01*
X149750Y296187D01*
X149937Y296275D01*
X150121Y296367D01*
X150304Y296463D01*
X150484Y296564D01*
X150661Y296670D01*
X150835Y296779D01*
X151007Y296893D01*
X151177Y297011D01*
X151343Y297133D01*
X151506Y297259D01*
X151666Y297389D01*
X151823Y297523D01*
X151977Y297660D01*
X152127Y297802D01*
X152273Y297946D01*
X152417Y298095D01*
X152556Y298247D01*
X152692Y298402D01*
X152824Y298561D01*
X152952Y298722D01*
X153076Y298887D01*
X153196Y299055D01*
X153311Y299225D01*
X153423Y299399D01*
X153531Y299575D01*
X153634Y299753D01*
X153732Y299934D01*
X153827Y300118D01*
X153916Y300303D01*
X154002Y300491D01*
X154082Y300681D01*
X154158Y300872D01*
X154230Y301066D01*
X154296Y301261D01*
X154358Y301458D01*
X154415Y301656D01*
X154467Y301855D01*
X154514Y302056D01*
X154557Y302258D01*
X154594Y302461D01*
X154627Y302664D01*
X154654Y302869D01*
X154677Y303074D01*
X154694Y303279D01*
X154707Y303485D01*
X154714Y303691D01*
X154717Y303897D01*
X127158Y303897D02*
X127158Y325910D01*
X127158Y303897D02*
X127155Y303691D01*
X127148Y303485D01*
X127135Y303279D01*
X127118Y303074D01*
X127095Y302869D01*
X127068Y302664D01*
X127035Y302461D01*
X126998Y302258D01*
X126955Y302056D01*
X126908Y301855D01*
X126856Y301656D01*
X126799Y301458D01*
X126737Y301261D01*
X126671Y301066D01*
X126599Y300872D01*
X126523Y300681D01*
X126443Y300491D01*
X126357Y300303D01*
X126268Y300118D01*
X126173Y299934D01*
X126075Y299753D01*
X125972Y299575D01*
X125864Y299399D01*
X125752Y299225D01*
X125637Y299055D01*
X125517Y298887D01*
X125393Y298722D01*
X125265Y298561D01*
X125133Y298402D01*
X124997Y298247D01*
X124858Y298095D01*
X124714Y297946D01*
X124568Y297802D01*
X124418Y297660D01*
X124264Y297523D01*
X124107Y297389D01*
X123947Y297259D01*
X123784Y297133D01*
X123618Y297011D01*
X123448Y296893D01*
X123276Y296779D01*
X123102Y296670D01*
X122925Y296564D01*
X122745Y296463D01*
X122562Y296367D01*
X122378Y296275D01*
X122191Y296187D01*
X122002Y296104D01*
X121812Y296026D01*
X121619Y295952D01*
X121425Y295883D01*
X121229Y295819D01*
X121031Y295760D01*
X120833Y295705D01*
X120632Y295656D01*
X120431Y295611D01*
X120229Y295571D01*
X120026Y295536D01*
X119822Y295506D01*
X119617Y295481D01*
X119412Y295461D01*
X119206Y295446D01*
X119000Y295436D01*
X118794Y295431D01*
X118588Y295431D01*
X118382Y295436D01*
X118176Y295446D01*
X117970Y295461D01*
X117765Y295481D01*
X117560Y295506D01*
X117356Y295536D01*
X117153Y295571D01*
X116951Y295611D01*
X116750Y295656D01*
X116549Y295705D01*
X116351Y295760D01*
X116153Y295819D01*
X115957Y295883D01*
X115763Y295952D01*
X115570Y296026D01*
X115380Y296104D01*
X115191Y296187D01*
X115004Y296275D01*
X114820Y296367D01*
X114637Y296463D01*
X114458Y296564D01*
X114280Y296670D01*
X114106Y296779D01*
X113934Y296893D01*
X113764Y297011D01*
X113598Y297133D01*
X113435Y297259D01*
X113275Y297389D01*
X113118Y297523D01*
X112964Y297660D01*
X112814Y297802D01*
X112668Y297946D01*
X112524Y298095D01*
X112385Y298247D01*
X112249Y298402D01*
X112117Y298561D01*
X111989Y298722D01*
X111865Y298887D01*
X111745Y299055D01*
X111630Y299225D01*
X111518Y299399D01*
X111410Y299575D01*
X111307Y299753D01*
X111209Y299934D01*
X111114Y300118D01*
X111025Y300303D01*
X110939Y300491D01*
X110859Y300681D01*
X110783Y300872D01*
X110711Y301066D01*
X110645Y301261D01*
X110583Y301458D01*
X110526Y301656D01*
X110474Y301855D01*
X110427Y302056D01*
X110384Y302258D01*
X110347Y302461D01*
X110314Y302664D01*
X110287Y302869D01*
X110264Y303074D01*
X110247Y303279D01*
X110234Y303485D01*
X110227Y303691D01*
X110224Y303897D01*
X110224Y325910D01*
X92910Y325910D02*
X92910Y295430D01*
X101377Y325910D02*
X84443Y325910D01*
X76400Y307283D02*
X56080Y307283D01*
X155987Y262833D02*
X155987Y249287D01*
X155987Y262833D02*
X155984Y263039D01*
X155977Y263245D01*
X155964Y263451D01*
X155947Y263656D01*
X155924Y263861D01*
X155897Y264066D01*
X155864Y264269D01*
X155827Y264472D01*
X155784Y264674D01*
X155737Y264875D01*
X155685Y265074D01*
X155628Y265272D01*
X155566Y265469D01*
X155500Y265664D01*
X155428Y265858D01*
X155352Y266049D01*
X155272Y266239D01*
X155186Y266427D01*
X155097Y266612D01*
X155002Y266796D01*
X154904Y266977D01*
X154801Y267155D01*
X154693Y267331D01*
X154581Y267505D01*
X154466Y267675D01*
X154346Y267843D01*
X154222Y268008D01*
X154094Y268169D01*
X153962Y268328D01*
X153826Y268483D01*
X153687Y268635D01*
X153543Y268784D01*
X153397Y268928D01*
X153247Y269070D01*
X153093Y269207D01*
X152936Y269341D01*
X152776Y269471D01*
X152613Y269597D01*
X152447Y269719D01*
X152277Y269837D01*
X152105Y269951D01*
X151931Y270060D01*
X151754Y270166D01*
X151574Y270267D01*
X151391Y270363D01*
X151207Y270455D01*
X151020Y270543D01*
X150831Y270626D01*
X150641Y270704D01*
X150448Y270778D01*
X150254Y270847D01*
X150058Y270911D01*
X149860Y270970D01*
X149662Y271025D01*
X149461Y271074D01*
X149260Y271119D01*
X149058Y271159D01*
X148855Y271194D01*
X148651Y271224D01*
X148446Y271249D01*
X148241Y271269D01*
X148035Y271284D01*
X147829Y271294D01*
X147623Y271299D01*
X147417Y271299D01*
X147211Y271294D01*
X147005Y271284D01*
X146799Y271269D01*
X146594Y271249D01*
X146389Y271224D01*
X146185Y271194D01*
X145982Y271159D01*
X145780Y271119D01*
X145579Y271074D01*
X145378Y271025D01*
X145180Y270970D01*
X144982Y270911D01*
X144786Y270847D01*
X144592Y270778D01*
X144399Y270704D01*
X144209Y270626D01*
X144020Y270543D01*
X143833Y270455D01*
X143649Y270363D01*
X143466Y270267D01*
X143287Y270166D01*
X143109Y270060D01*
X142935Y269951D01*
X142763Y269837D01*
X142593Y269719D01*
X142427Y269597D01*
X142264Y269471D01*
X142104Y269341D01*
X141947Y269207D01*
X141793Y269070D01*
X141643Y268928D01*
X141497Y268784D01*
X141353Y268635D01*
X141214Y268483D01*
X141078Y268328D01*
X140946Y268169D01*
X140818Y268008D01*
X140694Y267843D01*
X140574Y267675D01*
X140459Y267505D01*
X140347Y267331D01*
X140239Y267155D01*
X140136Y266977D01*
X140038Y266796D01*
X139943Y266612D01*
X139854Y266427D01*
X139768Y266239D01*
X139688Y266049D01*
X139612Y265858D01*
X139540Y265664D01*
X139474Y265469D01*
X139412Y265272D01*
X139355Y265074D01*
X139303Y264875D01*
X139256Y264674D01*
X139213Y264472D01*
X139176Y264269D01*
X139143Y264066D01*
X139116Y263861D01*
X139093Y263656D01*
X139076Y263451D01*
X139063Y263245D01*
X139056Y263039D01*
X139053Y262833D01*
X139053Y249287D01*
X139056Y249081D01*
X139063Y248875D01*
X139076Y248669D01*
X139093Y248464D01*
X139116Y248259D01*
X139143Y248054D01*
X139176Y247851D01*
X139213Y247648D01*
X139256Y247446D01*
X139303Y247245D01*
X139355Y247046D01*
X139412Y246848D01*
X139474Y246651D01*
X139540Y246456D01*
X139612Y246262D01*
X139688Y246071D01*
X139768Y245881D01*
X139854Y245693D01*
X139943Y245508D01*
X140038Y245324D01*
X140136Y245143D01*
X140239Y244965D01*
X140347Y244789D01*
X140459Y244615D01*
X140574Y244445D01*
X140694Y244277D01*
X140818Y244112D01*
X140946Y243951D01*
X141078Y243792D01*
X141214Y243637D01*
X141353Y243485D01*
X141497Y243336D01*
X141643Y243192D01*
X141793Y243050D01*
X141947Y242913D01*
X142104Y242779D01*
X142264Y242649D01*
X142427Y242523D01*
X142593Y242401D01*
X142763Y242283D01*
X142935Y242169D01*
X143109Y242060D01*
X143287Y241954D01*
X143466Y241853D01*
X143649Y241757D01*
X143833Y241665D01*
X144020Y241577D01*
X144209Y241494D01*
X144399Y241416D01*
X144592Y241342D01*
X144786Y241273D01*
X144982Y241209D01*
X145180Y241150D01*
X145378Y241095D01*
X145579Y241046D01*
X145780Y241001D01*
X145982Y240961D01*
X146185Y240926D01*
X146389Y240896D01*
X146594Y240871D01*
X146799Y240851D01*
X147005Y240836D01*
X147211Y240826D01*
X147417Y240821D01*
X147623Y240821D01*
X147829Y240826D01*
X148035Y240836D01*
X148241Y240851D01*
X148446Y240871D01*
X148651Y240896D01*
X148855Y240926D01*
X149058Y240961D01*
X149260Y241001D01*
X149461Y241046D01*
X149662Y241095D01*
X149860Y241150D01*
X150058Y241209D01*
X150254Y241273D01*
X150448Y241342D01*
X150641Y241416D01*
X150831Y241494D01*
X151020Y241577D01*
X151207Y241665D01*
X151391Y241757D01*
X151574Y241853D01*
X151754Y241954D01*
X151931Y242060D01*
X152105Y242169D01*
X152277Y242283D01*
X152447Y242401D01*
X152613Y242523D01*
X152776Y242649D01*
X152936Y242779D01*
X153093Y242913D01*
X153247Y243050D01*
X153397Y243192D01*
X153543Y243336D01*
X153687Y243485D01*
X153826Y243637D01*
X153962Y243792D01*
X154094Y243951D01*
X154222Y244112D01*
X154346Y244277D01*
X154466Y244445D01*
X154581Y244615D01*
X154693Y244789D01*
X154801Y244965D01*
X154904Y245143D01*
X155002Y245324D01*
X155097Y245508D01*
X155186Y245693D01*
X155272Y245881D01*
X155352Y246071D01*
X155428Y246262D01*
X155500Y246456D01*
X155566Y246651D01*
X155628Y246848D01*
X155685Y247046D01*
X155737Y247245D01*
X155784Y247446D01*
X155827Y247648D01*
X155864Y247851D01*
X155897Y248054D01*
X155924Y248259D01*
X155947Y248464D01*
X155964Y248669D01*
X155977Y248875D01*
X155984Y249081D01*
X155987Y249287D01*
X128428Y249287D02*
X128428Y271300D01*
X128428Y249287D02*
X128425Y249081D01*
X128418Y248875D01*
X128405Y248669D01*
X128388Y248464D01*
X128365Y248259D01*
X128338Y248054D01*
X128305Y247851D01*
X128268Y247648D01*
X128225Y247446D01*
X128178Y247245D01*
X128126Y247046D01*
X128069Y246848D01*
X128007Y246651D01*
X127941Y246456D01*
X127869Y246262D01*
X127793Y246071D01*
X127713Y245881D01*
X127627Y245693D01*
X127538Y245508D01*
X127443Y245324D01*
X127345Y245143D01*
X127242Y244965D01*
X127134Y244789D01*
X127022Y244615D01*
X126907Y244445D01*
X126787Y244277D01*
X126663Y244112D01*
X126535Y243951D01*
X126403Y243792D01*
X126267Y243637D01*
X126128Y243485D01*
X125984Y243336D01*
X125838Y243192D01*
X125688Y243050D01*
X125534Y242913D01*
X125377Y242779D01*
X125217Y242649D01*
X125054Y242523D01*
X124888Y242401D01*
X124718Y242283D01*
X124546Y242169D01*
X124372Y242060D01*
X124195Y241954D01*
X124015Y241853D01*
X123832Y241757D01*
X123648Y241665D01*
X123461Y241577D01*
X123272Y241494D01*
X123082Y241416D01*
X122889Y241342D01*
X122695Y241273D01*
X122499Y241209D01*
X122301Y241150D01*
X122103Y241095D01*
X121902Y241046D01*
X121701Y241001D01*
X121499Y240961D01*
X121296Y240926D01*
X121092Y240896D01*
X120887Y240871D01*
X120682Y240851D01*
X120476Y240836D01*
X120270Y240826D01*
X120064Y240821D01*
X119858Y240821D01*
X119652Y240826D01*
X119446Y240836D01*
X119240Y240851D01*
X119035Y240871D01*
X118830Y240896D01*
X118626Y240926D01*
X118423Y240961D01*
X118221Y241001D01*
X118020Y241046D01*
X117819Y241095D01*
X117621Y241150D01*
X117423Y241209D01*
X117227Y241273D01*
X117033Y241342D01*
X116840Y241416D01*
X116650Y241494D01*
X116461Y241577D01*
X116274Y241665D01*
X116090Y241757D01*
X115907Y241853D01*
X115728Y241954D01*
X115550Y242060D01*
X115376Y242169D01*
X115204Y242283D01*
X115034Y242401D01*
X114868Y242523D01*
X114705Y242649D01*
X114545Y242779D01*
X114388Y242913D01*
X114234Y243050D01*
X114084Y243192D01*
X113938Y243336D01*
X113794Y243485D01*
X113655Y243637D01*
X113519Y243792D01*
X113387Y243951D01*
X113259Y244112D01*
X113135Y244277D01*
X113015Y244445D01*
X112900Y244615D01*
X112788Y244789D01*
X112680Y244965D01*
X112577Y245143D01*
X112479Y245324D01*
X112384Y245508D01*
X112295Y245693D01*
X112209Y245881D01*
X112129Y246071D01*
X112053Y246262D01*
X111981Y246456D01*
X111915Y246651D01*
X111853Y246848D01*
X111796Y247046D01*
X111744Y247245D01*
X111697Y247446D01*
X111654Y247648D01*
X111617Y247851D01*
X111584Y248054D01*
X111557Y248259D01*
X111534Y248464D01*
X111517Y248669D01*
X111504Y248875D01*
X111497Y249081D01*
X111494Y249287D01*
X111494Y271300D01*
X94180Y271300D02*
X94180Y240820D01*
X102647Y271300D02*
X85713Y271300D01*
X77670Y252673D02*
X57350Y252673D01*
X67510Y242513D02*
X67510Y262833D01*
M02*
