G04 EAGLE Gerber RS-274X export*
G75*
%MOMM*%
%FSLAX34Y34*%
%LPD*%
%INSoldermask Top*%
%IPPOS*%
%AMOC8*
5,1,8,0,0,1.08239X$1,22.5*%
G01*
%ADD10C,3.251200*%
%ADD11C,2.082800*%
%ADD12P,11.043842X8X22.500000*%
%ADD13C,1.727200*%
%ADD14R,1.350200X2.611200*%
%ADD15R,4.013200X5.283200*%
%ADD16R,1.600200X0.838200*%
%ADD17C,2.489200*%
%ADD18C,2.743200*%
%ADD19R,3.203200X1.203200*%
%ADD20R,1.900000X1.400000*%
%ADD21R,1.700000X1.500000*%
%ADD22C,1.676400*%
%ADD23R,1.219200X1.219200*%
%ADD24C,1.219200*%
%ADD25R,0.903200X1.203200*%
%ADD26C,0.990600*%
%ADD27C,1.727200*%


D10*
X964920Y210960D02*
X995400Y210960D01*
X912900Y210960D02*
X882420Y210960D01*
D11*
X487680Y774700D03*
X513080Y774700D03*
X538480Y774700D03*
X563880Y774700D03*
X589280Y774700D03*
X614680Y774700D03*
X640080Y774700D03*
X665480Y774700D03*
X690880Y774700D03*
X716280Y774700D03*
X741680Y774700D03*
X767080Y774700D03*
X792480Y774700D03*
X817880Y774700D03*
X843280Y774700D03*
X868680Y774700D03*
X894080Y774700D03*
X487680Y678180D03*
X513080Y678180D03*
X538480Y678180D03*
X563880Y678180D03*
X589280Y678180D03*
X614680Y678180D03*
X640080Y678180D03*
X665480Y678180D03*
X690880Y678180D03*
X716280Y678180D03*
X741680Y678180D03*
X767080Y678180D03*
X792480Y678180D03*
X817880Y678180D03*
X843280Y678180D03*
X868680Y678180D03*
X894080Y678180D03*
X995680Y678180D03*
X1021080Y678180D03*
X1046480Y678180D03*
X1071880Y678180D03*
X995680Y774700D03*
X1021080Y774700D03*
X1046480Y774700D03*
X1071880Y774700D03*
D12*
X322580Y232410D03*
X1122680Y232410D03*
X1122680Y932180D03*
X322580Y932180D03*
D13*
X1016000Y515620D02*
X1031240Y515620D01*
X1031240Y565620D02*
X1016000Y565620D01*
D14*
X657860Y878280D03*
X657860Y940360D03*
X683260Y878280D03*
X683260Y940360D03*
X708660Y878280D03*
X708660Y940360D03*
X510540Y878280D03*
X510540Y940360D03*
X535940Y878280D03*
X535940Y940360D03*
X561340Y878280D03*
X561340Y940360D03*
X800100Y878280D03*
X800100Y940360D03*
X825500Y878280D03*
X825500Y940360D03*
X850900Y878280D03*
X850900Y940360D03*
X1026160Y404420D03*
X1026160Y342340D03*
X1000760Y404420D03*
X1000760Y342340D03*
X975360Y404420D03*
X975360Y342340D03*
X942340Y878280D03*
X942340Y940360D03*
X967740Y878280D03*
X967740Y940360D03*
X993140Y878280D03*
X993140Y940360D03*
D15*
X335280Y360680D03*
X335280Y805180D03*
D16*
X1140100Y607720D03*
X1140100Y626720D03*
X1120500Y617220D03*
D17*
X700100Y726440D03*
D18*
X900100Y726440D03*
D19*
X1103160Y421640D03*
X1103160Y447040D03*
X1103160Y472440D03*
X1103160Y396240D03*
X1103160Y370840D03*
X1103160Y345440D03*
D20*
X1115060Y564600D03*
X1115060Y527600D03*
X1148080Y527600D03*
X1148080Y564600D03*
D21*
X482600Y235980D03*
X482600Y205980D03*
X513080Y235980D03*
X513080Y205980D03*
X543560Y235980D03*
X543560Y205980D03*
X574040Y235980D03*
X574040Y205980D03*
X604520Y235980D03*
X604520Y205980D03*
X635000Y235980D03*
X635000Y205980D03*
D20*
X482600Y300440D03*
X482600Y263440D03*
X513080Y300440D03*
X513080Y263440D03*
X543560Y300440D03*
X543560Y263440D03*
X574040Y300440D03*
X574040Y263440D03*
X604520Y300440D03*
X604520Y263440D03*
X635000Y300440D03*
X635000Y263440D03*
D21*
X452120Y235980D03*
X452120Y205980D03*
D20*
X452120Y300440D03*
X452120Y263440D03*
D21*
X665480Y235980D03*
X665480Y205980D03*
X695960Y235980D03*
X695960Y205980D03*
X726440Y235980D03*
X726440Y205980D03*
D20*
X665480Y300440D03*
X665480Y263440D03*
X695960Y300440D03*
X695960Y263440D03*
X726440Y300440D03*
X726440Y263440D03*
D22*
X538480Y650240D03*
X563880Y650240D03*
X589280Y650240D03*
X614680Y650240D03*
X640080Y650240D03*
X665480Y650240D03*
X690880Y650240D03*
X716280Y650240D03*
X741680Y650240D03*
X767080Y650240D03*
X792480Y650240D03*
X817880Y650240D03*
X817880Y802640D03*
X792480Y802640D03*
X767080Y802640D03*
X741680Y802640D03*
X716280Y802640D03*
X690880Y802640D03*
X665480Y802640D03*
X640080Y802640D03*
X614680Y802640D03*
X589280Y802640D03*
X563880Y802640D03*
X513080Y650240D03*
X538480Y802640D03*
X513080Y802640D03*
X487680Y650240D03*
X487680Y802640D03*
X843280Y650240D03*
X843280Y802640D03*
X868680Y650240D03*
X894080Y650240D03*
X919480Y650240D03*
X944880Y650240D03*
X970280Y650240D03*
X995680Y650240D03*
X1021080Y650240D03*
X1046480Y650240D03*
X1071880Y650240D03*
X1071880Y802640D03*
X1046480Y802640D03*
X1021080Y802640D03*
X995680Y802640D03*
X970280Y802640D03*
X944880Y802640D03*
X919480Y802640D03*
X894080Y802640D03*
X868680Y802640D03*
X944880Y675640D03*
X944880Y726440D03*
X944880Y751840D03*
X944880Y701040D03*
X944880Y777240D03*
D23*
X548640Y581660D03*
D24*
X574040Y581660D03*
X599440Y581660D03*
X624840Y581660D03*
D25*
X385360Y503400D03*
X422360Y503400D03*
X385360Y563400D03*
X422360Y563400D03*
D20*
X391160Y433620D03*
X391160Y470620D03*
X421640Y433620D03*
X421640Y470620D03*
D15*
X431800Y932180D03*
X792480Y241300D03*
D25*
X746040Y503400D03*
X783040Y503400D03*
X746040Y563400D03*
X783040Y563400D03*
D20*
X749300Y433620D03*
X749300Y470620D03*
X782320Y433620D03*
X782320Y470620D03*
D25*
X837480Y444980D03*
X874480Y444980D03*
X837480Y504980D03*
X874480Y504980D03*
D20*
X944880Y456480D03*
X944880Y493480D03*
X911860Y456480D03*
X911860Y493480D03*
X627380Y499660D03*
X627380Y536660D03*
X594360Y499660D03*
X594360Y536660D03*
D14*
X891540Y404420D03*
X891540Y342340D03*
X866140Y404420D03*
X866140Y342340D03*
X840740Y404420D03*
X840740Y342340D03*
D26*
X802640Y342900D03*
X800100Y411480D03*
X868680Y627380D03*
X955040Y281940D03*
D27*
X436880Y891540D03*
D26*
X838200Y520700D03*
X843280Y579120D03*
X853440Y365760D03*
X843280Y548640D03*
X574040Y416560D03*
X853440Y383540D03*
X894080Y574040D03*
X914400Y574040D03*
X937260Y533400D03*
X932180Y604520D03*
X792480Y604520D03*
X1079500Y490220D03*
X1031240Y490220D03*
X1026160Y431800D03*
X1000760Y431800D03*
X678180Y589280D03*
X703580Y574040D03*
X942340Y431800D03*
X922020Y388620D03*
X985520Y299720D03*
X962660Y320040D03*
X916940Y431800D03*
X817880Y429260D03*
X767080Y332740D03*
X741680Y345440D03*
X713740Y358140D03*
X690880Y370840D03*
X665480Y383540D03*
X640080Y396240D03*
X533400Y350520D03*
X538480Y617220D03*
X1051560Y617220D03*
X1061720Y386080D03*
X1069340Y414020D03*
X1066800Y591820D03*
X513080Y617220D03*
M02*
