G04 EAGLE Gerber RS-274X export*
G75*
%MOMM*%
%FSLAX34Y34*%
%LPD*%
%IN*%
%IPPOS*%
%AMOC8*
5,1,8,0,0,1.08239X$1,22.5*%
G01*
%ADD10C,0.254000*%


D10*
X31400Y60100D02*
X31514Y57485D01*
X31856Y54891D01*
X32422Y52335D01*
X33209Y49839D01*
X34211Y47421D01*
X35419Y45100D01*
X36825Y42893D01*
X38419Y40816D01*
X40187Y38887D01*
X42116Y37119D01*
X44193Y35525D01*
X46400Y34119D01*
X48721Y32911D01*
X51139Y31909D01*
X53635Y31122D01*
X56191Y30556D01*
X58785Y30214D01*
X61400Y30100D01*
X751400Y30100D01*
X754015Y30214D01*
X756609Y30556D01*
X759165Y31122D01*
X761661Y31909D01*
X764079Y32911D01*
X766400Y34119D01*
X768607Y35525D01*
X770684Y37119D01*
X772613Y38887D01*
X774381Y40816D01*
X775975Y42893D01*
X777381Y45100D01*
X778589Y47421D01*
X779591Y49839D01*
X780378Y52335D01*
X780944Y54891D01*
X781286Y57485D01*
X781400Y60100D01*
X781400Y270100D01*
X781286Y272715D01*
X780944Y275309D01*
X780378Y277865D01*
X779591Y280361D01*
X778589Y282779D01*
X777381Y285100D01*
X775975Y287307D01*
X774381Y289384D01*
X772613Y291313D01*
X770684Y293081D01*
X768607Y294675D01*
X766400Y296081D01*
X764079Y297289D01*
X761661Y298291D01*
X759165Y299078D01*
X756609Y299644D01*
X754015Y299986D01*
X751400Y300100D01*
X61400Y300100D01*
X58785Y299986D01*
X56191Y299644D01*
X53635Y299078D01*
X51139Y298291D01*
X48721Y297289D01*
X46400Y296081D01*
X44193Y294675D01*
X42116Y293081D01*
X40187Y291313D01*
X38419Y289384D01*
X36825Y287307D01*
X35419Y285100D01*
X34211Y282779D01*
X33209Y280361D01*
X32422Y277865D01*
X31856Y275309D01*
X31514Y272715D01*
X31400Y270100D01*
X31400Y60100D01*
X88400Y69543D02*
X88400Y70657D01*
X88327Y71767D01*
X88182Y72871D01*
X87965Y73962D01*
X87677Y75037D01*
X87319Y76091D01*
X86893Y77120D01*
X86401Y78118D01*
X85844Y79082D01*
X85226Y80007D01*
X84548Y80890D01*
X83814Y81727D01*
X83027Y82514D01*
X82190Y83248D01*
X81307Y83926D01*
X80382Y84544D01*
X79418Y85101D01*
X78420Y85593D01*
X77391Y86019D01*
X76337Y86377D01*
X75262Y86665D01*
X74171Y86882D01*
X73067Y87027D01*
X71957Y87100D01*
X70843Y87100D01*
X69733Y87027D01*
X68629Y86882D01*
X67538Y86665D01*
X66463Y86377D01*
X65409Y86019D01*
X64380Y85593D01*
X63382Y85101D01*
X62418Y84544D01*
X61493Y83926D01*
X60610Y83248D01*
X59773Y82514D01*
X58986Y81727D01*
X58252Y80890D01*
X57574Y80007D01*
X56956Y79082D01*
X56399Y78118D01*
X55907Y77120D01*
X55481Y76091D01*
X55123Y75037D01*
X54835Y73962D01*
X54618Y72871D01*
X54473Y71767D01*
X54400Y70657D01*
X54400Y69543D01*
X54473Y68433D01*
X54618Y67329D01*
X54835Y66238D01*
X55123Y65163D01*
X55481Y64109D01*
X55907Y63080D01*
X56399Y62082D01*
X56956Y61118D01*
X57574Y60193D01*
X58252Y59310D01*
X58986Y58473D01*
X59773Y57686D01*
X60610Y56952D01*
X61493Y56274D01*
X62418Y55656D01*
X63382Y55099D01*
X64380Y54607D01*
X65409Y54181D01*
X66463Y53823D01*
X67538Y53535D01*
X68629Y53318D01*
X69733Y53173D01*
X70843Y53100D01*
X71957Y53100D01*
X73067Y53173D01*
X74171Y53318D01*
X75262Y53535D01*
X76337Y53823D01*
X77391Y54181D01*
X78420Y54607D01*
X79418Y55099D01*
X80382Y55656D01*
X81307Y56274D01*
X82190Y56952D01*
X83027Y57686D01*
X83814Y58473D01*
X84548Y59310D01*
X85226Y60193D01*
X85844Y61118D01*
X86401Y62082D01*
X86893Y63080D01*
X87319Y64109D01*
X87677Y65163D01*
X87965Y66238D01*
X88182Y67329D01*
X88327Y68433D01*
X88400Y69543D01*
X758400Y259543D02*
X758400Y260657D01*
X758327Y261767D01*
X758182Y262871D01*
X757965Y263962D01*
X757677Y265037D01*
X757319Y266091D01*
X756893Y267120D01*
X756401Y268118D01*
X755844Y269082D01*
X755226Y270007D01*
X754548Y270890D01*
X753814Y271727D01*
X753027Y272514D01*
X752190Y273248D01*
X751307Y273926D01*
X750382Y274544D01*
X749418Y275101D01*
X748420Y275593D01*
X747391Y276019D01*
X746337Y276377D01*
X745262Y276665D01*
X744171Y276882D01*
X743067Y277027D01*
X741957Y277100D01*
X740843Y277100D01*
X739733Y277027D01*
X738629Y276882D01*
X737538Y276665D01*
X736463Y276377D01*
X735409Y276019D01*
X734380Y275593D01*
X733382Y275101D01*
X732418Y274544D01*
X731493Y273926D01*
X730610Y273248D01*
X729773Y272514D01*
X728986Y271727D01*
X728252Y270890D01*
X727574Y270007D01*
X726956Y269082D01*
X726399Y268118D01*
X725907Y267120D01*
X725481Y266091D01*
X725123Y265037D01*
X724835Y263962D01*
X724618Y262871D01*
X724473Y261767D01*
X724400Y260657D01*
X724400Y259543D01*
X724473Y258433D01*
X724618Y257329D01*
X724835Y256238D01*
X725123Y255163D01*
X725481Y254109D01*
X725907Y253080D01*
X726399Y252082D01*
X726956Y251118D01*
X727574Y250193D01*
X728252Y249310D01*
X728986Y248473D01*
X729773Y247686D01*
X730610Y246952D01*
X731493Y246274D01*
X732418Y245656D01*
X733382Y245099D01*
X734380Y244607D01*
X735409Y244181D01*
X736463Y243823D01*
X737538Y243535D01*
X738629Y243318D01*
X739733Y243173D01*
X740843Y243100D01*
X741957Y243100D01*
X743067Y243173D01*
X744171Y243318D01*
X745262Y243535D01*
X746337Y243823D01*
X747391Y244181D01*
X748420Y244607D01*
X749418Y245099D01*
X750382Y245656D01*
X751307Y246274D01*
X752190Y246952D01*
X753027Y247686D01*
X753814Y248473D01*
X754548Y249310D01*
X755226Y250193D01*
X755844Y251118D01*
X756401Y252082D01*
X756893Y253080D01*
X757319Y254109D01*
X757677Y255163D01*
X757965Y256238D01*
X758182Y257329D01*
X758327Y258433D01*
X758400Y259543D01*
X88400Y259543D02*
X88400Y260657D01*
X88327Y261767D01*
X88182Y262871D01*
X87965Y263962D01*
X87677Y265037D01*
X87319Y266091D01*
X86893Y267120D01*
X86401Y268118D01*
X85844Y269082D01*
X85226Y270007D01*
X84548Y270890D01*
X83814Y271727D01*
X83027Y272514D01*
X82190Y273248D01*
X81307Y273926D01*
X80382Y274544D01*
X79418Y275101D01*
X78420Y275593D01*
X77391Y276019D01*
X76337Y276377D01*
X75262Y276665D01*
X74171Y276882D01*
X73067Y277027D01*
X71957Y277100D01*
X70843Y277100D01*
X69733Y277027D01*
X68629Y276882D01*
X67538Y276665D01*
X66463Y276377D01*
X65409Y276019D01*
X64380Y275593D01*
X63382Y275101D01*
X62418Y274544D01*
X61493Y273926D01*
X60610Y273248D01*
X59773Y272514D01*
X58986Y271727D01*
X58252Y270890D01*
X57574Y270007D01*
X56956Y269082D01*
X56399Y268118D01*
X55907Y267120D01*
X55481Y266091D01*
X55123Y265037D01*
X54835Y263962D01*
X54618Y262871D01*
X54473Y261767D01*
X54400Y260657D01*
X54400Y259543D01*
X54473Y258433D01*
X54618Y257329D01*
X54835Y256238D01*
X55123Y255163D01*
X55481Y254109D01*
X55907Y253080D01*
X56399Y252082D01*
X56956Y251118D01*
X57574Y250193D01*
X58252Y249310D01*
X58986Y248473D01*
X59773Y247686D01*
X60610Y246952D01*
X61493Y246274D01*
X62418Y245656D01*
X63382Y245099D01*
X64380Y244607D01*
X65409Y244181D01*
X66463Y243823D01*
X67538Y243535D01*
X68629Y243318D01*
X69733Y243173D01*
X70843Y243100D01*
X71957Y243100D01*
X73067Y243173D01*
X74171Y243318D01*
X75262Y243535D01*
X76337Y243823D01*
X77391Y244181D01*
X78420Y244607D01*
X79418Y245099D01*
X80382Y245656D01*
X81307Y246274D01*
X82190Y246952D01*
X83027Y247686D01*
X83814Y248473D01*
X84548Y249310D01*
X85226Y250193D01*
X85844Y251118D01*
X86401Y252082D01*
X86893Y253080D01*
X87319Y254109D01*
X87677Y255163D01*
X87965Y256238D01*
X88182Y257329D01*
X88327Y258433D01*
X88400Y259543D01*
X758400Y69543D02*
X758400Y70657D01*
X758327Y71767D01*
X758182Y72871D01*
X757965Y73962D01*
X757677Y75037D01*
X757319Y76091D01*
X756893Y77120D01*
X756401Y78118D01*
X755844Y79082D01*
X755226Y80007D01*
X754548Y80890D01*
X753814Y81727D01*
X753027Y82514D01*
X752190Y83248D01*
X751307Y83926D01*
X750382Y84544D01*
X749418Y85101D01*
X748420Y85593D01*
X747391Y86019D01*
X746337Y86377D01*
X745262Y86665D01*
X744171Y86882D01*
X743067Y87027D01*
X741957Y87100D01*
X740843Y87100D01*
X739733Y87027D01*
X738629Y86882D01*
X737538Y86665D01*
X736463Y86377D01*
X735409Y86019D01*
X734380Y85593D01*
X733382Y85101D01*
X732418Y84544D01*
X731493Y83926D01*
X730610Y83248D01*
X729773Y82514D01*
X728986Y81727D01*
X728252Y80890D01*
X727574Y80007D01*
X726956Y79082D01*
X726399Y78118D01*
X725907Y77120D01*
X725481Y76091D01*
X725123Y75037D01*
X724835Y73962D01*
X724618Y72871D01*
X724473Y71767D01*
X724400Y70657D01*
X724400Y69543D01*
X724473Y68433D01*
X724618Y67329D01*
X724835Y66238D01*
X725123Y65163D01*
X725481Y64109D01*
X725907Y63080D01*
X726399Y62082D01*
X726956Y61118D01*
X727574Y60193D01*
X728252Y59310D01*
X728986Y58473D01*
X729773Y57686D01*
X730610Y56952D01*
X731493Y56274D01*
X732418Y55656D01*
X733382Y55099D01*
X734380Y54607D01*
X735409Y54181D01*
X736463Y53823D01*
X737538Y53535D01*
X738629Y53318D01*
X739733Y53173D01*
X740843Y53100D01*
X741957Y53100D01*
X743067Y53173D01*
X744171Y53318D01*
X745262Y53535D01*
X746337Y53823D01*
X747391Y54181D01*
X748420Y54607D01*
X749418Y55099D01*
X750382Y55656D01*
X751307Y56274D01*
X752190Y56952D01*
X753027Y57686D01*
X753814Y58473D01*
X754548Y59310D01*
X755226Y60193D01*
X755844Y61118D01*
X756401Y62082D01*
X756893Y63080D01*
X757319Y64109D01*
X757677Y65163D01*
X757965Y66238D01*
X758182Y67329D01*
X758327Y68433D01*
X758400Y69543D01*
M02*
