G04 EAGLE Gerber RS-274X export*
G75*
%MOMM*%
%FSLAX34Y34*%
%LPD*%
%INBottom Copper*%
%IPPOS*%
%AMOC8*
5,1,8,0,0,1.08239X$1,22.5*%
G01*

G36*
X1077115Y192258D02*
X1077115Y192258D01*
X1077270Y192258D01*
X1077432Y192278D01*
X1077596Y192289D01*
X1077748Y192318D01*
X1077902Y192337D01*
X1078061Y192377D01*
X1078222Y192408D01*
X1078369Y192456D01*
X1078519Y192494D01*
X1078672Y192554D01*
X1078828Y192605D01*
X1078968Y192670D01*
X1079112Y192727D01*
X1079256Y192806D01*
X1079404Y192876D01*
X1079535Y192958D01*
X1079671Y193033D01*
X1079804Y193129D01*
X1079943Y193217D01*
X1080062Y193315D01*
X1080188Y193406D01*
X1080307Y193518D01*
X1080434Y193622D01*
X1080540Y193735D01*
X1080653Y193841D01*
X1080758Y193967D01*
X1080870Y194086D01*
X1080962Y194212D01*
X1081061Y194331D01*
X1081149Y194469D01*
X1081245Y194601D01*
X1081320Y194737D01*
X1081404Y194868D01*
X1081474Y195016D01*
X1081553Y195159D01*
X1081610Y195303D01*
X1081677Y195443D01*
X1081728Y195599D01*
X1081788Y195752D01*
X1081827Y195902D01*
X1081876Y196049D01*
X1081907Y196210D01*
X1081948Y196368D01*
X1081967Y196522D01*
X1081997Y196674D01*
X1082007Y196833D01*
X1082029Y197000D01*
X1082029Y197169D01*
X1082039Y197328D01*
X1082039Y966838D01*
X1082030Y966993D01*
X1082030Y967148D01*
X1082010Y967310D01*
X1081999Y967474D01*
X1081970Y967626D01*
X1081951Y967780D01*
X1081911Y967939D01*
X1081880Y968100D01*
X1081832Y968247D01*
X1081794Y968397D01*
X1081734Y968550D01*
X1081683Y968706D01*
X1081618Y968846D01*
X1081561Y968990D01*
X1081482Y969134D01*
X1081412Y969282D01*
X1081330Y969413D01*
X1081255Y969549D01*
X1081159Y969682D01*
X1081071Y969821D01*
X1080973Y969940D01*
X1080882Y970066D01*
X1080770Y970185D01*
X1080666Y970312D01*
X1080553Y970418D01*
X1080447Y970531D01*
X1080321Y970636D01*
X1080202Y970748D01*
X1080076Y970840D01*
X1079957Y970939D01*
X1079819Y971027D01*
X1079687Y971123D01*
X1079551Y971198D01*
X1079420Y971282D01*
X1079272Y971352D01*
X1079129Y971431D01*
X1078985Y971488D01*
X1078845Y971555D01*
X1078689Y971606D01*
X1078536Y971666D01*
X1078386Y971705D01*
X1078239Y971754D01*
X1078078Y971785D01*
X1077920Y971826D01*
X1077766Y971845D01*
X1077614Y971875D01*
X1077455Y971885D01*
X1077288Y971907D01*
X1077119Y971907D01*
X1076960Y971917D01*
X393700Y971917D01*
X393546Y971908D01*
X393390Y971908D01*
X393228Y971888D01*
X393064Y971877D01*
X392912Y971848D01*
X392758Y971829D01*
X392599Y971789D01*
X392438Y971758D01*
X392291Y971710D01*
X392141Y971672D01*
X391988Y971612D01*
X391832Y971561D01*
X391692Y971496D01*
X391548Y971439D01*
X391404Y971360D01*
X391256Y971290D01*
X391125Y971208D01*
X390989Y971133D01*
X390856Y971037D01*
X390717Y970949D01*
X390598Y970851D01*
X390472Y970760D01*
X390353Y970648D01*
X390226Y970544D01*
X390120Y970431D01*
X390007Y970325D01*
X389902Y970199D01*
X389790Y970080D01*
X389698Y969954D01*
X389599Y969835D01*
X389511Y969697D01*
X389415Y969565D01*
X389340Y969429D01*
X389256Y969298D01*
X389186Y969150D01*
X389107Y969007D01*
X389050Y968863D01*
X388983Y968723D01*
X388932Y968567D01*
X388872Y968414D01*
X388833Y968264D01*
X388785Y968117D01*
X388753Y967956D01*
X388712Y967798D01*
X388693Y967644D01*
X388663Y967492D01*
X388653Y967333D01*
X388631Y967166D01*
X388631Y966997D01*
X388621Y966838D01*
X388621Y197328D01*
X388630Y197173D01*
X388630Y197018D01*
X388650Y196856D01*
X388661Y196692D01*
X388690Y196540D01*
X388709Y196386D01*
X388749Y196227D01*
X388780Y196066D01*
X388828Y195919D01*
X388866Y195769D01*
X388926Y195616D01*
X388977Y195460D01*
X389043Y195320D01*
X389099Y195176D01*
X389178Y195032D01*
X389248Y194884D01*
X389330Y194753D01*
X389405Y194617D01*
X389501Y194484D01*
X389589Y194345D01*
X389687Y194226D01*
X389778Y194100D01*
X389890Y193981D01*
X389994Y193854D01*
X390107Y193748D01*
X390213Y193635D01*
X390339Y193530D01*
X390458Y193418D01*
X390584Y193326D01*
X390703Y193227D01*
X390841Y193139D01*
X390974Y193043D01*
X391109Y192968D01*
X391240Y192884D01*
X391388Y192814D01*
X391531Y192735D01*
X391675Y192678D01*
X391815Y192611D01*
X391971Y192560D01*
X392124Y192500D01*
X392274Y192461D01*
X392421Y192412D01*
X392582Y192381D01*
X392740Y192340D01*
X392894Y192321D01*
X393046Y192291D01*
X393205Y192281D01*
X393372Y192259D01*
X393541Y192259D01*
X393700Y192249D01*
X1076960Y192249D01*
X1077115Y192258D01*
G37*
G36*
X1077115Y152410D02*
X1077115Y152410D01*
X1077270Y152410D01*
X1077432Y152430D01*
X1077596Y152441D01*
X1077748Y152470D01*
X1077902Y152489D01*
X1078061Y152529D01*
X1078222Y152560D01*
X1078369Y152608D01*
X1078519Y152646D01*
X1078672Y152706D01*
X1078828Y152757D01*
X1078968Y152823D01*
X1079112Y152879D01*
X1079256Y152958D01*
X1079404Y153028D01*
X1079535Y153110D01*
X1079671Y153185D01*
X1079804Y153281D01*
X1079943Y153369D01*
X1080062Y153467D01*
X1080188Y153558D01*
X1080307Y153670D01*
X1080434Y153774D01*
X1080540Y153887D01*
X1080653Y153993D01*
X1080758Y154119D01*
X1080870Y154238D01*
X1080962Y154364D01*
X1081061Y154483D01*
X1081149Y154621D01*
X1081245Y154754D01*
X1081320Y154889D01*
X1081404Y155020D01*
X1081474Y155168D01*
X1081553Y155311D01*
X1081610Y155455D01*
X1081677Y155595D01*
X1081728Y155751D01*
X1081788Y155904D01*
X1081827Y156054D01*
X1081876Y156201D01*
X1081907Y156362D01*
X1081948Y156520D01*
X1081967Y156674D01*
X1081997Y156826D01*
X1082007Y156985D01*
X1082029Y157152D01*
X1082029Y157321D01*
X1082039Y157480D01*
X1082039Y166838D01*
X1082030Y166993D01*
X1082030Y167148D01*
X1082010Y167310D01*
X1081999Y167474D01*
X1081970Y167626D01*
X1081951Y167780D01*
X1081911Y167939D01*
X1081880Y168100D01*
X1081832Y168247D01*
X1081794Y168397D01*
X1081734Y168550D01*
X1081683Y168706D01*
X1081618Y168846D01*
X1081561Y168990D01*
X1081482Y169134D01*
X1081412Y169282D01*
X1081330Y169413D01*
X1081255Y169549D01*
X1081159Y169682D01*
X1081071Y169821D01*
X1080973Y169940D01*
X1080882Y170066D01*
X1080770Y170185D01*
X1080666Y170312D01*
X1080553Y170418D01*
X1080447Y170531D01*
X1080321Y170636D01*
X1080202Y170748D01*
X1080076Y170840D01*
X1079957Y170939D01*
X1079819Y171027D01*
X1079687Y171123D01*
X1079551Y171198D01*
X1079420Y171282D01*
X1079272Y171352D01*
X1079129Y171431D01*
X1078985Y171488D01*
X1078845Y171555D01*
X1078689Y171606D01*
X1078536Y171666D01*
X1078386Y171705D01*
X1078239Y171754D01*
X1078078Y171785D01*
X1077920Y171826D01*
X1077766Y171845D01*
X1077614Y171875D01*
X1077455Y171885D01*
X1077288Y171907D01*
X1077119Y171907D01*
X1076960Y171917D01*
X393700Y171917D01*
X393546Y171908D01*
X393390Y171908D01*
X393228Y171888D01*
X393064Y171877D01*
X392912Y171848D01*
X392758Y171829D01*
X392599Y171789D01*
X392438Y171758D01*
X392291Y171710D01*
X392141Y171672D01*
X391988Y171612D01*
X391832Y171561D01*
X391692Y171496D01*
X391548Y171439D01*
X391404Y171360D01*
X391256Y171290D01*
X391125Y171208D01*
X390989Y171133D01*
X390856Y171037D01*
X390717Y170949D01*
X390598Y170851D01*
X390472Y170760D01*
X390353Y170648D01*
X390226Y170544D01*
X390120Y170431D01*
X390007Y170325D01*
X389902Y170199D01*
X389790Y170080D01*
X389698Y169954D01*
X389599Y169835D01*
X389511Y169697D01*
X389415Y169565D01*
X389340Y169429D01*
X389256Y169298D01*
X389186Y169150D01*
X389107Y169007D01*
X389050Y168863D01*
X388983Y168723D01*
X388932Y168567D01*
X388872Y168414D01*
X388833Y168264D01*
X388785Y168117D01*
X388753Y167956D01*
X388712Y167798D01*
X388693Y167644D01*
X388663Y167492D01*
X388653Y167333D01*
X388631Y167166D01*
X388631Y166997D01*
X388621Y166838D01*
X388621Y157480D01*
X388630Y157326D01*
X388630Y157170D01*
X388650Y157008D01*
X388661Y156844D01*
X388690Y156692D01*
X388709Y156538D01*
X388749Y156379D01*
X388780Y156218D01*
X388828Y156071D01*
X388866Y155921D01*
X388926Y155768D01*
X388977Y155612D01*
X389043Y155472D01*
X389099Y155328D01*
X389178Y155184D01*
X389248Y155036D01*
X389330Y154905D01*
X389405Y154769D01*
X389501Y154636D01*
X389589Y154497D01*
X389687Y154378D01*
X389778Y154252D01*
X389890Y154133D01*
X389994Y154006D01*
X390107Y153900D01*
X390213Y153787D01*
X390339Y153682D01*
X390458Y153570D01*
X390584Y153478D01*
X390703Y153379D01*
X390841Y153291D01*
X390974Y153195D01*
X391109Y153120D01*
X391240Y153036D01*
X391388Y152966D01*
X391531Y152887D01*
X391675Y152830D01*
X391815Y152763D01*
X391971Y152712D01*
X392124Y152652D01*
X392274Y152613D01*
X392421Y152565D01*
X392582Y152533D01*
X392740Y152492D01*
X392894Y152473D01*
X393046Y152443D01*
X393205Y152433D01*
X393372Y152411D01*
X393541Y152411D01*
X393700Y152401D01*
X1076960Y152401D01*
X1077115Y152410D01*
G37*
G36*
X1077115Y992258D02*
X1077115Y992258D01*
X1077270Y992258D01*
X1077432Y992278D01*
X1077596Y992289D01*
X1077748Y992318D01*
X1077902Y992337D01*
X1078061Y992377D01*
X1078222Y992408D01*
X1078369Y992456D01*
X1078519Y992494D01*
X1078672Y992554D01*
X1078828Y992605D01*
X1078968Y992670D01*
X1079112Y992727D01*
X1079256Y992806D01*
X1079404Y992876D01*
X1079535Y992958D01*
X1079671Y993033D01*
X1079804Y993129D01*
X1079943Y993217D01*
X1080062Y993315D01*
X1080188Y993406D01*
X1080307Y993518D01*
X1080434Y993622D01*
X1080540Y993735D01*
X1080653Y993841D01*
X1080758Y993967D01*
X1080870Y994086D01*
X1080962Y994212D01*
X1081061Y994331D01*
X1081149Y994469D01*
X1081245Y994601D01*
X1081320Y994737D01*
X1081404Y994868D01*
X1081474Y995016D01*
X1081553Y995159D01*
X1081610Y995303D01*
X1081677Y995443D01*
X1081728Y995599D01*
X1081788Y995752D01*
X1081827Y995902D01*
X1081876Y996049D01*
X1081907Y996210D01*
X1081948Y996368D01*
X1081967Y996522D01*
X1081997Y996674D01*
X1082007Y996833D01*
X1082029Y997000D01*
X1082029Y997169D01*
X1082039Y997328D01*
X1082039Y1005840D01*
X1082030Y1005991D01*
X1082030Y1006024D01*
X1082030Y1006026D01*
X1082030Y1006150D01*
X1082010Y1006312D01*
X1081999Y1006476D01*
X1081970Y1006628D01*
X1081951Y1006782D01*
X1081911Y1006941D01*
X1081880Y1007102D01*
X1081832Y1007249D01*
X1081794Y1007399D01*
X1081734Y1007552D01*
X1081683Y1007708D01*
X1081618Y1007848D01*
X1081561Y1007992D01*
X1081482Y1008136D01*
X1081412Y1008284D01*
X1081330Y1008415D01*
X1081255Y1008551D01*
X1081159Y1008684D01*
X1081071Y1008823D01*
X1080973Y1008942D01*
X1080882Y1009068D01*
X1080770Y1009187D01*
X1080666Y1009314D01*
X1080553Y1009420D01*
X1080447Y1009533D01*
X1080321Y1009638D01*
X1080202Y1009750D01*
X1080076Y1009842D01*
X1079957Y1009941D01*
X1079819Y1010029D01*
X1079687Y1010125D01*
X1079551Y1010200D01*
X1079420Y1010284D01*
X1079272Y1010354D01*
X1079129Y1010433D01*
X1078985Y1010490D01*
X1078845Y1010557D01*
X1078689Y1010608D01*
X1078536Y1010668D01*
X1078386Y1010707D01*
X1078239Y1010756D01*
X1078078Y1010787D01*
X1077920Y1010828D01*
X1077766Y1010847D01*
X1077614Y1010877D01*
X1077455Y1010887D01*
X1077288Y1010909D01*
X1077119Y1010909D01*
X1076960Y1010919D01*
X393700Y1010919D01*
X393546Y1010910D01*
X393390Y1010910D01*
X393228Y1010890D01*
X393064Y1010879D01*
X392912Y1010850D01*
X392758Y1010831D01*
X392599Y1010791D01*
X392438Y1010760D01*
X392291Y1010712D01*
X392141Y1010674D01*
X391988Y1010614D01*
X391832Y1010563D01*
X391692Y1010498D01*
X391548Y1010441D01*
X391404Y1010362D01*
X391256Y1010292D01*
X391125Y1010210D01*
X390989Y1010135D01*
X390856Y1010039D01*
X390717Y1009951D01*
X390598Y1009853D01*
X390472Y1009762D01*
X390353Y1009650D01*
X390226Y1009546D01*
X390120Y1009433D01*
X390007Y1009327D01*
X389902Y1009201D01*
X389790Y1009082D01*
X389698Y1008956D01*
X389599Y1008837D01*
X389511Y1008699D01*
X389415Y1008567D01*
X389340Y1008431D01*
X389256Y1008300D01*
X389186Y1008152D01*
X389107Y1008009D01*
X389050Y1007865D01*
X388983Y1007725D01*
X388932Y1007569D01*
X388872Y1007416D01*
X388833Y1007266D01*
X388785Y1007119D01*
X388753Y1006958D01*
X388712Y1006800D01*
X388693Y1006646D01*
X388663Y1006494D01*
X388653Y1006335D01*
X388631Y1006168D01*
X388631Y1005999D01*
X388621Y1005840D01*
X388621Y997328D01*
X388630Y997173D01*
X388630Y997018D01*
X388650Y996856D01*
X388661Y996692D01*
X388690Y996540D01*
X388709Y996386D01*
X388749Y996227D01*
X388780Y996066D01*
X388828Y995919D01*
X388866Y995769D01*
X388926Y995616D01*
X388977Y995460D01*
X389043Y995320D01*
X389099Y995176D01*
X389178Y995032D01*
X389248Y994884D01*
X389330Y994753D01*
X389405Y994617D01*
X389501Y994484D01*
X389589Y994345D01*
X389687Y994226D01*
X389778Y994100D01*
X389890Y993981D01*
X389994Y993854D01*
X390107Y993748D01*
X390213Y993635D01*
X390339Y993530D01*
X390458Y993418D01*
X390584Y993326D01*
X390703Y993227D01*
X390841Y993139D01*
X390974Y993043D01*
X391109Y992968D01*
X391240Y992884D01*
X391388Y992814D01*
X391531Y992735D01*
X391675Y992678D01*
X391815Y992611D01*
X391971Y992560D01*
X392124Y992500D01*
X392274Y992461D01*
X392421Y992412D01*
X392582Y992381D01*
X392740Y992340D01*
X392894Y992321D01*
X393046Y992291D01*
X393205Y992281D01*
X393372Y992259D01*
X393541Y992259D01*
X393700Y992249D01*
X1076960Y992249D01*
X1077115Y992258D01*
G37*
M02*
