G04 EAGLE Gerber RS-274X export*
G75*
%MOMM*%
%FSLAX34Y34*%
%LPD*%
%INTop Copper*%
%IPPOS*%
%AMOC8*
5,1,8,0,0,1.08239X$1,22.5*%
G01*

G36*
X1072133Y192267D02*
X1072133Y192267D01*
X1072386Y192281D01*
X1072414Y192287D01*
X1072444Y192289D01*
X1072692Y192342D01*
X1072940Y192392D01*
X1072968Y192402D01*
X1072996Y192408D01*
X1073233Y192495D01*
X1073473Y192580D01*
X1073499Y192593D01*
X1073527Y192604D01*
X1073749Y192723D01*
X1073974Y192841D01*
X1073998Y192858D01*
X1074024Y192872D01*
X1074227Y193022D01*
X1074434Y193170D01*
X1074455Y193191D01*
X1074479Y193208D01*
X1074659Y193386D01*
X1074842Y193561D01*
X1074860Y193584D01*
X1074881Y193605D01*
X1075035Y193807D01*
X1075191Y194006D01*
X1075206Y194031D01*
X1075224Y194054D01*
X1075348Y194275D01*
X1075475Y194495D01*
X1075486Y194522D01*
X1075500Y194548D01*
X1075591Y194784D01*
X1075686Y195019D01*
X1075693Y195048D01*
X1075703Y195075D01*
X1075760Y195322D01*
X1075821Y195568D01*
X1075823Y195594D01*
X1075831Y195626D01*
X1075879Y196189D01*
X1075877Y196222D01*
X1075879Y196248D01*
X1075879Y967918D01*
X1075861Y968171D01*
X1075847Y968424D01*
X1075841Y968452D01*
X1075839Y968482D01*
X1075786Y968730D01*
X1075736Y968978D01*
X1075726Y969006D01*
X1075720Y969034D01*
X1075633Y969271D01*
X1075548Y969511D01*
X1075535Y969537D01*
X1075524Y969565D01*
X1075405Y969787D01*
X1075287Y970012D01*
X1075270Y970036D01*
X1075256Y970062D01*
X1075106Y970265D01*
X1074958Y970472D01*
X1074937Y970493D01*
X1074920Y970517D01*
X1074742Y970697D01*
X1074567Y970880D01*
X1074544Y970898D01*
X1074523Y970919D01*
X1074321Y971073D01*
X1074122Y971229D01*
X1074097Y971244D01*
X1074074Y971262D01*
X1073853Y971386D01*
X1073633Y971513D01*
X1073606Y971524D01*
X1073580Y971538D01*
X1073344Y971629D01*
X1073109Y971724D01*
X1073080Y971731D01*
X1073053Y971741D01*
X1072806Y971798D01*
X1072560Y971859D01*
X1072534Y971861D01*
X1072502Y971869D01*
X1071939Y971917D01*
X1071906Y971915D01*
X1071880Y971917D01*
X393700Y971917D01*
X393447Y971899D01*
X393194Y971885D01*
X393166Y971879D01*
X393136Y971877D01*
X392888Y971824D01*
X392640Y971774D01*
X392612Y971764D01*
X392584Y971758D01*
X392347Y971671D01*
X392107Y971586D01*
X392081Y971573D01*
X392053Y971562D01*
X391831Y971443D01*
X391606Y971325D01*
X391582Y971308D01*
X391556Y971294D01*
X391353Y971144D01*
X391146Y970996D01*
X391125Y970975D01*
X391101Y970958D01*
X390921Y970780D01*
X390738Y970605D01*
X390720Y970582D01*
X390699Y970561D01*
X390545Y970359D01*
X390389Y970160D01*
X390374Y970135D01*
X390356Y970112D01*
X390232Y969891D01*
X390105Y969671D01*
X390094Y969644D01*
X390080Y969618D01*
X389989Y969382D01*
X389894Y969147D01*
X389887Y969118D01*
X389877Y969091D01*
X389820Y968844D01*
X389759Y968598D01*
X389757Y968572D01*
X389749Y968540D01*
X389701Y967977D01*
X389703Y967947D01*
X389701Y967927D01*
X389701Y967925D01*
X389701Y967918D01*
X389701Y196248D01*
X389719Y195995D01*
X389733Y195742D01*
X389739Y195714D01*
X389741Y195684D01*
X389794Y195436D01*
X389844Y195188D01*
X389854Y195160D01*
X389860Y195132D01*
X389947Y194895D01*
X390032Y194655D01*
X390045Y194629D01*
X390056Y194601D01*
X390175Y194379D01*
X390293Y194154D01*
X390310Y194130D01*
X390324Y194104D01*
X390474Y193901D01*
X390622Y193694D01*
X390643Y193673D01*
X390660Y193649D01*
X390838Y193469D01*
X391013Y193286D01*
X391036Y193268D01*
X391057Y193247D01*
X391259Y193093D01*
X391458Y192937D01*
X391483Y192922D01*
X391506Y192904D01*
X391727Y192780D01*
X391947Y192653D01*
X391974Y192642D01*
X392000Y192628D01*
X392236Y192537D01*
X392471Y192442D01*
X392500Y192435D01*
X392527Y192425D01*
X392774Y192368D01*
X393020Y192307D01*
X393046Y192305D01*
X393078Y192297D01*
X393641Y192249D01*
X393674Y192251D01*
X393700Y192249D01*
X1071880Y192249D01*
X1072133Y192267D01*
G37*
G36*
X1072133Y156039D02*
X1072133Y156039D01*
X1072386Y156053D01*
X1072414Y156059D01*
X1072444Y156061D01*
X1072692Y156114D01*
X1072940Y156164D01*
X1072968Y156174D01*
X1072996Y156180D01*
X1073233Y156267D01*
X1073473Y156352D01*
X1073499Y156365D01*
X1073527Y156376D01*
X1073749Y156495D01*
X1073974Y156613D01*
X1073998Y156630D01*
X1074024Y156644D01*
X1074227Y156794D01*
X1074434Y156942D01*
X1074455Y156963D01*
X1074479Y156980D01*
X1074659Y157158D01*
X1074842Y157333D01*
X1074860Y157356D01*
X1074881Y157377D01*
X1075035Y157579D01*
X1075191Y157778D01*
X1075206Y157803D01*
X1075224Y157826D01*
X1075348Y158047D01*
X1075475Y158267D01*
X1075486Y158294D01*
X1075500Y158320D01*
X1075591Y158556D01*
X1075686Y158791D01*
X1075693Y158820D01*
X1075703Y158847D01*
X1075760Y159094D01*
X1075821Y159340D01*
X1075823Y159366D01*
X1075831Y159398D01*
X1075879Y159961D01*
X1075877Y159994D01*
X1075879Y160020D01*
X1075879Y167918D01*
X1075861Y168171D01*
X1075847Y168424D01*
X1075841Y168452D01*
X1075839Y168482D01*
X1075786Y168730D01*
X1075736Y168978D01*
X1075726Y169006D01*
X1075720Y169034D01*
X1075633Y169271D01*
X1075548Y169511D01*
X1075535Y169537D01*
X1075524Y169565D01*
X1075405Y169787D01*
X1075287Y170012D01*
X1075270Y170036D01*
X1075256Y170062D01*
X1075106Y170265D01*
X1074958Y170472D01*
X1074937Y170493D01*
X1074920Y170517D01*
X1074742Y170697D01*
X1074567Y170880D01*
X1074544Y170898D01*
X1074523Y170919D01*
X1074321Y171073D01*
X1074122Y171229D01*
X1074097Y171244D01*
X1074074Y171262D01*
X1073853Y171386D01*
X1073633Y171513D01*
X1073606Y171524D01*
X1073580Y171538D01*
X1073344Y171629D01*
X1073109Y171724D01*
X1073080Y171731D01*
X1073053Y171741D01*
X1072806Y171798D01*
X1072560Y171859D01*
X1072534Y171861D01*
X1072502Y171869D01*
X1071939Y171917D01*
X1071906Y171915D01*
X1071880Y171917D01*
X393700Y171917D01*
X393447Y171899D01*
X393194Y171885D01*
X393166Y171879D01*
X393136Y171877D01*
X392888Y171824D01*
X392640Y171774D01*
X392612Y171764D01*
X392584Y171758D01*
X392347Y171671D01*
X392107Y171586D01*
X392081Y171573D01*
X392053Y171562D01*
X391831Y171443D01*
X391606Y171325D01*
X391582Y171308D01*
X391556Y171294D01*
X391353Y171144D01*
X391146Y170996D01*
X391125Y170975D01*
X391101Y170958D01*
X390921Y170780D01*
X390738Y170605D01*
X390720Y170582D01*
X390699Y170561D01*
X390545Y170359D01*
X390389Y170160D01*
X390374Y170135D01*
X390356Y170112D01*
X390232Y169891D01*
X390105Y169671D01*
X390094Y169644D01*
X390080Y169618D01*
X389989Y169382D01*
X389894Y169147D01*
X389887Y169118D01*
X389877Y169091D01*
X389820Y168844D01*
X389759Y168598D01*
X389757Y168572D01*
X389749Y168540D01*
X389701Y167977D01*
X389703Y167944D01*
X389701Y167918D01*
X389701Y160020D01*
X389719Y159767D01*
X389733Y159514D01*
X389739Y159486D01*
X389741Y159456D01*
X389794Y159208D01*
X389844Y158960D01*
X389854Y158932D01*
X389860Y158904D01*
X389947Y158667D01*
X390032Y158427D01*
X390045Y158401D01*
X390056Y158373D01*
X390175Y158151D01*
X390293Y157926D01*
X390310Y157902D01*
X390324Y157876D01*
X390474Y157673D01*
X390622Y157466D01*
X390643Y157445D01*
X390660Y157421D01*
X390838Y157241D01*
X391013Y157058D01*
X391036Y157040D01*
X391057Y157019D01*
X391259Y156865D01*
X391458Y156709D01*
X391483Y156694D01*
X391506Y156676D01*
X391727Y156552D01*
X391947Y156425D01*
X391974Y156414D01*
X392000Y156400D01*
X392236Y156309D01*
X392471Y156214D01*
X392500Y156207D01*
X392527Y156197D01*
X392774Y156140D01*
X393020Y156079D01*
X393046Y156077D01*
X393078Y156069D01*
X393641Y156021D01*
X393674Y156023D01*
X393700Y156021D01*
X1071880Y156021D01*
X1072133Y156039D01*
G37*
G36*
X1072133Y992267D02*
X1072133Y992267D01*
X1072386Y992281D01*
X1072414Y992287D01*
X1072444Y992289D01*
X1072692Y992342D01*
X1072940Y992392D01*
X1072968Y992402D01*
X1072996Y992408D01*
X1073233Y992495D01*
X1073473Y992580D01*
X1073499Y992593D01*
X1073527Y992604D01*
X1073749Y992723D01*
X1073974Y992841D01*
X1073998Y992858D01*
X1074024Y992872D01*
X1074227Y993022D01*
X1074434Y993170D01*
X1074455Y993191D01*
X1074479Y993208D01*
X1074659Y993386D01*
X1074842Y993561D01*
X1074860Y993584D01*
X1074881Y993605D01*
X1075035Y993807D01*
X1075191Y994006D01*
X1075206Y994031D01*
X1075224Y994054D01*
X1075348Y994275D01*
X1075475Y994495D01*
X1075486Y994522D01*
X1075500Y994548D01*
X1075591Y994784D01*
X1075686Y995019D01*
X1075693Y995048D01*
X1075703Y995075D01*
X1075760Y995322D01*
X1075821Y995568D01*
X1075823Y995594D01*
X1075831Y995626D01*
X1075879Y996189D01*
X1075877Y996222D01*
X1075879Y996248D01*
X1075879Y1000760D01*
X1075861Y1001013D01*
X1075847Y1001266D01*
X1075841Y1001294D01*
X1075839Y1001324D01*
X1075786Y1001572D01*
X1075736Y1001820D01*
X1075726Y1001848D01*
X1075720Y1001876D01*
X1075633Y1002113D01*
X1075548Y1002353D01*
X1075535Y1002379D01*
X1075524Y1002407D01*
X1075405Y1002629D01*
X1075287Y1002854D01*
X1075270Y1002878D01*
X1075256Y1002904D01*
X1075106Y1003107D01*
X1074958Y1003314D01*
X1074937Y1003335D01*
X1074920Y1003359D01*
X1074742Y1003539D01*
X1074567Y1003722D01*
X1074544Y1003740D01*
X1074523Y1003761D01*
X1074321Y1003915D01*
X1074122Y1004071D01*
X1074097Y1004086D01*
X1074074Y1004104D01*
X1073853Y1004228D01*
X1073633Y1004355D01*
X1073606Y1004366D01*
X1073580Y1004380D01*
X1073344Y1004471D01*
X1073109Y1004566D01*
X1073080Y1004573D01*
X1073053Y1004583D01*
X1072806Y1004640D01*
X1072560Y1004701D01*
X1072534Y1004703D01*
X1072502Y1004711D01*
X1071939Y1004759D01*
X1071906Y1004757D01*
X1071880Y1004759D01*
X393700Y1004759D01*
X393447Y1004741D01*
X393194Y1004727D01*
X393166Y1004721D01*
X393136Y1004719D01*
X392888Y1004666D01*
X392640Y1004616D01*
X392612Y1004606D01*
X392584Y1004600D01*
X392347Y1004513D01*
X392107Y1004428D01*
X392081Y1004415D01*
X392053Y1004404D01*
X391831Y1004285D01*
X391606Y1004167D01*
X391582Y1004150D01*
X391556Y1004136D01*
X391353Y1003986D01*
X391146Y1003838D01*
X391125Y1003817D01*
X391101Y1003800D01*
X390921Y1003622D01*
X390738Y1003447D01*
X390720Y1003424D01*
X390699Y1003403D01*
X390545Y1003201D01*
X390389Y1003002D01*
X390374Y1002977D01*
X390356Y1002954D01*
X390232Y1002733D01*
X390105Y1002513D01*
X390094Y1002486D01*
X390080Y1002460D01*
X389989Y1002224D01*
X389894Y1001989D01*
X389887Y1001960D01*
X389877Y1001933D01*
X389820Y1001686D01*
X389759Y1001440D01*
X389757Y1001414D01*
X389749Y1001382D01*
X389701Y1000819D01*
X389703Y1000786D01*
X389701Y1000760D01*
X389701Y996248D01*
X389719Y995995D01*
X389733Y995742D01*
X389739Y995714D01*
X389741Y995684D01*
X389794Y995436D01*
X389844Y995188D01*
X389854Y995160D01*
X389860Y995132D01*
X389947Y994895D01*
X390032Y994655D01*
X390045Y994629D01*
X390056Y994601D01*
X390175Y994379D01*
X390293Y994154D01*
X390310Y994130D01*
X390324Y994104D01*
X390474Y993901D01*
X390622Y993694D01*
X390643Y993673D01*
X390660Y993649D01*
X390838Y993469D01*
X391013Y993286D01*
X391036Y993268D01*
X391057Y993247D01*
X391259Y993093D01*
X391458Y992937D01*
X391483Y992922D01*
X391506Y992904D01*
X391727Y992780D01*
X391947Y992653D01*
X391974Y992642D01*
X392000Y992628D01*
X392236Y992537D01*
X392471Y992442D01*
X392500Y992435D01*
X392527Y992425D01*
X392774Y992368D01*
X393020Y992307D01*
X393046Y992305D01*
X393078Y992297D01*
X393641Y992249D01*
X393674Y992251D01*
X393700Y992249D01*
X1071880Y992249D01*
X1072133Y992267D01*
G37*
M02*
