G04 EAGLE Gerber RS-274X export*
G75*
%MOMM*%
%FSLAX34Y34*%
%LPD*%
%IN*%
%IPPOS*%
%AMOC8*
5,1,8,0,0,1.08239X$1,22.5*%
G01*
%ADD10C,0.254000*%


D10*
X172798Y182083D02*
X1142798Y182083D01*
X1154279Y184367D01*
X1164011Y190870D01*
X1170514Y200603D01*
X1172798Y212083D01*
X1172800Y952083D01*
X1170516Y963564D01*
X1164013Y973296D01*
X1154281Y979799D01*
X1142800Y982083D01*
X172798Y982083D01*
X172798Y832083D01*
X262798Y832083D01*
X263584Y835975D01*
X265727Y839154D01*
X268906Y841297D01*
X272798Y842083D01*
X276691Y841297D01*
X279869Y839154D01*
X282012Y835975D01*
X282798Y832083D01*
X282012Y828190D01*
X279869Y825012D01*
X276690Y822869D01*
X272798Y822083D01*
X272798Y632083D01*
X275478Y622083D01*
X282798Y614763D01*
X292798Y612083D01*
X302798Y614763D01*
X310119Y622083D01*
X312798Y632083D01*
X312798Y747083D01*
X313584Y750975D01*
X315727Y754154D01*
X318906Y756297D01*
X322798Y757083D01*
X342798Y757083D01*
X346690Y756297D01*
X349869Y754154D01*
X352012Y750975D01*
X352798Y747083D01*
X352798Y417083D01*
X352012Y413191D01*
X349869Y410012D01*
X346690Y407869D01*
X342798Y407083D01*
X322798Y407083D01*
X318906Y407869D01*
X315727Y410012D01*
X313584Y413191D01*
X312798Y417083D01*
X312798Y532083D01*
X310119Y542083D01*
X302798Y549404D01*
X292798Y552083D01*
X282798Y549404D01*
X275478Y542083D01*
X272798Y532083D01*
X272798Y342083D01*
X278354Y340398D01*
X282037Y335910D01*
X282606Y330132D01*
X279869Y325012D01*
X274749Y322275D01*
X268971Y322844D01*
X264483Y326527D01*
X262798Y332083D01*
X172798Y332083D01*
X172798Y182083D01*
X392430Y359010D02*
X635430Y359010D01*
X635430Y719010D01*
X392430Y719010D01*
X392430Y359010D01*
X674370Y357740D02*
X917370Y357740D01*
X917370Y717740D01*
X674370Y717740D01*
X674370Y357740D01*
X205798Y232083D02*
X208076Y223583D01*
X214298Y217361D01*
X222798Y215083D01*
X231298Y217361D01*
X237520Y223583D01*
X239798Y232083D01*
X237520Y240583D01*
X231298Y246805D01*
X222798Y249083D01*
X214298Y246805D01*
X208076Y240583D01*
X205798Y232083D01*
X305798Y232083D02*
X308076Y223583D01*
X314298Y217361D01*
X322798Y215083D01*
X331298Y217361D01*
X337520Y223583D01*
X339798Y232083D01*
X337520Y240583D01*
X331298Y246805D01*
X322798Y249083D01*
X314298Y246805D01*
X308076Y240583D01*
X305798Y232083D01*
X305798Y932083D02*
X308076Y923583D01*
X314298Y917361D01*
X322798Y915083D01*
X331298Y917361D01*
X337520Y923583D01*
X339798Y932083D01*
X337520Y940583D01*
X331298Y946805D01*
X322798Y949083D01*
X314298Y946805D01*
X308076Y940583D01*
X305798Y932083D01*
X1105800Y232083D02*
X1108078Y223583D01*
X1114300Y217361D01*
X1122800Y215083D01*
X1131300Y217361D01*
X1137522Y223583D01*
X1139800Y232083D01*
X1137522Y240583D01*
X1131300Y246805D01*
X1122800Y249083D01*
X1114300Y246805D01*
X1108078Y240583D01*
X1105800Y232083D01*
X205798Y932083D02*
X208076Y923583D01*
X214298Y917361D01*
X222798Y915083D01*
X231298Y917361D01*
X237520Y923583D01*
X239798Y932083D01*
X237520Y940583D01*
X231298Y946805D01*
X222798Y949083D01*
X214298Y946805D01*
X208076Y940583D01*
X205798Y932083D01*
X1105800Y932083D02*
X1108078Y923583D01*
X1114300Y917361D01*
X1122800Y915083D01*
X1131300Y917361D01*
X1137522Y923583D01*
X1139800Y932083D01*
X1137522Y940583D01*
X1131300Y946805D01*
X1122800Y949083D01*
X1114300Y946805D01*
X1108078Y940583D01*
X1105800Y932083D01*
M02*
