G04 EAGLE Gerber RS-274X export*
G75*
%MOMM*%
%FSLAX34Y34*%
%LPD*%
%INSoldermask Top*%
%IPPOS*%
%AMOC8*
5,1,8,0,0,1.08239X$1,22.5*%
G01*
%ADD10P,11.043842X8X22.500000*%
%ADD11R,8.203200X10.203200*%
%ADD12C,2.403200*%
%ADD13C,3.251200*%
%ADD14C,2.743200*%
%ADD15C,0.959600*%
%ADD16C,1.727200*%


D10*
X322580Y232410D03*
X1122680Y232410D03*
X1122680Y932180D03*
X322580Y932180D03*
D11*
X714370Y794740D03*
X877370Y794740D03*
X714370Y282740D03*
X877370Y282740D03*
X432430Y796010D03*
X595430Y796010D03*
X432430Y284010D03*
X595430Y284010D03*
D12*
X443750Y912270D02*
X443750Y934270D01*
X494750Y934270D02*
X494750Y912270D01*
X545750Y912270D02*
X545750Y934270D01*
X596550Y934270D02*
X596550Y912270D01*
D13*
X733070Y951090D02*
X763550Y951090D01*
X815570Y951090D02*
X846050Y951090D01*
X898070Y951090D02*
X928550Y951090D01*
X980620Y951090D02*
X1011100Y951090D01*
D14*
X791210Y781050D03*
X943610Y763270D03*
X1019810Y681990D03*
X1021080Y430530D03*
D15*
X962660Y262890D03*
X1111250Y372110D03*
D16*
X971550Y398780D03*
X967740Y368300D03*
X574040Y297180D03*
X350520Y322580D03*
X1145540Y541020D03*
X999490Y516890D03*
X1047750Y605790D03*
X1094740Y708660D03*
X1099820Y775970D03*
X1004570Y789940D03*
D14*
X487790Y796010D03*
X389890Y805180D03*
D15*
X951230Y271780D03*
X1102360Y624840D03*
M02*
