G04 EAGLE Gerber RS-274X export*
G75*
%MOMM*%
%FSLAX34Y34*%
%LPD*%
%INSoldermask Bottom*%
%IPPOS*%
%AMOC8*
5,1,8,0,0,1.08239X$1,22.5*%
G01*
%ADD10P,11.043842X8X22.500000*%
%ADD11R,1.350200X2.611200*%
%ADD12R,4.013200X5.283200*%
%ADD13R,2.311200X3.957200*%
%ADD14R,1.900000X1.400000*%
%ADD15R,1.500000X1.700000*%
%ADD16R,1.400000X1.900000*%
%ADD17C,0.506591*%
%ADD18C,0.758316*%
%ADD19R,5.803200X2.503200*%
%ADD20R,5.283200X4.013200*%
%ADD21R,3.957200X2.311200*%
%ADD22R,2.503200X5.803200*%
%ADD23C,2.403200*%
%ADD24C,3.251200*%
%ADD25C,2.743200*%
%ADD26C,0.959600*%
%ADD27C,1.727200*%


D10*
X322580Y232410D03*
X1122680Y232410D03*
X1122680Y932180D03*
X322580Y932180D03*
D11*
X878840Y274880D03*
X878840Y212800D03*
X904240Y274880D03*
X904240Y212800D03*
X929640Y274880D03*
X929640Y212800D03*
D12*
X307340Y370840D03*
X718820Y820420D03*
X509270Y300990D03*
X425450Y227330D03*
D13*
X1125220Y483810D03*
X1125220Y539810D03*
D14*
X453390Y314410D03*
X453390Y277410D03*
X426720Y277410D03*
X426720Y314410D03*
X396240Y314410D03*
X396240Y277410D03*
D15*
X496810Y209550D03*
X526810Y209550D03*
D16*
X529040Y237490D03*
X492040Y237490D03*
D17*
X1059763Y380307D02*
X1059763Y389313D01*
X1059763Y380307D02*
X1031817Y380307D01*
X1031817Y389313D01*
X1059763Y389313D01*
X1059763Y385120D02*
X1031817Y385120D01*
D18*
X1143755Y382295D02*
X1143755Y433045D01*
X1143755Y382295D02*
X1084825Y382295D01*
X1084825Y433045D01*
X1143755Y433045D01*
X1143755Y389499D02*
X1084825Y389499D01*
X1084825Y396703D02*
X1143755Y396703D01*
X1143755Y403907D02*
X1084825Y403907D01*
X1084825Y411111D02*
X1143755Y411111D01*
X1143755Y418315D02*
X1084825Y418315D01*
X1084825Y425519D02*
X1143755Y425519D01*
X1143755Y432723D02*
X1084825Y432723D01*
D17*
X1059763Y435033D02*
X1059763Y426027D01*
X1031817Y426027D01*
X1031817Y435033D01*
X1059763Y435033D01*
X1059763Y430840D02*
X1031817Y430840D01*
D16*
X1146260Y353060D03*
X1109260Y353060D03*
X1146260Y325120D03*
X1109260Y325120D03*
D14*
X1017270Y360130D03*
X1017270Y323130D03*
X995680Y239480D03*
X995680Y202480D03*
D16*
X1071330Y462280D03*
X1034330Y462280D03*
X1044490Y353060D03*
X1081490Y353060D03*
X1044490Y323850D03*
X1081490Y323850D03*
D14*
X1026160Y262170D03*
X1026160Y299170D03*
X1026160Y202480D03*
X1026160Y239480D03*
D15*
X719060Y209550D03*
X749060Y209550D03*
D16*
X751290Y248920D03*
X714290Y248920D03*
D19*
X970280Y555160D03*
X970280Y481160D03*
D20*
X411480Y863600D03*
D21*
X362010Y806450D03*
X306010Y806450D03*
X1143060Y745490D03*
X1087060Y745490D03*
D17*
X1053413Y640773D02*
X1053413Y631767D01*
X1025467Y631767D01*
X1025467Y640773D01*
X1053413Y640773D01*
X1053413Y636580D02*
X1025467Y636580D01*
D18*
X1137405Y633755D02*
X1137405Y684505D01*
X1137405Y633755D02*
X1078475Y633755D01*
X1078475Y684505D01*
X1137405Y684505D01*
X1137405Y640959D02*
X1078475Y640959D01*
X1078475Y648163D02*
X1137405Y648163D01*
X1137405Y655367D02*
X1078475Y655367D01*
X1078475Y662571D02*
X1137405Y662571D01*
X1137405Y669775D02*
X1078475Y669775D01*
X1078475Y676979D02*
X1137405Y676979D01*
X1137405Y684183D02*
X1078475Y684183D01*
D17*
X1053413Y686493D02*
X1053413Y677487D01*
X1025467Y677487D01*
X1025467Y686493D01*
X1053413Y686493D01*
X1053413Y682300D02*
X1025467Y682300D01*
D16*
X1070060Y576580D03*
X1033060Y576580D03*
X1070060Y546100D03*
X1033060Y546100D03*
D14*
X999490Y615230D03*
X999490Y652230D03*
X1032510Y743500D03*
X1032510Y780500D03*
D16*
X1067520Y712470D03*
X1030520Y712470D03*
X1033060Y604520D03*
X1070060Y604520D03*
X1106720Y605790D03*
X1143720Y605790D03*
X1105450Y576580D03*
X1142450Y576580D03*
X1034330Y516890D03*
X1071330Y516890D03*
D15*
X645400Y209550D03*
X675400Y209550D03*
D16*
X678900Y247650D03*
X641900Y247650D03*
D22*
X1074250Y819150D03*
X1148250Y819150D03*
D23*
X443750Y912270D02*
X443750Y934270D01*
X494750Y934270D02*
X494750Y912270D01*
X545750Y912270D02*
X545750Y934270D01*
X596550Y934270D02*
X596550Y912270D01*
D24*
X733070Y951090D02*
X763550Y951090D01*
X815570Y951090D02*
X846050Y951090D01*
X898070Y951090D02*
X928550Y951090D01*
X980620Y951090D02*
X1011100Y951090D01*
D19*
X514350Y842180D03*
X514350Y768180D03*
D15*
X570470Y209550D03*
X600470Y209550D03*
D16*
X603970Y250190D03*
X566970Y250190D03*
X554270Y317500D03*
X591270Y317500D03*
X615230Y317500D03*
X652230Y317500D03*
X677460Y317500D03*
X714460Y317500D03*
D12*
X872490Y834390D03*
X956310Y891540D03*
D25*
X791210Y781050D03*
X943610Y763270D03*
X1019810Y681990D03*
X1021080Y430530D03*
D26*
X962660Y262890D03*
X1111250Y372110D03*
D27*
X971550Y398780D03*
X967740Y368300D03*
X574040Y297180D03*
X350520Y322580D03*
X1145540Y541020D03*
X999490Y516890D03*
X1047750Y605790D03*
X1094740Y708660D03*
X1099820Y775970D03*
X1004570Y789940D03*
D25*
X487790Y796010D03*
X389890Y805180D03*
D26*
X951230Y271780D03*
X1102360Y624840D03*
M02*
