M48
;GenerationSoftware,Autodesk,EAGLE,9.6.2*%
;CreationDate,2022-07-22T23:23:52Z*%
FMAT,2
ICI,OFF
METRIC,TZ,000.000
T7C0.381
T6C0.508
T5C0.635
T4C1.016
T3C1.300
T2C1.905
T1C3.400
%
G90
M71
T1
X32258Y93218
X112268Y93218
X112268Y23241
X32258Y23241
T2
X99586Y95109
X91331Y95109
X83081Y95109
X74831Y95109
T3
X59274Y92962
X54194Y92962
X49094Y92962
X43994Y92962
T4
X72390Y33401
X101219Y69596
X74295Y67818
X75565Y49530
T5
X101219Y57150
X76962Y57531
X76835Y74549
X109220Y69342
T6
X78105Y90805
X93091Y40767
X79629Y40259
T7
X100330Y25908
X112268Y52959
X49403Y22098
X84709Y27559
X84455Y35560
X111760Y60071
X65024Y25654
X74549Y20320
X67691Y20447
X60071Y20320
X52705Y20320
X96012Y29972
M30