G04 EAGLE Gerber RS-274X export*
G75*
%MOMM*%
%FSLAX34Y34*%
%LPD*%
%INSoldermask Bottom*%
%IPPOS*%
%AMOC8*
5,1,8,0,0,1.08239X$1,22.5*%
G01*
%ADD10C,0.800000*%

G36*
X1013981Y865538D02*
X1013981Y865538D01*
X1014051Y865563D01*
X1014122Y865580D01*
X1014144Y865596D01*
X1014169Y865605D01*
X1014223Y865654D01*
X1014282Y865698D01*
X1014296Y865721D01*
X1014315Y865739D01*
X1014346Y865806D01*
X1014384Y865869D01*
X1014388Y865898D01*
X1014398Y865919D01*
X1014399Y865963D01*
X1014411Y866033D01*
X1014411Y866413D01*
X1014389Y883737D01*
X1014389Y883739D01*
X1014389Y883741D01*
X1014382Y884494D01*
X1014381Y884501D01*
X1014382Y884511D01*
X1014350Y885263D01*
X1014349Y885265D01*
X1014350Y885266D01*
X1014312Y886019D01*
X1014311Y886025D01*
X1014311Y886032D01*
X1014196Y887534D01*
X1014194Y887541D01*
X1014195Y887551D01*
X1014029Y889048D01*
X1014027Y889053D01*
X1014027Y889060D01*
X1013926Y889806D01*
X1013924Y889812D01*
X1013924Y889818D01*
X1013686Y891306D01*
X1013683Y891313D01*
X1013683Y891323D01*
X1013393Y892801D01*
X1013390Y892808D01*
X1013390Y892817D01*
X1013220Y893551D01*
X1013218Y893556D01*
X1013217Y893562D01*
X1012844Y895022D01*
X1012839Y895031D01*
X1012838Y895043D01*
X1012618Y895764D01*
X1012614Y895771D01*
X1012612Y895782D01*
X1012119Y897205D01*
X1012114Y897213D01*
X1012111Y897226D01*
X1011833Y897926D01*
X1011827Y897935D01*
X1011824Y897948D01*
X1011201Y899319D01*
X1011195Y899328D01*
X1011191Y899341D01*
X1010846Y900011D01*
X1010841Y900017D01*
X1010838Y900026D01*
X1010471Y900684D01*
X1010465Y900690D01*
X1010461Y900699D01*
X1010071Y901343D01*
X1010066Y901348D01*
X1010062Y901356D01*
X1009651Y901987D01*
X1009644Y901995D01*
X1009638Y902006D01*
X1009199Y902618D01*
X1009193Y902623D01*
X1009189Y902630D01*
X1008731Y903228D01*
X1008724Y903234D01*
X1008718Y903243D01*
X1008237Y903822D01*
X1008230Y903827D01*
X1008225Y903836D01*
X1007722Y904397D01*
X1007711Y904405D01*
X1007702Y904418D01*
X1007166Y904948D01*
X1007159Y904953D01*
X1007153Y904961D01*
X1006598Y905471D01*
X1006590Y905475D01*
X1006582Y905484D01*
X1006007Y905970D01*
X1005997Y905976D01*
X1005987Y905987D01*
X1005387Y906442D01*
X1005378Y906446D01*
X1005370Y906453D01*
X1004753Y906884D01*
X1004743Y906888D01*
X1004733Y906897D01*
X1004096Y907298D01*
X1004087Y907301D01*
X1004078Y907309D01*
X1003425Y907683D01*
X1003415Y907686D01*
X1003406Y907694D01*
X1002737Y908039D01*
X1002729Y908042D01*
X1002721Y908047D01*
X1002040Y908369D01*
X1002031Y908372D01*
X1002020Y908378D01*
X1001325Y908670D01*
X1001317Y908671D01*
X1001309Y908676D01*
X1000604Y908943D01*
X1000597Y908944D01*
X1000588Y908948D01*
X999875Y909191D01*
X999865Y909192D01*
X999855Y909197D01*
X999132Y909409D01*
X999122Y909409D01*
X999110Y909414D01*
X998379Y909593D01*
X998370Y909593D01*
X998360Y909597D01*
X997622Y909748D01*
X997613Y909748D01*
X997603Y909751D01*
X996859Y909873D01*
X996852Y909873D01*
X996844Y909875D01*
X996097Y909974D01*
X996090Y909973D01*
X996082Y909975D01*
X995333Y910051D01*
X995326Y910050D01*
X995317Y910052D01*
X994566Y910104D01*
X994559Y910103D01*
X994550Y910105D01*
X993797Y910132D01*
X993788Y910131D01*
X993778Y910132D01*
X992272Y910131D01*
X992262Y910129D01*
X992249Y910130D01*
X990745Y910059D01*
X990735Y910057D01*
X990723Y910058D01*
X989223Y909923D01*
X989213Y909920D01*
X989201Y909920D01*
X987708Y909717D01*
X987699Y909714D01*
X987687Y909714D01*
X986205Y909448D01*
X986193Y909444D01*
X986179Y909443D01*
X984712Y909099D01*
X984702Y909095D01*
X984689Y909093D01*
X983241Y908679D01*
X983229Y908673D01*
X983214Y908671D01*
X981791Y908174D01*
X981780Y908168D01*
X981765Y908164D01*
X980373Y907588D01*
X980365Y907582D01*
X980353Y907579D01*
X979670Y907260D01*
X979664Y907256D01*
X979656Y907253D01*
X978984Y906912D01*
X978977Y906906D01*
X978966Y906902D01*
X977653Y906164D01*
X977645Y906156D01*
X977633Y906151D01*
X976994Y905751D01*
X976988Y905745D01*
X976979Y905741D01*
X975733Y904894D01*
X975725Y904886D01*
X975713Y904879D01*
X974512Y903970D01*
X974506Y903964D01*
X974497Y903959D01*
X973914Y903482D01*
X973908Y903474D01*
X973898Y903468D01*
X972773Y902466D01*
X972768Y902459D01*
X972759Y902453D01*
X972217Y901930D01*
X972211Y901923D01*
X972202Y901916D01*
X971161Y900827D01*
X971155Y900818D01*
X971144Y900809D01*
X970160Y899669D01*
X970154Y899658D01*
X970143Y899648D01*
X969220Y898459D01*
X969215Y898450D01*
X969207Y898441D01*
X968771Y897827D01*
X968769Y897823D01*
X968766Y897819D01*
X968341Y897197D01*
X968338Y897189D01*
X968330Y897180D01*
X967532Y895903D01*
X967529Y895893D01*
X967521Y895884D01*
X966781Y894572D01*
X966778Y894562D01*
X966770Y894551D01*
X966149Y893317D01*
X966146Y893305D01*
X966139Y893296D01*
X966120Y893210D01*
X966117Y893199D01*
X966033Y893075D01*
X965772Y892504D01*
X965770Y892496D01*
X965765Y892489D01*
X965183Y891100D01*
X965182Y891092D01*
X965177Y891084D01*
X964910Y890380D01*
X964908Y890372D01*
X964904Y890364D01*
X964416Y888939D01*
X964415Y888930D01*
X964410Y888919D01*
X963981Y887475D01*
X963981Y887467D01*
X963976Y887458D01*
X963602Y885999D01*
X963601Y885991D01*
X963598Y885983D01*
X963435Y885247D01*
X963435Y885243D01*
X963433Y885238D01*
X963283Y884500D01*
X963283Y884493D01*
X963281Y884486D01*
X963025Y883001D01*
X963025Y882992D01*
X963022Y882982D01*
X962826Y881488D01*
X962826Y881479D01*
X962823Y881467D01*
X962690Y879967D01*
X962691Y879958D01*
X962689Y879947D01*
X962615Y878442D01*
X962616Y878435D01*
X962614Y878426D01*
X962602Y877673D01*
X962602Y877670D01*
X962601Y877665D01*
X962594Y859588D01*
X962600Y859558D01*
X962599Y859516D01*
X962693Y858871D01*
X962696Y858864D01*
X962695Y858857D01*
X962729Y858771D01*
X962760Y858684D01*
X962765Y858679D01*
X962768Y858672D01*
X962833Y858605D01*
X962895Y858538D01*
X962902Y858535D01*
X962907Y858530D01*
X962992Y858494D01*
X963076Y858456D01*
X963084Y858456D01*
X963090Y858453D01*
X963256Y858448D01*
X1013981Y865538D01*
G37*
G36*
X963231Y584618D02*
X963231Y584618D01*
X963232Y584618D01*
X1013981Y591716D01*
X1014050Y591740D01*
X1014121Y591757D01*
X1014143Y591773D01*
X1014168Y591782D01*
X1014222Y591832D01*
X1014282Y591875D01*
X1014295Y591898D01*
X1014315Y591916D01*
X1014346Y591983D01*
X1014383Y592046D01*
X1014388Y592076D01*
X1014398Y592097D01*
X1014399Y592140D01*
X1014411Y592210D01*
X1014411Y602760D01*
X1014404Y602795D01*
X1014404Y602844D01*
X1014297Y603474D01*
X1014296Y603475D01*
X1014296Y603476D01*
X1014260Y603569D01*
X1014225Y603660D01*
X1014224Y603660D01*
X1014224Y603661D01*
X1014154Y603733D01*
X1014086Y603802D01*
X1014086Y603803D01*
X1014085Y603803D01*
X1013993Y603842D01*
X1013903Y603880D01*
X1013902Y603880D01*
X1013901Y603880D01*
X1013735Y603885D01*
X995486Y601329D01*
X995461Y601401D01*
X995461Y622034D01*
X995724Y622105D01*
X1013605Y624609D01*
X1013694Y624640D01*
X1013781Y624669D01*
X1013787Y624673D01*
X1013793Y624675D01*
X1013817Y624698D01*
X1013911Y624773D01*
X1014286Y625200D01*
X1014334Y625284D01*
X1014383Y625366D01*
X1014384Y625370D01*
X1014385Y625373D01*
X1014388Y625396D01*
X1014411Y625530D01*
X1014411Y636080D01*
X1014410Y636085D01*
X1014411Y636090D01*
X1014390Y636182D01*
X1014371Y636275D01*
X1014368Y636279D01*
X1014367Y636284D01*
X1014312Y636361D01*
X1014259Y636439D01*
X1014254Y636441D01*
X1014252Y636445D01*
X1014113Y636537D01*
X1013638Y636745D01*
X1013585Y636757D01*
X1013534Y636778D01*
X1013481Y636780D01*
X1013444Y636788D01*
X1013412Y636782D01*
X1013368Y636783D01*
X963365Y629794D01*
X963352Y629789D01*
X963339Y629789D01*
X963259Y629756D01*
X963178Y629727D01*
X963168Y629718D01*
X963155Y629713D01*
X963035Y629598D01*
X962693Y629142D01*
X962660Y629072D01*
X962621Y629007D01*
X962617Y628981D01*
X962608Y628962D01*
X962606Y628917D01*
X962594Y628843D01*
X962594Y618293D01*
X962599Y618265D01*
X962597Y618236D01*
X962619Y618168D01*
X962633Y618098D01*
X962649Y618074D01*
X962658Y618047D01*
X962705Y617993D01*
X962746Y617934D01*
X962770Y617919D01*
X962788Y617897D01*
X962878Y617850D01*
X962913Y617827D01*
X962924Y617825D01*
X962935Y617819D01*
X963444Y617650D01*
X963475Y617646D01*
X963504Y617634D01*
X963597Y617631D01*
X963641Y617626D01*
X963654Y617630D01*
X963671Y617629D01*
X984484Y620551D01*
X984559Y620536D01*
X984559Y599981D01*
X984458Y599805D01*
X963061Y596798D01*
X963003Y596778D01*
X962944Y596767D01*
X962910Y596745D01*
X962873Y596731D01*
X962828Y596691D01*
X962778Y596657D01*
X962756Y596624D01*
X962726Y596597D01*
X962701Y596542D01*
X962668Y596492D01*
X962658Y596447D01*
X962644Y596416D01*
X962643Y596380D01*
X962631Y596329D01*
X962594Y595608D01*
X962596Y595597D01*
X962594Y595582D01*
X962594Y585786D01*
X962598Y585764D01*
X962596Y585734D01*
X962666Y585061D01*
X962671Y585045D01*
X962671Y585027D01*
X962701Y584950D01*
X962726Y584872D01*
X962737Y584858D01*
X962743Y584842D01*
X962801Y584783D01*
X962855Y584720D01*
X962870Y584712D01*
X962882Y584700D01*
X962958Y584668D01*
X963032Y584631D01*
X963050Y584630D01*
X963066Y584623D01*
X963225Y584619D01*
X963231Y584618D01*
X963231Y584618D01*
G37*
G36*
X998047Y662274D02*
X998047Y662274D01*
X998115Y662298D01*
X998187Y662315D01*
X998208Y662331D01*
X998234Y662340D01*
X998288Y662389D01*
X998347Y662433D01*
X998360Y662456D01*
X998380Y662474D01*
X998411Y662541D01*
X998448Y662604D01*
X998453Y662634D01*
X998463Y662655D01*
X998464Y662699D01*
X998476Y662768D01*
X998476Y672223D01*
X998460Y672300D01*
X998451Y672378D01*
X998440Y672399D01*
X998436Y672418D01*
X998411Y672455D01*
X998374Y672525D01*
X998069Y672927D01*
X998008Y672981D01*
X997952Y673038D01*
X997934Y673046D01*
X997919Y673059D01*
X997843Y673084D01*
X997769Y673115D01*
X997747Y673116D01*
X997731Y673121D01*
X997686Y673118D01*
X997602Y673120D01*
X994729Y672720D01*
X994878Y672868D01*
X994885Y672880D01*
X994899Y672891D01*
X995396Y673456D01*
X995402Y673465D01*
X995412Y673474D01*
X995882Y674062D01*
X995886Y674072D01*
X995896Y674081D01*
X996338Y674689D01*
X996342Y674699D01*
X996351Y674708D01*
X996766Y675336D01*
X996769Y675344D01*
X996775Y675351D01*
X997167Y675994D01*
X997171Y676005D01*
X997179Y676015D01*
X997540Y676676D01*
X997542Y676684D01*
X997549Y676693D01*
X997884Y677367D01*
X997887Y677378D01*
X997894Y677389D01*
X998196Y678079D01*
X998198Y678089D01*
X998204Y678099D01*
X998475Y678801D01*
X998477Y678812D01*
X998483Y678824D01*
X998721Y679538D01*
X998722Y679548D01*
X998728Y679559D01*
X998933Y680284D01*
X998934Y680297D01*
X998940Y680313D01*
X999102Y681048D01*
X999102Y681062D01*
X999108Y681078D01*
X999224Y681822D01*
X999223Y681834D01*
X999227Y681848D01*
X999304Y682597D01*
X999303Y682612D01*
X999306Y682632D01*
X999331Y683384D01*
X999329Y683393D01*
X999331Y683403D01*
X999327Y684156D01*
X999325Y684165D01*
X999326Y684175D01*
X999293Y684927D01*
X999291Y684936D01*
X999292Y684946D01*
X999230Y685697D01*
X999228Y685705D01*
X999228Y685715D01*
X999139Y686463D01*
X999136Y686473D01*
X999136Y686486D01*
X999012Y687228D01*
X999008Y687237D01*
X999008Y687249D01*
X998852Y687985D01*
X998848Y687996D01*
X998847Y688009D01*
X998656Y688737D01*
X998651Y688748D01*
X998649Y688761D01*
X998422Y689479D01*
X998416Y689489D01*
X998413Y689502D01*
X998151Y690208D01*
X998144Y690220D01*
X998139Y690236D01*
X997834Y690925D01*
X997827Y690934D01*
X997823Y690948D01*
X997483Y691619D01*
X997476Y691628D01*
X997471Y691641D01*
X997098Y692295D01*
X997090Y692304D01*
X997084Y692319D01*
X996675Y692951D01*
X996665Y692961D01*
X996658Y692976D01*
X996211Y693582D01*
X996201Y693591D01*
X996193Y693605D01*
X995713Y694184D01*
X995702Y694192D01*
X995693Y694205D01*
X995180Y694756D01*
X995169Y694764D01*
X995159Y694777D01*
X994613Y695296D01*
X994602Y695303D01*
X994591Y695316D01*
X994015Y695801D01*
X994003Y695807D01*
X993992Y695819D01*
X993388Y696269D01*
X993376Y696274D01*
X993365Y696285D01*
X992737Y696700D01*
X992724Y696705D01*
X992711Y696716D01*
X992059Y697092D01*
X992047Y697096D01*
X992034Y697105D01*
X991362Y697444D01*
X991350Y697447D01*
X991337Y697456D01*
X990646Y697757D01*
X990636Y697759D01*
X990625Y697766D01*
X989921Y698033D01*
X989908Y698036D01*
X989894Y698043D01*
X989176Y698270D01*
X989166Y698271D01*
X989154Y698276D01*
X988426Y698470D01*
X988417Y698470D01*
X988405Y698475D01*
X987670Y698637D01*
X987659Y698637D01*
X987647Y698641D01*
X986905Y698768D01*
X986894Y698767D01*
X986883Y698771D01*
X986136Y698864D01*
X986126Y698864D01*
X986115Y698867D01*
X985364Y698928D01*
X985356Y698927D01*
X985347Y698929D01*
X984594Y698964D01*
X984584Y698963D01*
X984572Y698965D01*
X983819Y698965D01*
X983811Y698964D01*
X983802Y698965D01*
X983049Y698940D01*
X983042Y698938D01*
X983034Y698939D01*
X982282Y698891D01*
X982275Y698889D01*
X982265Y698889D01*
X981516Y698814D01*
X981509Y698812D01*
X981500Y698813D01*
X980754Y698714D01*
X980750Y698713D01*
X980744Y698713D01*
X979999Y698599D01*
X979993Y698597D01*
X979984Y698597D01*
X979244Y698460D01*
X979237Y698457D01*
X979229Y698457D01*
X978493Y698298D01*
X978486Y698295D01*
X978477Y698294D01*
X977747Y698111D01*
X977737Y698106D01*
X977724Y698105D01*
X976283Y697670D01*
X976270Y697663D01*
X976253Y697660D01*
X974842Y697135D01*
X974833Y697129D01*
X974819Y697126D01*
X974127Y696829D01*
X974121Y696825D01*
X974113Y696823D01*
X973430Y696506D01*
X973425Y696502D01*
X973417Y696499D01*
X972744Y696161D01*
X972738Y696157D01*
X972730Y696154D01*
X972068Y695796D01*
X972063Y695792D01*
X972056Y695789D01*
X971404Y695411D01*
X971399Y695407D01*
X971391Y695404D01*
X970752Y695006D01*
X970745Y695000D01*
X970736Y694996D01*
X970112Y694576D01*
X970104Y694568D01*
X970092Y694562D01*
X968885Y693660D01*
X968878Y693652D01*
X968867Y693646D01*
X968286Y693167D01*
X968280Y693160D01*
X968272Y693155D01*
X967709Y692655D01*
X967704Y692649D01*
X967696Y692643D01*
X967151Y692124D01*
X967146Y692118D01*
X967139Y692113D01*
X966611Y691577D01*
X966605Y691568D01*
X966594Y691559D01*
X966092Y690998D01*
X966088Y690991D01*
X966081Y690985D01*
X965599Y690408D01*
X965594Y690400D01*
X965586Y690392D01*
X965127Y689796D01*
X965122Y689786D01*
X965114Y689777D01*
X964682Y689161D01*
X964678Y689153D01*
X964671Y689145D01*
X964263Y688512D01*
X964260Y688505D01*
X964254Y688497D01*
X963869Y687850D01*
X963865Y687840D01*
X963857Y687829D01*
X963503Y687165D01*
X963501Y687158D01*
X963495Y687150D01*
X963164Y686474D01*
X963161Y686462D01*
X963153Y686449D01*
X962859Y685756D01*
X962857Y685746D01*
X962851Y685734D01*
X962589Y685029D01*
X962587Y685017D01*
X962581Y685003D01*
X962357Y684284D01*
X962356Y684273D01*
X962350Y684261D01*
X962162Y683532D01*
X962162Y683521D01*
X962157Y683508D01*
X962005Y682771D01*
X962004Y682760D01*
X962000Y682747D01*
X961884Y682003D01*
X961885Y681993D01*
X961881Y681981D01*
X961799Y681232D01*
X961800Y681221D01*
X961797Y681207D01*
X961753Y680455D01*
X961755Y680447D01*
X961753Y680438D01*
X961735Y679685D01*
X961737Y679676D01*
X961735Y679665D01*
X961749Y678912D01*
X961750Y678904D01*
X961749Y678893D01*
X961791Y678141D01*
X961793Y678132D01*
X961793Y678121D01*
X961865Y677371D01*
X961868Y677364D01*
X961867Y677354D01*
X961966Y676608D01*
X961969Y676598D01*
X961970Y676586D01*
X962102Y675845D01*
X962106Y675834D01*
X962107Y675821D01*
X962274Y675087D01*
X962278Y675078D01*
X962279Y675066D01*
X962478Y674340D01*
X962483Y674330D01*
X962485Y674317D01*
X962720Y673601D01*
X962726Y673591D01*
X962729Y673577D01*
X963001Y672875D01*
X963006Y672866D01*
X963008Y672860D01*
X963013Y672853D01*
X963017Y672837D01*
X963346Y672160D01*
X963359Y672143D01*
X963369Y672118D01*
X963760Y671476D01*
X963774Y671461D01*
X963786Y671437D01*
X964235Y670834D01*
X964251Y670819D01*
X964266Y670796D01*
X964771Y670239D01*
X964789Y670226D01*
X964806Y670204D01*
X964807Y670203D01*
X965367Y669700D01*
X965385Y669689D01*
X965403Y669670D01*
X965643Y669492D01*
X947373Y666880D01*
X947364Y666877D01*
X947353Y666877D01*
X946638Y666744D01*
X946580Y666721D01*
X946519Y666706D01*
X946488Y666684D01*
X946453Y666670D01*
X946409Y666626D01*
X946359Y666589D01*
X946339Y666556D01*
X946313Y666529D01*
X946289Y666471D01*
X946257Y666418D01*
X946250Y666375D01*
X946238Y666345D01*
X946239Y666307D01*
X946229Y666253D01*
X946229Y655712D01*
X946241Y655657D01*
X946242Y655600D01*
X946260Y655560D01*
X946269Y655517D01*
X946301Y655471D01*
X946325Y655419D01*
X946357Y655390D01*
X946382Y655353D01*
X946429Y655323D01*
X946471Y655285D01*
X946519Y655266D01*
X946549Y655246D01*
X946582Y655241D01*
X946626Y655224D01*
X947178Y655107D01*
X947182Y655107D01*
X947185Y655106D01*
X947351Y655101D01*
X998047Y662274D01*
G37*
G36*
X998047Y707493D02*
X998047Y707493D01*
X998115Y707518D01*
X998187Y707535D01*
X998208Y707551D01*
X998234Y707560D01*
X998288Y707609D01*
X998347Y707653D01*
X998360Y707676D01*
X998380Y707694D01*
X998411Y707761D01*
X998448Y707824D01*
X998453Y707854D01*
X998463Y707875D01*
X998464Y707919D01*
X998476Y707988D01*
X998476Y717443D01*
X998460Y717520D01*
X998451Y717598D01*
X998440Y717619D01*
X998436Y717638D01*
X998411Y717675D01*
X998374Y717745D01*
X998069Y718147D01*
X998008Y718200D01*
X997952Y718258D01*
X997934Y718266D01*
X997919Y718278D01*
X997843Y718304D01*
X997769Y718335D01*
X997747Y718336D01*
X997731Y718341D01*
X997686Y718337D01*
X997602Y718340D01*
X994729Y717939D01*
X994878Y718088D01*
X994885Y718100D01*
X994899Y718111D01*
X995396Y718676D01*
X995402Y718685D01*
X995412Y718694D01*
X995882Y719282D01*
X995886Y719291D01*
X995896Y719300D01*
X996338Y719909D01*
X996342Y719918D01*
X996351Y719928D01*
X996766Y720556D01*
X996769Y720564D01*
X996775Y720571D01*
X997167Y721214D01*
X997171Y721224D01*
X997179Y721235D01*
X997540Y721896D01*
X997542Y721904D01*
X997549Y721912D01*
X997884Y722587D01*
X997887Y722598D01*
X997894Y722609D01*
X998196Y723299D01*
X998198Y723308D01*
X998204Y723319D01*
X998475Y724021D01*
X998477Y724032D01*
X998483Y724044D01*
X998721Y724758D01*
X998722Y724768D01*
X998727Y724779D01*
X998933Y725503D01*
X998934Y725517D01*
X998940Y725532D01*
X999102Y726268D01*
X999102Y726281D01*
X999108Y726298D01*
X999224Y727042D01*
X999223Y727054D01*
X999227Y727068D01*
X999304Y727817D01*
X999303Y727832D01*
X999306Y727851D01*
X999331Y728604D01*
X999329Y728613D01*
X999331Y728623D01*
X999327Y729376D01*
X999325Y729384D01*
X999326Y729395D01*
X999293Y730147D01*
X999291Y730156D01*
X999292Y730166D01*
X999230Y730916D01*
X999228Y730924D01*
X999228Y730935D01*
X999139Y731682D01*
X999136Y731692D01*
X999136Y731705D01*
X999012Y732448D01*
X999008Y732457D01*
X999008Y732469D01*
X998852Y733205D01*
X998848Y733215D01*
X998847Y733229D01*
X998656Y733957D01*
X998651Y733967D01*
X998649Y733981D01*
X998422Y734699D01*
X998416Y734708D01*
X998413Y734722D01*
X998151Y735428D01*
X998144Y735439D01*
X998139Y735456D01*
X997834Y736144D01*
X997827Y736154D01*
X997823Y736168D01*
X997483Y736839D01*
X997476Y736848D01*
X997471Y736861D01*
X997098Y737515D01*
X997090Y737524D01*
X997084Y737538D01*
X996675Y738171D01*
X996665Y738181D01*
X996658Y738196D01*
X996211Y738802D01*
X996201Y738810D01*
X996193Y738824D01*
X995713Y739404D01*
X995702Y739412D01*
X995693Y739425D01*
X995180Y739976D01*
X995169Y739984D01*
X995159Y739997D01*
X994613Y740516D01*
X994602Y740523D01*
X994591Y740535D01*
X994015Y741020D01*
X994003Y741027D01*
X993992Y741039D01*
X993388Y741489D01*
X993376Y741494D01*
X993365Y741505D01*
X992737Y741920D01*
X992724Y741925D01*
X992711Y741936D01*
X992059Y742312D01*
X992047Y742316D01*
X992034Y742325D01*
X991362Y742664D01*
X991350Y742667D01*
X991337Y742676D01*
X990646Y742976D01*
X990636Y742979D01*
X990625Y742985D01*
X989921Y743253D01*
X989908Y743255D01*
X989894Y743263D01*
X989176Y743490D01*
X989166Y743491D01*
X989154Y743496D01*
X988426Y743689D01*
X988416Y743690D01*
X988405Y743694D01*
X987670Y743856D01*
X987659Y743856D01*
X987647Y743861D01*
X986905Y743987D01*
X986894Y743987D01*
X986883Y743991D01*
X986136Y744084D01*
X986126Y744083D01*
X986115Y744086D01*
X985364Y744148D01*
X985356Y744147D01*
X985347Y744149D01*
X984594Y744184D01*
X984584Y744182D01*
X984572Y744184D01*
X983819Y744185D01*
X983811Y744184D01*
X983802Y744185D01*
X983049Y744160D01*
X983042Y744158D01*
X983034Y744159D01*
X982282Y744110D01*
X982275Y744108D01*
X982265Y744109D01*
X981516Y744034D01*
X981509Y744032D01*
X981500Y744032D01*
X980754Y743934D01*
X980750Y743933D01*
X980744Y743933D01*
X979999Y743819D01*
X979993Y743816D01*
X979984Y743816D01*
X979244Y743680D01*
X979237Y743677D01*
X979229Y743677D01*
X978493Y743517D01*
X978486Y743514D01*
X978477Y743514D01*
X977747Y743331D01*
X977737Y743326D01*
X977724Y743325D01*
X976283Y742889D01*
X976270Y742883D01*
X976253Y742879D01*
X974842Y742354D01*
X974833Y742349D01*
X974819Y742346D01*
X974127Y742049D01*
X974121Y742045D01*
X974113Y742043D01*
X973430Y741726D01*
X973425Y741722D01*
X973417Y741719D01*
X972744Y741381D01*
X972738Y741377D01*
X972730Y741374D01*
X972068Y741016D01*
X972063Y741012D01*
X972056Y741009D01*
X971404Y740631D01*
X971399Y740626D01*
X971391Y740623D01*
X970751Y740226D01*
X970745Y740220D01*
X970736Y740216D01*
X970112Y739796D01*
X970104Y739788D01*
X970092Y739781D01*
X968885Y738880D01*
X968878Y738872D01*
X968867Y738865D01*
X968286Y738387D01*
X968280Y738380D01*
X968272Y738375D01*
X967709Y737875D01*
X967704Y737869D01*
X967696Y737863D01*
X967151Y737344D01*
X967146Y737338D01*
X967139Y737333D01*
X966611Y736797D01*
X966605Y736788D01*
X966594Y736779D01*
X966092Y736218D01*
X966088Y736211D01*
X966081Y736205D01*
X965599Y735627D01*
X965594Y735619D01*
X965586Y735612D01*
X965127Y735015D01*
X965122Y735006D01*
X965114Y734997D01*
X964682Y734380D01*
X964678Y734372D01*
X964671Y734365D01*
X964263Y733732D01*
X964260Y733724D01*
X964254Y733717D01*
X963869Y733070D01*
X963865Y733059D01*
X963857Y733049D01*
X963503Y732385D01*
X963501Y732377D01*
X963495Y732370D01*
X963164Y731694D01*
X963161Y731682D01*
X963152Y731669D01*
X962859Y730975D01*
X962857Y730965D01*
X962851Y730954D01*
X962589Y730248D01*
X962587Y730236D01*
X962581Y730223D01*
X962357Y729504D01*
X962356Y729493D01*
X962350Y729480D01*
X962162Y728752D01*
X962162Y728741D01*
X962157Y728728D01*
X962005Y727991D01*
X962004Y727979D01*
X962000Y727966D01*
X961884Y727223D01*
X961885Y727213D01*
X961881Y727201D01*
X961799Y726452D01*
X961800Y726440D01*
X961797Y726426D01*
X961753Y725675D01*
X961755Y725667D01*
X961753Y725658D01*
X961735Y724905D01*
X961737Y724896D01*
X961735Y724884D01*
X961749Y724132D01*
X961750Y724123D01*
X961749Y724113D01*
X961791Y723361D01*
X961793Y723352D01*
X961793Y723341D01*
X961865Y722591D01*
X961868Y722584D01*
X961867Y722574D01*
X961966Y721828D01*
X961969Y721818D01*
X961970Y721805D01*
X962102Y721064D01*
X962106Y721054D01*
X962107Y721041D01*
X962274Y720307D01*
X962278Y720298D01*
X962279Y720286D01*
X962478Y719560D01*
X962483Y719550D01*
X962485Y719537D01*
X962720Y718821D01*
X962726Y718811D01*
X962729Y718796D01*
X963001Y718094D01*
X963006Y718086D01*
X963008Y718079D01*
X963013Y718073D01*
X963017Y718057D01*
X963346Y717380D01*
X963359Y717363D01*
X963369Y717338D01*
X963760Y716695D01*
X963774Y716680D01*
X963786Y716657D01*
X964235Y716053D01*
X964251Y716039D01*
X964266Y716016D01*
X964771Y715459D01*
X964789Y715445D01*
X964806Y715424D01*
X964807Y715423D01*
X965367Y714919D01*
X965385Y714909D01*
X965403Y714889D01*
X965643Y714712D01*
X947373Y712100D01*
X947364Y712097D01*
X947353Y712097D01*
X946638Y711964D01*
X946580Y711941D01*
X946519Y711926D01*
X946488Y711904D01*
X946453Y711890D01*
X946409Y711845D01*
X946359Y711808D01*
X946339Y711776D01*
X946313Y711749D01*
X946289Y711691D01*
X946257Y711637D01*
X946250Y711595D01*
X946238Y711565D01*
X946239Y711527D01*
X946229Y711473D01*
X946229Y700932D01*
X946241Y700877D01*
X946242Y700820D01*
X946260Y700780D01*
X946269Y700737D01*
X946301Y700691D01*
X946325Y700639D01*
X946357Y700609D01*
X946382Y700573D01*
X946429Y700543D01*
X946471Y700504D01*
X946519Y700486D01*
X946549Y700466D01*
X946582Y700461D01*
X946626Y700444D01*
X947178Y700327D01*
X947182Y700327D01*
X947185Y700326D01*
X947351Y700321D01*
X998047Y707493D01*
G37*
G36*
X963185Y813220D02*
X963185Y813220D01*
X963200Y813220D01*
X1013982Y820322D01*
X1014052Y820347D01*
X1014124Y820364D01*
X1014145Y820379D01*
X1014170Y820388D01*
X1014224Y820438D01*
X1014284Y820482D01*
X1014297Y820505D01*
X1014316Y820522D01*
X1014347Y820590D01*
X1014385Y820653D01*
X1014390Y820682D01*
X1014399Y820703D01*
X1014400Y820747D01*
X1014412Y820818D01*
X1014412Y820942D01*
X1014401Y840548D01*
X1014399Y840557D01*
X1014400Y840568D01*
X1014340Y842074D01*
X1014338Y842082D01*
X1014339Y842092D01*
X1014224Y843596D01*
X1014222Y843604D01*
X1014223Y843614D01*
X1014139Y844363D01*
X1014136Y844371D01*
X1014137Y844380D01*
X1013917Y845872D01*
X1013914Y845879D01*
X1013914Y845887D01*
X1013781Y846630D01*
X1013779Y846634D01*
X1013779Y846640D01*
X1013630Y847379D01*
X1013626Y847388D01*
X1013626Y847398D01*
X1013448Y848131D01*
X1013444Y848140D01*
X1013442Y848153D01*
X1013232Y848877D01*
X1013228Y848885D01*
X1013226Y848896D01*
X1012986Y849611D01*
X1012980Y849622D01*
X1012977Y849636D01*
X1012699Y850337D01*
X1012693Y850346D01*
X1012689Y850360D01*
X1012377Y851046D01*
X1012369Y851057D01*
X1012364Y851073D01*
X1012011Y851739D01*
X1012003Y851749D01*
X1011998Y851764D01*
X1011608Y852409D01*
X1011600Y852419D01*
X1011593Y852433D01*
X1011169Y853056D01*
X1011157Y853067D01*
X1011147Y853085D01*
X1010678Y853675D01*
X1010666Y853685D01*
X1010656Y853702D01*
X1010147Y854258D01*
X1010132Y854268D01*
X1010119Y854286D01*
X1009567Y854800D01*
X1009552Y854810D01*
X1009536Y854827D01*
X1008944Y855294D01*
X1008931Y855301D01*
X1008918Y855314D01*
X1008296Y855741D01*
X1008282Y855747D01*
X1008266Y855760D01*
X1007616Y856141D01*
X1007601Y856146D01*
X1007586Y856157D01*
X1006911Y856493D01*
X1006898Y856497D01*
X1006884Y856506D01*
X1006190Y856801D01*
X1006173Y856804D01*
X1006154Y856814D01*
X1005440Y857055D01*
X1005425Y857057D01*
X1005407Y857065D01*
X1004678Y857257D01*
X1004662Y857257D01*
X1004643Y857264D01*
X1003902Y857403D01*
X1003889Y857402D01*
X1003874Y857407D01*
X1003126Y857503D01*
X1003114Y857502D01*
X1003098Y857506D01*
X1002346Y857559D01*
X1002336Y857558D01*
X1002324Y857560D01*
X1001570Y857580D01*
X1001559Y857579D01*
X1001546Y857581D01*
X1000792Y857564D01*
X1000784Y857563D01*
X1000773Y857564D01*
X1000020Y857518D01*
X1000013Y857517D01*
X1000004Y857517D01*
X999254Y857448D01*
X999246Y857446D01*
X999236Y857446D01*
X998488Y857350D01*
X998483Y857348D01*
X998476Y857348D01*
X997731Y857234D01*
X997724Y857232D01*
X997716Y857232D01*
X996974Y857094D01*
X996967Y857092D01*
X996958Y857091D01*
X996222Y856930D01*
X996216Y856927D01*
X996209Y856927D01*
X995477Y856745D01*
X995469Y856742D01*
X995460Y856741D01*
X994735Y856535D01*
X994726Y856530D01*
X994713Y856528D01*
X993998Y856288D01*
X993992Y856285D01*
X993983Y856283D01*
X993276Y856022D01*
X993266Y856016D01*
X993253Y856013D01*
X992559Y855716D01*
X992551Y855711D01*
X992539Y855707D01*
X991860Y855380D01*
X991852Y855374D01*
X991840Y855370D01*
X991176Y855014D01*
X991166Y855006D01*
X991152Y855000D01*
X990508Y854606D01*
X990501Y854600D01*
X990490Y854595D01*
X989865Y854174D01*
X989857Y854167D01*
X989846Y854161D01*
X989240Y853712D01*
X989233Y853704D01*
X989221Y853697D01*
X988638Y853220D01*
X988631Y853212D01*
X988619Y853204D01*
X988059Y852700D01*
X988053Y852691D01*
X988041Y852682D01*
X987507Y852150D01*
X987501Y852141D01*
X987491Y852133D01*
X986983Y851577D01*
X986976Y851565D01*
X986963Y851554D01*
X986489Y850968D01*
X986484Y850958D01*
X986475Y850950D01*
X986028Y850342D01*
X986023Y850330D01*
X986012Y850318D01*
X985601Y849686D01*
X985598Y849677D01*
X985590Y849667D01*
X985207Y849018D01*
X985204Y849008D01*
X985195Y848997D01*
X984844Y848330D01*
X984842Y848322D01*
X984836Y848314D01*
X984509Y847635D01*
X984506Y847624D01*
X984499Y847614D01*
X984204Y846920D01*
X984202Y846910D01*
X984196Y846900D01*
X983930Y846195D01*
X983929Y846186D01*
X983924Y846177D01*
X983685Y845462D01*
X983684Y845453D01*
X983679Y845443D01*
X983468Y844719D01*
X983467Y844711D01*
X983464Y844703D01*
X983278Y843972D01*
X983277Y843964D01*
X983274Y843955D01*
X983113Y843219D01*
X983113Y843210D01*
X983110Y843200D01*
X982845Y841716D01*
X982845Y841706D01*
X982841Y841694D01*
X982642Y840199D01*
X982642Y840192D01*
X982640Y840184D01*
X982563Y839434D01*
X982563Y839428D01*
X982562Y839421D01*
X982514Y838794D01*
X982515Y838782D01*
X982512Y838770D01*
X982527Y838684D01*
X982528Y838674D01*
X982497Y838532D01*
X982426Y837151D01*
X982427Y837144D01*
X982425Y837137D01*
X982408Y836383D01*
X982409Y836378D01*
X982408Y836372D01*
X982403Y828224D01*
X982295Y828058D01*
X963100Y825413D01*
X963055Y825397D01*
X963008Y825391D01*
X962962Y825365D01*
X962912Y825347D01*
X962877Y825315D01*
X962836Y825291D01*
X962804Y825249D01*
X962765Y825213D01*
X962745Y825170D01*
X962717Y825132D01*
X962700Y825070D01*
X962682Y825033D01*
X962681Y825006D01*
X962672Y824972D01*
X962598Y824282D01*
X962600Y824259D01*
X962595Y824229D01*
X962595Y814426D01*
X962597Y814415D01*
X962596Y814401D01*
X962632Y813689D01*
X962640Y813659D01*
X962639Y813629D01*
X962664Y813564D01*
X962682Y813496D01*
X962700Y813472D01*
X962711Y813444D01*
X962760Y813394D01*
X962802Y813338D01*
X962829Y813323D01*
X962850Y813301D01*
X962915Y813274D01*
X962975Y813240D01*
X963005Y813236D01*
X963034Y813225D01*
X963130Y813222D01*
X963173Y813217D01*
X963185Y813220D01*
G37*
G36*
X978297Y747771D02*
X978297Y747771D01*
X978306Y747773D01*
X978317Y747772D01*
X979068Y747812D01*
X979075Y747813D01*
X979084Y747813D01*
X979833Y747877D01*
X979841Y747879D01*
X979851Y747879D01*
X980597Y747970D01*
X980602Y747971D01*
X980608Y747971D01*
X980926Y748017D01*
X980931Y748019D01*
X980938Y748019D01*
X981679Y748146D01*
X981685Y748148D01*
X981694Y748148D01*
X982430Y748297D01*
X982437Y748300D01*
X982446Y748301D01*
X983178Y748474D01*
X983186Y748478D01*
X983198Y748479D01*
X983922Y748683D01*
X983928Y748686D01*
X983936Y748687D01*
X984653Y748913D01*
X984661Y748917D01*
X984673Y748920D01*
X985380Y749176D01*
X985386Y749180D01*
X985395Y749182D01*
X986093Y749461D01*
X986101Y749466D01*
X986112Y749469D01*
X986797Y749777D01*
X986805Y749782D01*
X986815Y749786D01*
X987488Y750120D01*
X987495Y750125D01*
X987505Y750129D01*
X988165Y750489D01*
X988171Y750494D01*
X988182Y750498D01*
X988827Y750884D01*
X988832Y750889D01*
X988841Y750892D01*
X989473Y751299D01*
X989479Y751305D01*
X989488Y751309D01*
X990105Y751738D01*
X990110Y751743D01*
X990117Y751747D01*
X990721Y752195D01*
X990727Y752202D01*
X990736Y752207D01*
X991322Y752678D01*
X991327Y752684D01*
X991335Y752689D01*
X991904Y753179D01*
X991909Y753186D01*
X991917Y753191D01*
X992469Y753701D01*
X992474Y753708D01*
X992482Y753714D01*
X993015Y754245D01*
X993019Y754253D01*
X993028Y754259D01*
X993539Y754810D01*
X993543Y754816D01*
X993549Y754821D01*
X994044Y755387D01*
X994048Y755394D01*
X994055Y755401D01*
X994529Y755984D01*
X994533Y755992D01*
X994540Y755999D01*
X994992Y756599D01*
X994996Y756606D01*
X995003Y756613D01*
X995433Y757229D01*
X995437Y757237D01*
X995444Y757244D01*
X995852Y757875D01*
X995855Y757883D01*
X995861Y757890D01*
X996247Y758535D01*
X996249Y758542D01*
X996255Y758549D01*
X996619Y759207D01*
X996622Y759216D01*
X996629Y759225D01*
X996966Y759897D01*
X996968Y759907D01*
X996976Y759918D01*
X997586Y761291D01*
X997589Y761302D01*
X997596Y761314D01*
X997866Y762015D01*
X997868Y762026D01*
X997875Y762038D01*
X998345Y763466D01*
X998346Y763476D01*
X998351Y763487D01*
X998554Y764211D01*
X998555Y764223D01*
X998561Y764236D01*
X998893Y765701D01*
X998893Y765716D01*
X998899Y765733D01*
X999136Y767217D01*
X999135Y767231D01*
X999140Y767247D01*
X999285Y768744D01*
X999284Y768758D01*
X999287Y768777D01*
X999333Y770279D01*
X999332Y770289D01*
X999334Y770301D01*
X999323Y771053D01*
X999322Y771058D01*
X999323Y771064D01*
X999294Y771816D01*
X999292Y771825D01*
X999293Y771837D01*
X999232Y772586D01*
X999230Y772592D01*
X999231Y772601D01*
X999148Y773348D01*
X999145Y773356D01*
X999145Y773366D01*
X999035Y774110D01*
X999032Y774116D01*
X999032Y774125D01*
X998898Y774864D01*
X998895Y774873D01*
X998894Y774885D01*
X998729Y775618D01*
X998725Y775626D01*
X998724Y775636D01*
X998532Y776363D01*
X998528Y776371D01*
X998527Y776382D01*
X998305Y777100D01*
X998301Y777108D01*
X998299Y777119D01*
X998050Y777828D01*
X998045Y777836D01*
X998042Y777848D01*
X997763Y778545D01*
X997758Y778554D01*
X997755Y778566D01*
X997445Y779250D01*
X997438Y779259D01*
X997435Y779271D01*
X997093Y779941D01*
X997087Y779949D01*
X997083Y779960D01*
X996712Y780614D01*
X996705Y780622D01*
X996700Y780635D01*
X996298Y781270D01*
X996290Y781278D01*
X996284Y781292D01*
X995850Y781905D01*
X995842Y781913D01*
X995835Y781925D01*
X995371Y782516D01*
X995362Y782524D01*
X995354Y782537D01*
X994858Y783102D01*
X994849Y783109D01*
X994841Y783121D01*
X994317Y783660D01*
X994307Y783667D01*
X994297Y783679D01*
X993745Y784188D01*
X993735Y784194D01*
X993726Y784205D01*
X993148Y784685D01*
X993137Y784691D01*
X993126Y784702D01*
X992522Y785150D01*
X992512Y785155D01*
X992501Y785165D01*
X991875Y785580D01*
X991863Y785585D01*
X991851Y785595D01*
X991202Y785975D01*
X991190Y785978D01*
X991178Y785987D01*
X990510Y786331D01*
X990500Y786334D01*
X990490Y786341D01*
X989806Y786654D01*
X989795Y786657D01*
X989783Y786664D01*
X989085Y786942D01*
X989073Y786944D01*
X989060Y786951D01*
X988348Y787192D01*
X988339Y787193D01*
X988328Y787198D01*
X987607Y787409D01*
X987594Y787410D01*
X987578Y787417D01*
X986845Y787583D01*
X986835Y787584D01*
X986824Y787588D01*
X986085Y787723D01*
X986074Y787723D01*
X986060Y787727D01*
X985315Y787824D01*
X985304Y787823D01*
X985292Y787826D01*
X984543Y787890D01*
X984533Y787889D01*
X984521Y787891D01*
X983770Y787921D01*
X983762Y787919D01*
X983752Y787921D01*
X983001Y787924D01*
X982991Y787922D01*
X982979Y787923D01*
X982228Y787893D01*
X982220Y787891D01*
X982210Y787892D01*
X981460Y787835D01*
X981453Y787833D01*
X981443Y787833D01*
X980696Y787750D01*
X980689Y787747D01*
X980680Y787748D01*
X979936Y787640D01*
X979928Y787638D01*
X979918Y787637D01*
X979178Y787502D01*
X979172Y787500D01*
X979163Y787499D01*
X978429Y787341D01*
X978421Y787338D01*
X978411Y787337D01*
X977683Y787153D01*
X977675Y787149D01*
X977664Y787148D01*
X976943Y786935D01*
X976936Y786932D01*
X976927Y786930D01*
X976214Y786694D01*
X976207Y786690D01*
X976197Y786688D01*
X975492Y786426D01*
X975483Y786420D01*
X975471Y786417D01*
X974780Y786123D01*
X974773Y786118D01*
X974764Y786116D01*
X974083Y785799D01*
X974074Y785792D01*
X974062Y785788D01*
X973396Y785439D01*
X973391Y785434D01*
X973383Y785432D01*
X972728Y785062D01*
X972721Y785056D01*
X972710Y785051D01*
X972072Y784655D01*
X972067Y784650D01*
X972059Y784646D01*
X971433Y784231D01*
X971428Y784225D01*
X971419Y784221D01*
X970808Y783784D01*
X970802Y783778D01*
X970794Y783773D01*
X970198Y783315D01*
X970193Y783310D01*
X970186Y783305D01*
X969605Y782828D01*
X969600Y782822D01*
X969591Y782816D01*
X969028Y782318D01*
X969023Y782312D01*
X969016Y782307D01*
X968470Y781791D01*
X968465Y781785D01*
X968458Y781779D01*
X967929Y781245D01*
X967922Y781235D01*
X967910Y781225D01*
X966914Y780100D01*
X966908Y780089D01*
X966897Y780079D01*
X966429Y779490D01*
X966426Y779484D01*
X966420Y779479D01*
X965971Y778876D01*
X965967Y778868D01*
X965959Y778859D01*
X965535Y778238D01*
X965532Y778232D01*
X965527Y778226D01*
X965122Y777592D01*
X965119Y777584D01*
X965112Y777575D01*
X964733Y776926D01*
X964730Y776919D01*
X964724Y776911D01*
X964368Y776250D01*
X964366Y776242D01*
X964360Y776234D01*
X964027Y775561D01*
X964025Y775554D01*
X964020Y775547D01*
X963707Y774864D01*
X963706Y774856D01*
X963701Y774848D01*
X963460Y774269D01*
X963459Y774264D01*
X963455Y774259D01*
X963440Y774166D01*
X963436Y774147D01*
X963383Y774054D01*
X963365Y774025D01*
X963364Y774020D01*
X963361Y774013D01*
X962894Y772717D01*
X962892Y772702D01*
X962884Y772685D01*
X962471Y771240D01*
X962470Y771229D01*
X962465Y771216D01*
X962294Y770484D01*
X962294Y770477D01*
X962291Y770470D01*
X962141Y769733D01*
X962141Y769726D01*
X962138Y769717D01*
X962014Y768975D01*
X962014Y768968D01*
X962012Y768961D01*
X961910Y768216D01*
X961911Y768205D01*
X961907Y768193D01*
X961773Y766696D01*
X961775Y766684D01*
X961772Y766670D01*
X961743Y765919D01*
X961745Y765910D01*
X961743Y765898D01*
X961750Y764395D01*
X961752Y764385D01*
X961750Y764373D01*
X961787Y763622D01*
X961789Y763614D01*
X961788Y763604D01*
X961853Y762855D01*
X961855Y762848D01*
X961854Y762838D01*
X961944Y762092D01*
X961947Y762084D01*
X961947Y762074D01*
X962063Y761332D01*
X962066Y761325D01*
X962066Y761316D01*
X962206Y760578D01*
X962210Y760569D01*
X962211Y760556D01*
X962384Y759825D01*
X962387Y759818D01*
X962388Y759809D01*
X962585Y759083D01*
X962589Y759075D01*
X962591Y759063D01*
X962818Y758347D01*
X962823Y758339D01*
X962825Y758327D01*
X963082Y757621D01*
X963087Y757613D01*
X963089Y757603D01*
X963374Y756907D01*
X963380Y756898D01*
X963384Y756885D01*
X963703Y756204D01*
X963709Y756196D01*
X963713Y756184D01*
X964062Y755519D01*
X964068Y755511D01*
X964073Y755499D01*
X964451Y754850D01*
X964459Y754841D01*
X964465Y754827D01*
X964878Y754199D01*
X964886Y754191D01*
X964892Y754178D01*
X965336Y753572D01*
X965344Y753564D01*
X965351Y753552D01*
X965825Y752969D01*
X965835Y752960D01*
X965844Y752946D01*
X966352Y752392D01*
X966361Y752386D01*
X966361Y752385D01*
X966370Y752373D01*
X966905Y751846D01*
X966915Y751840D01*
X966924Y751829D01*
X967485Y751330D01*
X967496Y751323D01*
X967507Y751312D01*
X968095Y750844D01*
X968107Y750838D01*
X968118Y750827D01*
X968733Y750395D01*
X968743Y750390D01*
X968754Y750381D01*
X969389Y749980D01*
X969400Y749976D01*
X969411Y749967D01*
X970066Y749598D01*
X970077Y749595D01*
X970089Y749586D01*
X970762Y749252D01*
X970774Y749249D01*
X970787Y749241D01*
X971477Y748944D01*
X971487Y748942D01*
X971498Y748935D01*
X972202Y748670D01*
X972211Y748669D01*
X972222Y748663D01*
X972936Y748429D01*
X972947Y748428D01*
X972960Y748422D01*
X973684Y748223D01*
X973697Y748222D01*
X973711Y748217D01*
X974446Y748058D01*
X974457Y748058D01*
X974470Y748054D01*
X975211Y747931D01*
X975221Y747932D01*
X975234Y747928D01*
X975980Y747840D01*
X975991Y747841D01*
X976004Y747838D01*
X976754Y747786D01*
X976763Y747787D01*
X976774Y747785D01*
X977525Y747763D01*
X977534Y747765D01*
X977545Y747763D01*
X978297Y747771D01*
G37*
%LPC*%
G36*
X973941Y878325D02*
X973941Y878325D01*
X974013Y879811D01*
X974071Y880545D01*
X974236Y882022D01*
X974477Y883483D01*
X974787Y884932D01*
X974977Y885638D01*
X975192Y886340D01*
X975436Y887031D01*
X975709Y887711D01*
X975960Y888276D01*
X975981Y888371D01*
X975983Y888380D01*
X976057Y888479D01*
X976337Y889031D01*
X976692Y889670D01*
X977079Y890291D01*
X977488Y890892D01*
X977932Y891468D01*
X978403Y892024D01*
X978901Y892551D01*
X979429Y893054D01*
X979980Y893531D01*
X980552Y893985D01*
X981147Y894405D01*
X981761Y894802D01*
X982391Y895169D01*
X983038Y895503D01*
X983704Y895807D01*
X984381Y896087D01*
X985069Y896334D01*
X985771Y896555D01*
X986479Y896755D01*
X987194Y896927D01*
X987917Y897077D01*
X988643Y897206D01*
X989368Y897312D01*
X990096Y897378D01*
X990828Y897420D01*
X991558Y897429D01*
X992284Y897402D01*
X993006Y897333D01*
X993721Y897225D01*
X994423Y897074D01*
X995112Y896869D01*
X995787Y896622D01*
X996442Y896325D01*
X997076Y895989D01*
X997680Y895607D01*
X998251Y895178D01*
X998791Y894706D01*
X999297Y894198D01*
X999764Y893653D01*
X1000197Y893075D01*
X1000596Y892471D01*
X1000962Y891843D01*
X1001294Y891198D01*
X1001592Y890533D01*
X1001859Y889854D01*
X1002093Y889161D01*
X1002304Y888458D01*
X1002484Y887746D01*
X1002640Y887027D01*
X1002770Y886307D01*
X1002961Y884838D01*
X1003019Y884107D01*
X1003055Y883374D01*
X1003075Y876252D01*
X1002799Y876189D01*
X973930Y872133D01*
X973941Y878325D01*
G37*
%LPD*%
G36*
X963111Y637926D02*
X963111Y637926D01*
X963116Y637926D01*
X963799Y637960D01*
X963818Y637965D01*
X963843Y637964D01*
X998045Y642751D01*
X998114Y642775D01*
X998185Y642792D01*
X998207Y642808D01*
X998232Y642817D01*
X998287Y642867D01*
X998346Y642910D01*
X998359Y642933D01*
X998379Y642951D01*
X998410Y643018D01*
X998447Y643081D01*
X998452Y643111D01*
X998462Y643132D01*
X998463Y643176D01*
X998475Y643245D01*
X998475Y653393D01*
X998471Y653411D01*
X998472Y653418D01*
X998466Y653447D01*
X998462Y653503D01*
X998328Y654099D01*
X998292Y654179D01*
X998260Y654260D01*
X998251Y654269D01*
X998246Y654280D01*
X998182Y654340D01*
X998121Y654402D01*
X998110Y654407D01*
X998100Y654415D01*
X998018Y654445D01*
X997938Y654479D01*
X997924Y654479D01*
X997913Y654483D01*
X997870Y654481D01*
X997772Y654483D01*
X963570Y649704D01*
X963553Y649698D01*
X963415Y649656D01*
X962867Y649381D01*
X962795Y649324D01*
X962721Y649270D01*
X962717Y649263D01*
X962711Y649258D01*
X962666Y649178D01*
X962620Y649099D01*
X962618Y649090D01*
X962615Y649084D01*
X962611Y649048D01*
X962592Y648935D01*
X962592Y638424D01*
X962596Y638404D01*
X962594Y638383D01*
X962616Y638307D01*
X962631Y638229D01*
X962643Y638212D01*
X962649Y638192D01*
X962699Y638131D01*
X962744Y638065D01*
X962762Y638054D01*
X962775Y638038D01*
X962845Y638001D01*
X962911Y637958D01*
X962932Y637955D01*
X962951Y637945D01*
X963081Y637930D01*
X963108Y637925D01*
X963111Y637926D01*
G37*
%LPC*%
G36*
X978311Y670609D02*
X978311Y670609D01*
X977604Y670677D01*
X976907Y670803D01*
X976233Y670993D01*
X975588Y671257D01*
X974978Y671589D01*
X974412Y671992D01*
X973899Y672450D01*
X973459Y672978D01*
X973082Y673556D01*
X972785Y674180D01*
X972555Y674842D01*
X972389Y675530D01*
X972280Y676235D01*
X972222Y676952D01*
X972207Y677675D01*
X972235Y678397D01*
X972307Y679113D01*
X972427Y679821D01*
X972597Y680516D01*
X972819Y681193D01*
X973095Y681845D01*
X973432Y682471D01*
X973817Y683068D01*
X974253Y683628D01*
X974736Y684152D01*
X975258Y684640D01*
X975816Y685086D01*
X976406Y685487D01*
X977028Y685840D01*
X977676Y686149D01*
X978343Y686414D01*
X979028Y686630D01*
X979731Y686804D01*
X980443Y686937D01*
X981159Y687032D01*
X981878Y687078D01*
X982597Y687080D01*
X983306Y687030D01*
X984002Y686913D01*
X984681Y686732D01*
X985332Y686484D01*
X985946Y686161D01*
X986521Y685769D01*
X987043Y685317D01*
X987499Y684803D01*
X987889Y684234D01*
X988207Y683618D01*
X988456Y682965D01*
X988638Y682283D01*
X988764Y681581D01*
X988836Y680868D01*
X988848Y680542D01*
X988862Y680146D01*
X988845Y679423D01*
X988788Y678704D01*
X988681Y677993D01*
X988526Y677295D01*
X988316Y676615D01*
X988052Y675956D01*
X987777Y675417D01*
X987777Y675416D01*
X987751Y675324D01*
X987743Y675312D01*
X987675Y675235D01*
X987358Y674721D01*
X986930Y674158D01*
X986453Y673628D01*
X985936Y673133D01*
X985385Y672681D01*
X984797Y672275D01*
X984181Y671909D01*
X983540Y671593D01*
X982874Y671326D01*
X982189Y671098D01*
X981491Y670917D01*
X980776Y670774D01*
X980468Y670723D01*
X979746Y670642D01*
X979025Y670600D01*
X978311Y670609D01*
G37*
%LPD*%
%LPC*%
G36*
X978311Y715829D02*
X978311Y715829D01*
X977604Y715896D01*
X976907Y716023D01*
X976233Y716213D01*
X975588Y716476D01*
X974978Y716809D01*
X974412Y717212D01*
X973899Y717670D01*
X973459Y718198D01*
X973082Y718776D01*
X972785Y719400D01*
X972555Y720062D01*
X972389Y720750D01*
X972280Y721454D01*
X972222Y722172D01*
X972207Y722895D01*
X972235Y723617D01*
X972307Y724333D01*
X972427Y725041D01*
X972597Y725736D01*
X972819Y726413D01*
X973095Y727065D01*
X973432Y727690D01*
X973817Y728288D01*
X974253Y728848D01*
X974736Y729372D01*
X975258Y729860D01*
X975816Y730306D01*
X976406Y730707D01*
X977028Y731060D01*
X977676Y731369D01*
X978343Y731634D01*
X979028Y731850D01*
X979731Y732024D01*
X980443Y732157D01*
X981159Y732252D01*
X981878Y732298D01*
X982597Y732300D01*
X983306Y732249D01*
X984002Y732132D01*
X984681Y731952D01*
X985332Y731704D01*
X985946Y731380D01*
X986520Y730989D01*
X987043Y730537D01*
X987499Y730022D01*
X987889Y729453D01*
X988207Y728837D01*
X988456Y728185D01*
X988638Y727503D01*
X988764Y726801D01*
X988836Y726088D01*
X988848Y725762D01*
X988848Y725761D01*
X988862Y725366D01*
X988845Y724643D01*
X988788Y723924D01*
X988681Y723213D01*
X988526Y722515D01*
X988316Y721835D01*
X988052Y721176D01*
X987777Y720637D01*
X987777Y720636D01*
X987751Y720543D01*
X987743Y720532D01*
X987675Y720454D01*
X987358Y719941D01*
X986930Y719378D01*
X986453Y718848D01*
X985936Y718353D01*
X985385Y717901D01*
X984797Y717494D01*
X984181Y717129D01*
X983540Y716813D01*
X982873Y716545D01*
X982189Y716318D01*
X981491Y716136D01*
X980776Y715993D01*
X980468Y715943D01*
X979746Y715862D01*
X979025Y715819D01*
X978311Y715829D01*
G37*
%LPD*%
%LPC*%
G36*
X978314Y759611D02*
X978314Y759611D01*
X977607Y759677D01*
X976913Y759801D01*
X976241Y759992D01*
X975595Y760253D01*
X974985Y760583D01*
X974421Y760984D01*
X973908Y761443D01*
X973467Y761966D01*
X973091Y762543D01*
X972793Y763166D01*
X972561Y763826D01*
X972393Y764512D01*
X972282Y765215D01*
X972223Y765931D01*
X972207Y766652D01*
X972233Y767373D01*
X972303Y768089D01*
X972421Y768795D01*
X972589Y769490D01*
X972776Y770067D01*
X972786Y770152D01*
X972788Y770167D01*
X972849Y770262D01*
X973083Y770818D01*
X973416Y771445D01*
X973797Y772042D01*
X974231Y772602D01*
X974710Y773128D01*
X975232Y773616D01*
X975784Y774065D01*
X976374Y774464D01*
X976993Y774822D01*
X977636Y775135D01*
X978301Y775399D01*
X978986Y775617D01*
X979685Y775793D01*
X980397Y775929D01*
X981111Y776028D01*
X981829Y776076D01*
X982547Y776081D01*
X983256Y776035D01*
X983950Y775925D01*
X984629Y775747D01*
X985282Y775504D01*
X985897Y775186D01*
X986475Y774801D01*
X987002Y774355D01*
X987465Y773848D01*
X987860Y773285D01*
X988184Y772674D01*
X988438Y772026D01*
X988625Y771347D01*
X988755Y770648D01*
X988832Y769937D01*
X988861Y769217D01*
X988849Y768494D01*
X988794Y767776D01*
X988694Y767065D01*
X988545Y766368D01*
X988340Y765687D01*
X988082Y765026D01*
X987768Y764392D01*
X987402Y763787D01*
X986980Y763220D01*
X986510Y762686D01*
X985999Y762189D01*
X985452Y761732D01*
X984869Y761320D01*
X984259Y760949D01*
X983621Y760631D01*
X982957Y760356D01*
X982280Y760123D01*
X981582Y759941D01*
X980870Y759792D01*
X980467Y759726D01*
X979747Y759643D01*
X979029Y759602D01*
X978314Y759611D01*
G37*
%LPD*%
G36*
X985340Y791683D02*
X985340Y791683D01*
X985409Y791707D01*
X985480Y791724D01*
X985502Y791740D01*
X985528Y791749D01*
X985582Y791799D01*
X985641Y791842D01*
X985654Y791865D01*
X985674Y791884D01*
X985705Y791950D01*
X985742Y792013D01*
X985747Y792043D01*
X985757Y792065D01*
X985758Y792108D01*
X985770Y792177D01*
X985770Y809495D01*
X985769Y809500D01*
X985769Y809505D01*
X985758Y809551D01*
X985758Y809554D01*
X985755Y809615D01*
X985738Y809651D01*
X985730Y809690D01*
X985696Y809740D01*
X985670Y809794D01*
X985637Y809826D01*
X985618Y809854D01*
X985587Y809874D01*
X985550Y809909D01*
X985138Y810187D01*
X985043Y810227D01*
X984955Y810264D01*
X984954Y810264D01*
X984951Y810264D01*
X984788Y810268D01*
X976588Y809107D01*
X976519Y809082D01*
X976448Y809065D01*
X976426Y809049D01*
X976400Y809040D01*
X976346Y808991D01*
X976288Y808947D01*
X976274Y808924D01*
X976254Y808906D01*
X976223Y808839D01*
X976186Y808776D01*
X976181Y808746D01*
X976171Y808725D01*
X976170Y808682D01*
X976158Y808612D01*
X976158Y791294D01*
X976170Y791235D01*
X976173Y791175D01*
X976190Y791139D01*
X976198Y791100D01*
X976232Y791050D01*
X976258Y790995D01*
X976291Y790963D01*
X976311Y790936D01*
X976341Y790916D01*
X976378Y790881D01*
X976790Y790603D01*
X976790Y790602D01*
X976872Y790568D01*
X976974Y790526D01*
X976976Y790526D01*
X977140Y790522D01*
X985340Y791683D01*
G37*
%LPC*%
G36*
X992880Y836534D02*
X992880Y836534D01*
X992899Y837268D01*
X992946Y837884D01*
X992945Y837895D01*
X992947Y837907D01*
X992934Y837986D01*
X992934Y837987D01*
X992941Y837998D01*
X992947Y838032D01*
X992969Y838104D01*
X993051Y838716D01*
X993178Y839430D01*
X993356Y840123D01*
X993586Y840797D01*
X993874Y841445D01*
X994214Y842061D01*
X994618Y842628D01*
X995085Y843141D01*
X995612Y843597D01*
X996178Y843989D01*
X996792Y844289D01*
X997451Y844513D01*
X998138Y844667D01*
X998844Y844761D01*
X999542Y844796D01*
X1000215Y844738D01*
X1000846Y844570D01*
X1001424Y844269D01*
X1001950Y843858D01*
X1002411Y843361D01*
X1002797Y842799D01*
X1003108Y842179D01*
X1003359Y841518D01*
X1003553Y840833D01*
X1003691Y840136D01*
X1003843Y838669D01*
X1003890Y837935D01*
X1003935Y836443D01*
X1003935Y831271D01*
X1003853Y831073D01*
X992932Y829580D01*
X992876Y829572D01*
X992880Y836534D01*
G37*
%LPD*%
G36*
X1008602Y643358D02*
X1008602Y643358D01*
X1008619Y643362D01*
X1008642Y643360D01*
X1009004Y643392D01*
X1009030Y643400D01*
X1009067Y643402D01*
X1009800Y643562D01*
X1009820Y643571D01*
X1009848Y643576D01*
X1010561Y643810D01*
X1010581Y643821D01*
X1010609Y643828D01*
X1011294Y644134D01*
X1011311Y644146D01*
X1011337Y644155D01*
X1011990Y644524D01*
X1012007Y644539D01*
X1012033Y644551D01*
X1012645Y644985D01*
X1012660Y645001D01*
X1012684Y645016D01*
X1013250Y645508D01*
X1013265Y645527D01*
X1013289Y645546D01*
X1013798Y646098D01*
X1013809Y646117D01*
X1013830Y646136D01*
X1014281Y646736D01*
X1014290Y646754D01*
X1014307Y646773D01*
X1014702Y647411D01*
X1014709Y647431D01*
X1014725Y647452D01*
X1015058Y648125D01*
X1015064Y648145D01*
X1015073Y648160D01*
X1015076Y648166D01*
X1015077Y648166D01*
X1015077Y648168D01*
X1015346Y648868D01*
X1015350Y648891D01*
X1015362Y648919D01*
X1015554Y649644D01*
X1015556Y649671D01*
X1015566Y649703D01*
X1015670Y650446D01*
X1015669Y650470D01*
X1015675Y650501D01*
X1015695Y651251D01*
X1015691Y651275D01*
X1015694Y651306D01*
X1015632Y652054D01*
X1015624Y652081D01*
X1015623Y652118D01*
X1015464Y652852D01*
X1015452Y652879D01*
X1015444Y652918D01*
X1015186Y653622D01*
X1015168Y653650D01*
X1015154Y653692D01*
X1014790Y654348D01*
X1014768Y654373D01*
X1014745Y654415D01*
X1014281Y655003D01*
X1014258Y655022D01*
X1014236Y655053D01*
X1013696Y655574D01*
X1013670Y655591D01*
X1013642Y655619D01*
X1013034Y656060D01*
X1013007Y656072D01*
X1012975Y656097D01*
X1012312Y656447D01*
X1012282Y656456D01*
X1012246Y656476D01*
X1011539Y656728D01*
X1011507Y656732D01*
X1011466Y656748D01*
X1010730Y656889D01*
X1010703Y656889D01*
X1010667Y656898D01*
X1009918Y656945D01*
X1009891Y656941D01*
X1009856Y656945D01*
X1009107Y656899D01*
X1009089Y656894D01*
X1009065Y656894D01*
X1008323Y656784D01*
X1008299Y656776D01*
X1008268Y656773D01*
X1007542Y656580D01*
X1007520Y656569D01*
X1007489Y656562D01*
X1006790Y656288D01*
X1006769Y656274D01*
X1006737Y656264D01*
X1006075Y655911D01*
X1006058Y655897D01*
X1006032Y655885D01*
X1005409Y655466D01*
X1005393Y655449D01*
X1005367Y655434D01*
X1004792Y654952D01*
X1004777Y654934D01*
X1004754Y654917D01*
X1004232Y654378D01*
X1004220Y654359D01*
X1004198Y654339D01*
X1003734Y653749D01*
X1003725Y653731D01*
X1003707Y653711D01*
X1003300Y653080D01*
X1003293Y653061D01*
X1003277Y653041D01*
X1002930Y652375D01*
X1002925Y652356D01*
X1002911Y652334D01*
X1002626Y651640D01*
X1002622Y651617D01*
X1002608Y651590D01*
X1002399Y650869D01*
X1002397Y650844D01*
X1002386Y650813D01*
X1002261Y650073D01*
X1002262Y650048D01*
X1002255Y650015D01*
X1002217Y649266D01*
X1002221Y649242D01*
X1002217Y649209D01*
X1002265Y648461D01*
X1002272Y648434D01*
X1002273Y648397D01*
X1002416Y647661D01*
X1002428Y647633D01*
X1002435Y647592D01*
X1002680Y646884D01*
X1002695Y646858D01*
X1002707Y646821D01*
X1003048Y646152D01*
X1003066Y646130D01*
X1003082Y646095D01*
X1003509Y645478D01*
X1003531Y645457D01*
X1003554Y645422D01*
X1004065Y644873D01*
X1004091Y644855D01*
X1004120Y644823D01*
X1004706Y644356D01*
X1004737Y644341D01*
X1004774Y644311D01*
X1005429Y643945D01*
X1005459Y643936D01*
X1005495Y643915D01*
X1006196Y643648D01*
X1006223Y643644D01*
X1006255Y643630D01*
X1006984Y643453D01*
X1007011Y643452D01*
X1007045Y643442D01*
X1007791Y643356D01*
X1007817Y643358D01*
X1007851Y643353D01*
X1008602Y643358D01*
G37*
D10*
X893791Y431780D02*
X896527Y432411D01*
X897903Y432687D01*
X899977Y433053D01*
X901365Y433263D01*
X903454Y433521D01*
X904152Y433599D01*
X906249Y433787D01*
X909051Y433959D01*
X911857Y434045D01*
X913963Y434064D01*
X915366Y434056D01*
X917471Y433987D01*
X918872Y433906D01*
X920969Y433717D01*
X922364Y433558D01*
X923755Y433366D01*
X925139Y433133D01*
X926518Y432873D01*
X927888Y432568D01*
X929248Y432218D01*
X929923Y432027D01*
X931260Y431602D01*
X932579Y431121D01*
X933230Y430858D01*
X933874Y430578D01*
X935132Y429957D01*
X935747Y429619D01*
X936348Y429257D01*
X936935Y428873D01*
X937507Y428466D01*
X938058Y428031D01*
X938587Y427570D01*
X939091Y427082D01*
X939559Y426560D01*
X939983Y426000D01*
X940366Y425412D01*
X940706Y424799D01*
X941006Y424164D01*
X941270Y423514D01*
X941501Y422851D01*
X941698Y422178D01*
X942020Y420812D01*
X942258Y419428D01*
X942352Y418733D01*
X942860Y413846D01*
X943185Y411058D01*
X943271Y408954D01*
X943238Y407551D01*
X943195Y406851D01*
X943070Y405452D01*
X942850Y404066D01*
X942717Y403377D01*
X942405Y402009D01*
X942001Y400664D01*
X941774Y400000D01*
X941276Y398688D01*
X940697Y397409D01*
X940050Y396164D01*
X939709Y395551D01*
X938973Y394356D01*
X938570Y393781D01*
X937743Y392648D01*
X936863Y391554D01*
X935921Y390513D01*
X935431Y390011D01*
X934426Y389031D01*
X933371Y388106D01*
X932273Y387231D01*
X931713Y386808D01*
X930563Y386003D01*
X929375Y385256D01*
X928772Y384897D01*
X927546Y384213D01*
X926288Y383591D01*
X925651Y383296D01*
X924361Y382743D01*
X923047Y382250D01*
X922385Y382017D01*
X921047Y381592D01*
X919011Y381057D01*
X917638Y380765D01*
X915561Y380420D01*
X913467Y380202D01*
X912066Y380111D01*
X909961Y380085D01*
X908558Y380135D01*
X907857Y380179D01*
X906459Y380297D01*
X905764Y380395D01*
X905077Y380536D01*
X904398Y380716D01*
X903729Y380927D01*
X903070Y381169D01*
X902423Y381438D01*
X901784Y381729D01*
X901154Y382038D01*
X900535Y382370D01*
X899321Y383073D01*
X898725Y383444D01*
X897560Y384228D01*
X896416Y385041D01*
X895304Y385898D01*
X894207Y386773D01*
X892599Y388133D01*
X891029Y389535D01*
X888474Y391942D01*
X883497Y396890D01*
X930397Y389457D02*
X930680Y390101D01*
X930900Y390771D01*
X931068Y391455D01*
X931189Y392148D01*
X931269Y392848D01*
X931313Y393551D01*
X931321Y394256D01*
X931301Y394960D01*
X931252Y395663D01*
X931179Y396363D01*
X930956Y397754D01*
X930810Y398443D01*
X930444Y399804D01*
X930221Y400472D01*
X929968Y401129D01*
X929676Y401770D01*
X929030Y403022D01*
X928283Y404216D01*
X927434Y405339D01*
X926484Y406379D01*
X925971Y406862D01*
X925442Y407326D01*
X924889Y407762D01*
X924318Y408174D01*
X923730Y408563D01*
X922508Y409262D01*
X921231Y409857D01*
X919914Y410356D01*
X918564Y410761D01*
X917192Y411080D01*
X915803Y411317D01*
X914403Y411484D01*
X912998Y411578D01*
X912294Y411597D01*
X911589Y411614D01*
X910180Y411592D01*
X908774Y411515D01*
X906670Y411314D01*
X905273Y411127D01*
X904578Y411013D01*
X902500Y410628D01*
X901125Y410322D01*
X899758Y409978D01*
X897726Y409399D01*
X895715Y408748D01*
X894388Y408274D01*
X893075Y407765D01*
X891772Y407227D01*
X891128Y406942D01*
X889216Y406042D01*
X881506Y417417D02*
X881209Y418054D01*
X881506Y417417D02*
X881763Y416763D01*
X881994Y416099D01*
X882191Y415425D01*
X882365Y414744D01*
X882509Y414056D01*
X882738Y412669D01*
X882817Y411970D01*
X882923Y410569D01*
X882968Y409164D01*
X882955Y407758D01*
X882891Y406354D01*
X882779Y404953D01*
X882531Y402859D01*
X882317Y401469D01*
X882063Y400086D01*
X881773Y398711D01*
X881441Y397345D01*
X881257Y396666D01*
X881068Y395989D01*
X880653Y394646D01*
X879738Y391988D01*
X878764Y389350D01*
X877988Y387389D01*
X876888Y384802D01*
X876005Y382887D01*
X875392Y381621D01*
X874751Y380371D01*
X873736Y378522D01*
X872661Y376708D01*
X871911Y375519D01*
X871526Y374931D01*
X870724Y373776D01*
X869896Y372640D01*
X869036Y371529D01*
X868143Y370443D01*
X867687Y369908D01*
X866747Y368862D01*
X865275Y367353D01*
X864770Y366864D01*
X863734Y365914D01*
X863208Y365447D01*
X862128Y364547D01*
X861024Y363677D01*
X860457Y363261D01*
X859888Y362849D01*
X858726Y362057D01*
X857541Y361302D01*
X856939Y360939D01*
X856335Y360580D01*
X855109Y359891D01*
X853865Y359236D01*
X852602Y358618D01*
X851329Y358022D01*
X849396Y357180D01*
X847441Y356389D01*
X846787Y356132D01*
X832904Y351114D01*
X830294Y350068D01*
X828358Y349232D01*
X826451Y348334D01*
X824575Y347372D01*
X823345Y346691D01*
X822138Y345969D01*
X820953Y345213D01*
X819794Y344417D01*
X818664Y343581D01*
X818110Y343149D01*
X817022Y342259D01*
X815969Y341327D01*
X814953Y340355D01*
X814471Y339844D01*
X814020Y339305D01*
X813600Y338742D01*
X813213Y338156D01*
X812856Y337550D01*
X812529Y336928D01*
X812231Y336291D01*
X811957Y335645D01*
X811705Y334989D01*
X811260Y333655D01*
X811069Y332979D01*
X810728Y331615D01*
X810579Y330928D01*
X810321Y329546D01*
X810206Y328853D01*
X810011Y327461D01*
X809762Y325367D01*
X809693Y324667D01*
X808977Y315557D01*
X808833Y314159D01*
X808655Y312764D01*
X808543Y312070D01*
X807542Y306537D01*
X806394Y301032D01*
X804938Y294875D01*
X803302Y288764D01*
X803111Y288088D01*
X801274Y282034D01*
X800167Y278699D01*
X798998Y275384D01*
X797758Y272095D01*
X796718Y269483D01*
X795068Y265602D01*
X793904Y263042D01*
X792376Y259878D01*
X790763Y256755D01*
X789395Y254298D01*
X789050Y253686D01*
X787234Y250677D01*
X785707Y248316D01*
X784100Y246008D01*
X783696Y245434D01*
X781993Y243196D01*
X781555Y242647D01*
X779755Y240486D01*
X777859Y238410D01*
X777370Y237905D01*
X775368Y235932D01*
X773269Y234060D01*
X771067Y232313D01*
X770500Y231898D01*
X768766Y230698D01*
X768179Y230311D01*
X765765Y228871D01*
X763258Y227597D01*
X760665Y226510D01*
X758678Y225805D01*
X758006Y225599D01*
X756660Y225193D01*
X754617Y224670D01*
X752554Y224235D01*
X750475Y223884D01*
X748384Y223611D01*
X746985Y223471D01*
X744882Y223322D01*
X744179Y223291D01*
X742071Y223240D01*
X739963Y223255D01*
X738557Y223298D01*
X736452Y223421D01*
X734351Y223601D01*
X732256Y223837D01*
X730167Y224127D01*
X728086Y224469D01*
X725325Y225000D01*
X723950Y225293D01*
X721897Y225772D01*
X719854Y226298D01*
X717822Y226860D01*
X715131Y227675D01*
X713792Y228104D01*
X711796Y228783D01*
X707839Y230243D01*
X703936Y231841D01*
X700725Y233269D01*
X696923Y235095D01*
X694421Y236378D01*
X691951Y237720D01*
X690131Y238786D01*
X688932Y239520D01*
X687745Y240274D01*
X686007Y241468D01*
X684878Y242305D01*
X683774Y243175D01*
X682709Y244093D01*
X682190Y244567D01*
X681192Y245557D01*
X680716Y246074D01*
X680258Y246607D01*
X679819Y247156D01*
X679404Y247723D01*
X679016Y248309D01*
X678659Y248914D01*
X678338Y249540D01*
X678060Y250185D01*
X677811Y250842D01*
X677608Y251515D01*
X677423Y252192D01*
X677267Y252878D01*
X677012Y254260D01*
X676838Y255655D01*
X676716Y257056D01*
X676674Y257757D01*
X676599Y259864D01*
X676593Y261973D01*
X676597Y262676D01*
X677035Y274618D01*
X677086Y277429D01*
X677081Y278835D01*
X677047Y280240D01*
X676978Y281645D01*
X676853Y283045D01*
X676770Y283743D01*
X676558Y285132D01*
X676409Y285819D01*
X676243Y286502D01*
X676043Y287176D01*
X675805Y287837D01*
X675532Y288484D01*
X675218Y289112D01*
X674832Y289700D01*
X674392Y290247D01*
X673911Y290758D01*
X672892Y291727D01*
X671839Y292658D01*
X670761Y293560D01*
X669099Y294859D01*
X667966Y295690D01*
X666239Y296901D01*
X664481Y298065D01*
X660903Y300297D01*
X650598Y306347D01*
X648204Y307822D01*
X647028Y308593D01*
X646454Y308998D01*
X645325Y309836D01*
X644228Y310715D01*
X643158Y311627D01*
X641602Y313050D01*
X640594Y314030D01*
X639608Y315032D01*
X638642Y316053D01*
X636769Y318151D01*
X634500Y320834D01*
X631406Y324661D01*
X630547Y325773D01*
X630128Y326337D01*
X629321Y327488D01*
X628558Y328669D01*
X627485Y330484D01*
X626816Y331721D01*
X626189Y332979D01*
X625311Y334896D01*
X624771Y336194D01*
X624029Y338168D01*
X623571Y339497D01*
X623146Y340837D01*
X622561Y342863D01*
X622209Y344224D01*
X621730Y346278D01*
X621438Y347653D01*
X621051Y349726D01*
X620817Y351112D01*
X620326Y354592D01*
X619951Y358087D01*
X619670Y361590D01*
X619481Y365099D01*
X619292Y371423D01*
X619244Y377046D01*
X619140Y378448D01*
X618622Y382634D01*
X618498Y384034D01*
X618468Y384736D01*
X618462Y385439D01*
X618487Y386141D01*
X618549Y386841D01*
X618651Y387537D01*
X618792Y388225D01*
X619115Y389593D01*
X619499Y390946D01*
X619708Y391616D01*
X620170Y392944D01*
X620951Y394903D01*
X621527Y396185D01*
X622145Y397448D01*
X622794Y398695D01*
X623822Y400536D01*
X624535Y401748D01*
X630531Y411263D01*
X631957Y413686D01*
X632252Y414324D01*
X632492Y414984D01*
X632684Y415660D01*
X632837Y416346D01*
X633250Y418414D01*
X633412Y419098D01*
X633620Y419769D01*
X633881Y420422D01*
X634209Y421043D01*
X634593Y421631D01*
X635021Y422189D01*
X635495Y422707D01*
X636001Y423195D01*
X636535Y423652D01*
X637092Y424080D01*
X637664Y424489D01*
X640580Y426450D01*
X641145Y426868D01*
X644426Y429518D01*
X647778Y432079D01*
X651216Y434521D01*
X654735Y436846D01*
X658324Y439060D01*
X662594Y441506D01*
X666302Y443515D01*
X671306Y446080D01*
X768466Y237609D02*
X769110Y237890D01*
X768466Y237609D02*
X767802Y237377D01*
X767122Y237199D01*
X766431Y237068D01*
X765734Y236976D01*
X765033Y236922D01*
X764330Y236896D01*
X763627Y236905D01*
X762924Y236931D01*
X762223Y236982D01*
X760825Y237134D01*
X759433Y237335D01*
X753202Y238447D01*
X740681Y240310D01*
X739988Y240431D01*
X736529Y241065D01*
X733088Y241787D01*
X731033Y242265D01*
X728989Y242787D01*
X726957Y243357D01*
X724942Y243981D01*
X723608Y244426D01*
X721623Y245142D01*
X719664Y245925D01*
X718378Y246494D01*
X716473Y247401D01*
X715849Y247725D01*
X714609Y248389D01*
X712801Y249476D01*
X711628Y250252D01*
X709924Y251495D01*
X708838Y252389D01*
X708307Y252849D01*
X707275Y253805D01*
X706299Y254818D01*
X705821Y255334D01*
X704919Y256413D01*
X704493Y256972D01*
X703667Y258111D01*
X702918Y259301D01*
X702562Y259907D01*
X701905Y261151D01*
X701042Y263075D01*
X700550Y264393D01*
X700123Y265733D01*
X699938Y266412D01*
X699755Y267091D01*
X699447Y268463D01*
X699189Y269846D01*
X698985Y271237D01*
X698824Y272635D01*
X698703Y274036D01*
X698660Y274738D01*
X698572Y276846D01*
X698543Y279659D01*
X698790Y290908D01*
X698763Y293721D01*
X698709Y295126D01*
X698620Y296530D01*
X698563Y297231D01*
X698414Y298630D01*
X698219Y300022D01*
X697972Y301407D01*
X697665Y302780D01*
X697295Y304137D01*
X696861Y305474D01*
X696359Y306788D01*
X696059Y307423D01*
X695721Y308040D01*
X695348Y308636D01*
X694941Y309209D01*
X694504Y309760D01*
X694044Y310292D01*
X693562Y310805D01*
X693064Y311300D01*
X692548Y311779D01*
X691481Y312695D01*
X686491Y316588D01*
X685419Y317499D01*
X684902Y317975D01*
X684401Y318468D01*
X683918Y318980D01*
X683457Y319511D01*
X682161Y321176D01*
X680919Y322881D01*
X679726Y324621D01*
X678210Y326990D01*
X676773Y329409D01*
X675414Y331872D01*
X674130Y334374D01*
X673213Y336275D01*
X672053Y338837D01*
X670967Y341432D01*
X669954Y344056D01*
X669022Y346711D01*
X668179Y349394D01*
X667608Y351425D01*
X666923Y354154D01*
X666770Y354840D01*
X666355Y356908D01*
X666116Y358294D01*
X665916Y359687D01*
X665683Y361783D01*
X665528Y363887D01*
X665432Y365995D01*
X665408Y366698D01*
X665394Y369511D01*
X665432Y371620D01*
X665514Y373728D01*
X665684Y376536D01*
X665921Y379339D01*
X666220Y382136D01*
X666481Y384230D01*
X666983Y387710D01*
X667444Y390485D01*
X667957Y393251D01*
X668521Y396007D01*
X669142Y398750D01*
X669816Y401482D01*
X670356Y403521D01*
X671323Y406902D01*
X672168Y409585D01*
X673072Y412249D01*
X673791Y414232D01*
X674818Y416851D01*
X675920Y419439D01*
X676802Y421356D01*
X678058Y423873D01*
X679072Y425723D01*
X680517Y428136D01*
X681683Y429894D01*
X682936Y431592D01*
X684281Y433217D01*
X685723Y434758D01*
X686185Y435287D01*
X687053Y436394D01*
X690412Y440907D01*
X691288Y442008D01*
X692204Y443075D01*
X692681Y443592D01*
X693175Y444092D01*
X693688Y444574D01*
X694228Y445023D01*
X694798Y445435D01*
X695409Y445782D01*
X696065Y446031D01*
X696761Y446110D01*
X697448Y445970D01*
X698106Y445727D01*
X698723Y445391D01*
X699284Y444968D01*
X699783Y444473D01*
X700222Y443925D01*
X700605Y443336D01*
X700935Y442715D01*
X701220Y442072D01*
X701461Y441412D01*
X701663Y440739D01*
X701830Y440056D01*
X701964Y439366D01*
X702066Y438670D01*
X702140Y437971D01*
X702190Y437270D01*
X702210Y436567D01*
X702202Y435863D01*
X702167Y435161D01*
X702102Y434461D01*
X702007Y433764D01*
X701878Y433073D01*
X701707Y432391D01*
X701480Y431726D01*
X701186Y431088D01*
X700780Y430517D01*
X700209Y430119D01*
X699625Y430315D01*
X699435Y430990D01*
X699341Y431687D01*
X699263Y433091D01*
X699243Y435200D01*
X699361Y440825D01*
X699326Y441527D01*
X699201Y442219D01*
X699052Y442906D01*
X698877Y443588D01*
X698680Y444262D01*
X698455Y444929D01*
X698202Y445585D01*
X697913Y446226D01*
X697593Y446852D01*
X697238Y447459D01*
X696853Y448047D01*
X696434Y448612D01*
X695985Y449153D01*
X695507Y449668D01*
X695003Y450159D01*
X694478Y450626D01*
X693933Y451070D01*
X693370Y451493D01*
X692206Y452282D01*
X691607Y452650D01*
X691001Y453006D01*
X689772Y453690D01*
X687897Y454657D01*
X766292Y261107D02*
X765678Y260770D01*
X766292Y261107D02*
X766883Y261484D01*
X767454Y261890D01*
X768005Y262322D01*
X768536Y262779D01*
X769049Y263257D01*
X769543Y263754D01*
X770018Y264269D01*
X770472Y264802D01*
X770907Y265352D01*
X771324Y265915D01*
X771718Y266494D01*
X772091Y267087D01*
X772437Y267697D01*
X772759Y268319D01*
X773050Y268957D01*
X773310Y269608D01*
X773535Y270271D01*
X773718Y270948D01*
X773862Y271634D01*
X773955Y272328D01*
X773993Y273028D01*
X773973Y273728D01*
X773887Y274424D01*
X773733Y275107D01*
X773508Y275770D01*
X773214Y276406D01*
X772857Y277007D01*
X772440Y277571D01*
X771975Y278094D01*
X771462Y278571D01*
X770910Y279003D01*
X770338Y279408D01*
X769752Y279792D01*
X769153Y280156D01*
X767924Y280829D01*
X767294Y281135D01*
X766653Y281419D01*
X765347Y281928D01*
X764014Y282360D01*
X762658Y282712D01*
X761285Y282994D01*
X759901Y283215D01*
X758508Y283375D01*
X757112Y283489D01*
X755712Y283561D01*
X753610Y283626D01*
X750808Y283647D01*
X733078Y351137D02*
X734034Y352169D01*
X734498Y352697D01*
X735371Y353800D01*
X736155Y354967D01*
X736521Y355567D01*
X737184Y356807D01*
X737737Y358100D01*
X738168Y359439D01*
X738464Y360814D01*
X738611Y362213D01*
X738605Y363618D01*
X738540Y364319D01*
X738439Y365014D01*
X738304Y365704D01*
X737899Y367050D01*
X737624Y367697D01*
X737325Y368333D01*
X736987Y368950D01*
X736605Y369540D01*
X736203Y370116D01*
X735744Y370649D01*
X735265Y371163D01*
X734755Y371647D01*
X734211Y372092D01*
X733651Y372516D01*
X733053Y372887D01*
X732438Y373228D01*
X731806Y373534D01*
X731149Y373786D01*
X730485Y374016D01*
X729802Y374184D01*
X729113Y374320D01*
X728417Y374416D01*
X727012Y374477D01*
X725611Y374365D01*
X724232Y374091D01*
X723557Y373893D01*
X722889Y373675D01*
X721593Y373130D01*
X720350Y372472D01*
X719169Y371709D01*
X718056Y370849D01*
X717522Y370393D01*
X716489Y369438D01*
X814862Y353998D02*
X817470Y355011D01*
X818068Y355371D01*
X818577Y355849D01*
X826253Y363995D01*
X828598Y366590D01*
X829016Y367149D01*
X829286Y367790D01*
X829263Y368475D01*
X828884Y369050D01*
X828313Y369450D01*
X827680Y369746D01*
X827016Y369966D01*
X826337Y370134D01*
X825652Y370273D01*
X824961Y370386D01*
X824267Y370474D01*
X823571Y370547D01*
X822177Y370658D01*
X820080Y370744D01*
X818681Y370770D01*
X815184Y370737D01*
X810290Y370583D01*
X794845Y416910D02*
X795418Y417317D01*
X795970Y417754D01*
X796502Y418214D01*
X797016Y418694D01*
X797997Y419701D01*
X798927Y420757D01*
X799815Y421848D01*
X801082Y423535D01*
X801891Y424685D01*
X803434Y427038D01*
X804546Y428831D01*
X806326Y431864D01*
X806631Y432497D01*
X806801Y433179D01*
X806789Y433878D01*
X806566Y434539D01*
X806166Y435113D01*
X805647Y435585D01*
X805058Y435967D01*
X804431Y436286D01*
X803781Y436552D01*
X803116Y436780D01*
X802441Y436979D01*
X801759Y437150D01*
X801071Y437295D01*
X799687Y437545D01*
X797594Y437811D01*
X796192Y437935D01*
X794087Y438069D01*
X791978Y438145D01*
X787758Y438169D01*
X782836Y438072D01*
X845750Y354568D02*
X846221Y354272D01*
X846398Y354946D01*
X846465Y355643D01*
X846506Y357044D01*
X846485Y359146D01*
X846330Y363347D01*
X846343Y364046D01*
X846600Y368243D01*
X846639Y369644D01*
X846639Y370344D01*
X846621Y371045D01*
X846534Y372443D01*
X846365Y373834D01*
X846250Y374525D01*
X846114Y375213D01*
X845785Y376575D01*
X845594Y377249D01*
X845177Y378587D01*
X828592Y441504D02*
X828540Y442200D01*
X828418Y442886D01*
X828244Y443562D01*
X828030Y444227D01*
X827789Y444882D01*
X827523Y445527D01*
X826930Y446791D01*
X826280Y448026D01*
X825216Y449830D01*
X824460Y451004D01*
X823675Y452158D01*
X822439Y453849D01*
X821582Y454951D01*
X820245Y456562D01*
X818840Y458116D01*
X817866Y459116D01*
X816856Y460080D01*
X815802Y460995D01*
X815256Y461429D01*
X814695Y461846D01*
X814117Y462237D01*
X813519Y462596D01*
X812897Y462913D01*
X812246Y463162D01*
X811572Y463341D01*
X810887Y463477D01*
X809506Y463679D01*
X808811Y463747D01*
X807418Y463833D01*
X806022Y463862D01*
X801136Y463808D01*
X894938Y438072D02*
X895598Y437830D01*
X896296Y437796D01*
X896948Y438041D01*
X897438Y438540D01*
X897786Y439151D01*
X898036Y439809D01*
X898221Y440488D01*
X898359Y441180D01*
X898457Y441878D01*
X898526Y442579D01*
X898615Y443986D01*
X898629Y446101D01*
X898583Y447511D01*
X898462Y449622D01*
X898223Y452432D01*
X897656Y457335D01*
X896174Y467806D01*
X896071Y468503D01*
X895701Y470586D01*
X895427Y471969D01*
X894973Y474035D01*
X894459Y476087D01*
X894081Y477445D01*
X893471Y479470D01*
X893252Y480140D01*
X892800Y481476D01*
X892061Y483458D01*
X891534Y484766D01*
X890691Y486705D01*
X889775Y488612D01*
X889131Y489866D01*
X888450Y491101D01*
X888103Y491714D01*
X887377Y492923D01*
X886239Y494706D01*
X885435Y495864D01*
X884183Y497569D01*
X882855Y499215D01*
X881937Y500285D01*
X881463Y500807D01*
X880504Y501841D01*
X879513Y502844D01*
X877981Y504302D01*
X876388Y505694D01*
X875295Y506584D01*
X873618Y507873D01*
X871888Y509089D01*
X870114Y510241D01*
X868908Y510972D01*
X867069Y512017D01*
X865193Y512994D01*
X865325Y513591D02*
X864624Y513568D01*
X865325Y513591D02*
X866024Y513658D01*
X866716Y513773D01*
X867400Y513932D01*
X868073Y514130D01*
X868734Y514364D01*
X869385Y514627D01*
X870028Y514909D01*
X873813Y516755D01*
X876999Y518227D01*
X878881Y519170D01*
X880124Y519823D01*
X881348Y520511D01*
X883148Y521601D01*
X884895Y522778D01*
X886022Y523614D01*
X886573Y524049D01*
X887648Y524952D01*
X888681Y525901D01*
X889671Y526896D01*
X890613Y527937D01*
X891066Y528473D01*
X891930Y529579D01*
X892344Y530146D01*
X893131Y531308D01*
X893504Y531902D01*
X894216Y533112D01*
X895194Y534977D01*
X895789Y536248D01*
X896339Y537539D01*
X896857Y538844D01*
X897341Y540162D01*
X898011Y542158D01*
X898625Y544172D01*
X899190Y546200D01*
X899533Y547562D01*
X899847Y548930D01*
X900111Y550308D01*
X900321Y551696D01*
X900402Y552393D01*
X900499Y553793D01*
X900513Y554495D01*
X900499Y555196D01*
X900458Y555897D01*
X900385Y556595D01*
X900277Y557288D01*
X900133Y557975D01*
X899953Y558653D01*
X899727Y559318D01*
X899459Y559967D01*
X899153Y560598D01*
X898802Y561206D01*
X898410Y561787D01*
X897984Y562345D01*
X897524Y562874D01*
X897032Y563374D01*
X896515Y563849D01*
X895970Y564290D01*
X895402Y564703D01*
X894817Y565090D01*
X894217Y565454D01*
X893602Y565793D01*
X892974Y566106D01*
X892339Y566403D01*
X891693Y566679D01*
X889713Y567393D01*
X889048Y567616D01*
X887011Y568150D01*
X884936Y568510D01*
X884239Y568583D01*
X882840Y568694D01*
X882138Y568709D01*
X880735Y568694D01*
X880035Y568644D01*
X878638Y568504D01*
X877946Y568389D01*
X876566Y568134D01*
X874531Y567594D01*
X872543Y566901D01*
X870604Y566080D01*
X868716Y565149D01*
X867484Y564476D01*
X866875Y564128D01*
X865075Y563035D01*
X863311Y561885D01*
X861581Y560685D01*
X851959Y553629D01*
X849660Y552017D01*
X847901Y550861D01*
X846707Y550123D01*
X846106Y549759D01*
X844269Y548732D01*
X842384Y547793D01*
X841101Y547225D01*
X840451Y546959D01*
X839136Y546470D01*
X838468Y546253D01*
X837121Y545858D01*
X835066Y545401D01*
X834372Y545303D01*
X832979Y545124D01*
X830876Y545028D01*
X860622Y535301D02*
X860734Y535390D01*
X863794Y537126D01*
X865608Y538206D01*
X866205Y538579D01*
X867390Y539340D01*
X867972Y539735D01*
X869117Y540553D01*
X869669Y540990D01*
X870198Y541454D01*
X870686Y541960D01*
X871141Y542497D01*
X871562Y543060D01*
X871957Y543643D01*
X872327Y544241D01*
X872673Y544854D01*
X873305Y546111D01*
X873854Y547407D01*
X874344Y548727D01*
X874772Y550067D01*
X875315Y552107D01*
X875604Y553485D01*
X875851Y554870D01*
X876040Y556265D01*
X876179Y557666D01*
X876253Y559071D01*
X876269Y560478D01*
X876206Y561884D01*
X876145Y562585D01*
X876061Y563284D01*
X875954Y563979D01*
X875820Y564670D01*
X875653Y565354D01*
X875453Y566029D01*
X875205Y566687D01*
X874919Y567330D01*
X639279Y427776D02*
X639525Y427126D01*
X639026Y427559D01*
X638585Y428104D01*
X637330Y429795D01*
X636128Y431524D01*
X634968Y433282D01*
X634596Y433877D01*
X633885Y435087D01*
X633585Y435721D01*
X633373Y436390D01*
X633187Y437067D01*
X633030Y437751D01*
X632782Y439132D01*
X632685Y439827D01*
X632547Y441224D01*
X632498Y441925D01*
X632440Y443327D01*
X632429Y460173D01*
X632440Y460875D01*
X632583Y466489D01*
X632724Y469293D01*
X632925Y472093D01*
X633197Y474888D01*
X633547Y477674D01*
X633983Y480447D01*
X634234Y481829D01*
X634509Y483205D01*
X634968Y485260D01*
X635305Y486623D01*
X635670Y487979D01*
X636062Y489327D01*
X636477Y490668D01*
X637153Y492662D01*
X637637Y493980D01*
X638143Y495289D01*
X639230Y497878D01*
X640401Y500430D01*
X641652Y502943D01*
X641979Y503564D01*
X642980Y505417D01*
X644381Y507850D01*
X646221Y510839D01*
X647769Y513181D01*
X649374Y515484D01*
X651037Y517747D01*
X652755Y519968D01*
X654971Y522689D01*
X656332Y524296D01*
X658184Y526406D01*
X660554Y528995D01*
X664460Y533029D01*
X664960Y533522D01*
X665986Y534480D01*
X667044Y535403D01*
X668137Y536283D01*
X668700Y536703D01*
X669850Y537508D01*
X671033Y538263D01*
X672249Y538964D01*
X673494Y539612D01*
X674127Y539916D01*
X675409Y540488D01*
X680622Y542574D01*
X681279Y542820D01*
X681949Y543031D01*
X681977Y543388D01*
X681282Y543455D01*
X679887Y543310D01*
X632881Y428422D02*
X634130Y427776D01*
X632881Y428422D02*
X631031Y429436D01*
X629208Y430496D01*
X619040Y436777D01*
X617220Y437843D01*
X615374Y438863D01*
X614129Y439518D01*
X612868Y440140D01*
X610952Y441020D01*
X609650Y441552D01*
X608334Y442046D01*
X607671Y442279D01*
X606328Y442696D01*
X605651Y442888D01*
X604287Y443227D01*
X602908Y443503D01*
X602215Y443622D01*
X601519Y443718D01*
X600822Y443806D01*
X599422Y443946D01*
X597322Y444130D01*
X593110Y444373D01*
X588893Y444462D01*
X585377Y444436D01*
X581162Y444292D01*
X577652Y444091D01*
X569946Y443436D01*
X539227Y439791D01*
X535725Y439488D01*
X521689Y438650D01*
X518184Y438375D01*
X517485Y438304D01*
X514688Y438006D01*
X512598Y437722D01*
X511209Y437509D01*
X509136Y437119D01*
X508447Y436978D01*
X507077Y436663D01*
X505714Y436317D01*
X505037Y436125D01*
X504361Y435933D01*
X503021Y435509D01*
X501034Y434803D01*
X499730Y434276D01*
X499085Y433997D01*
X497814Y433396D01*
X497188Y433075D01*
X495960Y432389D01*
X494773Y431637D01*
X494195Y431237D01*
X493632Y430815D01*
X493084Y430375D01*
X492551Y429917D01*
X492040Y429435D01*
X491548Y428932D01*
X491079Y428409D01*
X490639Y427860D01*
X490226Y427292D01*
X489465Y426110D01*
X487668Y423088D01*
X486915Y421901D01*
X486523Y421317D01*
X486112Y420747D01*
X485681Y420192D01*
X485225Y419657D01*
X484743Y419145D01*
X484230Y418664D01*
X483686Y418220D01*
X483107Y417822D01*
X482494Y417479D01*
X481849Y417199D01*
X481179Y416988D01*
X477742Y416250D01*
X476363Y415977D01*
X474977Y415740D01*
X473585Y415545D01*
X472187Y415395D01*
X470783Y415321D01*
X470080Y415323D01*
X469377Y415350D01*
X468678Y415416D01*
X467984Y415527D01*
X467303Y415703D01*
X466646Y415950D01*
X466040Y416304D01*
X465521Y416775D01*
X465115Y417348D01*
X464727Y417934D01*
X464373Y418540D01*
X463735Y419793D01*
X463203Y421094D01*
X462773Y422433D01*
X462579Y423108D01*
X462253Y424476D01*
X461881Y426551D01*
X461649Y428648D01*
X461558Y430051D01*
X461521Y430753D01*
X461484Y432862D01*
X461533Y434970D01*
X461656Y437076D01*
X461852Y439176D01*
X462107Y441269D01*
X462533Y444049D01*
X462919Y446123D01*
X463516Y448870D01*
X464014Y450920D01*
X464567Y452955D01*
X465377Y455648D01*
X466038Y457651D01*
X466753Y459636D01*
X467781Y462253D01*
X468615Y464190D01*
X469502Y466104D01*
X470454Y467986D01*
X471473Y469833D01*
X472571Y471633D01*
X473351Y472804D01*
X473754Y473379D01*
X474590Y474510D01*
X475486Y475593D01*
X475950Y476121D01*
X476921Y477138D01*
X477960Y478085D01*
X478511Y478522D01*
X479081Y478933D01*
X479669Y479319D01*
X480275Y479675D01*
X480897Y480003D01*
X481532Y480304D01*
X482179Y480579D01*
X482838Y480824D01*
X484180Y481243D01*
X485547Y481573D01*
X486236Y481710D01*
X487624Y481932D01*
X489021Y482093D01*
X489721Y482160D01*
X491123Y482260D01*
X497444Y482563D01*
X498846Y482662D01*
X501644Y482951D01*
X504430Y483331D01*
X520357Y486126D01*
X521040Y486292D01*
X521700Y486532D01*
X522334Y486834D01*
X522942Y487186D01*
X523525Y487580D01*
X524086Y488003D01*
X524624Y488455D01*
X525144Y488929D01*
X525641Y489425D01*
X526591Y490462D01*
X527487Y491545D01*
X527914Y492104D01*
X528735Y493245D01*
X529517Y494414D01*
X530261Y495607D01*
X530969Y496822D01*
X531642Y498056D01*
X532284Y499307D01*
X533185Y501214D01*
X533744Y502504D01*
X534257Y503813D01*
X534724Y505139D01*
X535126Y506486D01*
X535289Y507170D01*
X535414Y507862D01*
X535507Y508559D01*
X535566Y509259D01*
X535593Y509962D01*
X535585Y510665D01*
X535536Y511366D01*
X535432Y512061D01*
X535273Y512745D01*
X535033Y513406D01*
X534699Y514023D01*
X534252Y514563D01*
X533680Y514969D01*
X533022Y515209D01*
X532324Y515284D01*
X569924Y495250D02*
X571217Y494696D01*
X569924Y495250D02*
X569285Y495544D01*
X568653Y495852D01*
X567410Y496509D01*
X566192Y497211D01*
X565593Y497579D01*
X564416Y498349D01*
X563837Y498748D01*
X562690Y499562D01*
X562130Y499987D01*
X561016Y500845D01*
X559920Y501726D01*
X551882Y508555D01*
X550231Y509868D01*
X549111Y510718D01*
X546814Y512342D01*
X545646Y513125D01*
X544465Y513888D01*
X543270Y514630D01*
X540845Y516054D01*
X538375Y517399D01*
X535861Y518661D01*
X532669Y520134D01*
X530081Y521234D01*
X528120Y522012D01*
X525485Y522997D01*
X520161Y524811D01*
X519491Y525022D01*
X506005Y529012D01*
X505325Y529191D01*
X503947Y529471D01*
X503253Y529581D01*
X501857Y529752D01*
X500455Y529855D01*
X499050Y529913D01*
X496941Y529911D01*
X495535Y529863D01*
X493430Y529722D01*
X492730Y529662D01*
X490634Y529427D01*
X488546Y529125D01*
X486470Y528756D01*
X485092Y528471D01*
X483721Y528157D01*
X483040Y527984D01*
X481009Y527415D01*
X480339Y527201D01*
X479011Y526740D01*
X477701Y526229D01*
X476420Y525648D01*
X471409Y523092D01*
X468238Y521573D01*
X466953Y521004D01*
X465652Y520469D01*
X464341Y519960D01*
X463679Y519723D01*
X462342Y519288D01*
X461667Y519092D01*
X460305Y518743D01*
X459616Y518599D01*
X458228Y518377D01*
X457528Y518308D01*
X456826Y518272D01*
X456123Y518272D01*
X455421Y518310D01*
X454723Y518396D01*
X454034Y518534D01*
X453359Y518730D01*
X452704Y518986D01*
X452072Y519293D01*
X451469Y519654D01*
X450892Y520056D01*
X450341Y520492D01*
X449825Y520970D01*
X449334Y521473D01*
X448872Y522003D01*
X448442Y522559D01*
X448041Y523136D01*
X447666Y523731D01*
X447325Y524346D01*
X447013Y524976D01*
X446733Y525621D01*
X446483Y526278D01*
X446267Y526947D01*
X446086Y527626D01*
X445940Y528314D01*
X445833Y529009D01*
X445768Y529709D01*
X445744Y530411D01*
X445774Y531114D01*
X445848Y531813D01*
X445976Y532504D01*
X446163Y533181D01*
X446404Y533842D01*
X446688Y534485D01*
X447012Y535109D01*
X447364Y535717D01*
X447734Y536315D01*
X449670Y539250D01*
X450035Y539851D01*
X450375Y540466D01*
X450685Y541097D01*
X450956Y541745D01*
X453878Y550407D01*
X454608Y552386D01*
X455646Y555000D01*
X456204Y556291D01*
X457094Y558203D01*
X457731Y559457D01*
X458059Y560078D01*
X458752Y561302D01*
X459111Y561907D01*
X459868Y563092D01*
X460263Y563674D01*
X461089Y564811D01*
X461969Y565908D01*
X462424Y566445D01*
X462899Y566962D01*
X463881Y567968D01*
X464923Y568913D01*
X465464Y569362D01*
X466585Y570210D01*
X467167Y570605D01*
X468363Y571345D01*
X469606Y572001D01*
X471512Y572907D01*
X473444Y573752D01*
X475404Y574532D01*
X477385Y575256D01*
X479387Y575919D01*
X482084Y576717D01*
X484806Y577427D01*
X487548Y578053D01*
X490306Y578605D01*
X492382Y578977D01*
X497940Y579843D01*
X512582Y581758D01*
X513970Y581981D01*
X515351Y582247D01*
X517409Y582708D01*
X518774Y583049D01*
X521479Y583818D01*
X523488Y584459D01*
X526145Y585383D01*
X528772Y586388D01*
X530724Y587188D01*
X533304Y588306D01*
X535859Y589483D01*
X538385Y590719D01*
X542753Y592989D01*
X547045Y595398D01*
X550063Y597201D01*
X551258Y597942D01*
X552441Y598703D01*
X554773Y600275D01*
X556480Y601514D01*
X557597Y602368D01*
X558695Y603247D01*
X559764Y604161D01*
X560807Y605104D01*
X561816Y606083D01*
X562309Y606585D01*
X563256Y607624D01*
X564155Y608705D01*
X564580Y609265D01*
X565383Y610420D01*
X565756Y611016D01*
X566100Y611628D01*
X566422Y612254D01*
X566719Y612891D01*
X566989Y613539D01*
X567219Y614204D01*
X567413Y614880D01*
X567568Y615565D01*
X567683Y616258D01*
X567757Y616957D01*
X567783Y617660D01*
X507160Y438643D02*
X506483Y438813D01*
X505907Y439214D01*
X505435Y439735D01*
X505035Y440315D01*
X504686Y440927D01*
X504373Y441558D01*
X504090Y442203D01*
X503589Y443520D01*
X502950Y445534D01*
X501816Y449607D01*
X501474Y450973D01*
X501181Y452352D01*
X500935Y453739D01*
X500616Y455828D01*
X500352Y457925D01*
X500145Y460029D01*
X499930Y462839D01*
X499800Y465654D01*
X499749Y468471D01*
X499761Y470585D01*
X499861Y473401D01*
X500015Y475509D01*
X500158Y476911D01*
X500345Y478307D01*
X500578Y479697D01*
X500867Y481076D01*
X501244Y482433D01*
X501467Y483101D01*
X501721Y483758D01*
X502011Y484400D01*
X487713Y530155D02*
X486974Y531354D01*
X486315Y532599D01*
X486026Y533241D01*
X485744Y533886D01*
X485255Y535207D01*
X484846Y536554D01*
X484509Y537922D01*
X484368Y538612D01*
X484134Y540000D01*
X483963Y541398D01*
X483900Y542100D01*
X483847Y542802D01*
X483782Y544209D01*
X483764Y545617D01*
X483785Y547026D01*
X483844Y548433D01*
X483993Y550540D01*
X484271Y553343D01*
X486154Y567302D01*
X486360Y569405D01*
X486471Y570809D01*
X486542Y572216D01*
X486570Y573624D01*
X532323Y592495D02*
X533026Y592518D01*
X533140Y592770D01*
X529757Y593724D01*
X528422Y594166D01*
X527775Y594440D01*
X527167Y594792D01*
X526625Y595239D01*
X526109Y595716D01*
X525618Y596220D01*
X525151Y596745D01*
X524699Y597284D01*
X524267Y597838D01*
X523446Y598980D01*
X522680Y600159D01*
X521966Y601370D01*
X521626Y601986D01*
X520985Y603237D01*
X520684Y603873D01*
X520133Y605166D01*
X519885Y605824D01*
X519658Y606489D01*
X519460Y607164D01*
X519291Y607846D01*
X519168Y608538D01*
X518328Y614810D01*
X517607Y621097D01*
X517059Y626695D01*
X516611Y632302D01*
X516215Y638617D01*
X515945Y644939D01*
X515742Y656891D01*
X515826Y665327D01*
X516130Y674462D01*
X516605Y682886D01*
X517270Y691297D01*
X518136Y699690D01*
X519214Y708058D01*
X520511Y716395D01*
X522813Y728840D01*
X523611Y733696D01*
X527180Y761593D01*
X528615Y771331D01*
X529486Y776175D01*
X530331Y780308D01*
X530490Y780993D01*
X531468Y785097D01*
X532196Y787813D01*
X532784Y789839D01*
X533198Y791183D01*
X534073Y793856D01*
X535026Y796502D01*
X535788Y798468D01*
X536098Y799099D01*
X536475Y799692D01*
X536904Y800249D01*
X537370Y800775D01*
X537867Y801273D01*
X540454Y803652D01*
X540952Y804149D01*
X541426Y804668D01*
X541870Y805213D01*
X542271Y805790D01*
X542617Y806401D01*
X572932Y768084D02*
X573579Y767811D01*
X574265Y767681D01*
X574852Y767989D01*
X574982Y768668D01*
X574896Y769363D01*
X574718Y770043D01*
X574494Y770708D01*
X574240Y771363D01*
X573965Y772009D01*
X573373Y773283D01*
X572408Y775156D01*
X571731Y776387D01*
X570672Y778209D01*
X569204Y780605D01*
X568444Y781786D01*
X567653Y782947D01*
X567230Y783507D01*
X566311Y784569D01*
X565864Y785111D01*
X565006Y786223D01*
X564587Y786787D01*
X563370Y788507D01*
X557184Y797890D01*
X556785Y798468D01*
X555558Y800181D01*
X555136Y800742D01*
X554271Y801849D01*
X553376Y802932D01*
X552443Y803982D01*
X551472Y804997D01*
X550457Y805968D01*
X549927Y806429D01*
X548834Y807311D01*
X548265Y807721D01*
X547091Y808494D01*
X546480Y808839D01*
X545225Y809469D01*
X544575Y809736D01*
X543254Y810211D01*
X542582Y810417D01*
X541228Y810791D01*
X539856Y811089D01*
X539165Y811218D01*
X537776Y811428D01*
X536380Y811584D01*
X535681Y811645D01*
X534278Y811721D01*
X533576Y811747D01*
X532171Y811758D01*
X530065Y811708D01*
X527961Y811587D01*
X525862Y811406D01*
X523767Y811174D01*
X510543Y809382D01*
X509146Y809237D01*
X507745Y809141D01*
X506341Y809079D01*
X503532Y809022D01*
X501426Y808944D01*
X500026Y808832D01*
X498634Y808642D01*
X497943Y808519D01*
X497257Y808369D01*
X496576Y808196D01*
X487176Y805311D01*
X483797Y804353D01*
X482435Y804010D01*
X480377Y803555D01*
X478303Y803188D01*
X476911Y802997D01*
X475513Y802859D01*
X474813Y802810D01*
X473409Y802759D01*
X472706Y802757D01*
X471302Y802803D01*
X469903Y802919D01*
X469206Y803007D01*
X468525Y803175D01*
X467873Y803433D01*
X467259Y803774D01*
X466686Y804179D01*
X466150Y804633D01*
X465648Y805124D01*
X465180Y805648D01*
X464738Y806194D01*
X464321Y806758D01*
X463924Y807338D01*
X463542Y807927D01*
X463178Y808528D01*
X460768Y812813D01*
X460439Y813434D01*
X460151Y814074D01*
X459890Y814725D01*
X459685Y815397D01*
X459507Y816076D01*
X459360Y816763D01*
X459250Y817456D01*
X459153Y818152D01*
X459065Y819554D01*
X459059Y820958D01*
X459087Y821660D01*
X459196Y823060D01*
X459368Y824454D01*
X459597Y825840D01*
X459877Y827216D01*
X460034Y827901D01*
X460379Y829263D01*
X460974Y831284D01*
X461186Y831953D01*
X461645Y833281D01*
X462138Y834597D01*
X462937Y836546D01*
X463798Y838469D01*
X464731Y840358D01*
X465388Y841600D01*
X466072Y842827D01*
X466431Y843431D01*
X466790Y844034D01*
X467543Y845220D01*
X468330Y846384D01*
X469154Y847522D01*
X469582Y848079D01*
X470469Y849168D01*
X470934Y849694D01*
X471408Y850212D01*
X472411Y851195D01*
X472932Y851666D01*
X476662Y854870D01*
X479369Y857107D01*
X480472Y857976D01*
X481589Y858829D01*
X483300Y860059D01*
X484462Y860848D01*
X485648Y861601D01*
X486866Y862300D01*
X488114Y862945D01*
X488753Y863236D01*
X489402Y863504D01*
X490063Y863744D01*
X490734Y863951D01*
X491417Y864112D01*
X492109Y864230D01*
X496277Y864856D01*
X501156Y865461D01*
X506049Y865943D01*
X515857Y866658D01*
X534792Y867712D01*
X543897Y868396D01*
X548789Y868885D01*
X553669Y869490D01*
X558528Y870244D01*
X560601Y870620D01*
X562669Y871024D01*
X565416Y871613D01*
X566099Y871775D01*
X568147Y872271D01*
X568823Y872464D01*
X570154Y872911D01*
X571460Y873428D01*
X572745Y873995D01*
X574011Y874604D01*
X580860Y878180D01*
X582121Y878798D01*
X583406Y879367D01*
X586005Y880433D01*
X596517Y884407D01*
X597813Y884950D01*
X599098Y885517D01*
X601000Y886424D01*
X602863Y887407D01*
X604076Y888116D01*
X609464Y891421D01*
X610696Y892096D01*
X611322Y892415D01*
X611954Y892721D01*
X612597Y893003D01*
X613247Y893270D01*
X613908Y893509D01*
X614576Y893723D01*
X615253Y893912D01*
X616620Y894236D01*
X617305Y894391D01*
X619369Y894814D01*
X620750Y895073D01*
X622830Y895409D01*
X624220Y895610D01*
X626311Y895873D01*
X629806Y896221D01*
X634010Y896510D01*
X637519Y896661D01*
X664204Y897210D01*
X667716Y897197D01*
X669822Y897155D01*
X671927Y897065D01*
X674030Y896931D01*
X676129Y896742D01*
X679618Y896343D01*
X692848Y894587D01*
X693546Y894514D01*
X696342Y894236D01*
X698443Y894079D01*
X699845Y893997D01*
X701952Y893928D01*
X704760Y893874D01*
X706162Y893782D01*
X707559Y893631D01*
X709643Y893323D01*
X711024Y893064D01*
X713086Y892631D01*
X721940Y890399D01*
X723282Y889984D01*
X724613Y889534D01*
X725933Y889056D01*
X727243Y888548D01*
X727888Y888269D01*
X728515Y887954D01*
X728499Y887621D01*
X498008Y805833D02*
X497547Y806361D01*
X497121Y806915D01*
X496723Y807492D01*
X496063Y808727D01*
X495774Y809365D01*
X495270Y810672D01*
X494848Y812007D01*
X494496Y813364D01*
X494197Y814732D01*
X494066Y815420D01*
X493835Y816802D01*
X493643Y818190D01*
X493565Y818886D01*
X493419Y820280D01*
X493301Y821676D01*
X493214Y823074D01*
X493118Y825173D01*
X493066Y828676D01*
X493121Y832178D01*
X493306Y836377D01*
X493558Y839870D01*
X493897Y843357D01*
X494329Y846833D01*
X494642Y848911D01*
X494747Y849603D01*
X495255Y852359D01*
X495711Y854410D01*
X495895Y855086D01*
X496108Y855753D01*
X496590Y857069D01*
X498452Y861605D01*
X498937Y862920D01*
X499146Y863588D01*
X499335Y864262D01*
X499494Y864945D01*
X499615Y865634D01*
X499696Y866330D01*
X499723Y867030D01*
X523372Y722924D02*
X523744Y722329D01*
X523372Y722924D02*
X522919Y723461D01*
X522400Y723935D01*
X521833Y724350D01*
X521236Y724720D01*
X520614Y725048D01*
X519975Y725341D01*
X519323Y725604D01*
X518662Y725845D01*
X517992Y726057D01*
X517317Y726253D01*
X515953Y726597D01*
X515266Y726750D01*
X513884Y727011D01*
X512496Y727235D01*
X511103Y727429D01*
X508307Y727737D01*
X504104Y728106D01*
X502699Y728166D01*
X501996Y728167D01*
X500591Y728108D01*
X499891Y728048D01*
X499192Y727964D01*
X498498Y727850D01*
X497809Y727712D01*
X497124Y727551D01*
X496448Y727358D01*
X495780Y727141D01*
X495121Y726894D01*
X494473Y726621D01*
X493837Y726322D01*
X493214Y725997D01*
X492606Y725643D01*
X492014Y725263D01*
X491439Y724860D01*
X490880Y724433D01*
X490340Y723982D01*
X489819Y723511D01*
X489314Y723021D01*
X488828Y722513D01*
X488361Y721988D01*
X487475Y720895D01*
X487061Y720327D01*
X486665Y719746D01*
X485918Y718555D01*
X485225Y717331D01*
X484905Y716705D01*
X483414Y713521D01*
X483090Y712897D01*
X482726Y712295D01*
X482327Y711716D01*
X481884Y711171D01*
X481399Y710662D01*
X480873Y710195D01*
X480313Y709771D01*
X479136Y709001D01*
X477910Y708312D01*
X477283Y707994D01*
X476637Y707716D01*
X475983Y707458D01*
X475319Y707226D01*
X474642Y707038D01*
X473958Y706878D01*
X473266Y706751D01*
X472568Y706668D01*
X471866Y706633D01*
X471163Y706638D01*
X470462Y706685D01*
X469765Y706775D01*
X469076Y706917D01*
X468400Y707108D01*
X467737Y707343D01*
X467092Y707621D01*
X466465Y707939D01*
X465860Y708296D01*
X465279Y708693D01*
X464726Y709128D01*
X464199Y709592D01*
X463697Y710084D01*
X463220Y710600D01*
X462770Y711140D01*
X462354Y711707D01*
X461962Y712291D01*
X461595Y712891D01*
X461253Y713505D01*
X460944Y714137D01*
X460659Y714779D01*
X460395Y715431D01*
X460152Y716091D01*
X459943Y716762D01*
X459584Y718122D01*
X459443Y718810D01*
X459221Y720199D01*
X459147Y720898D01*
X459003Y723003D01*
X458966Y723705D01*
X458932Y725814D01*
X458983Y727923D01*
X459021Y728625D01*
X459182Y730729D01*
X459429Y732824D01*
X459763Y734907D01*
X460193Y736972D01*
X460708Y739018D01*
X461309Y741040D01*
X461530Y741707D01*
X462248Y743691D01*
X463049Y745642D01*
X463933Y747558D01*
X464573Y748810D01*
X464899Y749432D01*
X465950Y751262D01*
X467075Y753047D01*
X468276Y754781D01*
X469126Y755902D01*
X469551Y756461D01*
X470896Y758086D01*
X472310Y759652D01*
X473791Y761155D01*
X475329Y762599D01*
X476927Y763976D01*
X477474Y764418D01*
X478580Y765286D01*
X480283Y766531D01*
X480861Y766931D01*
X482037Y767703D01*
X482630Y768082D01*
X484438Y769167D01*
X486291Y770176D01*
X488182Y771111D01*
X490106Y771975D01*
X490756Y772245D01*
X492721Y773013D01*
X494711Y773711D01*
X510135Y778581D01*
X510807Y778786D01*
X512163Y779159D01*
X513526Y779508D01*
X514898Y779818D01*
X516277Y780095D01*
X518358Y780440D01*
X520453Y780678D01*
X522560Y780789D01*
X526779Y780881D01*
X529591Y780851D01*
X530294Y780826D01*
X530995Y780776D01*
X531693Y780693D01*
X532326Y780447D01*
X531751Y780096D01*
X489155Y724680D02*
X488857Y724045D01*
X489155Y724680D02*
X489426Y725326D01*
X489671Y725983D01*
X489890Y726649D01*
X490268Y728000D01*
X490572Y729369D01*
X490820Y730749D01*
X491097Y732833D01*
X491235Y734229D01*
X491341Y735627D01*
X491477Y738429D01*
X491650Y745438D01*
X491884Y750340D01*
X491958Y753845D01*
X491943Y755948D01*
X491868Y758050D01*
X491786Y759450D01*
X491596Y761545D01*
X491411Y762935D01*
X491179Y764318D01*
X490869Y765685D01*
X490684Y766361D01*
X490473Y767030D01*
X490231Y767687D01*
X489951Y768330D01*
X489629Y768953D01*
X489251Y769542D01*
X488809Y770085D01*
X488298Y770563D01*
X487711Y770945D01*
X850864Y560597D02*
X850898Y559896D01*
X850864Y560597D02*
X850783Y561294D01*
X850639Y561981D01*
X850444Y562656D01*
X850201Y563315D01*
X849916Y563957D01*
X849597Y564582D01*
X849249Y565192D01*
X848878Y565789D01*
X847315Y568123D01*
X846562Y569308D01*
X846213Y569918D01*
X845891Y570541D01*
X845605Y571183D01*
X845363Y571842D01*
X845167Y572516D01*
X844684Y574567D01*
X842269Y586260D01*
X840991Y591731D01*
X840301Y595174D01*
X839807Y597940D01*
X839367Y600715D01*
X838453Y607678D01*
X835268Y641945D01*
X835134Y644048D01*
X835106Y644749D01*
X835054Y646153D01*
X835024Y648260D01*
X835091Y652473D01*
X835938Y669308D01*
X836024Y673521D01*
X835712Y703018D01*
X835762Y710041D01*
X836000Y717763D01*
X836183Y721270D01*
X836435Y724772D01*
X836747Y728270D01*
X837137Y731760D01*
X837636Y735236D01*
X838123Y738002D01*
X839255Y743506D01*
X841894Y755150D01*
X842462Y757902D01*
X842984Y760662D01*
X843539Y764129D01*
X843812Y766219D01*
X844029Y768314D01*
X844134Y769715D01*
X844215Y771118D01*
X844262Y773224D01*
X844265Y773926D01*
X844238Y775331D01*
X844168Y776733D01*
X844114Y777434D01*
X843984Y778832D01*
X843829Y780228D01*
X843559Y782318D01*
X843349Y783707D01*
X842879Y786476D01*
X842475Y788544D01*
X842180Y789918D01*
X841704Y791970D01*
X841180Y794011D01*
X840809Y795366D01*
X840010Y798059D01*
X839585Y799398D01*
X838911Y801394D01*
X837707Y804693D01*
X836128Y808599D01*
X834711Y811813D01*
X832890Y815613D01*
X831286Y818737D01*
X829268Y822436D01*
X827515Y825479D01*
X825332Y829083D01*
X816875Y842015D01*
X814478Y845480D01*
X813239Y847185D01*
X811532Y849415D01*
X810650Y850509D01*
X809284Y852113D01*
X808348Y853160D01*
X807382Y854180D01*
X806387Y855172D01*
X805362Y856131D01*
X804306Y857057D01*
X803217Y857945D01*
X802658Y858370D01*
X801516Y859187D01*
X800932Y859577D01*
X799147Y860698D01*
X798564Y861088D01*
X797417Y861900D01*
X795765Y863206D01*
X794704Y864128D01*
X793670Y865078D01*
X792167Y866554D01*
X785398Y873687D01*
X784902Y874184D01*
X783386Y875647D01*
X782868Y876121D01*
X781808Y877043D01*
X780720Y877931D01*
X780162Y878357D01*
X779025Y879182D01*
X778442Y879572D01*
X777251Y880318D01*
X776641Y880666D01*
X775403Y881329D01*
X775417Y880888D02*
X775402Y880186D01*
X775417Y880888D02*
X775460Y881589D01*
X775526Y882288D01*
X775726Y883678D01*
X775850Y884369D01*
X776132Y885745D01*
X777075Y889851D01*
X777355Y891227D01*
X777477Y891918D01*
X777674Y893308D01*
X777791Y894708D01*
X777816Y895409D01*
X777816Y896111D01*
X777788Y896813D01*
X777731Y897513D01*
X777541Y898904D01*
X777421Y899595D01*
X777130Y900969D01*
X776782Y902329D01*
X776380Y903675D01*
X775930Y905005D01*
X775438Y906320D01*
X775173Y906970D01*
X774905Y907619D01*
X774333Y908902D01*
X773728Y910169D01*
X772765Y912043D01*
X772087Y913272D01*
X771380Y914485D01*
X770647Y915683D01*
X769505Y917453D01*
X768713Y918613D01*
X767483Y920323D01*
X766639Y921445D01*
X765774Y922552D01*
X764887Y923640D01*
X763521Y925244D01*
X762111Y926809D01*
X760659Y928334D01*
X759161Y929815D01*
X758136Y930775D01*
X757093Y931715D01*
X756560Y932173D01*
X754937Y933515D01*
X753825Y934372D01*
X752689Y935198D01*
X751528Y935988D01*
X750341Y936739D01*
X748521Y937798D01*
X746670Y938804D01*
X744791Y939757D01*
X744162Y940068D01*
X742253Y940958D01*
X741610Y941240D01*
X739672Y942067D01*
X737717Y942850D01*
X735740Y943577D01*
X733746Y944255D01*
X733080Y944478D01*
X731063Y945087D01*
X728354Y945826D01*
X726302Y946304D01*
X724929Y946598D01*
X722856Y946970D01*
X721468Y947183D01*
X720074Y947358D01*
X718677Y947497D01*
X717276Y947599D01*
X715873Y947657D01*
X707447Y947675D01*
X706752Y947751D01*
X705383Y948062D01*
X704690Y948042D01*
X704516Y947427D01*
X704865Y946824D01*
X705380Y946349D01*
X705958Y945950D01*
X706565Y945598D01*
X707189Y945275D01*
X708465Y944691D01*
X713679Y942600D01*
X714324Y942322D01*
X714956Y942016D01*
X715563Y941664D01*
X716093Y941206D01*
X716582Y940703D01*
X717521Y939658D01*
X717977Y939124D01*
X718421Y938581D01*
X719276Y937466D01*
X719689Y936899D01*
X720481Y935739D01*
X721593Y933951D01*
X722617Y932110D01*
X723569Y930231D01*
X724443Y928314D01*
X724997Y927024D01*
X725781Y925069D01*
X726995Y921775D01*
X729242Y915122D01*
X729645Y913777D01*
X730009Y912421D01*
X730333Y911054D01*
X730620Y909680D01*
X730872Y908298D01*
X731087Y906911D01*
X731275Y905519D01*
X731438Y904124D01*
X731675Y901326D01*
X731719Y900625D01*
X731831Y898521D01*
X731911Y895714D01*
X731930Y893607D01*
X731919Y892906D01*
X731847Y892207D01*
X731736Y891514D01*
X731589Y890828D01*
X731409Y890149D01*
X731191Y889482D01*
X730926Y888832D01*
X730602Y888209D01*
X730188Y887644D01*
X729621Y887241D01*
X728936Y887243D01*
X728366Y887644D01*
X727929Y888193D01*
X811983Y625822D02*
X811434Y625384D01*
X811983Y625822D02*
X812585Y626185D01*
X813261Y626363D01*
X813923Y626164D01*
X814378Y625635D01*
X814679Y625001D01*
X814884Y624327D01*
X815043Y623642D01*
X815168Y622949D01*
X815268Y622252D01*
X815766Y618058D01*
X815867Y617362D01*
X817115Y610435D01*
X817327Y609043D01*
X817597Y606949D01*
X817734Y605548D01*
X817786Y604846D01*
X817856Y603440D01*
X817870Y602032D01*
X817858Y601328D01*
X817786Y599923D01*
X817722Y599222D01*
X817541Y597826D01*
X817423Y597132D01*
X817127Y595756D01*
X816947Y595075D01*
X816527Y593732D01*
X816030Y592415D01*
X815441Y591137D01*
X814786Y589891D01*
X814424Y589288D01*
X814036Y588701D01*
X813578Y588167D01*
X813079Y587671D01*
X812549Y587207D01*
X811998Y586769D01*
X811427Y586358D01*
X810838Y585972D01*
X810237Y585607D01*
X809620Y585268D01*
X808988Y584958D01*
X808344Y584675D01*
X807685Y584428D01*
X807014Y584214D01*
X806329Y584054D01*
X805634Y583949D01*
X804931Y583912D01*
X804230Y583973D01*
X803549Y584144D01*
X802918Y584453D01*
X802353Y584871D01*
X801839Y585351D01*
X801374Y585880D01*
X800952Y586442D01*
X800567Y587031D01*
X800217Y587642D01*
X799892Y588266D01*
X799593Y588903D01*
X799316Y589550D01*
X798823Y590869D01*
X798384Y592206D01*
X798189Y592883D01*
X797820Y594241D01*
X797660Y594926D01*
X794356Y610056D01*
X794214Y610745D01*
X793051Y616972D01*
X792509Y620450D01*
X792136Y623241D01*
X791901Y625339D01*
X791772Y626741D01*
X791630Y628848D01*
X791553Y630958D01*
X791551Y633069D01*
X791609Y634476D01*
X791732Y635878D01*
X791923Y637273D01*
X792053Y637964D01*
X792209Y638650D01*
X792387Y639331D01*
X792614Y639997D01*
X792871Y640652D01*
X793169Y641290D01*
X793536Y641890D01*
X793955Y642453D01*
X794431Y642970D01*
X794955Y643439D01*
X795528Y643849D01*
X796146Y644185D01*
X796802Y644436D01*
X797491Y644573D01*
X798194Y644579D01*
X798886Y644457D01*
X799552Y644231D01*
X800180Y643915D01*
X800770Y643534D01*
X801324Y643101D01*
X801843Y642626D01*
X802334Y642122D01*
X802799Y641594D01*
X803241Y641046D01*
X803660Y640480D01*
X804059Y639900D01*
X804443Y639311D01*
X805175Y638108D01*
X805855Y636876D01*
X806807Y634991D01*
X807401Y633714D01*
X809362Y629195D01*
X809666Y628560D01*
X810651Y626692D01*
X810940Y626050D01*
X811161Y625383D01*
X811308Y624694D01*
X811390Y623996D01*
X811426Y623293D01*
X811416Y622590D01*
X811267Y621902D01*
X811051Y621233D01*
X810856Y621346D01*
X810767Y622751D01*
X810746Y623454D01*
X810804Y624155D01*
X811014Y624824D01*
X811434Y625384D01*
X807163Y759730D02*
X806859Y760362D01*
X807163Y759730D02*
X807427Y759081D01*
X807658Y758419D01*
X807858Y757747D01*
X808027Y757067D01*
X808171Y756381D01*
X808292Y755691D01*
X808388Y754996D01*
X808502Y753599D01*
X808541Y752198D01*
X808530Y751497D01*
X808496Y750797D01*
X808384Y749399D01*
X808199Y748010D01*
X807951Y746630D01*
X807801Y745945D01*
X807450Y744588D01*
X807256Y743914D01*
X807035Y743248D01*
X806550Y741933D01*
X806282Y741286D01*
X805677Y740021D01*
X805003Y738792D01*
X804632Y738197D01*
X804238Y737617D01*
X803824Y737052D01*
X803388Y736503D01*
X802930Y735972D01*
X802443Y735468D01*
X801929Y734991D01*
X801391Y734543D01*
X800835Y734115D01*
X800265Y733707D01*
X799686Y733312D01*
X798493Y732576D01*
X797264Y731901D01*
X796637Y731588D01*
X795999Y731297D01*
X794690Y730794D01*
X794023Y730580D01*
X793346Y730398D01*
X792661Y730251D01*
X791968Y730146D01*
X791270Y730085D01*
X790569Y730069D01*
X789870Y730110D01*
X789176Y730210D01*
X788495Y730374D01*
X787831Y730598D01*
X787197Y730896D01*
X786593Y731251D01*
X786027Y731664D01*
X785500Y732125D01*
X785013Y732630D01*
X784570Y733173D01*
X784183Y733757D01*
X783825Y734359D01*
X783506Y734983D01*
X782959Y736273D01*
X782728Y736935D01*
X782505Y737600D01*
X782312Y738273D01*
X781965Y739631D01*
X781677Y741003D01*
X781435Y742384D01*
X781163Y744470D01*
X781030Y745866D01*
X780904Y747965D01*
X780863Y750068D01*
X780873Y751470D01*
X780963Y753571D01*
X781142Y755666D01*
X781306Y757059D01*
X781629Y759137D01*
X781914Y760510D01*
X782070Y761193D01*
X782424Y762550D01*
X782632Y763219D01*
X783078Y764548D01*
X783593Y765852D01*
X784200Y767116D01*
X784903Y768328D01*
X785297Y768907D01*
X785713Y769472D01*
X786166Y770005D01*
X786645Y770517D01*
X787164Y770986D01*
X787707Y771429D01*
X788295Y771807D01*
X788901Y772161D01*
X790206Y772669D01*
X791585Y772918D01*
X792986Y772929D01*
X794374Y772730D01*
X795720Y772339D01*
X796376Y772095D01*
X797662Y771536D01*
X798280Y771206D01*
X798879Y770841D01*
X799453Y770439D01*
X800008Y770012D01*
X800540Y769555D01*
X801051Y769075D01*
X801541Y768573D01*
X802011Y768054D01*
X802896Y766966D01*
X803308Y766399D01*
X803715Y765828D01*
X804473Y764649D01*
X805194Y763446D01*
X806207Y761603D01*
X806859Y760362D01*
X738611Y687272D02*
X738511Y686581D01*
X738611Y687272D02*
X739196Y687247D01*
X739674Y686735D01*
X740090Y686169D01*
X740474Y685580D01*
X741192Y684372D01*
X741860Y683137D01*
X742819Y681260D01*
X743113Y680622D01*
X743381Y679973D01*
X743765Y678621D01*
X744112Y677260D01*
X744276Y676577D01*
X744564Y675202D01*
X744935Y673127D01*
X745137Y671736D01*
X745296Y670340D01*
X745411Y668940D01*
X745451Y668239D01*
X745503Y666834D01*
X745509Y665429D01*
X745459Y664025D01*
X745417Y663324D01*
X745280Y661926D01*
X745082Y660535D01*
X744930Y659849D01*
X744706Y659184D01*
X744411Y658548D01*
X744044Y657949D01*
X743603Y657403D01*
X743100Y656913D01*
X742550Y656477D01*
X741958Y656100D01*
X741339Y655768D01*
X740698Y655480D01*
X740043Y655227D01*
X739377Y655003D01*
X738703Y654804D01*
X737342Y654458D01*
X733916Y653682D01*
X732563Y653302D01*
X731901Y653067D01*
X731255Y652793D01*
X730638Y652457D01*
X730037Y652094D01*
X728868Y651315D01*
X728306Y650893D01*
X727755Y650458D01*
X727219Y650004D01*
X726192Y649045D01*
X725699Y648545D01*
X725224Y648027D01*
X724303Y646966D01*
X723017Y645296D01*
X719782Y640700D01*
X719366Y640134D01*
X718514Y639017D01*
X718066Y638476D01*
X717137Y637422D01*
X716654Y636912D01*
X716150Y636422D01*
X715103Y635486D01*
X713991Y634628D01*
X713415Y634225D01*
X712820Y633852D01*
X712218Y633491D01*
X711603Y633152D01*
X710975Y632835D01*
X710342Y632531D01*
X709042Y632000D01*
X707715Y631538D01*
X706367Y631140D01*
X703634Y630488D01*
X702948Y630338D01*
X702253Y630235D01*
X701552Y630196D01*
X700853Y630257D01*
X700176Y630441D01*
X699550Y630757D01*
X698987Y631175D01*
X698492Y631673D01*
X698026Y632199D01*
X697591Y632750D01*
X697188Y633325D01*
X696817Y633922D01*
X696483Y634539D01*
X696179Y635172D01*
X695907Y635820D01*
X695671Y636482D01*
X695461Y637152D01*
X695280Y637831D01*
X695127Y638517D01*
X694998Y639207D01*
X694894Y639902D01*
X694805Y640599D01*
X694739Y641298D01*
X694649Y642700D01*
X694612Y644105D01*
X694615Y645510D01*
X694814Y655344D01*
X694930Y658151D01*
X695122Y660955D01*
X695396Y663752D01*
X695655Y665843D01*
X695852Y667234D01*
X696078Y668621D01*
X696326Y670004D01*
X696744Y672070D01*
X697051Y673441D01*
X697393Y674804D01*
X697764Y676159D01*
X698367Y678178D01*
X698814Y679510D01*
X699292Y680832D01*
X699808Y682139D01*
X700647Y684072D01*
X701253Y685340D01*
X701904Y686585D01*
X702598Y687807D01*
X703335Y689002D01*
X704117Y690169D01*
X704520Y690745D01*
X705366Y691867D01*
X706266Y692945D01*
X707214Y693982D01*
X708207Y694977D01*
X708721Y695455D01*
X709782Y696376D01*
X710885Y697246D01*
X711461Y697648D01*
X712051Y698030D01*
X712654Y698391D01*
X713269Y698729D01*
X714526Y699358D01*
X715811Y699925D01*
X716463Y700185D01*
X717787Y700657D01*
X719131Y701064D01*
X719811Y701242D01*
X720495Y701403D01*
X721876Y701663D01*
X722571Y701760D01*
X723270Y701836D01*
X723970Y701885D01*
X724672Y701907D01*
X725375Y701902D01*
X726076Y701864D01*
X726774Y701790D01*
X727467Y701676D01*
X728153Y701523D01*
X728826Y701324D01*
X729482Y701074D01*
X730117Y700775D01*
X730722Y700420D01*
X731294Y700012D01*
X731825Y699552D01*
X732316Y699051D01*
X732779Y698522D01*
X733217Y697974D01*
X733637Y697410D01*
X734427Y696248D01*
X734796Y695651D01*
X735506Y694438D01*
X735845Y693823D01*
X737135Y691326D01*
X737378Y690668D01*
X737574Y689993D01*
X737745Y689312D01*
X738357Y686569D01*
X738511Y686581D01*
X706236Y776496D02*
X705908Y776950D01*
X706236Y776496D02*
X708043Y774338D01*
X709351Y772681D01*
X710188Y771550D01*
X710990Y770394D01*
X711737Y769201D01*
X712084Y768589D01*
X712399Y767960D01*
X712681Y767315D01*
X712911Y766651D01*
X713060Y765964D01*
X713060Y765262D01*
X712869Y764587D01*
X712513Y763983D01*
X712031Y763475D01*
X711456Y763073D01*
X710828Y762758D01*
X710166Y762523D01*
X709485Y762347D01*
X708794Y762217D01*
X708096Y762126D01*
X707395Y762066D01*
X706692Y762039D01*
X705988Y762038D01*
X704582Y762087D01*
X703880Y762142D01*
X702482Y762293D01*
X700397Y762624D01*
X698331Y763060D01*
X696968Y763410D01*
X696290Y763598D01*
X694947Y764018D01*
X693621Y764489D01*
X692317Y765016D01*
X691675Y765306D01*
X691043Y765614D01*
X690427Y765955D01*
X689828Y766323D01*
X689257Y766734D01*
X688735Y767205D01*
X688299Y767756D01*
X687919Y768346D01*
X687599Y768973D01*
X687366Y769637D01*
X687231Y770328D01*
X687215Y771030D01*
X687325Y771724D01*
X687555Y772387D01*
X687885Y773007D01*
X688295Y773577D01*
X688767Y774098D01*
X689284Y774575D01*
X689836Y775010D01*
X690416Y775408D01*
X691018Y775772D01*
X691636Y776108D01*
X692266Y776421D01*
X692911Y776703D01*
X694225Y777206D01*
X695565Y777635D01*
X696927Y777988D01*
X698307Y778264D01*
X699698Y778474D01*
X701101Y778590D01*
X701804Y778607D01*
X702507Y778586D01*
X703207Y778518D01*
X703896Y778380D01*
X704561Y778151D01*
X705199Y777855D01*
X705813Y777512D01*
X706408Y777135D01*
X708137Y775925D01*
X708683Y775481D01*
X709212Y775017D01*
X709708Y774519D01*
X709339Y774508D01*
X708719Y774840D01*
X708123Y775215D01*
X707555Y775629D01*
X705908Y776950D01*
M02*
