G04 EAGLE Gerber RS-274X export*
G75*
%MOMM*%
%FSLAX34Y34*%
%LPD*%
%INSoldermask Top*%
%IPPOS*%
%AMOC8*
5,1,8,0,0,1.08239X$1,22.5*%
G01*
%ADD10C,0.800000*%

G36*
X983627Y262035D02*
X983627Y262035D01*
X983637Y262034D01*
X984390Y262061D01*
X984397Y262062D01*
X984406Y262062D01*
X985157Y262114D01*
X985164Y262115D01*
X985173Y262115D01*
X985922Y262190D01*
X985929Y262192D01*
X985937Y262192D01*
X986684Y262291D01*
X986691Y262293D01*
X986700Y262293D01*
X987443Y262414D01*
X987451Y262417D01*
X987462Y262418D01*
X988200Y262569D01*
X988208Y262572D01*
X988219Y262573D01*
X988950Y262751D01*
X988960Y262756D01*
X988972Y262757D01*
X989695Y262969D01*
X989703Y262973D01*
X989715Y262975D01*
X990428Y263217D01*
X990435Y263221D01*
X990444Y263223D01*
X991149Y263489D01*
X991155Y263494D01*
X991165Y263496D01*
X991343Y263571D01*
X991860Y263787D01*
X991868Y263793D01*
X991880Y263796D01*
X992561Y264118D01*
X992567Y264123D01*
X992577Y264126D01*
X993246Y264472D01*
X993253Y264478D01*
X993265Y264482D01*
X993918Y264857D01*
X993925Y264863D01*
X993936Y264868D01*
X994573Y265269D01*
X994581Y265276D01*
X994593Y265282D01*
X995210Y265712D01*
X995217Y265719D01*
X995227Y265724D01*
X995827Y266179D01*
X995835Y266188D01*
X995847Y266196D01*
X996422Y266682D01*
X996428Y266689D01*
X996438Y266695D01*
X996993Y267205D01*
X996998Y267212D01*
X997006Y267218D01*
X997542Y267747D01*
X997549Y267758D01*
X997562Y267769D01*
X998065Y268330D01*
X998069Y268337D01*
X998076Y268344D01*
X998558Y268922D01*
X998563Y268930D01*
X998571Y268938D01*
X999029Y269535D01*
X999033Y269542D01*
X999039Y269548D01*
X999478Y270159D01*
X999482Y270169D01*
X999491Y270178D01*
X999902Y270810D01*
X999905Y270816D01*
X999911Y270823D01*
X1000301Y271467D01*
X1000304Y271474D01*
X1000311Y271482D01*
X1000678Y272140D01*
X1000680Y272147D01*
X1000686Y272155D01*
X1001031Y272825D01*
X1001034Y272835D01*
X1001041Y272847D01*
X1001664Y274218D01*
X1001666Y274229D01*
X1001673Y274240D01*
X1001951Y274940D01*
X1001953Y274950D01*
X1001959Y274961D01*
X1002452Y276384D01*
X1002453Y276393D01*
X1002458Y276402D01*
X1002678Y277122D01*
X1002679Y277133D01*
X1002684Y277144D01*
X1003057Y278603D01*
X1003058Y278609D01*
X1003060Y278615D01*
X1003230Y279348D01*
X1003230Y279356D01*
X1003233Y279365D01*
X1003523Y280843D01*
X1003523Y280851D01*
X1003526Y280860D01*
X1003764Y282347D01*
X1003764Y282353D01*
X1003766Y282359D01*
X1003867Y283106D01*
X1003867Y283111D01*
X1003869Y283118D01*
X1004035Y284615D01*
X1004034Y284623D01*
X1004036Y284632D01*
X1004151Y286134D01*
X1004151Y286140D01*
X1004152Y286147D01*
X1004190Y286899D01*
X1004189Y286901D01*
X1004190Y286903D01*
X1004222Y287655D01*
X1004221Y287663D01*
X1004222Y287672D01*
X1004229Y288425D01*
X1004229Y288427D01*
X1004229Y288429D01*
X1004251Y305753D01*
X1004251Y306132D01*
X1004237Y306205D01*
X1004230Y306278D01*
X1004217Y306301D01*
X1004212Y306327D01*
X1004170Y306388D01*
X1004135Y306453D01*
X1004114Y306470D01*
X1004099Y306491D01*
X1004037Y306531D01*
X1003980Y306577D01*
X1003951Y306586D01*
X1003932Y306599D01*
X1003889Y306606D01*
X1003821Y306627D01*
X953096Y313718D01*
X953089Y313717D01*
X953083Y313719D01*
X952990Y313711D01*
X952898Y313705D01*
X952892Y313702D01*
X952885Y313702D01*
X952803Y313658D01*
X952720Y313617D01*
X952715Y313611D01*
X952709Y313608D01*
X952651Y313536D01*
X952591Y313465D01*
X952589Y313459D01*
X952584Y313453D01*
X952533Y313295D01*
X952439Y312650D01*
X952441Y312619D01*
X952434Y312578D01*
X952441Y294501D01*
X952442Y294497D01*
X952442Y294492D01*
X952454Y293739D01*
X952456Y293732D01*
X952455Y293723D01*
X952529Y292219D01*
X952531Y292210D01*
X952530Y292199D01*
X952663Y290698D01*
X952666Y290689D01*
X952666Y290678D01*
X952862Y289184D01*
X952865Y289175D01*
X952865Y289164D01*
X953121Y287680D01*
X953123Y287674D01*
X953123Y287666D01*
X953273Y286928D01*
X953274Y286924D01*
X953275Y286918D01*
X953438Y286183D01*
X953441Y286176D01*
X953442Y286167D01*
X953816Y284708D01*
X953820Y284701D01*
X953821Y284690D01*
X954250Y283246D01*
X954254Y283238D01*
X954256Y283226D01*
X954744Y281801D01*
X954748Y281795D01*
X954750Y281786D01*
X955017Y281082D01*
X955021Y281075D01*
X955023Y281066D01*
X955605Y279677D01*
X955610Y279671D01*
X955612Y279662D01*
X955873Y279091D01*
X955882Y279079D01*
X955886Y279065D01*
X955940Y278999D01*
X955945Y278992D01*
X955989Y278849D01*
X956610Y277615D01*
X956616Y277606D01*
X956621Y277594D01*
X957361Y276282D01*
X957368Y276274D01*
X957372Y276263D01*
X958170Y274985D01*
X958177Y274979D01*
X958181Y274969D01*
X958606Y274346D01*
X958609Y274343D01*
X958611Y274338D01*
X959047Y273724D01*
X959054Y273718D01*
X959060Y273707D01*
X959983Y272517D01*
X959992Y272510D01*
X960000Y272497D01*
X960984Y271357D01*
X960993Y271350D01*
X961001Y271338D01*
X962042Y270250D01*
X962050Y270245D01*
X962057Y270235D01*
X962599Y269713D01*
X962607Y269708D01*
X962613Y269700D01*
X963738Y268698D01*
X963746Y268693D01*
X963754Y268684D01*
X964337Y268207D01*
X964345Y268203D01*
X964352Y268195D01*
X965553Y267286D01*
X965563Y267281D01*
X965573Y267272D01*
X966819Y266425D01*
X966826Y266421D01*
X966834Y266414D01*
X967472Y266014D01*
X967483Y266011D01*
X967493Y266002D01*
X968806Y265264D01*
X968815Y265261D01*
X968824Y265254D01*
X969496Y264913D01*
X969503Y264911D01*
X969510Y264905D01*
X970193Y264587D01*
X970203Y264584D01*
X970213Y264578D01*
X971605Y264001D01*
X971617Y263999D01*
X971631Y263991D01*
X973054Y263495D01*
X973066Y263493D01*
X973081Y263486D01*
X974529Y263073D01*
X974540Y263072D01*
X974552Y263067D01*
X976019Y262723D01*
X976031Y262723D01*
X976045Y262718D01*
X977527Y262452D01*
X977537Y262452D01*
X977548Y262449D01*
X979041Y262245D01*
X979051Y262246D01*
X979063Y262243D01*
X980563Y262108D01*
X980573Y262109D01*
X980585Y262106D01*
X982089Y262036D01*
X982100Y262037D01*
X982112Y262035D01*
X983618Y262033D01*
X983627Y262035D01*
G37*
G36*
X1003369Y535393D02*
X1003369Y535393D01*
X1003407Y535395D01*
X1003436Y535409D01*
X1003478Y535420D01*
X1003953Y535629D01*
X1003957Y535632D01*
X1003961Y535633D01*
X1004037Y535689D01*
X1004115Y535744D01*
X1004118Y535748D01*
X1004122Y535751D01*
X1004170Y535832D01*
X1004220Y535913D01*
X1004221Y535918D01*
X1004223Y535922D01*
X1004251Y536086D01*
X1004251Y546636D01*
X1004231Y546731D01*
X1004214Y546824D01*
X1004212Y546827D01*
X1004211Y546831D01*
X1004198Y546850D01*
X1004126Y546966D01*
X1003751Y547392D01*
X1003677Y547449D01*
X1003604Y547507D01*
X1003597Y547509D01*
X1003592Y547512D01*
X1003560Y547521D01*
X1003445Y547557D01*
X985564Y550061D01*
X985301Y550131D01*
X985301Y570765D01*
X985326Y570837D01*
X1003575Y568281D01*
X1003576Y568281D01*
X1003577Y568281D01*
X1003673Y568287D01*
X1003774Y568293D01*
X1003774Y568294D01*
X1003775Y568294D01*
X1003865Y568339D01*
X1003952Y568382D01*
X1003952Y568383D01*
X1003953Y568383D01*
X1004018Y568459D01*
X1004081Y568533D01*
X1004081Y568534D01*
X1004082Y568535D01*
X1004137Y568692D01*
X1004244Y569322D01*
X1004243Y569357D01*
X1004251Y569406D01*
X1004251Y579956D01*
X1004236Y580028D01*
X1004229Y580101D01*
X1004216Y580124D01*
X1004211Y580150D01*
X1004170Y580211D01*
X1004135Y580276D01*
X1004114Y580292D01*
X1004099Y580314D01*
X1004037Y580354D01*
X1003979Y580400D01*
X1003951Y580409D01*
X1003931Y580421D01*
X1003888Y580429D01*
X1003821Y580450D01*
X953072Y587547D01*
X953055Y587546D01*
X953038Y587551D01*
X952956Y587540D01*
X952873Y587535D01*
X952858Y587527D01*
X952841Y587525D01*
X952770Y587483D01*
X952695Y587446D01*
X952684Y587433D01*
X952669Y587424D01*
X952620Y587358D01*
X952566Y587295D01*
X952561Y587279D01*
X952551Y587265D01*
X952508Y587111D01*
X952506Y587106D01*
X952506Y587105D01*
X952506Y587104D01*
X952436Y586431D01*
X952438Y586409D01*
X952434Y586380D01*
X952434Y576583D01*
X952436Y576572D01*
X952434Y576558D01*
X952471Y575837D01*
X952487Y575778D01*
X952492Y575717D01*
X952511Y575683D01*
X952521Y575644D01*
X952558Y575596D01*
X952587Y575542D01*
X952618Y575518D01*
X952642Y575486D01*
X952695Y575456D01*
X952742Y575418D01*
X952786Y575404D01*
X952815Y575388D01*
X952851Y575384D01*
X952901Y575368D01*
X974298Y572361D01*
X974399Y572185D01*
X974399Y551629D01*
X974323Y551615D01*
X953511Y554536D01*
X953479Y554534D01*
X953448Y554541D01*
X953356Y554527D01*
X953312Y554524D01*
X953300Y554518D01*
X953284Y554516D01*
X952775Y554347D01*
X952750Y554332D01*
X952723Y554326D01*
X952665Y554283D01*
X952603Y554248D01*
X952586Y554225D01*
X952563Y554208D01*
X952526Y554146D01*
X952483Y554089D01*
X952476Y554061D01*
X952461Y554037D01*
X952444Y553937D01*
X952434Y553896D01*
X952436Y553886D01*
X952434Y553873D01*
X952434Y543323D01*
X952449Y543248D01*
X952457Y543172D01*
X952469Y543149D01*
X952473Y543128D01*
X952498Y543091D01*
X952533Y543024D01*
X952875Y542567D01*
X952885Y542558D01*
X952891Y542546D01*
X952919Y542525D01*
X952939Y542497D01*
X952984Y542470D01*
X953023Y542435D01*
X953036Y542431D01*
X953047Y542422D01*
X953085Y542410D01*
X953110Y542395D01*
X953158Y542387D01*
X953205Y542372D01*
X1003208Y535383D01*
X1003263Y535386D01*
X1003317Y535380D01*
X1003369Y535393D01*
G37*
G36*
X974412Y473201D02*
X974412Y473201D01*
X974422Y473203D01*
X974434Y473202D01*
X975187Y473237D01*
X975195Y473238D01*
X975204Y473238D01*
X975955Y473299D01*
X975964Y473302D01*
X975976Y473301D01*
X976723Y473395D01*
X976732Y473398D01*
X976745Y473398D01*
X977487Y473525D01*
X977497Y473529D01*
X977510Y473529D01*
X978245Y473691D01*
X978254Y473695D01*
X978266Y473696D01*
X978994Y473889D01*
X979003Y473894D01*
X979016Y473896D01*
X979734Y474123D01*
X979745Y474129D01*
X979761Y474132D01*
X980465Y474400D01*
X980474Y474406D01*
X980486Y474409D01*
X981177Y474710D01*
X981187Y474717D01*
X981202Y474722D01*
X981874Y475060D01*
X981884Y475068D01*
X981899Y475074D01*
X982551Y475449D01*
X982561Y475459D01*
X982577Y475466D01*
X983205Y475881D01*
X983214Y475890D01*
X983228Y475897D01*
X983832Y476347D01*
X983841Y476357D01*
X983855Y476365D01*
X984431Y476850D01*
X984439Y476861D01*
X984453Y476870D01*
X984999Y477388D01*
X985007Y477399D01*
X985020Y477410D01*
X985533Y477960D01*
X985540Y477971D01*
X985553Y477982D01*
X986033Y478561D01*
X986039Y478573D01*
X986051Y478584D01*
X986498Y479190D01*
X986503Y479202D01*
X986515Y479215D01*
X986924Y479847D01*
X986928Y479859D01*
X986938Y479871D01*
X987311Y480525D01*
X987315Y480535D01*
X987323Y480546D01*
X987663Y481217D01*
X987666Y481229D01*
X987674Y481241D01*
X987979Y481930D01*
X987982Y481943D01*
X987991Y481958D01*
X988253Y482663D01*
X988255Y482674D01*
X988262Y482687D01*
X988489Y483405D01*
X988490Y483416D01*
X988496Y483428D01*
X988687Y484157D01*
X988687Y484168D01*
X988692Y484180D01*
X988848Y484917D01*
X988848Y484926D01*
X988852Y484938D01*
X988976Y485680D01*
X988975Y485691D01*
X988979Y485703D01*
X989068Y486451D01*
X989068Y486459D01*
X989070Y486469D01*
X989132Y487219D01*
X989131Y487228D01*
X989133Y487238D01*
X989166Y487991D01*
X989165Y487999D01*
X989167Y488010D01*
X989171Y488762D01*
X989170Y488771D01*
X989171Y488782D01*
X989146Y489534D01*
X989143Y489549D01*
X989144Y489569D01*
X989067Y490318D01*
X989064Y490329D01*
X989064Y490344D01*
X988948Y491088D01*
X988943Y491101D01*
X988942Y491118D01*
X988780Y491853D01*
X988775Y491865D01*
X988773Y491882D01*
X988568Y492606D01*
X988563Y492615D01*
X988561Y492628D01*
X988323Y493342D01*
X988318Y493351D01*
X988315Y493365D01*
X988044Y494067D01*
X988039Y494075D01*
X988036Y494086D01*
X987734Y494776D01*
X987728Y494786D01*
X987724Y494799D01*
X987389Y495473D01*
X987383Y495480D01*
X987380Y495490D01*
X987019Y496151D01*
X987012Y496159D01*
X987007Y496171D01*
X986615Y496814D01*
X986610Y496820D01*
X986606Y496830D01*
X986191Y497458D01*
X986184Y497465D01*
X986178Y497476D01*
X985736Y498085D01*
X985728Y498092D01*
X985722Y498104D01*
X985252Y498691D01*
X985243Y498698D01*
X985236Y498710D01*
X984739Y499275D01*
X984728Y499283D01*
X984718Y499297D01*
X984569Y499446D01*
X987442Y499046D01*
X987523Y499051D01*
X987603Y499050D01*
X987621Y499057D01*
X987641Y499058D01*
X987713Y499094D01*
X987788Y499124D01*
X987803Y499139D01*
X987819Y499147D01*
X987848Y499181D01*
X987909Y499238D01*
X988214Y499641D01*
X988248Y499711D01*
X988288Y499778D01*
X988292Y499802D01*
X988300Y499820D01*
X988303Y499864D01*
X988316Y499942D01*
X988316Y509398D01*
X988301Y509470D01*
X988294Y509542D01*
X988282Y509566D01*
X988276Y509593D01*
X988235Y509653D01*
X988200Y509717D01*
X988179Y509734D01*
X988164Y509757D01*
X988102Y509796D01*
X988045Y509842D01*
X988016Y509851D01*
X987996Y509864D01*
X987953Y509871D01*
X987887Y509892D01*
X937191Y517064D01*
X937188Y517064D01*
X937184Y517065D01*
X937018Y517058D01*
X936466Y516942D01*
X936414Y516919D01*
X936359Y516906D01*
X936324Y516880D01*
X936283Y516863D01*
X936244Y516822D01*
X936199Y516789D01*
X936176Y516751D01*
X936146Y516719D01*
X936126Y516666D01*
X936097Y516617D01*
X936089Y516567D01*
X936076Y516533D01*
X936077Y516499D01*
X936069Y516453D01*
X936069Y505912D01*
X936082Y505851D01*
X936085Y505788D01*
X936102Y505754D01*
X936109Y505717D01*
X936145Y505666D01*
X936172Y505609D01*
X936200Y505585D01*
X936222Y505553D01*
X936274Y505520D01*
X936322Y505478D01*
X936362Y505464D01*
X936389Y505446D01*
X936426Y505440D01*
X936478Y505421D01*
X937193Y505289D01*
X937202Y505289D01*
X937213Y505285D01*
X955483Y502673D01*
X955243Y502496D01*
X955229Y502481D01*
X955207Y502466D01*
X954647Y501963D01*
X954634Y501945D01*
X954611Y501927D01*
X954106Y501370D01*
X954095Y501351D01*
X954075Y501332D01*
X953626Y500728D01*
X953617Y500710D01*
X953600Y500690D01*
X953209Y500047D01*
X953202Y500028D01*
X953186Y500006D01*
X952857Y499329D01*
X952853Y499311D01*
X952841Y499291D01*
X952569Y498589D01*
X952567Y498577D01*
X952560Y498564D01*
X952325Y497849D01*
X952324Y497838D01*
X952318Y497825D01*
X952119Y497099D01*
X952119Y497090D01*
X952114Y497078D01*
X951947Y496345D01*
X951946Y496334D01*
X951942Y496321D01*
X951810Y495580D01*
X951810Y495570D01*
X951806Y495558D01*
X951707Y494812D01*
X951708Y494804D01*
X951705Y494794D01*
X951633Y494045D01*
X951633Y494035D01*
X951631Y494024D01*
X951589Y493273D01*
X951591Y493264D01*
X951589Y493254D01*
X951575Y492501D01*
X951577Y492492D01*
X951575Y492481D01*
X951593Y491728D01*
X951594Y491720D01*
X951593Y491711D01*
X951637Y490959D01*
X951640Y490948D01*
X951639Y490933D01*
X951721Y490185D01*
X951725Y490175D01*
X951724Y490163D01*
X951840Y489419D01*
X951844Y489409D01*
X951845Y489395D01*
X951997Y488657D01*
X952001Y488647D01*
X952002Y488634D01*
X952190Y487905D01*
X952195Y487895D01*
X952197Y487881D01*
X952421Y487162D01*
X952426Y487152D01*
X952429Y487137D01*
X952691Y486431D01*
X952696Y486422D01*
X952699Y486410D01*
X952993Y485717D01*
X953000Y485706D01*
X953004Y485692D01*
X953335Y485016D01*
X953340Y485010D01*
X953343Y485001D01*
X953697Y484336D01*
X953704Y484328D01*
X953709Y484316D01*
X954094Y483669D01*
X954099Y483663D01*
X954103Y483654D01*
X954511Y483021D01*
X954517Y483014D01*
X954522Y483005D01*
X954954Y482388D01*
X954961Y482381D01*
X954967Y482370D01*
X955426Y481774D01*
X955433Y481768D01*
X955439Y481758D01*
X955921Y481180D01*
X955927Y481176D01*
X955932Y481168D01*
X956434Y480606D01*
X956443Y480600D01*
X956451Y480589D01*
X956979Y480052D01*
X956985Y480048D01*
X956991Y480041D01*
X957536Y479522D01*
X957543Y479518D01*
X957549Y479510D01*
X958112Y479011D01*
X958119Y479007D01*
X958126Y478999D01*
X958707Y478520D01*
X958716Y478515D01*
X958725Y478505D01*
X959932Y477604D01*
X959942Y477599D01*
X959952Y477590D01*
X960576Y477169D01*
X960584Y477166D01*
X960592Y477160D01*
X961231Y476762D01*
X961238Y476760D01*
X961244Y476754D01*
X961896Y476377D01*
X961902Y476375D01*
X961908Y476370D01*
X962570Y476011D01*
X962577Y476009D01*
X962584Y476004D01*
X963257Y475666D01*
X963263Y475665D01*
X963270Y475660D01*
X963953Y475343D01*
X963960Y475341D01*
X963967Y475336D01*
X964659Y475040D01*
X964670Y475038D01*
X964682Y475031D01*
X966093Y474506D01*
X966107Y474504D01*
X966123Y474496D01*
X967564Y474061D01*
X967575Y474060D01*
X967587Y474055D01*
X968317Y473872D01*
X968325Y473871D01*
X968333Y473868D01*
X969069Y473709D01*
X969076Y473709D01*
X969084Y473706D01*
X969824Y473569D01*
X969831Y473569D01*
X969839Y473567D01*
X970584Y473453D01*
X970589Y473453D01*
X970594Y473451D01*
X971340Y473353D01*
X971347Y473354D01*
X971356Y473351D01*
X972105Y473277D01*
X972113Y473277D01*
X972122Y473275D01*
X972874Y473226D01*
X972881Y473227D01*
X972889Y473226D01*
X973642Y473201D01*
X973650Y473202D01*
X973659Y473200D01*
X974412Y473201D01*
G37*
G36*
X974412Y427981D02*
X974412Y427981D01*
X974422Y427983D01*
X974434Y427982D01*
X975187Y428017D01*
X975195Y428019D01*
X975204Y428018D01*
X975955Y428079D01*
X975964Y428082D01*
X975976Y428082D01*
X976723Y428175D01*
X976732Y428178D01*
X976745Y428178D01*
X977487Y428305D01*
X977497Y428309D01*
X977510Y428309D01*
X978245Y428471D01*
X978254Y428475D01*
X978266Y428476D01*
X978994Y428669D01*
X979003Y428674D01*
X979016Y428676D01*
X979734Y428903D01*
X979745Y428909D01*
X979761Y428912D01*
X980465Y429180D01*
X980474Y429186D01*
X980486Y429189D01*
X981177Y429490D01*
X981187Y429497D01*
X981202Y429502D01*
X981874Y429840D01*
X981884Y429848D01*
X981899Y429854D01*
X982551Y430230D01*
X982561Y430239D01*
X982577Y430246D01*
X983205Y430661D01*
X983214Y430670D01*
X983228Y430677D01*
X983832Y431127D01*
X983841Y431137D01*
X983855Y431145D01*
X984431Y431630D01*
X984439Y431641D01*
X984453Y431650D01*
X984999Y432169D01*
X985007Y432180D01*
X985020Y432190D01*
X985533Y432740D01*
X985540Y432751D01*
X985553Y432762D01*
X986033Y433341D01*
X986039Y433353D01*
X986051Y433364D01*
X986498Y433970D01*
X986503Y433982D01*
X986515Y433995D01*
X986924Y434627D01*
X986928Y434639D01*
X986938Y434651D01*
X987311Y435305D01*
X987315Y435316D01*
X987323Y435327D01*
X987663Y435998D01*
X987666Y436009D01*
X987674Y436021D01*
X987979Y436710D01*
X987982Y436723D01*
X987991Y436738D01*
X988253Y437443D01*
X988255Y437455D01*
X988262Y437467D01*
X988489Y438185D01*
X988490Y438196D01*
X988496Y438209D01*
X988687Y438937D01*
X988687Y438948D01*
X988692Y438960D01*
X988848Y439697D01*
X988848Y439706D01*
X988852Y439718D01*
X988976Y440460D01*
X988975Y440471D01*
X988979Y440483D01*
X989068Y441231D01*
X989068Y441239D01*
X989070Y441249D01*
X989132Y442000D01*
X989131Y442008D01*
X989133Y442019D01*
X989166Y442771D01*
X989165Y442779D01*
X989167Y442790D01*
X989171Y443543D01*
X989170Y443551D01*
X989171Y443562D01*
X989146Y444314D01*
X989143Y444330D01*
X989144Y444349D01*
X989067Y445098D01*
X989064Y445109D01*
X989064Y445124D01*
X988948Y445868D01*
X988943Y445881D01*
X988942Y445898D01*
X988780Y446633D01*
X988775Y446646D01*
X988773Y446662D01*
X988567Y447387D01*
X988563Y447396D01*
X988561Y447408D01*
X988323Y448122D01*
X988318Y448132D01*
X988315Y448145D01*
X988044Y448847D01*
X988039Y448855D01*
X988036Y448867D01*
X987734Y449557D01*
X987728Y449566D01*
X987724Y449579D01*
X987389Y450253D01*
X987383Y450260D01*
X987380Y450270D01*
X987019Y450931D01*
X987012Y450939D01*
X987007Y450952D01*
X986615Y451595D01*
X986610Y451601D01*
X986606Y451610D01*
X986191Y452238D01*
X986184Y452245D01*
X986178Y452256D01*
X985736Y452865D01*
X985728Y452872D01*
X985722Y452884D01*
X985252Y453472D01*
X985243Y453479D01*
X985236Y453490D01*
X984739Y454055D01*
X984728Y454063D01*
X984718Y454077D01*
X984569Y454226D01*
X987442Y453826D01*
X987523Y453831D01*
X987603Y453830D01*
X987621Y453837D01*
X987641Y453838D01*
X987713Y453874D01*
X987788Y453905D01*
X987803Y453919D01*
X987819Y453927D01*
X987848Y453961D01*
X987909Y454019D01*
X988214Y454421D01*
X988248Y454491D01*
X988288Y454559D01*
X988292Y454583D01*
X988300Y454600D01*
X988303Y454645D01*
X988316Y454723D01*
X988316Y464178D01*
X988301Y464250D01*
X988294Y464323D01*
X988282Y464346D01*
X988276Y464373D01*
X988235Y464433D01*
X988200Y464498D01*
X988179Y464515D01*
X988164Y464537D01*
X988102Y464576D01*
X988045Y464622D01*
X988016Y464631D01*
X987996Y464644D01*
X987953Y464651D01*
X987887Y464672D01*
X937191Y471844D01*
X937188Y471844D01*
X937184Y471845D01*
X937018Y471839D01*
X936466Y471722D01*
X936414Y471700D01*
X936359Y471687D01*
X936324Y471661D01*
X936283Y471643D01*
X936244Y471602D01*
X936199Y471569D01*
X936176Y471531D01*
X936146Y471499D01*
X936126Y471446D01*
X936097Y471398D01*
X936089Y471347D01*
X936076Y471313D01*
X936077Y471279D01*
X936069Y471234D01*
X936069Y460692D01*
X936082Y460631D01*
X936085Y460569D01*
X936102Y460535D01*
X936109Y460498D01*
X936145Y460446D01*
X936172Y460390D01*
X936200Y460365D01*
X936222Y460334D01*
X936274Y460300D01*
X936322Y460259D01*
X936362Y460244D01*
X936389Y460227D01*
X936426Y460220D01*
X936478Y460202D01*
X937193Y460069D01*
X937202Y460069D01*
X937213Y460066D01*
X955483Y457454D01*
X955243Y457276D01*
X955229Y457261D01*
X955207Y457246D01*
X954647Y456743D01*
X954634Y456725D01*
X954611Y456707D01*
X954106Y456150D01*
X954095Y456131D01*
X954075Y456112D01*
X953626Y455509D01*
X953617Y455490D01*
X953600Y455470D01*
X953209Y454827D01*
X953202Y454808D01*
X953186Y454786D01*
X952857Y454109D01*
X952853Y454091D01*
X952841Y454071D01*
X952569Y453369D01*
X952567Y453358D01*
X952560Y453345D01*
X952325Y452629D01*
X952324Y452618D01*
X952318Y452605D01*
X952119Y451879D01*
X952119Y451870D01*
X952114Y451859D01*
X951947Y451125D01*
X951946Y451114D01*
X951942Y451101D01*
X951810Y450360D01*
X951810Y450350D01*
X951806Y450338D01*
X951707Y449592D01*
X951708Y449584D01*
X951705Y449574D01*
X951633Y448825D01*
X951633Y448816D01*
X951631Y448804D01*
X951589Y448053D01*
X951591Y448044D01*
X951589Y448034D01*
X951575Y447281D01*
X951577Y447272D01*
X951575Y447261D01*
X951593Y446508D01*
X951594Y446500D01*
X951593Y446491D01*
X951637Y445739D01*
X951640Y445728D01*
X951639Y445714D01*
X951721Y444965D01*
X951725Y444955D01*
X951724Y444943D01*
X951840Y444199D01*
X951844Y444189D01*
X951845Y444175D01*
X951997Y443438D01*
X952001Y443428D01*
X952002Y443414D01*
X952190Y442685D01*
X952195Y442675D01*
X952197Y442661D01*
X952421Y441943D01*
X952426Y441932D01*
X952429Y441917D01*
X952691Y441211D01*
X952696Y441203D01*
X952699Y441190D01*
X952992Y440497D01*
X952999Y440487D01*
X953004Y440472D01*
X953335Y439796D01*
X953340Y439790D01*
X953343Y439781D01*
X953697Y439117D01*
X953704Y439108D01*
X953709Y439096D01*
X954094Y438449D01*
X954099Y438443D01*
X954103Y438434D01*
X954511Y437801D01*
X954517Y437795D01*
X954522Y437785D01*
X954954Y437169D01*
X954961Y437161D01*
X954967Y437150D01*
X955426Y436554D01*
X955433Y436548D01*
X955439Y436538D01*
X955921Y435961D01*
X955927Y435956D01*
X955932Y435948D01*
X956434Y435387D01*
X956443Y435380D01*
X956451Y435369D01*
X956979Y434833D01*
X956985Y434829D01*
X956991Y434822D01*
X957536Y434303D01*
X957543Y434298D01*
X957549Y434291D01*
X958112Y433791D01*
X958119Y433787D01*
X958126Y433779D01*
X958707Y433300D01*
X958716Y433295D01*
X958725Y433286D01*
X959932Y432384D01*
X959942Y432380D01*
X959952Y432370D01*
X960576Y431950D01*
X960584Y431947D01*
X960591Y431940D01*
X961231Y431542D01*
X961238Y431540D01*
X961244Y431535D01*
X961896Y431157D01*
X961902Y431155D01*
X961908Y431150D01*
X962570Y430792D01*
X962577Y430790D01*
X962584Y430785D01*
X963257Y430447D01*
X963263Y430445D01*
X963270Y430440D01*
X963953Y430123D01*
X963960Y430121D01*
X963967Y430117D01*
X964659Y429820D01*
X964670Y429818D01*
X964682Y429811D01*
X966093Y429286D01*
X966107Y429284D01*
X966123Y429276D01*
X967564Y428841D01*
X967575Y428840D01*
X967587Y428835D01*
X968317Y428652D01*
X968325Y428652D01*
X968333Y428648D01*
X969069Y428489D01*
X969076Y428489D01*
X969084Y428486D01*
X969824Y428349D01*
X969831Y428349D01*
X969839Y428347D01*
X970584Y428233D01*
X970589Y428233D01*
X970594Y428232D01*
X971340Y428133D01*
X971347Y428134D01*
X971356Y428132D01*
X972105Y428057D01*
X972113Y428058D01*
X972122Y428055D01*
X972874Y428007D01*
X972881Y428008D01*
X972889Y428006D01*
X973642Y427981D01*
X973650Y427982D01*
X973659Y427981D01*
X974412Y427981D01*
G37*
G36*
X991397Y314587D02*
X991397Y314587D01*
X991410Y314585D01*
X992164Y314605D01*
X992173Y314607D01*
X992186Y314606D01*
X992938Y314660D01*
X992950Y314663D01*
X992967Y314662D01*
X993714Y314759D01*
X993726Y314763D01*
X993742Y314763D01*
X994483Y314901D01*
X994498Y314907D01*
X994518Y314909D01*
X995247Y315101D01*
X995261Y315107D01*
X995280Y315110D01*
X995994Y315351D01*
X996009Y315360D01*
X996030Y315365D01*
X996638Y315623D01*
X996724Y315660D01*
X996735Y315667D01*
X996751Y315672D01*
X997426Y316009D01*
X997438Y316018D01*
X997456Y316025D01*
X998106Y316406D01*
X998118Y316417D01*
X998136Y316425D01*
X998758Y316852D01*
X998768Y316863D01*
X998784Y316872D01*
X999376Y317339D01*
X999388Y317353D01*
X999407Y317366D01*
X999959Y317880D01*
X999969Y317894D01*
X999987Y317908D01*
X1000496Y318464D01*
X1000504Y318477D01*
X1000518Y318491D01*
X1000987Y319081D01*
X1000994Y319096D01*
X1001009Y319110D01*
X1001433Y319733D01*
X1001438Y319745D01*
X1001448Y319756D01*
X1001838Y320402D01*
X1001842Y320414D01*
X1001851Y320426D01*
X1002204Y321093D01*
X1002208Y321106D01*
X1002217Y321120D01*
X1002529Y321806D01*
X1002532Y321817D01*
X1002539Y321829D01*
X1002817Y322529D01*
X1002819Y322541D01*
X1002826Y322555D01*
X1003066Y323269D01*
X1003067Y323279D01*
X1003072Y323289D01*
X1003282Y324013D01*
X1003283Y324023D01*
X1003288Y324035D01*
X1003466Y324767D01*
X1003466Y324776D01*
X1003470Y324786D01*
X1003619Y325525D01*
X1003619Y325530D01*
X1003621Y325536D01*
X1003754Y326278D01*
X1003754Y326285D01*
X1003757Y326294D01*
X1003977Y327785D01*
X1003976Y327793D01*
X1003979Y327803D01*
X1004063Y328552D01*
X1004062Y328560D01*
X1004064Y328570D01*
X1004179Y330073D01*
X1004178Y330082D01*
X1004180Y330091D01*
X1004240Y331598D01*
X1004239Y331607D01*
X1004241Y331618D01*
X1004252Y351222D01*
X1004252Y351348D01*
X1004238Y351421D01*
X1004231Y351495D01*
X1004218Y351518D01*
X1004213Y351543D01*
X1004171Y351604D01*
X1004136Y351670D01*
X1004116Y351686D01*
X1004101Y351707D01*
X1004039Y351747D01*
X1003981Y351794D01*
X1003953Y351802D01*
X1003934Y351815D01*
X1003890Y351822D01*
X1003822Y351844D01*
X953040Y358946D01*
X953009Y358944D01*
X952980Y358950D01*
X952911Y358938D01*
X952841Y358934D01*
X952814Y358920D01*
X952784Y358914D01*
X952726Y358876D01*
X952663Y358845D01*
X952644Y358822D01*
X952618Y358805D01*
X952580Y358747D01*
X952534Y358694D01*
X952525Y358665D01*
X952508Y358639D01*
X952487Y358546D01*
X952474Y358504D01*
X952475Y358492D01*
X952472Y358477D01*
X952436Y357765D01*
X952437Y357754D01*
X952435Y357739D01*
X952435Y347937D01*
X952440Y347914D01*
X952438Y347883D01*
X952512Y347194D01*
X952526Y347149D01*
X952531Y347101D01*
X952556Y347055D01*
X952572Y347004D01*
X952603Y346968D01*
X952626Y346926D01*
X952667Y346894D01*
X952701Y346854D01*
X952744Y346832D01*
X952781Y346803D01*
X952842Y346784D01*
X952880Y346765D01*
X952906Y346763D01*
X952940Y346753D01*
X972135Y344108D01*
X972243Y343941D01*
X972248Y335794D01*
X972249Y335789D01*
X972248Y335783D01*
X972265Y335029D01*
X972267Y335023D01*
X972266Y335015D01*
X972337Y333634D01*
X972339Y333623D01*
X972338Y333612D01*
X972364Y333527D01*
X972367Y333517D01*
X972354Y333372D01*
X972402Y332745D01*
X972403Y332739D01*
X972403Y332731D01*
X972480Y331981D01*
X972482Y331975D01*
X972482Y331967D01*
X972681Y330472D01*
X972684Y330462D01*
X972685Y330450D01*
X972950Y328966D01*
X972953Y328958D01*
X972953Y328947D01*
X973114Y328210D01*
X973117Y328203D01*
X973118Y328194D01*
X973304Y327463D01*
X973307Y327456D01*
X973308Y327446D01*
X973519Y326722D01*
X973523Y326715D01*
X973525Y326704D01*
X973764Y325989D01*
X973768Y325981D01*
X973770Y325971D01*
X974036Y325265D01*
X974041Y325257D01*
X974044Y325246D01*
X974339Y324552D01*
X974345Y324543D01*
X974349Y324531D01*
X974676Y323852D01*
X974681Y323845D01*
X974684Y323836D01*
X975035Y323169D01*
X975042Y323160D01*
X975047Y323148D01*
X975430Y322498D01*
X975437Y322491D01*
X975441Y322480D01*
X975852Y321847D01*
X975861Y321838D01*
X975868Y321824D01*
X976315Y321216D01*
X976322Y321209D01*
X976329Y321198D01*
X976803Y320612D01*
X976813Y320603D01*
X976823Y320589D01*
X977331Y320032D01*
X977340Y320026D01*
X977347Y320016D01*
X977881Y319483D01*
X977891Y319477D01*
X977899Y319466D01*
X978459Y318961D01*
X978469Y318956D01*
X978478Y318946D01*
X979061Y318468D01*
X979071Y318463D01*
X979080Y318454D01*
X979686Y318005D01*
X979695Y318000D01*
X979705Y317991D01*
X980330Y317571D01*
X980339Y317567D01*
X980348Y317559D01*
X980992Y317166D01*
X981004Y317162D01*
X981016Y317152D01*
X981680Y316795D01*
X981690Y316792D01*
X981700Y316785D01*
X982379Y316458D01*
X982389Y316456D01*
X982399Y316449D01*
X983093Y316153D01*
X983104Y316151D01*
X983116Y316144D01*
X983823Y315882D01*
X983830Y315881D01*
X983838Y315877D01*
X984553Y315638D01*
X984563Y315636D01*
X984575Y315631D01*
X985300Y315425D01*
X985308Y315424D01*
X985317Y315420D01*
X986049Y315239D01*
X986055Y315239D01*
X986062Y315236D01*
X986798Y315074D01*
X986806Y315074D01*
X986814Y315071D01*
X987556Y314934D01*
X987563Y314934D01*
X987571Y314931D01*
X988316Y314817D01*
X988322Y314818D01*
X988328Y314816D01*
X989076Y314720D01*
X989084Y314720D01*
X989094Y314718D01*
X989844Y314649D01*
X989852Y314649D01*
X989860Y314647D01*
X990613Y314602D01*
X990622Y314603D01*
X990632Y314601D01*
X991386Y314585D01*
X991397Y314587D01*
G37*
G36*
X973592Y384245D02*
X973592Y384245D01*
X973600Y384246D01*
X973610Y384245D01*
X974361Y384274D01*
X974371Y384277D01*
X974383Y384276D01*
X975132Y384339D01*
X975142Y384342D01*
X975155Y384342D01*
X975900Y384438D01*
X975911Y384442D01*
X975925Y384443D01*
X976664Y384578D01*
X976673Y384582D01*
X976685Y384582D01*
X977418Y384749D01*
X977430Y384755D01*
X977447Y384757D01*
X978168Y384968D01*
X978177Y384972D01*
X978188Y384974D01*
X978900Y385215D01*
X978910Y385221D01*
X978925Y385224D01*
X979623Y385502D01*
X979633Y385508D01*
X979646Y385512D01*
X980330Y385825D01*
X980338Y385831D01*
X980350Y385835D01*
X981018Y386178D01*
X981028Y386186D01*
X981042Y386191D01*
X981691Y386570D01*
X981700Y386579D01*
X981715Y386585D01*
X982341Y387001D01*
X982349Y387009D01*
X982362Y387016D01*
X982966Y387463D01*
X982974Y387473D01*
X982988Y387481D01*
X983566Y387961D01*
X983573Y387970D01*
X983585Y387978D01*
X984137Y388487D01*
X984145Y388497D01*
X984157Y388506D01*
X984681Y389045D01*
X984687Y389055D01*
X984698Y389064D01*
X985194Y389629D01*
X985200Y389640D01*
X985211Y389650D01*
X985675Y390241D01*
X985680Y390251D01*
X985690Y390261D01*
X986124Y390874D01*
X986129Y390885D01*
X986138Y390896D01*
X986540Y391531D01*
X986544Y391541D01*
X986552Y391552D01*
X986923Y392206D01*
X986926Y392215D01*
X986933Y392225D01*
X987275Y392894D01*
X987277Y392904D01*
X987285Y392915D01*
X987595Y393600D01*
X987597Y393610D01*
X987603Y393620D01*
X987882Y394318D01*
X987884Y394327D01*
X987890Y394338D01*
X988139Y395047D01*
X988141Y395056D01*
X988145Y395065D01*
X988367Y395784D01*
X988368Y395793D01*
X988372Y395803D01*
X988564Y396530D01*
X988565Y396538D01*
X988569Y396547D01*
X988734Y397280D01*
X988734Y397290D01*
X988738Y397301D01*
X988872Y398041D01*
X988872Y398048D01*
X988875Y398056D01*
X988985Y398799D01*
X988985Y398808D01*
X988988Y398818D01*
X989071Y399565D01*
X989070Y399572D01*
X989072Y399580D01*
X989133Y400329D01*
X989132Y400339D01*
X989134Y400350D01*
X989163Y401101D01*
X989162Y401107D01*
X989163Y401113D01*
X989174Y401864D01*
X989172Y401875D01*
X989173Y401887D01*
X989163Y402231D01*
X989147Y402730D01*
X989147Y402731D01*
X989127Y403389D01*
X989124Y403404D01*
X989125Y403422D01*
X988980Y404918D01*
X988976Y404931D01*
X988976Y404949D01*
X988739Y406433D01*
X988734Y406446D01*
X988733Y406464D01*
X988401Y407930D01*
X988396Y407941D01*
X988394Y407955D01*
X988191Y408678D01*
X988187Y408687D01*
X988185Y408700D01*
X987715Y410127D01*
X987709Y410137D01*
X987706Y410151D01*
X987436Y410852D01*
X987430Y410861D01*
X987426Y410875D01*
X986816Y412248D01*
X986809Y412257D01*
X986806Y412269D01*
X986469Y412941D01*
X986463Y412948D01*
X986459Y412959D01*
X986095Y413617D01*
X986090Y413622D01*
X986087Y413631D01*
X985701Y414276D01*
X985696Y414281D01*
X985692Y414290D01*
X985284Y414922D01*
X985278Y414928D01*
X985273Y414937D01*
X984843Y415553D01*
X984837Y415558D01*
X984832Y415567D01*
X984380Y416167D01*
X984374Y416173D01*
X984369Y416182D01*
X983895Y416765D01*
X983889Y416770D01*
X983884Y416779D01*
X983389Y417345D01*
X983384Y417349D01*
X983379Y417356D01*
X982868Y417907D01*
X982861Y417912D01*
X982855Y417920D01*
X982322Y418451D01*
X982315Y418456D01*
X982309Y418465D01*
X981757Y418975D01*
X981750Y418979D01*
X981744Y418986D01*
X981175Y419477D01*
X981168Y419481D01*
X981162Y419488D01*
X980576Y419959D01*
X980568Y419963D01*
X980561Y419971D01*
X979957Y420418D01*
X979951Y420421D01*
X979945Y420427D01*
X979328Y420857D01*
X979320Y420860D01*
X979313Y420867D01*
X978681Y421273D01*
X978674Y421276D01*
X978667Y421282D01*
X978022Y421667D01*
X978013Y421670D01*
X978005Y421677D01*
X977345Y422037D01*
X977336Y422040D01*
X977328Y422046D01*
X976655Y422380D01*
X976646Y422382D01*
X976637Y422388D01*
X975952Y422697D01*
X975943Y422699D01*
X975933Y422705D01*
X975235Y422984D01*
X975228Y422985D01*
X975220Y422990D01*
X974513Y423246D01*
X974503Y423248D01*
X974493Y423253D01*
X973776Y423478D01*
X973769Y423479D01*
X973762Y423483D01*
X973038Y423687D01*
X973029Y423687D01*
X973018Y423692D01*
X972286Y423865D01*
X972279Y423865D01*
X972270Y423868D01*
X971534Y424017D01*
X971527Y424017D01*
X971519Y424020D01*
X970778Y424147D01*
X970772Y424146D01*
X970766Y424148D01*
X970448Y424194D01*
X970443Y424194D01*
X970437Y424196D01*
X969691Y424287D01*
X969683Y424286D01*
X969673Y424289D01*
X968924Y424353D01*
X968917Y424352D01*
X968908Y424354D01*
X968157Y424394D01*
X968148Y424392D01*
X968137Y424394D01*
X967385Y424403D01*
X967376Y424401D01*
X967365Y424403D01*
X966614Y424381D01*
X966605Y424379D01*
X966594Y424380D01*
X965844Y424328D01*
X965834Y424325D01*
X965820Y424326D01*
X965074Y424238D01*
X965064Y424234D01*
X965051Y424234D01*
X964310Y424112D01*
X964299Y424108D01*
X964286Y424108D01*
X963551Y423949D01*
X963540Y423944D01*
X963524Y423942D01*
X962800Y423744D01*
X962790Y423739D01*
X962776Y423737D01*
X962062Y423502D01*
X962054Y423498D01*
X962042Y423495D01*
X961338Y423231D01*
X961329Y423225D01*
X961317Y423222D01*
X960627Y422925D01*
X960617Y422918D01*
X960602Y422914D01*
X959929Y422580D01*
X959919Y422572D01*
X959906Y422567D01*
X959251Y422199D01*
X959242Y422191D01*
X959229Y422186D01*
X958594Y421785D01*
X958586Y421777D01*
X958573Y421771D01*
X957958Y421339D01*
X957949Y421329D01*
X957935Y421321D01*
X957347Y420854D01*
X957338Y420844D01*
X957325Y420836D01*
X956764Y420337D01*
X956757Y420328D01*
X956745Y420319D01*
X956210Y419792D01*
X956203Y419783D01*
X956192Y419774D01*
X955684Y419220D01*
X955677Y419208D01*
X955665Y419197D01*
X955191Y418614D01*
X955186Y418604D01*
X955176Y418594D01*
X954732Y417987D01*
X954727Y417977D01*
X954718Y417967D01*
X954305Y417339D01*
X954301Y417327D01*
X954291Y417316D01*
X953913Y416667D01*
X953909Y416657D01*
X953902Y416647D01*
X953553Y415981D01*
X953550Y415972D01*
X953543Y415962D01*
X953224Y415281D01*
X953222Y415270D01*
X953214Y415258D01*
X952929Y414563D01*
X952928Y414554D01*
X952922Y414545D01*
X952665Y413839D01*
X952664Y413829D01*
X952658Y413819D01*
X952431Y413102D01*
X952430Y413093D01*
X952425Y413082D01*
X952228Y412357D01*
X952227Y412349D01*
X952224Y412341D01*
X952051Y411609D01*
X952051Y411599D01*
X952046Y411588D01*
X951906Y410850D01*
X951906Y410842D01*
X951903Y410834D01*
X951787Y410092D01*
X951787Y410083D01*
X951784Y410073D01*
X951694Y409327D01*
X951695Y409320D01*
X951693Y409311D01*
X951628Y408562D01*
X951629Y408553D01*
X951627Y408543D01*
X951590Y407793D01*
X951592Y407783D01*
X951590Y407771D01*
X951583Y406268D01*
X951585Y406258D01*
X951583Y406246D01*
X951585Y406192D01*
X951612Y405495D01*
X951614Y405484D01*
X951613Y405470D01*
X951747Y403973D01*
X951750Y403963D01*
X951750Y403950D01*
X951852Y403205D01*
X951854Y403199D01*
X951854Y403190D01*
X951978Y402449D01*
X951981Y402442D01*
X951981Y402432D01*
X952131Y401696D01*
X952133Y401690D01*
X952134Y401682D01*
X952305Y400950D01*
X952309Y400939D01*
X952311Y400926D01*
X952724Y399481D01*
X952731Y399467D01*
X952734Y399449D01*
X953201Y398152D01*
X953213Y398132D01*
X953218Y398110D01*
X953264Y398048D01*
X953265Y398046D01*
X953300Y397896D01*
X953541Y397318D01*
X953545Y397312D01*
X953547Y397302D01*
X953860Y396619D01*
X953864Y396613D01*
X953867Y396605D01*
X954200Y395931D01*
X954205Y395925D01*
X954208Y395916D01*
X954564Y395254D01*
X954569Y395248D01*
X954573Y395239D01*
X954952Y394590D01*
X954958Y394583D01*
X954962Y394573D01*
X955367Y393940D01*
X955372Y393935D01*
X955375Y393927D01*
X955799Y393307D01*
X955805Y393300D01*
X955811Y393289D01*
X956260Y392687D01*
X956265Y392683D01*
X956269Y392675D01*
X956737Y392086D01*
X956746Y392079D01*
X956754Y392066D01*
X957750Y390941D01*
X957760Y390933D01*
X957769Y390920D01*
X958298Y390386D01*
X958304Y390382D01*
X958310Y390374D01*
X958856Y389858D01*
X958862Y389854D01*
X958868Y389847D01*
X959431Y389349D01*
X959438Y389345D01*
X959445Y389338D01*
X960026Y388861D01*
X960032Y388857D01*
X960038Y388851D01*
X960634Y388392D01*
X960641Y388389D01*
X960648Y388382D01*
X961259Y387945D01*
X961266Y387942D01*
X961273Y387935D01*
X961899Y387519D01*
X961906Y387517D01*
X961912Y387511D01*
X962550Y387114D01*
X962559Y387111D01*
X962568Y387104D01*
X963223Y386734D01*
X963230Y386732D01*
X963236Y386727D01*
X963902Y386378D01*
X963912Y386375D01*
X963923Y386367D01*
X964604Y386050D01*
X964612Y386048D01*
X964620Y386043D01*
X965311Y385749D01*
X965321Y385747D01*
X965332Y385740D01*
X966037Y385478D01*
X966045Y385477D01*
X966054Y385472D01*
X966767Y385235D01*
X966774Y385234D01*
X966783Y385230D01*
X967504Y385018D01*
X967513Y385017D01*
X967523Y385013D01*
X968251Y384828D01*
X968259Y384828D01*
X968269Y384824D01*
X969003Y384667D01*
X969010Y384666D01*
X969018Y384664D01*
X969758Y384528D01*
X969766Y384528D01*
X969776Y384525D01*
X970520Y384418D01*
X970528Y384418D01*
X970536Y384416D01*
X971283Y384332D01*
X971291Y384333D01*
X971300Y384331D01*
X972050Y384273D01*
X972058Y384274D01*
X972068Y384272D01*
X972819Y384242D01*
X972828Y384244D01*
X972841Y384242D01*
X973592Y384245D01*
G37*
%LPC*%
G36*
X980668Y274746D02*
X980668Y274746D01*
X979936Y274787D01*
X979208Y274854D01*
X978484Y274960D01*
X977757Y275089D01*
X977034Y275239D01*
X976319Y275411D01*
X975611Y275610D01*
X974909Y275832D01*
X974221Y276079D01*
X973544Y276358D01*
X972878Y276663D01*
X972231Y276997D01*
X971601Y277364D01*
X970987Y277761D01*
X970392Y278181D01*
X969820Y278635D01*
X969269Y279112D01*
X968741Y279614D01*
X968243Y280142D01*
X967772Y280698D01*
X967328Y281273D01*
X966918Y281876D01*
X966532Y282495D01*
X966177Y283135D01*
X965897Y283687D01*
X965894Y283690D01*
X965893Y283694D01*
X965832Y283768D01*
X965831Y283770D01*
X965800Y283889D01*
X965549Y284455D01*
X965276Y285135D01*
X965032Y285826D01*
X964817Y286527D01*
X964627Y287234D01*
X964317Y288682D01*
X964076Y290144D01*
X963911Y291621D01*
X963853Y292355D01*
X963781Y293841D01*
X963770Y300032D01*
X992639Y295977D01*
X992915Y295913D01*
X992895Y288792D01*
X992859Y288059D01*
X992801Y287327D01*
X992610Y285859D01*
X992480Y285138D01*
X992324Y284419D01*
X992144Y283708D01*
X991933Y283005D01*
X991699Y282312D01*
X991432Y281633D01*
X991134Y280968D01*
X990802Y280322D01*
X990436Y279695D01*
X990037Y279091D01*
X989604Y278513D01*
X989137Y277967D01*
X988631Y277460D01*
X988091Y276987D01*
X987520Y276559D01*
X986916Y276177D01*
X986282Y275841D01*
X985627Y275544D01*
X984952Y275296D01*
X984263Y275092D01*
X983561Y274940D01*
X982846Y274832D01*
X982124Y274764D01*
X981398Y274737D01*
X980668Y274746D01*
G37*
%LPD*%
G36*
X987698Y517688D02*
X987698Y517688D01*
X987786Y517689D01*
X987797Y517694D01*
X987810Y517695D01*
X987888Y517734D01*
X987968Y517768D01*
X987977Y517778D01*
X987988Y517783D01*
X988045Y517850D01*
X988105Y517913D01*
X988110Y517926D01*
X988117Y517935D01*
X988130Y517975D01*
X988168Y518067D01*
X988302Y518663D01*
X988303Y518706D01*
X988315Y518773D01*
X988315Y528920D01*
X988300Y528992D01*
X988293Y529066D01*
X988280Y529089D01*
X988275Y529115D01*
X988234Y529176D01*
X988199Y529240D01*
X988178Y529257D01*
X988163Y529279D01*
X988101Y529319D01*
X988043Y529365D01*
X988015Y529374D01*
X987995Y529386D01*
X987952Y529393D01*
X987885Y529415D01*
X953683Y534201D01*
X953664Y534200D01*
X953639Y534206D01*
X952956Y534240D01*
X952935Y534237D01*
X952915Y534240D01*
X952838Y534222D01*
X952760Y534210D01*
X952742Y534199D01*
X952721Y534194D01*
X952657Y534148D01*
X952590Y534106D01*
X952578Y534089D01*
X952561Y534077D01*
X952521Y534009D01*
X952475Y533944D01*
X952470Y533924D01*
X952460Y533905D01*
X952438Y533777D01*
X952432Y533750D01*
X952433Y533746D01*
X952432Y533741D01*
X952432Y523231D01*
X952450Y523141D01*
X952466Y523050D01*
X952470Y523044D01*
X952471Y523036D01*
X952523Y522960D01*
X952573Y522883D01*
X952580Y522878D01*
X952584Y522872D01*
X952615Y522853D01*
X952707Y522785D01*
X953255Y522510D01*
X953272Y522506D01*
X953410Y522462D01*
X987612Y517682D01*
X987698Y517688D01*
G37*
%LPC*%
G36*
X971718Y439868D02*
X971718Y439868D01*
X970999Y439914D01*
X970283Y440009D01*
X969571Y440142D01*
X968868Y440316D01*
X968183Y440531D01*
X967516Y440797D01*
X966868Y441106D01*
X966246Y441459D01*
X965656Y441860D01*
X965098Y442306D01*
X964576Y442793D01*
X964093Y443318D01*
X963657Y443878D01*
X963272Y444475D01*
X962935Y445100D01*
X962659Y445753D01*
X962437Y446430D01*
X962267Y447125D01*
X962147Y447833D01*
X962075Y448548D01*
X962047Y449271D01*
X962062Y449994D01*
X962120Y450711D01*
X962229Y451416D01*
X962395Y452104D01*
X962625Y452766D01*
X962923Y453390D01*
X963300Y453968D01*
X963739Y454496D01*
X964252Y454954D01*
X964818Y455357D01*
X965428Y455689D01*
X966073Y455953D01*
X966747Y456143D01*
X967444Y456269D01*
X968151Y456337D01*
X968865Y456346D01*
X969586Y456304D01*
X970308Y456223D01*
X970616Y456172D01*
X971331Y456029D01*
X972030Y455848D01*
X972713Y455620D01*
X973380Y455353D01*
X974021Y455037D01*
X974637Y454671D01*
X975225Y454265D01*
X975776Y453812D01*
X976293Y453318D01*
X976769Y452788D01*
X977199Y452224D01*
X977515Y451711D01*
X977575Y451647D01*
X977583Y451637D01*
X977617Y451529D01*
X977892Y450990D01*
X978156Y450331D01*
X978366Y449651D01*
X978521Y448953D01*
X978628Y448242D01*
X978685Y447523D01*
X978702Y446800D01*
X978676Y446078D01*
X978604Y445365D01*
X978478Y444663D01*
X978296Y443981D01*
X978047Y443328D01*
X977729Y442713D01*
X977339Y442143D01*
X976883Y441629D01*
X976361Y441177D01*
X975786Y440785D01*
X975172Y440462D01*
X974521Y440214D01*
X973842Y440033D01*
X973146Y439916D01*
X972437Y439866D01*
X971718Y439868D01*
G37*
%LPD*%
%LPC*%
G36*
X971718Y485088D02*
X971718Y485088D01*
X970999Y485134D01*
X970283Y485229D01*
X969571Y485362D01*
X968868Y485536D01*
X968183Y485751D01*
X967516Y486017D01*
X966868Y486326D01*
X966246Y486679D01*
X965656Y487080D01*
X965098Y487526D01*
X964576Y488013D01*
X964093Y488538D01*
X963657Y489098D01*
X963272Y489695D01*
X962935Y490320D01*
X962659Y490973D01*
X962437Y491649D01*
X962267Y492344D01*
X962147Y493052D01*
X962075Y493768D01*
X962047Y494491D01*
X962062Y495214D01*
X962120Y495931D01*
X962229Y496636D01*
X962395Y497324D01*
X962625Y497985D01*
X962923Y498610D01*
X963300Y499188D01*
X963739Y499715D01*
X964252Y500174D01*
X964818Y500577D01*
X965428Y500909D01*
X966073Y501172D01*
X966747Y501362D01*
X967444Y501489D01*
X968151Y501557D01*
X968865Y501566D01*
X969586Y501524D01*
X970308Y501442D01*
X970616Y501392D01*
X971331Y501249D01*
X972030Y501068D01*
X972713Y500840D01*
X973380Y500573D01*
X974021Y500257D01*
X974637Y499891D01*
X975225Y499485D01*
X975776Y499032D01*
X976293Y498538D01*
X976769Y498008D01*
X977199Y497444D01*
X977515Y496931D01*
X977575Y496867D01*
X977583Y496857D01*
X977617Y496749D01*
X977892Y496209D01*
X978156Y495551D01*
X978366Y494871D01*
X978521Y494172D01*
X978628Y493462D01*
X978685Y492743D01*
X978702Y492019D01*
X978676Y491298D01*
X978604Y490584D01*
X978478Y489883D01*
X978296Y489201D01*
X978047Y488548D01*
X977729Y487932D01*
X977339Y487363D01*
X976883Y486849D01*
X976361Y486397D01*
X975786Y486005D01*
X975172Y485682D01*
X974521Y485433D01*
X973842Y485253D01*
X973146Y485136D01*
X972437Y485086D01*
X971718Y485088D01*
G37*
%LPD*%
%LPC*%
G36*
X971669Y396090D02*
X971669Y396090D01*
X970951Y396138D01*
X970237Y396237D01*
X969525Y396372D01*
X968826Y396549D01*
X968141Y396767D01*
X967476Y397031D01*
X966833Y397343D01*
X966213Y397701D01*
X965624Y398100D01*
X965072Y398550D01*
X964550Y399038D01*
X964071Y399564D01*
X963637Y400123D01*
X963256Y400721D01*
X962923Y401348D01*
X962689Y401904D01*
X962683Y401912D01*
X962681Y401921D01*
X962635Y401983D01*
X962630Y402005D01*
X962616Y402098D01*
X962429Y402675D01*
X962261Y403370D01*
X962143Y404076D01*
X962073Y404792D01*
X962047Y405513D01*
X962063Y406235D01*
X962122Y406950D01*
X962233Y407653D01*
X962401Y408339D01*
X962633Y409000D01*
X962931Y409623D01*
X963307Y410199D01*
X963748Y410723D01*
X964261Y411182D01*
X964825Y411583D01*
X965435Y411913D01*
X966080Y412174D01*
X966753Y412365D01*
X967447Y412489D01*
X968154Y412554D01*
X968869Y412563D01*
X969587Y412523D01*
X970307Y412440D01*
X970710Y412374D01*
X971422Y412225D01*
X972120Y412043D01*
X972798Y411810D01*
X973461Y411535D01*
X974099Y411216D01*
X974709Y410846D01*
X975292Y410433D01*
X975839Y409976D01*
X976350Y409480D01*
X976820Y408946D01*
X977242Y408378D01*
X977608Y407774D01*
X977922Y407139D01*
X978180Y406479D01*
X978385Y405797D01*
X978534Y405100D01*
X978634Y404390D01*
X978689Y403671D01*
X978701Y402949D01*
X978672Y402229D01*
X978595Y401518D01*
X978465Y400819D01*
X978278Y400140D01*
X978024Y399492D01*
X977700Y398880D01*
X977305Y398317D01*
X976842Y397811D01*
X976315Y397364D01*
X975737Y396979D01*
X975122Y396662D01*
X974469Y396419D01*
X973790Y396241D01*
X973096Y396130D01*
X972387Y396085D01*
X971669Y396090D01*
G37*
%LPD*%
G36*
X974730Y361904D02*
X974730Y361904D01*
X974826Y361909D01*
X974827Y361909D01*
X974830Y361911D01*
X974978Y361978D01*
X975390Y362256D01*
X975432Y362299D01*
X975481Y362335D01*
X975501Y362369D01*
X975529Y362398D01*
X975551Y362454D01*
X975582Y362506D01*
X975590Y362552D01*
X975602Y362583D01*
X975601Y362619D01*
X975610Y362670D01*
X975610Y379988D01*
X975595Y380060D01*
X975588Y380133D01*
X975576Y380156D01*
X975570Y380183D01*
X975529Y380243D01*
X975494Y380308D01*
X975473Y380325D01*
X975458Y380347D01*
X975396Y380386D01*
X975339Y380432D01*
X975310Y380441D01*
X975290Y380454D01*
X975247Y380461D01*
X975180Y380482D01*
X966980Y381644D01*
X966884Y381638D01*
X966782Y381632D01*
X966781Y381632D01*
X966779Y381631D01*
X966630Y381563D01*
X966218Y381285D01*
X966176Y381242D01*
X966128Y381206D01*
X966107Y381171D01*
X966079Y381143D01*
X966057Y381087D01*
X966026Y381035D01*
X966018Y380989D01*
X966006Y380958D01*
X966007Y380921D01*
X965998Y380871D01*
X965998Y363553D01*
X966013Y363481D01*
X966020Y363409D01*
X966033Y363385D01*
X966038Y363358D01*
X966079Y363298D01*
X966114Y363234D01*
X966135Y363217D01*
X966151Y363194D01*
X966212Y363155D01*
X966269Y363109D01*
X966298Y363100D01*
X966318Y363087D01*
X966361Y363080D01*
X966428Y363059D01*
X974628Y361897D01*
X974730Y361904D01*
G37*
%LPC*%
G36*
X988684Y327405D02*
X988684Y327405D01*
X987978Y327499D01*
X987291Y327653D01*
X986632Y327877D01*
X986018Y328177D01*
X985452Y328568D01*
X984925Y329025D01*
X984458Y329538D01*
X984054Y330104D01*
X983714Y330720D01*
X983426Y331369D01*
X983196Y332043D01*
X983018Y332736D01*
X982891Y333449D01*
X982809Y334061D01*
X982780Y334147D01*
X982775Y334162D01*
X982786Y334282D01*
X982739Y334897D01*
X982720Y335631D01*
X982716Y342593D01*
X982772Y342586D01*
X993693Y341092D01*
X993775Y340894D01*
X993775Y335722D01*
X993730Y334230D01*
X993683Y333496D01*
X993531Y332030D01*
X993393Y331332D01*
X993199Y330648D01*
X992948Y329987D01*
X992637Y329366D01*
X992251Y328804D01*
X991790Y328308D01*
X991264Y327897D01*
X990686Y327595D01*
X990055Y327428D01*
X989382Y327370D01*
X988684Y327405D01*
G37*
%LPD*%
G36*
X999723Y515225D02*
X999723Y515225D01*
X999758Y515221D01*
X1000507Y515268D01*
X1000534Y515275D01*
X1000570Y515276D01*
X1001306Y515418D01*
X1001336Y515430D01*
X1001379Y515438D01*
X1002086Y515689D01*
X1002112Y515705D01*
X1002152Y515718D01*
X1002815Y516069D01*
X1002838Y516088D01*
X1002874Y516106D01*
X1003482Y516546D01*
X1003502Y516569D01*
X1003536Y516591D01*
X1004076Y517112D01*
X1004092Y517136D01*
X1004121Y517162D01*
X1004585Y517751D01*
X1004601Y517781D01*
X1004630Y517818D01*
X1004994Y518474D01*
X1005003Y518505D01*
X1005008Y518513D01*
X1005022Y518535D01*
X1005022Y518539D01*
X1005026Y518544D01*
X1005284Y519248D01*
X1005289Y519277D01*
X1005304Y519314D01*
X1005463Y520047D01*
X1005463Y520076D01*
X1005472Y520112D01*
X1005534Y520860D01*
X1005531Y520884D01*
X1005535Y520915D01*
X1005515Y521665D01*
X1005509Y521688D01*
X1005510Y521720D01*
X1005406Y522463D01*
X1005398Y522487D01*
X1005394Y522521D01*
X1005202Y523247D01*
X1005192Y523268D01*
X1005186Y523297D01*
X1004917Y523998D01*
X1004906Y524016D01*
X1004898Y524041D01*
X1004565Y524713D01*
X1004552Y524730D01*
X1004542Y524754D01*
X1004147Y525392D01*
X1004133Y525407D01*
X1004121Y525430D01*
X1003670Y526030D01*
X1003653Y526044D01*
X1003638Y526068D01*
X1003129Y526619D01*
X1003110Y526633D01*
X1003090Y526657D01*
X1002524Y527150D01*
X1002505Y527161D01*
X1002485Y527181D01*
X1001873Y527614D01*
X1001852Y527623D01*
X1001830Y527642D01*
X1001177Y528011D01*
X1001157Y528017D01*
X1001134Y528032D01*
X1000449Y528338D01*
X1000427Y528343D01*
X1000401Y528356D01*
X999688Y528590D01*
X999666Y528593D01*
X999640Y528603D01*
X998907Y528764D01*
X998879Y528765D01*
X998844Y528774D01*
X998482Y528806D01*
X998464Y528804D01*
X998442Y528808D01*
X997691Y528813D01*
X997665Y528808D01*
X997631Y528810D01*
X996885Y528724D01*
X996859Y528716D01*
X996824Y528713D01*
X996095Y528536D01*
X996071Y528524D01*
X996036Y528517D01*
X995335Y528251D01*
X995309Y528234D01*
X995269Y528220D01*
X994614Y527855D01*
X994588Y527833D01*
X994546Y527810D01*
X993960Y527343D01*
X993939Y527319D01*
X993905Y527293D01*
X993394Y526744D01*
X993378Y526718D01*
X993349Y526688D01*
X992922Y526071D01*
X992910Y526044D01*
X992888Y526013D01*
X992547Y525345D01*
X992539Y525316D01*
X992520Y525282D01*
X992275Y524573D01*
X992270Y524543D01*
X992256Y524505D01*
X992113Y523769D01*
X992113Y523741D01*
X992105Y523705D01*
X992057Y522956D01*
X992061Y522932D01*
X992057Y522899D01*
X992095Y522150D01*
X992101Y522126D01*
X992101Y522092D01*
X992226Y521353D01*
X992235Y521329D01*
X992239Y521296D01*
X992448Y520576D01*
X992459Y520555D01*
X992466Y520526D01*
X992751Y519831D01*
X992763Y519815D01*
X992770Y519790D01*
X993117Y519125D01*
X993130Y519109D01*
X993140Y519085D01*
X993547Y518455D01*
X993562Y518440D01*
X993574Y518417D01*
X994038Y517827D01*
X994055Y517812D01*
X994072Y517788D01*
X994593Y517249D01*
X994613Y517236D01*
X994632Y517213D01*
X995207Y516731D01*
X995227Y516720D01*
X995249Y516700D01*
X995872Y516281D01*
X995892Y516273D01*
X995915Y516255D01*
X996577Y515902D01*
X996602Y515895D01*
X996630Y515878D01*
X997329Y515604D01*
X997353Y515599D01*
X997382Y515586D01*
X998108Y515393D01*
X998132Y515392D01*
X998163Y515382D01*
X998905Y515272D01*
X998924Y515273D01*
X998947Y515267D01*
X999696Y515221D01*
X999723Y515225D01*
G37*
D10*
X893791Y734477D02*
X896527Y733846D01*
X897903Y733569D01*
X899977Y733203D01*
X901365Y732994D01*
X903454Y732736D01*
X904152Y732657D01*
X906249Y732470D01*
X909051Y732298D01*
X911857Y732212D01*
X913963Y732192D01*
X915366Y732201D01*
X917471Y732269D01*
X918872Y732351D01*
X920969Y732540D01*
X922364Y732699D01*
X923755Y732891D01*
X925139Y733124D01*
X926518Y733384D01*
X927888Y733689D01*
X929248Y734038D01*
X929923Y734229D01*
X931260Y734655D01*
X932579Y735136D01*
X933230Y735399D01*
X933874Y735678D01*
X935132Y736299D01*
X935747Y736637D01*
X936348Y737000D01*
X936935Y737384D01*
X937507Y737791D01*
X938058Y738226D01*
X938587Y738687D01*
X939091Y739174D01*
X939559Y739697D01*
X939983Y740257D01*
X940366Y740844D01*
X940706Y741458D01*
X941006Y742092D01*
X941270Y742743D01*
X941501Y743405D01*
X941698Y744079D01*
X942020Y745445D01*
X942258Y746828D01*
X942352Y747524D01*
X942860Y752411D01*
X943185Y755199D01*
X943271Y757303D01*
X943238Y758706D01*
X943195Y759406D01*
X943070Y760804D01*
X942850Y762191D01*
X942717Y762879D01*
X942405Y764248D01*
X942001Y765592D01*
X941774Y766256D01*
X941276Y767568D01*
X940697Y768847D01*
X940050Y770093D01*
X939709Y770706D01*
X938973Y771901D01*
X938570Y772476D01*
X937743Y773609D01*
X936863Y774703D01*
X935921Y775744D01*
X935431Y776246D01*
X934426Y777225D01*
X933371Y778151D01*
X932273Y779026D01*
X931713Y779449D01*
X930563Y780253D01*
X929375Y781001D01*
X928772Y781360D01*
X927546Y782044D01*
X926288Y782666D01*
X925651Y782961D01*
X924361Y783514D01*
X923047Y784007D01*
X922385Y784240D01*
X921047Y784665D01*
X919011Y785200D01*
X917638Y785492D01*
X915561Y785836D01*
X913467Y786055D01*
X912066Y786146D01*
X909961Y786172D01*
X908558Y786122D01*
X907857Y786078D01*
X906459Y785959D01*
X905764Y785862D01*
X905077Y785720D01*
X904398Y785541D01*
X903729Y785330D01*
X903070Y785088D01*
X902423Y784818D01*
X901784Y784528D01*
X901154Y784219D01*
X900535Y783887D01*
X899321Y783183D01*
X898725Y782812D01*
X897560Y782029D01*
X896416Y781216D01*
X895304Y780359D01*
X894207Y779484D01*
X892599Y778124D01*
X891029Y776722D01*
X888474Y774315D01*
X883497Y769367D01*
X930397Y776800D02*
X930680Y776155D01*
X930900Y775486D01*
X931068Y774802D01*
X931189Y774108D01*
X931269Y773408D01*
X931313Y772705D01*
X931321Y772001D01*
X931301Y771297D01*
X931252Y770594D01*
X931179Y769893D01*
X930956Y768503D01*
X930810Y767813D01*
X930444Y766453D01*
X930221Y765785D01*
X929968Y765127D01*
X929676Y764486D01*
X929030Y763235D01*
X928283Y762041D01*
X927434Y760918D01*
X926484Y759878D01*
X925971Y759395D01*
X925442Y758931D01*
X924889Y758494D01*
X924318Y758082D01*
X923730Y757694D01*
X922508Y756995D01*
X921231Y756400D01*
X919914Y755901D01*
X918564Y755496D01*
X917192Y755177D01*
X915803Y754939D01*
X914403Y754773D01*
X912998Y754679D01*
X912294Y754660D01*
X911589Y754643D01*
X910180Y754665D01*
X908774Y754741D01*
X906670Y754943D01*
X905273Y755130D01*
X904578Y755243D01*
X902500Y755629D01*
X901125Y755935D01*
X899758Y756278D01*
X897726Y756858D01*
X895715Y757508D01*
X894388Y757983D01*
X893075Y758492D01*
X891772Y759029D01*
X891128Y759314D01*
X889216Y760215D01*
X881506Y748840D02*
X881209Y748203D01*
X881506Y748840D02*
X881763Y749494D01*
X881994Y750158D01*
X882191Y750832D01*
X882365Y751513D01*
X882509Y752201D01*
X882738Y753588D01*
X882817Y754287D01*
X882923Y755688D01*
X882968Y757093D01*
X882955Y758499D01*
X882891Y759903D01*
X882779Y761304D01*
X882531Y763398D01*
X882317Y764788D01*
X882063Y766171D01*
X881773Y767546D01*
X881441Y768912D01*
X881257Y769591D01*
X881068Y770268D01*
X880653Y771611D01*
X879738Y774269D01*
X878764Y776907D01*
X877988Y778868D01*
X876888Y781455D01*
X876005Y783370D01*
X875392Y784636D01*
X874751Y785887D01*
X873736Y787735D01*
X872661Y789549D01*
X871911Y790738D01*
X871526Y791326D01*
X870724Y792481D01*
X869896Y793617D01*
X869036Y794728D01*
X868143Y795814D01*
X867687Y796349D01*
X866747Y797395D01*
X865275Y798904D01*
X864770Y799393D01*
X863734Y800344D01*
X863208Y800810D01*
X862128Y801711D01*
X861024Y802580D01*
X860457Y802996D01*
X859888Y803408D01*
X858726Y804200D01*
X857541Y804955D01*
X856939Y805318D01*
X856335Y805677D01*
X855109Y806366D01*
X853865Y807021D01*
X852602Y807639D01*
X851329Y808235D01*
X849396Y809077D01*
X847441Y809868D01*
X846787Y810125D01*
X832904Y815143D01*
X830294Y816189D01*
X828358Y817025D01*
X826451Y817923D01*
X824575Y818885D01*
X823345Y819566D01*
X822138Y820288D01*
X820953Y821044D01*
X819794Y821840D01*
X818664Y822676D01*
X818110Y823108D01*
X817022Y823998D01*
X815969Y824930D01*
X814953Y825902D01*
X814471Y826413D01*
X814020Y826952D01*
X813600Y827515D01*
X813213Y828101D01*
X812856Y828707D01*
X812529Y829329D01*
X812231Y829966D01*
X811957Y830612D01*
X811705Y831268D01*
X811260Y832602D01*
X811069Y833278D01*
X810728Y834642D01*
X810579Y835329D01*
X810321Y836711D01*
X810206Y837404D01*
X810011Y838797D01*
X809762Y840890D01*
X809693Y841590D01*
X808977Y850700D01*
X808833Y852098D01*
X808655Y853493D01*
X808543Y854187D01*
X807542Y859720D01*
X806394Y865225D01*
X804938Y871382D01*
X803302Y877493D01*
X803111Y878169D01*
X801274Y884223D01*
X800167Y887558D01*
X798998Y890873D01*
X797758Y894162D01*
X796718Y896774D01*
X795068Y900655D01*
X793904Y903215D01*
X792376Y906379D01*
X790763Y909502D01*
X789395Y911959D01*
X789050Y912571D01*
X787234Y915580D01*
X785707Y917941D01*
X784100Y920249D01*
X783696Y920823D01*
X781993Y923061D01*
X781555Y923610D01*
X779755Y925771D01*
X777859Y927847D01*
X777370Y928352D01*
X775368Y930325D01*
X773269Y932197D01*
X771067Y933944D01*
X770500Y934359D01*
X768766Y935559D01*
X768179Y935946D01*
X765765Y937386D01*
X763258Y938660D01*
X760665Y939747D01*
X758678Y940452D01*
X758006Y940658D01*
X756660Y941064D01*
X754617Y941587D01*
X752554Y942022D01*
X750475Y942373D01*
X748384Y942646D01*
X746985Y942786D01*
X744882Y942935D01*
X744179Y942966D01*
X742071Y943017D01*
X739963Y943002D01*
X738557Y942959D01*
X736452Y942836D01*
X734351Y942656D01*
X732256Y942420D01*
X730167Y942130D01*
X728086Y941788D01*
X725325Y941257D01*
X723950Y940964D01*
X721897Y940485D01*
X719854Y939959D01*
X717822Y939398D01*
X715131Y938582D01*
X713792Y938153D01*
X711796Y937474D01*
X707839Y936014D01*
X703936Y934416D01*
X700725Y932988D01*
X696923Y931162D01*
X694421Y929879D01*
X691951Y928537D01*
X690131Y927471D01*
X688932Y926737D01*
X687745Y925983D01*
X686007Y924789D01*
X684878Y923952D01*
X683774Y923082D01*
X682709Y922164D01*
X682190Y921690D01*
X681192Y920700D01*
X680716Y920183D01*
X680258Y919650D01*
X679819Y919101D01*
X679404Y918534D01*
X679016Y917948D01*
X678659Y917343D01*
X678338Y916717D01*
X678060Y916073D01*
X677811Y915415D01*
X677608Y914742D01*
X677423Y914065D01*
X677267Y913379D01*
X677012Y911997D01*
X676838Y910602D01*
X676716Y909201D01*
X676674Y908500D01*
X676599Y906393D01*
X676593Y904284D01*
X676597Y903581D01*
X677035Y891639D01*
X677086Y888828D01*
X677081Y887422D01*
X677047Y886017D01*
X676978Y884613D01*
X676853Y883212D01*
X676770Y882514D01*
X676558Y881125D01*
X676409Y880438D01*
X676243Y879755D01*
X676043Y879081D01*
X675805Y878420D01*
X675532Y877773D01*
X675218Y877145D01*
X674832Y876557D01*
X674392Y876010D01*
X673911Y875499D01*
X672892Y874530D01*
X671839Y873599D01*
X670761Y872697D01*
X669099Y871398D01*
X667966Y870567D01*
X666239Y869356D01*
X664481Y868192D01*
X660903Y865960D01*
X650598Y859910D01*
X648204Y858435D01*
X647028Y857664D01*
X646454Y857259D01*
X645325Y856421D01*
X644228Y855542D01*
X643158Y854630D01*
X641602Y853207D01*
X640594Y852227D01*
X639608Y851225D01*
X638642Y850204D01*
X636769Y848106D01*
X634500Y845423D01*
X631406Y841597D01*
X630547Y840484D01*
X630128Y839920D01*
X629321Y838769D01*
X628558Y837588D01*
X627485Y835773D01*
X626816Y834536D01*
X626189Y833278D01*
X625311Y831361D01*
X624771Y830063D01*
X624029Y828089D01*
X623571Y826760D01*
X623146Y825420D01*
X622561Y823394D01*
X622209Y822033D01*
X621730Y819979D01*
X621438Y818604D01*
X621051Y816531D01*
X620817Y815145D01*
X620326Y811665D01*
X619951Y808170D01*
X619670Y804667D01*
X619481Y801158D01*
X619292Y794834D01*
X619244Y789211D01*
X619140Y787809D01*
X618622Y783623D01*
X618498Y782223D01*
X618468Y781521D01*
X618462Y780818D01*
X618487Y780116D01*
X618549Y779416D01*
X618651Y778720D01*
X618792Y778032D01*
X619115Y776664D01*
X619499Y775312D01*
X619708Y774641D01*
X620170Y773313D01*
X620951Y771354D01*
X621527Y770072D01*
X622145Y768809D01*
X622794Y767562D01*
X623822Y765721D01*
X624535Y764509D01*
X630531Y754994D01*
X631957Y752571D01*
X632252Y751933D01*
X632492Y751273D01*
X632684Y750597D01*
X632837Y749911D01*
X633250Y747843D01*
X633412Y747159D01*
X633620Y746488D01*
X633881Y745835D01*
X634209Y745214D01*
X634593Y744626D01*
X635021Y744068D01*
X635495Y743550D01*
X636001Y743062D01*
X636535Y742605D01*
X637092Y742177D01*
X637664Y741768D01*
X640580Y739807D01*
X641145Y739389D01*
X644426Y736739D01*
X647778Y734178D01*
X651216Y731736D01*
X654735Y729411D01*
X658324Y727197D01*
X662594Y724751D01*
X666302Y722742D01*
X671306Y720177D01*
X768466Y928648D02*
X769110Y928367D01*
X768466Y928648D02*
X767802Y928880D01*
X767122Y929058D01*
X766431Y929189D01*
X765734Y929280D01*
X765033Y929334D01*
X764330Y929361D01*
X763627Y929352D01*
X762924Y929326D01*
X762223Y929275D01*
X760825Y929123D01*
X759433Y928922D01*
X753202Y927810D01*
X740681Y925947D01*
X739988Y925826D01*
X736529Y925192D01*
X733088Y924470D01*
X731033Y923992D01*
X728989Y923470D01*
X726957Y922900D01*
X724942Y922276D01*
X723608Y921830D01*
X721623Y921114D01*
X719664Y920331D01*
X718378Y919763D01*
X716473Y918856D01*
X715849Y918532D01*
X714609Y917868D01*
X712801Y916781D01*
X711628Y916005D01*
X709924Y914762D01*
X708838Y913868D01*
X708307Y913407D01*
X707275Y912452D01*
X706299Y911439D01*
X705821Y910923D01*
X704919Y909844D01*
X704493Y909285D01*
X703667Y908146D01*
X702918Y906956D01*
X702562Y906350D01*
X701905Y905106D01*
X701042Y903181D01*
X700550Y901864D01*
X700123Y900524D01*
X699938Y899845D01*
X699755Y899166D01*
X699447Y897794D01*
X699189Y896411D01*
X698985Y895020D01*
X698824Y893622D01*
X698703Y892221D01*
X698660Y891519D01*
X698572Y889411D01*
X698543Y886598D01*
X698790Y875349D01*
X698763Y872536D01*
X698709Y871131D01*
X698620Y869727D01*
X698563Y869026D01*
X698414Y867627D01*
X698219Y866234D01*
X697972Y864850D01*
X697665Y863477D01*
X697295Y862120D01*
X696861Y860783D01*
X696359Y859469D01*
X696059Y858833D01*
X695721Y858217D01*
X695348Y857621D01*
X694941Y857048D01*
X694504Y856496D01*
X694044Y855965D01*
X693562Y855452D01*
X693064Y854957D01*
X692548Y854478D01*
X691481Y853562D01*
X686491Y849669D01*
X685419Y848758D01*
X684902Y848282D01*
X684401Y847789D01*
X683918Y847277D01*
X683457Y846746D01*
X682161Y845081D01*
X680919Y843376D01*
X679726Y841636D01*
X678210Y839267D01*
X676773Y836848D01*
X675414Y834385D01*
X674130Y831883D01*
X673213Y829982D01*
X672053Y827420D01*
X670967Y824825D01*
X669954Y822201D01*
X669022Y819546D01*
X668179Y816863D01*
X667608Y814832D01*
X666923Y812103D01*
X666770Y811417D01*
X666355Y809349D01*
X666116Y807962D01*
X665916Y806570D01*
X665683Y804473D01*
X665528Y802369D01*
X665432Y800262D01*
X665408Y799559D01*
X665394Y796746D01*
X665432Y794637D01*
X665514Y792529D01*
X665684Y789721D01*
X665921Y786918D01*
X666220Y784120D01*
X666481Y782027D01*
X666983Y778547D01*
X667444Y775772D01*
X667957Y773006D01*
X668521Y770250D01*
X669142Y767506D01*
X669816Y764775D01*
X670356Y762736D01*
X671323Y759355D01*
X672168Y756672D01*
X673072Y754008D01*
X673791Y752024D01*
X674818Y749406D01*
X675920Y746818D01*
X676802Y744901D01*
X678058Y742384D01*
X679072Y740534D01*
X680517Y738121D01*
X681683Y736363D01*
X682936Y734665D01*
X684281Y733039D01*
X685723Y731499D01*
X686185Y730970D01*
X687053Y729863D01*
X690412Y725350D01*
X691288Y724249D01*
X692204Y723182D01*
X692681Y722665D01*
X693175Y722165D01*
X693688Y721683D01*
X694228Y721234D01*
X694798Y720822D01*
X695409Y720475D01*
X696065Y720226D01*
X696761Y720147D01*
X697448Y720287D01*
X698106Y720530D01*
X698723Y720866D01*
X699284Y721289D01*
X699783Y721783D01*
X700222Y722332D01*
X700605Y722921D01*
X700935Y723542D01*
X701220Y724184D01*
X701461Y724844D01*
X701663Y725518D01*
X701830Y726201D01*
X701964Y726891D01*
X702066Y727587D01*
X702140Y728286D01*
X702190Y728987D01*
X702210Y729690D01*
X702202Y730393D01*
X702167Y731096D01*
X702102Y731796D01*
X702007Y732492D01*
X701878Y733184D01*
X701707Y733866D01*
X701480Y734531D01*
X701186Y735169D01*
X700780Y735740D01*
X700209Y736138D01*
X699625Y735942D01*
X699435Y735267D01*
X699341Y734570D01*
X699263Y733166D01*
X699243Y731057D01*
X699361Y725432D01*
X699326Y724730D01*
X699201Y724038D01*
X699052Y723350D01*
X698877Y722669D01*
X698680Y721994D01*
X698455Y721328D01*
X698202Y720672D01*
X697913Y720031D01*
X697593Y719405D01*
X697238Y718798D01*
X696853Y718210D01*
X696434Y717645D01*
X695985Y717104D01*
X695507Y716588D01*
X695003Y716098D01*
X694478Y715630D01*
X693933Y715186D01*
X693370Y714764D01*
X692206Y713975D01*
X691607Y713607D01*
X691001Y713251D01*
X689772Y712567D01*
X687897Y711600D01*
X766292Y905150D02*
X765678Y905487D01*
X766292Y905150D02*
X766883Y904773D01*
X767454Y904367D01*
X768005Y903934D01*
X768536Y903477D01*
X769049Y903000D01*
X769543Y902503D01*
X770018Y901988D01*
X770472Y901455D01*
X770907Y900905D01*
X771324Y900342D01*
X771718Y899763D01*
X772091Y899169D01*
X772437Y898560D01*
X772759Y897937D01*
X773050Y897300D01*
X773310Y896649D01*
X773535Y895985D01*
X773718Y895309D01*
X773862Y894623D01*
X773955Y893929D01*
X773993Y893229D01*
X773973Y892529D01*
X773887Y891833D01*
X773733Y891150D01*
X773508Y890487D01*
X773214Y889851D01*
X772857Y889249D01*
X772440Y888686D01*
X771975Y888163D01*
X771462Y887686D01*
X770910Y887254D01*
X770338Y886849D01*
X769752Y886464D01*
X769153Y886101D01*
X767924Y885427D01*
X767294Y885122D01*
X766653Y884837D01*
X765347Y884329D01*
X764014Y883897D01*
X762658Y883545D01*
X761285Y883262D01*
X759901Y883042D01*
X758508Y882881D01*
X757112Y882768D01*
X755712Y882696D01*
X753610Y882631D01*
X750808Y882610D01*
X733078Y815120D02*
X734034Y814088D01*
X734498Y813560D01*
X735371Y812457D01*
X736155Y811290D01*
X736521Y810690D01*
X737184Y809450D01*
X737737Y808157D01*
X738168Y806818D01*
X738464Y805443D01*
X738611Y804044D01*
X738605Y802639D01*
X738540Y801938D01*
X738439Y801243D01*
X738304Y800553D01*
X737899Y799207D01*
X737624Y798560D01*
X737325Y797924D01*
X736987Y797307D01*
X736605Y796717D01*
X736203Y796141D01*
X735744Y795608D01*
X735265Y795094D01*
X734755Y794610D01*
X734211Y794165D01*
X733651Y793741D01*
X733053Y793370D01*
X732438Y793029D01*
X731806Y792723D01*
X731149Y792471D01*
X730485Y792241D01*
X729802Y792073D01*
X729113Y791937D01*
X728417Y791841D01*
X727012Y791780D01*
X725611Y791892D01*
X724232Y792166D01*
X723557Y792364D01*
X722889Y792582D01*
X721593Y793127D01*
X720350Y793785D01*
X719169Y794548D01*
X718056Y795408D01*
X717522Y795864D01*
X716489Y796819D01*
X814862Y812259D02*
X817470Y811246D01*
X818068Y810886D01*
X818577Y810408D01*
X826253Y802262D01*
X828598Y799667D01*
X829016Y799108D01*
X829286Y798467D01*
X829263Y797783D01*
X828884Y797207D01*
X828313Y796807D01*
X827680Y796511D01*
X827016Y796291D01*
X826337Y796123D01*
X825652Y795984D01*
X824961Y795871D01*
X824267Y795783D01*
X823571Y795710D01*
X822177Y795599D01*
X820080Y795513D01*
X818681Y795487D01*
X815184Y795520D01*
X810290Y795674D01*
X794845Y749347D02*
X795418Y748939D01*
X795970Y748503D01*
X796502Y748043D01*
X797016Y747563D01*
X797997Y746555D01*
X798927Y745500D01*
X799815Y744409D01*
X801082Y742722D01*
X801891Y741571D01*
X803434Y739219D01*
X804546Y737425D01*
X806326Y734393D01*
X806631Y733759D01*
X806801Y733078D01*
X806789Y732379D01*
X806566Y731718D01*
X806166Y731144D01*
X805647Y730672D01*
X805058Y730289D01*
X804431Y729971D01*
X803781Y729705D01*
X803116Y729477D01*
X802441Y729278D01*
X801759Y729107D01*
X801071Y728962D01*
X799687Y728712D01*
X797594Y728446D01*
X796192Y728322D01*
X794087Y728187D01*
X791978Y728112D01*
X787758Y728088D01*
X782836Y728185D01*
X845750Y811689D02*
X846221Y811985D01*
X846398Y811311D01*
X846465Y810614D01*
X846506Y809213D01*
X846485Y807111D01*
X846330Y802910D01*
X846343Y802210D01*
X846600Y798014D01*
X846639Y796613D01*
X846639Y795912D01*
X846621Y795212D01*
X846534Y793814D01*
X846365Y792423D01*
X846250Y791731D01*
X846114Y791044D01*
X845785Y789682D01*
X845594Y789008D01*
X845177Y787670D01*
X828592Y724753D02*
X828540Y724057D01*
X828418Y723370D01*
X828244Y722695D01*
X828030Y722030D01*
X827789Y721375D01*
X827523Y720730D01*
X826930Y719466D01*
X826280Y718230D01*
X825216Y716427D01*
X824460Y715253D01*
X823675Y714099D01*
X822439Y712408D01*
X821582Y711306D01*
X820245Y709694D01*
X818840Y708141D01*
X817866Y707141D01*
X816856Y706177D01*
X815802Y705262D01*
X815256Y704827D01*
X814695Y704411D01*
X814117Y704020D01*
X813519Y703661D01*
X812897Y703344D01*
X812246Y703095D01*
X811572Y702916D01*
X810887Y702780D01*
X809506Y702578D01*
X808811Y702510D01*
X807418Y702423D01*
X806022Y702394D01*
X801136Y702449D01*
X894938Y728185D02*
X895598Y728427D01*
X896296Y728461D01*
X896948Y728216D01*
X897438Y727717D01*
X897786Y727106D01*
X898036Y726448D01*
X898221Y725769D01*
X898359Y725077D01*
X898457Y724379D01*
X898526Y723678D01*
X898615Y722271D01*
X898629Y720156D01*
X898583Y718746D01*
X898462Y716635D01*
X898223Y713825D01*
X897656Y708922D01*
X896174Y698451D01*
X896071Y697754D01*
X895701Y695671D01*
X895427Y694288D01*
X894973Y692222D01*
X894459Y690170D01*
X894081Y688812D01*
X893471Y686787D01*
X893252Y686117D01*
X892800Y684781D01*
X892061Y682799D01*
X891534Y681491D01*
X890691Y679552D01*
X889775Y677645D01*
X889131Y676391D01*
X888450Y675156D01*
X888103Y674543D01*
X887377Y673334D01*
X886239Y671551D01*
X885435Y670393D01*
X884183Y668688D01*
X882855Y667042D01*
X881937Y665972D01*
X881463Y665450D01*
X880504Y664416D01*
X879513Y663413D01*
X877981Y661955D01*
X876388Y660563D01*
X875295Y659673D01*
X873618Y658384D01*
X871888Y657168D01*
X870114Y656016D01*
X868908Y655285D01*
X867069Y654240D01*
X865193Y653263D01*
X865325Y652666D02*
X864624Y652689D01*
X865325Y652666D02*
X866024Y652599D01*
X866716Y652484D01*
X867400Y652325D01*
X868073Y652126D01*
X868734Y651893D01*
X869385Y651630D01*
X870028Y651348D01*
X873813Y649501D01*
X876999Y648030D01*
X878881Y647087D01*
X880124Y646433D01*
X881348Y645746D01*
X883148Y644655D01*
X884895Y643479D01*
X886022Y642643D01*
X886573Y642208D01*
X887648Y641305D01*
X888681Y640355D01*
X889671Y639360D01*
X890613Y638319D01*
X891066Y637783D01*
X891930Y636678D01*
X892344Y636111D01*
X893131Y634949D01*
X893504Y634354D01*
X894216Y633144D01*
X895194Y631280D01*
X895789Y630009D01*
X896339Y628717D01*
X896857Y627413D01*
X897341Y626095D01*
X898011Y624099D01*
X898625Y622085D01*
X899190Y620056D01*
X899533Y618695D01*
X899847Y617327D01*
X900111Y615949D01*
X900321Y614561D01*
X900402Y613864D01*
X900499Y612463D01*
X900513Y611762D01*
X900499Y611060D01*
X900458Y610360D01*
X900385Y609662D01*
X900277Y608968D01*
X900133Y608282D01*
X899953Y607603D01*
X899727Y606939D01*
X899459Y606290D01*
X899153Y605659D01*
X898802Y605051D01*
X898410Y604469D01*
X897984Y603912D01*
X897524Y603383D01*
X897032Y602882D01*
X896515Y602408D01*
X895970Y601966D01*
X895402Y601554D01*
X894817Y601167D01*
X894217Y600803D01*
X893602Y600464D01*
X892974Y600151D01*
X892339Y599853D01*
X891693Y599578D01*
X889713Y598864D01*
X889048Y598640D01*
X887011Y598107D01*
X884936Y597747D01*
X884239Y597673D01*
X882840Y597563D01*
X882138Y597548D01*
X880735Y597562D01*
X880035Y597613D01*
X878638Y597753D01*
X877946Y597868D01*
X876566Y598123D01*
X874531Y598663D01*
X872543Y599356D01*
X870604Y600177D01*
X868716Y601108D01*
X867484Y601780D01*
X866875Y602128D01*
X865075Y603221D01*
X863311Y604372D01*
X861581Y605572D01*
X851959Y612628D01*
X849660Y614240D01*
X847901Y615396D01*
X846707Y616134D01*
X846106Y616497D01*
X844269Y617525D01*
X842384Y618463D01*
X841101Y619032D01*
X840451Y619298D01*
X839136Y619787D01*
X838468Y620004D01*
X837121Y620399D01*
X835066Y620856D01*
X834372Y620954D01*
X832979Y621133D01*
X830876Y621229D01*
X860622Y630955D02*
X860734Y630866D01*
X863794Y629130D01*
X865608Y628050D01*
X866205Y627677D01*
X867390Y626916D01*
X867972Y626522D01*
X869117Y625703D01*
X869669Y625267D01*
X870198Y624803D01*
X870686Y624297D01*
X871141Y623760D01*
X871562Y623196D01*
X871957Y622614D01*
X872327Y622015D01*
X872673Y621403D01*
X873305Y620145D01*
X873854Y618849D01*
X874344Y617530D01*
X874772Y616189D01*
X875315Y614149D01*
X875604Y612772D01*
X875851Y611386D01*
X876040Y609992D01*
X876179Y608591D01*
X876253Y607186D01*
X876269Y605778D01*
X876206Y604372D01*
X876145Y603671D01*
X876061Y602973D01*
X875954Y602277D01*
X875820Y601586D01*
X875653Y600903D01*
X875453Y600228D01*
X875205Y599569D01*
X874919Y598926D01*
X639279Y738480D02*
X639525Y739131D01*
X639026Y738698D01*
X638585Y738153D01*
X637330Y736461D01*
X636128Y734732D01*
X634968Y732975D01*
X634596Y732380D01*
X633885Y731170D01*
X633585Y730536D01*
X633373Y729867D01*
X633187Y729190D01*
X633030Y728506D01*
X632782Y727124D01*
X632685Y726429D01*
X632547Y725032D01*
X632498Y724332D01*
X632440Y722929D01*
X632429Y706083D01*
X632440Y705381D01*
X632583Y699768D01*
X632724Y696964D01*
X632925Y694163D01*
X633197Y691369D01*
X633547Y688583D01*
X633983Y685809D01*
X634234Y684428D01*
X634509Y683051D01*
X634968Y680996D01*
X635305Y679634D01*
X635670Y678278D01*
X636062Y676930D01*
X636477Y675589D01*
X637153Y673595D01*
X637637Y672277D01*
X638143Y670967D01*
X639230Y668379D01*
X640401Y665827D01*
X641652Y663313D01*
X641979Y662692D01*
X642980Y660839D01*
X644381Y658406D01*
X646221Y655418D01*
X647769Y653076D01*
X649374Y650772D01*
X651037Y648509D01*
X652755Y646289D01*
X654971Y643567D01*
X656332Y641961D01*
X658184Y639850D01*
X660554Y637262D01*
X664460Y633228D01*
X664960Y632734D01*
X665986Y631777D01*
X667044Y630854D01*
X668137Y629973D01*
X668700Y629554D01*
X669850Y628749D01*
X671033Y627993D01*
X672249Y627292D01*
X673494Y626645D01*
X674127Y626340D01*
X675409Y625768D01*
X680622Y623683D01*
X681279Y623436D01*
X681949Y623226D01*
X681977Y622869D01*
X681282Y622802D01*
X679887Y622946D01*
X632881Y737834D02*
X634130Y738480D01*
X632881Y737834D02*
X631031Y736821D01*
X629208Y735761D01*
X619040Y729480D01*
X617220Y728413D01*
X615374Y727394D01*
X614129Y726739D01*
X612868Y726117D01*
X610952Y725237D01*
X609650Y724704D01*
X608334Y724211D01*
X607671Y723977D01*
X606328Y723561D01*
X605651Y723368D01*
X604287Y723030D01*
X602908Y722754D01*
X602215Y722635D01*
X601519Y722538D01*
X600822Y722450D01*
X599422Y722310D01*
X597322Y722126D01*
X593110Y721884D01*
X588893Y721795D01*
X585377Y721821D01*
X581162Y721965D01*
X577652Y722165D01*
X569946Y722820D01*
X539227Y726466D01*
X535725Y726769D01*
X521689Y727606D01*
X518184Y727882D01*
X517485Y727953D01*
X514688Y728250D01*
X512598Y728535D01*
X511209Y728748D01*
X509136Y729137D01*
X508447Y729278D01*
X507077Y729593D01*
X505714Y729940D01*
X505037Y730132D01*
X504361Y730324D01*
X503021Y730747D01*
X501034Y731454D01*
X499730Y731980D01*
X499085Y732259D01*
X497814Y732861D01*
X497188Y733182D01*
X495960Y733867D01*
X494773Y734620D01*
X494195Y735020D01*
X493632Y735442D01*
X493084Y735881D01*
X492551Y736340D01*
X492040Y736822D01*
X491548Y737325D01*
X491079Y737848D01*
X490639Y738396D01*
X490226Y738965D01*
X489465Y740147D01*
X487668Y743169D01*
X486915Y744356D01*
X486523Y744939D01*
X486112Y745510D01*
X485681Y746065D01*
X485225Y746600D01*
X484743Y747111D01*
X484230Y747593D01*
X483686Y748037D01*
X483107Y748434D01*
X482494Y748778D01*
X481849Y749058D01*
X481179Y749269D01*
X477742Y750007D01*
X476363Y750280D01*
X474977Y750517D01*
X473585Y750712D01*
X472187Y750862D01*
X470783Y750935D01*
X470080Y750934D01*
X469377Y750907D01*
X468678Y750840D01*
X467984Y750730D01*
X467303Y750554D01*
X466646Y750307D01*
X466040Y749952D01*
X465521Y749482D01*
X465115Y748909D01*
X464727Y748322D01*
X464373Y747717D01*
X463735Y746464D01*
X463203Y745162D01*
X462773Y743824D01*
X462579Y743149D01*
X462253Y741781D01*
X461881Y739705D01*
X461649Y737609D01*
X461558Y736206D01*
X461521Y735504D01*
X461484Y733395D01*
X461533Y731287D01*
X461656Y729181D01*
X461852Y727081D01*
X462107Y724987D01*
X462533Y722208D01*
X462919Y720134D01*
X463516Y717386D01*
X464014Y715336D01*
X464567Y713301D01*
X465377Y710608D01*
X466038Y708605D01*
X466753Y706621D01*
X467781Y704003D01*
X468615Y702067D01*
X469502Y700153D01*
X470454Y698270D01*
X471473Y696424D01*
X472571Y694623D01*
X473351Y693453D01*
X473754Y692878D01*
X474590Y691747D01*
X475486Y690663D01*
X475950Y690136D01*
X476921Y689119D01*
X477960Y688172D01*
X478511Y687735D01*
X479081Y687323D01*
X479669Y686938D01*
X480275Y686582D01*
X480897Y686254D01*
X481532Y685953D01*
X482179Y685678D01*
X482838Y685433D01*
X484180Y685014D01*
X485547Y684683D01*
X486236Y684547D01*
X487624Y684325D01*
X489021Y684164D01*
X489721Y684097D01*
X491123Y683996D01*
X497444Y683694D01*
X498846Y683595D01*
X501644Y683305D01*
X504430Y682926D01*
X520357Y680131D01*
X521040Y679964D01*
X521700Y679724D01*
X522334Y679422D01*
X522942Y679070D01*
X523525Y678677D01*
X524086Y678254D01*
X524624Y677802D01*
X525144Y677328D01*
X525641Y676831D01*
X526591Y675795D01*
X527487Y674712D01*
X527914Y674153D01*
X528735Y673012D01*
X529517Y671843D01*
X530261Y670650D01*
X530969Y669435D01*
X531642Y668201D01*
X532284Y666950D01*
X533185Y665043D01*
X533744Y663753D01*
X534257Y662444D01*
X534724Y661117D01*
X535126Y659770D01*
X535289Y659087D01*
X535414Y658395D01*
X535507Y657698D01*
X535566Y656998D01*
X535593Y656295D01*
X535585Y655592D01*
X535536Y654891D01*
X535432Y654196D01*
X535273Y653511D01*
X535033Y652851D01*
X534699Y652234D01*
X534252Y651694D01*
X533680Y651288D01*
X533022Y651048D01*
X532324Y650972D01*
X569924Y671007D02*
X571217Y671561D01*
X569924Y671007D02*
X569285Y670713D01*
X568653Y670405D01*
X567410Y669748D01*
X566192Y669045D01*
X565593Y668677D01*
X564416Y667908D01*
X563837Y667509D01*
X562690Y666695D01*
X562130Y666269D01*
X561016Y665411D01*
X559920Y664531D01*
X551882Y657702D01*
X550231Y656389D01*
X549111Y655539D01*
X546814Y653914D01*
X545646Y653132D01*
X544465Y652368D01*
X543270Y651627D01*
X540845Y650203D01*
X538375Y648857D01*
X535861Y647595D01*
X532669Y646123D01*
X530081Y645023D01*
X528120Y644245D01*
X525485Y643260D01*
X520161Y641446D01*
X519491Y641234D01*
X506005Y637244D01*
X505325Y637066D01*
X503947Y636786D01*
X503253Y636676D01*
X501857Y636504D01*
X500455Y636401D01*
X499050Y636343D01*
X496941Y636345D01*
X495535Y636394D01*
X493430Y636534D01*
X492730Y636595D01*
X490634Y636830D01*
X488546Y637131D01*
X486470Y637501D01*
X485092Y637786D01*
X483721Y638099D01*
X483040Y638273D01*
X481009Y638842D01*
X480339Y639056D01*
X479011Y639517D01*
X477701Y640028D01*
X476420Y640608D01*
X471409Y643164D01*
X468238Y644683D01*
X466953Y645253D01*
X465652Y645788D01*
X464341Y646297D01*
X463679Y646534D01*
X462342Y646969D01*
X461667Y647165D01*
X460305Y647513D01*
X459616Y647658D01*
X458228Y647879D01*
X457528Y647949D01*
X456826Y647985D01*
X456123Y647985D01*
X455421Y647947D01*
X454723Y647860D01*
X454034Y647723D01*
X453359Y647527D01*
X452704Y647270D01*
X452072Y646963D01*
X451469Y646603D01*
X450892Y646201D01*
X450341Y645764D01*
X449825Y645287D01*
X449334Y644783D01*
X448872Y644253D01*
X448442Y643698D01*
X448041Y643120D01*
X447666Y642525D01*
X447325Y641911D01*
X447013Y641281D01*
X446733Y640636D01*
X446483Y639979D01*
X446267Y639310D01*
X446086Y638630D01*
X445940Y637943D01*
X445833Y637248D01*
X445768Y636548D01*
X445744Y635845D01*
X445774Y635143D01*
X445848Y634444D01*
X445976Y633753D01*
X446163Y633075D01*
X446404Y632415D01*
X446688Y631772D01*
X447012Y631148D01*
X447364Y630539D01*
X447734Y629942D01*
X449670Y627007D01*
X450035Y626406D01*
X450375Y625791D01*
X450685Y625160D01*
X450956Y624511D01*
X453878Y615850D01*
X454608Y613871D01*
X455646Y611257D01*
X456204Y609966D01*
X457094Y608054D01*
X457731Y606800D01*
X458059Y606178D01*
X458752Y604954D01*
X459111Y604350D01*
X459868Y603165D01*
X460263Y602583D01*
X461089Y601445D01*
X461969Y600348D01*
X462424Y599812D01*
X462899Y599294D01*
X463881Y598288D01*
X464923Y597344D01*
X465464Y596894D01*
X466585Y596046D01*
X467167Y595652D01*
X468363Y594912D01*
X469606Y594256D01*
X471512Y593350D01*
X473444Y592504D01*
X475404Y591725D01*
X477385Y591000D01*
X479387Y590338D01*
X482084Y589540D01*
X484806Y588830D01*
X487548Y588203D01*
X490306Y587652D01*
X492382Y587279D01*
X497940Y586414D01*
X512582Y584499D01*
X513970Y584276D01*
X515351Y584010D01*
X517409Y583549D01*
X518774Y583208D01*
X521479Y582438D01*
X523488Y581797D01*
X526145Y580873D01*
X528772Y579869D01*
X530724Y579068D01*
X533304Y577950D01*
X535859Y576774D01*
X538385Y575537D01*
X542753Y573268D01*
X547045Y570858D01*
X550063Y569056D01*
X551258Y568314D01*
X552441Y567554D01*
X554773Y565982D01*
X556480Y564743D01*
X557597Y563888D01*
X558695Y563010D01*
X559764Y562096D01*
X560807Y561153D01*
X561816Y560173D01*
X562309Y559672D01*
X563256Y558632D01*
X564155Y557552D01*
X564580Y556991D01*
X565383Y555837D01*
X565756Y555241D01*
X566100Y554628D01*
X566422Y554003D01*
X566719Y553366D01*
X566989Y552717D01*
X567219Y552053D01*
X567413Y551377D01*
X567568Y550692D01*
X567683Y549998D01*
X567757Y549299D01*
X567783Y548597D01*
X507160Y727614D02*
X506483Y727444D01*
X505907Y727043D01*
X505435Y726522D01*
X505035Y725942D01*
X504686Y725330D01*
X504373Y724699D01*
X504090Y724054D01*
X503589Y722737D01*
X502950Y720723D01*
X501816Y716650D01*
X501474Y715284D01*
X501181Y713905D01*
X500935Y712518D01*
X500616Y710429D01*
X500352Y708332D01*
X500145Y706228D01*
X499930Y703418D01*
X499800Y700603D01*
X499749Y697786D01*
X499761Y695672D01*
X499861Y692856D01*
X500015Y690748D01*
X500158Y689346D01*
X500345Y687950D01*
X500578Y686560D01*
X500867Y685181D01*
X501244Y683824D01*
X501467Y683156D01*
X501721Y682499D01*
X502011Y681857D01*
X487713Y636102D02*
X486974Y634902D01*
X486315Y633658D01*
X486026Y633016D01*
X485744Y632371D01*
X485255Y631050D01*
X484846Y629702D01*
X484509Y628335D01*
X484368Y627645D01*
X484134Y626256D01*
X483963Y624858D01*
X483900Y624157D01*
X483847Y623455D01*
X483782Y622048D01*
X483764Y620639D01*
X483785Y619231D01*
X483844Y617824D01*
X483993Y615716D01*
X484271Y612913D01*
X486154Y598954D01*
X486360Y596852D01*
X486471Y595448D01*
X486542Y594041D01*
X486570Y592633D01*
X532323Y573761D02*
X533026Y573739D01*
X533140Y573486D01*
X529757Y572532D01*
X528422Y572091D01*
X527775Y571817D01*
X527167Y571465D01*
X526625Y571018D01*
X526109Y570540D01*
X525618Y570037D01*
X525151Y569511D01*
X524699Y568973D01*
X524267Y568418D01*
X523446Y567277D01*
X522680Y566098D01*
X521966Y564886D01*
X521626Y564271D01*
X520985Y563020D01*
X520684Y562384D01*
X520133Y561091D01*
X519885Y560433D01*
X519658Y559767D01*
X519460Y559093D01*
X519291Y558411D01*
X519168Y557718D01*
X518328Y551447D01*
X517607Y545160D01*
X517059Y539562D01*
X516611Y533955D01*
X516215Y527639D01*
X515945Y521317D01*
X515742Y509366D01*
X515826Y500929D01*
X516130Y491794D01*
X516605Y483370D01*
X517270Y474959D01*
X518136Y466567D01*
X519214Y458199D01*
X520511Y449862D01*
X522813Y437417D01*
X523611Y432560D01*
X527180Y404664D01*
X528615Y394925D01*
X529486Y390081D01*
X530331Y385948D01*
X530490Y385263D01*
X531468Y381160D01*
X532196Y378443D01*
X532784Y376417D01*
X533198Y375074D01*
X534073Y372401D01*
X535026Y369755D01*
X535788Y367788D01*
X536098Y367158D01*
X536475Y366565D01*
X536904Y366008D01*
X537370Y365482D01*
X537867Y364984D01*
X540454Y362605D01*
X540952Y362108D01*
X541426Y361589D01*
X541870Y361044D01*
X542271Y360467D01*
X542617Y359855D01*
X572932Y398173D02*
X573579Y398445D01*
X574265Y398576D01*
X574852Y398267D01*
X574982Y397589D01*
X574896Y396893D01*
X574718Y396214D01*
X574494Y395549D01*
X574240Y394894D01*
X573965Y394247D01*
X573373Y392973D01*
X572408Y391100D01*
X571731Y389870D01*
X570672Y388048D01*
X569204Y385652D01*
X568444Y384471D01*
X567653Y383310D01*
X567230Y382749D01*
X566311Y381688D01*
X565864Y381146D01*
X565006Y380033D01*
X564587Y379470D01*
X563370Y377749D01*
X557184Y368367D01*
X556785Y367789D01*
X555558Y366076D01*
X555136Y365514D01*
X554271Y364408D01*
X553376Y363325D01*
X552443Y362275D01*
X551472Y361259D01*
X550457Y360289D01*
X549927Y359828D01*
X548834Y358946D01*
X548265Y358535D01*
X547091Y357763D01*
X546480Y357417D01*
X545225Y356788D01*
X544575Y356521D01*
X543254Y356046D01*
X542582Y355840D01*
X541228Y355466D01*
X539856Y355167D01*
X539165Y355038D01*
X537776Y354829D01*
X536380Y354673D01*
X535681Y354611D01*
X534278Y354536D01*
X533576Y354510D01*
X532171Y354499D01*
X530065Y354549D01*
X527961Y354670D01*
X525862Y354851D01*
X523767Y355082D01*
X510543Y356874D01*
X509146Y357020D01*
X507745Y357116D01*
X506341Y357177D01*
X503532Y357235D01*
X501426Y357312D01*
X500026Y357424D01*
X498634Y357615D01*
X497943Y357737D01*
X497257Y357887D01*
X496576Y358061D01*
X487176Y360946D01*
X483797Y361903D01*
X482435Y362247D01*
X480377Y362702D01*
X478303Y363069D01*
X476911Y363260D01*
X475513Y363397D01*
X474813Y363446D01*
X473409Y363498D01*
X472706Y363500D01*
X471302Y363454D01*
X469903Y363338D01*
X469206Y363250D01*
X468525Y363082D01*
X467873Y362824D01*
X467259Y362483D01*
X466686Y362078D01*
X466150Y361623D01*
X465648Y361133D01*
X465180Y360609D01*
X464738Y360063D01*
X464321Y359498D01*
X463924Y358919D01*
X463542Y358330D01*
X463178Y357729D01*
X460768Y353443D01*
X460439Y352823D01*
X460151Y352183D01*
X459890Y351531D01*
X459685Y350859D01*
X459507Y350181D01*
X459360Y349494D01*
X459250Y348800D01*
X459153Y348105D01*
X459065Y346703D01*
X459059Y345299D01*
X459087Y344597D01*
X459196Y343197D01*
X459368Y341803D01*
X459597Y340417D01*
X459877Y339040D01*
X460034Y338356D01*
X460379Y336994D01*
X460974Y334973D01*
X461186Y334303D01*
X461645Y332976D01*
X462138Y331660D01*
X462937Y329710D01*
X463798Y327788D01*
X464731Y325898D01*
X465388Y324656D01*
X466072Y323430D01*
X466431Y322826D01*
X466790Y322222D01*
X467543Y321036D01*
X468330Y319873D01*
X469154Y318735D01*
X469582Y318178D01*
X470469Y317089D01*
X470934Y316563D01*
X471408Y316045D01*
X472411Y315062D01*
X472932Y314590D01*
X476662Y311387D01*
X479369Y309150D01*
X480472Y308280D01*
X481589Y307428D01*
X483300Y306197D01*
X484462Y305409D01*
X485648Y304656D01*
X486866Y303957D01*
X488114Y303311D01*
X488753Y303020D01*
X489402Y302753D01*
X490063Y302513D01*
X490734Y302306D01*
X491417Y302145D01*
X492109Y302026D01*
X496277Y301400D01*
X501156Y300796D01*
X506049Y300314D01*
X515857Y299599D01*
X534792Y298545D01*
X543897Y297861D01*
X548789Y297371D01*
X553669Y296767D01*
X558528Y296013D01*
X560601Y295637D01*
X562669Y295233D01*
X565416Y294644D01*
X566099Y294481D01*
X568147Y293985D01*
X568823Y293793D01*
X570154Y293345D01*
X571460Y292828D01*
X572745Y292261D01*
X574011Y291653D01*
X580860Y288077D01*
X582121Y287458D01*
X583406Y286890D01*
X586005Y285824D01*
X596517Y281850D01*
X597813Y281306D01*
X599098Y280740D01*
X601000Y279832D01*
X602863Y278850D01*
X604076Y278141D01*
X609464Y274835D01*
X610696Y274161D01*
X611322Y273841D01*
X611954Y273535D01*
X612597Y273253D01*
X613247Y272987D01*
X613908Y272748D01*
X614576Y272534D01*
X615253Y272345D01*
X616620Y272021D01*
X617305Y271865D01*
X619369Y271443D01*
X620750Y271184D01*
X622830Y270848D01*
X624220Y270647D01*
X626311Y270384D01*
X629806Y270035D01*
X634010Y269747D01*
X637519Y269596D01*
X664204Y269047D01*
X667716Y269059D01*
X669822Y269102D01*
X671927Y269192D01*
X674030Y269325D01*
X676129Y269514D01*
X679618Y269914D01*
X692848Y271670D01*
X693546Y271742D01*
X696342Y272021D01*
X698443Y272177D01*
X699845Y272260D01*
X701952Y272329D01*
X704760Y272382D01*
X706162Y272474D01*
X707559Y272626D01*
X709643Y272934D01*
X711024Y273193D01*
X713086Y273626D01*
X721940Y275858D01*
X723282Y276273D01*
X724613Y276722D01*
X725933Y277201D01*
X727243Y277709D01*
X727888Y277987D01*
X728515Y278303D01*
X728499Y278635D01*
X498008Y360424D02*
X497547Y359896D01*
X497121Y359342D01*
X496723Y358765D01*
X496063Y357530D01*
X495774Y356892D01*
X495270Y355585D01*
X494848Y354250D01*
X494496Y352893D01*
X494197Y351525D01*
X494066Y350837D01*
X493835Y349455D01*
X493643Y348067D01*
X493565Y347371D01*
X493419Y345977D01*
X493301Y344581D01*
X493214Y343183D01*
X493118Y341084D01*
X493066Y337581D01*
X493121Y334079D01*
X493306Y329880D01*
X493558Y326387D01*
X493897Y322900D01*
X494329Y319424D01*
X494642Y317346D01*
X494747Y316654D01*
X495255Y313898D01*
X495711Y311847D01*
X495895Y311171D01*
X496108Y310504D01*
X496590Y309188D01*
X498452Y304652D01*
X498937Y303337D01*
X499146Y302669D01*
X499335Y301995D01*
X499494Y301312D01*
X499615Y300623D01*
X499696Y299927D01*
X499723Y299227D01*
X523372Y443333D02*
X523744Y443928D01*
X523372Y443333D02*
X522919Y442796D01*
X522400Y442322D01*
X521833Y441907D01*
X521236Y441537D01*
X520614Y441209D01*
X519975Y440916D01*
X519323Y440653D01*
X518662Y440412D01*
X517992Y440200D01*
X517317Y440004D01*
X515953Y439660D01*
X515266Y439507D01*
X513884Y439246D01*
X512496Y439022D01*
X511103Y438828D01*
X508307Y438520D01*
X504104Y438151D01*
X502699Y438091D01*
X501996Y438090D01*
X500591Y438149D01*
X499891Y438209D01*
X499192Y438293D01*
X498498Y438407D01*
X497809Y438545D01*
X497124Y438706D01*
X496448Y438899D01*
X495780Y439116D01*
X495121Y439363D01*
X494473Y439636D01*
X493837Y439935D01*
X493214Y440260D01*
X492606Y440614D01*
X492014Y440994D01*
X491439Y441397D01*
X490880Y441825D01*
X490340Y442275D01*
X489819Y442746D01*
X489314Y443236D01*
X488828Y443744D01*
X488361Y444269D01*
X487475Y445362D01*
X487061Y445930D01*
X486665Y446511D01*
X485918Y447702D01*
X485225Y448926D01*
X484905Y449552D01*
X483414Y452736D01*
X483090Y453360D01*
X482726Y453962D01*
X482327Y454541D01*
X481884Y455086D01*
X481399Y455595D01*
X480873Y456062D01*
X480313Y456486D01*
X479136Y457256D01*
X477910Y457945D01*
X477283Y458263D01*
X476637Y458541D01*
X475983Y458799D01*
X475319Y459031D01*
X474642Y459219D01*
X473958Y459379D01*
X473266Y459506D01*
X472568Y459589D01*
X471866Y459624D01*
X471163Y459619D01*
X470462Y459572D01*
X469765Y459482D01*
X469076Y459340D01*
X468400Y459149D01*
X467737Y458914D01*
X467092Y458636D01*
X466465Y458318D01*
X465860Y457961D01*
X465279Y457564D01*
X464726Y457129D01*
X464199Y456665D01*
X463697Y456173D01*
X463220Y455657D01*
X462770Y455117D01*
X462354Y454550D01*
X461962Y453966D01*
X461595Y453366D01*
X461253Y452752D01*
X460944Y452120D01*
X460659Y451478D01*
X460395Y450826D01*
X460152Y450166D01*
X459943Y449495D01*
X459584Y448135D01*
X459443Y447447D01*
X459221Y446058D01*
X459147Y445359D01*
X459003Y443254D01*
X458966Y442552D01*
X458932Y440443D01*
X458983Y438334D01*
X459021Y437632D01*
X459182Y435529D01*
X459429Y433433D01*
X459763Y431350D01*
X460193Y429285D01*
X460708Y427239D01*
X461309Y425217D01*
X461530Y424550D01*
X462248Y422566D01*
X463049Y420615D01*
X463933Y418699D01*
X464573Y417447D01*
X464899Y416825D01*
X465950Y414995D01*
X467075Y413210D01*
X468276Y411476D01*
X469126Y410355D01*
X469551Y409796D01*
X470896Y408171D01*
X472310Y406605D01*
X473791Y405102D01*
X475329Y403658D01*
X476927Y402281D01*
X477474Y401839D01*
X478580Y400971D01*
X480283Y399726D01*
X480861Y399326D01*
X482037Y398554D01*
X482630Y398175D01*
X484438Y397090D01*
X486291Y396081D01*
X488182Y395146D01*
X490106Y394282D01*
X490756Y394012D01*
X492721Y393244D01*
X494711Y392546D01*
X510135Y387676D01*
X510807Y387471D01*
X512163Y387098D01*
X513526Y386749D01*
X514898Y386439D01*
X516277Y386162D01*
X518358Y385817D01*
X520453Y385579D01*
X522560Y385468D01*
X526779Y385376D01*
X529591Y385406D01*
X530294Y385431D01*
X530995Y385481D01*
X531693Y385564D01*
X532326Y385810D01*
X531751Y386161D01*
X489155Y441577D02*
X488857Y442212D01*
X489155Y441577D02*
X489426Y440931D01*
X489671Y440274D01*
X489890Y439608D01*
X490268Y438257D01*
X490572Y436888D01*
X490820Y435508D01*
X491097Y433424D01*
X491235Y432028D01*
X491341Y430630D01*
X491477Y427828D01*
X491650Y420819D01*
X491884Y415917D01*
X491958Y412412D01*
X491943Y410309D01*
X491868Y408207D01*
X491786Y406807D01*
X491596Y404712D01*
X491411Y403322D01*
X491179Y401939D01*
X490869Y400572D01*
X490684Y399896D01*
X490473Y399227D01*
X490231Y398570D01*
X489951Y397927D01*
X489629Y397304D01*
X489251Y396715D01*
X488809Y396172D01*
X488298Y395694D01*
X487711Y395312D01*
X850864Y605660D02*
X850898Y606361D01*
X850864Y605660D02*
X850783Y604962D01*
X850639Y604275D01*
X850444Y603601D01*
X850201Y602942D01*
X849916Y602300D01*
X849597Y601675D01*
X849249Y601065D01*
X848878Y600468D01*
X847315Y598134D01*
X846562Y596948D01*
X846213Y596339D01*
X845891Y595715D01*
X845605Y595074D01*
X845363Y594414D01*
X845167Y593740D01*
X844684Y591690D01*
X842269Y579997D01*
X840991Y574525D01*
X840301Y571082D01*
X839807Y568317D01*
X839367Y565542D01*
X838453Y558579D01*
X835268Y524312D01*
X835134Y522209D01*
X835106Y521507D01*
X835054Y520104D01*
X835024Y517997D01*
X835091Y513783D01*
X835938Y496949D01*
X836024Y492736D01*
X835712Y463239D01*
X835762Y456216D01*
X836000Y448494D01*
X836183Y444987D01*
X836435Y441484D01*
X836747Y437987D01*
X837137Y434497D01*
X837636Y431021D01*
X838123Y428254D01*
X839255Y422751D01*
X841894Y411106D01*
X842462Y408355D01*
X842984Y405595D01*
X843539Y402127D01*
X843812Y400038D01*
X844029Y397942D01*
X844134Y396541D01*
X844215Y395139D01*
X844262Y393033D01*
X844265Y392331D01*
X844238Y390926D01*
X844168Y389523D01*
X844114Y388823D01*
X843984Y387425D01*
X843829Y386028D01*
X843559Y383939D01*
X843349Y382550D01*
X842879Y379780D01*
X842475Y377712D01*
X842180Y376339D01*
X841704Y374287D01*
X841180Y372246D01*
X840809Y370891D01*
X840010Y368198D01*
X839585Y366859D01*
X838911Y364863D01*
X837707Y361564D01*
X836128Y357657D01*
X834711Y354444D01*
X832890Y350644D01*
X831286Y347520D01*
X829268Y343821D01*
X827515Y340778D01*
X825332Y337173D01*
X816875Y324242D01*
X814478Y320776D01*
X813239Y319072D01*
X811532Y316842D01*
X810650Y315747D01*
X809284Y314144D01*
X808348Y313097D01*
X807382Y312076D01*
X806387Y311085D01*
X805362Y310126D01*
X804306Y309200D01*
X803217Y308312D01*
X802658Y307887D01*
X801516Y307069D01*
X800932Y306680D01*
X799147Y305559D01*
X798564Y305168D01*
X797417Y304357D01*
X795765Y303050D01*
X794704Y302129D01*
X793670Y301179D01*
X792167Y299702D01*
X785398Y292570D01*
X784902Y292073D01*
X783386Y290610D01*
X782868Y290136D01*
X781808Y289214D01*
X780720Y288326D01*
X779597Y287482D01*
X779025Y287074D01*
X778442Y286684D01*
X777251Y285939D01*
X776641Y285591D01*
X775403Y284928D01*
X775417Y285368D02*
X775402Y286070D01*
X775417Y285368D02*
X775460Y284668D01*
X775526Y283969D01*
X775726Y282579D01*
X775850Y281888D01*
X776132Y280512D01*
X777075Y276406D01*
X777355Y275030D01*
X777477Y274338D01*
X777674Y272948D01*
X777791Y271549D01*
X777816Y270847D01*
X777816Y270145D01*
X777788Y269444D01*
X777731Y268744D01*
X777541Y267353D01*
X777421Y266661D01*
X777130Y265288D01*
X776782Y263927D01*
X776380Y262582D01*
X775930Y261252D01*
X775438Y259936D01*
X775173Y259286D01*
X774905Y258637D01*
X774333Y257355D01*
X773728Y256087D01*
X772765Y254214D01*
X772087Y252984D01*
X771380Y251771D01*
X770647Y250574D01*
X769505Y248804D01*
X768713Y247644D01*
X767483Y245934D01*
X766639Y244811D01*
X765774Y243705D01*
X764887Y242616D01*
X763521Y241013D01*
X762111Y239448D01*
X760659Y237922D01*
X759161Y236442D01*
X758136Y235481D01*
X757093Y234541D01*
X756560Y234084D01*
X754937Y232741D01*
X753825Y231884D01*
X752689Y231058D01*
X751528Y230269D01*
X750341Y229518D01*
X748521Y228459D01*
X746670Y227452D01*
X744791Y226500D01*
X744162Y226189D01*
X742253Y225298D01*
X741610Y225017D01*
X739672Y224190D01*
X737717Y223407D01*
X735740Y222680D01*
X733746Y222001D01*
X733080Y221779D01*
X731063Y221170D01*
X728354Y220431D01*
X726302Y219953D01*
X724929Y219658D01*
X722856Y219286D01*
X721468Y219074D01*
X720074Y218898D01*
X718677Y218759D01*
X717276Y218658D01*
X715873Y218600D01*
X707447Y218582D01*
X706752Y218505D01*
X705383Y218194D01*
X704690Y218214D01*
X704516Y218830D01*
X704865Y219433D01*
X705380Y219908D01*
X705958Y220306D01*
X706565Y220659D01*
X707189Y220982D01*
X708465Y221566D01*
X713679Y223657D01*
X714324Y223935D01*
X714956Y224240D01*
X715563Y224592D01*
X716093Y225051D01*
X716582Y225554D01*
X717521Y226598D01*
X717977Y227132D01*
X718421Y227676D01*
X719276Y228790D01*
X719689Y229358D01*
X720481Y230517D01*
X721593Y232306D01*
X722617Y234147D01*
X723569Y236026D01*
X724443Y237943D01*
X724997Y239233D01*
X725781Y241188D01*
X726995Y244482D01*
X729242Y251135D01*
X729645Y252480D01*
X730009Y253836D01*
X730333Y255202D01*
X730620Y256577D01*
X730872Y257958D01*
X731087Y259346D01*
X731275Y260738D01*
X731438Y262133D01*
X731675Y264931D01*
X731719Y265632D01*
X731831Y267735D01*
X731911Y270543D01*
X731930Y272649D01*
X731919Y273351D01*
X731847Y274049D01*
X731736Y274743D01*
X731589Y275429D01*
X731409Y276108D01*
X731191Y276775D01*
X730926Y277425D01*
X730602Y278047D01*
X730188Y278613D01*
X729621Y279016D01*
X728936Y279014D01*
X728366Y278612D01*
X727929Y278064D01*
X811983Y540435D02*
X811434Y540873D01*
X811983Y540435D02*
X812585Y540072D01*
X813261Y539894D01*
X813923Y540093D01*
X814378Y540622D01*
X814679Y541257D01*
X814884Y541930D01*
X815043Y542615D01*
X815168Y543308D01*
X815268Y544005D01*
X815766Y548199D01*
X815867Y548895D01*
X817115Y555822D01*
X817327Y557214D01*
X817597Y559308D01*
X817734Y560709D01*
X817786Y561411D01*
X817856Y562817D01*
X817870Y564225D01*
X817858Y564929D01*
X817786Y566334D01*
X817722Y567035D01*
X817541Y568431D01*
X817423Y569125D01*
X817127Y570501D01*
X816947Y571182D01*
X816527Y572525D01*
X816030Y573842D01*
X815441Y575120D01*
X814786Y576366D01*
X814424Y576969D01*
X814036Y577556D01*
X813578Y578090D01*
X813079Y578586D01*
X812549Y579050D01*
X811998Y579488D01*
X811427Y579899D01*
X810838Y580285D01*
X810237Y580650D01*
X809620Y580989D01*
X808988Y581299D01*
X808344Y581582D01*
X807685Y581829D01*
X807014Y582043D01*
X806329Y582203D01*
X805634Y582308D01*
X804931Y582345D01*
X804230Y582284D01*
X803549Y582113D01*
X802918Y581804D01*
X802353Y581386D01*
X801839Y580906D01*
X801374Y580377D01*
X800952Y579815D01*
X800567Y579226D01*
X800217Y578615D01*
X799892Y577991D01*
X799593Y577354D01*
X799316Y576707D01*
X798823Y575388D01*
X798384Y574051D01*
X798189Y573374D01*
X797820Y572016D01*
X797660Y571331D01*
X794356Y556202D01*
X794214Y555512D01*
X793051Y549285D01*
X792509Y545807D01*
X792136Y543016D01*
X791901Y540918D01*
X791772Y539516D01*
X791630Y537409D01*
X791553Y535299D01*
X791551Y533188D01*
X791609Y531781D01*
X791732Y530379D01*
X791923Y528985D01*
X792053Y528293D01*
X792209Y527607D01*
X792387Y526926D01*
X792614Y526260D01*
X792871Y525605D01*
X793169Y524967D01*
X793536Y524367D01*
X793955Y523804D01*
X794431Y523287D01*
X794955Y522818D01*
X795528Y522408D01*
X796146Y522072D01*
X796802Y521821D01*
X797491Y521684D01*
X798194Y521678D01*
X798886Y521800D01*
X799552Y522026D01*
X800180Y522342D01*
X800770Y522723D01*
X801324Y523156D01*
X801843Y523631D01*
X802334Y524135D01*
X802799Y524663D01*
X803241Y525211D01*
X803660Y525777D01*
X804059Y526357D01*
X804443Y526946D01*
X805175Y528149D01*
X805855Y529381D01*
X806807Y531266D01*
X807401Y532543D01*
X809362Y537062D01*
X809666Y537697D01*
X810651Y539565D01*
X810940Y540207D01*
X811161Y540874D01*
X811308Y541563D01*
X811390Y542261D01*
X811426Y542964D01*
X811416Y543667D01*
X811267Y544355D01*
X811051Y545024D01*
X810856Y544911D01*
X810767Y543506D01*
X810746Y542803D01*
X810804Y542102D01*
X811014Y541433D01*
X811434Y540873D01*
X807163Y406526D02*
X806859Y405895D01*
X807163Y406526D02*
X807427Y407176D01*
X807658Y407837D01*
X807858Y408509D01*
X808027Y409189D01*
X808171Y409875D01*
X808292Y410566D01*
X808388Y411260D01*
X808502Y412658D01*
X808541Y414059D01*
X808530Y414760D01*
X808496Y415460D01*
X808384Y416857D01*
X808199Y418247D01*
X807951Y419627D01*
X807801Y420312D01*
X807450Y421669D01*
X807256Y422343D01*
X807035Y423008D01*
X806550Y424323D01*
X806282Y424971D01*
X805677Y426236D01*
X805003Y427465D01*
X804632Y428060D01*
X804238Y428640D01*
X803824Y429205D01*
X803388Y429754D01*
X802930Y430284D01*
X802443Y430789D01*
X801929Y431265D01*
X801391Y431714D01*
X800835Y432141D01*
X800265Y432549D01*
X799686Y432944D01*
X798493Y433681D01*
X797264Y434356D01*
X796637Y434668D01*
X795999Y434960D01*
X794690Y435463D01*
X794023Y435676D01*
X793346Y435859D01*
X792661Y436005D01*
X791968Y436111D01*
X791270Y436172D01*
X790569Y436188D01*
X789870Y436147D01*
X789176Y436047D01*
X788495Y435883D01*
X787831Y435658D01*
X787197Y435361D01*
X786593Y435005D01*
X786027Y434593D01*
X785500Y434131D01*
X785013Y433627D01*
X784570Y433084D01*
X784183Y432500D01*
X783825Y431898D01*
X783506Y431274D01*
X782959Y429983D01*
X782728Y429322D01*
X782505Y428657D01*
X782312Y427983D01*
X781965Y426625D01*
X781677Y425253D01*
X781435Y423872D01*
X781163Y421787D01*
X781030Y420391D01*
X780904Y418292D01*
X780863Y416189D01*
X780873Y414787D01*
X780963Y412686D01*
X781142Y410590D01*
X781306Y409198D01*
X781629Y407120D01*
X781914Y405747D01*
X782070Y405064D01*
X782424Y403707D01*
X782632Y403038D01*
X783078Y401709D01*
X783593Y400405D01*
X784200Y399141D01*
X784903Y397928D01*
X785297Y397350D01*
X785713Y396785D01*
X786166Y396251D01*
X786645Y395740D01*
X787164Y395271D01*
X787707Y394827D01*
X788295Y394449D01*
X788901Y394096D01*
X790206Y393587D01*
X791585Y393339D01*
X792986Y393328D01*
X794374Y393526D01*
X795720Y393918D01*
X796376Y394162D01*
X797662Y394720D01*
X798280Y395051D01*
X798879Y395415D01*
X799453Y395817D01*
X800008Y396245D01*
X800540Y396702D01*
X801051Y397181D01*
X801541Y397683D01*
X802011Y398203D01*
X802896Y399291D01*
X803308Y399857D01*
X803715Y400428D01*
X804473Y401608D01*
X805194Y402810D01*
X806207Y404654D01*
X806859Y405895D01*
X738611Y478984D02*
X738511Y479675D01*
X738611Y478984D02*
X739196Y479010D01*
X739674Y479522D01*
X740090Y480088D01*
X740474Y480677D01*
X741192Y481884D01*
X741860Y483120D01*
X742819Y484997D01*
X743113Y485635D01*
X743381Y486284D01*
X743765Y487635D01*
X744112Y488997D01*
X744276Y489680D01*
X744564Y491055D01*
X744935Y493130D01*
X745137Y494520D01*
X745296Y495916D01*
X745411Y497317D01*
X745451Y498018D01*
X745503Y499422D01*
X745509Y500827D01*
X745459Y502231D01*
X745417Y502933D01*
X745280Y504331D01*
X745082Y505722D01*
X744930Y506407D01*
X744706Y507073D01*
X744411Y507709D01*
X744044Y508308D01*
X743603Y508853D01*
X743100Y509344D01*
X742550Y509779D01*
X741958Y510157D01*
X741339Y510489D01*
X740698Y510777D01*
X740043Y511029D01*
X739377Y511254D01*
X738703Y511452D01*
X737342Y511799D01*
X733916Y512575D01*
X732563Y512954D01*
X731901Y513189D01*
X731255Y513464D01*
X730638Y513799D01*
X730037Y514163D01*
X728868Y514942D01*
X728306Y515364D01*
X727755Y515799D01*
X727219Y516253D01*
X726192Y517212D01*
X725699Y517712D01*
X725224Y518230D01*
X724303Y519291D01*
X723017Y520961D01*
X719782Y525556D01*
X719366Y526123D01*
X718514Y527240D01*
X718066Y527781D01*
X717137Y528834D01*
X716654Y529345D01*
X716150Y529834D01*
X715103Y530771D01*
X713991Y531629D01*
X713415Y532031D01*
X712820Y532405D01*
X712218Y532766D01*
X711603Y533105D01*
X710975Y533422D01*
X710342Y533726D01*
X709042Y534257D01*
X707715Y534719D01*
X706367Y535116D01*
X703634Y535769D01*
X702948Y535919D01*
X702253Y536022D01*
X701552Y536061D01*
X700853Y536000D01*
X700176Y535816D01*
X699550Y535500D01*
X698987Y535081D01*
X698492Y534584D01*
X698026Y534058D01*
X697591Y533507D01*
X697188Y532932D01*
X696817Y532335D01*
X696483Y531717D01*
X696179Y531084D01*
X695907Y530436D01*
X695671Y529775D01*
X695461Y529104D01*
X695280Y528426D01*
X695127Y527740D01*
X694998Y527049D01*
X694894Y526355D01*
X694805Y525658D01*
X694739Y524958D01*
X694649Y523556D01*
X694612Y522152D01*
X694615Y520747D01*
X694814Y510913D01*
X694930Y508106D01*
X695122Y505302D01*
X695396Y502505D01*
X695655Y500414D01*
X695852Y499022D01*
X696078Y497635D01*
X696326Y496252D01*
X696744Y494187D01*
X697051Y492816D01*
X697393Y491453D01*
X697764Y490098D01*
X698367Y488078D01*
X698814Y486746D01*
X699292Y485425D01*
X699808Y484118D01*
X700647Y482185D01*
X701253Y480917D01*
X701904Y479672D01*
X702598Y478450D01*
X703335Y477254D01*
X704117Y476087D01*
X704520Y475512D01*
X705366Y474390D01*
X706266Y473311D01*
X707214Y472274D01*
X708207Y471280D01*
X708721Y470801D01*
X709782Y469880D01*
X710885Y469011D01*
X711461Y468609D01*
X712051Y468227D01*
X712654Y467866D01*
X713269Y467528D01*
X714526Y466899D01*
X715811Y466332D01*
X716463Y466072D01*
X717787Y465600D01*
X719131Y465193D01*
X719811Y465015D01*
X720495Y464854D01*
X721876Y464594D01*
X722571Y464496D01*
X723270Y464421D01*
X723970Y464372D01*
X724672Y464349D01*
X725375Y464355D01*
X726076Y464392D01*
X726774Y464467D01*
X727467Y464581D01*
X728153Y464733D01*
X728826Y464932D01*
X729482Y465182D01*
X730117Y465482D01*
X730722Y465837D01*
X731294Y466245D01*
X731825Y466704D01*
X732316Y467206D01*
X732779Y467735D01*
X733217Y468283D01*
X733637Y468846D01*
X734427Y470009D01*
X734796Y470606D01*
X735506Y471819D01*
X735845Y472434D01*
X737135Y474930D01*
X737378Y475589D01*
X737574Y476264D01*
X737745Y476945D01*
X738357Y479688D01*
X738511Y479675D01*
X706236Y389761D02*
X705908Y389307D01*
X706236Y389761D02*
X708043Y391918D01*
X709351Y393576D01*
X710188Y394707D01*
X710990Y395863D01*
X711737Y397056D01*
X712084Y397668D01*
X712399Y398297D01*
X712681Y398942D01*
X712911Y399606D01*
X713060Y400293D01*
X713060Y400995D01*
X712869Y401670D01*
X712513Y402274D01*
X712031Y402782D01*
X711456Y403184D01*
X710828Y403499D01*
X710166Y403734D01*
X709485Y403910D01*
X708794Y404039D01*
X708096Y404131D01*
X707395Y404191D01*
X706692Y404218D01*
X705988Y404219D01*
X704582Y404170D01*
X703880Y404114D01*
X702482Y403964D01*
X700397Y403633D01*
X698331Y403196D01*
X696968Y402847D01*
X696290Y402659D01*
X694947Y402238D01*
X693621Y401768D01*
X692317Y401241D01*
X691675Y400951D01*
X691043Y400642D01*
X690427Y400302D01*
X689828Y399934D01*
X689257Y399523D01*
X688735Y399052D01*
X688299Y398501D01*
X687919Y397910D01*
X687599Y397283D01*
X687366Y396619D01*
X687231Y395929D01*
X687215Y395226D01*
X687325Y394533D01*
X687555Y393869D01*
X687885Y393250D01*
X688295Y392680D01*
X688767Y392159D01*
X689284Y391682D01*
X689836Y391246D01*
X690416Y390849D01*
X691018Y390484D01*
X691636Y390148D01*
X692266Y389836D01*
X692911Y389554D01*
X694225Y389051D01*
X695565Y388621D01*
X696927Y388268D01*
X698307Y387992D01*
X699698Y387783D01*
X701101Y387667D01*
X701804Y387650D01*
X702507Y387671D01*
X703207Y387738D01*
X703896Y387877D01*
X704561Y388105D01*
X705199Y388402D01*
X705813Y388745D01*
X706408Y389121D01*
X708137Y390332D01*
X708683Y390776D01*
X709212Y391240D01*
X709708Y391738D01*
X709339Y391749D01*
X708719Y391416D01*
X708123Y391042D01*
X707555Y390628D01*
X705908Y389307D01*
M02*
