G04 EAGLE Gerber RS-274X export*
G75*
%MOMM*%
%FSLAX34Y34*%
%LPD*%
%INSoldermask Bottom*%
%IPPOS*%
%AMOC8*
5,1,8,0,0,1.08239X$1,22.5*%
G01*
%ADD10C,0.800000*%

G36*
X1023342Y561426D02*
X1023342Y561426D01*
X1023350Y561424D01*
X1023438Y561445D01*
X1023528Y561464D01*
X1023535Y561469D01*
X1023543Y561470D01*
X1023616Y561524D01*
X1023692Y561576D01*
X1023697Y561583D01*
X1023703Y561588D01*
X1023750Y561667D01*
X1023799Y561744D01*
X1023801Y561752D01*
X1023805Y561759D01*
X1023833Y561923D01*
X1023833Y574736D01*
X1023831Y574743D01*
X1023832Y574753D01*
X1023826Y574920D01*
X1023826Y574921D01*
X1023809Y575420D01*
X1023807Y575481D01*
X1023783Y575581D01*
X1023761Y575674D01*
X1023760Y575674D01*
X1023760Y575675D01*
X1023693Y575766D01*
X1023643Y575834D01*
X1023642Y575834D01*
X1023642Y575835D01*
X1023555Y575886D01*
X1023472Y575935D01*
X1023471Y575935D01*
X1023471Y575936D01*
X1023466Y575936D01*
X1023308Y575963D01*
X1000984Y575963D01*
X1000919Y576075D01*
X1000919Y601212D01*
X1001062Y601262D01*
X1022832Y601262D01*
X1022865Y601269D01*
X1022898Y601267D01*
X1022983Y601293D01*
X1023027Y601302D01*
X1023039Y601310D01*
X1023057Y601316D01*
X1023558Y601568D01*
X1023630Y601625D01*
X1023703Y601679D01*
X1023708Y601686D01*
X1023714Y601691D01*
X1023758Y601771D01*
X1023805Y601850D01*
X1023806Y601859D01*
X1023810Y601865D01*
X1023814Y601902D01*
X1023833Y602014D01*
X1023833Y614826D01*
X1023823Y614874D01*
X1023823Y614923D01*
X1023801Y614981D01*
X1023793Y615021D01*
X1023779Y615042D01*
X1023776Y615054D01*
X1023771Y615061D01*
X1023764Y615078D01*
X1023486Y615554D01*
X1023435Y615611D01*
X1023390Y615672D01*
X1023370Y615684D01*
X1023354Y615702D01*
X1023285Y615735D01*
X1023219Y615773D01*
X1023193Y615778D01*
X1023174Y615787D01*
X1023129Y615789D01*
X1023055Y615801D01*
X962008Y615801D01*
X961950Y615789D01*
X961890Y615787D01*
X961853Y615770D01*
X961813Y615762D01*
X961764Y615728D01*
X961710Y615702D01*
X961683Y615672D01*
X961649Y615649D01*
X961617Y615599D01*
X961578Y615554D01*
X961561Y615510D01*
X961542Y615481D01*
X961536Y615446D01*
X961518Y615399D01*
X961394Y614769D01*
X961394Y614730D01*
X961385Y614673D01*
X961385Y601860D01*
X961386Y601854D01*
X961385Y601847D01*
X961399Y601788D01*
X961405Y601720D01*
X961418Y601694D01*
X961424Y601666D01*
X961430Y601657D01*
X961431Y601653D01*
X961455Y601621D01*
X961464Y601607D01*
X961497Y601545D01*
X961520Y601526D01*
X961537Y601502D01*
X961548Y601494D01*
X961549Y601493D01*
X961562Y601485D01*
X961596Y601464D01*
X961651Y601419D01*
X961683Y601408D01*
X961704Y601395D01*
X961720Y601392D01*
X961747Y601387D01*
X961809Y601367D01*
X962464Y601268D01*
X962496Y601269D01*
X962539Y601262D01*
X987877Y601262D01*
X987942Y601151D01*
X987942Y576014D01*
X987799Y575963D01*
X962261Y575963D01*
X962249Y575961D01*
X962236Y575962D01*
X962152Y575941D01*
X962066Y575923D01*
X962056Y575916D01*
X962044Y575913D01*
X961908Y575817D01*
X961531Y575440D01*
X961524Y575430D01*
X961514Y575422D01*
X961469Y575347D01*
X961421Y575274D01*
X961419Y575262D01*
X961412Y575251D01*
X961385Y575087D01*
X961385Y562275D01*
X961391Y562246D01*
X961388Y562216D01*
X961410Y562149D01*
X961424Y562080D01*
X961441Y562055D01*
X961450Y562027D01*
X961512Y561951D01*
X961537Y561916D01*
X961547Y561909D01*
X961556Y561898D01*
X961958Y561547D01*
X962041Y561500D01*
X962122Y561452D01*
X962127Y561451D01*
X962131Y561449D01*
X962159Y561446D01*
X962286Y561424D01*
X1023333Y561424D01*
X1023342Y561426D01*
G37*
G36*
X1004073Y704107D02*
X1004073Y704107D01*
X1004081Y704106D01*
X1004170Y704127D01*
X1004260Y704145D01*
X1004266Y704150D01*
X1004275Y704152D01*
X1004348Y704206D01*
X1004423Y704258D01*
X1004428Y704265D01*
X1004435Y704270D01*
X1004481Y704348D01*
X1004530Y704425D01*
X1004532Y704434D01*
X1004536Y704441D01*
X1004564Y704605D01*
X1004564Y716178D01*
X1004545Y716269D01*
X1004529Y716360D01*
X1004526Y716367D01*
X1004524Y716373D01*
X1004505Y716401D01*
X1004444Y716503D01*
X1004096Y716908D01*
X1004071Y716928D01*
X1004052Y716953D01*
X1003994Y716988D01*
X1003939Y717030D01*
X1003909Y717039D01*
X1003881Y717055D01*
X1003790Y717070D01*
X1003747Y717082D01*
X1003734Y717080D01*
X1003717Y717083D01*
X999738Y717083D01*
X999920Y717232D01*
X999929Y717243D01*
X999943Y717253D01*
X1000494Y717766D01*
X1000500Y717774D01*
X1000509Y717781D01*
X1001038Y718317D01*
X1001043Y718326D01*
X1001054Y718334D01*
X1001556Y718894D01*
X1001562Y718904D01*
X1001573Y718914D01*
X1002046Y719499D01*
X1002051Y719509D01*
X1002060Y719518D01*
X1002504Y720126D01*
X1002509Y720135D01*
X1002517Y720144D01*
X1002933Y720771D01*
X1002938Y720781D01*
X1002946Y720792D01*
X1003332Y721438D01*
X1003335Y721449D01*
X1003344Y721459D01*
X1003697Y722124D01*
X1003700Y722133D01*
X1003706Y722142D01*
X1004033Y722820D01*
X1004035Y722828D01*
X1004040Y722837D01*
X1004341Y723527D01*
X1004343Y723534D01*
X1004348Y723542D01*
X1004625Y724242D01*
X1004628Y724257D01*
X1004637Y724274D01*
X1005094Y725708D01*
X1005096Y725726D01*
X1005105Y725746D01*
X1005276Y726479D01*
X1005276Y726490D01*
X1005281Y726503D01*
X1005417Y727243D01*
X1005417Y727256D01*
X1005421Y727270D01*
X1005517Y728017D01*
X1005516Y728027D01*
X1005519Y728040D01*
X1005579Y728790D01*
X1005578Y728801D01*
X1005581Y728815D01*
X1005604Y729567D01*
X1005602Y729577D01*
X1005604Y729584D01*
X1005603Y729587D01*
X1005604Y729595D01*
X1005565Y731100D01*
X1005563Y731109D01*
X1005564Y731119D01*
X1005516Y731870D01*
X1005514Y731880D01*
X1005515Y731893D01*
X1005433Y732641D01*
X1005431Y732649D01*
X1005431Y732659D01*
X1005212Y734149D01*
X1005206Y734165D01*
X1005205Y734186D01*
X1004875Y735654D01*
X1004871Y735663D01*
X1004870Y735675D01*
X1004673Y736402D01*
X1004668Y736412D01*
X1004665Y736427D01*
X1004430Y737142D01*
X1004426Y737149D01*
X1004424Y737159D01*
X1004164Y737865D01*
X1004160Y737871D01*
X1004158Y737880D01*
X1003875Y738577D01*
X1003870Y738584D01*
X1003868Y738594D01*
X1003559Y739281D01*
X1003553Y739290D01*
X1003549Y739302D01*
X1003208Y739973D01*
X1003203Y739979D01*
X1003200Y739988D01*
X1002837Y740647D01*
X1002832Y740653D01*
X1002829Y740662D01*
X1002443Y741309D01*
X1002437Y741315D01*
X1002433Y741325D01*
X1002022Y741956D01*
X1002015Y741964D01*
X1002008Y741977D01*
X1001567Y742587D01*
X1001562Y742592D01*
X1001557Y742600D01*
X1001096Y743195D01*
X1001089Y743200D01*
X1001084Y743209D01*
X1000601Y743786D01*
X1000594Y743792D01*
X1000588Y743801D01*
X1000082Y744359D01*
X1000073Y744366D01*
X1000064Y744378D01*
X999531Y744908D01*
X999525Y744912D01*
X999523Y744915D01*
X999522Y744916D01*
X999519Y744919D01*
X998968Y745432D01*
X998961Y745436D01*
X998955Y745444D01*
X998386Y745937D01*
X998378Y745941D01*
X998371Y745949D01*
X997784Y746420D01*
X997773Y746425D01*
X997763Y746436D01*
X997152Y746875D01*
X997145Y746878D01*
X997138Y746885D01*
X996512Y747303D01*
X996506Y747306D01*
X996499Y747312D01*
X995860Y747710D01*
X995853Y747712D01*
X995847Y747718D01*
X995195Y748096D01*
X995184Y748099D01*
X995173Y748108D01*
X994503Y748452D01*
X994496Y748454D01*
X994489Y748459D01*
X993808Y748781D01*
X993802Y748782D01*
X993795Y748787D01*
X993105Y749088D01*
X993097Y749090D01*
X993090Y749094D01*
X992390Y749373D01*
X992381Y749375D01*
X992370Y749381D01*
X991999Y749510D01*
X991659Y749628D01*
X991651Y749629D01*
X991641Y749634D01*
X990201Y750074D01*
X990186Y750076D01*
X990167Y750083D01*
X988700Y750420D01*
X988692Y750420D01*
X988682Y750424D01*
X987942Y750565D01*
X987932Y750565D01*
X987919Y750569D01*
X987174Y750675D01*
X987167Y750675D01*
X987158Y750677D01*
X985662Y750841D01*
X985650Y750840D01*
X985636Y750843D01*
X984885Y750887D01*
X984878Y750886D01*
X984870Y750888D01*
X983365Y750931D01*
X983352Y750929D01*
X983337Y750931D01*
X981832Y750888D01*
X981826Y750886D01*
X981818Y750887D01*
X981066Y750844D01*
X981054Y750841D01*
X981039Y750842D01*
X979543Y750675D01*
X979537Y750673D01*
X979528Y750673D01*
X978783Y750567D01*
X978775Y750564D01*
X978765Y750564D01*
X978024Y750431D01*
X978017Y750428D01*
X978008Y750428D01*
X977272Y750270D01*
X977264Y750267D01*
X977255Y750266D01*
X975795Y749900D01*
X975781Y749894D01*
X975763Y749891D01*
X974330Y749430D01*
X974324Y749426D01*
X974314Y749424D01*
X973606Y749169D01*
X973599Y749165D01*
X973590Y749163D01*
X972891Y748883D01*
X972884Y748878D01*
X972874Y748876D01*
X972186Y748571D01*
X972178Y748566D01*
X972168Y748563D01*
X970817Y747899D01*
X970805Y747889D01*
X970787Y747883D01*
X969484Y747129D01*
X969476Y747122D01*
X969465Y747117D01*
X968831Y746710D01*
X968826Y746705D01*
X968817Y746701D01*
X968198Y746273D01*
X968191Y746266D01*
X968180Y746260D01*
X967580Y745806D01*
X967575Y745800D01*
X967567Y745795D01*
X966983Y745321D01*
X966978Y745315D01*
X966970Y745310D01*
X966402Y744816D01*
X966397Y744810D01*
X966389Y744804D01*
X965838Y744291D01*
X965832Y744282D01*
X965822Y744275D01*
X965296Y743737D01*
X965291Y743729D01*
X965281Y743721D01*
X964779Y743161D01*
X964774Y743153D01*
X964766Y743146D01*
X964286Y742567D01*
X964282Y742559D01*
X964274Y742552D01*
X963816Y741955D01*
X963812Y741946D01*
X963803Y741937D01*
X963371Y741321D01*
X963367Y741312D01*
X963359Y741303D01*
X962954Y740668D01*
X962951Y740661D01*
X962945Y740653D01*
X962563Y740005D01*
X962560Y739997D01*
X962554Y739989D01*
X962195Y739327D01*
X962192Y739317D01*
X962185Y739306D01*
X961858Y738628D01*
X961855Y738616D01*
X961847Y738603D01*
X961558Y737908D01*
X961556Y737899D01*
X961550Y737888D01*
X961292Y737181D01*
X961290Y737172D01*
X961285Y737161D01*
X961057Y736444D01*
X961055Y736432D01*
X961049Y736419D01*
X960859Y735691D01*
X960858Y735680D01*
X960853Y735668D01*
X960697Y734932D01*
X960697Y734923D01*
X960694Y734913D01*
X960565Y734172D01*
X960566Y734163D01*
X960563Y734153D01*
X960463Y733407D01*
X960463Y733395D01*
X960460Y733380D01*
X960400Y732630D01*
X960401Y732623D01*
X960399Y732615D01*
X960362Y731863D01*
X960363Y731857D01*
X960362Y731850D01*
X960345Y731097D01*
X960346Y731088D01*
X960345Y731077D01*
X960358Y730324D01*
X960361Y730314D01*
X960359Y730301D01*
X960456Y728799D01*
X960458Y728790D01*
X960458Y728778D01*
X960537Y728030D01*
X960540Y728022D01*
X960540Y728011D01*
X960648Y727266D01*
X960651Y727258D01*
X960651Y727248D01*
X960785Y726508D01*
X960788Y726501D01*
X960788Y726493D01*
X960946Y725757D01*
X960949Y725750D01*
X960949Y725741D01*
X961131Y725010D01*
X961134Y725003D01*
X961135Y724993D01*
X961343Y724270D01*
X961347Y724262D01*
X961349Y724251D01*
X961585Y723536D01*
X961591Y723526D01*
X961593Y723512D01*
X961865Y722810D01*
X961872Y722800D01*
X961875Y722787D01*
X962183Y722100D01*
X962190Y722089D01*
X962196Y722073D01*
X962543Y721406D01*
X962552Y721395D01*
X962559Y721379D01*
X962947Y720735D01*
X962956Y720725D01*
X962963Y720710D01*
X963388Y720089D01*
X963401Y720077D01*
X963412Y720058D01*
X963884Y719472D01*
X963895Y719463D01*
X963904Y719449D01*
X964412Y718893D01*
X964422Y718886D01*
X964432Y718873D01*
X964970Y718348D01*
X964981Y718341D01*
X964990Y718329D01*
X965228Y718121D01*
X942390Y718121D01*
X942325Y718108D01*
X942259Y718104D01*
X942229Y718089D01*
X942195Y718082D01*
X942141Y718044D01*
X942081Y718015D01*
X942055Y717986D01*
X942031Y717969D01*
X942010Y717936D01*
X941970Y717892D01*
X941676Y717433D01*
X941654Y717378D01*
X941624Y717328D01*
X941616Y717280D01*
X941604Y717248D01*
X941605Y717212D01*
X941597Y717164D01*
X941597Y705119D01*
X941602Y705094D01*
X941599Y705068D01*
X941629Y704961D01*
X941636Y704924D01*
X941641Y704917D01*
X941643Y704908D01*
X941882Y704394D01*
X941946Y704308D01*
X942000Y704235D01*
X942001Y704234D01*
X942092Y704180D01*
X942171Y704134D01*
X942171Y704133D01*
X942172Y704133D01*
X942176Y704133D01*
X942335Y704106D01*
X1004065Y704106D01*
X1004073Y704107D01*
G37*
G36*
X1004073Y649429D02*
X1004073Y649429D01*
X1004081Y649427D01*
X1004170Y649448D01*
X1004260Y649467D01*
X1004266Y649472D01*
X1004275Y649473D01*
X1004348Y649527D01*
X1004423Y649579D01*
X1004428Y649586D01*
X1004435Y649591D01*
X1004481Y649670D01*
X1004530Y649747D01*
X1004532Y649755D01*
X1004536Y649762D01*
X1004564Y649926D01*
X1004564Y661499D01*
X1004545Y661590D01*
X1004529Y661682D01*
X1004526Y661688D01*
X1004524Y661694D01*
X1004505Y661722D01*
X1004444Y661824D01*
X1004096Y662230D01*
X1004071Y662249D01*
X1004052Y662275D01*
X1003993Y662310D01*
X1003939Y662352D01*
X1003908Y662360D01*
X1003881Y662376D01*
X1003789Y662392D01*
X1003747Y662403D01*
X1003733Y662401D01*
X1003717Y662404D01*
X999738Y662404D01*
X999920Y662554D01*
X999929Y662564D01*
X999943Y662574D01*
X1000494Y663087D01*
X1000500Y663095D01*
X1000509Y663102D01*
X1001038Y663638D01*
X1001043Y663647D01*
X1001054Y663655D01*
X1001556Y664215D01*
X1001562Y664225D01*
X1001573Y664235D01*
X1002046Y664820D01*
X1002051Y664830D01*
X1002060Y664839D01*
X1002504Y665447D01*
X1002509Y665456D01*
X1002517Y665465D01*
X1002933Y666093D01*
X1002938Y666103D01*
X1002946Y666113D01*
X1003332Y666760D01*
X1003335Y666770D01*
X1003344Y666781D01*
X1003697Y667445D01*
X1003700Y667454D01*
X1003706Y667463D01*
X1004033Y668141D01*
X1004035Y668150D01*
X1004040Y668158D01*
X1004341Y668848D01*
X1004343Y668855D01*
X1004348Y668864D01*
X1004625Y669564D01*
X1004628Y669579D01*
X1004637Y669596D01*
X1005094Y671030D01*
X1005096Y671047D01*
X1005105Y671068D01*
X1005276Y671801D01*
X1005276Y671811D01*
X1005281Y671824D01*
X1005417Y672564D01*
X1005417Y672577D01*
X1005421Y672592D01*
X1005517Y673338D01*
X1005516Y673349D01*
X1005519Y673361D01*
X1005579Y674111D01*
X1005578Y674122D01*
X1005581Y674136D01*
X1005604Y674888D01*
X1005602Y674898D01*
X1005604Y674905D01*
X1005603Y674908D01*
X1005604Y674917D01*
X1005565Y676422D01*
X1005563Y676430D01*
X1005564Y676440D01*
X1005516Y677191D01*
X1005514Y677201D01*
X1005515Y677214D01*
X1005433Y677962D01*
X1005431Y677970D01*
X1005431Y677981D01*
X1005212Y679470D01*
X1005206Y679486D01*
X1005205Y679507D01*
X1004875Y680975D01*
X1004871Y680984D01*
X1004870Y680996D01*
X1004673Y681723D01*
X1004667Y681734D01*
X1004665Y681749D01*
X1004429Y682464D01*
X1004425Y682471D01*
X1004423Y682480D01*
X1004163Y683186D01*
X1004159Y683192D01*
X1004157Y683201D01*
X1003875Y683898D01*
X1003870Y683906D01*
X1003867Y683916D01*
X1003558Y684602D01*
X1003552Y684611D01*
X1003548Y684623D01*
X1003208Y685295D01*
X1003203Y685301D01*
X1003200Y685310D01*
X1002837Y685969D01*
X1002832Y685975D01*
X1002829Y685984D01*
X1002443Y686630D01*
X1002437Y686637D01*
X1002433Y686647D01*
X1002022Y687278D01*
X1002015Y687286D01*
X1002008Y687298D01*
X1001567Y687908D01*
X1001562Y687913D01*
X1001557Y687922D01*
X1001095Y688516D01*
X1001089Y688521D01*
X1001084Y688530D01*
X1000602Y689107D01*
X1000594Y689113D01*
X1000588Y689123D01*
X1000082Y689680D01*
X1000073Y689687D01*
X1000065Y689699D01*
X999531Y690230D01*
X999526Y690233D01*
X999523Y690236D01*
X999522Y690237D01*
X999519Y690241D01*
X998968Y690754D01*
X998961Y690758D01*
X998955Y690765D01*
X998386Y691258D01*
X998378Y691262D01*
X998371Y691270D01*
X997784Y691741D01*
X997773Y691747D01*
X997763Y691757D01*
X997152Y692197D01*
X997145Y692200D01*
X997138Y692206D01*
X996512Y692624D01*
X996506Y692627D01*
X996499Y692633D01*
X995860Y693031D01*
X995853Y693034D01*
X995846Y693040D01*
X995195Y693417D01*
X995184Y693421D01*
X995173Y693429D01*
X994503Y693773D01*
X994496Y693775D01*
X994489Y693780D01*
X993808Y694102D01*
X993802Y694104D01*
X993795Y694108D01*
X993105Y694409D01*
X993097Y694411D01*
X993090Y694416D01*
X992390Y694694D01*
X992381Y694696D01*
X992370Y694702D01*
X991999Y694831D01*
X991659Y694950D01*
X991651Y694951D01*
X991641Y694956D01*
X990201Y695395D01*
X990185Y695397D01*
X990167Y695404D01*
X988700Y695741D01*
X988691Y695742D01*
X988682Y695745D01*
X987942Y695886D01*
X987932Y695886D01*
X987919Y695890D01*
X987174Y695997D01*
X987167Y695996D01*
X987158Y695999D01*
X985662Y696163D01*
X985650Y696162D01*
X985636Y696165D01*
X984885Y696209D01*
X984878Y696208D01*
X984870Y696209D01*
X983365Y696252D01*
X983352Y696250D01*
X983337Y696252D01*
X981832Y696209D01*
X981825Y696208D01*
X981817Y696209D01*
X981066Y696166D01*
X981055Y696162D01*
X981040Y696163D01*
X979543Y695998D01*
X979536Y695996D01*
X979527Y695996D01*
X978782Y695888D01*
X978775Y695886D01*
X978765Y695886D01*
X978024Y695753D01*
X978017Y695750D01*
X978008Y695749D01*
X977272Y695591D01*
X977264Y695588D01*
X977255Y695588D01*
X975795Y695222D01*
X975781Y695215D01*
X975763Y695212D01*
X974330Y694751D01*
X974324Y694747D01*
X974314Y694746D01*
X973606Y694490D01*
X973599Y694486D01*
X973590Y694484D01*
X972891Y694204D01*
X972884Y694199D01*
X972874Y694197D01*
X972186Y693892D01*
X972179Y693887D01*
X972168Y693884D01*
X970817Y693220D01*
X970805Y693211D01*
X970787Y693204D01*
X969484Y692450D01*
X969476Y692443D01*
X969465Y692438D01*
X968831Y692032D01*
X968826Y692026D01*
X968817Y692022D01*
X968198Y691594D01*
X968191Y691587D01*
X968180Y691582D01*
X967580Y691127D01*
X967575Y691121D01*
X967567Y691117D01*
X966983Y690642D01*
X966978Y690636D01*
X966970Y690631D01*
X966402Y690137D01*
X966397Y690131D01*
X966389Y690126D01*
X965838Y689612D01*
X965832Y689604D01*
X965822Y689596D01*
X965296Y689058D01*
X965291Y689050D01*
X965281Y689042D01*
X964779Y688482D01*
X964774Y688474D01*
X964766Y688467D01*
X964286Y687888D01*
X964282Y687880D01*
X964274Y687873D01*
X963816Y687276D01*
X963812Y687267D01*
X963803Y687259D01*
X963371Y686642D01*
X963367Y686633D01*
X963359Y686624D01*
X962954Y685990D01*
X962951Y685982D01*
X962945Y685975D01*
X962563Y685326D01*
X962560Y685319D01*
X962554Y685311D01*
X962195Y684649D01*
X962192Y684638D01*
X962185Y684628D01*
X961858Y683949D01*
X961855Y683937D01*
X961847Y683924D01*
X961558Y683229D01*
X961556Y683220D01*
X961550Y683209D01*
X961292Y682503D01*
X961290Y682493D01*
X961285Y682483D01*
X961057Y681765D01*
X961055Y681754D01*
X961049Y681740D01*
X960859Y681012D01*
X960858Y681002D01*
X960853Y680989D01*
X960697Y680253D01*
X960697Y680244D01*
X960694Y680235D01*
X960565Y679493D01*
X960566Y679485D01*
X960563Y679474D01*
X960463Y678728D01*
X960463Y678716D01*
X960460Y678702D01*
X960400Y677951D01*
X960401Y677944D01*
X960399Y677936D01*
X960362Y677184D01*
X960363Y677178D01*
X960362Y677171D01*
X960345Y676419D01*
X960346Y676409D01*
X960345Y676398D01*
X960358Y675646D01*
X960361Y675635D01*
X960359Y675623D01*
X960456Y674121D01*
X960458Y674111D01*
X960458Y674100D01*
X960537Y673351D01*
X960540Y673343D01*
X960540Y673332D01*
X960648Y672587D01*
X960651Y672580D01*
X960651Y672570D01*
X960785Y671829D01*
X960788Y671823D01*
X960788Y671814D01*
X960946Y671078D01*
X960949Y671071D01*
X960949Y671062D01*
X961131Y670332D01*
X961134Y670324D01*
X961135Y670314D01*
X961343Y669591D01*
X961347Y669583D01*
X961349Y669572D01*
X961585Y668857D01*
X961591Y668847D01*
X961593Y668833D01*
X961865Y668132D01*
X961872Y668122D01*
X961875Y668108D01*
X962183Y667421D01*
X962190Y667410D01*
X962196Y667395D01*
X962543Y666727D01*
X962552Y666717D01*
X962558Y666700D01*
X962947Y666056D01*
X962956Y666046D01*
X962963Y666032D01*
X963388Y665411D01*
X963401Y665398D01*
X963412Y665379D01*
X963884Y664794D01*
X963895Y664785D01*
X963904Y664770D01*
X964412Y664215D01*
X964422Y664207D01*
X964432Y664194D01*
X964970Y663669D01*
X964981Y663662D01*
X964990Y663650D01*
X965228Y663443D01*
X942390Y663443D01*
X942325Y663430D01*
X942259Y663425D01*
X942229Y663410D01*
X942195Y663403D01*
X942141Y663366D01*
X942081Y663336D01*
X942055Y663307D01*
X942031Y663291D01*
X942010Y663257D01*
X941970Y663213D01*
X941676Y662754D01*
X941654Y662700D01*
X941624Y662649D01*
X941616Y662601D01*
X941604Y662569D01*
X941605Y662534D01*
X941597Y662485D01*
X941597Y650440D01*
X941602Y650415D01*
X941599Y650390D01*
X941629Y650283D01*
X941636Y650245D01*
X941641Y650239D01*
X941643Y650229D01*
X941882Y649716D01*
X941946Y649630D01*
X942000Y649556D01*
X942001Y649556D01*
X942092Y649502D01*
X942171Y649455D01*
X942172Y649455D01*
X942176Y649454D01*
X942335Y649427D01*
X1004065Y649427D01*
X1004073Y649429D01*
G37*
G36*
X1023342Y837853D02*
X1023342Y837853D01*
X1023351Y837851D01*
X1023439Y837873D01*
X1023528Y837891D01*
X1023536Y837896D01*
X1023544Y837898D01*
X1023617Y837952D01*
X1023692Y838003D01*
X1023697Y838011D01*
X1023704Y838016D01*
X1023750Y838094D01*
X1023799Y838171D01*
X1023801Y838180D01*
X1023805Y838187D01*
X1023833Y838352D01*
X1023831Y838750D01*
X1023774Y863569D01*
X1023770Y863584D01*
X1023772Y863603D01*
X1023613Y865854D01*
X1023610Y865865D01*
X1023611Y865879D01*
X1023337Y868119D01*
X1023333Y868130D01*
X1023333Y868145D01*
X1022942Y870366D01*
X1022938Y870377D01*
X1022937Y870391D01*
X1022769Y871125D01*
X1022765Y871133D01*
X1022764Y871144D01*
X1022369Y872595D01*
X1022364Y872604D01*
X1022362Y872617D01*
X1022131Y873333D01*
X1022126Y873341D01*
X1022124Y873353D01*
X1021863Y874058D01*
X1021859Y874064D01*
X1021858Y874073D01*
X1021575Y874769D01*
X1021570Y874776D01*
X1021568Y874785D01*
X1021261Y875471D01*
X1021255Y875480D01*
X1021252Y875491D01*
X1020916Y876164D01*
X1020909Y876172D01*
X1020905Y876184D01*
X1020537Y876841D01*
X1020532Y876846D01*
X1020529Y876855D01*
X1020139Y877499D01*
X1020133Y877506D01*
X1020128Y877516D01*
X1019712Y878142D01*
X1019704Y878150D01*
X1019699Y878161D01*
X1019254Y878767D01*
X1019245Y878776D01*
X1019237Y878789D01*
X1018760Y879370D01*
X1018750Y879378D01*
X1018742Y879392D01*
X1018233Y879945D01*
X1018224Y879951D01*
X1018217Y879962D01*
X1017682Y880491D01*
X1017672Y880497D01*
X1017664Y880508D01*
X1017104Y881009D01*
X1017094Y881015D01*
X1017085Y881025D01*
X1016500Y881498D01*
X1016490Y881504D01*
X1016479Y881514D01*
X1015871Y881956D01*
X1015861Y881961D01*
X1015851Y881970D01*
X1015222Y882381D01*
X1015213Y882385D01*
X1015204Y882392D01*
X1014559Y882777D01*
X1014550Y882781D01*
X1014541Y882788D01*
X1013880Y883146D01*
X1013868Y883150D01*
X1013854Y883159D01*
X1013174Y883479D01*
X1013161Y883482D01*
X1013148Y883490D01*
X1012450Y883771D01*
X1012441Y883773D01*
X1012431Y883778D01*
X1011723Y884029D01*
X1011713Y884031D01*
X1011702Y884036D01*
X1010982Y884256D01*
X1010966Y884258D01*
X1010947Y884266D01*
X1009480Y884598D01*
X1009470Y884598D01*
X1009457Y884602D01*
X1008717Y884734D01*
X1008706Y884734D01*
X1008692Y884738D01*
X1007946Y884833D01*
X1007942Y884833D01*
X1007937Y884834D01*
X1007189Y884914D01*
X1007180Y884913D01*
X1007170Y884916D01*
X1006419Y884966D01*
X1006412Y884965D01*
X1006402Y884967D01*
X1004899Y885018D01*
X1004889Y885016D01*
X1004875Y885018D01*
X1003372Y884997D01*
X1003360Y884995D01*
X1003344Y884996D01*
X1001844Y884892D01*
X1001834Y884890D01*
X1001821Y884890D01*
X1001074Y884804D01*
X1001067Y884802D01*
X1001059Y884802D01*
X1000315Y884693D01*
X1000310Y884691D01*
X1000304Y884691D01*
X999562Y884566D01*
X999552Y884562D01*
X999537Y884561D01*
X998803Y884398D01*
X998796Y884394D01*
X998786Y884394D01*
X998059Y884205D01*
X998052Y884202D01*
X998043Y884201D01*
X997322Y883988D01*
X997310Y883982D01*
X997295Y883979D01*
X996587Y883726D01*
X996577Y883720D01*
X996563Y883717D01*
X995869Y883429D01*
X995861Y883424D01*
X995850Y883421D01*
X995168Y883104D01*
X995161Y883099D01*
X995150Y883095D01*
X994481Y882751D01*
X994471Y882743D01*
X994457Y882737D01*
X993809Y882356D01*
X993800Y882349D01*
X993788Y882343D01*
X993159Y881931D01*
X993152Y881924D01*
X993141Y881918D01*
X992531Y881479D01*
X992524Y881472D01*
X992513Y881466D01*
X991924Y880999D01*
X991916Y880991D01*
X991904Y880983D01*
X991339Y880487D01*
X991330Y880476D01*
X991316Y880466D01*
X990782Y879936D01*
X990776Y879926D01*
X990764Y879917D01*
X990260Y879360D01*
X990254Y879350D01*
X990242Y879340D01*
X989768Y878757D01*
X989763Y878747D01*
X989753Y878737D01*
X989308Y878131D01*
X989304Y878122D01*
X989295Y878113D01*
X988877Y877488D01*
X988873Y877478D01*
X988864Y877468D01*
X988477Y876823D01*
X988473Y876812D01*
X988465Y876801D01*
X988110Y876138D01*
X988108Y876131D01*
X988102Y876123D01*
X987771Y875448D01*
X987769Y875440D01*
X987764Y875433D01*
X987456Y874747D01*
X987453Y874736D01*
X987446Y874724D01*
X987172Y874024D01*
X987170Y874016D01*
X987165Y874007D01*
X986917Y873297D01*
X986916Y873289D01*
X986912Y873281D01*
X986687Y872564D01*
X986686Y872557D01*
X986683Y872549D01*
X986480Y871825D01*
X986480Y871817D01*
X986476Y871808D01*
X986299Y871077D01*
X986298Y871066D01*
X986293Y871052D01*
X985873Y868836D01*
X985873Y868823D01*
X985868Y868808D01*
X985576Y866571D01*
X985577Y866558D01*
X985573Y866543D01*
X985405Y864293D01*
X985407Y864278D01*
X985404Y864259D01*
X985340Y852466D01*
X985244Y852390D01*
X962102Y852390D01*
X962091Y852388D01*
X962080Y852389D01*
X961994Y852368D01*
X961907Y852350D01*
X961898Y852344D01*
X961887Y852341D01*
X961817Y852288D01*
X961744Y852238D01*
X961737Y852228D01*
X961728Y852221D01*
X961640Y852080D01*
X961422Y851546D01*
X961419Y851533D01*
X961412Y851521D01*
X961385Y851357D01*
X961385Y838572D01*
X961387Y838562D01*
X961385Y838552D01*
X961406Y838465D01*
X961424Y838377D01*
X961430Y838368D01*
X961432Y838359D01*
X961486Y838287D01*
X961537Y838213D01*
X961545Y838207D01*
X961551Y838199D01*
X961692Y838111D01*
X962223Y837889D01*
X962238Y837887D01*
X962251Y837879D01*
X962415Y837851D01*
X1023333Y837851D01*
X1023342Y837853D01*
G37*
G36*
X968074Y887989D02*
X968074Y887989D01*
X968166Y888000D01*
X968173Y888004D01*
X968180Y888005D01*
X968211Y888024D01*
X968313Y888078D01*
X968865Y888504D01*
X968877Y888518D01*
X968896Y888530D01*
X978919Y897648D01*
X978932Y897667D01*
X978951Y897681D01*
X978991Y897746D01*
X979036Y897808D01*
X979041Y897831D01*
X979053Y897851D01*
X979064Y897927D01*
X979082Y898002D01*
X979078Y898025D01*
X979081Y898048D01*
X979061Y898123D01*
X979048Y898198D01*
X979035Y898218D01*
X979029Y898240D01*
X978959Y898336D01*
X978941Y898365D01*
X978935Y898369D01*
X978931Y898375D01*
X978447Y898846D01*
X978438Y898852D01*
X978428Y898864D01*
X977873Y899352D01*
X977351Y899858D01*
X976858Y900391D01*
X976394Y900950D01*
X975958Y901530D01*
X975556Y902134D01*
X975186Y902757D01*
X974854Y903404D01*
X974548Y904068D01*
X974273Y904742D01*
X974031Y905430D01*
X973823Y906127D01*
X973648Y906834D01*
X973510Y907547D01*
X973410Y908268D01*
X973345Y908991D01*
X973322Y909716D01*
X973336Y910443D01*
X973387Y911170D01*
X973473Y911891D01*
X973596Y912608D01*
X973755Y913318D01*
X973948Y914014D01*
X974188Y914691D01*
X974473Y915348D01*
X974804Y915978D01*
X975186Y916568D01*
X975625Y917109D01*
X976120Y917593D01*
X976668Y918008D01*
X977257Y918339D01*
X977890Y918566D01*
X978559Y918698D01*
X979246Y918742D01*
X979935Y918700D01*
X980610Y918572D01*
X981258Y918359D01*
X981865Y918056D01*
X982416Y917669D01*
X982904Y917192D01*
X983347Y916644D01*
X983758Y916051D01*
X984141Y915432D01*
X984501Y914792D01*
X984833Y914145D01*
X985430Y912790D01*
X985694Y912111D01*
X989039Y902130D01*
X989046Y902118D01*
X989050Y902100D01*
X989335Y901404D01*
X989339Y901398D01*
X989341Y901390D01*
X989953Y900015D01*
X989960Y900005D01*
X989965Y899990D01*
X990653Y898650D01*
X990657Y898644D01*
X990660Y898636D01*
X991026Y897978D01*
X991031Y897972D01*
X991035Y897964D01*
X991422Y897319D01*
X991428Y897313D01*
X991432Y897303D01*
X991843Y896673D01*
X991849Y896666D01*
X991855Y896656D01*
X992291Y896043D01*
X992300Y896034D01*
X992308Y896020D01*
X992778Y895433D01*
X992785Y895427D01*
X992791Y895417D01*
X993285Y894849D01*
X993293Y894842D01*
X993301Y894832D01*
X993820Y894288D01*
X993829Y894282D01*
X993836Y894272D01*
X994380Y893751D01*
X994387Y893747D01*
X994394Y893738D01*
X994956Y893239D01*
X994966Y893234D01*
X994974Y893224D01*
X995560Y892751D01*
X995571Y892746D01*
X995581Y892735D01*
X996190Y892293D01*
X996201Y892289D01*
X996211Y892279D01*
X996842Y891869D01*
X996855Y891864D01*
X996869Y891853D01*
X997524Y891484D01*
X997538Y891479D01*
X997553Y891469D01*
X998231Y891143D01*
X998248Y891139D01*
X998266Y891128D01*
X998968Y890855D01*
X998981Y890853D01*
X998996Y890845D01*
X999713Y890615D01*
X999723Y890614D01*
X999735Y890608D01*
X1000462Y890413D01*
X1000473Y890412D01*
X1000485Y890407D01*
X1001220Y890246D01*
X1001234Y890245D01*
X1001252Y890240D01*
X1001996Y890127D01*
X1002003Y890127D01*
X1002012Y890125D01*
X1002759Y890036D01*
X1002767Y890036D01*
X1002777Y890034D01*
X1003527Y889972D01*
X1003540Y889973D01*
X1003555Y889970D01*
X1005059Y889931D01*
X1005074Y889933D01*
X1005092Y889931D01*
X1006596Y889990D01*
X1006605Y889992D01*
X1006615Y889991D01*
X1007365Y890049D01*
X1007378Y890052D01*
X1007394Y890052D01*
X1008140Y890153D01*
X1008146Y890155D01*
X1008153Y890155D01*
X1008896Y890276D01*
X1008903Y890278D01*
X1008911Y890278D01*
X1009650Y890422D01*
X1009662Y890427D01*
X1009677Y890428D01*
X1010407Y890613D01*
X1010414Y890616D01*
X1010424Y890617D01*
X1011146Y890828D01*
X1011154Y890832D01*
X1011164Y890834D01*
X1011878Y891072D01*
X1011891Y891079D01*
X1011908Y891083D01*
X1012605Y891365D01*
X1012613Y891370D01*
X1012624Y891373D01*
X1013310Y891684D01*
X1013316Y891689D01*
X1013326Y891691D01*
X1014000Y892027D01*
X1014008Y892033D01*
X1014020Y892037D01*
X1014678Y892403D01*
X1014686Y892410D01*
X1014698Y892414D01*
X1015338Y892809D01*
X1015343Y892814D01*
X1015352Y892818D01*
X1015979Y893234D01*
X1015985Y893240D01*
X1015993Y893244D01*
X1016606Y893681D01*
X1016613Y893689D01*
X1016625Y893696D01*
X1017216Y894162D01*
X1017222Y894169D01*
X1017231Y894175D01*
X1017803Y894664D01*
X1017808Y894670D01*
X1017816Y894676D01*
X1018370Y895186D01*
X1018375Y895193D01*
X1018383Y895199D01*
X1018917Y895729D01*
X1018923Y895738D01*
X1018934Y895746D01*
X1019442Y896302D01*
X1019447Y896310D01*
X1019456Y896318D01*
X1019940Y896894D01*
X1019943Y896901D01*
X1019950Y896907D01*
X1020414Y897499D01*
X1020417Y897505D01*
X1020423Y897510D01*
X1020871Y898115D01*
X1020876Y898126D01*
X1020886Y898137D01*
X1021301Y898766D01*
X1021305Y898775D01*
X1021313Y898784D01*
X1022085Y900075D01*
X1022089Y900086D01*
X1022098Y900098D01*
X1022451Y900763D01*
X1022454Y900774D01*
X1022462Y900786D01*
X1023099Y902150D01*
X1023101Y902158D01*
X1023106Y902167D01*
X1023398Y902861D01*
X1023401Y902872D01*
X1023408Y902884D01*
X1023664Y903592D01*
X1023666Y903599D01*
X1023670Y903608D01*
X1024135Y905039D01*
X1024136Y905050D01*
X1024141Y905061D01*
X1024341Y905786D01*
X1024342Y905794D01*
X1024345Y905802D01*
X1024700Y907264D01*
X1024701Y907274D01*
X1024705Y907285D01*
X1024851Y908023D01*
X1024851Y908031D01*
X1024854Y908040D01*
X1025096Y909526D01*
X1025095Y909534D01*
X1025098Y909544D01*
X1025192Y910291D01*
X1025192Y910299D01*
X1025194Y910310D01*
X1025325Y911809D01*
X1025324Y911817D01*
X1025326Y911826D01*
X1025367Y912577D01*
X1025365Y912586D01*
X1025367Y912597D01*
X1025389Y914102D01*
X1025388Y914109D01*
X1025389Y914118D01*
X1025376Y914871D01*
X1025375Y914877D01*
X1025376Y914885D01*
X1025307Y916388D01*
X1025304Y916399D01*
X1025305Y916412D01*
X1025165Y917911D01*
X1025163Y917917D01*
X1025164Y917926D01*
X1025070Y918673D01*
X1025068Y918680D01*
X1025068Y918689D01*
X1024834Y920176D01*
X1024831Y920184D01*
X1024831Y920195D01*
X1024685Y920933D01*
X1024684Y920936D01*
X1024684Y920939D01*
X1024531Y921675D01*
X1024527Y921684D01*
X1024526Y921696D01*
X1024156Y923155D01*
X1024154Y923161D01*
X1024153Y923169D01*
X1023948Y923893D01*
X1023944Y923900D01*
X1023942Y923911D01*
X1023711Y924627D01*
X1023709Y924630D01*
X1023708Y924634D01*
X1023465Y925347D01*
X1023460Y925356D01*
X1023457Y925368D01*
X1023181Y926069D01*
X1023178Y926073D01*
X1023177Y926079D01*
X1022886Y926773D01*
X1022882Y926779D01*
X1022880Y926787D01*
X1022567Y927472D01*
X1022559Y927482D01*
X1022555Y927496D01*
X1021855Y928829D01*
X1021845Y928841D01*
X1021838Y928859D01*
X1021048Y930140D01*
X1021042Y930147D01*
X1021038Y930157D01*
X1020618Y930782D01*
X1020610Y930790D01*
X1020604Y930802D01*
X1019703Y932008D01*
X1019693Y932016D01*
X1019685Y932030D01*
X1019200Y932606D01*
X1019190Y932614D01*
X1019183Y932625D01*
X1019051Y932726D01*
X1018546Y932993D01*
X1018524Y932999D01*
X1018506Y933012D01*
X1018430Y933027D01*
X1018355Y933048D01*
X1018333Y933046D01*
X1018311Y933050D01*
X1018235Y933034D01*
X1018158Y933025D01*
X1018138Y933014D01*
X1018116Y933010D01*
X1018013Y932943D01*
X1017985Y932927D01*
X1017982Y932923D01*
X1017976Y932919D01*
X1007979Y923774D01*
X1007976Y923769D01*
X1007974Y923768D01*
X1007968Y923759D01*
X1007957Y923744D01*
X1007928Y923720D01*
X1007899Y923664D01*
X1007862Y923613D01*
X1007854Y923577D01*
X1007836Y923544D01*
X1007831Y923481D01*
X1007817Y923420D01*
X1007823Y923383D01*
X1007820Y923346D01*
X1007840Y923286D01*
X1007851Y923224D01*
X1007871Y923192D01*
X1007883Y923157D01*
X1007935Y923094D01*
X1007959Y923057D01*
X1007974Y923046D01*
X1007989Y923028D01*
X1008542Y922550D01*
X1009036Y922041D01*
X1009486Y921491D01*
X1009892Y920904D01*
X1010254Y920286D01*
X1010571Y919644D01*
X1010846Y918975D01*
X1011089Y918287D01*
X1011303Y917587D01*
X1011487Y916878D01*
X1011644Y916165D01*
X1011764Y915449D01*
X1011843Y914727D01*
X1011887Y914003D01*
X1011887Y913280D01*
X1011847Y912556D01*
X1011766Y911836D01*
X1011646Y911119D01*
X1011491Y910410D01*
X1011296Y909715D01*
X1011059Y909033D01*
X1010780Y908371D01*
X1010459Y907736D01*
X1010086Y907142D01*
X1009654Y906598D01*
X1009161Y906112D01*
X1008621Y905695D01*
X1008033Y905372D01*
X1007398Y905150D01*
X1006728Y905026D01*
X1006038Y904987D01*
X1005347Y905028D01*
X1004674Y905155D01*
X1004031Y905373D01*
X1003434Y905679D01*
X1002905Y906083D01*
X1002438Y906577D01*
X1002022Y907145D01*
X1001634Y907757D01*
X1001273Y908391D01*
X1000941Y909037D01*
X1000347Y910389D01*
X1000091Y911079D01*
X999839Y911776D01*
X999611Y912481D01*
X997166Y920388D01*
X997160Y920400D01*
X997157Y920415D01*
X996895Y921120D01*
X996891Y921126D01*
X996889Y921134D01*
X996324Y922528D01*
X996316Y922539D01*
X996312Y922554D01*
X995668Y923915D01*
X995660Y923926D01*
X995655Y923942D01*
X994931Y925261D01*
X994926Y925266D01*
X994924Y925274D01*
X994543Y925923D01*
X994536Y925931D01*
X994531Y925943D01*
X994120Y926573D01*
X994111Y926582D01*
X994104Y926595D01*
X993660Y927203D01*
X993652Y927210D01*
X993646Y927222D01*
X993174Y927808D01*
X993165Y927815D01*
X993158Y927826D01*
X992659Y928389D01*
X992650Y928395D01*
X992643Y928405D01*
X992118Y928944D01*
X992109Y928950D01*
X992102Y928960D01*
X991554Y929475D01*
X991546Y929480D01*
X991539Y929488D01*
X990970Y929981D01*
X990959Y929988D01*
X990947Y930000D01*
X990350Y930459D01*
X990341Y930463D01*
X990333Y930472D01*
X989716Y930903D01*
X989707Y930908D01*
X989697Y930917D01*
X989061Y931319D01*
X989049Y931323D01*
X989037Y931333D01*
X988380Y931699D01*
X988365Y931704D01*
X988348Y931716D01*
X987665Y932033D01*
X987649Y932037D01*
X987630Y932047D01*
X986926Y932312D01*
X986915Y932314D01*
X986903Y932321D01*
X986187Y932551D01*
X986177Y932552D01*
X986166Y932557D01*
X985440Y932756D01*
X985425Y932757D01*
X985408Y932763D01*
X984670Y932914D01*
X984659Y932914D01*
X984646Y932918D01*
X983159Y933146D01*
X983140Y933145D01*
X983116Y933150D01*
X981614Y933250D01*
X981605Y933249D01*
X981594Y933251D01*
X980842Y933271D01*
X980835Y933269D01*
X980826Y933271D01*
X980074Y933267D01*
X980069Y933266D01*
X980064Y933267D01*
X979312Y933249D01*
X979302Y933247D01*
X979290Y933248D01*
X978539Y933197D01*
X978534Y933195D01*
X978529Y933196D01*
X977779Y933129D01*
X977771Y933127D01*
X977760Y933127D01*
X977013Y933032D01*
X977001Y933028D01*
X976986Y933027D01*
X975506Y932754D01*
X975494Y932750D01*
X975479Y932749D01*
X974747Y932571D01*
X974738Y932567D01*
X974726Y932565D01*
X974004Y932356D01*
X973997Y932352D01*
X973988Y932351D01*
X973273Y932118D01*
X973263Y932113D01*
X973251Y932110D01*
X972546Y931844D01*
X972535Y931837D01*
X972520Y931833D01*
X971832Y931527D01*
X971826Y931523D01*
X971816Y931520D01*
X971140Y931190D01*
X971134Y931185D01*
X971125Y931182D01*
X970460Y930828D01*
X970451Y930820D01*
X970437Y930815D01*
X969792Y930425D01*
X969787Y930420D01*
X969779Y930417D01*
X969148Y930008D01*
X969142Y930003D01*
X969134Y929999D01*
X968516Y929569D01*
X968509Y929561D01*
X968497Y929555D01*
X967900Y929096D01*
X967893Y929088D01*
X967881Y929080D01*
X967308Y928592D01*
X967303Y928586D01*
X967295Y928581D01*
X966740Y928072D01*
X966735Y928066D01*
X966727Y928060D01*
X966190Y927532D01*
X966184Y927523D01*
X966173Y927514D01*
X965663Y926960D01*
X965658Y926952D01*
X965648Y926944D01*
X965164Y926368D01*
X965160Y926361D01*
X965154Y926355D01*
X964689Y925763D01*
X964686Y925756D01*
X964679Y925749D01*
X964234Y925142D01*
X964229Y925131D01*
X964220Y925121D01*
X963807Y924491D01*
X963804Y924485D01*
X963799Y924478D01*
X963406Y923836D01*
X963404Y923830D01*
X963398Y923823D01*
X963025Y923170D01*
X963022Y923162D01*
X963016Y923154D01*
X962667Y922487D01*
X962664Y922478D01*
X962657Y922469D01*
X962336Y921788D01*
X962334Y921781D01*
X962330Y921774D01*
X962029Y921085D01*
X962028Y921078D01*
X962024Y921071D01*
X961743Y920373D01*
X961741Y920361D01*
X961734Y920348D01*
X961249Y918923D01*
X961248Y918914D01*
X961243Y918904D01*
X961028Y918183D01*
X961027Y918176D01*
X961024Y918169D01*
X960831Y917441D01*
X960830Y917433D01*
X960827Y917423D01*
X960494Y915956D01*
X960493Y915947D01*
X960490Y915938D01*
X960350Y915198D01*
X960350Y915188D01*
X960346Y915175D01*
X960032Y912939D01*
X960033Y912928D01*
X960029Y912914D01*
X959962Y912165D01*
X959963Y912159D01*
X959961Y912153D01*
X959864Y910650D01*
X959865Y910642D01*
X959863Y910631D01*
X959822Y909127D01*
X959824Y909116D01*
X959822Y909103D01*
X959851Y907598D01*
X959853Y907590D01*
X959852Y907579D01*
X959939Y906076D01*
X959942Y906066D01*
X959941Y906054D01*
X960095Y904557D01*
X960098Y904547D01*
X960098Y904534D01*
X960319Y903045D01*
X960322Y903036D01*
X960323Y903023D01*
X960612Y901546D01*
X960615Y901538D01*
X960615Y901529D01*
X960785Y900796D01*
X960788Y900788D01*
X960789Y900777D01*
X961184Y899325D01*
X961188Y899315D01*
X961190Y899302D01*
X961652Y897870D01*
X961658Y897859D01*
X961661Y897845D01*
X961930Y897142D01*
X961931Y897140D01*
X961932Y897137D01*
X962208Y896436D01*
X962215Y896426D01*
X962219Y896410D01*
X962850Y895044D01*
X962857Y895033D01*
X962862Y895019D01*
X963569Y893690D01*
X963575Y893683D01*
X963578Y893673D01*
X963957Y893023D01*
X963963Y893016D01*
X963967Y893005D01*
X964777Y891736D01*
X964785Y891727D01*
X964792Y891713D01*
X965671Y890491D01*
X965679Y890483D01*
X965686Y890471D01*
X966624Y889294D01*
X966632Y889287D01*
X966639Y889275D01*
X967633Y888144D01*
X967706Y888088D01*
X967777Y888031D01*
X967785Y888028D01*
X967791Y888024D01*
X967880Y888001D01*
X967968Y887976D01*
X967976Y887977D01*
X967984Y887975D01*
X968074Y887989D01*
G37*
G36*
X983375Y756017D02*
X983375Y756017D01*
X984129Y756035D01*
X984140Y756037D01*
X984153Y756036D01*
X985657Y756144D01*
X985667Y756147D01*
X985680Y756147D01*
X986429Y756237D01*
X986439Y756240D01*
X986452Y756240D01*
X987939Y756490D01*
X987951Y756495D01*
X987967Y756495D01*
X988702Y756663D01*
X988711Y756667D01*
X988724Y756668D01*
X990177Y757069D01*
X990190Y757076D01*
X990209Y757079D01*
X990921Y757328D01*
X990930Y757333D01*
X990942Y757336D01*
X992341Y757897D01*
X992353Y757905D01*
X992370Y757910D01*
X993051Y758235D01*
X993059Y758241D01*
X993070Y758245D01*
X994400Y758954D01*
X994410Y758962D01*
X994424Y758968D01*
X995069Y759359D01*
X995078Y759366D01*
X995091Y759372D01*
X996338Y760219D01*
X996346Y760227D01*
X996358Y760233D01*
X996961Y760687D01*
X996968Y760695D01*
X996979Y760701D01*
X997559Y761182D01*
X997564Y761187D01*
X997571Y761192D01*
X998137Y761690D01*
X998141Y761695D01*
X998148Y761700D01*
X998698Y762214D01*
X998705Y762224D01*
X998717Y762233D01*
X999240Y762777D01*
X999245Y762785D01*
X999255Y762792D01*
X1000252Y763923D01*
X1000259Y763934D01*
X1000271Y763945D01*
X1000735Y764539D01*
X1000741Y764550D01*
X1000751Y764560D01*
X1001617Y765794D01*
X1001621Y765804D01*
X1001630Y765814D01*
X1002033Y766452D01*
X1002036Y766461D01*
X1002044Y766471D01*
X1002418Y767126D01*
X1002421Y767134D01*
X1002427Y767143D01*
X1003121Y768482D01*
X1003125Y768495D01*
X1003134Y768509D01*
X1003440Y769198D01*
X1003442Y769205D01*
X1003447Y769213D01*
X1004013Y770611D01*
X1004015Y770627D01*
X1004025Y770644D01*
X1004490Y772078D01*
X1004491Y772086D01*
X1004495Y772095D01*
X1004703Y772819D01*
X1004704Y772831D01*
X1004710Y772845D01*
X1005049Y774313D01*
X1005049Y774322D01*
X1005053Y774332D01*
X1005195Y775072D01*
X1005195Y775083D01*
X1005199Y775097D01*
X1005410Y776590D01*
X1005409Y776597D01*
X1005412Y776607D01*
X1005491Y777357D01*
X1005490Y777367D01*
X1005493Y777379D01*
X1005583Y778884D01*
X1005581Y778896D01*
X1005584Y778910D01*
X1005595Y780293D01*
X1005591Y780312D01*
X1005594Y780331D01*
X1005572Y780409D01*
X1005572Y780412D01*
X1005593Y780558D01*
X1005578Y781187D01*
X1005576Y781195D01*
X1005578Y781206D01*
X1005532Y781958D01*
X1005530Y781965D01*
X1005531Y781975D01*
X1005391Y783476D01*
X1005387Y783488D01*
X1005387Y783505D01*
X1005160Y784995D01*
X1005157Y785003D01*
X1005157Y785014D01*
X1005014Y785755D01*
X1005010Y785765D01*
X1005009Y785779D01*
X1004651Y787243D01*
X1004647Y787252D01*
X1004646Y787263D01*
X1004437Y787987D01*
X1004432Y787997D01*
X1004430Y788009D01*
X1003948Y789437D01*
X1003942Y789447D01*
X1003939Y789460D01*
X1003664Y790162D01*
X1003661Y790166D01*
X1003660Y790167D01*
X1003658Y790170D01*
X1003655Y790182D01*
X1003041Y791560D01*
X1003035Y791568D01*
X1003032Y791580D01*
X1002695Y792254D01*
X1002687Y792264D01*
X1002681Y792279D01*
X1001932Y793587D01*
X1001926Y793595D01*
X1001921Y793606D01*
X1001517Y794243D01*
X1001510Y794251D01*
X1001505Y794262D01*
X1001073Y794880D01*
X1001066Y794887D01*
X1001060Y794897D01*
X1000144Y796094D01*
X1000133Y796104D01*
X1000124Y796120D01*
X999627Y796687D01*
X999619Y796694D01*
X999612Y796705D01*
X998567Y797792D01*
X998557Y797799D01*
X998547Y797812D01*
X997994Y798325D01*
X997987Y798329D01*
X997980Y798337D01*
X997408Y798829D01*
X997403Y798832D01*
X997397Y798838D01*
X996811Y799313D01*
X996805Y799316D01*
X996799Y799322D01*
X996198Y799778D01*
X996186Y799783D01*
X996174Y799795D01*
X995548Y800215D01*
X995540Y800218D01*
X995532Y800225D01*
X994249Y801016D01*
X994236Y801021D01*
X994224Y801031D01*
X993560Y801389D01*
X993550Y801392D01*
X993540Y801399D01*
X992182Y802054D01*
X992169Y802057D01*
X992155Y802066D01*
X991458Y802352D01*
X991446Y802354D01*
X991434Y802361D01*
X991298Y802409D01*
X990012Y802863D01*
X989999Y802865D01*
X989983Y802872D01*
X989258Y803079D01*
X989247Y803080D01*
X989234Y803085D01*
X987766Y803426D01*
X987753Y803427D01*
X987738Y803432D01*
X986995Y803561D01*
X986986Y803561D01*
X986975Y803564D01*
X985479Y803759D01*
X985466Y803758D01*
X985449Y803762D01*
X984697Y803813D01*
X984690Y803813D01*
X984682Y803814D01*
X983175Y803870D01*
X983164Y803869D01*
X983150Y803871D01*
X982396Y803861D01*
X982393Y803861D01*
X982388Y803861D01*
X981634Y803839D01*
X981623Y803837D01*
X981608Y803838D01*
X980106Y803716D01*
X980097Y803714D01*
X980087Y803714D01*
X979338Y803624D01*
X979325Y803620D01*
X979309Y803620D01*
X977825Y803351D01*
X977816Y803347D01*
X977804Y803347D01*
X977068Y803180D01*
X977056Y803174D01*
X977040Y803172D01*
X975592Y802752D01*
X975581Y802746D01*
X975567Y802743D01*
X974855Y802495D01*
X974844Y802488D01*
X974828Y802484D01*
X973436Y801905D01*
X973429Y801900D01*
X973423Y801898D01*
X973419Y801896D01*
X973413Y801894D01*
X972733Y801569D01*
X972722Y801562D01*
X972708Y801557D01*
X971386Y800832D01*
X971379Y800825D01*
X971367Y800821D01*
X970722Y800430D01*
X970715Y800424D01*
X970704Y800419D01*
X970077Y800000D01*
X970071Y799995D01*
X970062Y799990D01*
X969450Y799551D01*
X969445Y799545D01*
X969437Y799541D01*
X968840Y799080D01*
X968834Y799073D01*
X968824Y799067D01*
X968246Y798582D01*
X968241Y798576D01*
X968232Y798570D01*
X967673Y798065D01*
X967669Y798059D01*
X967662Y798054D01*
X967119Y797532D01*
X967114Y797525D01*
X967106Y797519D01*
X966582Y796976D01*
X966577Y796968D01*
X966567Y796961D01*
X966067Y796396D01*
X966062Y796387D01*
X966053Y796379D01*
X965105Y795207D01*
X965098Y795194D01*
X965085Y795181D01*
X964651Y794565D01*
X964647Y794556D01*
X964639Y794547D01*
X963824Y793279D01*
X963819Y793267D01*
X963810Y793255D01*
X963438Y792599D01*
X963434Y792588D01*
X963426Y792577D01*
X962749Y791230D01*
X962746Y791219D01*
X962738Y791207D01*
X962434Y790517D01*
X962432Y790508D01*
X962426Y790498D01*
X961876Y789094D01*
X961875Y789084D01*
X961869Y789073D01*
X961626Y788359D01*
X961624Y788349D01*
X961619Y788337D01*
X961200Y786888D01*
X961199Y786878D01*
X961194Y786866D01*
X961019Y786132D01*
X961019Y786123D01*
X961015Y786112D01*
X960725Y784633D01*
X960725Y784622D01*
X960721Y784609D01*
X960612Y783863D01*
X960612Y783856D01*
X960610Y783848D01*
X960438Y782350D01*
X960439Y782335D01*
X960435Y782317D01*
X960362Y780811D01*
X960363Y780805D01*
X960362Y780798D01*
X960345Y780044D01*
X960347Y780034D01*
X960345Y780021D01*
X960382Y778514D01*
X960383Y778506D01*
X960382Y778498D01*
X960425Y777745D01*
X960428Y777734D01*
X960427Y777721D01*
X960583Y776222D01*
X960585Y776213D01*
X960585Y776201D01*
X960695Y775455D01*
X960698Y775447D01*
X960698Y775437D01*
X960971Y773954D01*
X960975Y773943D01*
X960976Y773929D01*
X961152Y773195D01*
X961155Y773188D01*
X961156Y773178D01*
X961558Y771725D01*
X961564Y771713D01*
X961566Y771697D01*
X961809Y770984D01*
X961813Y770977D01*
X961815Y770967D01*
X962350Y769558D01*
X962356Y769548D01*
X962360Y769534D01*
X962664Y768844D01*
X962669Y768836D01*
X962672Y768826D01*
X963334Y767471D01*
X963342Y767460D01*
X963348Y767445D01*
X963719Y766788D01*
X963725Y766781D01*
X963730Y766770D01*
X964528Y765490D01*
X964537Y765481D01*
X964544Y765466D01*
X964979Y764851D01*
X964985Y764845D01*
X964990Y764836D01*
X965448Y764237D01*
X965453Y764233D01*
X965458Y764225D01*
X965934Y763641D01*
X965940Y763635D01*
X965946Y763627D01*
X966443Y763060D01*
X966450Y763055D01*
X966457Y763046D01*
X966976Y762499D01*
X966982Y762495D01*
X966987Y762488D01*
X967523Y761958D01*
X967529Y761954D01*
X967534Y761947D01*
X968087Y761434D01*
X968097Y761428D01*
X968106Y761417D01*
X968685Y760934D01*
X968694Y760929D01*
X968702Y760920D01*
X969901Y760006D01*
X969913Y760001D01*
X969924Y759990D01*
X970549Y759568D01*
X970560Y759563D01*
X970571Y759553D01*
X971863Y758776D01*
X971873Y758772D01*
X971883Y758764D01*
X972547Y758407D01*
X972560Y758403D01*
X972573Y758394D01*
X973939Y757756D01*
X973949Y757754D01*
X973960Y757747D01*
X974658Y757460D01*
X974672Y757458D01*
X974688Y757449D01*
X976116Y756967D01*
X976127Y756966D01*
X976139Y756960D01*
X976864Y756753D01*
X976878Y756752D01*
X976894Y756745D01*
X978367Y756423D01*
X978377Y756423D01*
X978388Y756419D01*
X979131Y756290D01*
X979143Y756290D01*
X979158Y756286D01*
X980655Y756110D01*
X980666Y756111D01*
X980679Y756108D01*
X981432Y756056D01*
X981440Y756057D01*
X981450Y756055D01*
X982957Y756007D01*
X982969Y756009D01*
X982985Y756007D01*
X983375Y756017D01*
G37*
G36*
X1003571Y625827D02*
X1003571Y625827D01*
X1003594Y625825D01*
X1003709Y625856D01*
X1003743Y625862D01*
X1003748Y625866D01*
X1003755Y625868D01*
X1004271Y626103D01*
X1004273Y626104D01*
X1004274Y626104D01*
X1004351Y626161D01*
X1004432Y626220D01*
X1004433Y626221D01*
X1004434Y626222D01*
X1004483Y626305D01*
X1004535Y626390D01*
X1004535Y626392D01*
X1004536Y626393D01*
X1004564Y626557D01*
X1004564Y639339D01*
X1004562Y639347D01*
X1004563Y639356D01*
X1004542Y639444D01*
X1004524Y639534D01*
X1004519Y639541D01*
X1004517Y639549D01*
X1004463Y639622D01*
X1004411Y639698D01*
X1004404Y639702D01*
X1004399Y639709D01*
X1004321Y639756D01*
X1004244Y639805D01*
X1004236Y639806D01*
X1004228Y639811D01*
X1004064Y639838D01*
X962091Y639838D01*
X962073Y639835D01*
X962054Y639837D01*
X961976Y639815D01*
X961896Y639799D01*
X961881Y639788D01*
X961863Y639783D01*
X961799Y639732D01*
X961732Y639686D01*
X961722Y639671D01*
X961707Y639659D01*
X961632Y639530D01*
X961625Y639519D01*
X961625Y639517D01*
X961624Y639516D01*
X961417Y638970D01*
X961416Y638963D01*
X961413Y638957D01*
X961385Y638793D01*
X961385Y626764D01*
X961399Y626696D01*
X961404Y626626D01*
X961420Y626595D01*
X961425Y626569D01*
X961449Y626534D01*
X961476Y626476D01*
X961787Y626035D01*
X961827Y625997D01*
X961860Y625952D01*
X961899Y625929D01*
X961931Y625898D01*
X961983Y625879D01*
X962031Y625851D01*
X962083Y625842D01*
X962118Y625829D01*
X962150Y625830D01*
X962195Y625823D01*
X1003548Y625823D01*
X1003571Y625827D01*
G37*
%LPC*%
G36*
X982248Y717111D02*
X982248Y717111D01*
X981516Y717163D01*
X980800Y717244D01*
X980097Y717388D01*
X979394Y717569D01*
X978709Y717786D01*
X978051Y718055D01*
X977414Y718379D01*
X976801Y718748D01*
X976218Y719159D01*
X975674Y719615D01*
X975173Y720118D01*
X974711Y720661D01*
X974295Y721235D01*
X973937Y721842D01*
X973729Y722289D01*
X973637Y722486D01*
X973381Y723156D01*
X973170Y723839D01*
X973019Y724538D01*
X972914Y725254D01*
X972838Y725976D01*
X972809Y726701D01*
X972815Y727433D01*
X972844Y728158D01*
X972930Y728874D01*
X973048Y729593D01*
X973201Y730291D01*
X973421Y730967D01*
X973690Y731630D01*
X974005Y732272D01*
X974364Y732879D01*
X974789Y733441D01*
X975263Y733975D01*
X975775Y734472D01*
X976319Y734926D01*
X976908Y735322D01*
X977530Y735679D01*
X978175Y735994D01*
X978835Y736263D01*
X979518Y736467D01*
X980223Y736633D01*
X980935Y736763D01*
X981654Y736846D01*
X982382Y736889D01*
X983109Y736907D01*
X983834Y736878D01*
X984561Y736815D01*
X985280Y736722D01*
X985984Y736581D01*
X986680Y736392D01*
X987363Y736161D01*
X988021Y735891D01*
X988647Y735556D01*
X989255Y735175D01*
X989834Y734754D01*
X990376Y734296D01*
X990864Y733786D01*
X991313Y733234D01*
X991718Y732648D01*
X992073Y732036D01*
X992363Y731391D01*
X992605Y730717D01*
X992804Y730026D01*
X992955Y729327D01*
X993048Y728611D01*
X993113Y727884D01*
X993142Y727160D01*
X993126Y726431D01*
X993086Y725704D01*
X993000Y724988D01*
X992870Y724277D01*
X992702Y723578D01*
X992482Y722903D01*
X992201Y722248D01*
X991873Y721613D01*
X991554Y721096D01*
X991551Y721088D01*
X991546Y721083D01*
X991524Y721015D01*
X991498Y720984D01*
X991440Y720930D01*
X991075Y720451D01*
X990592Y719931D01*
X990068Y719444D01*
X989511Y718997D01*
X988925Y718598D01*
X988301Y718256D01*
X987648Y717955D01*
X986980Y717696D01*
X986294Y717491D01*
X985590Y717334D01*
X984875Y717213D01*
X984157Y717133D01*
X983425Y717100D01*
X982973Y717083D01*
X982248Y717111D01*
G37*
%LPD*%
%LPC*%
G36*
X982248Y662432D02*
X982248Y662432D01*
X981516Y662485D01*
X980800Y662565D01*
X980097Y662709D01*
X979394Y662890D01*
X978709Y663107D01*
X978051Y663377D01*
X977414Y663700D01*
X976801Y664069D01*
X976218Y664480D01*
X975674Y664936D01*
X975173Y665440D01*
X974711Y665982D01*
X974295Y666556D01*
X973937Y667163D01*
X973637Y667807D01*
X973381Y668478D01*
X973170Y669160D01*
X973019Y669859D01*
X972914Y670576D01*
X972838Y671298D01*
X972809Y672022D01*
X972815Y672754D01*
X972844Y673479D01*
X972930Y674195D01*
X973048Y674914D01*
X973201Y675612D01*
X973422Y676288D01*
X973691Y676952D01*
X974005Y677593D01*
X974364Y678201D01*
X974789Y678762D01*
X975263Y679296D01*
X975775Y679794D01*
X976319Y680248D01*
X976908Y680643D01*
X977530Y681001D01*
X978175Y681315D01*
X978835Y681584D01*
X979518Y681789D01*
X980223Y681955D01*
X980935Y682084D01*
X981654Y682167D01*
X982382Y682210D01*
X983109Y682228D01*
X983834Y682200D01*
X984561Y682136D01*
X985280Y682044D01*
X985984Y681902D01*
X986679Y681713D01*
X987363Y681482D01*
X988021Y681212D01*
X988648Y680877D01*
X989255Y680497D01*
X989834Y680075D01*
X990376Y679618D01*
X990864Y679108D01*
X991313Y678556D01*
X991718Y677970D01*
X992073Y677357D01*
X992363Y676713D01*
X992605Y676039D01*
X992804Y675347D01*
X992955Y674648D01*
X993048Y673933D01*
X993113Y673206D01*
X993142Y672481D01*
X993126Y671752D01*
X993086Y671025D01*
X993000Y670310D01*
X992870Y669598D01*
X992702Y668899D01*
X992482Y668224D01*
X992201Y667570D01*
X991873Y666935D01*
X991554Y666417D01*
X991551Y666410D01*
X991546Y666404D01*
X991524Y666336D01*
X991498Y666306D01*
X991440Y666252D01*
X991075Y665772D01*
X990592Y665252D01*
X990068Y664766D01*
X989511Y664318D01*
X988925Y663919D01*
X988301Y663578D01*
X987649Y663276D01*
X986980Y663018D01*
X986294Y662813D01*
X985590Y662655D01*
X984875Y662535D01*
X984157Y662454D01*
X983425Y662422D01*
X982973Y662404D01*
X982248Y662432D01*
G37*
%LPD*%
%LPC*%
G36*
X982247Y770055D02*
X982247Y770055D01*
X981515Y770108D01*
X980797Y770191D01*
X980091Y770334D01*
X979388Y770514D01*
X978703Y770732D01*
X978044Y771002D01*
X977407Y771328D01*
X976793Y771699D01*
X976208Y772111D01*
X975664Y772567D01*
X975163Y773072D01*
X974701Y773616D01*
X974286Y774192D01*
X973928Y774800D01*
X973629Y775447D01*
X973374Y776119D01*
X973165Y776803D01*
X973014Y777503D01*
X972911Y778221D01*
X972837Y778945D01*
X972808Y779671D01*
X972815Y780403D01*
X972847Y781129D01*
X972933Y781847D01*
X973055Y782565D01*
X973211Y783264D01*
X973432Y783941D01*
X973704Y784604D01*
X974023Y785245D01*
X974383Y785852D01*
X974812Y786412D01*
X975290Y786943D01*
X975806Y787438D01*
X976355Y787891D01*
X976943Y788289D01*
X977567Y788641D01*
X978217Y788952D01*
X978880Y789220D01*
X979565Y789425D01*
X980271Y789589D01*
X980985Y789715D01*
X981703Y789796D01*
X982433Y789835D01*
X983163Y789848D01*
X983889Y789820D01*
X984617Y789754D01*
X985336Y789658D01*
X986040Y789514D01*
X986733Y789319D01*
X987415Y789082D01*
X988073Y788803D01*
X988703Y788470D01*
X989305Y788084D01*
X989880Y787656D01*
X990420Y787191D01*
X990909Y786680D01*
X991353Y786124D01*
X991752Y785534D01*
X992102Y784916D01*
X992393Y784269D01*
X992627Y783594D01*
X992820Y782897D01*
X992971Y782197D01*
X993056Y781481D01*
X993116Y780749D01*
X993141Y780131D01*
X993143Y780124D01*
X993142Y780118D01*
X993165Y780033D01*
X993165Y780028D01*
X993142Y779917D01*
X993123Y779297D01*
X993076Y778567D01*
X992990Y777849D01*
X992853Y777141D01*
X992677Y776441D01*
X992456Y775765D01*
X992167Y775116D01*
X991831Y774483D01*
X991449Y773883D01*
X991021Y773323D01*
X990532Y772811D01*
X989999Y772331D01*
X989434Y771889D01*
X988844Y771492D01*
X988218Y771156D01*
X987561Y770863D01*
X986885Y770612D01*
X986199Y770407D01*
X985493Y770260D01*
X984774Y770148D01*
X984052Y770068D01*
X983317Y770040D01*
X982973Y770027D01*
X982247Y770055D01*
G37*
%LPD*%
G36*
X988160Y808092D02*
X988160Y808092D01*
X988261Y808104D01*
X988844Y808277D01*
X988877Y808295D01*
X988912Y808303D01*
X988963Y808341D01*
X989020Y808371D01*
X989043Y808399D01*
X989072Y808421D01*
X989105Y808476D01*
X989145Y808525D01*
X989155Y808561D01*
X989174Y808592D01*
X989187Y808673D01*
X989200Y808717D01*
X989198Y808734D01*
X989201Y808756D01*
X989201Y829934D01*
X989200Y829942D01*
X989201Y829951D01*
X989180Y830039D01*
X989162Y830129D01*
X989157Y830136D01*
X989155Y830144D01*
X989101Y830217D01*
X989049Y830293D01*
X989042Y830297D01*
X989037Y830304D01*
X988959Y830351D01*
X988882Y830400D01*
X988873Y830401D01*
X988866Y830406D01*
X988702Y830433D01*
X978870Y830433D01*
X978829Y830425D01*
X978727Y830413D01*
X978144Y830239D01*
X978112Y830222D01*
X978077Y830214D01*
X978025Y830176D01*
X977969Y830146D01*
X977946Y830118D01*
X977916Y830096D01*
X977884Y830041D01*
X977844Y829992D01*
X977834Y829956D01*
X977815Y829925D01*
X977801Y829844D01*
X977789Y829800D01*
X977791Y829783D01*
X977787Y829761D01*
X977787Y808583D01*
X977789Y808574D01*
X977788Y808566D01*
X977809Y808478D01*
X977827Y808388D01*
X977832Y808381D01*
X977834Y808373D01*
X977887Y808299D01*
X977939Y808224D01*
X977946Y808219D01*
X977951Y808213D01*
X978030Y808166D01*
X978107Y808117D01*
X978115Y808115D01*
X978122Y808111D01*
X978286Y808083D01*
X988119Y808083D01*
X988160Y808092D01*
G37*
%LPC*%
G36*
X997796Y852390D02*
X997796Y852390D01*
X997817Y861653D01*
X997856Y862379D01*
X997933Y863102D01*
X998042Y863826D01*
X998177Y864538D01*
X998360Y865230D01*
X998592Y865903D01*
X998880Y866553D01*
X999217Y867172D01*
X999610Y867744D01*
X1000071Y868257D01*
X1000590Y868715D01*
X1001161Y869108D01*
X1001770Y869432D01*
X1002413Y869671D01*
X1003091Y869827D01*
X1003793Y869923D01*
X1004505Y869961D01*
X1005217Y869946D01*
X1005916Y869869D01*
X1006594Y869722D01*
X1007241Y869495D01*
X1007843Y869186D01*
X1008392Y868781D01*
X1008903Y868305D01*
X1009364Y867780D01*
X1009765Y867207D01*
X1010109Y866591D01*
X1010403Y865945D01*
X1010644Y865270D01*
X1010845Y864579D01*
X1010998Y863875D01*
X1011112Y863162D01*
X1011252Y861686D01*
X1011306Y860949D01*
X1011365Y859465D01*
X1011375Y852409D01*
X1011163Y852390D01*
X997796Y852390D01*
G37*
%LPD*%
G36*
X1018118Y624814D02*
X1018118Y624814D01*
X1018139Y624819D01*
X1018166Y624818D01*
X1018910Y624923D01*
X1018931Y624931D01*
X1018959Y624933D01*
X1019689Y625111D01*
X1019711Y625121D01*
X1019740Y625127D01*
X1020447Y625381D01*
X1020468Y625394D01*
X1020498Y625403D01*
X1021172Y625734D01*
X1021190Y625748D01*
X1021217Y625759D01*
X1021854Y626158D01*
X1021870Y626173D01*
X1021895Y626186D01*
X1022489Y626645D01*
X1022502Y626660D01*
X1022523Y626674D01*
X1023075Y627184D01*
X1023087Y627201D01*
X1023107Y627217D01*
X1023610Y627776D01*
X1023620Y627794D01*
X1023640Y627813D01*
X1024087Y628417D01*
X1024096Y628438D01*
X1024115Y628460D01*
X1024498Y629107D01*
X1024505Y629129D01*
X1024523Y629154D01*
X1024833Y629839D01*
X1024838Y629860D01*
X1024852Y629886D01*
X1025092Y630597D01*
X1025094Y630621D01*
X1025106Y630649D01*
X1025268Y631383D01*
X1025268Y631404D01*
X1025276Y631431D01*
X1025366Y632177D01*
X1025364Y632197D01*
X1025369Y632223D01*
X1025388Y632974D01*
X1025385Y632994D01*
X1025388Y633018D01*
X1025341Y633768D01*
X1025336Y633786D01*
X1025335Y633790D01*
X1025335Y633817D01*
X1025215Y634559D01*
X1025207Y634580D01*
X1025204Y634608D01*
X1025010Y635334D01*
X1024999Y635355D01*
X1024993Y635385D01*
X1024721Y636085D01*
X1024709Y636104D01*
X1024700Y636132D01*
X1024358Y636801D01*
X1024343Y636819D01*
X1024331Y636846D01*
X1023920Y637475D01*
X1023905Y637490D01*
X1023892Y637514D01*
X1023421Y638100D01*
X1023406Y638113D01*
X1023392Y638134D01*
X1022871Y638675D01*
X1022854Y638687D01*
X1022838Y638707D01*
X1022269Y639198D01*
X1022250Y639208D01*
X1022230Y639228D01*
X1021616Y639661D01*
X1021596Y639669D01*
X1021573Y639688D01*
X1020919Y640055D01*
X1020897Y640062D01*
X1020872Y640078D01*
X1020184Y640377D01*
X1020160Y640382D01*
X1020132Y640396D01*
X1019415Y640617D01*
X1019393Y640619D01*
X1019366Y640630D01*
X1018629Y640777D01*
X1018608Y640777D01*
X1018581Y640785D01*
X1017834Y640859D01*
X1017813Y640857D01*
X1017788Y640862D01*
X1017036Y640867D01*
X1017017Y640864D01*
X1016991Y640866D01*
X1016243Y640804D01*
X1016222Y640798D01*
X1016195Y640797D01*
X1015456Y640662D01*
X1015435Y640654D01*
X1015407Y640651D01*
X1014685Y640442D01*
X1014664Y640431D01*
X1014634Y640424D01*
X1013940Y640138D01*
X1013921Y640126D01*
X1013892Y640116D01*
X1013232Y639759D01*
X1013215Y639745D01*
X1013189Y639733D01*
X1012567Y639312D01*
X1012552Y639296D01*
X1012527Y639281D01*
X1011951Y638799D01*
X1011939Y638783D01*
X1011917Y638767D01*
X1011389Y638233D01*
X1011378Y638217D01*
X1011360Y638202D01*
X1010880Y637624D01*
X1010869Y637605D01*
X1010850Y637585D01*
X1010429Y636964D01*
X1010420Y636942D01*
X1010402Y636919D01*
X1010047Y636257D01*
X1010041Y636236D01*
X1010025Y636211D01*
X1009740Y635516D01*
X1009736Y635492D01*
X1009722Y635463D01*
X1009517Y634741D01*
X1009515Y634719D01*
X1009505Y634692D01*
X1009374Y633952D01*
X1009375Y633931D01*
X1009368Y633904D01*
X1009309Y633156D01*
X1009311Y633136D01*
X1009307Y633111D01*
X1009315Y632360D01*
X1009319Y632340D01*
X1009318Y632314D01*
X1009394Y631567D01*
X1009401Y631547D01*
X1009402Y631520D01*
X1009549Y630784D01*
X1009558Y630762D01*
X1009562Y630732D01*
X1009788Y630016D01*
X1009799Y629995D01*
X1009807Y629965D01*
X1010108Y629277D01*
X1010121Y629259D01*
X1010131Y629232D01*
X1010500Y628578D01*
X1010516Y628560D01*
X1010529Y628533D01*
X1010966Y627922D01*
X1010982Y627908D01*
X1010996Y627885D01*
X1011490Y627319D01*
X1011506Y627307D01*
X1011520Y627287D01*
X1012062Y626767D01*
X1012079Y626756D01*
X1012096Y626737D01*
X1012683Y626268D01*
X1012703Y626258D01*
X1012723Y626239D01*
X1013353Y625830D01*
X1013374Y625822D01*
X1013397Y625805D01*
X1014066Y625462D01*
X1014089Y625455D01*
X1014116Y625440D01*
X1014817Y625172D01*
X1014840Y625168D01*
X1014868Y625156D01*
X1015594Y624964D01*
X1015616Y624963D01*
X1015643Y624954D01*
X1016385Y624836D01*
X1016407Y624837D01*
X1016434Y624831D01*
X1017185Y624787D01*
X1017188Y624787D01*
X1017192Y624786D01*
X1017323Y624781D01*
X1017342Y624784D01*
X1017367Y624781D01*
X1018118Y624814D01*
G37*
D10*
X893791Y431780D02*
X896527Y432411D01*
X897903Y432687D01*
X899977Y433053D01*
X901365Y433263D01*
X903454Y433521D01*
X904152Y433599D01*
X906249Y433787D01*
X909051Y433959D01*
X911857Y434045D01*
X913963Y434064D01*
X915366Y434056D01*
X917471Y433987D01*
X918872Y433906D01*
X920969Y433717D01*
X922364Y433558D01*
X923755Y433366D01*
X925139Y433133D01*
X926518Y432873D01*
X927888Y432568D01*
X929248Y432218D01*
X929923Y432027D01*
X931260Y431602D01*
X932579Y431121D01*
X933230Y430858D01*
X933874Y430578D01*
X935132Y429957D01*
X935747Y429619D01*
X936348Y429257D01*
X936935Y428873D01*
X937507Y428466D01*
X938058Y428031D01*
X938587Y427570D01*
X939091Y427082D01*
X939559Y426560D01*
X939983Y426000D01*
X940366Y425412D01*
X940706Y424799D01*
X941006Y424164D01*
X941270Y423514D01*
X941501Y422851D01*
X941698Y422178D01*
X942020Y420812D01*
X942258Y419428D01*
X942352Y418733D01*
X942860Y413846D01*
X943185Y411058D01*
X943271Y408954D01*
X943238Y407551D01*
X943195Y406851D01*
X943070Y405452D01*
X942850Y404066D01*
X942717Y403377D01*
X942405Y402009D01*
X942001Y400664D01*
X941774Y400000D01*
X941276Y398688D01*
X940697Y397409D01*
X940050Y396164D01*
X939709Y395551D01*
X938973Y394356D01*
X938570Y393781D01*
X937743Y392648D01*
X936863Y391554D01*
X935921Y390513D01*
X935431Y390011D01*
X934426Y389031D01*
X933371Y388106D01*
X932273Y387231D01*
X931713Y386808D01*
X930563Y386003D01*
X929375Y385256D01*
X928772Y384897D01*
X927546Y384213D01*
X926288Y383591D01*
X925651Y383296D01*
X924361Y382743D01*
X923047Y382250D01*
X922385Y382017D01*
X921047Y381592D01*
X919011Y381057D01*
X917638Y380765D01*
X915561Y380420D01*
X913467Y380202D01*
X912066Y380111D01*
X909961Y380085D01*
X908558Y380135D01*
X907857Y380179D01*
X906459Y380297D01*
X905764Y380395D01*
X905077Y380536D01*
X904398Y380716D01*
X903729Y380927D01*
X903070Y381169D01*
X902423Y381438D01*
X901784Y381729D01*
X901154Y382038D01*
X900535Y382370D01*
X899321Y383073D01*
X898725Y383444D01*
X897560Y384228D01*
X896416Y385041D01*
X895304Y385898D01*
X894207Y386773D01*
X892599Y388133D01*
X891029Y389535D01*
X888474Y391942D01*
X883497Y396890D01*
X930397Y389457D02*
X930680Y390101D01*
X930900Y390771D01*
X931068Y391455D01*
X931189Y392148D01*
X931269Y392848D01*
X931313Y393551D01*
X931321Y394256D01*
X931301Y394960D01*
X931252Y395663D01*
X931179Y396363D01*
X930956Y397754D01*
X930810Y398443D01*
X930444Y399804D01*
X930221Y400472D01*
X929968Y401129D01*
X929676Y401770D01*
X929030Y403022D01*
X928283Y404216D01*
X927434Y405339D01*
X926484Y406379D01*
X925971Y406862D01*
X925442Y407326D01*
X924889Y407762D01*
X924318Y408174D01*
X923730Y408563D01*
X922508Y409262D01*
X921231Y409857D01*
X919914Y410356D01*
X918564Y410761D01*
X917192Y411080D01*
X915803Y411317D01*
X914403Y411484D01*
X912998Y411578D01*
X912294Y411597D01*
X911589Y411614D01*
X910180Y411592D01*
X908774Y411515D01*
X906670Y411314D01*
X905273Y411127D01*
X904578Y411013D01*
X902500Y410628D01*
X901125Y410322D01*
X899758Y409978D01*
X897726Y409399D01*
X895715Y408748D01*
X894388Y408274D01*
X893075Y407765D01*
X891772Y407227D01*
X891128Y406942D01*
X889216Y406042D01*
X881506Y417417D02*
X881209Y418054D01*
X881506Y417417D02*
X881763Y416763D01*
X881994Y416099D01*
X882191Y415425D01*
X882365Y414744D01*
X882509Y414056D01*
X882738Y412669D01*
X882817Y411970D01*
X882923Y410569D01*
X882968Y409164D01*
X882955Y407758D01*
X882891Y406354D01*
X882779Y404953D01*
X882531Y402859D01*
X882317Y401469D01*
X882063Y400086D01*
X881773Y398711D01*
X881441Y397345D01*
X881257Y396666D01*
X881068Y395989D01*
X880653Y394646D01*
X879738Y391988D01*
X878764Y389350D01*
X877988Y387389D01*
X876888Y384802D01*
X876005Y382887D01*
X875392Y381621D01*
X874751Y380371D01*
X873736Y378522D01*
X872661Y376708D01*
X871911Y375519D01*
X871526Y374931D01*
X870724Y373776D01*
X869896Y372640D01*
X869036Y371529D01*
X868143Y370443D01*
X867687Y369908D01*
X866747Y368862D01*
X865275Y367353D01*
X864770Y366864D01*
X863734Y365914D01*
X863208Y365447D01*
X862128Y364547D01*
X861024Y363677D01*
X860457Y363261D01*
X859888Y362849D01*
X858726Y362057D01*
X857541Y361302D01*
X856939Y360939D01*
X856335Y360580D01*
X855109Y359891D01*
X853865Y359236D01*
X852602Y358618D01*
X851329Y358022D01*
X849396Y357180D01*
X847441Y356389D01*
X846787Y356132D01*
X832904Y351114D01*
X830294Y350068D01*
X828358Y349232D01*
X826451Y348334D01*
X824575Y347372D01*
X823345Y346691D01*
X822138Y345969D01*
X820953Y345213D01*
X819794Y344417D01*
X818664Y343581D01*
X818110Y343149D01*
X817022Y342259D01*
X815969Y341327D01*
X814953Y340355D01*
X814471Y339844D01*
X814020Y339305D01*
X813600Y338742D01*
X813213Y338156D01*
X812856Y337550D01*
X812529Y336928D01*
X812231Y336291D01*
X811957Y335645D01*
X811705Y334989D01*
X811260Y333655D01*
X811069Y332979D01*
X810728Y331615D01*
X810579Y330928D01*
X810321Y329546D01*
X810206Y328853D01*
X810011Y327461D01*
X809762Y325367D01*
X809693Y324667D01*
X808977Y315557D01*
X808833Y314159D01*
X808655Y312764D01*
X808543Y312070D01*
X807542Y306537D01*
X806394Y301032D01*
X804938Y294875D01*
X803302Y288764D01*
X803111Y288088D01*
X801274Y282034D01*
X800167Y278699D01*
X798998Y275384D01*
X797758Y272095D01*
X796718Y269483D01*
X795068Y265602D01*
X793904Y263042D01*
X792376Y259878D01*
X790763Y256755D01*
X789395Y254298D01*
X789050Y253686D01*
X787234Y250677D01*
X785707Y248316D01*
X784100Y246008D01*
X783696Y245434D01*
X781993Y243196D01*
X781555Y242647D01*
X779755Y240486D01*
X777859Y238410D01*
X777370Y237905D01*
X775368Y235932D01*
X773269Y234060D01*
X771067Y232313D01*
X770500Y231898D01*
X768766Y230698D01*
X768179Y230311D01*
X765765Y228871D01*
X763258Y227597D01*
X760665Y226510D01*
X758678Y225805D01*
X758006Y225599D01*
X756660Y225193D01*
X754617Y224670D01*
X752554Y224235D01*
X750475Y223884D01*
X748384Y223611D01*
X746985Y223471D01*
X744882Y223322D01*
X744179Y223291D01*
X742071Y223240D01*
X739963Y223255D01*
X738557Y223298D01*
X736452Y223421D01*
X734351Y223601D01*
X732256Y223837D01*
X730167Y224127D01*
X728086Y224469D01*
X725325Y225000D01*
X723950Y225293D01*
X721897Y225772D01*
X719854Y226298D01*
X717822Y226860D01*
X715131Y227675D01*
X713792Y228104D01*
X711796Y228783D01*
X707839Y230243D01*
X703936Y231841D01*
X700725Y233269D01*
X696923Y235095D01*
X694421Y236378D01*
X691951Y237720D01*
X690131Y238786D01*
X688932Y239520D01*
X687745Y240274D01*
X686007Y241468D01*
X684878Y242305D01*
X683774Y243175D01*
X682709Y244093D01*
X682190Y244567D01*
X681192Y245557D01*
X680716Y246074D01*
X680258Y246607D01*
X679819Y247156D01*
X679404Y247723D01*
X679016Y248309D01*
X678659Y248914D01*
X678338Y249540D01*
X678060Y250185D01*
X677811Y250842D01*
X677608Y251515D01*
X677423Y252192D01*
X677267Y252878D01*
X677012Y254260D01*
X676838Y255655D01*
X676716Y257056D01*
X676674Y257757D01*
X676599Y259864D01*
X676593Y261973D01*
X676597Y262676D01*
X677035Y274618D01*
X677086Y277429D01*
X677081Y278835D01*
X677047Y280240D01*
X676978Y281645D01*
X676853Y283045D01*
X676770Y283743D01*
X676558Y285132D01*
X676409Y285819D01*
X676243Y286502D01*
X676043Y287176D01*
X675805Y287837D01*
X675532Y288484D01*
X675218Y289112D01*
X674832Y289700D01*
X674392Y290247D01*
X673911Y290758D01*
X672892Y291727D01*
X671839Y292658D01*
X670761Y293560D01*
X669099Y294859D01*
X667966Y295690D01*
X666239Y296901D01*
X664481Y298065D01*
X660903Y300297D01*
X650598Y306347D01*
X648204Y307822D01*
X647028Y308593D01*
X646454Y308998D01*
X645325Y309836D01*
X644228Y310715D01*
X643158Y311627D01*
X641602Y313050D01*
X640594Y314030D01*
X639608Y315032D01*
X638642Y316053D01*
X636769Y318151D01*
X634500Y320834D01*
X631406Y324661D01*
X630547Y325773D01*
X630128Y326337D01*
X629321Y327488D01*
X628558Y328669D01*
X627485Y330484D01*
X626816Y331721D01*
X626189Y332979D01*
X625311Y334896D01*
X624771Y336194D01*
X624029Y338168D01*
X623571Y339497D01*
X623146Y340837D01*
X622561Y342863D01*
X622209Y344224D01*
X621730Y346278D01*
X621438Y347653D01*
X621051Y349726D01*
X620817Y351112D01*
X620326Y354592D01*
X619951Y358087D01*
X619670Y361590D01*
X619481Y365099D01*
X619292Y371423D01*
X619244Y377046D01*
X619140Y378448D01*
X618622Y382634D01*
X618498Y384034D01*
X618468Y384736D01*
X618462Y385439D01*
X618487Y386141D01*
X618549Y386841D01*
X618651Y387537D01*
X618792Y388225D01*
X619115Y389593D01*
X619499Y390946D01*
X619708Y391616D01*
X620170Y392944D01*
X620951Y394903D01*
X621527Y396185D01*
X622145Y397448D01*
X622794Y398695D01*
X623822Y400536D01*
X624535Y401748D01*
X630531Y411263D01*
X631957Y413686D01*
X632252Y414324D01*
X632492Y414984D01*
X632684Y415660D01*
X632837Y416346D01*
X633250Y418414D01*
X633412Y419098D01*
X633620Y419769D01*
X633881Y420422D01*
X634209Y421043D01*
X634593Y421631D01*
X635021Y422189D01*
X635495Y422707D01*
X636001Y423195D01*
X636535Y423652D01*
X637092Y424080D01*
X637664Y424489D01*
X640580Y426450D01*
X641145Y426868D01*
X644426Y429518D01*
X647778Y432079D01*
X651216Y434521D01*
X654735Y436846D01*
X658324Y439060D01*
X662594Y441506D01*
X666302Y443515D01*
X671306Y446080D01*
X768466Y237609D02*
X769110Y237890D01*
X768466Y237609D02*
X767802Y237377D01*
X767122Y237199D01*
X766431Y237068D01*
X765734Y236976D01*
X765033Y236922D01*
X764330Y236896D01*
X763627Y236905D01*
X762924Y236931D01*
X762223Y236982D01*
X760825Y237134D01*
X759433Y237335D01*
X753202Y238447D01*
X740681Y240310D01*
X739988Y240431D01*
X736529Y241065D01*
X733088Y241787D01*
X731033Y242265D01*
X728989Y242787D01*
X726957Y243357D01*
X724942Y243981D01*
X723608Y244426D01*
X721623Y245142D01*
X719664Y245925D01*
X718378Y246494D01*
X716473Y247401D01*
X715849Y247725D01*
X714609Y248389D01*
X712801Y249476D01*
X711628Y250252D01*
X709924Y251495D01*
X708838Y252389D01*
X708307Y252849D01*
X707275Y253805D01*
X706299Y254818D01*
X705821Y255334D01*
X704919Y256413D01*
X704493Y256972D01*
X703667Y258111D01*
X702918Y259301D01*
X702562Y259907D01*
X701905Y261151D01*
X701042Y263075D01*
X700550Y264393D01*
X700123Y265733D01*
X699938Y266412D01*
X699755Y267091D01*
X699447Y268463D01*
X699189Y269846D01*
X698985Y271237D01*
X698824Y272635D01*
X698703Y274036D01*
X698660Y274738D01*
X698572Y276846D01*
X698543Y279659D01*
X698790Y290908D01*
X698763Y293721D01*
X698709Y295126D01*
X698620Y296530D01*
X698563Y297231D01*
X698414Y298630D01*
X698219Y300022D01*
X697972Y301407D01*
X697665Y302780D01*
X697295Y304137D01*
X696861Y305474D01*
X696359Y306788D01*
X696059Y307423D01*
X695721Y308040D01*
X695348Y308636D01*
X694941Y309209D01*
X694504Y309760D01*
X694044Y310292D01*
X693562Y310805D01*
X693064Y311300D01*
X692548Y311779D01*
X691481Y312695D01*
X686491Y316588D01*
X685419Y317499D01*
X684902Y317975D01*
X684401Y318468D01*
X683918Y318980D01*
X683457Y319511D01*
X682161Y321176D01*
X680919Y322881D01*
X679726Y324621D01*
X678210Y326990D01*
X676773Y329409D01*
X675414Y331872D01*
X674130Y334374D01*
X673213Y336275D01*
X672053Y338837D01*
X670967Y341432D01*
X669954Y344056D01*
X669022Y346711D01*
X668179Y349394D01*
X667608Y351425D01*
X666923Y354154D01*
X666770Y354840D01*
X666355Y356908D01*
X666116Y358294D01*
X665916Y359687D01*
X665683Y361783D01*
X665528Y363887D01*
X665432Y365995D01*
X665408Y366698D01*
X665394Y369511D01*
X665432Y371620D01*
X665514Y373728D01*
X665684Y376536D01*
X665921Y379339D01*
X666220Y382136D01*
X666481Y384230D01*
X666983Y387710D01*
X667444Y390485D01*
X667957Y393251D01*
X668521Y396007D01*
X669142Y398750D01*
X669816Y401482D01*
X670356Y403521D01*
X671323Y406902D01*
X672168Y409585D01*
X673072Y412249D01*
X673791Y414232D01*
X674818Y416851D01*
X675920Y419439D01*
X676802Y421356D01*
X678058Y423873D01*
X679072Y425723D01*
X680517Y428136D01*
X681683Y429894D01*
X682936Y431592D01*
X684281Y433217D01*
X685723Y434758D01*
X686185Y435287D01*
X687053Y436394D01*
X690412Y440907D01*
X691288Y442008D01*
X692204Y443075D01*
X692681Y443592D01*
X693175Y444092D01*
X693688Y444574D01*
X694228Y445023D01*
X694798Y445435D01*
X695409Y445782D01*
X696065Y446031D01*
X696761Y446110D01*
X697448Y445970D01*
X698106Y445727D01*
X698723Y445391D01*
X699284Y444968D01*
X699783Y444473D01*
X700222Y443925D01*
X700605Y443336D01*
X700935Y442715D01*
X701220Y442072D01*
X701461Y441412D01*
X701663Y440739D01*
X701830Y440056D01*
X701964Y439366D01*
X702066Y438670D01*
X702140Y437971D01*
X702190Y437270D01*
X702210Y436567D01*
X702202Y435863D01*
X702167Y435161D01*
X702102Y434461D01*
X702007Y433764D01*
X701878Y433073D01*
X701707Y432391D01*
X701480Y431726D01*
X701186Y431088D01*
X700780Y430517D01*
X700209Y430119D01*
X699625Y430315D01*
X699435Y430990D01*
X699341Y431687D01*
X699263Y433091D01*
X699243Y435200D01*
X699361Y440825D01*
X699326Y441527D01*
X699201Y442219D01*
X699052Y442906D01*
X698877Y443588D01*
X698680Y444262D01*
X698455Y444929D01*
X698202Y445585D01*
X697913Y446226D01*
X697593Y446852D01*
X697238Y447459D01*
X696853Y448047D01*
X696434Y448612D01*
X695985Y449153D01*
X695507Y449668D01*
X695003Y450159D01*
X694478Y450626D01*
X693933Y451070D01*
X693370Y451493D01*
X692206Y452282D01*
X691607Y452650D01*
X691001Y453006D01*
X689772Y453690D01*
X687897Y454657D01*
X766292Y261107D02*
X765678Y260770D01*
X766292Y261107D02*
X766883Y261484D01*
X767454Y261890D01*
X768005Y262322D01*
X768536Y262779D01*
X769049Y263257D01*
X769543Y263754D01*
X770018Y264269D01*
X770472Y264802D01*
X770907Y265352D01*
X771324Y265915D01*
X771718Y266494D01*
X772091Y267087D01*
X772437Y267697D01*
X772759Y268319D01*
X773050Y268957D01*
X773310Y269608D01*
X773535Y270271D01*
X773718Y270948D01*
X773862Y271634D01*
X773955Y272328D01*
X773993Y273028D01*
X773973Y273728D01*
X773887Y274424D01*
X773733Y275107D01*
X773508Y275770D01*
X773214Y276406D01*
X772857Y277007D01*
X772440Y277571D01*
X771975Y278094D01*
X771462Y278571D01*
X770910Y279003D01*
X770338Y279408D01*
X769752Y279792D01*
X769153Y280156D01*
X767924Y280829D01*
X767294Y281135D01*
X766653Y281419D01*
X765347Y281928D01*
X764014Y282360D01*
X762658Y282712D01*
X761285Y282994D01*
X759901Y283215D01*
X758508Y283375D01*
X757112Y283489D01*
X755712Y283561D01*
X753610Y283626D01*
X750808Y283647D01*
X733078Y351137D02*
X734034Y352169D01*
X734498Y352697D01*
X735371Y353800D01*
X736155Y354967D01*
X736521Y355567D01*
X737184Y356807D01*
X737737Y358100D01*
X738168Y359439D01*
X738464Y360814D01*
X738611Y362213D01*
X738605Y363618D01*
X738540Y364319D01*
X738439Y365014D01*
X738304Y365704D01*
X737899Y367050D01*
X737624Y367697D01*
X737325Y368333D01*
X736987Y368950D01*
X736605Y369540D01*
X736203Y370116D01*
X735744Y370649D01*
X735265Y371163D01*
X734755Y371647D01*
X734211Y372092D01*
X733651Y372516D01*
X733053Y372887D01*
X732438Y373228D01*
X731806Y373534D01*
X731149Y373786D01*
X730485Y374016D01*
X729802Y374184D01*
X729113Y374320D01*
X728417Y374416D01*
X727012Y374477D01*
X725611Y374365D01*
X724232Y374091D01*
X723557Y373893D01*
X722889Y373675D01*
X721593Y373130D01*
X720350Y372472D01*
X719169Y371709D01*
X718056Y370849D01*
X717522Y370393D01*
X716489Y369438D01*
X814862Y353998D02*
X817470Y355011D01*
X818068Y355371D01*
X818577Y355849D01*
X826253Y363995D01*
X828598Y366590D01*
X829016Y367149D01*
X829286Y367790D01*
X829263Y368475D01*
X828884Y369050D01*
X828313Y369450D01*
X827680Y369746D01*
X827016Y369966D01*
X826337Y370134D01*
X825652Y370273D01*
X824961Y370386D01*
X824267Y370474D01*
X823571Y370547D01*
X822177Y370658D01*
X820080Y370744D01*
X818681Y370770D01*
X815184Y370737D01*
X810290Y370583D01*
X794845Y416910D02*
X795418Y417317D01*
X795970Y417754D01*
X796502Y418214D01*
X797016Y418694D01*
X797997Y419701D01*
X798927Y420757D01*
X799815Y421848D01*
X801082Y423535D01*
X801891Y424685D01*
X803434Y427038D01*
X804546Y428831D01*
X806326Y431864D01*
X806631Y432497D01*
X806801Y433179D01*
X806789Y433878D01*
X806566Y434539D01*
X806166Y435113D01*
X805647Y435585D01*
X805058Y435967D01*
X804431Y436286D01*
X803781Y436552D01*
X803116Y436780D01*
X802441Y436979D01*
X801759Y437150D01*
X801071Y437295D01*
X799687Y437545D01*
X797594Y437811D01*
X796192Y437935D01*
X794087Y438069D01*
X791978Y438145D01*
X787758Y438169D01*
X782836Y438072D01*
X845750Y354568D02*
X846221Y354272D01*
X846398Y354946D01*
X846465Y355643D01*
X846506Y357044D01*
X846485Y359146D01*
X846330Y363347D01*
X846343Y364046D01*
X846600Y368243D01*
X846639Y369644D01*
X846639Y370344D01*
X846621Y371045D01*
X846534Y372443D01*
X846365Y373834D01*
X846250Y374525D01*
X846114Y375213D01*
X845785Y376575D01*
X845594Y377249D01*
X845177Y378587D01*
X828592Y441504D02*
X828540Y442200D01*
X828418Y442886D01*
X828244Y443562D01*
X828030Y444227D01*
X827789Y444882D01*
X827523Y445527D01*
X826930Y446791D01*
X826280Y448026D01*
X825216Y449830D01*
X824460Y451004D01*
X823675Y452158D01*
X822439Y453849D01*
X821582Y454951D01*
X820245Y456562D01*
X818840Y458116D01*
X817866Y459116D01*
X816856Y460080D01*
X815802Y460995D01*
X815256Y461429D01*
X814695Y461846D01*
X814117Y462237D01*
X813519Y462596D01*
X812897Y462913D01*
X812246Y463162D01*
X811572Y463341D01*
X810887Y463477D01*
X809506Y463679D01*
X808811Y463747D01*
X807418Y463833D01*
X806022Y463862D01*
X801136Y463808D01*
X894938Y438072D02*
X895598Y437830D01*
X896296Y437796D01*
X896948Y438041D01*
X897438Y438540D01*
X897786Y439151D01*
X898036Y439809D01*
X898221Y440488D01*
X898359Y441180D01*
X898457Y441878D01*
X898526Y442579D01*
X898615Y443986D01*
X898629Y446101D01*
X898583Y447511D01*
X898462Y449622D01*
X898223Y452432D01*
X897656Y457335D01*
X896174Y467806D01*
X896071Y468503D01*
X895701Y470586D01*
X895427Y471969D01*
X894973Y474035D01*
X894459Y476087D01*
X894081Y477445D01*
X893471Y479470D01*
X893252Y480140D01*
X892800Y481476D01*
X892061Y483458D01*
X891534Y484766D01*
X890691Y486705D01*
X889775Y488612D01*
X889131Y489866D01*
X888450Y491101D01*
X888103Y491714D01*
X887377Y492923D01*
X886239Y494706D01*
X885435Y495864D01*
X884183Y497569D01*
X882855Y499215D01*
X881937Y500285D01*
X881463Y500807D01*
X880504Y501841D01*
X879513Y502844D01*
X877981Y504302D01*
X876388Y505694D01*
X875295Y506584D01*
X873618Y507873D01*
X871888Y509089D01*
X870114Y510241D01*
X868908Y510972D01*
X867069Y512017D01*
X865193Y512994D01*
X865325Y513591D02*
X864624Y513568D01*
X865325Y513591D02*
X866024Y513658D01*
X866716Y513773D01*
X867400Y513932D01*
X868073Y514130D01*
X868734Y514364D01*
X869385Y514627D01*
X870028Y514909D01*
X873813Y516755D01*
X876999Y518227D01*
X878881Y519170D01*
X880124Y519823D01*
X881348Y520511D01*
X883148Y521601D01*
X884895Y522778D01*
X886022Y523614D01*
X886573Y524049D01*
X887648Y524952D01*
X888681Y525901D01*
X889671Y526896D01*
X890613Y527937D01*
X891066Y528473D01*
X891930Y529579D01*
X892344Y530146D01*
X893131Y531308D01*
X893504Y531902D01*
X894216Y533112D01*
X895194Y534977D01*
X895789Y536248D01*
X896339Y537539D01*
X896857Y538844D01*
X897341Y540162D01*
X898011Y542158D01*
X898625Y544172D01*
X899190Y546200D01*
X899533Y547562D01*
X899847Y548930D01*
X900111Y550308D01*
X900321Y551696D01*
X900402Y552393D01*
X900499Y553793D01*
X900513Y554495D01*
X900499Y555196D01*
X900458Y555897D01*
X900385Y556595D01*
X900277Y557288D01*
X900133Y557975D01*
X899953Y558653D01*
X899727Y559318D01*
X899459Y559967D01*
X899153Y560598D01*
X898802Y561206D01*
X898410Y561787D01*
X897984Y562345D01*
X897524Y562874D01*
X897032Y563374D01*
X896515Y563849D01*
X895970Y564290D01*
X895402Y564703D01*
X894817Y565090D01*
X894217Y565454D01*
X893602Y565793D01*
X892974Y566106D01*
X892339Y566403D01*
X891693Y566679D01*
X889713Y567393D01*
X889048Y567616D01*
X887011Y568150D01*
X884936Y568510D01*
X884239Y568583D01*
X882840Y568694D01*
X882138Y568709D01*
X880735Y568694D01*
X880035Y568644D01*
X878638Y568504D01*
X877946Y568389D01*
X876566Y568134D01*
X874531Y567594D01*
X872543Y566901D01*
X870604Y566080D01*
X868716Y565149D01*
X867484Y564476D01*
X866875Y564128D01*
X865075Y563035D01*
X863311Y561885D01*
X861581Y560685D01*
X851959Y553629D01*
X849660Y552017D01*
X847901Y550861D01*
X846707Y550123D01*
X846106Y549759D01*
X844269Y548732D01*
X842384Y547793D01*
X841101Y547225D01*
X840451Y546959D01*
X839136Y546470D01*
X838468Y546253D01*
X837121Y545858D01*
X835066Y545401D01*
X834372Y545303D01*
X832979Y545124D01*
X830876Y545028D01*
X860622Y535301D02*
X860734Y535390D01*
X863794Y537126D01*
X865608Y538206D01*
X866205Y538579D01*
X867390Y539340D01*
X867972Y539735D01*
X869117Y540553D01*
X869669Y540990D01*
X870198Y541454D01*
X870686Y541960D01*
X871141Y542497D01*
X871562Y543060D01*
X871957Y543643D01*
X872327Y544241D01*
X872673Y544854D01*
X873305Y546111D01*
X873854Y547407D01*
X874344Y548727D01*
X874772Y550067D01*
X875315Y552107D01*
X875604Y553485D01*
X875851Y554870D01*
X876040Y556265D01*
X876179Y557666D01*
X876253Y559071D01*
X876269Y560478D01*
X876206Y561884D01*
X876145Y562585D01*
X876061Y563284D01*
X875954Y563979D01*
X875820Y564670D01*
X875653Y565354D01*
X875453Y566029D01*
X875205Y566687D01*
X874919Y567330D01*
X639279Y427776D02*
X639525Y427126D01*
X639026Y427559D01*
X638585Y428104D01*
X637330Y429795D01*
X636128Y431524D01*
X634968Y433282D01*
X634596Y433877D01*
X633885Y435087D01*
X633585Y435721D01*
X633373Y436390D01*
X633187Y437067D01*
X633030Y437751D01*
X632782Y439132D01*
X632685Y439827D01*
X632547Y441224D01*
X632498Y441925D01*
X632440Y443327D01*
X632429Y460173D01*
X632440Y460875D01*
X632583Y466489D01*
X632724Y469293D01*
X632925Y472093D01*
X633197Y474888D01*
X633547Y477674D01*
X633983Y480447D01*
X634234Y481829D01*
X634509Y483205D01*
X634968Y485260D01*
X635305Y486623D01*
X635670Y487979D01*
X636062Y489327D01*
X636477Y490668D01*
X637153Y492662D01*
X637637Y493980D01*
X638143Y495289D01*
X639230Y497878D01*
X640401Y500430D01*
X641652Y502943D01*
X641979Y503564D01*
X642980Y505417D01*
X644381Y507850D01*
X646221Y510839D01*
X647769Y513181D01*
X649374Y515484D01*
X651037Y517747D01*
X652755Y519968D01*
X654971Y522689D01*
X656332Y524296D01*
X658184Y526406D01*
X660554Y528995D01*
X664460Y533029D01*
X664960Y533522D01*
X665986Y534480D01*
X667044Y535403D01*
X668137Y536283D01*
X668700Y536703D01*
X669850Y537508D01*
X671033Y538263D01*
X672249Y538964D01*
X673494Y539612D01*
X674127Y539916D01*
X675409Y540488D01*
X680622Y542574D01*
X681279Y542820D01*
X681949Y543031D01*
X681977Y543388D01*
X681282Y543455D01*
X679887Y543310D01*
X632881Y428422D02*
X634130Y427776D01*
X632881Y428422D02*
X631031Y429436D01*
X629208Y430496D01*
X619040Y436777D01*
X617220Y437843D01*
X615374Y438863D01*
X614129Y439518D01*
X612868Y440140D01*
X610952Y441020D01*
X609650Y441552D01*
X608334Y442046D01*
X607671Y442279D01*
X606328Y442696D01*
X605651Y442888D01*
X604287Y443227D01*
X602908Y443503D01*
X602215Y443622D01*
X601519Y443718D01*
X600822Y443806D01*
X599422Y443946D01*
X597322Y444130D01*
X593110Y444373D01*
X588893Y444462D01*
X585377Y444436D01*
X581162Y444292D01*
X577652Y444091D01*
X569946Y443436D01*
X539227Y439791D01*
X535725Y439488D01*
X521689Y438650D01*
X518184Y438375D01*
X517485Y438304D01*
X514688Y438006D01*
X512598Y437722D01*
X511209Y437509D01*
X509136Y437119D01*
X508447Y436978D01*
X507077Y436663D01*
X505714Y436317D01*
X505037Y436125D01*
X504361Y435933D01*
X503021Y435509D01*
X501034Y434803D01*
X499730Y434276D01*
X499085Y433997D01*
X497814Y433396D01*
X497188Y433075D01*
X495960Y432389D01*
X494773Y431637D01*
X494195Y431237D01*
X493632Y430815D01*
X493084Y430375D01*
X492551Y429917D01*
X492040Y429435D01*
X491548Y428932D01*
X491079Y428409D01*
X490639Y427860D01*
X490226Y427292D01*
X489465Y426110D01*
X487668Y423088D01*
X486915Y421901D01*
X486523Y421317D01*
X486112Y420747D01*
X485681Y420192D01*
X485225Y419657D01*
X484743Y419145D01*
X484230Y418664D01*
X483686Y418220D01*
X483107Y417822D01*
X482494Y417479D01*
X481849Y417199D01*
X481179Y416988D01*
X477742Y416250D01*
X476363Y415977D01*
X474977Y415740D01*
X473585Y415545D01*
X472187Y415395D01*
X470783Y415321D01*
X470080Y415323D01*
X469377Y415350D01*
X468678Y415416D01*
X467984Y415527D01*
X467303Y415703D01*
X466646Y415950D01*
X466040Y416304D01*
X465521Y416775D01*
X465115Y417348D01*
X464727Y417934D01*
X464373Y418540D01*
X463735Y419793D01*
X463203Y421094D01*
X462773Y422433D01*
X462579Y423108D01*
X462253Y424476D01*
X461881Y426551D01*
X461649Y428648D01*
X461558Y430051D01*
X461521Y430753D01*
X461484Y432862D01*
X461533Y434970D01*
X461656Y437076D01*
X461852Y439176D01*
X462107Y441269D01*
X462533Y444049D01*
X462919Y446123D01*
X463516Y448870D01*
X464014Y450920D01*
X464567Y452955D01*
X465377Y455648D01*
X466038Y457651D01*
X466753Y459636D01*
X467781Y462253D01*
X468615Y464190D01*
X469502Y466104D01*
X470454Y467986D01*
X471473Y469833D01*
X472571Y471633D01*
X473351Y472804D01*
X473754Y473379D01*
X474590Y474510D01*
X475486Y475593D01*
X475950Y476121D01*
X476921Y477138D01*
X477960Y478085D01*
X478511Y478522D01*
X479081Y478933D01*
X479669Y479319D01*
X480275Y479675D01*
X480897Y480003D01*
X481532Y480304D01*
X482179Y480579D01*
X482838Y480824D01*
X484180Y481243D01*
X485547Y481573D01*
X486236Y481710D01*
X487624Y481932D01*
X489021Y482093D01*
X489721Y482160D01*
X491123Y482260D01*
X497444Y482563D01*
X498846Y482662D01*
X501644Y482951D01*
X504430Y483331D01*
X520357Y486126D01*
X521040Y486292D01*
X521700Y486532D01*
X522334Y486834D01*
X522942Y487186D01*
X523525Y487580D01*
X524086Y488003D01*
X524624Y488455D01*
X525144Y488929D01*
X525641Y489425D01*
X526591Y490462D01*
X527487Y491545D01*
X527914Y492104D01*
X528735Y493245D01*
X529517Y494414D01*
X530261Y495607D01*
X530969Y496822D01*
X531642Y498056D01*
X532284Y499307D01*
X533185Y501214D01*
X533744Y502504D01*
X534257Y503813D01*
X534724Y505139D01*
X535126Y506486D01*
X535289Y507170D01*
X535414Y507862D01*
X535507Y508559D01*
X535566Y509259D01*
X535593Y509962D01*
X535585Y510665D01*
X535536Y511366D01*
X535432Y512061D01*
X535273Y512745D01*
X535033Y513406D01*
X534699Y514023D01*
X534252Y514563D01*
X533680Y514969D01*
X533022Y515209D01*
X532324Y515284D01*
X569924Y495250D02*
X571217Y494696D01*
X569924Y495250D02*
X569285Y495544D01*
X568653Y495852D01*
X567410Y496509D01*
X566192Y497211D01*
X565593Y497579D01*
X564416Y498349D01*
X563837Y498748D01*
X562690Y499562D01*
X562130Y499987D01*
X561016Y500845D01*
X559920Y501726D01*
X551882Y508555D01*
X550231Y509868D01*
X549111Y510718D01*
X546814Y512342D01*
X545646Y513125D01*
X544465Y513888D01*
X543270Y514630D01*
X540845Y516054D01*
X538375Y517399D01*
X535861Y518661D01*
X532669Y520134D01*
X530081Y521234D01*
X528120Y522012D01*
X525485Y522997D01*
X520161Y524811D01*
X519491Y525022D01*
X506005Y529012D01*
X505325Y529191D01*
X503947Y529471D01*
X503253Y529581D01*
X501857Y529752D01*
X500455Y529855D01*
X499050Y529913D01*
X496941Y529911D01*
X495535Y529863D01*
X493430Y529722D01*
X492730Y529662D01*
X490634Y529427D01*
X488546Y529125D01*
X486470Y528756D01*
X485092Y528471D01*
X483721Y528157D01*
X483040Y527984D01*
X481009Y527415D01*
X480339Y527201D01*
X479011Y526740D01*
X477701Y526229D01*
X476420Y525648D01*
X471409Y523092D01*
X468238Y521573D01*
X466953Y521004D01*
X465652Y520469D01*
X464341Y519960D01*
X463679Y519723D01*
X462342Y519288D01*
X461667Y519092D01*
X460305Y518743D01*
X459616Y518599D01*
X458228Y518377D01*
X457528Y518308D01*
X456826Y518272D01*
X456123Y518272D01*
X455421Y518310D01*
X454723Y518396D01*
X454034Y518534D01*
X453359Y518730D01*
X452704Y518986D01*
X452072Y519293D01*
X451469Y519654D01*
X450892Y520056D01*
X450341Y520492D01*
X449825Y520970D01*
X449334Y521473D01*
X448872Y522003D01*
X448442Y522559D01*
X448041Y523136D01*
X447666Y523731D01*
X447325Y524346D01*
X447013Y524976D01*
X446733Y525621D01*
X446483Y526278D01*
X446267Y526947D01*
X446086Y527626D01*
X445940Y528314D01*
X445833Y529009D01*
X445768Y529709D01*
X445744Y530411D01*
X445774Y531114D01*
X445848Y531813D01*
X445976Y532504D01*
X446163Y533181D01*
X446404Y533842D01*
X446688Y534485D01*
X447012Y535109D01*
X447364Y535717D01*
X447734Y536315D01*
X449670Y539250D01*
X450035Y539851D01*
X450375Y540466D01*
X450685Y541097D01*
X450956Y541745D01*
X453878Y550407D01*
X454608Y552386D01*
X455646Y555000D01*
X456204Y556291D01*
X457094Y558203D01*
X457731Y559457D01*
X458059Y560078D01*
X458752Y561302D01*
X459111Y561907D01*
X459868Y563092D01*
X460263Y563674D01*
X461089Y564811D01*
X461969Y565908D01*
X462424Y566445D01*
X462899Y566962D01*
X463881Y567968D01*
X464923Y568913D01*
X465464Y569362D01*
X466585Y570210D01*
X467167Y570605D01*
X468363Y571345D01*
X469606Y572001D01*
X471512Y572907D01*
X473444Y573752D01*
X475404Y574532D01*
X477385Y575256D01*
X479387Y575919D01*
X482084Y576717D01*
X484806Y577427D01*
X487548Y578053D01*
X490306Y578605D01*
X492382Y578977D01*
X497940Y579843D01*
X512582Y581758D01*
X513970Y581981D01*
X515351Y582247D01*
X517409Y582708D01*
X518774Y583049D01*
X521479Y583818D01*
X523488Y584459D01*
X526145Y585383D01*
X528772Y586388D01*
X530724Y587188D01*
X533304Y588306D01*
X535859Y589483D01*
X538385Y590719D01*
X542753Y592989D01*
X547045Y595398D01*
X550063Y597201D01*
X551258Y597942D01*
X552441Y598703D01*
X554773Y600275D01*
X556480Y601514D01*
X557597Y602368D01*
X558695Y603247D01*
X559764Y604161D01*
X560807Y605104D01*
X561816Y606083D01*
X562309Y606585D01*
X563256Y607624D01*
X564155Y608705D01*
X564580Y609265D01*
X565383Y610420D01*
X565756Y611016D01*
X566100Y611628D01*
X566422Y612254D01*
X566719Y612891D01*
X566989Y613539D01*
X567219Y614204D01*
X567413Y614880D01*
X567568Y615565D01*
X567683Y616258D01*
X567757Y616957D01*
X567783Y617660D01*
X507160Y438643D02*
X506483Y438813D01*
X505907Y439214D01*
X505435Y439735D01*
X505035Y440315D01*
X504686Y440927D01*
X504373Y441558D01*
X504090Y442203D01*
X503589Y443520D01*
X502950Y445534D01*
X501816Y449607D01*
X501474Y450973D01*
X501181Y452352D01*
X500935Y453739D01*
X500616Y455828D01*
X500352Y457925D01*
X500145Y460029D01*
X499930Y462839D01*
X499800Y465654D01*
X499749Y468471D01*
X499761Y470585D01*
X499861Y473401D01*
X500015Y475509D01*
X500158Y476911D01*
X500345Y478307D01*
X500578Y479697D01*
X500867Y481076D01*
X501244Y482433D01*
X501467Y483101D01*
X501721Y483758D01*
X502011Y484400D01*
X487713Y530155D02*
X486974Y531354D01*
X486315Y532599D01*
X486026Y533241D01*
X485744Y533886D01*
X485255Y535207D01*
X484846Y536554D01*
X484509Y537922D01*
X484368Y538612D01*
X484134Y540000D01*
X483963Y541398D01*
X483900Y542100D01*
X483847Y542802D01*
X483782Y544209D01*
X483764Y545617D01*
X483785Y547026D01*
X483844Y548433D01*
X483993Y550540D01*
X484271Y553343D01*
X486154Y567302D01*
X486360Y569405D01*
X486471Y570809D01*
X486542Y572216D01*
X486570Y573624D01*
X532323Y592495D02*
X533026Y592518D01*
X533140Y592770D01*
X529757Y593724D01*
X528422Y594166D01*
X527775Y594440D01*
X527167Y594792D01*
X526625Y595239D01*
X526109Y595716D01*
X525618Y596220D01*
X525151Y596745D01*
X524699Y597284D01*
X524267Y597838D01*
X523446Y598980D01*
X522680Y600159D01*
X521966Y601370D01*
X521626Y601986D01*
X520985Y603237D01*
X520684Y603873D01*
X520133Y605166D01*
X519885Y605824D01*
X519658Y606489D01*
X519460Y607164D01*
X519291Y607846D01*
X519168Y608538D01*
X518328Y614810D01*
X517607Y621097D01*
X517059Y626695D01*
X516611Y632302D01*
X516215Y638617D01*
X515945Y644939D01*
X515742Y656891D01*
X515826Y665327D01*
X516130Y674462D01*
X516605Y682886D01*
X517270Y691297D01*
X518136Y699690D01*
X519214Y708058D01*
X520511Y716395D01*
X522813Y728840D01*
X523611Y733696D01*
X527180Y761593D01*
X528615Y771331D01*
X529486Y776175D01*
X530331Y780308D01*
X530490Y780993D01*
X531468Y785097D01*
X532196Y787813D01*
X532784Y789839D01*
X533198Y791183D01*
X534073Y793856D01*
X535026Y796502D01*
X535788Y798468D01*
X536098Y799099D01*
X536475Y799692D01*
X536904Y800249D01*
X537370Y800775D01*
X537867Y801273D01*
X540454Y803652D01*
X540952Y804149D01*
X541426Y804668D01*
X541870Y805213D01*
X542271Y805790D01*
X542617Y806401D01*
X572932Y768084D02*
X573579Y767811D01*
X574265Y767681D01*
X574852Y767989D01*
X574982Y768668D01*
X574896Y769363D01*
X574718Y770043D01*
X574494Y770708D01*
X574240Y771363D01*
X573965Y772009D01*
X573373Y773283D01*
X572408Y775156D01*
X571731Y776387D01*
X570672Y778209D01*
X569204Y780605D01*
X568444Y781786D01*
X567653Y782947D01*
X567230Y783507D01*
X566311Y784569D01*
X565864Y785111D01*
X565006Y786223D01*
X564587Y786787D01*
X563370Y788507D01*
X557184Y797890D01*
X556785Y798468D01*
X555558Y800181D01*
X555136Y800742D01*
X554271Y801849D01*
X553376Y802932D01*
X552443Y803982D01*
X551472Y804997D01*
X550457Y805968D01*
X549927Y806429D01*
X548834Y807311D01*
X548265Y807721D01*
X547091Y808494D01*
X546480Y808839D01*
X545225Y809469D01*
X544575Y809736D01*
X543254Y810211D01*
X542582Y810417D01*
X541228Y810791D01*
X539856Y811089D01*
X539165Y811218D01*
X537776Y811428D01*
X536380Y811584D01*
X535681Y811645D01*
X534278Y811721D01*
X533576Y811747D01*
X532171Y811758D01*
X530065Y811708D01*
X527961Y811587D01*
X525862Y811406D01*
X523767Y811174D01*
X510543Y809382D01*
X509146Y809237D01*
X507745Y809141D01*
X506341Y809079D01*
X503532Y809022D01*
X501426Y808944D01*
X500026Y808832D01*
X498634Y808642D01*
X497943Y808519D01*
X497257Y808369D01*
X496576Y808196D01*
X487176Y805311D01*
X483797Y804353D01*
X482435Y804010D01*
X480377Y803555D01*
X478303Y803188D01*
X476911Y802997D01*
X475513Y802859D01*
X474813Y802810D01*
X473409Y802759D01*
X472706Y802757D01*
X471302Y802803D01*
X469903Y802919D01*
X469206Y803007D01*
X468525Y803175D01*
X467873Y803433D01*
X467259Y803774D01*
X466686Y804179D01*
X466150Y804633D01*
X465648Y805124D01*
X465180Y805648D01*
X464738Y806194D01*
X464321Y806758D01*
X463924Y807338D01*
X463542Y807927D01*
X463178Y808528D01*
X460768Y812813D01*
X460439Y813434D01*
X460151Y814074D01*
X459890Y814725D01*
X459685Y815397D01*
X459507Y816076D01*
X459360Y816763D01*
X459250Y817456D01*
X459153Y818152D01*
X459065Y819554D01*
X459059Y820958D01*
X459087Y821660D01*
X459196Y823060D01*
X459368Y824454D01*
X459597Y825840D01*
X459877Y827216D01*
X460034Y827901D01*
X460379Y829263D01*
X460974Y831284D01*
X461186Y831953D01*
X461645Y833281D01*
X462138Y834597D01*
X462937Y836546D01*
X463798Y838469D01*
X464731Y840358D01*
X465388Y841600D01*
X466072Y842827D01*
X466431Y843431D01*
X466790Y844034D01*
X467543Y845220D01*
X468330Y846384D01*
X469154Y847522D01*
X469582Y848079D01*
X470469Y849168D01*
X470934Y849694D01*
X471408Y850212D01*
X472411Y851195D01*
X472932Y851666D01*
X476662Y854870D01*
X479369Y857107D01*
X480472Y857976D01*
X481589Y858829D01*
X483300Y860059D01*
X484462Y860848D01*
X485648Y861601D01*
X486866Y862300D01*
X488114Y862945D01*
X488753Y863236D01*
X489402Y863504D01*
X490063Y863744D01*
X490734Y863951D01*
X491417Y864112D01*
X492109Y864230D01*
X496277Y864856D01*
X501156Y865461D01*
X506049Y865943D01*
X515857Y866658D01*
X534792Y867712D01*
X543897Y868396D01*
X548789Y868885D01*
X553669Y869490D01*
X558528Y870244D01*
X560601Y870620D01*
X562669Y871024D01*
X565416Y871613D01*
X566099Y871775D01*
X568147Y872271D01*
X568823Y872464D01*
X570154Y872911D01*
X571460Y873428D01*
X572745Y873995D01*
X574011Y874604D01*
X580860Y878180D01*
X582121Y878798D01*
X583406Y879367D01*
X586005Y880433D01*
X596517Y884407D01*
X597813Y884950D01*
X599098Y885517D01*
X601000Y886424D01*
X602863Y887407D01*
X604076Y888116D01*
X609464Y891421D01*
X610696Y892096D01*
X611322Y892415D01*
X611954Y892721D01*
X612597Y893003D01*
X613247Y893270D01*
X613908Y893509D01*
X614576Y893723D01*
X615253Y893912D01*
X616620Y894236D01*
X617305Y894391D01*
X619369Y894814D01*
X620750Y895073D01*
X622830Y895409D01*
X624220Y895610D01*
X626311Y895873D01*
X629806Y896221D01*
X634010Y896510D01*
X637519Y896661D01*
X664204Y897210D01*
X667716Y897197D01*
X669822Y897155D01*
X671927Y897065D01*
X674030Y896931D01*
X676129Y896742D01*
X679618Y896343D01*
X692848Y894587D01*
X693546Y894514D01*
X696342Y894236D01*
X698443Y894079D01*
X699845Y893997D01*
X701952Y893928D01*
X704760Y893874D01*
X706162Y893782D01*
X707559Y893631D01*
X709643Y893323D01*
X711024Y893064D01*
X713086Y892631D01*
X721940Y890399D01*
X723282Y889984D01*
X724613Y889534D01*
X725933Y889056D01*
X727243Y888548D01*
X727888Y888269D01*
X728515Y887954D01*
X728499Y887621D01*
X498008Y805833D02*
X497547Y806361D01*
X497121Y806915D01*
X496723Y807492D01*
X496063Y808727D01*
X495774Y809365D01*
X495270Y810672D01*
X494848Y812007D01*
X494496Y813364D01*
X494197Y814732D01*
X494066Y815420D01*
X493835Y816802D01*
X493643Y818190D01*
X493565Y818886D01*
X493419Y820280D01*
X493301Y821676D01*
X493214Y823074D01*
X493118Y825173D01*
X493066Y828676D01*
X493121Y832178D01*
X493306Y836377D01*
X493558Y839870D01*
X493897Y843357D01*
X494329Y846833D01*
X494642Y848911D01*
X494747Y849603D01*
X495255Y852359D01*
X495711Y854410D01*
X495895Y855086D01*
X496108Y855753D01*
X496590Y857069D01*
X498452Y861605D01*
X498937Y862920D01*
X499146Y863588D01*
X499335Y864262D01*
X499494Y864945D01*
X499615Y865634D01*
X499696Y866330D01*
X499723Y867030D01*
X523372Y722924D02*
X523744Y722329D01*
X523372Y722924D02*
X522919Y723461D01*
X522400Y723935D01*
X521833Y724350D01*
X521236Y724720D01*
X520614Y725048D01*
X519975Y725341D01*
X519323Y725604D01*
X518662Y725845D01*
X517992Y726057D01*
X517317Y726253D01*
X515953Y726597D01*
X515266Y726750D01*
X513884Y727011D01*
X512496Y727235D01*
X511103Y727429D01*
X508307Y727737D01*
X504104Y728106D01*
X502699Y728166D01*
X501996Y728167D01*
X500591Y728108D01*
X499891Y728048D01*
X499192Y727964D01*
X498498Y727850D01*
X497809Y727712D01*
X497124Y727551D01*
X496448Y727358D01*
X495780Y727141D01*
X495121Y726894D01*
X494473Y726621D01*
X493837Y726322D01*
X493214Y725997D01*
X492606Y725643D01*
X492014Y725263D01*
X491439Y724860D01*
X490880Y724433D01*
X490340Y723982D01*
X489819Y723511D01*
X489314Y723021D01*
X488828Y722513D01*
X488361Y721988D01*
X487475Y720895D01*
X487061Y720327D01*
X486665Y719746D01*
X485918Y718555D01*
X485225Y717331D01*
X484905Y716705D01*
X483414Y713521D01*
X483090Y712897D01*
X482726Y712295D01*
X482327Y711716D01*
X481884Y711171D01*
X481399Y710662D01*
X480873Y710195D01*
X480313Y709771D01*
X479136Y709001D01*
X477910Y708312D01*
X477283Y707994D01*
X476637Y707716D01*
X475983Y707458D01*
X475319Y707226D01*
X474642Y707038D01*
X473958Y706878D01*
X473266Y706751D01*
X472568Y706668D01*
X471866Y706633D01*
X471163Y706638D01*
X470462Y706685D01*
X469765Y706775D01*
X469076Y706917D01*
X468400Y707108D01*
X467737Y707343D01*
X467092Y707621D01*
X466465Y707939D01*
X465860Y708296D01*
X465279Y708693D01*
X464726Y709128D01*
X464199Y709592D01*
X463697Y710084D01*
X463220Y710600D01*
X462770Y711140D01*
X462354Y711707D01*
X461962Y712291D01*
X461595Y712891D01*
X461253Y713505D01*
X460944Y714137D01*
X460659Y714779D01*
X460395Y715431D01*
X460152Y716091D01*
X459943Y716762D01*
X459584Y718122D01*
X459443Y718810D01*
X459221Y720199D01*
X459147Y720898D01*
X459003Y723003D01*
X458966Y723705D01*
X458932Y725814D01*
X458983Y727923D01*
X459021Y728625D01*
X459182Y730729D01*
X459429Y732824D01*
X459763Y734907D01*
X460193Y736972D01*
X460708Y739018D01*
X461309Y741040D01*
X461530Y741707D01*
X462248Y743691D01*
X463049Y745642D01*
X463933Y747558D01*
X464573Y748810D01*
X464899Y749432D01*
X465950Y751262D01*
X467075Y753047D01*
X468276Y754781D01*
X469126Y755902D01*
X469551Y756461D01*
X470896Y758086D01*
X472310Y759652D01*
X473791Y761155D01*
X475329Y762599D01*
X476927Y763976D01*
X477474Y764418D01*
X478580Y765286D01*
X480283Y766531D01*
X480861Y766931D01*
X482037Y767703D01*
X482630Y768082D01*
X484438Y769167D01*
X486291Y770176D01*
X488182Y771111D01*
X490106Y771975D01*
X490756Y772245D01*
X492721Y773013D01*
X494711Y773711D01*
X510135Y778581D01*
X510807Y778786D01*
X512163Y779159D01*
X513526Y779508D01*
X514898Y779818D01*
X516277Y780095D01*
X518358Y780440D01*
X520453Y780678D01*
X522560Y780789D01*
X526779Y780881D01*
X529591Y780851D01*
X530294Y780826D01*
X530995Y780776D01*
X531693Y780693D01*
X532326Y780447D01*
X531751Y780096D01*
X489155Y724680D02*
X488857Y724045D01*
X489155Y724680D02*
X489426Y725326D01*
X489671Y725983D01*
X489890Y726649D01*
X490268Y728000D01*
X490572Y729369D01*
X490820Y730749D01*
X491097Y732833D01*
X491235Y734229D01*
X491341Y735627D01*
X491477Y738429D01*
X491650Y745438D01*
X491884Y750340D01*
X491958Y753845D01*
X491943Y755948D01*
X491868Y758050D01*
X491786Y759450D01*
X491596Y761545D01*
X491411Y762935D01*
X491179Y764318D01*
X490869Y765685D01*
X490684Y766361D01*
X490473Y767030D01*
X490231Y767687D01*
X489951Y768330D01*
X489629Y768953D01*
X489251Y769542D01*
X488809Y770085D01*
X488298Y770563D01*
X487711Y770945D01*
X850864Y560597D02*
X850898Y559896D01*
X850864Y560597D02*
X850783Y561294D01*
X850639Y561981D01*
X850444Y562656D01*
X850201Y563315D01*
X849916Y563957D01*
X849597Y564582D01*
X849249Y565192D01*
X848878Y565789D01*
X847315Y568123D01*
X846562Y569308D01*
X846213Y569918D01*
X845891Y570541D01*
X845605Y571183D01*
X845363Y571842D01*
X845167Y572516D01*
X844684Y574567D01*
X842269Y586260D01*
X840991Y591731D01*
X840301Y595174D01*
X839807Y597940D01*
X839367Y600715D01*
X838453Y607678D01*
X835268Y641945D01*
X835134Y644048D01*
X835106Y644749D01*
X835054Y646153D01*
X835024Y648260D01*
X835091Y652473D01*
X835938Y669308D01*
X836024Y673521D01*
X835712Y703018D01*
X835762Y710041D01*
X836000Y717763D01*
X836183Y721270D01*
X836435Y724772D01*
X836747Y728270D01*
X837137Y731760D01*
X837636Y735236D01*
X838123Y738002D01*
X839255Y743506D01*
X841894Y755150D01*
X842462Y757902D01*
X842984Y760662D01*
X843539Y764129D01*
X843812Y766219D01*
X844029Y768314D01*
X844134Y769715D01*
X844215Y771118D01*
X844262Y773224D01*
X844265Y773926D01*
X844238Y775331D01*
X844168Y776733D01*
X844114Y777434D01*
X843984Y778832D01*
X843829Y780228D01*
X843559Y782318D01*
X843349Y783707D01*
X842879Y786476D01*
X842475Y788544D01*
X842180Y789918D01*
X841704Y791970D01*
X841180Y794011D01*
X840809Y795366D01*
X840010Y798059D01*
X839585Y799398D01*
X838911Y801394D01*
X837707Y804693D01*
X836128Y808599D01*
X834711Y811813D01*
X832890Y815613D01*
X831286Y818737D01*
X829268Y822436D01*
X827515Y825479D01*
X825332Y829083D01*
X816875Y842015D01*
X814478Y845480D01*
X813239Y847185D01*
X811532Y849415D01*
X810650Y850509D01*
X809284Y852113D01*
X808348Y853160D01*
X807382Y854180D01*
X806387Y855172D01*
X805362Y856131D01*
X804306Y857057D01*
X803217Y857945D01*
X802658Y858370D01*
X801516Y859187D01*
X800932Y859577D01*
X799147Y860698D01*
X798564Y861088D01*
X797417Y861900D01*
X795765Y863206D01*
X794704Y864128D01*
X793670Y865078D01*
X792167Y866554D01*
X785398Y873687D01*
X784902Y874184D01*
X783386Y875647D01*
X782868Y876121D01*
X781808Y877043D01*
X780720Y877931D01*
X780162Y878357D01*
X779025Y879182D01*
X778442Y879572D01*
X777251Y880318D01*
X776641Y880666D01*
X775403Y881329D01*
X775417Y880888D02*
X775402Y880186D01*
X775417Y880888D02*
X775460Y881589D01*
X775526Y882288D01*
X775726Y883678D01*
X775850Y884369D01*
X776132Y885745D01*
X777075Y889851D01*
X777355Y891227D01*
X777477Y891918D01*
X777674Y893308D01*
X777791Y894708D01*
X777816Y895409D01*
X777816Y896111D01*
X777788Y896813D01*
X777731Y897513D01*
X777541Y898904D01*
X777421Y899595D01*
X777130Y900969D01*
X776782Y902329D01*
X776380Y903675D01*
X775930Y905005D01*
X775438Y906320D01*
X775173Y906970D01*
X774905Y907619D01*
X774333Y908902D01*
X773728Y910169D01*
X772765Y912043D01*
X772087Y913272D01*
X771380Y914485D01*
X770647Y915683D01*
X769505Y917453D01*
X768713Y918613D01*
X767483Y920323D01*
X766639Y921445D01*
X765774Y922552D01*
X764887Y923640D01*
X763521Y925244D01*
X762111Y926809D01*
X760659Y928334D01*
X759161Y929815D01*
X758136Y930775D01*
X757093Y931715D01*
X756560Y932173D01*
X754937Y933515D01*
X753825Y934372D01*
X752689Y935198D01*
X751528Y935988D01*
X750341Y936739D01*
X748521Y937798D01*
X746670Y938804D01*
X744791Y939757D01*
X744162Y940068D01*
X742253Y940958D01*
X741610Y941240D01*
X739672Y942067D01*
X737717Y942850D01*
X735740Y943577D01*
X733746Y944255D01*
X733080Y944478D01*
X731063Y945087D01*
X728354Y945826D01*
X726302Y946304D01*
X724929Y946598D01*
X722856Y946970D01*
X721468Y947183D01*
X720074Y947358D01*
X718677Y947497D01*
X717276Y947599D01*
X715873Y947657D01*
X707447Y947675D01*
X706752Y947751D01*
X705383Y948062D01*
X704690Y948042D01*
X704516Y947427D01*
X704865Y946824D01*
X705380Y946349D01*
X705958Y945950D01*
X706565Y945598D01*
X707189Y945275D01*
X708465Y944691D01*
X713679Y942600D01*
X714324Y942322D01*
X714956Y942016D01*
X715563Y941664D01*
X716093Y941206D01*
X716582Y940703D01*
X717521Y939658D01*
X717977Y939124D01*
X718421Y938581D01*
X719276Y937466D01*
X719689Y936899D01*
X720481Y935739D01*
X721593Y933951D01*
X722617Y932110D01*
X723569Y930231D01*
X724443Y928314D01*
X724997Y927024D01*
X725781Y925069D01*
X726995Y921775D01*
X729242Y915122D01*
X729645Y913777D01*
X730009Y912421D01*
X730333Y911054D01*
X730620Y909680D01*
X730872Y908298D01*
X731087Y906911D01*
X731275Y905519D01*
X731438Y904124D01*
X731675Y901326D01*
X731719Y900625D01*
X731831Y898521D01*
X731911Y895714D01*
X731930Y893607D01*
X731919Y892906D01*
X731847Y892207D01*
X731736Y891514D01*
X731589Y890828D01*
X731409Y890149D01*
X731191Y889482D01*
X730926Y888832D01*
X730602Y888209D01*
X730188Y887644D01*
X729621Y887241D01*
X728936Y887243D01*
X728366Y887644D01*
X727929Y888193D01*
X811983Y625822D02*
X811434Y625384D01*
X811983Y625822D02*
X812585Y626185D01*
X813261Y626363D01*
X813923Y626164D01*
X814378Y625635D01*
X814679Y625001D01*
X814884Y624327D01*
X815043Y623642D01*
X815168Y622949D01*
X815268Y622252D01*
X815766Y618058D01*
X815867Y617362D01*
X817115Y610435D01*
X817327Y609043D01*
X817597Y606949D01*
X817734Y605548D01*
X817786Y604846D01*
X817856Y603440D01*
X817870Y602032D01*
X817858Y601328D01*
X817786Y599923D01*
X817722Y599222D01*
X817541Y597826D01*
X817423Y597132D01*
X817127Y595756D01*
X816947Y595075D01*
X816527Y593732D01*
X816030Y592415D01*
X815441Y591137D01*
X814786Y589891D01*
X814424Y589288D01*
X814036Y588701D01*
X813578Y588167D01*
X813079Y587671D01*
X812549Y587207D01*
X811998Y586769D01*
X811427Y586358D01*
X810838Y585972D01*
X810237Y585607D01*
X809620Y585268D01*
X808988Y584958D01*
X808344Y584675D01*
X807685Y584428D01*
X807014Y584214D01*
X806329Y584054D01*
X805634Y583949D01*
X804931Y583912D01*
X804230Y583973D01*
X803549Y584144D01*
X802918Y584453D01*
X802353Y584871D01*
X801839Y585351D01*
X801374Y585880D01*
X800952Y586442D01*
X800567Y587031D01*
X800217Y587642D01*
X799892Y588266D01*
X799593Y588903D01*
X799316Y589550D01*
X798823Y590869D01*
X798384Y592206D01*
X798189Y592883D01*
X797820Y594241D01*
X797660Y594926D01*
X794356Y610056D01*
X794214Y610745D01*
X793051Y616972D01*
X792509Y620450D01*
X792136Y623241D01*
X791901Y625339D01*
X791772Y626741D01*
X791630Y628848D01*
X791553Y630958D01*
X791551Y633069D01*
X791609Y634476D01*
X791732Y635878D01*
X791923Y637273D01*
X792053Y637964D01*
X792209Y638650D01*
X792387Y639331D01*
X792614Y639997D01*
X792871Y640652D01*
X793169Y641290D01*
X793536Y641890D01*
X793955Y642453D01*
X794431Y642970D01*
X794955Y643439D01*
X795528Y643849D01*
X796146Y644185D01*
X796802Y644436D01*
X797491Y644573D01*
X798194Y644579D01*
X798886Y644457D01*
X799552Y644231D01*
X800180Y643915D01*
X800770Y643534D01*
X801324Y643101D01*
X801843Y642626D01*
X802334Y642122D01*
X802799Y641594D01*
X803241Y641046D01*
X803660Y640480D01*
X804059Y639900D01*
X804443Y639311D01*
X805175Y638108D01*
X805855Y636876D01*
X806807Y634991D01*
X807401Y633714D01*
X809362Y629195D01*
X809666Y628560D01*
X810651Y626692D01*
X810940Y626050D01*
X811161Y625383D01*
X811308Y624694D01*
X811390Y623996D01*
X811426Y623293D01*
X811416Y622590D01*
X811267Y621902D01*
X811051Y621233D01*
X810856Y621346D01*
X810767Y622751D01*
X810746Y623454D01*
X810804Y624155D01*
X811014Y624824D01*
X811434Y625384D01*
X807163Y759730D02*
X806859Y760362D01*
X807163Y759730D02*
X807427Y759081D01*
X807658Y758419D01*
X807858Y757747D01*
X808027Y757067D01*
X808171Y756381D01*
X808292Y755691D01*
X808388Y754996D01*
X808502Y753599D01*
X808541Y752198D01*
X808530Y751497D01*
X808496Y750797D01*
X808384Y749399D01*
X808199Y748010D01*
X807951Y746630D01*
X807801Y745945D01*
X807450Y744588D01*
X807256Y743914D01*
X807035Y743248D01*
X806550Y741933D01*
X806282Y741286D01*
X805677Y740021D01*
X805003Y738792D01*
X804632Y738197D01*
X804238Y737617D01*
X803824Y737052D01*
X803388Y736503D01*
X802930Y735972D01*
X802443Y735468D01*
X801929Y734991D01*
X801391Y734543D01*
X800835Y734115D01*
X800265Y733707D01*
X799686Y733312D01*
X798493Y732576D01*
X797264Y731901D01*
X796637Y731588D01*
X795999Y731297D01*
X794690Y730794D01*
X794023Y730580D01*
X793346Y730398D01*
X792661Y730251D01*
X791968Y730146D01*
X791270Y730085D01*
X790569Y730069D01*
X789870Y730110D01*
X789176Y730210D01*
X788495Y730374D01*
X787831Y730598D01*
X787197Y730896D01*
X786593Y731251D01*
X786027Y731664D01*
X785500Y732125D01*
X785013Y732630D01*
X784570Y733173D01*
X784183Y733757D01*
X783825Y734359D01*
X783506Y734983D01*
X782959Y736273D01*
X782728Y736935D01*
X782505Y737600D01*
X782312Y738273D01*
X781965Y739631D01*
X781677Y741003D01*
X781435Y742384D01*
X781163Y744470D01*
X781030Y745866D01*
X780904Y747965D01*
X780863Y750068D01*
X780873Y751470D01*
X780963Y753571D01*
X781142Y755666D01*
X781306Y757059D01*
X781629Y759137D01*
X781914Y760510D01*
X782070Y761193D01*
X782424Y762550D01*
X782632Y763219D01*
X783078Y764548D01*
X783593Y765852D01*
X784200Y767116D01*
X784903Y768328D01*
X785297Y768907D01*
X785713Y769472D01*
X786166Y770005D01*
X786645Y770517D01*
X787164Y770986D01*
X787707Y771429D01*
X788295Y771807D01*
X788901Y772161D01*
X790206Y772669D01*
X791585Y772918D01*
X792986Y772929D01*
X794374Y772730D01*
X795720Y772339D01*
X796376Y772095D01*
X797662Y771536D01*
X798280Y771206D01*
X798879Y770841D01*
X799453Y770439D01*
X800008Y770012D01*
X800540Y769555D01*
X801051Y769075D01*
X801541Y768573D01*
X802011Y768054D01*
X802896Y766966D01*
X803308Y766399D01*
X803715Y765828D01*
X804473Y764649D01*
X805194Y763446D01*
X806207Y761603D01*
X806859Y760362D01*
X738611Y687272D02*
X738511Y686581D01*
X738611Y687272D02*
X739196Y687247D01*
X739674Y686735D01*
X740090Y686169D01*
X740474Y685580D01*
X741192Y684372D01*
X741860Y683137D01*
X742819Y681260D01*
X743113Y680622D01*
X743381Y679973D01*
X743765Y678621D01*
X744112Y677260D01*
X744276Y676577D01*
X744564Y675202D01*
X744935Y673127D01*
X745137Y671736D01*
X745296Y670340D01*
X745411Y668940D01*
X745451Y668239D01*
X745503Y666834D01*
X745509Y665429D01*
X745459Y664025D01*
X745417Y663324D01*
X745280Y661926D01*
X745082Y660535D01*
X744930Y659849D01*
X744706Y659184D01*
X744411Y658548D01*
X744044Y657949D01*
X743603Y657403D01*
X743100Y656913D01*
X742550Y656477D01*
X741958Y656100D01*
X741339Y655768D01*
X740698Y655480D01*
X740043Y655227D01*
X739377Y655003D01*
X738703Y654804D01*
X737342Y654458D01*
X733916Y653682D01*
X732563Y653302D01*
X731901Y653067D01*
X731255Y652793D01*
X730638Y652457D01*
X730037Y652094D01*
X728868Y651315D01*
X728306Y650893D01*
X727755Y650458D01*
X727219Y650004D01*
X726192Y649045D01*
X725699Y648545D01*
X725224Y648027D01*
X724303Y646966D01*
X723017Y645296D01*
X719782Y640700D01*
X719366Y640134D01*
X718514Y639017D01*
X718066Y638476D01*
X717137Y637422D01*
X716654Y636912D01*
X716150Y636422D01*
X715103Y635486D01*
X713991Y634628D01*
X713415Y634225D01*
X712820Y633852D01*
X712218Y633491D01*
X711603Y633152D01*
X710975Y632835D01*
X710342Y632531D01*
X709042Y632000D01*
X707715Y631538D01*
X706367Y631140D01*
X703634Y630488D01*
X702948Y630338D01*
X702253Y630235D01*
X701552Y630196D01*
X700853Y630257D01*
X700176Y630441D01*
X699550Y630757D01*
X698987Y631175D01*
X698492Y631673D01*
X698026Y632199D01*
X697591Y632750D01*
X697188Y633325D01*
X696817Y633922D01*
X696483Y634539D01*
X696179Y635172D01*
X695907Y635820D01*
X695671Y636482D01*
X695461Y637152D01*
X695280Y637831D01*
X695127Y638517D01*
X694998Y639207D01*
X694894Y639902D01*
X694805Y640599D01*
X694739Y641298D01*
X694649Y642700D01*
X694612Y644105D01*
X694615Y645510D01*
X694814Y655344D01*
X694930Y658151D01*
X695122Y660955D01*
X695396Y663752D01*
X695655Y665843D01*
X695852Y667234D01*
X696078Y668621D01*
X696326Y670004D01*
X696744Y672070D01*
X697051Y673441D01*
X697393Y674804D01*
X697764Y676159D01*
X698367Y678178D01*
X698814Y679510D01*
X699292Y680832D01*
X699808Y682139D01*
X700647Y684072D01*
X701253Y685340D01*
X701904Y686585D01*
X702598Y687807D01*
X703335Y689002D01*
X704117Y690169D01*
X704520Y690745D01*
X705366Y691867D01*
X706266Y692945D01*
X707214Y693982D01*
X708207Y694977D01*
X708721Y695455D01*
X709782Y696376D01*
X710885Y697246D01*
X711461Y697648D01*
X712051Y698030D01*
X712654Y698391D01*
X713269Y698729D01*
X714526Y699358D01*
X715811Y699925D01*
X716463Y700185D01*
X717787Y700657D01*
X719131Y701064D01*
X719811Y701242D01*
X720495Y701403D01*
X721876Y701663D01*
X722571Y701760D01*
X723270Y701836D01*
X723970Y701885D01*
X724672Y701907D01*
X725375Y701902D01*
X726076Y701864D01*
X726774Y701790D01*
X727467Y701676D01*
X728153Y701523D01*
X728826Y701324D01*
X729482Y701074D01*
X730117Y700775D01*
X730722Y700420D01*
X731294Y700012D01*
X731825Y699552D01*
X732316Y699051D01*
X732779Y698522D01*
X733217Y697974D01*
X733637Y697410D01*
X734427Y696248D01*
X734796Y695651D01*
X735506Y694438D01*
X735845Y693823D01*
X737135Y691326D01*
X737378Y690668D01*
X737574Y689993D01*
X737745Y689312D01*
X738357Y686569D01*
X738511Y686581D01*
X706236Y776496D02*
X705908Y776950D01*
X706236Y776496D02*
X708043Y774338D01*
X709351Y772681D01*
X710188Y771550D01*
X710990Y770394D01*
X711737Y769201D01*
X712084Y768589D01*
X712399Y767960D01*
X712681Y767315D01*
X712911Y766651D01*
X713060Y765964D01*
X713060Y765262D01*
X712869Y764587D01*
X712513Y763983D01*
X712031Y763475D01*
X711456Y763073D01*
X710828Y762758D01*
X710166Y762523D01*
X709485Y762347D01*
X708794Y762217D01*
X708096Y762126D01*
X707395Y762066D01*
X706692Y762039D01*
X705988Y762038D01*
X704582Y762087D01*
X703880Y762142D01*
X702482Y762293D01*
X700397Y762624D01*
X698331Y763060D01*
X696968Y763410D01*
X696290Y763598D01*
X694947Y764018D01*
X693621Y764489D01*
X692317Y765016D01*
X691675Y765306D01*
X691043Y765614D01*
X690427Y765955D01*
X689828Y766323D01*
X689257Y766734D01*
X688735Y767205D01*
X688299Y767756D01*
X687919Y768346D01*
X687599Y768973D01*
X687366Y769637D01*
X687231Y770328D01*
X687215Y771030D01*
X687325Y771724D01*
X687555Y772387D01*
X687885Y773007D01*
X688295Y773577D01*
X688767Y774098D01*
X689284Y774575D01*
X689836Y775010D01*
X690416Y775408D01*
X691018Y775772D01*
X691636Y776108D01*
X692266Y776421D01*
X692911Y776703D01*
X694225Y777206D01*
X695565Y777635D01*
X696927Y777988D01*
X698307Y778264D01*
X699698Y778474D01*
X701101Y778590D01*
X701804Y778607D01*
X702507Y778586D01*
X703207Y778518D01*
X703896Y778380D01*
X704561Y778151D01*
X705199Y777855D01*
X705813Y777512D01*
X706408Y777135D01*
X708137Y775925D01*
X708683Y775481D01*
X709212Y775017D01*
X709708Y774519D01*
X709339Y774508D01*
X708719Y774840D01*
X708123Y775215D01*
X707555Y775629D01*
X705908Y776950D01*
M02*
