M48
;GenerationSoftware,Autodesk,EAGLE,9.6.2*%
;CreationDate,2022-07-22T22:53:25Z*%
FMAT,2
ICI,OFF
METRIC,TZ,000.000
T8C0.381
T7C0.508
T6C0.965
T5C1.016
T4C1.270
T3C1.500
T2C1.905
T1C3.400
%
G90
M71
T1
X32258Y93218
X112268Y93218
X112268Y23241
X32258Y23241
T2
X89766Y21096
X98016Y21096
T3
X90010Y72644
T4
X70010Y72644
T5
X71628Y77470
X84328Y77470
X86868Y67818
X102362Y56562
X102362Y51562
X107188Y77470
X104648Y77470
X102108Y77470
X99568Y77470
X107188Y67818
X104648Y67818
X102108Y67818
X99568Y67818
X89408Y67818
X84328Y67818
X81788Y67818
X79248Y67818
X76708Y67818
X74168Y67818
X71628Y67818
X69088Y67818
X66548Y67818
X64008Y67818
X61468Y67818
X58928Y67818
X56388Y67818
X53848Y67818
X51308Y67818
X48768Y67818
X89408Y77470
X86868Y77470
X81788Y77470
X79248Y77470
X76708Y77470
X74168Y77470
X48768Y77470
X51308Y77470
X53848Y77470
X56388Y77470
X58928Y77470
X61468Y77470
X64008Y77470
X66548Y77470
X69088Y77470
T6
X91948Y80264
X86868Y80264
X89408Y80264
X79248Y80264
X76708Y80264
X94488Y80264
X74168Y80264
X71628Y80264
X69088Y80264
X66548Y80264
X64008Y80264
X61468Y80264
X58928Y80264
X56388Y80264
X51308Y65024
X53848Y80264
X51308Y80264
X48768Y65024
X48768Y80264
X84328Y65024
X84328Y80264
X86868Y65024
X89408Y65024
X81788Y80264
X91948Y65024
X94488Y65024
X97028Y65024
X99568Y65024
X102108Y65024
X104648Y65024
X107188Y65024
X107188Y80264
X104648Y80264
X94488Y67564
X94488Y72644
X94488Y75184
X94488Y70104
X102108Y80264
X99568Y80264
X94488Y77724
X97028Y80264
X53848Y65024
X56388Y65024
X58928Y65024
X61468Y65024
X64008Y65024
X66548Y65024
X69088Y65024
X71628Y65024
X74168Y65024
X76708Y65024
X79248Y65024
X81788Y65024
T7
X62484Y58166
X59944Y58166
X57404Y58166
X54864Y58166
X43688Y89154
T8
X105156Y61722
X53848Y61722
X53340Y35052
X64008Y39624
X66548Y38354
X69088Y37084
X71374Y35814
X74168Y34544
X76708Y33274
X81788Y42926
X91694Y43180
X96266Y32004
X98552Y29972
X92202Y38862
X94234Y43180
X70358Y57404
X67818Y58928
X100076Y43180
X102616Y43180
X103124Y49022
X107950Y49022
X79248Y60452
X93218Y60452
X93726Y53340
X91440Y57404
X89408Y57404
X85344Y38354
X57404Y41656
X84328Y54864
X85344Y36576
X84328Y57912
X83820Y52070
X106172Y38608
X95504Y28194
X86868Y62738
X80010Y41148
X106934Y41402
X106680Y59182
X51308Y61722
X80264Y34290
M30